<?xml version="1.0" encoding="UTF-8"?>
<svg width="102px" height="86px" viewBox="0 0 102 86" version="1.1" xmlns="http://www.w3.org/2000/svg" xmlns:xlink="http://www.w3.org/1999/xlink">
    <!-- Generator: Sketch 47.1 (45422) - http://www.bohemiancoding.com/sketch -->
    <title>howmuch@3x</title>
    <desc>Created with Sketch.</desc>
    <defs>
        <polygon id="path-1" points="0 79.703313 83.5845293 79.703313 83.5845293 0.187074337 0 0.187074337"></polygon>
        <polygon id="path-3" points="0 5.18368192 0 0.0060161626 10.4982555 0.0060161626 10.4982555 5.18368192"></polygon>
        <polygon id="path-5" points="0 0.157575202 0 3.75559502 10.4981725 3.75559502 10.4981725 0.157575202 0 0.157575202"></polygon>
        <polygon id="path-7" points="0 0.157575202 0 3.75559502 10.4981725 3.75559502 10.4981725 0.157575202 0 0.157575202"></polygon>
        <polygon id="path-9" points="0 0.157575202 0 3.75559502 10.4981725 3.75559502 10.4981725 0.157575202"></polygon>
        <polygon id="path-11" points="10.4981725 3.75555549 0 3.75555549 0 0.157575202 10.4981725 0.157575202"></polygon>
        <polygon id="path-13" points="0 0.157575202 0 3.75559502 10.4981725 3.75559502 10.4981725 0.157575202"></polygon>
        <polygon id="path-15" points="0 0.157575202 0 3.75559502 10.4981725 3.75559502 10.4981725 0.157575202 0 0.157575202"></polygon>
        <polygon id="path-17" points="0 0.157575202 0 3.75559502 10.4981725 3.75559502 10.4981725 0.157575202 0 0.157575202"></polygon>
        <polygon id="path-19" points="0 0.157575202 0 3.75559502 10.4981725 3.75559502 10.4981725 0.157575202 0 0.157575202"></polygon>
        <polygon id="path-21" points="0 5.12077079 0 0.00594314816 10.0917537 0.00594314816 10.0917537 5.12077079"></polygon>
        <polygon id="path-23" points="0 0.155662809 0 3.7100157 10.091674 3.7100157 10.091674 0.155662809 0 0.155662809"></polygon>
        <polygon id="path-25" points="0 0.155662809 0 3.7100157 10.091674 3.7100157 10.091674 0.155662809 0 0.155662809"></polygon>
        <polygon id="path-27" points="0 0.155662809 0 3.7100157 10.091674 3.7100157 10.091674 0.155662809"></polygon>
        <polygon id="path-29" points="10.091674 3.70997664 0 3.70997664 0 0.155662809 10.091674 0.155662809"></polygon>
        <polygon id="path-31" points="0 0.155662809 0 3.7100157 10.091674 3.7100157 10.091674 0.155662809"></polygon>
        <polygon id="path-33" points="0 0.155662809 0 3.7100157 10.091674 3.7100157 10.091674 0.155662809 0 0.155662809"></polygon>
        <polygon id="path-35" points="0 0.155662809 0 3.7100157 10.091674 3.7100157 10.091674 0.155662809 0 0.155662809"></polygon>
        <polygon id="path-37" points="0 0.155662809 0 3.7100157 10.091674 3.7100157 10.091674 0.155662809 0 0.155662809"></polygon>
        <polygon id="path-39" points="0 5.12077079 0 0.00594314816 10.0917537 0.00594314816 10.0917537 5.12077079"></polygon>
        <polygon id="path-41" points="0 0.155662809 0 3.7100157 10.091674 3.7100157 10.091674 0.155662809 0 0.155662809"></polygon>
        <polygon id="path-43" points="0 0.155662809 0 3.7100157 10.091674 3.7100157 10.091674 0.155662809 0 0.155662809"></polygon>
        <polygon id="path-45" points="0 0.155662809 0 3.7100157 10.091674 3.7100157 10.091674 0.155662809"></polygon>
        <polygon id="path-47" points="10.091674 3.70997664 0 3.70997664 0 0.155662809 10.091674 0.155662809"></polygon>
        <polygon id="path-49" points="0 0.155662809 0 3.7100157 10.091674 3.7100157 10.091674 0.155662809"></polygon>
        <polygon id="path-51" points="0 0.155662809 0 3.7100157 10.091674 3.7100157 10.091674 0.155662809 0 0.155662809"></polygon>
        <polygon id="path-53" points="0 0.155662809 0 3.7100157 10.091674 3.7100157 10.091674 0.155662809 0 0.155662809"></polygon>
        <polygon id="path-55" points="0 0.155662809 0 3.7100157 10.091674 3.7100157 10.091674 0.155662809 0 0.155662809"></polygon>
    </defs>
    <g id="Page-1" stroke="none" stroke-width="1" fill="none" fill-rule="evenodd">
        <g id="graphics" transform="translate(-506.000000, -1078.000000)">
            <g id="howmuch" transform="translate(506.000000, 1078.000000)">
                <g id="school_money">
                    <g id="school" transform="translate(17.957746, 0.000000)">
                        <polygon id="Fill-1" fill="#A67C52" points="41.1337784 18.4487786 42.7978148 18.4487786 42.7978148 0.253832207 41.1337784 0.253832207"></polygon>
                        <polygon id="Fill-2" fill="#F7EDCF" points="0.201211155 77.8092171 26.594503 77.8092171 26.594503 39.8514027 0.201211155 39.8514027"></polygon>
                        <polygon id="Fill-3" fill="#FCFCFC" points="26.1291643 31.175494 41.9942594 21.1496295 41.9942594 77.8859506 26.1291643 77.8859506"></polygon>
                        <polygon id="Fill-4" fill="#ADB1BA" points="0 79.7700709 41.8092007 79.7700709 41.8092007 75.2257129 0 75.2257129"></polygon>
                        <polygon id="Fill-5" fill="#286DD1" points="0.185033374 41.8922136 26.2489557 41.8922136 26.2489557 37.6141256 0.185033374 37.6141256"></polygon>
                        <polygon id="Fill-6" fill="#286DD1" points="42.0371305 21.6785904 24.6609295 32.9934149 22.7041763 29.1935467 41.9291944 16.7649065"></polygon>
                        <polygon id="Fill-7" fill="#F7EDCF" points="42.0786114 24.6653325 26.5512274 34.4949847 26.0734773 32.1800349 41.9704224 21.6081774"></polygon>
                        <polygon id="Fill-8" fill="#9FE0FF" points="15.2318361 46.766325 15.2318361 64.0429065 10.8183351 64.0429065 10.8180823 46.766325"></polygon>
                        <polygon id="Fill-9" fill="#9FE0FF" points="7.96025201 46.766325 7.96025201 64.0429065 3.54675105 64.0429065 3.54649827 46.766325"></polygon>
                        <polygon id="Fill-10" fill="#9FE0FF" points="22.5093099 46.766325 22.5095627 64.0429065 18.0958089 64.0429065 18.0955562 46.766325"></polygon>
                        <g id="Group-31" transform="translate(0.000000, 0.066758)">
                            <path d="M41.6243949,46.8691271 C37.3645828,46.8691271 33.9113849,43.4015253 33.9113849,39.1236911 C33.9113849,34.8463646 37.3645828,31.3787628 41.6243949,31.3787628 L41.6243949,46.8691271 Z" id="Fill-11" fill="#FFDE3C"></path>
                            <mask id="mask-2" fill="white">
                                <use xlink:href="#path-1"></use>
                            </mask>
                            <g id="Clip-14"></g>
                            <polygon id="Fill-13" fill="#2F90A6" mask="url(#mask-2)" points="37.5354859 75.158955 41.8092007 75.158955 41.8092007 61.5680171 37.5354859 61.5680171"></polygon>
                            <polygon id="Fill-15" fill="#FEEA5F" mask="url(#mask-2)" points="33.2150072 75.158955 35.1854104 75.158955 35.1854104 55.3377056 33.2150072 55.3377056"></polygon>
                            <polygon id="Fill-16" fill="#FEEA5F" mask="url(#mask-2)" points="41.9941836 57.194209 32.2905481 57.194209 32.2905481 55.0208976 41.9941836 51.3078401"></polygon>
                            <polygon id="Fill-17" fill="#EBDFBC" mask="url(#mask-2)" points="56.9900263 77.7424592 83.3833181 77.7424592 83.3833181 39.7848986 56.9900263 39.7848986"></polygon>
                            <polygon id="Fill-18" fill="#F0E9D1" mask="url(#mask-2)" points="57.4553397 31.1087361 41.5902446 21.0828716 41.5902446 77.8191927 57.4553397 77.8191927"></polygon>
                            <polygon id="Fill-19" fill="#959CA9" mask="url(#mask-2)" points="41.5902951 79.703313 83.5845293 79.703313 83.5845293 75.1592088 41.5902951 75.1592088"></polygon>
                            <polygon id="Fill-20" fill="#1D5FC0" mask="url(#mask-2)" points="57.3355736 41.8254557 83.3994959 41.8254557 83.3994959 37.5473677 57.3355736 37.5473677"></polygon>
                            <polygon id="Fill-21" fill="#1D5FC0" mask="url(#mask-2)" points="41.5473735 21.6118325 58.9233217 32.926657 60.8803277 29.1267889 41.6553096 16.6981487"></polygon>
                            <polygon id="Fill-22" fill="#EBDFBC" mask="url(#mask-2)" points="41.5059179 24.5985746 57.0333018 34.4282268 57.5110519 32.1132771 41.6141068 21.5414195"></polygon>
                            <polygon id="Fill-23" fill="#8CD0F2" mask="url(#mask-2)" points="68.3526932 46.6995672 68.3526932 63.9761487 72.7661941 63.9761487 72.7664469 46.6995672"></polygon>
                            <polygon id="Fill-24" fill="#8CD0F2" mask="url(#mask-2)" points="75.624252 46.6995672 75.624252 63.9761487 80.0377529 63.9761487 80.0380057 46.6995672"></polygon>
                            <polygon id="Fill-25" fill="#8CD0F2" mask="url(#mask-2)" points="61.0751941 46.6995672 61.0749413 63.9761487 65.4886951 63.9761487 65.4889478 46.6995672"></polygon>
                            <path d="M41.5059179,46.8691271 C45.9143633,46.8691271 49.4881363,43.4015253 49.4881363,39.1236911 C49.4881363,34.8463646 45.9143633,31.3787628 41.5059179,31.3787628" id="Fill-26" fill="#F3D22F" mask="url(#mask-2)"></path>
                            <polygon id="Fill-27" fill="#238095" mask="url(#mask-2)" points="41.5058673 75.158955 45.86401 75.158955 45.86401 61.5680171 41.5058673 61.5680171"></polygon>
                            <polygon id="Fill-28" fill="#F2DE50" mask="url(#mask-2)" points="48.2140855 75.158955 50.1844887 75.158955 50.1844887 55.3377056 48.2140855 55.3377056"></polygon>
                            <polygon id="Fill-29" fill="#F2DE50" mask="url(#mask-2)" points="41.5903204 57.194209 51.2939559 57.194209 51.2939559 55.0208976 41.5903204 51.3078401"></polygon>
                            <polygon id="Fill-30" fill="#1D5FC0" mask="url(#mask-2)" points="53.7066444 9.2846237 42.7980171 9.2846237 42.7980171 0.18702357 53.7066444 0.18702357 50.0087575 4.73569672"></polygon>
                        </g>
                    </g>
                    <g id="money" transform="translate(0.000000, 57.464789)">
                        <g id="Page-1">
                            <polygon id="Fill-1" fill="#06845A" points="0 22.0456205 28.6651791 22.0456205 28.6651791 9.27279644 0 9.27279644"></polygon>
                            <polygon id="Fill-2" fill="#0B9B67" points="0 21.3712873 28.6651791 21.3712873 28.6651791 8.59846317 0 8.59846317"></polygon>
                            <polygon id="Fill-3" fill="#06845A" points="0 19.8242874 28.6651791 19.8242874 28.6651791 7.05162199 0 7.05162199"></polygon>
                            <polygon id="Fill-4" fill="#0B9B67" points="0 19.1499541 28.6651791 19.1499541 28.6651791 6.37728872 0 6.37728872"></polygon>
                            <polygon id="Fill-5" fill="#06845A" points="0 17.6029543 28.6651791 17.6029543 28.6651791 4.8301302 0 4.8301302"></polygon>
                            <polygon id="Fill-6" fill="#0B9B67" points="0 16.9284624 28.6651791 16.9284624 28.6651791 4.15579693 0 4.15579693"></polygon>
                            <polygon id="Fill-7" fill="#06845A" points="0 15.3816212 28.6651791 15.3816212 28.6651791 2.60895575 0 2.60895575"></polygon>
                            <polygon id="Fill-8" fill="#0B9B67" points="0 14.7072879 28.6651791 14.7072879 28.6651791 1.93446381 0 1.93446381"></polygon>
                            <polygon id="Fill-9" fill="#2BC19A" points="0 12.7726654 28.6651791 12.7726654 28.6651791 2.84217094e-14 0 2.84217094e-14"></polygon>
                            <path d="M2.19096603,10.7401456 L26.4743741,10.7401456 L26.4743741,2.0325198 L2.19096603,2.0325198 L2.19096603,10.7401456 Z M1.27737909,11.5095202 L27.3879611,11.5095202 L27.3879611,1.26298654 L1.27737909,1.26298654 L1.27737909,11.5095202 Z" id="Fill-10" fill="#0A996D"></path>
                            <g id="Group-25" transform="translate(1.127289, 0.308289)">
                                <path d="M19.3195374,6.04510422 C19.3195374,9.37218523 16.5821585,12.069201 13.2052848,12.069201 C9.82857215,12.069201 7.09103216,9.37218523 7.09103216,6.04510422 C7.09103216,2.7180232 9.82857215,0.0210074646 13.2052848,0.0210074646 C16.5821585,0.0210074646 19.3195374,2.7180232 19.3195374,6.04510422" id="Fill-11" fill="#2BC19A"></path>
                                <path d="M18.1405062,6.04510422 C18.1405062,8.73053729 15.9308594,10.9076024 13.2052365,10.9076024 C10.4797746,10.9076024 8.27028882,8.73053729 8.27028882,6.04510422 C8.27028882,3.35967114 10.4797746,1.18260602 13.2052365,1.18260602 C15.9308594,1.18260602 18.1405062,3.35967114 18.1405062,6.04510422" id="Fill-13" fill="#0A996D"></path>
                                <path d="M26.2472899,8.51094264 C26.2390768,8.51078398 26.2311858,8.50967331 26.2231337,8.50967331 C24.7610403,8.50967331 23.5759379,9.67745986 23.5759379,11.1178357 C23.5759379,11.1459197 23.5793197,11.1732104 23.5801249,11.2012944 L26.2472899,11.2012944 L26.2472899,8.51094264 Z" id="Fill-15" fill="#0A996D"></path>
                                <path d="M0.13691726,8.51094264 C0.145130363,8.51078398 0.153021383,8.50967331 0.161234486,8.50967331 C1.62316683,8.50967331 2.80843034,9.67745986 2.80843034,11.1178357 C2.80843034,11.1459197 2.80488743,11.1732104 2.80408223,11.2012944 L0.13691726,11.2012944 L0.13691726,8.51094264 Z" id="Fill-17" fill="#0A996D"></path>
                                <path d="M26.2472899,3.64511245 C26.2390768,3.64511245 26.2311858,3.64638178 26.2231337,3.64638178 C24.7610403,3.64638178 23.5759379,2.47859523 23.5759379,1.03821937 C23.5759379,1.01013537 23.5793197,0.982686038 23.5801249,0.954760708 L26.2472899,0.954760708 L26.2472899,3.64511245 Z" id="Fill-19" fill="#0A996D"></path>
                                <path d="M0.13691726,3.64511245 C0.145130363,3.64511245 0.153021383,3.64638178 0.161234486,3.64638178 C1.62316683,3.64638178 2.80843034,2.47859523 2.80843034,1.03821937 C2.80843034,1.01013537 2.80488743,0.982686038 2.80408223,0.954760708 L0.13691726,0.954760708 L0.13691726,3.64511245 Z" id="Fill-21" fill="#0A996D"></path>
                                <path d="M15.0201712,7.5973718 C14.8633171,7.50106114 14.5998536,7.44140248 14.3487903,7.33303316 C14.339933,7.32763849 14.328177,7.32224383 14.3109456,7.31684916 C14.2673034,7.29701583 14.2252717,7.27638916 14.1842062,7.2552865 C13.8780668,7.04886119 13.922031,6.5477919 13.960842,6.51716924 C14.261828,6.28075593 14.4149783,6.04481862 14.4993639,5.79983731 C14.6174071,5.76080531 14.7728119,5.562472 14.7728119,5.32209202 C14.7728119,5.10805071 14.7109721,4.92828139 14.6256202,4.8635454 C14.6262644,4.8092814 14.6270696,4.75819074 14.6290021,4.73248674 C14.6845613,4.03276681 14.2705243,3.49742553 13.7134826,3.28973088 C13.5488985,3.22848555 13.3722363,3.18088556 13.1912259,3.18088556 C13.062876,3.18088556 12.9372639,3.21484022 12.8176102,3.25054022 C12.1959911,3.43506953 11.7230129,4.06005747 11.7532887,4.73248674 C11.754416,4.75692141 11.7548991,4.80944007 11.7555433,4.86418006 C11.6706745,4.92986806 11.6094789,5.10900271 11.6094789,5.32209202 C11.6094789,5.59055599 11.8233416,5.80824664 11.9425121,5.80824664 C11.9429953,5.80824664 11.9433174,5.80792931 11.9436394,5.80792931 C12.0523423,6.05592528 12.2130614,6.29091059 12.4410958,6.51716924 C12.4763639,6.55223457 12.4998759,6.99475586 12.2515503,7.21593717 C11.9413849,7.32573449 11.5426468,7.49645981 11.3619585,7.5973718 C10.9089495,7.85028644 10.868045,7.94358243 10.868045,8.3129584 L10.868045,8.75706635 L15.54275,8.75706635 L15.54275,8.3129584 C15.54275,7.96436776 15.4259951,7.84679577 15.0201712,7.5973718" id="Fill-23" fill="#2BC19A"></path>
                            </g>
                        </g>
                        <g id="Page-1" transform="translate(25.282982, 15.859227)">
                            <g id="Group-3" transform="translate(0.000000, 0.005475)">
                                <mask id="mask-4" fill="white">
                                    <use xlink:href="#path-3"></use>
                                </mask>
                                <g id="Clip-2"></g>
                                <path d="M10.4982555,2.59491822 C10.4982555,4.0245989 8.14797404,5.18368192 5.24921067,5.18368192 C2.35003258,5.18368192 -4.14731149e-05,4.0245989 -4.14731149e-05,2.59491822 C-4.14731149e-05,1.16503989 2.35003258,0.00595686435 5.24921067,0.00595686435 C8.14797404,0.00595686435 10.4982555,1.16503989 10.4982555,2.59491822" id="Fill-1" fill="#EFD44F" mask="url(#mask-4)"></path>
                            </g>
                            <path d="M9.42781363,2.65848594 C9.42781363,3.73316779 7.55696141,4.60445667 5.24918994,4.60445667 C2.94141846,4.60445667 1.07035888,3.73316779 1.07035888,2.65848594 C1.07035888,1.58360643 2.94141846,0.712317554 5.24918994,0.712317554 C7.55696141,0.712317554 9.42781363,1.58360643 9.42781363,2.65848594" id="Fill-4" fill="#E4C22F"></path>
                            <g id="Group-8" transform="translate(0.000000, 2.586616)">
                                <mask id="mask-6" fill="white">
                                    <use xlink:href="#path-5"></use>
                                </mask>
                                <g id="Clip-7"></g>
                                <path d="M10.4846937,0.157575202 C10.3001384,1.50463366 8.02741169,2.56963013 5.24912773,2.56963013 C2.47084376,2.56963013 0.198324435,1.50483132 0.0135617086,0.157772863 L0.0135617086,0.989924895 C0.00568181674,1.0484325 -0.000124419345,1.10733542 -0.000124419345,1.16663366 C-0.000124419345,2.596512 2.34994963,3.75559502 5.24912773,3.75559502 C8.14809846,3.75559502 10.4981725,2.596512 10.4981725,1.16663366 C10.4981725,1.10733542 10.4925736,1.0484325 10.4846937,0.989924895 L10.4846937,0.157575202 Z" id="Fill-6" fill="#E4C22F" mask="url(#mask-6)"></path>
                            </g>
                            <g id="Group-11" transform="translate(0.000000, 3.772581)">
                                <mask id="mask-8" fill="white">
                                    <use xlink:href="#path-7"></use>
                                </mask>
                                <g id="Clip-10"></g>
                                <path d="M10.4846937,0.157575202 C10.3001384,1.50463366 8.02741169,2.56963013 5.24912773,2.56963013 C2.47084376,2.56963013 0.198324435,1.50483132 0.0135617086,0.157772863 L0.0135617086,0.989924895 C0.00568181674,1.0484325 -0.000124419345,1.10733542 -0.000124419345,1.16663366 C-0.000124419345,2.596512 2.34994963,3.75559502 5.24912773,3.75559502 C8.14809846,3.75559502 10.4981725,2.596512 10.4981725,1.16663366 C10.4981725,1.10733542 10.4925736,1.0484325 10.4846937,0.989924895 L10.4846937,0.157575202 Z" id="Fill-9" fill="#EFD44F" mask="url(#mask-8)"></path>
                            </g>
                            <g id="Group-14" transform="translate(0.000000, 7.330476)">
                                <mask id="mask-10" fill="white">
                                    <use xlink:href="#path-9"></use>
                                </mask>
                                <g id="Clip-13"></g>
                                <path d="M10.4846937,0.157575202 C10.3001384,1.50463366 8.02741169,2.56963013 5.24912773,2.56963013 C2.47084376,2.56963013 0.198324435,1.50483132 0.0135617086,0.157772863 L0.0135617086,0.989924895 C0.00568181674,1.0484325 -0.000124419345,1.10733542 -0.000124419345,1.16663366 C-0.000124419345,2.596512 2.34994963,3.75559502 5.24912773,3.75559502 C8.14809846,3.75559502 10.4981725,2.596512 10.4981725,1.16663366 C10.4981725,1.10733542 10.4925736,1.0484325 10.4846937,0.989924895 L10.4846937,0.157575202 Z" id="Fill-12" fill="#E4C22F" mask="url(#mask-10)"></path>
                            </g>
                            <g id="Group-17" transform="translate(0.000000, 8.516441)">
                                <mask id="mask-12" fill="white">
                                    <use xlink:href="#path-11"></use>
                                </mask>
                                <g id="Clip-16"></g>
                                <path d="M10.4846937,0.157575202 C10.3001384,1.50463366 8.02741169,2.56963013 5.24912773,2.56963013 C2.47084376,2.56963013 0.198324435,1.50483132 0.0135617086,0.157772863 L0.0135617086,0.989924895 C0.00568181674,1.0484325 -0.000124419345,1.10733542 -0.000124419345,1.16663366 C-0.000124419345,2.596512 2.34994963,3.75559502 5.24912773,3.75559502 C8.14809846,3.75559502 10.4981725,2.596512 10.4981725,1.16663366 C10.4981725,1.10733542 10.4925736,1.0484325 10.4846937,0.989924895 L10.4846937,0.157575202 Z" id="Fill-15" fill="#EFD44F" mask="url(#mask-12)"></path>
                            </g>
                            <g id="Group-20" transform="translate(0.000000, 4.958546)">
                                <mask id="mask-14" fill="white">
                                    <use xlink:href="#path-13"></use>
                                </mask>
                                <g id="Clip-19"></g>
                                <path d="M10.4846937,0.157575202 C10.3001384,1.50463366 8.02741169,2.56963013 5.24912773,2.56963013 C2.47084376,2.56963013 0.198324435,1.50483132 0.0135617086,0.157772863 L0.0135617086,0.989924895 C0.00568181674,1.0484325 -0.000124419345,1.10733542 -0.000124419345,1.16663366 C-0.000124419345,2.596512 2.34994963,3.75559502 5.24912773,3.75559502 C8.14809846,3.75559502 10.4981725,2.596512 10.4981725,1.16663366 C10.4981725,1.10733542 10.4925736,1.0484325 10.4846937,0.989924895 L10.4846937,0.157575202 Z" id="Fill-18" fill="#E4C22F" mask="url(#mask-14)"></path>
                            </g>
                            <g id="Group-23" transform="translate(0.000000, 6.144511)">
                                <mask id="mask-16" fill="white">
                                    <use xlink:href="#path-15"></use>
                                </mask>
                                <g id="Clip-22"></g>
                                <path d="M10.4846937,0.157575202 C10.3001384,1.50463366 8.02741169,2.56963013 5.24912773,2.56963013 C2.47084376,2.56963013 0.198324435,1.50483132 0.0135617086,0.157772863 L0.0135617086,0.989924895 C0.00568181674,1.0484325 -0.000124419345,1.10733542 -0.000124419345,1.16663366 C-0.000124419345,2.596512 2.34994963,3.75559502 5.24912773,3.75559502 C8.14809846,3.75559502 10.4981725,2.596512 10.4981725,1.16663366 C10.4981725,1.10733542 10.4925736,1.0484325 10.4846937,0.989924895 L10.4846937,0.157575202 Z" id="Fill-21" fill="#EFD44F" mask="url(#mask-16)"></path>
                            </g>
                            <g id="Group-26" transform="translate(0.000000, 2.586616)">
                                <mask id="mask-18" fill="white">
                                    <use xlink:href="#path-17"></use>
                                </mask>
                                <g id="Clip-25"></g>
                                <path d="M10.4846937,0.157575202 C10.3001384,1.50463366 8.02741169,2.56963013 5.24912773,2.56963013 C2.47084376,2.56963013 0.198324435,1.50483132 0.0135617086,0.157772863 L0.0135617086,0.989924895 C0.00568181674,1.0484325 -0.000124419345,1.10733542 -0.000124419345,1.16663366 C-0.000124419345,2.596512 2.34994963,3.75559502 5.24912773,3.75559502 C8.14809846,3.75559502 10.4981725,2.596512 10.4981725,1.16663366 C10.4981725,1.10733542 10.4925736,1.0484325 10.4846937,0.989924895 L10.4846937,0.157575202 Z" id="Fill-24" fill="#E4C22F" mask="url(#mask-18)"></path>
                            </g>
                            <g id="Group-29" transform="translate(0.000000, 3.772581)">
                                <mask id="mask-20" fill="white">
                                    <use xlink:href="#path-19"></use>
                                </mask>
                                <g id="Clip-28"></g>
                                <path d="M10.4846937,0.157575202 C10.3001384,1.50463366 8.02741169,2.56963013 5.24912773,2.56963013 C2.47084376,2.56963013 0.198324435,1.50483132 0.0135617086,0.157772863 L0.0135617086,0.989924895 C0.00568181674,1.0484325 -0.000124419345,1.10733542 -0.000124419345,1.16663366 C-0.000124419345,2.596512 2.34994963,3.75559502 5.24912773,3.75559502 C8.14809846,3.75559502 10.4981725,2.596512 10.4981725,1.16663366 C10.4981725,1.10733542 10.4925736,1.0484325 10.4846937,0.989924895 L10.4846937,0.157575202 Z" id="Fill-27" fill="#EFD44F" mask="url(#mask-20)"></path>
                            </g>
                            <path d="M8.97237661,2.65848594 C8.97237661,3.53946019 7.30536476,4.25380638 5.24912773,4.25380638 C3.19289069,4.25380638 1.52587884,3.53946019 1.52587884,2.65848594 C1.52587884,1.77711637 3.19289069,1.06296784 5.24912773,1.06296784 C7.30536476,1.06296784 8.97237661,1.77711637 8.97237661,2.65848594" id="Fill-30" fill="#EFD44F"></path>
                            <path d="M6.41655444,2.59768547 L4.75514146,2.59768547 L4.75514146,2.70402699 L5.70632735,2.70402699 C6.04765108,2.70402699 6.2842552,2.66844805 6.41655444,2.59768547 L6.41655444,2.59768547 Z M6.57477437,2.37353811 C6.57477437,2.35298138 6.57290808,2.33618022 6.56959023,2.32273928 L4.75514146,2.32273928 L4.75514146,2.43421998 L6.56710185,2.43421998 C6.57207862,2.41603518 6.57477437,2.39587378 6.57477437,2.37353811 L6.57477437,2.37353811 Z M6.42920374,2.15947145 C6.35558896,2.11578841 6.26268918,2.08653461 6.15050441,2.07171004 C6.07025393,2.0608387 5.91887706,2.05550186 5.69616643,2.05550186 L4.75514146,2.05550186 L4.75514146,2.15947145 L6.42920374,2.15947145 Z M7.24974932,2.59768547 L6.98867606,2.59768547 C6.94015251,2.65461179 6.87006295,2.70778255 6.77778527,2.75739541 C6.57871432,2.86452757 6.21914241,2.91809366 5.69886219,2.91809366 L4.75514146,2.91809366 L4.75514146,3.65596148 L4.26845445,3.65596148 L4.26845445,2.59768547 L3.91468878,2.59768547 L3.91468878,2.43421998 L4.26845445,2.43421998 L4.26845445,2.32273928 L3.91468878,2.32273928 L3.91468878,2.15947145 L4.26845445,2.15947145 L4.26845445,1.84143519 L5.65614488,1.84143519 C5.89378583,1.84143519 6.08020748,1.84716736 6.21582456,1.85882935 C6.60733077,1.89262935 6.86923349,1.99264572 7.00111799,2.15947145 L7.24974932,2.15947145 L7.24974932,2.32273928 L7.07411067,2.32273928 C7.0757696,2.33519191 7.07659906,2.34962115 7.07659906,2.36622466 C7.07659906,2.38678138 7.07411067,2.40951238 7.06892654,2.43421998 L7.24974932,2.43421998 L7.24974932,2.59768547 Z" id="Fill-32" fill="#D7B129"></path>
                        </g>
                        <g id="Page-1-Copy-3" transform="translate(25.282982, 8.650487)">
                            <g id="Group-3" transform="translate(0.000000, 0.005409)">
                                <mask id="mask-22" fill="white">
                                    <use xlink:href="#path-21"></use>
                                </mask>
                                <g id="Clip-2"></g>
                                <path d="M10.0917537,2.56342531 C10.0917537,3.97575484 7.83247727,5.12077079 5.04595659,5.12077079 C2.25903724,5.12077079 -3.98672391e-05,3.97575484 -3.98672391e-05,2.56342531 C-3.98672391e-05,1.15090052 2.25903724,0.00588456958 5.04595659,0.00588456958 C7.83247727,0.00588456958 10.0917537,1.15090052 10.0917537,2.56342531" id="Fill-1" fill="#EFD44F" mask="url(#mask-22)"></path>
                            </g>
                            <path d="M9.06276033,2.62622155 C9.06276033,3.68786065 7.26434918,4.54857523 5.04593666,4.54857523 C2.82752413,4.54857523 1.02891364,3.68786065 1.02891364,2.62622155 C1.02891364,1.56438718 2.82752413,0.703672598 5.04593666,0.703672598 C7.26434918,0.703672598 9.06276033,1.56438718 9.06276033,2.62622155" id="Fill-4" fill="#E4C22F"></path>
                            <g id="Group-8" transform="translate(0.000000, 2.555224)">
                                <mask id="mask-24" fill="white">
                                    <use xlink:href="#path-23"></use>
                                </mask>
                                <g id="Clip-7"></g>
                                <path d="M10.0787171,0.155662809 C9.90130791,1.48637285 7.7165832,2.53844412 5.04587686,2.53844412 C2.37517051,2.53844412 0.190645138,1.48656811 0.0130365872,0.155858071 L0.0130365872,0.977910791 C0.00546181176,1.03570832 -0.000119601717,1.09389638 -0.000119601717,1.15247495 C-0.000119601717,2.56499975 2.2589575,3.7100157 5.04587686,3.7100157 C7.83259687,3.7100157 10.091674,2.56499975 10.091674,1.15247495 C10.091674,1.09389638 10.0862919,1.03570832 10.0787171,0.977910791 L10.0787171,0.155662809 Z" id="Fill-6" fill="#E4C22F" mask="url(#mask-24)"></path>
                            </g>
                            <g id="Group-11" transform="translate(0.000000, 3.726796)">
                                <mask id="mask-26" fill="white">
                                    <use xlink:href="#path-25"></use>
                                </mask>
                                <g id="Clip-10"></g>
                                <path d="M10.0787171,0.155662809 C9.90130791,1.48637285 7.7165832,2.53844412 5.04587686,2.53844412 C2.37517051,2.53844412 0.190645138,1.48656811 0.0130365872,0.155858071 L0.0130365872,0.977910791 C0.00546181176,1.03570832 -0.000119601717,1.09389638 -0.000119601717,1.15247495 C-0.000119601717,2.56499975 2.2589575,3.7100157 5.04587686,3.7100157 C7.83259687,3.7100157 10.091674,2.56499975 10.091674,1.15247495 C10.091674,1.09389638 10.0862919,1.03570832 10.0787171,0.977910791 L10.0787171,0.155662809 Z" id="Fill-9" fill="#EFD44F" mask="url(#mask-26)"></path>
                            </g>
                            <g id="Group-14" transform="translate(0.000000, 7.241511)">
                                <mask id="mask-28" fill="white">
                                    <use xlink:href="#path-27"></use>
                                </mask>
                                <g id="Clip-13"></g>
                                <path d="M10.0787171,0.155662809 C9.90130791,1.48637285 7.7165832,2.53844412 5.04587686,2.53844412 C2.37517051,2.53844412 0.190645138,1.48656811 0.0130365872,0.155858071 L0.0130365872,0.977910791 C0.00546181176,1.03570832 -0.000119601717,1.09389638 -0.000119601717,1.15247495 C-0.000119601717,2.56499975 2.2589575,3.7100157 5.04587686,3.7100157 C7.83259687,3.7100157 10.091674,2.56499975 10.091674,1.15247495 C10.091674,1.09389638 10.0862919,1.03570832 10.0787171,0.977910791 L10.0787171,0.155662809 Z" id="Fill-12" fill="#E4C22F" mask="url(#mask-28)"></path>
                            </g>
                            <g id="Group-17" transform="translate(0.000000, 8.413082)">
                                <mask id="mask-30" fill="white">
                                    <use xlink:href="#path-29"></use>
                                </mask>
                                <g id="Clip-16"></g>
                                <path d="M10.0787171,0.155662809 C9.90130791,1.48637285 7.7165832,2.53844412 5.04587686,2.53844412 C2.37517051,2.53844412 0.190645138,1.48656811 0.0130365872,0.155858071 L0.0130365872,0.977910791 C0.00546181176,1.03570832 -0.000119601717,1.09389638 -0.000119601717,1.15247495 C-0.000119601717,2.56499975 2.2589575,3.7100157 5.04587686,3.7100157 C7.83259687,3.7100157 10.091674,2.56499975 10.091674,1.15247495 C10.091674,1.09389638 10.0862919,1.03570832 10.0787171,0.977910791 L10.0787171,0.155662809 Z" id="Fill-15" fill="#EFD44F" mask="url(#mask-30)"></path>
                            </g>
                            <g id="Group-20" transform="translate(0.000000, 4.898367)">
                                <mask id="mask-32" fill="white">
                                    <use xlink:href="#path-31"></use>
                                </mask>
                                <g id="Clip-19"></g>
                                <path d="M10.0787171,0.155662809 C9.90130791,1.48637285 7.7165832,2.53844412 5.04587686,2.53844412 C2.37517051,2.53844412 0.190645138,1.48656811 0.0130365872,0.155858071 L0.0130365872,0.977910791 C0.00546181176,1.03570832 -0.000119601717,1.09389638 -0.000119601717,1.15247495 C-0.000119601717,2.56499975 2.2589575,3.7100157 5.04587686,3.7100157 C7.83259687,3.7100157 10.091674,2.56499975 10.091674,1.15247495 C10.091674,1.09389638 10.0862919,1.03570832 10.0787171,0.977910791 L10.0787171,0.155662809 Z" id="Fill-18" fill="#E4C22F" mask="url(#mask-32)"></path>
                            </g>
                            <g id="Group-23" transform="translate(0.000000, 6.069939)">
                                <mask id="mask-34" fill="white">
                                    <use xlink:href="#path-33"></use>
                                </mask>
                                <g id="Clip-22"></g>
                                <path d="M10.0787171,0.155662809 C9.90130791,1.48637285 7.7165832,2.53844412 5.04587686,2.53844412 C2.37517051,2.53844412 0.190645138,1.48656811 0.0130365872,0.155858071 L0.0130365872,0.977910791 C0.00546181176,1.03570832 -0.000119601717,1.09389638 -0.000119601717,1.15247495 C-0.000119601717,2.56499975 2.2589575,3.7100157 5.04587686,3.7100157 C7.83259687,3.7100157 10.091674,2.56499975 10.091674,1.15247495 C10.091674,1.09389638 10.0862919,1.03570832 10.0787171,0.977910791 L10.0787171,0.155662809 Z" id="Fill-21" fill="#EFD44F" mask="url(#mask-34)"></path>
                            </g>
                            <g id="Group-26" transform="translate(0.000000, 2.555224)">
                                <mask id="mask-36" fill="white">
                                    <use xlink:href="#path-35"></use>
                                </mask>
                                <g id="Clip-25"></g>
                                <path d="M10.0787171,0.155662809 C9.90130791,1.48637285 7.7165832,2.53844412 5.04587686,2.53844412 C2.37517051,2.53844412 0.190645138,1.48656811 0.0130365872,0.155858071 L0.0130365872,0.977910791 C0.00546181176,1.03570832 -0.000119601717,1.09389638 -0.000119601717,1.15247495 C-0.000119601717,2.56499975 2.2589575,3.7100157 5.04587686,3.7100157 C7.83259687,3.7100157 10.091674,2.56499975 10.091674,1.15247495 C10.091674,1.09389638 10.0862919,1.03570832 10.0787171,0.977910791 L10.0787171,0.155662809 Z" id="Fill-24" fill="#E4C22F" mask="url(#mask-36)"></path>
                            </g>
                            <g id="Group-29" transform="translate(0.000000, 3.726796)">
                                <mask id="mask-38" fill="white">
                                    <use xlink:href="#path-37"></use>
                                </mask>
                                <g id="Clip-28"></g>
                                <path d="M10.0787171,0.155662809 C9.90130791,1.48637285 7.7165832,2.53844412 5.04587686,2.53844412 C2.37517051,2.53844412 0.190645138,1.48656811 0.0130365872,0.155858071 L0.0130365872,0.977910791 C0.00546181176,1.03570832 -0.000119601717,1.09389638 -0.000119601717,1.15247495 C-0.000119601717,2.56499975 2.2589575,3.7100157 5.04587686,3.7100157 C7.83259687,3.7100157 10.091674,2.56499975 10.091674,1.15247495 C10.091674,1.09389638 10.0862919,1.03570832 10.0787171,0.977910791 L10.0787171,0.155662809 Z" id="Fill-27" fill="#EFD44F" mask="url(#mask-38)"></path>
                            </g>
                            <path d="M8.62495825,2.62622155 C8.62495825,3.49650396 7.02249457,4.20218057 5.04587686,4.20218057 C3.06925914,4.20218057 1.46679546,3.49650396 1.46679546,2.62622155 C1.46679546,1.75554861 3.06925914,1.05006726 5.04587686,1.05006726 C7.02249457,1.05006726 8.62495825,1.75554861 8.62495825,2.62622155" id="Fill-30" fill="#EFD44F"></path>
                            <path d="M6.16809977,2.56615898 L4.57101817,2.56615898 L4.57101817,2.67120989 L5.4853733,2.67120989 C5.81348068,2.67120989 6.04092328,2.63606275 6.16809977,2.56615898 L6.16809977,2.56615898 Z M6.32019329,2.34473195 C6.32019329,2.32442471 6.31839926,2.30782745 6.31520988,2.29454963 L4.57101817,2.29454963 L4.57101817,2.40467736 L6.31281785,2.40467736 C6.31760192,2.38671326 6.32019329,2.36679655 6.32019329,2.34473195 L6.32019329,2.34473195 Z M6.18025928,2.13326328 C6.10949493,2.0901104 6.02019231,2.06121163 5.91235143,2.04656699 C5.83520832,2.03582758 5.6896929,2.03055551 5.47560583,2.03055551 L4.57101817,2.03055551 L4.57101817,2.13326328 L6.18025928,2.13326328 Z M6.9690326,2.56615898 L6.71806833,2.56615898 C6.67142366,2.62239441 6.60404803,2.67491987 6.51534342,2.72393062 C6.32398067,2.82976258 5.97833171,2.88267856 5.4781972,2.88267856 L4.57101817,2.88267856 L4.57101817,3.61159134 L4.10317612,3.61159134 L4.10317612,2.56615898 L3.76310857,2.56615898 L3.76310857,2.40467736 L4.10317612,2.40467736 L4.10317612,2.29454963 L3.76310857,2.29454963 L3.76310857,2.13326328 L4.10317612,2.13326328 L4.10317612,1.81908684 L5.43713394,1.81908684 C5.66557322,1.81908684 5.84477646,1.82474943 5.97514233,1.83626989 C6.35148907,1.86965968 6.60325068,1.96846221 6.73002851,2.13326328 L6.9690326,2.13326328 L6.9690326,2.29454963 L6.80019485,2.29454963 C6.80178954,2.30685114 6.80258688,2.32110526 6.80258688,2.33750726 C6.80258688,2.3578145 6.80019485,2.38026962 6.79521144,2.40467736 L6.9690326,2.40467736 L6.9690326,2.56615898 Z" id="Fill-32" fill="#D7B129"></path>
                        </g>
                        <g id="Page-1-Copy-10" transform="translate(17.017392, 16.339809)">
                            <g id="Group-3" transform="translate(0.000000, 0.005409)">
                                <mask id="mask-40" fill="white">
                                    <use xlink:href="#path-39"></use>
                                </mask>
                                <g id="Clip-2"></g>
                                <path d="M10.0917537,2.56342531 C10.0917537,3.97575484 7.83247727,5.12077079 5.04595659,5.12077079 C2.25903724,5.12077079 -3.98672391e-05,3.97575484 -3.98672391e-05,2.56342531 C-3.98672391e-05,1.15090052 2.25903724,0.00588456958 5.04595659,0.00588456958 C7.83247727,0.00588456958 10.0917537,1.15090052 10.0917537,2.56342531" id="Fill-1" fill="#EFD44F" mask="url(#mask-40)"></path>
                            </g>
                            <path d="M9.06276033,2.62622155 C9.06276033,3.68786065 7.26434918,4.54857523 5.04593666,4.54857523 C2.82752413,4.54857523 1.02891364,3.68786065 1.02891364,2.62622155 C1.02891364,1.56438718 2.82752413,0.703672598 5.04593666,0.703672598 C7.26434918,0.703672598 9.06276033,1.56438718 9.06276033,2.62622155" id="Fill-4" fill="#E4C22F"></path>
                            <g id="Group-8" transform="translate(0.000000, 2.555224)">
                                <mask id="mask-42" fill="white">
                                    <use xlink:href="#path-41"></use>
                                </mask>
                                <g id="Clip-7"></g>
                                <path d="M10.0787171,0.155662809 C9.90130791,1.48637285 7.7165832,2.53844412 5.04587686,2.53844412 C2.37517051,2.53844412 0.190645138,1.48656811 0.0130365872,0.155858071 L0.0130365872,0.977910791 C0.00546181176,1.03570832 -0.000119601717,1.09389638 -0.000119601717,1.15247495 C-0.000119601717,2.56499975 2.2589575,3.7100157 5.04587686,3.7100157 C7.83259687,3.7100157 10.091674,2.56499975 10.091674,1.15247495 C10.091674,1.09389638 10.0862919,1.03570832 10.0787171,0.977910791 L10.0787171,0.155662809 Z" id="Fill-6" fill="#E4C22F" mask="url(#mask-42)"></path>
                            </g>
                            <g id="Group-11" transform="translate(0.000000, 3.726796)">
                                <mask id="mask-44" fill="white">
                                    <use xlink:href="#path-43"></use>
                                </mask>
                                <g id="Clip-10"></g>
                                <path d="M10.0787171,0.155662809 C9.90130791,1.48637285 7.7165832,2.53844412 5.04587686,2.53844412 C2.37517051,2.53844412 0.190645138,1.48656811 0.0130365872,0.155858071 L0.0130365872,0.977910791 C0.00546181176,1.03570832 -0.000119601717,1.09389638 -0.000119601717,1.15247495 C-0.000119601717,2.56499975 2.2589575,3.7100157 5.04587686,3.7100157 C7.83259687,3.7100157 10.091674,2.56499975 10.091674,1.15247495 C10.091674,1.09389638 10.0862919,1.03570832 10.0787171,0.977910791 L10.0787171,0.155662809 Z" id="Fill-9" fill="#EFD44F" mask="url(#mask-44)"></path>
                            </g>
                            <g id="Group-14" transform="translate(0.000000, 7.241511)">
                                <mask id="mask-46" fill="white">
                                    <use xlink:href="#path-45"></use>
                                </mask>
                                <g id="Clip-13"></g>
                                <path d="M10.0787171,0.155662809 C9.90130791,1.48637285 7.7165832,2.53844412 5.04587686,2.53844412 C2.37517051,2.53844412 0.190645138,1.48656811 0.0130365872,0.155858071 L0.0130365872,0.977910791 C0.00546181176,1.03570832 -0.000119601717,1.09389638 -0.000119601717,1.15247495 C-0.000119601717,2.56499975 2.2589575,3.7100157 5.04587686,3.7100157 C7.83259687,3.7100157 10.091674,2.56499975 10.091674,1.15247495 C10.091674,1.09389638 10.0862919,1.03570832 10.0787171,0.977910791 L10.0787171,0.155662809 Z" id="Fill-12" fill="#E4C22F" mask="url(#mask-46)"></path>
                            </g>
                            <g id="Group-17" transform="translate(0.000000, 8.413082)">
                                <mask id="mask-48" fill="white">
                                    <use xlink:href="#path-47"></use>
                                </mask>
                                <g id="Clip-16"></g>
                                <path d="M10.0787171,0.155662809 C9.90130791,1.48637285 7.7165832,2.53844412 5.04587686,2.53844412 C2.37517051,2.53844412 0.190645138,1.48656811 0.0130365872,0.155858071 L0.0130365872,0.977910791 C0.00546181176,1.03570832 -0.000119601717,1.09389638 -0.000119601717,1.15247495 C-0.000119601717,2.56499975 2.2589575,3.7100157 5.04587686,3.7100157 C7.83259687,3.7100157 10.091674,2.56499975 10.091674,1.15247495 C10.091674,1.09389638 10.0862919,1.03570832 10.0787171,0.977910791 L10.0787171,0.155662809 Z" id="Fill-15" fill="#EFD44F" mask="url(#mask-48)"></path>
                            </g>
                            <g id="Group-20" transform="translate(0.000000, 4.898367)">
                                <mask id="mask-50" fill="white">
                                    <use xlink:href="#path-49"></use>
                                </mask>
                                <g id="Clip-19"></g>
                                <path d="M10.0787171,0.155662809 C9.90130791,1.48637285 7.7165832,2.53844412 5.04587686,2.53844412 C2.37517051,2.53844412 0.190645138,1.48656811 0.0130365872,0.155858071 L0.0130365872,0.977910791 C0.00546181176,1.03570832 -0.000119601717,1.09389638 -0.000119601717,1.15247495 C-0.000119601717,2.56499975 2.2589575,3.7100157 5.04587686,3.7100157 C7.83259687,3.7100157 10.091674,2.56499975 10.091674,1.15247495 C10.091674,1.09389638 10.0862919,1.03570832 10.0787171,0.977910791 L10.0787171,0.155662809 Z" id="Fill-18" fill="#E4C22F" mask="url(#mask-50)"></path>
                            </g>
                            <g id="Group-23" transform="translate(0.000000, 6.069939)">
                                <mask id="mask-52" fill="white">
                                    <use xlink:href="#path-51"></use>
                                </mask>
                                <g id="Clip-22"></g>
                                <path d="M10.0787171,0.155662809 C9.90130791,1.48637285 7.7165832,2.53844412 5.04587686,2.53844412 C2.37517051,2.53844412 0.190645138,1.48656811 0.0130365872,0.155858071 L0.0130365872,0.977910791 C0.00546181176,1.03570832 -0.000119601717,1.09389638 -0.000119601717,1.15247495 C-0.000119601717,2.56499975 2.2589575,3.7100157 5.04587686,3.7100157 C7.83259687,3.7100157 10.091674,2.56499975 10.091674,1.15247495 C10.091674,1.09389638 10.0862919,1.03570832 10.0787171,0.977910791 L10.0787171,0.155662809 Z" id="Fill-21" fill="#EFD44F" mask="url(#mask-52)"></path>
                            </g>
                            <g id="Group-26" transform="translate(0.000000, 2.555224)">
                                <mask id="mask-54" fill="white">
                                    <use xlink:href="#path-53"></use>
                                </mask>
                                <g id="Clip-25"></g>
                                <path d="M10.0787171,0.155662809 C9.90130791,1.48637285 7.7165832,2.53844412 5.04587686,2.53844412 C2.37517051,2.53844412 0.190645138,1.48656811 0.0130365872,0.155858071 L0.0130365872,0.977910791 C0.00546181176,1.03570832 -0.000119601717,1.09389638 -0.000119601717,1.15247495 C-0.000119601717,2.56499975 2.2589575,3.7100157 5.04587686,3.7100157 C7.83259687,3.7100157 10.091674,2.56499975 10.091674,1.15247495 C10.091674,1.09389638 10.0862919,1.03570832 10.0787171,0.977910791 L10.0787171,0.155662809 Z" id="Fill-24" fill="#E4C22F" mask="url(#mask-54)"></path>
                            </g>
                            <g id="Group-29" transform="translate(0.000000, 3.726796)">
                                <mask id="mask-56" fill="white">
                                    <use xlink:href="#path-55"></use>
                                </mask>
                                <g id="Clip-28"></g>
                                <path d="M10.0787171,0.155662809 C9.90130791,1.48637285 7.7165832,2.53844412 5.04587686,2.53844412 C2.37517051,2.53844412 0.190645138,1.48656811 0.0130365872,0.155858071 L0.0130365872,0.977910791 C0.00546181176,1.03570832 -0.000119601717,1.09389638 -0.000119601717,1.15247495 C-0.000119601717,2.56499975 2.2589575,3.7100157 5.04587686,3.7100157 C7.83259687,3.7100157 10.091674,2.56499975 10.091674,1.15247495 C10.091674,1.09389638 10.0862919,1.03570832 10.0787171,0.977910791 L10.0787171,0.155662809 Z" id="Fill-27" fill="#EFD44F" mask="url(#mask-56)"></path>
                            </g>
                            <path d="M8.62495825,2.62622155 C8.62495825,3.49650396 7.02249457,4.20218057 5.04587686,4.20218057 C3.06925914,4.20218057 1.46679546,3.49650396 1.46679546,2.62622155 C1.46679546,1.75554861 3.06925914,1.05006726 5.04587686,1.05006726 C7.02249457,1.05006726 8.62495825,1.75554861 8.62495825,2.62622155" id="Fill-30" fill="#EFD44F"></path>
                            <path d="M6.16809977,2.56615898 L4.57101817,2.56615898 L4.57101817,2.67120989 L5.4853733,2.67120989 C5.81348068,2.67120989 6.04092328,2.63606275 6.16809977,2.56615898 L6.16809977,2.56615898 Z M6.32019329,2.34473195 C6.32019329,2.32442471 6.31839926,2.30782745 6.31520988,2.29454963 L4.57101817,2.29454963 L4.57101817,2.40467736 L6.31281785,2.40467736 C6.31760192,2.38671326 6.32019329,2.36679655 6.32019329,2.34473195 L6.32019329,2.34473195 Z M6.18025928,2.13326328 C6.10949493,2.0901104 6.02019231,2.06121163 5.91235143,2.04656699 C5.83520832,2.03582758 5.6896929,2.03055551 5.47560583,2.03055551 L4.57101817,2.03055551 L4.57101817,2.13326328 L6.18025928,2.13326328 Z M6.9690326,2.56615898 L6.71806833,2.56615898 C6.67142366,2.62239441 6.60404803,2.67491987 6.51534342,2.72393062 C6.32398067,2.82976258 5.97833171,2.88267856 5.4781972,2.88267856 L4.57101817,2.88267856 L4.57101817,3.61159134 L4.10317612,3.61159134 L4.10317612,2.56615898 L3.76310857,2.56615898 L3.76310857,2.40467736 L4.10317612,2.40467736 L4.10317612,2.29454963 L3.76310857,2.29454963 L3.76310857,2.13326328 L4.10317612,2.13326328 L4.10317612,1.81908684 L5.43713394,1.81908684 C5.66557322,1.81908684 5.84477646,1.82474943 5.97514233,1.83626989 C6.35148907,1.86965968 6.60325068,1.96846221 6.73002851,2.13326328 L6.9690326,2.13326328 L6.9690326,2.29454963 L6.80019485,2.29454963 C6.80178954,2.30685114 6.80258688,2.32110526 6.80258688,2.33750726 C6.80258688,2.3578145 6.80019485,2.38026962 6.79521144,2.40467736 L6.9690326,2.40467736 L6.9690326,2.56615898 Z" id="Fill-32" fill="#D7B129"></path>
                        </g>
                    </g>
                </g>
            </g>
        </g>
    </g>
</svg>