<?xml version="1.0" encoding="UTF-8"?>
<svg width="22px" height="22px" viewBox="0 0 22 22" version="1.1" xmlns="http://www.w3.org/2000/svg" xmlns:xlink="http://www.w3.org/1999/xlink">
    <!-- Generator: Sketch 47.1 (45422) - http://www.bohemiancoding.com/sketch -->
    <title>sn_i</title>
    <desc>Created with Sketch.</desc>
    <defs></defs>
    <g id="Page-1" stroke="none" stroke-width="1" fill="none" fill-rule="evenodd">
        <g id="sn_i" fill="#FFFFFF">
            <path d="M10.8478164,0.0430647809 C7.90174785,0.0430647809 7.53228898,0.0555523186 6.37529708,0.108344461 C5.22063044,0.161007422 4.43210703,0.344401984 3.74206292,0.612582622 C3.02876615,0.889762898 2.42376648,1.26068583 1.82070453,1.86374778 C1.21759952,2.46685279 0.846719648,3.0718094 0.569496311,3.78510617 C0.301315673,4.47515028 0.117964171,5.26367369 0.0652581497,6.41834033 C0.0124660075,7.57537529 2.15302374e-05,7.94474804 2.15302374e-05,10.8908596 C2.15302374e-05,13.8369712 0.0124660075,14.206387 0.0652581497,15.363422 C0.117964171,16.5180455 0.301315673,17.306612 0.569496311,17.9966131 C0.846719648,18.7099098 1.21759952,19.3149095 1.82070453,19.9179714 C2.42376648,20.5210765 3.02876615,20.8919563 3.74206292,21.1692227 C4.43210703,21.4373603 5.22063044,21.6207549 6.37529708,21.6734609 C7.53228898,21.72621 7.90174785,21.7386975 10.8478164,21.7386975 C13.7939279,21.7386975 14.1633007,21.72621 15.3203356,21.6734609 C16.4750023,21.6207549 17.2635257,21.4373603 17.9535698,21.1692227 C18.6669096,20.8919563 19.2718662,20.5210765 19.8749282,19.9179714 C20.4780332,19.3149095 20.8489131,18.7099529 21.1261364,17.9966131 C21.3943171,17.306612 21.5777116,16.5180455 21.6303746,15.363422 C21.6831667,14.206387 21.6956543,13.8369712 21.6956543,10.8908596 C21.6956543,7.9447911 21.6831667,7.57537529 21.6303746,6.41834033 C21.5777116,5.26367369 21.3943171,4.47515028 21.1261364,3.78510617 C20.8489131,3.0718094 20.4780332,2.46685279 19.8749282,1.86374778 C19.2718662,1.26068583 18.6669096,0.889762898 17.9535698,0.612582622 C17.2635257,0.344401984 16.4750023,0.161007422 15.3203356,0.108344461 C14.1633007,0.0555523186 13.7939279,0.0430647809 10.8478164,0.0430647809 M10.8478164,1.9976228 C13.7443223,1.9976228 14.0873851,2.00864628 15.2312435,2.06083557 C16.2888949,2.10910637 16.8632786,2.28582655 17.2455264,2.43438519 C17.7518745,2.63117156 18.1132811,2.8662387 18.4928592,3.24581678 C18.8724373,3.62543793 19.1075044,3.98680143 19.3043338,4.49314956 C19.4528494,4.87539739 19.6295696,5.44978107 19.6778404,6.50743245 C19.7299866,7.65129091 19.7410532,7.99439677 19.7410532,10.8908596 C19.7410532,13.7873655 19.7299866,14.1304714 19.6778404,15.2742868 C19.6295696,16.3319812 19.4528494,16.9063649 19.3043338,17.2886127 C19.1075044,17.7949178 18.8724373,18.1563244 18.4928592,18.5359024 C18.1132811,18.9155236 17.7518745,19.1505907 17.2455264,19.3473771 C16.8632786,19.4958927 16.2888949,19.6726559 15.2312435,19.7208837 C14.0875573,19.7730729 13.7445376,19.7841395 10.8478164,19.7841395 C7.95109516,19.7841395 7.60807541,19.7730729 6.4643892,19.7208837 C5.40673782,19.6726559 4.83231108,19.4958927 4.45006325,19.3473771 C3.94375818,19.1505907 3.58235162,18.9155236 3.20277353,18.5359024 C2.82319544,18.1563244 2.58808525,17.7949178 2.39129888,17.2886127 C2.2427833,16.9063649 2.06606311,16.3319812 2.01779232,15.2743298 C1.96560303,14.1304714 1.95457955,13.7873655 1.95457955,10.8908596 C1.95457955,7.99439677 1.96560303,7.65129091 2.01779232,6.50743245 C2.06606311,5.44978107 2.2427833,4.87539739 2.39129888,4.49314956 C2.58808525,3.98680143 2.82319544,3.62543793 3.20277353,3.24585984 C3.58235162,2.8662387 3.94375818,2.63117156 4.45006325,2.43438519 C4.83231108,2.28582655 5.40673782,2.10910637 6.46434614,2.06083557 C7.60824766,2.00864628 7.95131046,1.9976228 10.8478164,1.9976228" id="Fill-1"></path>
            <path d="M10.8478164,14.5068199 C8.85080072,14.5068199 7.23185604,12.8878753 7.23185604,10.8908596 C7.23185604,8.89384397 8.85080072,7.27494236 10.8478164,7.27494236 C12.844832,7.27494236 14.4637767,8.89384397 14.4637767,10.8908596 C14.4637767,12.8878753 12.844832,14.5068199 10.8478164,14.5068199 M10.8478164,5.32038434 C13.924315,5.32038434 16.4182916,7.81436092 16.4182916,10.8908596 C16.4182916,13.9674014 13.924315,16.4613779 10.8478164,16.4613779 C7.77131767,16.4613779 5.27729803,13.9674014 5.27729803,10.8908596 C5.27729803,7.81436092 7.77131767,5.32038434 10.8478164,5.32038434 Z M17.9401392,5.10029364 C17.9401392,5.81923133 17.3573588,6.4020118 16.6384211,6.4020118 C15.9194834,6.4020118 15.3366599,5.81923133 15.3366599,5.10029364 C15.3366599,4.38135595 15.9194834,3.79857549 16.6384211,3.79857549 C17.3573588,3.79857549 17.9401392,4.38135595 17.9401392,5.10029364 Z" id="Combined-Shape"></path>
        </g>
    </g>
</svg>