<?xml version="1.0" encoding="UTF-8"?>
<svg width="120px" height="23px" viewBox="0 0 120 23" version="1.1" xmlns="http://www.w3.org/2000/svg" xmlns:xlink="http://www.w3.org/1999/xlink">
    <!-- Generator: Sketch 47.1 (45422) - http://www.bohemiancoding.com/sketch -->
    <title>manulife_logo</title>
    <desc>Created with Sketch.</desc>
    <defs></defs>
    <g id="Page-1" stroke="none" stroke-width="1" fill="none" fill-rule="evenodd">
        <g id="manulife_logo" fill="#FEFEFE">
            <g id="manulife">
                <path d="M51.2880603,6.25206579 L51.2880603,7.02135526 L50.8098693,7.02135526 C49.0146935,7.02135526 48.5117789,7.57335526 48.5117789,9.51927632 L48.5117789,19.1526447 C48.5117789,21.0979605 49.0146935,21.6505658 50.8098693,21.6505658 L51.2880603,21.6505658 L51.2880603,22.41925 L42.4315779,22.41925 L42.4315779,21.6505658 L42.9109749,21.6505658 C44.7061508,21.6505658 45.2090653,21.0979605 45.2090653,19.1526447 L45.2090653,8.70277632 L45.1602211,8.70277632 L38.7471558,22.41925 L38.0054472,22.41925 L31.5664523,8.94367105 L31.5188141,8.94367105 L31.5188141,19.1526447 C31.5188141,21.0979605 32.0217286,21.6505658 33.8163015,21.6505658 L34.1521809,21.6505658 L34.1521809,22.41925 L27.7137889,22.41925 L27.7137889,21.6505658 L28.0484623,21.6505658 C29.8195176,21.6505658 30.3218291,21.0979605 30.3218291,19.1526447 L30.3218291,9.51927632 C30.3218291,7.57335526 29.8195176,7.02135526 28.0484623,7.02135526 L27.6896683,7.02135526 L27.6896683,6.25206579 L33.9121809,6.25206579 L39.4894673,17.9996184 L45.0173065,6.25206579 L51.2880603,6.25206579 Z" id="Fill-1"></path>
                <path d="M63.2091256,20.7615553 C62.945608,21.1943184 62.4674171,21.7469237 61.9892261,22.1312658 C61.4139497,22.61245 60.7204824,22.8763447 60.0499296,22.8763447 C58.9729447,22.8763447 58.2306332,22.1554763 58.2306332,21.1216868 L58.2306332,20.8583974 C57.6077186,21.4582132 56.6513367,22.1070553 55.7655075,22.5398184 C55.2873166,22.7788974 54.8567638,22.8763447 54.4014874,22.8763447 C52.7498291,22.8763447 51.6975678,21.6742921 51.6975678,19.8252132 C51.6975678,19.0323184 52.0316382,18.2394237 52.5586734,17.7110289 C53.2527437,17.0379763 54.1626935,16.5573974 55.8855075,15.9575816 L58.0394774,15.2367132 L58.2306332,15.1652921 L58.2306332,14.6592921 L58.2306332,13.6503184 C58.2306332,12.3780553 57.7759598,11.8968711 56.5313367,11.8968711 C55.4790754,11.8968711 54.8567638,12.3296342 54.8567638,13.0983184 C54.8567638,13.1225289 54.8567638,13.2423711 54.8802814,13.4348447 L54.8802814,13.5546868 C54.8802814,14.3711868 54.4014874,14.8753711 53.6362613,14.8753711 C52.8939497,14.8753711 52.3916382,14.3711868 52.3916382,13.6267132 C52.3916382,12.0409237 54.2103317,10.9363184 56.7713367,10.9363184 C58.2547538,10.9363184 59.4752563,11.2480289 60.2410854,11.84845 C60.8157588,12.3296342 61.0792764,12.9058447 61.103397,13.8906079 L61.103397,14.9722132 L61.103397,19.5855289 C61.103397,20.4014237 61.1263116,20.4976605 61.1745528,20.6895289 C61.1992764,20.7857658 61.2463116,20.8820026 61.342191,20.9534237 C61.4139497,21.0260553 61.5098291,21.0496605 61.6298291,21.0496605 C61.9645025,21.0496605 62.3950553,20.7373447 62.8262111,20.2083447 L63.2091256,20.7615553 Z M58.0871156,16.2462921 C55.9813869,16.96595 56.1249045,16.8939237 55.4302312,17.3266868 C55.0955578,17.5427658 54.8320402,17.8078711 54.6408844,18.1195816 C54.4973668,18.3834763 54.4262111,18.6715816 54.4262111,18.9838974 C54.4262111,19.9928711 55.1196784,20.8099763 55.9572663,20.8099763 C56.5554573,20.8099763 57.6077186,20.2567658 58.2306332,19.65695 L58.2306332,16.1966605 L58.0871156,16.2462921 Z" id="Fill-3"></path>
                <path d="M67.8727839,12.5943158 C69.116804,11.4891053 70.4096683,10.9358947 71.677809,10.9358947 C73.0894673,10.9358947 74.3099698,11.6803684 74.717608,12.811 C74.957005,13.4586316 75.0287638,14.2273158 75.0287638,15.8361053 L75.0287638,19.9216316 C75.0287638,21.2907368 75.315799,21.6502632 76.3692663,21.6502632 L76.5839397,21.6502632 L76.5839397,22.4189474 L70.6725829,22.4189474 L70.6725829,21.6502632 L70.7919799,21.6502632 C71.8695678,21.6502632 72.156603,21.2907368 72.156603,19.9216316 L72.156603,16.0297895 C72.156603,14.3465526 72.0848442,13.9392105 71.797206,13.4822368 C71.5101709,13.0748947 71.0319799,12.8346053 70.5278593,12.8346053 C69.6432362,12.8346053 68.7332864,13.1941316 67.8727839,13.8907895 L67.8727839,19.9216316 C67.8727839,21.2907368 68.1598191,21.6502632 69.2126834,21.6502632 L69.594995,21.6502632 L69.594995,22.4189474 L63.4924824,22.4189474 L63.4924824,21.6502632 L63.637206,21.6502632 C64.6888643,21.6502632 64.9758995,21.2907368 64.9758995,19.9216316 L64.9758995,14.9966053 C64.9758995,13.9628158 64.9276583,13.5064474 64.7847437,13.1469211 C64.6171055,12.7867895 64.3065528,12.5943158 63.9001206,12.5943158 C63.7795176,12.5943158 63.6595176,12.5943158 63.4689648,12.6421316 L63.4689648,11.7766053 L66.8669548,10.9358947 L67.8727839,10.9358947 L67.8727839,12.5943158 Z" id="Fill-6"></path>
                <path d="M87.9300905,18.9123553 L87.953608,19.9213289 C87.9771256,20.7142237 88.2171256,21.0495395 88.791799,21.0495395 C88.9347136,21.0495395 89.2452663,20.9787237 89.5087839,20.9060921 L89.5087839,21.7231974 L85.991397,22.8762237 L85.033809,22.8762237 L85.033809,21.1948026 C83.8133065,22.2751974 82.4480804,22.8762237 81.2040603,22.8762237 C79.673005,22.8762237 78.3795377,21.89025 78.0695879,20.52175 C77.9013467,19.8250921 77.8772261,19.5127763 77.8772261,17.7829342 L77.8772261,13.8910921 C77.8772261,12.6418289 77.590191,12.1854605 76.7290854,12.1854605 L76.7290854,11.4161711 L80.7729045,11.4161711 L80.7729045,18.1914868 C80.7729045,19.72825 80.8935075,20.1610132 81.3723015,20.5701711 C81.6593367,20.8346711 82.0663719,20.9787237 82.5210452,20.9787237 C83.070995,20.9787237 83.4780302,20.8582763 84.1721005,20.4739342 C84.6261709,20.2336447 84.7461709,20.1610132 85.033809,19.9213289 L85.033809,13.8910921 C85.033809,12.5468026 84.7461709,12.1854605 83.6933065,12.1854605 L83.190995,12.1854605 L83.190995,11.4161711 L87.9300905,11.4161711 L87.9300905,18.9123553 Z" id="Fill-8"></path>
                <path d="M94.0332663,19.9216316 C94.0332663,21.2429211 94.3221106,21.6502632 95.3026131,21.6502632 L95.3737688,21.6502632 L95.3737688,22.4189474 L89.7265327,22.4189474 L89.7265327,21.6502632 L89.7982915,21.6502632 C90.8746734,21.6502632 91.138191,21.2907368 91.138191,19.9216316 L91.138191,9.95113158 C91.138191,8.70247368 91.1140704,8.27031579 90.9952764,7.93318421 C90.8746734,7.57305263 90.5158794,7.33276316 90.1082412,7.33276316 L89.8935678,7.33276316 C89.8694472,7.33276316 89.821809,7.33276316 89.7494472,7.35697368 L89.6065327,6.56347368 L93.0527638,5.96305263 L94.0332663,5.96305263 L94.0332663,19.9216316 Z" id="Fill-10"></path>
                <path d="M95.8054673,22.4191895 L95.8054673,21.6505053 L96.1889849,21.6505053 C97.2418492,21.6505053 97.5288844,21.2903737 97.5288844,19.9218737 L97.5288844,14.9000053 C97.5288844,13.8438211 97.4812462,13.3874526 97.3377286,13.0509263 C97.1706935,12.6659789 96.8595377,12.4735053 96.4525025,12.4735053 C96.2607437,12.4735053 96.1413467,12.4983211 95.9495879,12.5697421 L95.7584322,11.7768474 L99.4199397,10.9361368 L100.425166,10.9361368 L100.425166,19.9218737 C100.425166,21.2903737 100.712804,21.6505053 101.765668,21.6505053 L102.004462,21.6505053 L102.004462,22.4191895 L95.8054673,22.4191895 Z M99.0611457,9.42358421 C98.1035578,9.42358421 97.3377286,8.65429474 97.3377286,7.69374211 C97.3377286,6.73258421 98.1035578,5.96329474 99.0611457,5.96329474 C100.018734,5.96329474 100.783357,6.73258421 100.783357,7.69374211 C100.783357,8.65429474 99.9946131,9.42358421 99.0611457,9.42358421 L99.0611457,9.42358421 Z" id="Fill-12"></path>
                <path d="M102.579678,22.4191895 L102.579678,21.6505053 L103.059075,21.6505053 C104.111337,21.6505053 104.398975,21.2903737 104.398975,19.9218737 L104.398975,12.7864263 L102.579678,12.7864263 L102.579678,11.4161105 L104.398975,11.4161105 L104.398975,11.0565842 C104.398975,8.10168947 106.649427,5.96329474 109.735658,5.96329474 C111.292643,5.96329474 112.320784,6.65995263 112.320784,7.74155789 C112.320784,8.53445263 111.769628,9.08705789 110.909126,9.08705789 C110.455055,9.08705789 110.047417,8.82255789 109.665709,8.24574211 L109.425106,7.90921579 C109.137467,7.45284737 108.875156,7.28518947 108.467518,7.28518947 C107.917568,7.28518947 107.510533,7.66892632 107.391136,8.26995263 C107.294653,8.63008421 107.271136,8.99082105 107.271136,9.80792632 L107.271136,11.4161105 L109.402191,11.4161105 L109.402191,12.7864263 L107.271136,12.7864263 L107.271136,19.9218737 C107.271136,21.2903737 107.557568,21.6505053 108.635759,21.6505053 L109.402191,21.6505053 L109.402191,22.4191895 L102.579678,22.4191895 Z" id="Fill-14"></path>
                <path d="M120,18.6717632 C119.759397,19.5851053 119.114171,20.6661053 118.253065,21.5062105 C117.366633,22.3953421 116.217889,22.8759211 114.973266,22.8759211 C112.030553,22.8759211 109.948342,20.4016053 109.948342,16.8705 C109.948342,13.3151842 112.053467,10.9358947 115.189749,10.9358947 C118.012462,10.9358947 119.855276,12.8346053 119.855276,15.7174737 L119.855276,15.9813684 L112.556985,15.9813684 C112.72402,18.5513158 114.207437,20.3295789 116.194372,20.3295789 C117.510754,20.3295789 118.731256,19.5608947 119.425327,18.3352368 L120,18.6717632 Z M116.721407,14.7557105 L116.721407,14.5638421 C116.721407,13.0028684 115.978492,11.9932895 114.853266,11.9932895 C113.562211,11.9932895 112.675779,13.0506842 112.532261,14.7557105 L116.721407,14.7557105 Z" id="Fill-16"></path>
                <path d="M19.2758593,17.9973789 L16.025005,21.1683526 L16.025005,8.29440526 L19.2758593,5.12403684 L19.2758593,17.9973789 Z M13.9096281,18.0367211 L10.6593769,21.2070895 L10.6593769,8.33374737 L13.9096281,5.16337895 L13.9096281,18.0367211 Z M8.56932663,18.0421684 L5.31967839,21.2125368 L5.31967839,8.33919474 L8.56932663,5.16822105 L8.56932663,18.0421684 Z M-0.000120603015,22.4194316 L21.7331457,22.4194316 L21.7331457,0.605142105 L-0.000120603015,0.605142105 L-0.000120603015,22.4194316 Z" id="Fill-18"></path>
            </g>
        </g>
    </g>
</svg>