<?xml version="1.0" encoding="UTF-8"?>
<svg width="20px" height="20px" viewBox="0 0 20 20" version="1.1" xmlns="http://www.w3.org/2000/svg" xmlns:xlink="http://www.w3.org/1999/xlink">
    <!-- Generator: Sketch 47.1 (45422) - http://www.bohemiancoding.com/sketch -->
    <title>new_browser</title>
    <desc>Created with Sketch.</desc>
    <defs></defs>
    <g id="Page-1" stroke="none" stroke-width="1" fill="none" fill-rule="evenodd">
        <path d="M16.6891745,11.6120345 L16.6891745,9.62632277 L18.6654721,9.62632277 L18.6654721,9.65116051 L18.6654721,13.5997072 L18.6654721,18.6927506 C18.6654721,19.4117378 18.0725828,20 17.3479404,20 L1.31753174,20 C0.592889281,20 0,19.4117378 0,18.6927506 L0,2.78810142 C0,2.06846065 0.592889281,1.48085207 1.31753174,1.48085207 L10.4308988,1.48085207 L10.4308988,3.45087684 L8.45460115,3.45087684 L8.45460115,3.44172609 L1.9762976,3.44172609 L1.9762976,3.45087684 L1.9762976,9.62632277 L1.9762976,18.039126 L16.6891745,18.039126 L16.6891745,13.5997072 L16.6891745,11.6120345 Z M13.7601697,0 L20,0 L20,6.04798912 L18.0237024,6.04798912 L18.0237024,3.46943978 L10.8418369,10.595256 L9.37542408,9.13963384 L16.6106496,1.96087403 L13.7601697,1.96087403 L13.7601697,0 Z" id="new_browser" fill="#00673C"></path>
    </g>
</svg>