<?xml version="1.0" encoding="UTF-8"?>
<svg width="362px" height="331px" viewBox="0 0 362 331" version="1.1" xmlns="http://www.w3.org/2000/svg" xmlns:xlink="http://www.w3.org/1999/xlink">
    <!-- Generator: Sketch 47.1 (45422) - http://www.bohemiancoding.com/sketch -->
    <title>morethan_4</title>
    <desc>Created with Sketch.</desc>
    <defs>
        <linearGradient x1="77.1699837%" y1="-24.0598248%" x2="77.1699846%" y2="100%" id="linearGradient-1">
            <stop stop-color="#FFFFFF" stop-opacity="0.5" offset="0%"></stop>
            <stop stop-color="#424559" stop-opacity="0.5" offset="100%"></stop>
        </linearGradient>
        <linearGradient x1="85.9444261%" y1="-13.4788797%" x2="85.9444261%" y2="90.64405%" id="linearGradient-2">
            <stop stop-color="#FFFFFF" stop-opacity="0.5" offset="0%"></stop>
            <stop stop-color="#000000" stop-opacity="0.5" offset="100%"></stop>
        </linearGradient>
        <ellipse id="path-3" cx="192.738494" cy="184.087973" rx="145.791207" ry="145.84836"></ellipse>
        <mask id="mask-4" maskContentUnits="userSpaceOnUse" maskUnits="objectBoundingBox" x="0" y="0" width="291.582414" height="291.696721" fill="white">
            <use xlink:href="#path-3"></use>
        </mask>
        <mask id="mask-5" maskContentUnits="userSpaceOnUse" maskUnits="objectBoundingBox" x="0" y="0" width="291.582414" height="291.696721" fill="white">
            <use xlink:href="#path-3"></use>
        </mask>
        <ellipse id="path-6" cx="193.043961" cy="184.415506" rx="117.897336" ry="117.943554"></ellipse>
        <mask id="mask-7" maskContentUnits="userSpaceOnUse" maskUnits="objectBoundingBox" x="0" y="0" width="235.794672" height="235.887109" fill="white">
            <use xlink:href="#path-6"></use>
        </mask>
        <path d="M77.3642722,105.327882 C77.2536702,110.446429 77.5857117,114.023163 78.3603968,116.058085 C79.5379277,119.151191 66.0367705,115.08411 62.7198924,106.755572 C39.0007098,105.238069 20.2321248,85.5118049 20.2321248,61.4001847 C20.2321248,36.2992513 40.572478,15.9509243 65.6635751,15.9509243 C90.7546722,15.9509243 111.095025,36.2992513 111.095025,61.4001847 C111.095025,82.4540181 96.7849768,100.16425 77.3642722,105.327882 Z" id="path-8"></path>
        <filter x="-8.8%" y="-6.9%" width="117.6%" height="115.8%" filterUnits="objectBoundingBox" id="filter-9">
            <feMorphology radius="1" operator="dilate" in="SourceAlpha" result="shadowSpreadOuter1"></feMorphology>
            <feOffset dx="0" dy="1" in="shadowSpreadOuter1" result="shadowOffsetOuter1"></feOffset>
            <feGaussianBlur stdDeviation="1.5" in="shadowOffsetOuter1" result="shadowBlurOuter1"></feGaussianBlur>
            <feComposite in="shadowBlurOuter1" in2="SourceAlpha" operator="out" result="shadowBlurOuter1"></feComposite>
            <feColorMatrix values="0 0 0 0 0   0 0 0 0 0   0 0 0 0 0  0 0 0 0.0670572917 0" type="matrix" in="shadowBlurOuter1"></feColorMatrix>
        </filter>
        <path d="M332.642489,105.327882 C332.531887,110.446429 332.863929,114.023163 333.638614,116.058085 C334.816145,119.151191 321.314987,115.08411 317.998109,106.755572 C294.278927,105.238069 275.510342,85.5118049 275.510342,61.4001847 C275.510342,36.2992513 295.850695,15.9509243 320.941792,15.9509243 C346.032889,15.9509243 366.373242,36.2992513 366.373242,61.4001847 C366.373242,82.4540181 352.063194,100.16425 332.642489,105.327882 Z" id="path-10"></path>
        <filter x="-8.8%" y="-6.9%" width="117.6%" height="115.8%" filterUnits="objectBoundingBox" id="filter-11">
            <feMorphology radius="1" operator="dilate" in="SourceAlpha" result="shadowSpreadOuter1"></feMorphology>
            <feOffset dx="0" dy="1" in="shadowSpreadOuter1" result="shadowOffsetOuter1"></feOffset>
            <feGaussianBlur stdDeviation="1.5" in="shadowOffsetOuter1" result="shadowBlurOuter1"></feGaussianBlur>
            <feComposite in="shadowBlurOuter1" in2="SourceAlpha" operator="out" result="shadowBlurOuter1"></feComposite>
            <feColorMatrix values="0 0 0 0 0   0 0 0 0 0   0 0 0 0 0  0 0 0 0.0670572917 0" type="matrix" in="shadowBlurOuter1"></feColorMatrix>
        </filter>
        <path d="M76.7862764,327.647114 C76.6756744,332.76566 77.0077159,336.342394 77.782401,338.377316 C78.9599319,341.470423 65.4587747,337.403341 62.1418966,329.074803 C38.422714,327.5573 19.654129,307.831036 19.654129,283.719416 C19.654129,258.618483 39.9944821,238.270156 65.0855793,238.270156 C90.1766764,238.270156 110.51703,258.618483 110.51703,283.719416 C110.51703,304.773249 96.206981,322.483482 76.7862764,327.647114 Z" id="path-12"></path>
        <filter x="-8.8%" y="-6.9%" width="117.6%" height="115.8%" filterUnits="objectBoundingBox" id="filter-13">
            <feMorphology radius="1" operator="dilate" in="SourceAlpha" result="shadowSpreadOuter1"></feMorphology>
            <feOffset dx="0" dy="1" in="shadowSpreadOuter1" result="shadowOffsetOuter1"></feOffset>
            <feGaussianBlur stdDeviation="1.5" in="shadowOffsetOuter1" result="shadowBlurOuter1"></feGaussianBlur>
            <feComposite in="shadowBlurOuter1" in2="SourceAlpha" operator="out" result="shadowBlurOuter1"></feComposite>
            <feColorMatrix values="0 0 0 0 0   0 0 0 0 0   0 0 0 0 0  0 0 0 0.0670572917 0" type="matrix" in="shadowBlurOuter1"></feColorMatrix>
        </filter>
        <path d="M332.329,327.647114 C332.218398,332.76566 332.550439,336.342394 333.325125,338.377316 C334.502655,341.470423 321.001498,337.403341 317.68462,329.074803 C293.965437,327.5573 275.196853,307.831036 275.196853,283.719416 C275.196853,258.618483 295.537206,238.270156 320.628303,238.270156 C345.7194,238.270156 366.059753,258.618483 366.059753,283.719416 C366.059753,304.773249 351.749704,322.483482 332.329,327.647114 Z" id="path-14"></path>
        <filter x="-8.8%" y="-6.9%" width="117.6%" height="115.8%" filterUnits="objectBoundingBox" id="filter-15">
            <feMorphology radius="1" operator="dilate" in="SourceAlpha" result="shadowSpreadOuter1"></feMorphology>
            <feOffset dx="0" dy="1" in="shadowSpreadOuter1" result="shadowOffsetOuter1"></feOffset>
            <feGaussianBlur stdDeviation="1.5" in="shadowOffsetOuter1" result="shadowBlurOuter1"></feGaussianBlur>
            <feComposite in="shadowBlurOuter1" in2="SourceAlpha" operator="out" result="shadowBlurOuter1"></feComposite>
            <feColorMatrix values="0 0 0 0 0   0 0 0 0 0   0 0 0 0 0  0 0 0 0.0670572917 0" type="matrix" in="shadowBlurOuter1"></feColorMatrix>
        </filter>
    </defs>
    <g id="Page-1" stroke="none" stroke-width="1" fill="none" fill-rule="evenodd">
        <g id="graphics" transform="translate(-2431.000000, -1987.000000)">
            <g id="more-than-an-investment" transform="translate(249.000000, 1975.000000)">
                <g id="morethan_4" transform="translate(2170.200000, 0.000000)">
                    <ellipse id="Oval-28" stroke="#979797" opacity="0.270210598" stroke-dasharray="3,4" cx="193.00776" cy="184.349259" rx="156.449702" ry="156.511034"></ellipse>
                    <g id="Oval-28" opacity="0.250622736" stroke-linecap="square" stroke-linejoin="bevel" stroke-dasharray="1,12" stroke-width="120">
                        <use stroke="url(#linearGradient-1)" mask="url(#mask-4)" xlink:href="#path-3"></use>
                        <use stroke="url(#linearGradient-2)" mask="url(#mask-5)" xlink:href="#path-3"></use>
                    </g>
                    <use id="Oval-28" stroke="#C2BDBD" mask="url(#mask-7)" stroke-width="8" opacity="0.739130435" style="mix-blend-mode: multiply;" stroke-linejoin="round" stroke-dasharray="1,19" xlink:href="#path-6"></use>
                    <g id="Combined-Shape" transform="translate(65.663575, 66.521229) rotate(-30.000000) translate(-65.663575, -66.521229) ">
                        <use fill="black" fill-opacity="1" filter="url(#filter-9)" xlink:href="#path-8"></use>
                        <use fill="#FFFFFF" fill-rule="evenodd" xlink:href="#path-8"></use>
                        <path stroke="#E5E5E5" stroke-width="1" d="M76.8643889,105.317081 L76.8725097,104.941262 L77.2357946,104.844671 C96.7582792,99.6539771 110.595025,81.9009763 110.595025,61.4001847 C110.595025,36.5753498 90.478486,16.4509243 65.6635751,16.4509243 C40.8486642,16.4509243 20.7321248,36.5753498 20.7321248,61.4001847 C20.7321248,85.1405044 39.1881285,104.749037 62.7518161,106.256592 L63.0674055,106.276783 L63.1844098,106.570576 C64.6071371,110.142983 68.19187,113.289268 72.4340429,115.235489 C74.1515499,116.023446 75.7913893,116.507338 76.9128861,116.58177 C77.8139021,116.641568 78.0016961,116.521201 77.893113,116.235977 C77.0893923,114.124786 76.7524892,110.495682 76.8643889,105.317081 Z"></path>
                    </g>
                    <g id="Combined-Shape" transform="translate(320.941792, 66.521229) scale(-1, 1) rotate(-30.000000) translate(-320.941792, -66.521229) ">
                        <use fill="black" fill-opacity="1" filter="url(#filter-11)" xlink:href="#path-10"></use>
                        <use fill="#FFFFFF" fill-rule="evenodd" xlink:href="#path-10"></use>
                        <path stroke="#E5E5E5" stroke-width="1" d="M332.142606,105.317081 L332.150727,104.941262 L332.514012,104.844671 C352.036496,99.6539771 365.873242,81.9009763 365.873242,61.4001847 C365.873242,36.5753498 345.756703,16.4509243 320.941792,16.4509243 C296.126881,16.4509243 276.010342,36.5753498 276.010342,61.4001847 C276.010342,85.1405044 294.466345,104.749037 318.030033,106.256592 L318.345622,106.276783 L318.462627,106.570576 C319.885354,110.142983 323.470087,113.289268 327.71226,115.235489 C329.429767,116.023446 331.069606,116.507338 332.191103,116.58177 C333.092119,116.641568 333.279913,116.521201 333.17133,116.235977 C332.367609,114.124786 332.030706,110.495682 332.142606,105.317081 Z"></path>
                    </g>
                    <g id="Combined-Shape" transform="translate(65.085579, 288.840460) scale(1, -1) rotate(-30.000000) translate(-65.085579, -288.840460) ">
                        <use fill="black" fill-opacity="1" filter="url(#filter-13)" xlink:href="#path-12"></use>
                        <use fill="#FFFFFF" fill-rule="evenodd" xlink:href="#path-12"></use>
                        <path stroke="#E5E5E5" stroke-width="1" d="M76.2863931,327.636312 L76.2945139,327.260493 L76.6577988,327.163902 C96.1802834,321.973208 110.01703,304.220208 110.01703,283.719416 C110.01703,258.894581 89.9004902,238.770156 65.0855793,238.770156 C40.2706684,238.770156 20.154129,258.894581 20.154129,283.719416 C20.154129,307.459736 38.6101327,327.068268 62.1738203,328.575823 L62.4894096,328.596014 L62.606414,328.889807 C64.0291413,332.462214 67.6138742,335.608499 71.856047,337.554721 C73.5735541,338.342678 75.2133935,338.826569 76.3348903,338.901001 C77.2359063,338.9608 77.4237003,338.840432 77.3151172,338.555209 C76.5113965,336.444017 76.1744934,332.814914 76.2863931,327.636312 Z"></path>
                    </g>
                    <g id="Combined-Shape" transform="translate(320.628303, 288.840460) scale(-1, -1) rotate(-30.000000) translate(-320.628303, -288.840460) ">
                        <use fill="black" fill-opacity="1" filter="url(#filter-15)" xlink:href="#path-14"></use>
                        <use fill="#FFFFFF" fill-rule="evenodd" xlink:href="#path-14"></use>
                        <path stroke="#E5E5E5" stroke-width="1" d="M331.829117,327.636312 L331.837237,327.260493 L332.200522,327.163902 C351.723007,321.973208 365.559753,304.220208 365.559753,283.719416 C365.559753,258.894581 345.443214,238.770156 320.628303,238.770156 C295.813392,238.770156 275.696853,258.894581 275.696853,283.719416 C275.696853,307.459736 294.152856,327.068268 317.716544,328.575823 L318.032133,328.596014 L318.149138,328.889807 C319.571865,332.462214 323.156598,335.608499 327.398771,337.554721 C329.116278,338.342678 330.756117,338.826569 331.877614,338.901001 C332.77863,338.9608 332.966424,338.840432 332.857841,338.555209 C332.05412,336.444017 331.717217,332.814914 331.829117,327.636312 Z"></path>
                    </g>
                    <g id="Group-5" transform="translate(135.743118, 122.498831)">
                        <rect id="Rectangle-45" fill="#CCCCCC" x="16.3866224" y="105.507212" width="14.3886044" height="17.8550666" rx="7.1943022"></rect>
                        <rect id="Rectangle-45-Copy" fill="#CCCCCC" x="84.3911053" y="105.507212" width="14.3886044" height="17.8550666" rx="7.1943022"></rect>
                        <rect id="Rectangle-42" fill="#1FAC66" x="0" y="0" width="115.525688" height="114.434745" rx="17"></rect>
                        <rect id="Rectangle-42" fill="#424559" x="9.01264231" y="8.9275333" width="98.3197343" height="97.3912724" rx="13"></rect>
                        <g id="Group-3" transform="translate(24.579934, 37.333321)">
                            <g id="Group-2">
                                <ellipse id="Oval-27" fill="#30BE77" cx="20.483278" cy="20.2898484" rx="20.483278" ry="20.2898484"></ellipse>
                                <ellipse id="Oval-27" fill="#1FAC66" cx="20.483278" cy="20.2898484" rx="17.011536" ry="16.850891"></ellipse>
                            </g>
                            <path d="M20.483278,8.11593936 C20.8674796,8.11593936 21.1789365,8.42739628 21.1789365,8.81159786 L21.1789365,11.0954232 C21.1789365,11.4796248 20.8674796,11.7910817 20.483278,11.7910817 C20.0990764,11.7910817 19.7876195,11.4796248 19.7876195,11.0954232 L19.7876195,8.81159786 L19.7876195,8.81159786 C19.7876195,8.42739628 20.0990764,8.11593936 20.483278,8.11593936 Z M20.483278,28.7886151 C20.8674796,28.7886151 21.1789365,29.100072 21.1789365,29.4842736 L21.1789365,31.768099 C21.1789365,32.1523005 20.8674796,32.4637575 20.483278,32.4637575 L20.483278,32.4637575 C20.0990764,32.4637575 19.7876195,32.1523005 19.7876195,31.768099 L19.7876195,29.4842736 C19.7876195,29.100072 20.0990764,28.7886151 20.483278,28.7886151 Z M32.7557266,20.2898484 C32.7557266,20.67405 32.4442697,20.9855069 32.0600681,20.9855069 L29.7762428,20.9855069 L29.7762428,20.9855069 C29.3920412,20.9855069 29.0805843,20.67405 29.0805843,20.2898484 C29.0805843,19.9056468 29.3920412,19.5941899 29.7762428,19.5941899 L32.0600681,19.5941899 C32.4442697,19.5941899 32.7557266,19.9056468 32.7557266,20.2898484 Z M11.8859717,20.2898484 C11.8859717,20.67405 11.5745148,20.9855069 11.1903132,20.9855069 L8.90648784,20.9855069 L8.90648784,20.9855069 C8.52228626,20.9855069 8.21082934,20.67405 8.21082934,20.2898484 C8.21082934,19.9056468 8.52228626,19.5941899 8.90648784,19.5941899 L11.1903132,19.5941899 L11.1903132,19.5941899 C11.5745148,19.5941899 11.8859717,19.9056468 11.8859717,20.2898484 Z M29.1612096,28.898102 C28.8895381,29.1697736 28.4490715,29.1697736 28.1774,28.898102 L26.5624916,27.2831936 C26.29082,27.0115221 26.29082,26.5710555 26.5624916,26.299384 C26.8341631,26.0277124 27.2746297,26.0277124 27.5463012,26.299384 L29.1612096,27.9142924 C29.4328812,28.1859639 29.4328812,28.6264305 29.1612096,28.898102 Z M14.4040644,14.2803128 C14.1323929,14.5519844 13.6919263,14.5519844 13.4202547,14.2803128 L11.8053463,12.6654045 C11.5336748,12.3937329 11.5336748,11.9532663 11.8053463,11.6815948 C12.0770179,11.4099232 12.5174845,11.4099232 12.789156,11.6815948 L14.4040644,13.2965032 C14.6757359,13.5681747 14.6757359,14.0086413 14.4040644,14.2803128 Z M11.8053463,28.898102 C11.5336748,28.6264305 11.5336748,28.1859639 11.8053463,27.9142924 L13.4202547,26.299384 C13.6919263,26.0277124 14.1323929,26.0277124 14.4040644,26.299384 C14.6757359,26.5710555 14.6757359,27.0115221 14.4040644,27.2831936 L12.789156,28.898102 C12.5174845,29.1697736 12.0770179,29.1697736 11.8053463,28.898102 Z M26.5624916,14.2803128 C26.29082,14.0086413 26.29082,13.5681747 26.5624916,13.2965032 L28.1774,11.6815948 C28.4490715,11.4099232 28.8895381,11.4099232 29.1612096,11.6815948 C29.4328812,11.9532663 29.4328812,12.3937329 29.1612096,12.6654045 L27.5463012,14.2803128 C27.2746297,14.5519844 26.8341631,14.5519844 26.5624916,14.2803128 Z" id="Combined-Shape" fill="#F6EB1C" opacity="0.371546649"></path>
                            <ellipse id="Oval-27" fill="#F7E91C" cx="20.483278" cy="20.2898484" rx="5.35716501" ry="5.30657574"></ellipse>
                        </g>
                        <g id="Group-4" transform="translate(78.655787, 31.652164)">
                            <ellipse id="Oval-27" fill="#1FAC66" cx="6.96431451" cy="6.89854846" rx="6.96431451" ry="6.89854846"></ellipse>
                            <ellipse id="Oval-27" fill="#1FAC66" cx="6.96431451" cy="45.0434635" rx="6.96431451" ry="6.89854846"></ellipse>
                            <rect id="Rectangle-43" fill="#F7E91C" x="4.0966556" y="5.68115755" width="6.55464895" height="40.5796968" rx="3.27732448"></rect>
                        </g>
                    </g>
                    <g id="Group-7" transform="translate(41.720833, 31.212600)">
                        <rect id="Rectangle" stroke="#CCCCCC" stroke-width="6" x="6.9137713" y="3" width="27.4472955" height="40.1195368" rx="13.7236477"></rect>
                        <ellipse id="Oval-29" stroke="#DFAC00" fill="#F8C20A" cx="20.5472993" cy="40.8654804" rx="20.5472993" ry="20.5376062"></ellipse>
                        <path d="M19.133993,41.9530283 C18.2162245,41.3519328 17.6119708,40.3282746 17.6119708,39.1665269 C17.6119708,37.3159596 19.145194,35.8157784 21.0365207,35.8157784 C22.9278474,35.8157784 24.4610706,37.3159596 24.4610706,39.1665269 C24.4610706,40.3282746 23.8568169,41.3519328 22.9390484,41.9530283 L22.9390484,43.9957185 L22.9390484,43.9957185 C22.9390484,44.8241456 22.2674756,45.4957185 21.4390484,45.4957185 L20.633993,45.4957185 C19.8055659,45.4957185 19.133993,44.8241456 19.133993,43.9957185 L19.133993,41.9530283 Z" id="Combined-Shape" fill="#424559"></path>
                    </g>
                    <g id="Group-8" transform="translate(296.819214, 266.188987)">
                        <path d="M45.3831268,40.2870285 L45.3831268,18 C45.3831268,8.0588745 37.3242523,-1.82615513e-15 27.3831268,0 L27.3831268,0 L23.9243611,0 L23.9243611,0 C13.9832356,1.82615513e-15 5.92436107,8.0588745 5.92436107,18 L5.92436107,18 L5.92436107,40.2870285 L45.3831268,40.2870285 Z" id="Combined-Shape" fill="#D02A02"></path>
                        <rect id="Rectangle-5" fill="#D8D8D8" x="0" y="37.128836" width="50.9495052" height="10.7793395" rx="5.38966974"></rect>
                        <rect id="Rectangle-46" fill="#F0380C" x="10.6638499" y="16.7678614" width="7.10923328" height="14.3724526" rx="3.55461664"></rect>
                    </g>
                    <g id="Group-10" transform="translate(298.087075, 36.406802)">
                        <path d="M26.2751934,0.0725150458 L0.0690348504,11.5483377 C0.873539136,21.8125322 3.40797347,30.8402854 7.67233786,38.6315974 C11.9367022,46.4229094 17.8821364,52.0788907 25.5086404,55.5995413 C33.5195732,51.1544078 39.6201925,45.3252031 43.8104983,38.1119269 C48.000804,30.8986508 50.4180044,22.3002109 51.0620995,12.3166073 L26.2751934,0.0725150458 Z" id="Path-26" fill="#7CABD5"></path>
                        <g id="Group-9" transform="translate(3.248769, 4.136123)" fill="#538EC3">
                            <path d="M22.2154039,0.0616466333 L22.2154039,0 L22.1451391,0.0308233167 L22.0748744,0 L22.0748744,0.0616466333 L0.537931174,9.50934497 C2.10568829,20.1519263 4.30415308,27.8518945 7.13332556,32.6092495 C9.94412021,37.3357015 14.9246365,42.2798365 22.0748744,47.4416546 L22.0748744,47.542931 C22.0983191,47.5260637 22.1217407,47.5091987 22.1451391,47.492336 C22.1685376,47.5091987 22.1919592,47.5260637 22.2154039,47.542931 L22.2154039,47.4416546 C29.3656418,42.2798365 34.3461581,37.3357015 37.1569527,32.6092495 C39.9861252,27.8518945 42.18459,20.1519263 43.7523471,9.50934497 L22.2154039,0.0616466333 Z" id="Combined-Shape"></path>
                        </g>
                        <path d="M20.2506327,27.0358833 L20.2506327,17.7242882 L16.2409054,17.7242882 L16.2409054,27.0358833 L15.977534,27.0358833 L15.977534,31.0456106 L16.2409054,31.0456106 L16.2409054,31.0982849 L20.2506327,31.0982849 L20.2506327,31.0456106 L36.5529135,31.0456106 L36.5529135,27.0358833 L20.2506327,27.0358833 Z" id="Combined-Shape" fill="#424559" transform="translate(26.265224, 24.411287) rotate(-45.000000) translate(-26.265224, -24.411287) "></path>
                    </g>
                    <g id="Group-7" transform="translate(39.083226, 263.496072)" fill="#917DC9">
                        <path d="M33.6413054,36.7091228 C33.5636671,36.6615507 33.4607965,36.6139787 33.3113429,36.5664066 C32.9309156,36.3916521 32.5650454,36.2071891 32.2059686,36.0217551 C29.542007,34.1965415 29.9243752,29.7665152 30.263072,29.4966166 C32.8833622,27.4063587 34.2167987,25.3190133 34.95048,23.1549702 C35.978216,22.8083738 37.3320326,21.0559746 37.3320326,18.9307658 C37.3320326,17.0375921 36.7934174,15.4482971 36.0500314,14.8754907 C36.0558542,14.3958867 36.0626476,13.9454085 36.0801162,13.7172568 C36.5634141,7.53191861 32.9590594,2.79801359 28.1076407,0.962120565 C26.6761859,0.420381639 25.1360376,-5.68434189e-14 23.5599815,-5.68434189e-14 C22.4429616,-5.68434189e-14 21.351174,0.30096607 20.3079103,0.614553297 C14.8955554,2.24656608 10.7778179,7.77269147 11.0398469,13.7172568 C11.0505222,13.9337582 11.0544041,14.3978284 11.0592565,14.8822867 C10.3216933,15.46286 9.78890099,17.0463299 9.78890099,18.9307658 C9.78890099,21.3045143 11.651248,23.2277846 12.6886888,23.2277846 C13.6465504,25.4180409 15.045009,27.4956776 17.0296362,29.4966166 C17.3363072,29.8053495 17.541078,33.7188793 15.3788534,35.673217 C12.6780135,36.6440753 0.4208784,42.106124 0.4208784,45.3720913 L0.4208784,53.2067253 L46.947527,53.2067253 L46.947527,45.3720913 C46.947527,42.2896162 35.8268214,37.6663891 33.6413054,36.7091228 Z" id="Fill-1"></path>
                    </g>
                </g>
            </g>
        </g>
    </g>
</svg>