<?xml version="1.0" encoding="UTF-8"?>
<svg width="432px" height="333px" viewBox="0 0 432 333" version="1.1" xmlns="http://www.w3.org/2000/svg" xmlns:xlink="http://www.w3.org/1999/xlink">
    <!-- Generator: Sketch 47.1 (45422) - http://www.bohemiancoding.com/sketch -->
    <title>morethan_1</title>
    <desc>Created with Sketch.</desc>
    <defs>
        <polygon id="path-1" points="228.429699 227.045208 0.0195646357 227.045208 0.0195646357 0.42300891 228.429699 0.42300891 228.429699 227.045208"></polygon>
    </defs>
    <g id="Page-1" stroke="none" stroke-width="1" fill="none" fill-rule="evenodd">
        <g id="graphics" transform="translate(-249.000000, -1985.000000)">
            <g id="more-than-an-investment" transform="translate(249.000000, 1975.000000)">
                <g id="morethan_1" transform="translate(0.000000, 10.000000)">
                    <g id="Page-1" transform="translate(37.834451, 30.729973)">
                        <g id="Group-55" transform="translate(223.013556, 30.482986)">
                            <path d="M60.6008769,53.885685 L55.7464017,44.4225794 C54.7635116,42.8199753 54.8240688,41.3693124 54.8240688,41.3693124 L50.1058473,38.9139889 L45.8179313,35.7763743 C45.8179313,35.7763743 44.5293439,36.4644426 42.6479945,36.2876593 L31.9468375,36.090078 C31.9468375,36.090078 28.570191,36.4742639 26.322587,40.0376605 L25.0613667,42.0371604 L41.4356858,52.2062437 L41.844447,52.4604419 L58.2181838,62.6295253 L59.4799863,60.6300254 C61.7281726,57.0666288 60.6008769,53.885685 60.6008769,53.885685" id="Fill-1" fill="#FBCAB9"></path>
                            <polygon id="Fill-3" fill="#FBCAB9" points="52.5484572 44.9275672 43.5859907 39.3617821 49.5957111 29.8362824 58.5575953 35.4020675"></polygon>
                            <path d="M45.683308,35.8324135 C46.4123236,38.0566477 47.605417,39.7655528 49.2986896,40.817009 C50.8510503,41.781229 52.720754,42.1313292 54.8192941,41.937792 L61.3676243,31.5595728 L52.0354095,25.7632762 L45.683308,35.8324135 Z" id="Fill-5" fill="#E39485"></path>
                            <path d="M60.7742801,34.6272829 L50.1354272,28.0198629 C44.8483173,24.7366621 43.2301589,17.7589216 46.5398431,12.5137729 L47.5524294,10.9077024 C50.8621137,5.66255372 57.8943192,4.05763873 63.1814291,7.34141727 L73.820282,13.9482595 C79.1068097,17.2320381 80.7249681,24.2092009 77.4158661,29.4543496 L76.4032798,31.0598423 C73.0935956,36.304991 66.06139,37.9110614 60.7742801,34.6272829" id="Fill-7" fill="#79474D"></path>
                            <path d="M50.1601741,39.5531818 L50.1601741,39.5531818 C42.1427494,34.5743635 39.6901826,23.992208 44.7082787,16.0375376 C49.7269572,8.08286719 60.3914305,5.64834173 68.4088552,10.6277378 C76.4256976,15.6065561 78.8800113,26.1887116 73.8619151,34.143382 C68.8432367,42.0980524 58.1775988,44.5320001 50.1601741,39.5531818" id="Fill-9" fill="#FBCAB9"></path>
                            <path d="M44.4391486,13.0986598 L46.6943222,9.5237088 C52.2772307,0.674145175 63.2334268,-0.788072185 72.0445002,4.68412174 C80.8561559,10.155738 84.3178154,20.5732423 78.7349069,29.4222282 L76.4797333,32.9971792 L74.6531183,32.1768123 L76.8145447,26.9761482 L66.3538697,13.1373673 L49.5271184,9.89460708 L46.1132059,14.337876 L44.4391486,13.0986598 Z" id="Fill-11" fill="#79474D"></path>
                            <path d="M44.6472557,21.1585914 L41.7317756,19.3474292 C40.1281742,18.3520122 39.6373115,16.2358122 40.6411636,14.6447626 C41.6450158,13.053713 43.7784927,12.56727 45.3815118,13.5632648 L48.2969919,15.3732715 C49.900011,16.3692663 50.3908738,18.4854663 49.3876039,20.0765159 C48.3837518,21.6669878 46.2502748,22.1540084 44.6472557,21.1585914" id="Fill-13" fill="#FBCAB9"></path>
                            <path d="M45.0839663,15.6425483 L44.9017124,15.5293145 C43.9997594,14.9689231 42.9679578,14.9770112 42.6086905,15.5466462 L42.3187147,16.0065139 C41.9594474,16.5755712 42.4031454,17.4999283 43.3045161,18.0603198 L43.4873523,18.1735535 L45.0839663,15.6425483 Z" id="Fill-15" fill="#E39485"></path>
                            <path d="M69.4283125,36.548328 L72.3437926,38.3589124 C73.9468117,39.3543295 76.0802886,38.8678866 77.0835585,37.2768369 C78.0874106,35.6857873 77.5965479,33.5695873 75.9929465,32.5735926 L73.0780487,30.7630081 C71.4744473,29.7675911 69.3415526,30.254034 68.3377005,31.8450836 C67.3338483,33.4355555 67.8247111,35.5523333 69.4283125,36.548328" id="Fill-17" fill="#FBCAB9"></path>
                            <path d="M74.2378356,33.7482771 L74.4195072,33.8609331 C75.3214602,34.4213246 75.7663228,35.3456817 75.4070555,35.9153167 L75.1164974,36.3751844 C74.7572301,36.9448194 73.7248462,36.9523298 72.8228932,36.3919383 L72.6412216,36.2792823 L74.2378356,33.7482771 Z" id="Fill-19" fill="#E39485"></path>
                            <path d="M61.0626256,35.0013587 L55.5961732,31.6066573 L55.2928049,31.4183195 L49.8263525,28.0236181 C49.8263525,28.0236181 48.915083,27.4568717 48.5855121,28.6504478 C48.5855121,28.6504478 47.6264956,32.7499714 52.4454517,35.9309153 L52.4413757,35.9378479 C52.4931987,35.9702004 52.5432749,35.9979311 52.5950978,36.0279727 C52.6463386,36.060903 52.6935033,36.0944109 52.7453263,36.1261857 L52.7494023,36.1204085 C57.7389667,39.0304001 61.0370053,36.3832725 61.0370053,36.3832725 C61.9738951,35.5675274 61.0626256,35.0013587 61.0626256,35.0013587" id="Fill-21" fill="#8B2B23"></path>
                            <path d="M53.9239791,33.9226339 C52.7192401,33.1744824 51.2548038,33.1889255 50.096065,33.8296205 C50.662042,34.5390646 51.423083,35.256019 52.4455681,35.9313774 L52.4414922,35.9377324 C52.4933152,35.9700849 52.5439736,35.9978156 52.5952143,36.0290126 C52.6458727,36.0607874 52.6930375,36.0942954 52.7448605,36.1260701 L52.7483542,36.1197152 C53.8086875,36.7373013 54.790413,37.103 55.681885,37.2988482 C55.7552523,35.9839502 55.1287182,34.6707855 53.9239791,33.9226339" id="Fill-23" fill="#DC6666"></path>
                            <path d="M57.067364,28.6052121 C56.2952596,28.1257018 55.8218653,27.3810166 55.7519916,26.6704171 L55.6896875,26.7697855 C55.2011539,27.5439346 55.6215607,28.686671 56.6230837,29.3088789 C57.6263535,29.9316645 58.8456496,29.8068763 59.3336009,29.0327272 L59.395905,28.9339365 C58.7210415,29.1817798 57.8394683,29.0847223 57.067364,28.6052121" id="Fill-25" fill="#E39483"></path>
                            <path d="M52.8100177,21.4885869 C53.5110838,21.9241902 54.0869595,22.4372083 54.4782523,22.9363612 L54.64362,22.6740748 C55.2829644,21.6613261 54.9708618,20.3140757 53.9507058,19.6803133 C52.9299675,19.046551 51.5726709,19.3573661 50.9339089,20.3695371 L50.7679588,20.6324011 L50.7685411,20.6329789 C51.3915816,20.7629666 52.1083693,21.0524059 52.8100177,21.4885869" id="Fill-27" fill="#754448"></path>
                            <path d="M65.4393977,29.3318723 C66.1404638,29.7674755 66.7163395,30.2804937 67.1070499,30.7796465 L67.1076322,30.7796465 L67.273,30.5173602 C67.911762,29.5046115 67.5996595,28.157361 66.5795035,27.5235987 C65.5593475,26.8898364 64.2020509,27.2006515 63.5627066,28.2128225 L63.3973388,28.4756865 C64.0209616,28.606252 64.7377493,28.896269 65.4393977,29.3318723" id="Fill-29" fill="#754448"></path>
                            <path d="M48.7835458,23.1817202 C48.1535179,24.1806036 46.8270822,24.4827528 45.8209009,23.8576563 C44.8141374,23.2325598 44.5090222,21.9170842 45.1390501,20.9182008 C45.7684957,19.9198951 47.0955137,19.6171682 48.1016949,20.2422647 C49.1084585,20.8667834 49.4129914,22.1828368 48.7835458,23.1817202" id="Fill-31" fill="#F8B4A8"></path>
                            <path d="M69.2486206,35.8910524 C68.6185927,36.8899357 67.292157,37.1926627 66.2859758,36.5675662 C65.2797945,35.9424697 64.9740971,34.626994 65.6041249,33.6281107 C66.2335705,32.6292273 67.5605885,32.3270781 68.5667697,32.9521746 C69.5735333,33.5766933 69.8780662,34.8927467 69.2486206,35.8910524" id="Fill-33" fill="#F8B4A8"></path>
                            <path d="M55.5656035,31.5880546 L55.2622352,31.3997168 L51.7050816,29.1899257 C51.5746507,30.4453181 52.1487796,31.7295968 53.2947083,32.4419294 L55.4805905,33.7995789 C56.6271014,34.5113339 58.0420438,34.4622274 59.1233393,33.797268 L55.5656035,31.5880546 Z" id="Fill-35" fill="#FFFFFF"></path>
                            <polygon id="Fill-37" fill="#79474D" points="77.4074231 27.3893936 69.1070099 22.2083722 67.8242452 17.970195 65.9999594 20.2689555 49.1400181 9.74515009 57.9516738 4.05226591 79.6992804 17.5998744"></polygon>
                            <polygon id="Fill-39" fill="#79474D" points="71.8893806 4.58741088 69.0140779 0.223867731 68.5051644 3.77455438"></polygon>
                            <polygon id="Fill-41" fill="#79474D" points="73.2501127 5.86186821 74.2236862 4.31876961 70.1098722 3.91205249"></polygon>
                            <path d="M11.7151408,28.2926638 C11.4490385,28.1846296 11.2038983,28.0494424 10.9936949,27.8761254 C10.1383244,27.1713031 9.25442207,25.3069904 8.53414069,24.1544327 C5.46784986,19.247252 -2.30618144,23.377395 0.755451143,28.2770653 C2.15467197,30.5157426 3.42928469,32.748065 5.55344515,34.3905319 L11.7151408,28.2926638 Z" id="Fill-43" fill="#FBCAB9"></path>
                            <path d="M61.3929535,53.9217927 L56.9466571,45.1785301 C53.9438349,46.5662212 50.0972878,46.3669067 46.8254518,44.3350543 C43.5914641,42.3268885 41.7339883,39.0332887 41.6396588,35.7830181 L31.7694165,35.5241981 C31.7694165,35.5241981 28.2780607,35.9239826 25.950102,39.6133228 L22.7085446,44.7515927 L56.9874168,66.0401141 L60.2283919,60.9018441 C62.5563506,57.2119262 61.3929535,53.9217927 61.3929535,53.9217927" id="Fill-45" fill="#D64316"></path>
                            <path d="M61.3577255,53.8997814 L58.0835605,47.5182512 C54.6498504,49.8482088 49.4535763,49.81239 45.046875,47.0757153 C40.6494903,44.3448178 38.345405,39.7334314 38.9463188,35.656439 L31.7341885,35.5021869 C31.7341885,35.5021869 28.2422504,35.9019713 25.914874,39.5913115 L13.4028236,59.4245482 L47.6811135,80.7124918 L60.1931639,60.8798329 C62.5211226,57.1899149 61.3577255,53.8997814 61.3577255,53.8997814" id="Fill-47" fill="#E85A0C"></path>
                            <path d="M32.9487681,41.9379653 C32.9487681,41.9379653 35.4904239,37.6368162 33.655657,35.6448267 C32.6325896,34.5350205 28.6037886,35.7534387 24.1726315,35.7846357 C18.0971134,35.8273873 10.3102719,25.5780004 10.3102719,25.5780004 C4.86012337,28.4989688 1.16089328,30.5816608 1.16089328,30.5816608 C1.16089328,30.5816608 7.93980665,43.0298621 13.0260297,45.5481574 C22.8718161,50.4229856 30.0065031,44.9681234 30.0065031,44.9681234 C30.0065031,44.9681234 31.5058762,43.8328973 32.9487681,41.9379653" id="Fill-49" fill="#D64316"></path>
                            <path d="M77.0366849,68.860212 C77.2509642,69.0502829 77.4809651,69.2103122 77.729599,69.3223905 C78.7427677,69.7770587 80.8185988,69.7510611 82.1782246,69.8902924 C87.9666782,70.4830364 87.6196389,79.2251435 81.8405017,78.6341327 C79.1992759,78.3637582 76.6186072,78.2019957 74.2015595,77.0234405 L77.0366849,68.860212 Z" id="Fill-51" fill="#FBCAB9"></path>
                            <path d="M55.3876585,55.8732838 C55.3876585,55.8732838 58.1762013,51.7252314 60.7842371,52.4924478 C62.2376101,52.9205407 62.8932583,57.047795 64.8013926,61.0167533 C67.4175803,66.4571724 80.1118846,68.9275167 80.1118846,68.9275167 C79.8452,75.0681364 79.5738571,79.2797383 79.5738571,79.2797383 C79.5738571,79.2797383 65.3260276,78.6696626 60.8209208,75.2304766 C52.0995186,68.5733724 53.9261336,59.8231772 53.9261336,59.8231772 C53.9261336,59.8231772 54.2999579,57.9889061 55.3876585,55.8732838" id="Fill-53" fill="#D64316"></path>
                        </g>
                        <g id="Group-273" transform="translate(0.000000, 0.441381)">
                            <path d="M48.9126374,156.151122 L42.6956251,164.794438 C41.7173933,166.399931 40.3927044,167.01694 40.3927044,167.01694 L40.3769828,172.303107 L39.5536377,177.525146 C39.5536377,177.525146 40.763035,178.341469 41.4751645,180.079261 L46.2417153,189.586851 C46.2417153,189.586851 48.144609,192.380142 52.3684741,192.712333 L54.7383571,192.89836 L56.2645152,173.792477 L56.3023634,173.315278 L57.8291037,154.209394 L55.4592208,154.022212 C51.2347734,153.690599 48.9126374,156.151122 48.9126374,156.151122" id="Fill-56" fill="#EAA98C"></path>
                            <path d="M48.496656,155.549712 L44.4550448,161.162293 C47.5970322,163.734316 49.6227871,171.604062 49.6641291,172.912027 C49.6920786,173.7815 46.1459883,181.893311 42.6354172,183.942495 L45.7354804,190.116045 C45.7354804,190.116045 47.7059187,193.004083 52.0788477,193.347829 L75.5878537,195.196543 L78.7828286,155.199034 L55.2744048,153.349742 C50.9003113,153.005997 48.496656,155.549712 48.496656,155.549712" id="Fill-58" fill="#D6D6D6"></path>
                            <path d="M39.2941734,177.69673 C40.9455218,176.02711 41.9220068,174.188795 42.0798049,172.212982 C42.2247928,170.400664 41.6739551,168.594124 40.5315202,166.836112 L28.2290909,165.869004 L27.3591633,176.758508 L39.2941734,177.69673 Z" id="Fill-60" fill="#D88B6C"></path>
                            <path d="M39.2546365,157.954832 L36.9668552,186.592569 C36.7770316,188.969323 34.6621877,190.759109 32.2672666,190.570771 L18.0083738,189.449988 C15.6128705,189.261073 13.8089645,187.16336 13.998788,184.786607 L16.2865694,156.148869 C16.4758106,153.772693 18.5912369,151.982329 20.9855756,152.170667 L35.2450508,153.292028 C37.6399718,153.480366 39.4444601,155.578656 39.2546365,157.954832" id="Fill-62" fill="#442927"></path>
                            <path d="M31.6002639,165.387356 L30.6086397,177.801471 C30.1160301,183.970399 24.6257042,188.617605 18.4081096,188.128273 L16.5052158,187.978643 C10.2876212,187.490467 5.60433649,182.043115 6.09752835,175.874187 L7.08915259,163.460071 C7.58176217,157.290565 13.0715058,152.643938 19.2885182,153.132692 L21.1919942,153.2829 C27.4095888,153.771654 32.0928735,159.218428 31.6002639,165.387356" id="Fill-64" fill="#79474D"></path>
                            <path d="M40.9068002,172.451524 L40.9068002,172.451524 C40.1591516,181.806595 31.8337003,188.85424 22.4048269,188.112444 C12.9759535,187.370647 5.87270972,179.110361 6.61977602,169.755867 C7.3674246,160.401374 15.6928758,153.352573 25.1223315,154.09437 C34.5506227,154.836166 41.6538664,163.097608 40.9068002,172.451524" id="Fill-66" fill="#EAA98C"></path>
                            <path d="M19.9017763,189.707017 L15.6639365,189.373671 C8.27013456,188.792482 2.89568255,184.774995 0.65564821,178.844088 C-0.249798474,176.446537 -0.050076151,174.444726 0.267266899,172.798793 C0.493191859,171.62486 1.34157502,169.781923 1.35030923,169.677932 C1.3572966,169.589541 0.666129264,167.898545 0.636432942,166.714213 C0.586939072,164.780573 0.947370903,162.196417 2.42112367,159.797711 C5.66792156,154.511544 11.4982995,151.424191 18.6504548,151.986893 L22.8882947,152.32024 L22.9983458,154.30703 L20.8351725,155.080601 C20.8351725,155.080601 17.6553369,160.396232 16.386547,162.409597 C15.4403407,163.911677 9.81317875,170.404708 9.81317875,170.404708 C9.81317875,170.404708 13.9828917,176.764285 15.0583644,179.043403 C15.876469,180.778306 18.1706554,186.98363 18.1706554,186.98363 L20.2360055,187.6613 L19.9017763,189.707017 Z" id="Fill-68" fill="#442927"></path>
                            <path d="M27.0102607,185.800627 L26.7383355,189.202261 C26.5886893,191.073506 24.9233662,192.482573 23.0379409,192.334676 C21.1519333,192.186779 19.7317503,190.533912 19.8808142,188.663245 L20.1527394,185.261033 C20.3023855,183.390365 21.9671264,181.980721 23.853134,182.129196 C25.7385593,182.277093 27.1593245,183.929959 27.0102607,185.800627" id="Fill-70" fill="#EAA98C"></path>
                            <path d="M21.8775134,187.964258 L21.8606273,188.177437 C21.7767788,189.229471 22.2600719,190.133608 22.9349354,190.186759 L23.4805325,190.22951 C24.1559783,190.282661 24.7766896,189.46576 24.8605381,188.413148 L24.8774242,188.199969 L21.8775134,187.964258 Z" id="Fill-72" fill="#C17B5F"></path>
                            <path d="M29.3200522,156.885119 L29.5913951,153.482908 C29.7410413,151.61224 28.3202761,149.960529 26.4342685,149.812054 C24.5488431,149.66358 22.8841023,151.072646 22.7344561,152.943892 L22.4625309,156.345526 C22.3128848,158.216771 23.73365,159.868482 25.6196576,160.016957 C27.5050829,160.165432 29.1704061,158.755787 29.3200522,156.885119" id="Fill-74" fill="#EAA98C"></path>
                            <path d="M24.5949598,153.945722 L24.6118459,153.733697 C24.6956944,152.681663 25.316988,151.863607 25.9918515,151.91618 L26.5374486,151.959509 C27.2128944,152.012082 27.6961875,152.917374 27.6117567,153.969408 L27.5948706,154.181433 L24.5949598,153.945722 Z" id="Fill-76" fill="#C17B5F"></path>
                            <path d="M31.8015584,164.960823 L31.2920627,171.338887 L31.2641132,171.693031 L30.7546175,178.071673 C30.7546175,178.071673 30.6696045,179.135261 31.887736,178.87413 C31.887736,178.87413 35.9957272,177.824985 36.6135272,172.114191 L36.6210968,172.114769 C36.6257551,172.054108 36.6275019,171.997491 36.6309956,171.937986 C36.6368184,171.877902 36.6443881,171.820708 36.6496286,171.760625 L36.6420589,171.760047 C36.9378576,166.024411 33.0482217,164.345548 33.0482217,164.345548 C31.8865714,163.897234 31.8015584,164.960823 31.8015584,164.960823" id="Fill-78" fill="#8B2B23"></path>
                            <path d="M34.1346412,171.741213 C34.022261,173.146814 34.7128461,174.428781 35.8203442,175.152668 C36.193004,174.326524 36.4823975,173.325908 36.6134107,172.114422 L36.6209804,172.114422 C36.6256386,172.054339 36.6273855,171.996567 36.6314614,171.937639 C36.6367019,171.878133 36.6448539,171.821517 36.6495121,171.760856 L36.6419425,171.760278 C36.7048288,170.542437 36.5778916,169.509468 36.3409033,168.634796 C35.1320883,169.177855 34.2470214,170.335035 34.1346412,171.741213" id="Fill-80" fill="#DC6666"></path>
                            <path d="M27.9294492,171.431438 C27.8572463,172.332108 27.4106369,173.09297 26.8079763,173.482355 L26.9250147,173.491599 C27.8426893,173.563814 28.6701104,172.66661 28.7632753,171.496721 C28.8570225,170.326831 28.1827413,169.311772 27.2650667,169.239556 L27.147446,169.229735 C27.6808153,169.709823 28.001652,170.529612 27.9294492,171.431438" id="Fill-82" fill="#D88B6C"></path>
                            <path d="M23.5345099,178.465102 C23.5997254,177.647046 23.7924604,176.903516 24.0579804,176.328104 L23.7470425,176.30384 C22.5469617,176.209671 21.4866283,177.105719 21.3917165,178.296985 C21.2962225,179.487672 22.2005046,180.53855 23.4011676,180.633297 L23.7126879,180.657561 L23.7126879,180.656984 C23.5414973,180.048064 23.4692945,179.284313 23.5345099,178.465102" id="Fill-84" fill="#754448"></path>
                            <path d="M24.7115324,163.728655 C24.7767479,162.910021 24.9694828,162.167069 25.2350029,161.592234 L25.2350029,161.591657 L24.9240649,161.567392 C23.7239841,161.473223 22.6636507,162.36985 22.568739,163.560537 C22.4738272,164.751225 23.3781093,165.802103 24.5781901,165.89685 L24.8897103,165.921114 C24.7185198,165.311616 24.646317,164.547289 24.7115324,163.728655" id="Fill-86" fill="#754448"></path>
                            <path d="M26.9078957,181.226214 C28.0916726,181.319228 28.9749926,182.34642 28.8812454,183.520931 C28.7874982,184.695442 27.7522029,185.57127 26.568426,185.478257 C25.3852313,185.385244 24.501329,184.358629 24.5950762,183.184118 C24.6888235,182.009607 25.724701,181.133201 26.9078957,181.226214" id="Fill-88" fill="#E2987A"></path>
                            <path d="M28.8156806,157.346662 C29.9994575,157.439676 30.8821952,158.466868 30.788448,159.641379 C30.6947008,160.815312 29.6594055,161.691718 28.4762109,161.598705 C27.2924339,161.505692 26.4091139,160.4785 26.5028611,159.303989 C26.5966084,158.129477 27.6324859,157.253649 28.8156806,157.346662" id="Fill-90" fill="#E2987A"></path>
                            <path d="M31.2892095,171.374474 L31.26126,171.728619 L30.92936,175.880137 C32.1119723,175.414493 32.9947101,174.316241 33.1018497,172.978812 L33.305648,170.427586 C33.4122054,169.090735 32.714633,167.868272 31.6211096,167.222956 L31.2892095,171.374474 Z" id="Fill-92" fill="#FFFFFF"></path>
                            <polygon id="Fill-94" fill="#E8E8E8" points="40.9943752 182.710039 49.7699295 172.965004 48.0399732 178.16509 51.1994289 183.868374 42.8652435 185.347345"></polygon>
                            <polygon id="Fill-96" fill="#E8E8E8" points="42.6436856 162.060941 49.762651 173.056169 48.879331 167.650413 52.9052206 162.512143 44.9099226 159.748893"></polygon>
                            <path d="M48.7337608,211.301674 C48.7599634,211.585914 48.7523938,211.864377 48.694748,212.129551 C48.4589242,213.207583 47.2011976,214.846584 46.5036252,216.012429 C43.5334107,220.977382 50.8171616,225.909982 53.7821355,220.953118 C55.137103,218.687865 56.5438935,216.535268 57.0306803,213.907206 L48.7337608,211.301674 Z" id="Fill-98" fill="#EAA98C"></path>
                            <path d="M51.4509743,184.94421 C51.4509743,184.94421 62.8077795,189.967513 63.5525166,202.177114 C63.8960623,207.806449 55.6550418,219.531919 55.6550418,219.531919 C55.6550418,219.531919 52.0844958,217.238358 46.9557663,213.792239 C46.9557663,213.792239 52.5206241,202.205423 49.6761823,196.878815 C47.6009334,192.994204 44.6773014,189.148301 44.958543,187.670485 C45.5402416,184.617796 50.6567432,184.908969 50.6567432,184.908969" id="Fill-100" fill="#D6D6D6"></path>
                            <path d="M54.8235448,135.063128 C54.8945831,134.786399 54.931849,134.510247 54.9167097,134.239873 C54.854988,133.138155 53.8732625,131.322949 53.3695896,130.062934 C51.224467,124.695308 59.2005498,120.962639 61.3415964,126.321021 C62.3198281,128.76999 63.3673513,131.115546 63.43082,133.786938 L54.8235448,135.063128 Z" id="Fill-102" fill="#EAA98C"></path>
                            <path d="M53.3226577,161.515975 C53.3226577,161.515975 65.3351112,158.330409 68.0089447,146.389449 C69.2416332,140.884325 62.9652282,128.017852 62.9652282,128.017852 C62.9652282,128.017852 59.0755923,129.724446 53.4635697,132.326511 C53.4635697,132.326511 57.1191287,144.637792 53.464152,149.453115 C50.7984704,152.965094 47.3007094,156.30549 47.3437982,157.809303 C47.4334695,160.915143 52.5325027,161.427006 52.5325027,161.427006" id="Fill-104" fill="#D6D6D6"></path>
                            <path d="M328.786149,172.3759 L331.903098,162.217793 C332.315353,160.386411 333.371611,159.382905 333.371611,159.382905 L331.688819,154.367113 L330.792107,149.157205 C330.792107,149.157205 329.382987,148.766087 328.150881,147.34431 L320.578319,139.839108 C320.578319,139.839108 317.878282,137.792813 313.76738,138.81365 L311.460965,139.386173 L316.15182,157.979038 L316.268858,158.444105 L320.95913,177.035815 L323.264962,176.463291 C327.375283,175.443032 328.786149,172.3759 328.786149,172.3759" id="Fill-106" fill="#CE896A"></path>
                            <path d="M329.373496,172.814854 L331.40158,166.216677 C329.539446,165.509544 327.819388,164.289393 326.409104,162.675234 C324.938845,160.992904 318.354413,157.568739 318.354413,157.568739 C318.354413,157.568739 322.595747,152.168761 322.949774,150.181393 C323.368434,147.83006 324.362969,145.702883 325.809937,144.048284 L320.8885,139.1775 C320.8885,139.1775 318.093552,137.063033 313.837079,138.119688 L290.96043,143.80044 L300.780014,182.723384 L323.65608,177.042632 C327.911971,175.985399 329.373496,172.814854 329.373496,172.814854" id="Fill-108" fill="#D6D6D6"></path>
                            <path d="M330.982745,148.912655 C329.953855,151.017301 329.618461,153.068796 330.103501,154.990881 C330.548946,156.754669 331.650621,158.293146 333.298476,159.597645 L345.27017,156.625259 L342.596919,146.028661 L330.982745,148.912655 Z" id="Fill-110" fill="#A05138"></path>
                            <path d="M342.229208,158.147213 L339.182133,146.067022 C337.66762,140.0639 341.378496,133.923281 347.428976,132.420623 L349.280629,131.960755 C355.331109,130.458097 361.520172,134.140505 363.034102,140.143626 L366.08176,152.224395 C367.59569,158.227517 363.884815,164.368137 357.834917,165.870217 L355.983264,166.330084 C349.932201,167.832742 343.743721,164.150913 342.229208,158.147213" id="Fill-112" fill="#1C1617"></path>
                            <path d="M331.139146,154.393688 L331.139146,154.393688 C328.84263,145.290504 334.470957,135.978184 343.645956,133.699644 C352.821537,131.421104 362.207322,137.004798 364.50442,146.10856 C366.800353,155.211744 361.172609,164.524642 351.997027,166.803182 C342.821446,169.081722 333.435079,163.496872 331.139146,154.393688" id="Fill-114" fill="#CE896A"></path>
                            <path d="M345.506809,131.39707 L349.630522,130.373345 C359.837322,127.838296 368.754371,134.322083 371.277976,144.327671 C373.802163,154.332681 369.015233,164.219835 358.808432,166.754307 L354.684719,167.779188 L353.941147,165.930473 L359.133345,163.670998 L366.354209,145.240473 L351.412301,132.588913 L345.846861,133.441633 L345.506809,131.39707 Z" id="Fill-116" fill="#1C1617"></path>
                            <path d="M340.02347,137.346926 L339.18848,134.03715 C338.72906,132.216166 339.855191,130.353587 341.689958,129.897763 C343.525307,129.44194 345.401998,130.559256 345.861418,132.379662 L346.696409,135.690016 C347.155828,137.510422 346.030279,139.373579 344.19493,139.829402 C342.360746,140.284648 340.48289,139.167332 340.02347,137.346926" id="Fill-118" fill="#CE896A"></path>
                            <path d="M344.193242,133.673531 L344.141419,133.466706 C343.882886,132.442403 343.134655,131.738158 342.47726,131.901654 L341.946802,132.032797 C341.289989,132.196293 340.96333,133.167445 341.22128,134.191171 L341.273686,134.398573 L344.193242,133.673531 Z" id="Fill-120" fill="#93422C"></path>
                            <path d="M347.121707,165.485569 L347.957279,168.795923 C348.416117,170.616906 350.29339,171.733067 352.128739,171.277244 C353.963506,170.821998 355.089055,168.959996 354.630218,167.139012 L353.794645,163.828659 C353.335225,162.007675 351.457952,160.890936 349.623185,161.34676 C347.788418,161.802583 346.662287,163.665163 347.121707,165.485569" id="Fill-122" fill="#CE896A"></path>
                            <path d="M352.544197,166.777531 L352.596602,166.983778 C352.854552,168.008081 352.529057,168.979812 351.872245,169.143307 L351.341787,169.274451 C350.684392,169.437369 349.935579,168.733124 349.677046,167.708821 L349.624641,167.502574 L352.544197,166.777531 Z" id="Fill-124" fill="#93422C"></path>
                            <path d="M342.175173,158.615458 L340.610002,152.4084 L340.52266,152.063499 L338.956907,145.856442 C338.956907,145.856442 338.695462,144.821739 337.62523,145.454924 C337.62523,145.454924 334.068659,147.747907 335.317069,153.356444 L335.309499,153.358177 C335.324056,153.417105 335.341525,153.471989 335.356664,153.529183 C335.370639,153.588111 335.381702,153.644728 335.396259,153.703078 L335.403829,153.701345 C336.965506,159.231311 341.1917,159.592388 341.1917,159.592388 C342.436617,159.650738 342.175173,158.615458 342.175173,158.615458" id="Fill-126" fill="#8B2B23"></path>
                            <path d="M337.786464,152.926271 C337.441171,151.558801 336.375015,150.56165 335.092833,150.225415 C335.004908,151.126664 335.052073,152.166565 335.317011,153.356675 L335.309441,153.358408 C335.323998,153.417336 335.341467,153.471642 335.356606,153.529414 C335.371163,153.587764 335.381644,153.643803 335.396783,153.702731 L335.403771,153.700998 C335.735671,154.874932 336.187521,155.814309 336.69294,156.568816 C337.664185,155.671612 338.131174,154.29432 337.786464,152.926271" id="Fill-128" fill="#DC6666"></path>
                            <path d="M343.767361,151.25798 C343.546095,150.380996 343.726019,149.519033 344.171464,148.95922 L344.057337,148.987528 C343.164701,149.209374 342.668597,150.321491 342.955662,151.459605 C343.243309,152.59772 344.20873,153.347027 345.101367,153.125181 L345.215494,153.097451 C344.55577,152.8109 343.988628,152.134964 343.767361,151.25798" id="Fill-130" fill="#A05138"></path>
                            <path d="M345.673982,143.200879 C345.874869,143.99756 345.93135,144.763043 345.863805,145.392183 L346.167174,145.317079 C347.335229,145.027062 348.051434,143.841574 347.759129,142.683239 C347.466824,141.524904 346.271984,140.814305 345.103929,141.104322 L344.801143,141.179426 L344.801143,141.180004 C345.159245,141.702843 345.473095,142.404199 345.673982,143.200879" id="Fill-132" fill="#191414"></path>
                            <path d="M349.291634,157.541297 C349.492521,158.337978 349.54842,159.103461 349.481458,159.732601 L349.784826,159.657497 C350.952881,159.36748 351.669087,158.181415 351.376782,157.023657 C351.084477,155.865322 349.889637,155.154145 348.721581,155.44474 L348.418795,155.519844 C348.776898,156.043261 349.090165,156.745195 349.291634,157.541297" id="Fill-134" fill="#191414"></path>
                            <path d="M340.601209,152.373968 L340.51445,152.029067 L339.495458,147.989627 C338.524214,148.804794 338.039756,150.124892 338.36758,151.425924 L338.994114,153.908978 C339.322521,155.210589 340.375867,156.148233 341.620201,156.413986 L340.601209,152.373968 Z" id="Fill-136" fill="#FFFFFF"></path>
                            <polygon id="Fill-138" fill="#1C1617" points="353.15664 133.167445 355.240623 145.222217 357.175542 142.699878 356.993288 151.276756 358.537497 149.366226 358.051875 155.480848 359.413247 154.398772 358.765751 159.641032 360.273858 158.701654 357.972684 165.291743 365.036915 162.337844 370.344405 145.29501"></polygon>
                            <path d="M348.105994,148.337763 L349.122599,152.20042" id="Stroke-140" stroke="#606060" stroke-width="2.528"></path>
                            <path d="M347.993439,147.892049 C344.90968,148.657532 341.783996,146.797842 341.012474,143.738797 C340.240952,140.679175 342.114732,137.577957 345.198491,136.811896 C348.281668,136.046413 351.407352,137.906104 352.178874,140.965726 C352.95156,144.025348 351.077198,147.125988 347.993439,147.892049 Z" id="Stroke-142" stroke="#606060" stroke-width="2.251"></path>
                            <path d="M351.874923,163.279591 C348.791164,164.045074 345.666063,162.185383 344.893958,159.126339 C344.122436,156.067294 345.996216,152.965499 349.079975,152.200015 C352.163734,151.433955 355.288836,153.293645 356.06094,156.353267 C356.833044,159.412889 354.958682,162.514107 351.874923,163.279591 Z" id="Stroke-144" stroke="#606060" stroke-width="2.251"></path>
                            <polygon id="Fill-146" fill="#E8E8E8" points="328.136149 145.108983 318.354413 157.568739 319.476469 146.843308 323.625802 146.631862 324.55978 141.411555"></polygon>
                            <polygon id="Fill-148" fill="#E8E8E8" points="332.898507 163.988226 318.354297 157.569144 324.436803 166.505943 328.197172 164.753131 331.500451 168.921404"></polygon>
                            <polygon id="Fill-150" fill="#E8E8E8" points="317.9053 172.893251 315.915064 165.005019 317.60659 164.585014 319.596244 172.473246"></polygon>
                            <path d="M311.442798,120.094783 C311.326924,119.833652 311.244241,119.5679 311.213962,119.298103 C311.091101,118.202162 311.75723,116.250613 312.04313,114.924738 C313.264173,109.279227 304.776265,106.907096 303.557551,112.542786 C303.000891,115.118853 302.358635,117.603641 302.742358,120.249035 L311.442798,120.094783 Z" id="Fill-152" fill="#CE896A"></path>
                            <path d="M317.333268,145.937207 C317.333268,145.937207 304.955142,144.767318 300.327174,133.429501 C298.193697,128.202261 302.238802,114.482491 302.238802,114.482491 C302.238802,114.482491 306.359603,115.527015 312.327982,117.17237 C312.327982,117.17237 310.775039,129.914633 315.182322,134.063263 C318.397095,137.090532 322.403769,139.811031 322.611061,141.300979 C323.041367,144.37851 318.09722,145.719406 318.09722,145.719406" id="Fill-154" fill="#D6D6D6"></path>
                            <path d="M330.158236,194.28426 C330.179198,194.5685 330.23335,194.842341 330.334667,195.09365 C330.746922,196.118531 332.260269,197.528176 333.142425,198.564034 C336.899301,202.973217 330.538465,209.033533 326.787994,204.631282 C325.074342,202.61965 323.328082,200.727029 322.409242,198.215089 L330.158236,194.28426 Z" id="Fill-156" fill="#CE896A"></path>
                            <path d="M323.084455,168.735782 C323.084455,168.735782 312.721021,175.553493 314.022419,187.716877 C314.621586,193.325413 324.703778,203.53667 324.703778,203.53667 C324.703778,203.53667 327.842854,200.68965 332.326417,196.448585 C332.326417,196.448585 324.906994,185.934601 326.824445,180.214563 C328.223084,176.042247 330.466029,171.770561 329.941394,170.359184 C328.859517,167.443415 323.8618,168.570553 323.8618,168.570553" id="Fill-158" fill="#D6D6D6"></path>
                            <path d="M194.156417,47.843856 L184.980836,42.378017 C183.290475,41.5368521 182.566117,40.2756824 182.566117,40.2756824 L177.253387,40.6783555 L171.941821,40.2756824 C171.941821,40.2756824 171.216882,41.5368521 169.527685,42.378017 L160.351522,47.843856 C160.351522,47.843856 157.695156,49.9467684 157.695156,54.1508599 L157.695156,56.5091259 L177.012905,56.5091259 L177.495034,56.5091259 L196.812782,56.5091259 L196.812782,54.1508599 C196.812782,49.9467684 194.156417,47.843856 194.156417,47.843856" id="Fill-160" fill="#BC7E6F"></path>
                            <path d="M194.727868,47.3851438 L188.76997,43.8309908 C186.433277,47.1419224 182.151184,49.3615348 177.25362,49.3615348 C172.355474,49.3615348 168.073963,47.1419224 165.73727,43.8309908 L159.779955,47.3851438 C159.779955,47.3851438 157.033918,49.5620047 157.033918,53.9145712 L157.033918,77.3123598 L197.473322,77.3123598 L197.473322,53.9145712 C197.473322,49.5620047 194.727868,47.3851438 194.727868,47.3851438" id="Fill-162" fill="#E8E8E8"></path>
                            <path d="M171.748854,40.0327498 C173.556253,41.5348301 175.481856,42.355197 177.479079,42.355197 C179.310935,42.355197 181.082815,41.6677064 182.758619,40.3990263 L182.758619,28.1541836 L171.748854,28.1541836 L171.748854,40.0327498 Z" id="Fill-164" fill="#9B5D51"></path>
                            <path d="M177.146015,41.2135582 L177.146015,41.2135582 C167.688027,41.2135582 159.949515,33.5356172 159.949515,24.1510819 C159.949515,14.7665466 167.688027,7.08860561 177.146015,7.08860561 C186.604002,7.08860561 194.343679,14.7665466 194.343679,24.1510819 C194.343679,33.5356172 186.604002,41.2135582 177.146015,41.2135582" id="Fill-166" fill="#BC7E6F"></path>
                            <path d="M181.285391,31.6078127 L173.422853,31.6078127 C166.215381,31.6078127 160.31804,25.7572101 160.31804,18.6061526 C160.31804,11.4550951 166.215381,5.60391481 173.422853,5.60391481 L181.285391,5.60391481 C188.492863,5.60391481 194.389621,11.4550951 194.389621,18.6061526 C194.389621,25.7572101 188.492863,31.6078127 181.285391,31.6078127" id="Fill-168" fill="#BC7E6F"></path>
                            <path d="M183.508772,31.4503832 L170.957126,31.4503832 C164.720316,31.4503832 159.617207,26.387795 159.617207,20.1992243 L159.617207,18.3054477 C159.617207,12.1174548 164.720316,7.05486657 170.957126,7.05486657 L183.508772,7.05486657 C189.745582,7.05486657 194.848691,12.1174548 194.848691,18.3054477 L194.848691,20.1992243 C194.848691,26.387795 189.745582,31.4503832 183.508772,31.4503832" id="Fill-170" fill="#BC7E6F"></path>
                            <path d="M158.149685,21.8767591 L158.149685,17.5831204 C158.149685,7.14366262 166.654479,0.136458214 177.049356,0.136458214 C187.444815,0.136458214 195.949609,7.14366262 195.949609,17.5831204 L195.949609,21.8010773 L193.962285,22.0674077 L194.080488,16.5657499 L191.514376,11.3650859 L186.963852,9.50481725 L182.741733,5.94719793 L176.917178,4.73744559 L162.939527,8.20436238 L159.881388,16.4392285 L160.231339,21.9703502 L158.149685,21.8767591 Z" id="Fill-172" fill="#773A32"></path>
                            <path d="M162.636217,28.5234065 L159.196684,28.5234065 C157.305436,28.5234065 155.757733,26.9878182 155.757733,25.1107956 C155.757733,23.2343508 157.305436,21.6987626 159.196684,21.6987626 L162.636217,21.6987626 C164.527465,21.6987626 166.07575,23.2343508 166.07575,25.1107956 C166.07575,26.9878182 164.527465,28.5234065 162.636217,28.5234065" id="Fill-174" fill="#BC7E6F"></path>
                            <path d="M160.056596,23.6178434 L159.841152,23.6178434 C158.777325,23.6178434 157.907398,24.1672582 157.907398,24.8397279 L157.907398,25.38221 C157.907398,26.0546798 158.777325,26.6040945 159.841152,26.6040945 L160.056596,26.6040945 L160.056596,23.6178434 Z" id="Fill-176" fill="#84453D"></path>
                            <path d="M191.871373,28.5234065 L195.310905,28.5234065 C197.202154,28.5234065 198.749856,26.9878182 198.749856,25.1107956 C198.749856,23.2343508 197.202154,21.6987626 195.310905,21.6987626 L191.871373,21.6987626 C189.979542,21.6987626 188.43184,23.2343508 188.43184,25.1107956 C188.43184,26.9878182 189.979542,28.5234065 191.871373,28.5234065" id="Fill-178" fill="#BC7E6F"></path>
                            <path d="M194.450993,23.6178434 L194.665855,23.6178434 C195.729682,23.6178434 196.600192,24.1672582 196.600192,24.8397279 L196.600192,25.38221 C196.600192,26.0546798 195.729682,26.6040945 194.665855,26.6040945 L194.450993,26.6040945 L194.450993,23.6178434 Z" id="Fill-180" fill="#84453D"></path>
                            <path d="M183.95311,31.6162475 L177.50435,31.6162475 L177.146247,31.6162475 L170.696905,31.6162475 C170.696905,31.6162475 169.622015,31.6162475 169.9807,32.80058 C169.9807,32.80058 171.360123,36.7799372 177.146247,36.9405443 L177.146247,36.9480547 C177.207387,36.9480547 177.265033,36.9451661 177.324425,36.9440106 C177.385565,36.9451661 177.443793,36.9480547 177.50435,36.9480547 L177.50435,36.9405443 C183.290475,36.7799372 184.669898,32.80058 184.669898,32.80058 C185.028583,31.6162475 183.95311,31.6162475 183.95311,31.6162475" id="Fill-182" fill="#8B2B23"></path>
                            <path d="M177.325124,34.4591655 C175.904359,34.4591655 174.670506,35.2431358 174.030579,36.3962713 C174.890026,36.6995759 175.918334,36.9064008 177.145782,36.9404865 L177.145782,36.9485746 C177.206921,36.9485746 177.264567,36.9451083 177.325124,36.9439528 C177.385681,36.9451083 177.443327,36.9485746 177.503884,36.9485746 L177.503884,36.9404865 C178.732497,36.9064008 179.760805,36.6995759 180.620834,36.3962713 C179.979742,35.2431358 178.746472,34.4591655 177.325124,34.4591655" id="Fill-184" fill="#DC6666"></path>
                            <path d="M177.146015,28.2977478 C176.235327,28.2977478 175.435856,27.9158728 174.996816,27.3502818 L174.996816,27.4675596 C174.996816,28.3803622 175.963984,29.127936 177.146015,29.127936 C178.329209,29.127936 179.295795,28.3803622 179.295795,27.4675596 L179.295795,27.3502818 C178.856756,27.9158728 178.057284,28.2977478 177.146015,28.2977478" id="Fill-186" fill="#9B5D51"></path>
                            <path d="M169.7316,24.5064394 C170.559021,24.5064394 171.321227,24.6381603 171.920393,24.8553842 L171.920393,24.5451469 C171.920393,23.3509931 170.935174,22.3734855 169.7316,22.3734855 C168.528025,22.3734855 167.542806,23.3509931 167.542806,24.5451469 L167.542806,24.8553842 L167.543389,24.8553842 C168.141973,24.6381603 168.904179,24.5064394 169.7316,24.5064394" id="Fill-188" fill="#2D1F20"></path>
                            <path d="M184.630943,24.5064394 C185.458364,24.5064394 186.22057,24.6381603 186.819155,24.8553842 L186.819155,24.5451469 C186.819155,23.3509931 185.833936,22.3734855 184.630943,22.3734855 C183.427369,22.3734855 182.44215,23.3509931 182.44215,24.5451469 L182.44215,24.8553842 L182.442732,24.8553842 C183.041317,24.6381603 183.803522,24.5064394 184.630943,24.5064394" id="Fill-190" fill="#2D1F20"></path>
                            <path d="M167.223949,28.0613435 C167.223949,29.239321 166.261439,30.1937197 165.074751,30.1937197 C163.886898,30.1937197 162.92497,29.239321 162.92497,28.0613435 C162.92497,26.8833659 163.886898,25.9283895 165.074751,25.9283895 C166.261439,25.9283895 167.223949,26.8833659 167.223949,28.0613435" id="Fill-192" fill="#B26E60"></path>
                            <path d="M191.367525,28.0613435 C191.367525,29.239321 190.405597,30.1937197 189.218326,30.1937197 C188.031056,30.1937197 187.068546,29.239321 187.068546,28.0613435 C187.068546,26.8833659 188.031056,25.9283895 189.218326,25.9283895 C190.405597,25.9283895 191.367525,26.8833659 191.367525,28.0613435" id="Fill-194" fill="#B26E60"></path>
                            <path d="M177.468423,31.6162475 L177.110321,31.6162475 L172.913241,31.6162475 C173.474559,32.7491626 174.647855,33.5354439 175.999911,33.5354439 L178.579415,33.5354439 C179.930889,33.5354439 181.104185,32.7491626 181.665504,31.6162475 L177.468423,31.6162475 Z" id="Fill-196" fill="#FFFFFF"></path>
                            <path d="M194.672143,12.096079 L189.430451,5.16166772 L176.318069,3.26326936 L176.305842,3.4885814 L164.686428,5.17091129 L159.444736,12.1053226 L159.007443,21.6400659 L160.213929,21.6984159 C160.213929,21.6984159 160.318157,19.0397339 160.887628,17.3059866 C160.887628,17.3059866 162.68047,16.1724937 163.371638,13.4970577 C163.371638,13.4970577 163.812424,11.6720302 165.123138,10.8054454 C165.123138,10.8054454 166.433852,9.93828295 167.781833,10.3715753 C167.781833,10.3715753 173.782819,11.735002 177.106478,11.4368969 C180.448187,11.7003386 186.334464,10.3623318 186.334464,10.3623318 C187.683027,9.92903938 188.993741,10.7962019 188.993741,10.7962019 C190.303873,11.6627866 190.744659,13.4878141 190.744659,13.4878141 C191.436409,16.1632502 193.228669,17.296743 193.228669,17.296743 C193.798722,19.0304903 193.902368,21.6891724 193.902368,21.6891724 L195.108854,21.6308223 L194.672143,12.096079 Z" id="Fill-198" fill="#773A32"></path>
                            <path d="M138.698419,52.2766104 C138.415431,52.3245614 138.134771,52.3390045 137.864011,52.3031857 C136.762335,52.1552885 135.016075,51.0402828 133.78921,50.442917 C128.566151,47.8974687 124.185652,55.4910622 129.399977,58.0324664 C131.783834,59.19369 134.057641,60.4149968 136.736715,60.6888376 L138.698419,52.2766104 Z" id="Fill-200" fill="#BC7E6F"></path>
                            <path d="M165.395471,52.8814288 C165.395471,52.8814288 161.246138,64.5109964 149.037456,66.2123911 C143.407965,66.9975169 130.976269,59.7725109 130.976269,59.7725109 C130.976269,59.7725109 132.99853,56.0600617 136.056087,50.7143892 C136.056087,50.7143892 148.13725,55.3032444 153.264232,52.06915 C157.00364,49.7097286 160.63649,46.5143417 162.144015,46.6755264 C165.256888,47.0094504 165.368686,52.0934144 165.368686,52.0934144" id="Fill-202" fill="#E8E8E8"></path>
                            <path d="M215.779823,52.2766104 C216.063394,52.3245614 216.343471,52.3390045 216.614232,52.3031857 C217.715907,52.1552885 219.462167,51.0402828 220.689033,50.442917 C225.912092,47.8974687 230.292591,55.4910622 225.078266,58.0324664 C222.69499,59.19369 220.420601,60.4149968 217.74211,60.6888376 L215.779823,52.2766104 Z" id="Fill-204" fill="#BC7E6F"></path>
                            <path d="M189.082771,52.8814288 C189.082771,52.8814288 193.232687,64.5109964 205.441369,66.2123911 C211.070278,66.9975169 223.501973,59.7725109 223.501973,59.7725109 C223.501973,59.7725109 221.480294,56.0600617 218.422155,50.7143892 C218.422155,50.7143892 206.340993,55.3032444 201.21401,52.06915 C197.474603,49.7097286 193.841753,46.5143417 192.33481,46.6755264 C189.221354,47.0094504 189.110139,52.0934144 189.110139,52.0934144" id="Fill-206" fill="#E8E8E8"></path>
                            <path d="M101.140724,74.5815779 L90.8698722,77.5655181 C89.1003208,78.2281666 87.6754796,77.9005976 87.6754796,77.9005976 L84.3704536,82.0474945 L80.4703367,85.6478654 C80.4703367,85.6478654 80.9134524,87.0315124 80.3905642,88.8340087 L78.2169099,99.2318704 C78.2169099,99.2318704 77.9729342,102.594219 81.0869721,105.445861 L83.8236919,107.950869 L110.350077,79.4269422 L107.613357,76.9213568 C104.499319,74.0702929 101.140724,74.5815779 101.140724,74.5815779" id="Fill-208" fill="#EAA98C"></path>
                            <path d="M80.1595734,85.6237743 C82.4980132,85.3233582 84.4108057,84.4769938 85.7651909,83.0199759 C87.0077782,81.6848577 87.7001101,79.9262683 87.896921,77.8435763 L78.8267326,69.5405388 L71.3607278,77.5691578 L80.1595734,85.6237743 Z" id="Fill-210" fill="#D88B6C"></path>
                            <path d="M82.0005124,70.9883131 L73.0421219,80.621847 C68.590585,85.4082836 61.1979477,85.8918379 56.614233,81.6952567 L55.2109362,80.4109781 C50.6272216,76.2143969 50.5194996,68.8646027 54.9710365,64.0781661 L63.929427,54.4446322 C68.3815462,49.6581957 75.7736013,49.1746414 80.357316,53.3712225 L81.7600305,54.6555011 C86.3443274,58.8520823 86.4526316,66.2012988 82.0005124,70.9883131" id="Fill-212" fill="#723D25"></path>
                            <path d="M84.6941435,82.4886439 L84.6941435,82.4886439 C78.2803203,89.3855032 67.3450863,89.8216842 60.3938179,83.4580634 C53.4425494,77.0938649 53.0023451,66.2448014 59.4161683,59.3473644 C65.8299916,52.4510828 76.7658078,52.0143241 83.7170763,58.3785226 C90.6689271,64.7421434 91.1079668,75.5917847 84.6941435,82.4886439" id="Fill-214" fill="#EAA98C"></path>
                            <path d="M65.4544205,84.4638217 L63.1223858,86.9722957 C61.8396211,88.351321 59.6519921,88.4385572 58.2620878,87.165833 C56.8716011,85.8931088 56.7836767,83.7231806 58.0664414,82.3435776 L60.3990584,79.8356813 C61.681823,78.4566561 63.8688698,78.3688422 65.2593564,79.6415663 C66.6492608,80.9142905 66.7371852,83.0847965 65.4544205,84.4638217" id="Fill-216" fill="#EAA98C"></path>
                            <path d="M60.0714672,83.0183583 L59.925897,83.1749213 C59.2038688,83.9508035 59.0210326,84.957775 59.5188827,85.4135986 L59.9206565,85.7816083 C60.4185066,86.2374319 61.4159536,85.9757233 62.1373996,85.199841 L62.283552,85.0432781 L60.0714672,83.0183583 Z" id="Fill-218" fill="#C17B5F"></path>
                            <path d="M85.2795687,63.1461831 L87.6121857,60.6377091 C88.8949503,59.2586839 88.8064436,57.0887556 87.4165393,55.8160315 C86.0260527,54.5427296 83.8395882,54.6305435 82.5568235,56.0095687 L80.2242066,58.517465 C78.9414419,59.897068 79.0293663,62.0669962 80.4192706,63.3397204 C81.8097572,64.6124445 83.996804,64.5257861 85.2795687,63.1461831" id="Fill-220" fill="#EAA98C"></path>
                            <path d="M83.3954244,57.938182 L83.5409946,57.781619 C84.2624405,57.0063145 85.2598876,56.7440282 85.7577377,57.1992741 L86.1600938,57.5672837 C86.6579439,58.0225296 86.4739431,59.0312342 85.7524972,59.8065387 L85.606927,59.9631017 L83.3954244,57.938182 Z" id="Fill-222" fill="#C17B5F"></path>
                            <path d="M82.2009917,71.0170837 L77.8280627,75.7197503 L77.5852516,75.9808812 L73.2117404,80.6829701 C73.2117404,80.6829701 72.4827248,81.4669405 73.6030331,82.0082671 C73.6030331,82.0082671 77.4868462,83.7021515 81.5290397,79.5910733 L81.5342802,79.5968506 C81.5762044,79.5517882 81.6128881,79.5073035 81.6530655,79.4633965 C81.6944074,79.4194896 81.7363316,79.3796267 81.7776736,79.3345643 L81.7718508,79.3299425 C85.577056,75.0022182 83.5646934,71.2972794 83.5646934,71.2972794 C82.9305896,70.2331133 82.2009917,71.0170837 82.2009917,71.0170837" id="Fill-224" fill="#8B2B23"></path>
                            <path d="M79.8124176,77.7782358 C78.8487428,78.8146712 78.5931215,80.2456915 79.012946,81.4935735 C79.8205695,81.0724133 80.6712818,80.4629154 81.5289814,79.5911311 L81.5348042,79.5963306 C81.5761462,79.5518459 81.6128299,79.5073613 81.6530072,79.4628766 C81.6943492,79.4201251 81.7356911,79.3796844 81.7776153,79.3351997 L81.7717925,79.330578 C82.579416,78.4114204 83.1232663,77.5217267 83.481369,76.6880722 C82.1933639,76.3737907 80.7766746,76.7418004 79.8124176,77.7782358" id="Fill-226" fill="#DC6666"></path>
                            <path d="M75.1269202,73.730245 C74.5091203,74.394049 73.6840283,74.7181517 72.9678229,74.6557576 L73.0540005,74.7343279 C73.7306108,75.3536472 74.9400081,75.1554881 75.7418088,74.2929474 C76.5436095,73.4304067 76.6460909,72.2189212 75.9694806,71.599602 L75.8827207,71.5204539 C76.0032529,72.2241207 75.7447202,73.0658634 75.1269202,73.730245" id="Fill-228" fill="#D88B6C"></path>
                            <path d="M67.2905849,76.5658259 C67.8519036,75.9621052 68.4662099,75.4953049 69.0333514,75.2064433 L68.8039327,74.9961521 C67.9188659,74.1867619 66.5266324,74.2416456 65.710857,75.1192071 C64.8944993,75.9973463 64.9503982,77.3781047 65.8354651,78.1886503 L66.0648837,78.3983638 L66.065466,78.3983638 C66.310024,77.8142857 66.7292661,77.1695466 67.2905849,76.5658259" id="Fill-230" fill="#754448"></path>
                            <path d="M77.3940306,65.7013372 C77.9553493,65.0981942 78.5696556,64.6308161 79.1367971,64.3419545 L78.9073785,64.132241 C78.0223116,63.3222731 76.6300782,63.3777346 75.8143027,64.2547183 C74.997945,65.1328576 75.0544263,66.513616 75.9389108,67.3241616 L76.1689118,67.5338751 L76.1689118,67.5338751 C76.4134697,66.949797 76.8332942,66.3050579 77.3940306,65.7013372" id="Fill-232" fill="#754448"></path>
                            <path d="M68.2231076,80.8051008 C69.0959466,81.604092 69.1500987,82.9530756 68.3453866,83.8185049 C67.5400922,84.684512 66.1804665,84.7393957 65.3076275,83.9404045 C64.4353708,83.1414134 64.3800542,81.7924297 65.1859308,80.9264227 C65.9906429,80.0604157 67.3508509,80.0061097 68.2231076,80.8051008" id="Fill-234" fill="#E2987A"></path>
                            <path d="M84.5957963,63.1997958 C85.4686353,63.998787 85.5227874,65.3477706 84.7180753,66.2131999 C83.9127809,67.079207 82.5531552,67.1335129 81.6803162,66.3345218 C80.8080595,65.5361084 80.7527429,64.186547 81.5586195,63.32054 C82.3633316,62.4551107 83.7229574,62.4008047 84.5957963,63.1997958" id="Fill-236" fill="#E2987A"></path>
                            <path d="M77.8034323,75.7455168 L77.5606212,76.0066477 L74.7144325,79.0668473 C75.9343108,79.4261911 77.3125695,79.1038216 78.2290795,78.1176482 L79.9788334,76.2371592 C80.8953434,75.2515635 81.1084582,73.8621392 80.6502032,72.6847394 L77.8034323,75.7455168 Z" id="Fill-238" fill="#FFFFFF"></path>
                            <path d="M57.9743828,52.0746384 C57.9743828,52.0746384 55.1107257,52.0601953 53.7155808,46.9207699 C53.1362114,44.7883937 53.9653793,41.3792492 56.2991609,39.5212915 C56.2991609,39.5212915 58.526385,37.5113925 62.2162986,37.2583498 C64.4050922,37.1087195 67.70546,37.802565 70.444509,38.9314361 C70.444509,38.9314361 78.6383647,42.7386319 81.1584761,42.1499319 C81.1584761,42.1499319 81.9952137,41.8246738 82.0988597,42.4359049 C82.1343788,42.6467739 82.0214163,44.0269545 80.8650066,45.4140679 C80.0439906,46.3985082 77.9885393,47.8849899 76.3843557,48.7018905 C72.6560115,50.6002888 65.4339825,50.17624 61.8762466,50.5118972 L57.9743828,52.0746384 Z" id="Fill-240" fill="#723D25"></path>
                            <path d="M77.2419389,50.7155446 C69.8737573,45.645446 59.5458423,46.7356096 53.132019,53.6330467 C46.718778,60.5287505 46.4520934,70.8307102 52.1374833,77.7108155 L77.2419389,50.7155446 Z" id="Fill-242" fill="#723D25"></path>
                            <path d="M68.1608618,59.3622119 C68.1608618,59.3622119 72.3835623,64.4074684 69.1501569,68.523746 L58.6603678,81.6912126 L57.8102378,82.6577435 C57.8102378,82.6577435 54.6496175,81.1036682 51.9682143,77.5061859 L68.1608618,59.3622119 Z" id="Fill-244" fill="#723D25"></path>
                            <path d="M67.5683328,59.9991517 C67.5683328,59.9991517 73.5105086,63.5654368 78.1146031,60.5318124 L82.8171031,55.7950601 C82.8171031,55.7950601 79.8864837,52.1294065 75.8268218,49.8375787 L67.5683328,59.9991517 Z" id="Fill-246" fill="#723D25"></path>
                            <path d="M77.9820178,98.9734548 C77.9820178,98.9734548 76.5140878,106.623087 76.0255542,107.907944 C76.0255542,107.907944 74.671169,110.722033 72.2273364,113.350096 C72.2273364,113.350096 68.7208413,116.921003 66.9151884,118.143465 C66.6886812,118.267098 64.6949516,119.133105 63.437225,119.566975 C63.437225,119.566975 59.8777424,120.398319 59.5959184,123.457941 C59.5959184,123.457941 59.0008274,126.893661 62.6523105,128.319481 C62.6523105,128.319481 65.8915387,129.110384 71.1745727,125.507125 C71.1745727,125.507125 75.4496785,122.307694 79.7311894,117.344474 C79.7311894,117.344474 83.5882176,113.356451 85.7135426,107.636414 C85.7135426,107.636414 87.2233968,105.333609 88.7710992,103.948807 L79.1861745,94.3638016 L77.9820178,98.9734548 Z" id="Fill-248" fill="#EAA98C"></path>
                            <path d="M100.880328,74.3508353 C100.880328,74.3508353 108.447649,72.2854749 109.698971,71.6990859 C109.698971,71.6990859 112.41764,70.1334561 114.861473,67.5053933 C114.861473,67.5053933 118.167663,63.7507704 119.250123,61.8679706 C119.356681,61.6328373 120.066481,59.592319 120.40071,58.3132399 C120.40071,58.3132399 120.950965,54.7261567 124.001535,54.2021618 C124.001535,54.2021618 127.405548,53.3378879 129.132011,56.8348463 C129.132011,56.8348463 130.186522,59.974194 126.9898,65.4885617 C126.9898,65.4885617 124.119155,69.9734268 119.47663,74.6056112 C119.47663,74.6056112 115.780312,78.7409537 110.203808,81.3014228 C110.203808,81.3014228 108.011521,82.9802864 106.74506,84.6215979 L96.3455246,75.9118433 L100.880328,74.3508353 Z" id="Fill-250" fill="#EAA98C"></path>
                            <path d="M97.9734654,74.8772566 L94.5915783,75.8576529 C95.459759,79.8063908 94.2002856,84.4345311 90.8783735,88.0060158 C87.5570437,91.5769228 83.0094304,93.1939699 78.9724775,92.6532211 L78.2964494,95.8988699 L101.83224,117.445056 L121.440547,96.3610484 L97.9734654,74.8772566 Z" id="Fill-252" fill="#FFDE56"></path>
                            <polygon id="Fill-254" fill="#FFDE56" points="124.439643 93.2227406 98.9893125 120.58891 91.1180403 107.53641 110.694904 86.4859106"></polygon>
                            <g id="Group-258" transform="translate(71.620542, 73.948567)">
                                <mask id="mask-2" fill="white">
                                    <use xlink:href="#path-1"></use>
                                </mask>
                                <g id="Clip-257"></g>
                                <path d="M228.429699,113.734166 C228.429699,176.313719 177.297873,227.045324 114.224632,227.045324 C51.1508085,227.045324 0.0195646357,176.313719 0.0195646357,113.734166 C0.0195646357,51.1540365 51.1508085,0.42300891 114.224632,0.42300891 C177.297873,0.42300891 228.429699,51.1540365 228.429699,113.734166" id="Fill-256" fill="#2666C4" mask="url(#mask-2)"></path>
                            </g>
                            <path d="M133.349005,106.897968 C130.769501,108.817164 103.687038,131.849254 103.687038,131.849254 L98.5280296,154.881344 L111.424968,167.676757 L135.928509,177.913434 L148.179698,190.069308 L169.459151,188.150111 L164.300725,212.461858 L151.403787,228.456124 L170.104318,250.208557 L164.94531,271.320873 L172.68324,275.159843 L210.083137,237.412566 L225.558997,208.622887 L214.596978,198.38621 L202.345207,201.585064 L192.027773,190.069308 L175.262744,184.311141 L157.20738,183.671601 L148.824865,163.198247 L156.562795,157.44008 L180.421169,153.601687 L195.897029,126.091665 L213.307226,122.252695 L233.518776,114.913877 L228.783086,108.817164 L187.514515,99.2206048 L133.349005,106.897968 Z" id="Fill-259" fill="#6ABC0C"></path>
                            <polygon id="Fill-261" fill="#6ABC0C" points="258.428516 148.401543 253.860523 163.005808 256.905852 174.085383 266.549587 185.164958 284.314975 181.135916 289.390717 201.783165 281.777395 225.956836 269.087749 250.633126 275.178989 260.201955 282.792311 252.647647 289.898466 239.050354 299.034452 216.388585 303.603027 173.078411 291.42113 141.854784 281.777395 142.357981 271.625329 137.321968"></polygon>
                            <path d="M264.993966,101.264647 L251.135682,108.181727 L253.427539,118.354854 L250.553984,122.898069 L252.883107,133.612523 C252.883107,133.612523 260.012553,136.935587 263.071857,135.09785 C266.130578,133.260112 270.134923,129.727913 270.134923,129.727913 L282.548568,132.692788 L288.019096,135.041233 L284.067739,123.892331 L264.993966,101.264647 Z" id="Fill-263" fill="#6ABC0C"></path>
                            <polygon id="Fill-265" fill="#98D84C" points="127.805692 139.848525 124.925731 138.109001 125.176112 143.824416 143.208766 144.321258 144.711051 137.86058 140.703794 140.345367 140.703794 134.381531 136.69712 139.351683 135.194253 134.381531 131.687758 140.345367 129.058178 136.617897"></polygon>
                            <polygon id="Fill-267" fill="#98D84C" points="282.435082 171.561772 280.455327 170.366463 280.6271 174.294981 293.024441 174.636993 294.057407 170.195457 291.302636 171.903784 291.302636 167.803683 288.547283 171.220338 287.514317 167.803683 285.103675 171.903784 283.296275 169.341004"></polygon>
                            <polygon id="Fill-269" fill="#98D84C" points="178.897399 212.034574 190.418407 211.910363 191.29474 207.810262 187.412674 209.052944 185.283855 206.443369 184.532713 209.673997 180.775837 206.692368 181.026217 209.549786 177.645495 208.803946"></polygon>
                            <polygon id="Fill-271" fill="#98D84C" points="177.645262 109.40858 177.269691 114.005523 190.668555 114.626575 189.290879 109.160159 187.03687 112.265999 186.285727 109.035371 182.528851 112.265999 181.527328 108.787527 179.774081 111.769157"></polygon>
                        </g>
                    </g>
                    <g id="Group-4" fill="#FF9292">
                        <path d="M40.088309,113.95612 C39.8583046,110.433161 36.9510495,107.647445 33.3984254,107.647445 C29.6956068,107.647445 26.6938792,110.673684 26.6938792,114.40674 C26.6938792,116.562095 27.6945236,118.481828 29.2530091,119.71952 L40.1029717,133.783387 L50.9529343,119.71952 C52.5114198,118.481828 53.5120641,116.562095 53.5120641,114.40674 C53.5120641,110.673684 50.5103365,107.647445 46.8075179,107.647445 C43.2548939,107.647445 40.3476387,110.433161 40.1176343,113.95612 L40.088309,113.95612 Z" id="Combined-Shape"></path>
                        <path d="M13.3944298,88.3257765 C13.1644254,84.8028174 10.2571703,82.0171007 6.70454623,82.0171007 C3.00172759,82.0171007 0,85.0433404 0,88.7763962 C0,90.9317507 1.00064434,92.8514838 2.55912986,94.0891762 L13.4090925,108.153043 L24.2590551,94.0891762 C25.8175406,92.8514838 26.8181849,90.9317507 26.8181849,88.7763962 C26.8181849,85.0433404 23.8164573,82.0171007 20.1136387,82.0171007 C16.5610146,82.0171007 13.6537595,84.8028174 13.4237551,88.3257765 L13.3944298,88.3257765 Z" id="Combined-Shape-Copy"></path>
                        <path d="M35.0037606,62.6954325 C34.7737562,59.1724734 31.8665011,56.3867568 28.313877,56.3867568 C24.6110584,56.3867568 21.6093308,59.4129964 21.6093308,63.1460522 C21.6093308,65.3014068 22.6099751,67.2211398 24.1684607,68.4588322 L35.0184233,82.5226993 L45.8683859,68.4588322 C47.4268714,67.2211398 48.4275157,65.3014068 48.4275157,63.1460522 C48.4275157,59.4129964 45.4257881,56.3867568 41.7229695,56.3867568 C38.1703454,56.3867568 35.2630903,59.1724734 35.0330859,62.6954325 L35.0037606,62.6954325 Z" id="Combined-Shape-Copy-2" opacity="0.326992754"></path>
                        <path d="M61.6976398,19.1238478 C61.4676354,15.6008886 58.5603803,12.815172 55.0077562,12.815172 C51.3049376,12.815172 48.30321,15.8414117 48.30321,19.5744675 C48.30321,21.729822 49.3038544,23.649555 50.8623399,24.8872475 L61.7123025,38.9511145 L72.5622651,24.8872475 C74.1207506,23.649555 75.1213949,21.729822 75.1213949,19.5744675 C75.1213949,15.8414117 72.1196673,12.815172 68.4168487,12.815172 C64.8642247,12.815172 61.9569695,15.6008886 61.7269651,19.1238478 L61.6976398,19.1238478 Z" id="Combined-Shape-Copy-3" opacity="0.326992754"></path>
                        <path d="M47.7151317,6.30867579 C47.4851273,2.78571664 44.5778721,0 41.0252481,0 C37.3224294,0 34.3207018,3.02623967 34.3207018,6.75929549 C34.3207018,8.91465002 35.3213462,10.834383 36.8798317,12.0720755 L47.7297943,26.1359426 L58.5797569,12.0720755 C60.1382424,10.834383 61.1388868,8.91465002 61.1388868,6.75929549 C61.1388868,3.02623967 58.1371592,0 54.4343405,0 C50.8817165,0 47.9744614,2.78571664 47.744457,6.30867579 L47.7151317,6.30867579 Z" id="Combined-Shape-Copy-4" opacity="0.118149909"></path>
                        <path d="M404.73466,118.253424 C404.504656,114.730465 401.597401,111.944748 398.044777,111.944748 C394.341958,111.944748 391.34023,114.970988 391.34023,118.704043 C391.34023,120.859398 392.340875,122.779131 393.89936,124.016823 L404.749323,138.08069 L415.599285,124.016823 C417.157771,122.779131 418.158415,120.859398 418.158415,118.704043 C418.158415,114.970988 415.156688,111.944748 411.453869,111.944748 C407.901245,111.944748 404.99399,114.730465 404.763986,118.253424 L404.73466,118.253424 Z" id="Combined-Shape"></path>
                        <path d="M418.139379,82.0486444 C417.909374,78.5256852 415.002119,75.7399686 411.449495,75.7399686 C407.746677,75.7399686 404.744949,78.7662083 404.744949,82.4992641 C404.744949,84.6546186 405.745593,86.5743516 407.304079,87.8120441 L418.154041,101.875911 L429.004004,87.8120441 C430.56249,86.5743516 431.563134,84.6546186 431.563134,82.4992641 C431.563134,78.7662083 428.561406,75.7399686 424.858588,75.7399686 C421.305964,75.7399686 418.398709,78.5256852 418.168704,82.0486444 L418.139379,82.0486444 Z" id="Combined-Shape-Copy-5" opacity="0.326992754"></path>
                    </g>
                </g>
            </g>
        </g>
    </g>
</svg>