<?xml version="1.0" encoding="UTF-8"?>
<svg width="461px" height="333px" viewBox="0 0 461 333" version="1.1" xmlns="http://www.w3.org/2000/svg" xmlns:xlink="http://www.w3.org/1999/xlink">
    <!-- Generator: Sketch 47.1 (45422) - http://www.bohemiancoding.com/sketch -->
    <title>morethan_4</title>
    <desc>Created with Sketch.</desc>
    <defs></defs>
    <g id="Page-1" stroke="none" stroke-width="1" fill="none" fill-rule="evenodd">
        <g id="graphics" transform="translate(-3084.000000, -2032.000000)">
            <g id="more-than-an-investment" transform="translate(249.000000, 1975.000000)">
                <g id="morethan_5" transform="translate(2840.600000, 60.000000)">
                    <g id="Group-2" transform="translate(0.976076, 0.000000)">
                        <g id="Group-5" transform="translate(164.184431, 0.000000)">
                            <rect id="Rectangle-39" fill="#E7E7E7" x="11.9570587" y="0" width="45.0294229" height="24.5482205"></rect>
                            <rect id="Rectangle-4" fill="#DDDDDD" x="0.311518262" y="12.2741103" width="22.5147115" height="12.2741103"></rect>
                            <path d="M0.31880682,13.620505 C0.313961292,13.4646224 0.311518262,13.3080496 0.311518262,13.1508324 C0.311518262,5.88782823 5.5254043,0 11.9570587,0 C18.388713,0 23.6025991,5.88782823 23.6025991,13.1508324 C23.6025991,13.3080496 23.6001561,13.4646224 23.5953105,13.620505 L0.31880682,13.620505 Z" id="Combined-Shape" fill="#DDDDDD"></path>
                            <path d="M17.0950537,24.5915155 L19.8864941,28.0551092 L22.6779344,24.5915155 L25.4693748,28.0551092 L28.2608152,24.5915155 L31.0522556,28.0551092 L33.843696,24.5915155 L36.6351364,28.0551092 L39.4265768,24.5915155 L42.2180172,28.0551092 L45.0094576,24.5915155 L47.800898,28.0551092 L50.5923384,24.5915155 L53.3837788,28.0551092 L56.2101122,24.5482205 L50.5923384,24.5482205 L45.0094576,24.5482205 L39.4265768,24.5482205 L33.843696,24.5482205 L28.2608152,24.5482205 L22.6779344,24.5482205 L17.0950537,24.5482205 L11.5121729,24.5482205 L5.92929206,24.5482205 L0.311518262,24.5482205 L3.13785166,28.0551092 L5.92929206,24.5915155 L8.72073246,28.0551092 L11.5121729,24.5915155 L14.3036133,28.0551092 L17.0950537,24.5915155 Z" id="Combined-Shape" fill="#DDDDDD"></path>
                            <path d="M97.442111,15.0121576 L97.442111,101.699771 L23.5912479,101.699771 L23.5912479,0 L85.1336338,0 L85.1336338,0.02893262 C85.3909994,0.00974550075 85.6506497,0 85.9123156,0 C92.34397,0 97.5578561,5.88782823 97.5578561,13.1508324 C97.5578561,13.7826718 97.5183974,14.4041039 97.442111,15.0121576 Z" id="Combined-Shape" fill="#F0EEEF"></path>
                            <path d="M42.6549927,35.0358486 L81.317188,35.0358486 L81.317188,36.5712972 L42.6549927,36.5712972 L42.6549927,35.0358486 Z M42.6549927,46.0910781 L81.317188,46.0910781 L81.317188,47.6265267 L42.6549927,47.6265267 L42.6549927,46.0910781 Z M42.6549927,57.1463076 L81.317188,57.1463076 L81.317188,58.6817562 L42.6549927,58.6817562 L42.6549927,57.1463076 Z M42.6549927,68.2015372 L61.9860904,68.2015372 L61.9860904,69.7369857 L42.6549927,69.7369857 L42.6549927,68.2015372 Z" id="Combined-Shape" stroke="#000000" fill="#000000" opacity="0.0854846014" stroke-linecap="round" stroke-linejoin="round" transform="translate(61.986090, 52.386417) scale(-1, 1) translate(-61.986090, -52.386417) "></path>
                            <path d="M28.1776328,18.4111654 L36.8008782,18.4111654 L36.8008782,0 L11.1806893,0 L11.1806893,0.0287604802 C11.4372977,0.00968721343 11.6961764,0 11.9570587,0 C18.388713,0 23.6025991,5.88782823 23.6025991,13.1508324 C23.6025991,13.3080497 23.600156,13.4646225 23.5953105,13.6205053 L28.1776328,13.620505 L28.1776328,18.4111654 Z" id="Combined-Shape" fill="#F0EEEF"></path>
                        </g>
                        <g id="Group-10" transform="translate(136.671364, 53.755593)">
                            <g id="hand">
                                <rect id="Rectangle-38" fill="#FDE7D7" x="36.9596082" y="235.362327" width="101.36393" height="34.7181976" rx="2"></rect>
                                <path d="M171.164775,22.7571716 C176.763831,28.376763 176.763831,37.4879209 171.164775,43.1075123 L142.270153,72.1081112 C136.671097,77.7277026 127.593234,77.7277026 121.994179,72.1081112 C116.395123,66.4885198 116.395123,57.3773619 121.994179,51.7577705 L150.888801,22.7571716 C156.487856,17.1375802 165.56572,17.1375802 171.164775,22.7571716 Z" id="Rectangle-Copy-3" fill="#FDE7D7"></path>
                                <path d="M47.8651004,93.9312075 C81.7316043,51.7449517 108.966307,61.2903395 135.096136,89.2075138 C161.225965,117.124688 163.762282,180.03925 153.478504,219.60579 C143.194727,259.17233 124.231749,265.518524 78.9874712,265.518524 C49.5079619,265.518524 28.5711376,253.355176 16.1769983,229.028481 L16.1769954,229.028482 C15.6171059,227.929555 15.3188811,226.716056 15.30562,225.482791 C14.6619508,165.622293 25.515111,121.771766 47.8651004,93.9312075 Z" id="Rectangle-37" fill="#FCE7D7"></path>
                                <rect id="Rectangle-12" fill="#424559" x="27.5130666" y="0" width="120.118012" height="215.611714" rx="8"></rect>
                                <rect id="Rectangle-32" fill="#14AB66" x="35.3325698" y="28.5441787" width="105.776452" height="162.59244" rx="2"></rect>
                                <path d="M1.05114735,64.7575671 C-0.387473978,77.0400506 -0.349400823,108.761251 1.16536682,159.921167 C2.16586158,203.067498 13.1248111,232.949802 34.0422155,249.568079 C41.0699622,255.151422 58.4069876,264.772495 63.6522885,253.576074 C68.8975894,242.379653 56.5063181,216.233236 54.2805869,208.314791 C51.4971674,198.412267 44.7510435,177.731195 34.0422155,146.271574 L30.7971589,96.2992775 C28.3047271,71.5071394 18.3893899,60.9932359 1.05114735,64.7575671 Z" id="Path-6" fill="#FEE7D7"></path>
                                <path d="M167.175992,81.4913757 C172.775048,87.1109672 172.775048,96.222125 167.175992,101.841716 L154.624199,114.439546 C149.025143,120.059138 139.94728,120.059138 134.348224,114.439546 C128.749168,108.819955 128.749168,99.7087971 134.348224,94.0892057 L146.900018,81.4913757 C152.499074,75.8717843 161.576937,75.8717843 167.175992,81.4913757 Z" id="Rectangle" fill="#FDE7D7"></path>
                                <path d="M171.272358,115.752957 C176.871414,121.372548 176.871414,130.483706 171.272358,136.103297 L158.720564,148.701127 C153.121508,154.320719 144.043645,154.320719 138.444589,148.701127 C132.845534,143.081536 132.845534,133.970378 138.444589,128.350786 L150.996383,115.752957 C156.595439,110.133365 165.673302,110.133365 171.272358,115.752957 Z" id="Rectangle-Copy" fill="#FDE7D7"></path>
                                <path d="M171.272358,152.755464 C176.871414,158.375055 176.871414,167.486213 171.272358,173.105805 L158.720564,185.703634 C153.121508,191.323226 144.043645,191.323226 138.444589,185.703634 C132.845534,180.084043 132.845534,170.972885 138.444589,165.353294 L150.996383,152.755464 C156.595439,147.135872 165.673302,147.135872 171.272358,152.755464 Z" id="Rectangle-Copy-2" fill="#FDE7D7"></path>
                            </g>
                        </g>
                        <g id="Group-12" transform="translate(177.216936, 103.468513)">
                            <rect id="Rectangle-8" fill="#FFD33E" x="12.8307269" y="73.2418168" width="68.6758428" height="34.8684929" rx="17.4342464"></rect>
                            <path d="M36.2141683,91.7718468 L36.2141683,95.7796593 L33.8704183,95.7796593 L33.8704183,84.4046593 L38.3079183,84.4046593 C39.1620892,84.4046593 39.9133838,84.5609077 40.5618245,84.8734093 C41.2102653,85.1859108 41.7089582,85.6299168 42.0579183,86.2054405 C42.4068783,86.7809642 42.5813558,87.4359056 42.5813558,88.1702843 C42.5813558,89.2848732 42.1998492,90.1637706 41.4368245,90.807003 C40.6737999,91.4502354 39.6178208,91.7718468 38.2688558,91.7718468 L36.2141683,91.7718468 Z M36.2141683,89.8734093 L38.3079183,89.8734093 C38.927713,89.8734093 39.4003645,89.7275774 39.725887,89.4359093 C40.0514095,89.1442411 40.2141683,88.7275786 40.2141683,88.1859093 C40.2141683,87.6286148 40.0501074,87.1780985 39.7219808,86.8343468 C39.3938541,86.490595 38.9407336,86.3135135 38.3626058,86.3030968 L36.2141683,86.3030968 L36.2141683,89.8734093 Z M49.2219808,93.4359093 L45.1126058,93.4359093 L44.3313558,95.7796593 L41.8391683,95.7796593 L46.0735433,84.4046593 L48.2454183,84.4046593 L52.5032308,95.7796593 L50.0110433,95.7796593 L49.2219808,93.4359093 Z M45.7454183,91.5374718 L48.5891683,91.5374718 L47.1594808,87.2796593 L45.7454183,91.5374718 Z M56.3157308,89.5296593 L58.6829183,84.4046593 L61.2454183,84.4046593 L57.5110433,91.6546593 L57.5110433,95.7796593 L55.1282308,95.7796593 L55.1282308,91.6546593 L51.3938558,84.4046593 L53.9641683,84.4046593 L56.3157308,89.5296593 Z" id="Pay" fill="#A68100"></path>
                            <path d="M34.0580884,36.9291291 L34.0580884,13.9217577 L23.8738311,13.9217577 L23.8738311,36.9291291 L23.7894744,36.9291291 L23.7894744,47.1133864 L23.8738311,47.1133864 L23.8738311,47.1302578 L34.0580884,47.1302578 L34.0580884,47.1133864 L74.8794745,47.1133864 L74.8794745,36.9291291 L34.0580884,36.9291291 Z" id="Combined-Shape" fill="#00673C" opacity="0.587013134" transform="translate(49.334474, 30.526008) rotate(-45.000000) translate(-49.334474, -30.526008) "></path>
                        </g>
                        <g id="Group-11" transform="translate(342.421259, 64.085114) scale(-1, 1) rotate(-161.000000) translate(-342.421259, -64.085114) translate(324.421259, 33.585114)" stroke="#D8D8D8" stroke-width="4" stroke-linecap="round" opacity="0.57569067" stroke-linejoin="round">
                            <path d="M21.6818999,60.6896739 C30.3827592,53.6684904 35.9896833,42.6388005 35.9896833,30.2358388 C35.9896833,17.960493 30.4975467,7.03030488 21.949488,-2.84217094e-13" id="Oval-11"></path>
                            <path d="M10.4889975,50.1673877 C16.2895704,45.4865987 20.0275198,38.1334721 20.0275198,29.8648309 C20.0275198,21.6812671 16.3660953,14.394475 10.6673896,9.70760508" id="Oval-11"></path>
                            <path d="M0,39.6451014 C2.90028643,37.3047069 4.76926111,33.6281437 4.76926111,29.4938231 C4.76926111,25.4020412 2.9385489,21.7586451 0.0891960309,19.4152102" id="Oval-11"></path>
                        </g>
                        <g id="Group-7" transform="translate(342.295336, 197.588126)">
                            <rect id="Rectangle-40-Copy" fill="#FF830F" x="0" y="0" width="94.8937789" height="62.2910154" rx="6"></rect>
                            <rect id="Rectangle-7" fill="#424559" x="0" y="11.3695051" width="94.8937789" height="12.6889105"></rect>
                            <rect id="Rectangle-41" fill="#FFFFFF" x="8.61611686" y="30.9117844" width="35.6953413" height="7.41882827" rx="1"></rect>
                            <g id="Group-13" transform="translate(62.774566, 40.803555)" fill="#D0021B" opacity="0.34154212">
                                <ellipse id="Oval-4" style="mix-blend-mode: multiply;" cx="17.770741" cy="8.03706396" rx="8.07760956" ry="8.03706396"></ellipse>
                                <ellipse id="Oval-4" style="mix-blend-mode: multiply;" cx="8.07760956" cy="8.03706396" rx="8.07760956" ry="8.03706396"></ellipse>
                            </g>
                        </g>
                        <g id="Group-8" transform="translate(0.000000, 113.970952)">
                            <rect id="Rectangle-40" fill="#FD953A" x="0" y="0" width="94.8937789" height="62.2910154" rx="6"></rect>
                            <g id="Group-13" transform="translate(8.616117, 8.655300)" fill="#D0021B" opacity="0.34154212">
                                <ellipse id="Oval-4" style="mix-blend-mode: multiply;" cx="17.770741" cy="8.03706396" rx="8.07760956" ry="8.03706396"></ellipse>
                                <ellipse id="Oval-4" style="mix-blend-mode: multiply;" cx="8.07760956" cy="8.03706396" rx="8.07760956" ry="8.03706396"></ellipse>
                            </g>
                            <path d="M12.3444938,46.9859124 L24.1626084,46.9859124 L24.1626084,46.9859124 C24.8621484,46.9859124 25.4292377,47.5530016 25.4292377,48.2525416 L25.4292377,48.2525416 C25.4292377,48.9520816 24.8621484,49.5191708 24.1626084,49.5191708 L12.3444938,49.5191708 C11.6449538,49.5191708 11.0778645,48.9520816 11.0778645,48.2525416 L11.0778645,48.2525416 L11.0778645,48.2525416 C11.0778645,47.5530016 11.6449538,46.9859124 12.3444938,46.9859124 L12.3444938,46.9859124 Z M31.4796579,46.9859124 L43.2977726,46.9859124 L43.2977726,46.9859124 C43.9973126,46.9859124 44.5644018,47.5530016 44.5644018,48.2525416 L44.5644018,48.2525416 C44.5644018,48.9520816 43.9973126,49.5191708 43.2977726,49.5191708 L31.4796579,49.5191708 C30.7801179,49.5191708 30.2130287,48.9520816 30.2130287,48.2525416 L30.2130287,48.2525416 L30.2130287,48.2525416 C30.2130287,47.5530016 30.7801179,46.9859124 31.4796579,46.9859124 Z M50.6148221,46.9859124 L62.4329368,46.9859124 L62.4329368,46.9859124 C63.1324768,46.9859124 63.699566,47.5530016 63.699566,48.2525416 L63.699566,48.2525416 C63.699566,48.9520816 63.1324768,49.5191708 62.4329368,49.5191708 L50.6148221,49.5191708 L50.6148221,49.5191708 C49.9152821,49.5191708 49.3481929,48.9520816 49.3481929,48.2525416 C49.3481929,47.5530016 49.9152821,46.9859124 50.6148221,46.9859124 L50.6148221,46.9859124 Z M69.7499862,46.9859124 L81.5681009,46.9859124 L81.5681009,46.9859124 C82.2676409,46.9859124 82.8347301,47.5530016 82.8347301,48.2525416 L82.8347301,48.2525416 C82.8347301,48.9520816 82.2676409,49.5191708 81.5681009,49.5191708 L69.7499862,49.5191708 L69.7499862,49.5191708 C69.0504462,49.5191708 68.483357,48.9520816 68.483357,48.2525416 C68.483357,47.5530016 69.0504462,46.9859124 69.7499862,46.9859124 L69.7499862,46.9859124 Z" id="Combined-Shape" fill="#424559"></path>
                        </g>
                        <path d="M0.441108172,202.978912 L0.441108172,191.603912 L3.94110817,191.603912 C4.94111317,191.603912 5.83563548,191.82917 6.62470192,192.279694 C7.41376837,192.730217 8.02964763,193.370835 8.47235817,194.201569 C8.91506872,195.032302 9.13642067,195.976303 9.13642067,197.0336 L9.13642067,197.557037 C9.13642067,198.614334 8.91897493,199.554429 8.48407692,200.37735 C8.04917891,201.200271 7.4359038,201.838285 6.64423317,202.291412 C5.85256255,202.74454 4.95934231,202.973704 3.96454567,202.978912 L0.441108172,202.978912 Z M2.78485817,193.50235 L2.78485817,201.0961 L3.91767067,201.0961 C4.83434192,201.0961 5.53485575,200.796624 6.01923317,200.197662 C6.50361059,199.598701 6.75100395,198.741939 6.76142067,197.62735 L6.76142067,197.025787 C6.76142067,195.869532 6.52183973,194.993238 6.04267067,194.396881 C5.56350161,193.800524 4.86298778,193.50235 3.94110817,193.50235 L2.78485817,193.50235 Z M18.6832957,198.049225 L14.1832957,198.049225 L14.1832957,201.0961 L19.4645457,201.0961 L19.4645457,202.978912 L11.8395457,202.978912 L11.8395457,191.603912 L19.4489207,191.603912 L19.4489207,193.50235 L14.1832957,193.50235 L14.1832957,196.213287 L18.6832957,196.213287 L18.6832957,198.049225 Z M21.8395457,202.978912 L21.8395457,191.603912 L25.8239207,191.603912 C27.2041359,191.603912 28.2510004,191.868233 28.9645457,192.396881 C29.6780909,192.92553 30.0348582,193.700261 30.0348582,194.7211 C30.0348582,195.278394 29.8916304,195.769275 29.6051707,196.193756 C29.3187109,196.618237 28.9202774,196.929432 28.4098582,197.12735 C28.9931944,197.273184 29.4528252,197.567452 29.7887644,198.010162 C30.1247036,198.452873 30.2926707,198.994534 30.2926707,199.635162 C30.2926707,200.728918 29.9437158,201.557034 29.2457957,202.119537 C28.5478755,202.68204 27.5530938,202.968496 26.2614207,202.978912 L21.8395457,202.978912 Z M24.1832957,198.025787 L24.1832957,201.0961 L26.1911082,201.0961 C26.7431943,201.0961 27.1741795,200.964591 27.4840769,200.701569 C27.7939743,200.438546 27.9489207,200.075269 27.9489207,199.611725 C27.9489207,198.570053 27.4098636,198.041412 26.3317332,198.025787 L24.1832957,198.025787 Z M24.1832957,196.369537 L25.9176707,196.369537 C27.0999683,196.348704 27.6911082,195.877354 27.6911082,194.955475 C27.6911082,194.439847 27.5413701,194.068757 27.2418894,193.842194 C26.9424088,193.61563 26.4697572,193.50235 25.8239207,193.50235 L24.1832957,193.50235 L24.1832957,196.369537 Z M35.5426707,202.978912 L33.1989207,202.978912 L33.1989207,191.603912 L35.5426707,191.603912 L35.5426707,202.978912 Z M47.0504832,193.50235 L43.5661082,193.50235 L43.5661082,202.978912 L41.2223582,202.978912 L41.2223582,193.50235 L37.7848582,193.50235 L37.7848582,191.603912 L47.0504832,191.603912 L47.0504832,193.50235 Z M62.8317332,199.18985 C62.7431911,200.413814 62.2913727,201.377346 61.4762644,202.080475 C60.6611562,202.783603 59.5869482,203.135162 58.2536082,203.135162 C56.7952675,203.135162 55.6481436,202.644282 54.8122019,201.662506 C53.9762602,200.68073 53.5582957,199.333088 53.5582957,197.619537 L53.5582957,196.924225 C53.5582957,195.830469 53.7510021,194.866937 54.1364207,194.0336 C54.5218393,193.200262 55.072615,192.560946 55.7887644,192.115631 C56.5049138,191.670316 57.3369368,191.447662 58.2848582,191.447662 C59.5973647,191.447662 60.6546458,191.799221 61.4567332,192.50235 C62.2588205,193.205478 62.7223575,194.192448 62.8473582,195.463287 L60.5036082,195.463287 C60.4463162,194.728909 60.2418912,194.196362 59.8903269,193.865631 C59.5387627,193.5349 59.0036118,193.369537 58.2848582,193.369537 C57.5036043,193.369537 56.9189747,193.649482 56.5309519,194.209381 C56.1429291,194.76928 55.9437124,195.637761 55.9332957,196.81485 L55.9332957,197.674225 C55.9332957,198.903398 56.1194917,199.801826 56.4918894,200.369537 C56.8642871,200.937248 57.4515208,201.2211 58.2536082,201.2211 C58.9775701,201.2211 59.5179293,201.055737 59.8747019,200.725006 C60.2314745,200.394275 60.4358996,199.882562 60.4879832,199.18985 L62.8317332,199.18985 Z M71.7926707,200.635162 L67.6832957,200.635162 L66.9020457,202.978912 L64.4098582,202.978912 L68.6442332,191.603912 L70.8161082,191.603912 L75.0739207,202.978912 L72.5817332,202.978912 L71.7926707,200.635162 Z M68.3161082,198.736725 L71.1598582,198.736725 L69.7301707,194.478912 L68.3161082,198.736725 Z M81.3473582,198.81485 L79.4801707,198.81485 L79.4801707,202.978912 L77.1364207,202.978912 L77.1364207,191.603912 L81.3629832,191.603912 C82.7067399,191.603912 83.7431879,191.903388 84.4723582,192.50235 C85.2015285,193.101311 85.5661082,193.947657 85.5661082,195.041412 C85.5661082,195.817458 85.3981411,196.464587 85.0622019,196.982819 C84.7262627,197.50105 84.2171533,197.913807 83.5348582,198.2211 L85.9957957,202.869537 L85.9957957,202.978912 L83.4801707,202.978912 L81.3473582,198.81485 Z M79.4801707,196.916412 L81.3707957,196.916412 C81.9593403,196.916412 82.4150649,196.766674 82.7379832,196.467194 C83.0609015,196.167713 83.2223582,195.754957 83.2223582,195.228912 C83.2223582,194.692451 83.0700159,194.270581 82.7653269,193.963287 C82.4606379,193.655994 81.9931947,193.50235 81.3629832,193.50235 L79.4801707,193.50235 L79.4801707,196.916412 Z M88.3473582,202.978912 L88.3473582,191.603912 L91.8473582,191.603912 C92.8473632,191.603912 93.7418855,191.82917 94.5309519,192.279694 C95.3200184,192.730217 95.9358976,193.370835 96.3786082,194.201569 C96.8213187,195.032302 97.0426707,195.976303 97.0426707,197.0336 L97.0426707,197.557037 C97.0426707,198.614334 96.8252249,199.554429 96.3903269,200.37735 C95.9554289,201.200271 95.3421538,201.838285 94.5504832,202.291412 C93.7588125,202.74454 92.8655923,202.973704 91.8707957,202.978912 L88.3473582,202.978912 Z M90.6911082,193.50235 L90.6911082,201.0961 L91.8239207,201.0961 C92.7405919,201.0961 93.4411058,200.796624 93.9254832,200.197662 C94.4098606,199.598701 94.657254,198.741939 94.6676707,197.62735 L94.6676707,197.025787 C94.6676707,195.869532 94.4280897,194.993238 93.9489207,194.396881 C93.4697516,193.800524 92.7692378,193.50235 91.8473582,193.50235 L90.6911082,193.50235 Z" id="Debit-Card" fill="#424559"></path>
                        <path d="M346.696281,282.599876 C346.607739,283.823841 346.15592,284.787373 345.340812,285.490501 C344.525704,286.19363 343.451496,286.545189 342.118156,286.545189 C340.659815,286.545189 339.512691,286.054308 338.67675,285.072533 C337.840808,284.090757 337.422843,282.743114 337.422843,281.029564 L337.422843,280.334251 C337.422843,279.240496 337.61555,278.276964 338.000968,277.443626 C338.386387,276.610289 338.937163,275.970972 339.653312,275.525658 C340.369461,275.080343 341.201484,274.857689 342.149406,274.857689 C343.461912,274.857689 344.519193,275.209248 345.321281,275.912376 C346.123368,276.615505 346.586905,277.602474 346.711906,278.873314 L344.368156,278.873314 C344.310864,278.138935 344.106439,277.606388 343.754875,277.275658 C343.40331,276.944927 342.868159,276.779564 342.149406,276.779564 C341.368152,276.779564 340.783522,277.059509 340.3955,277.619408 C340.007477,278.179306 339.80826,279.047787 339.797843,280.224876 L339.797843,281.084251 C339.797843,282.313424 339.984039,283.211853 340.356437,283.779564 C340.728835,284.347275 341.316068,284.631126 342.118156,284.631126 C342.842118,284.631126 343.382477,284.465763 343.73925,284.135033 C344.096022,283.804302 344.300447,283.292588 344.352531,282.599876 L346.696281,282.599876 Z M353.446281,282.224876 L351.579093,282.224876 L351.579093,286.388939 L349.235343,286.388939 L349.235343,275.013939 L353.461906,275.013939 C354.805662,275.013939 355.84211,275.313415 356.571281,275.912376 C357.300451,276.511338 357.665031,277.357683 357.665031,278.451439 C357.665031,279.227484 357.497064,279.874613 357.161125,280.392845 C356.825185,280.911077 356.316076,281.323833 355.633781,281.631126 L358.094718,286.279564 L358.094718,286.388939 L355.579093,286.388939 L353.446281,282.224876 Z M351.579093,280.326439 L353.469718,280.326439 C354.058263,280.326439 354.513987,280.176701 354.836906,279.87722 C355.159824,279.577739 355.321281,279.164983 355.321281,278.638939 C355.321281,278.102478 355.168939,277.680607 354.86425,277.373314 C354.55956,277.066021 354.092117,276.912376 353.461906,276.912376 L351.579093,276.912376 L351.579093,280.326439 Z M367.290031,281.459251 L362.790031,281.459251 L362.790031,284.506126 L368.071281,284.506126 L368.071281,286.388939 L360.446281,286.388939 L360.446281,275.013939 L368.055656,275.013939 L368.055656,276.912376 L362.790031,276.912376 L362.790031,279.623314 L367.290031,279.623314 L367.290031,281.459251 Z M370.446281,286.388939 L370.446281,275.013939 L373.946281,275.013939 C374.946286,275.013939 375.840808,275.239197 376.629875,275.68972 C377.418941,276.140243 378.03482,276.780862 378.477531,277.611595 C378.920241,278.442328 379.141593,279.386329 379.141593,280.443626 L379.141593,280.967064 C379.141593,282.024361 378.924148,282.964456 378.48925,283.787376 C378.054351,284.610297 377.441076,285.248312 376.649406,285.701439 C375.857735,286.154566 374.964515,286.383731 373.969718,286.388939 L370.446281,286.388939 Z M372.790031,276.912376 L372.790031,284.506126 L373.922843,284.506126 C374.839515,284.506126 375.540028,284.20665 376.024406,283.607689 C376.508783,283.008728 376.756177,282.151965 376.766593,281.037376 L376.766593,280.435814 C376.766593,279.279558 376.527012,278.403265 376.047843,277.806908 C375.568674,277.210551 374.86816,276.912376 373.946281,276.912376 L372.790031,276.912376 Z M384.336906,286.388939 L381.993156,286.388939 L381.993156,275.013939 L384.336906,275.013939 L384.336906,286.388939 Z M395.844718,276.912376 L392.360343,276.912376 L392.360343,286.388939 L390.016593,286.388939 L390.016593,276.912376 L386.579093,276.912376 L386.579093,275.013939 L395.844718,275.013939 L395.844718,276.912376 Z M411.625968,282.599876 C411.537426,283.823841 411.085608,284.787373 410.2705,285.490501 C409.455391,286.19363 408.381183,286.545189 407.047843,286.545189 C405.589503,286.545189 404.442379,286.054308 403.606437,285.072533 C402.770495,284.090757 402.352531,282.743114 402.352531,281.029564 L402.352531,280.334251 C402.352531,279.240496 402.545237,278.276964 402.930656,277.443626 C403.316074,276.610289 403.86685,275.970972 404.583,275.525658 C405.299149,275.080343 406.131172,274.857689 407.079093,274.857689 C408.3916,274.857689 409.448881,275.209248 410.250968,275.912376 C411.053056,276.615505 411.516593,277.602474 411.641593,278.873314 L409.297843,278.873314 C409.240551,278.138935 409.036126,277.606388 408.684562,277.275658 C408.332998,276.944927 407.797847,276.779564 407.079093,276.779564 C406.297839,276.779564 405.71321,277.059509 405.325187,277.619408 C404.937164,278.179306 404.737947,279.047787 404.727531,280.224876 L404.727531,281.084251 C404.727531,282.313424 404.913727,283.211853 405.286125,283.779564 C405.658522,284.347275 406.245756,284.631126 407.047843,284.631126 C407.771805,284.631126 408.312164,284.465763 408.668937,284.135033 C409.02571,283.804302 409.230135,283.292588 409.282218,282.599876 L411.625968,282.599876 Z M420.586906,284.045189 L416.477531,284.045189 L415.696281,286.388939 L413.204093,286.388939 L417.438468,275.013939 L419.610343,275.013939 L423.868156,286.388939 L421.375968,286.388939 L420.586906,284.045189 Z M417.110343,282.146751 L419.954093,282.146751 L418.524406,277.888939 L417.110343,282.146751 Z M430.141593,282.224876 L428.274406,282.224876 L428.274406,286.388939 L425.930656,286.388939 L425.930656,275.013939 L430.157218,275.013939 C431.500975,275.013939 432.537423,275.313415 433.266593,275.912376 C433.995764,276.511338 434.360343,277.357683 434.360343,278.451439 C434.360343,279.227484 434.192376,279.874613 433.856437,280.392845 C433.520498,280.911077 433.011388,281.323833 432.329093,281.631126 L434.790031,286.279564 L434.790031,286.388939 L432.274406,286.388939 L430.141593,282.224876 Z M428.274406,280.326439 L430.165031,280.326439 C430.753575,280.326439 431.2093,280.176701 431.532218,279.87722 C431.855137,279.577739 432.016593,279.164983 432.016593,278.638939 C432.016593,278.102478 431.864251,277.680607 431.559562,277.373314 C431.254873,277.066021 430.78743,276.912376 430.157218,276.912376 L428.274406,276.912376 L428.274406,280.326439 Z M437.141593,286.388939 L437.141593,275.013939 L440.641593,275.013939 C441.641598,275.013939 442.536121,275.239197 443.325187,275.68972 C444.114253,276.140243 444.730133,276.780862 445.172843,277.611595 C445.615554,278.442328 445.836906,279.386329 445.836906,280.443626 L445.836906,280.967064 C445.836906,282.024361 445.61946,282.964456 445.184562,283.787376 C444.749664,284.610297 444.136389,285.248312 443.344718,285.701439 C442.553048,286.154566 441.659827,286.383731 440.665031,286.388939 L437.141593,286.388939 Z M439.485343,276.912376 L439.485343,284.506126 L440.618156,284.506126 C441.534827,284.506126 442.235341,284.20665 442.719718,283.607689 C443.204096,283.008728 443.451489,282.151965 443.461906,281.037376 L443.461906,280.435814 C443.461906,279.279558 443.222325,278.403265 442.743156,277.806908 C442.263987,277.210551 441.563473,276.912376 440.641593,276.912376 L439.485343,276.912376 Z" id="Credit-Card" fill="#424559"></path>
                    </g>
                </g>
            </g>
        </g>
    </g>
</svg>