<?xml version="1.0" encoding="UTF-8"?>
<svg width="393px" height="353px" viewBox="0 0 393 353" version="1.1" xmlns="http://www.w3.org/2000/svg" xmlns:xlink="http://www.w3.org/1999/xlink">
    <!-- Generator: Sketch 47.1 (45422) - http://www.bohemiancoding.com/sketch -->
    <title>morethan_6</title>
    <desc>Created with Sketch.</desc>
    <defs>
        <polygon id="path-1" points="0 14.7736003 0 0.0388888604 21.0005117 0.0388888604 42.0010234 0.0388888604 42.0010234 14.7736003"></polygon>
        <polygon id="path-3" points="0.0758603274 7.81589705 0.0758603274 18.0555423 42.0770497 18.0555423 42.0770497 0.0388888604 0.0758603274 0.0388888604 0.0758603274 7.81589705 0.0753625552 18.0554729 42.0765519 18.0554729 42.0765519 7.81589705"></polygon>
        <polygon id="path-5" points="0.0758603274 7.81589705 0.0758603274 18.0555423 42.0770497 18.0555423 42.0770497 0.0388888604 0.0758603274 0.0388888604 0.0758603274 7.81589705 0.0753625552 18.0554729 42.0765519 18.0554729 42.0765519 7.81589705"></polygon>
        <polygon id="path-7" points="0 14.7736003 0 0.0388888604 21.0005117 0.0388888604 42.0010234 0.0388888604 42.0010234 14.7736003"></polygon>
        <polygon id="path-9" points="0.0758603274 7.81589705 0.0758603274 18.0555423 42.0770497 18.0555423 42.0770497 0.0388888604 0.0758603274 0.0388888604 0.0758603274 7.81589705 0.0753625552 18.0554729 42.0765519 18.0554729 42.0765519 7.81589705"></polygon>
        <polygon id="path-11" points="0.0758603274 7.81589705 0.0758603274 18.0555423 42.0770497 18.0555423 42.0770497 0.0388888604 0.0758603274 0.0388888604 0.0758603274 7.81589705 0.0753625552 18.0554729 42.0765519 18.0554729 42.0765519 7.81589705"></polygon>
        <polygon id="path-13" points="0 14.7736003 0 0.0388888604 21.0005117 0.0388888604 42.0010234 0.0388888604 42.0010234 14.7736003"></polygon>
        <polygon id="path-15" points="0.0758603274 7.81589705 0.0758603274 18.0555423 42.0770497 18.0555423 42.0770497 0.0388888604 0.0758603274 0.0388888604 0.0758603274 7.81589705 0.0753625552 18.0554729 42.0765519 18.0554729 42.0765519 7.81589705"></polygon>
        <polygon id="path-17" points="0.0758603274 7.81589705 0.0758603274 18.0555423 42.0770497 18.0555423 42.0770497 0.0388888604 0.0758603274 0.0388888604 0.0758603274 7.81589705 0.0753625552 18.0554729 42.0765519 18.0554729 42.0765519 7.81589705"></polygon>
        <polygon id="path-19" points="0 14.7736003 0 0.0388888604 21.0005117 0.0388888604 42.0010234 0.0388888604 42.0010234 14.7736003"></polygon>
        <polygon id="path-21" points="0.0758603274 7.81589705 0.0758603274 18.0555423 42.0770497 18.0555423 42.0770497 0.0388888604 0.0758603274 0.0388888604 0.0758603274 7.81589705 0.0753625552 18.0554729 42.0765519 18.0554729 42.0765519 7.81589705"></polygon>
        <polygon id="path-23" points="0.0758603274 7.81589705 0.0758603274 18.0555423 42.0770497 18.0555423 42.0770497 0.0388888604 0.0758603274 0.0388888604 0.0758603274 7.81589705 0.0753625552 18.0554729 42.0765519 18.0554729 42.0765519 7.81589705"></polygon>
        <polygon id="path-25" points="0 14.7736003 0 0.0388888604 21.0005117 0.0388888604 42.0010234 0.0388888604 42.0010234 14.7736003"></polygon>
        <polygon id="path-27" points="0.0758603274 7.81589705 0.0758603274 18.0555423 42.0770497 18.0555423 42.0770497 0.0388888604 0.0758603274 0.0388888604 0.0758603274 7.81589705 0.0753625552 18.0554729 42.0765519 18.0554729 42.0765519 7.81589705"></polygon>
        <polygon id="path-29" points="0.0758603274 7.81589705 0.0758603274 18.0555423 42.0770497 18.0555423 42.0770497 0.0388888604 0.0758603274 0.0388888604 0.0758603274 7.81589705 0.0753625552 18.0554729 42.0765519 18.0554729 42.0765519 7.81589705"></polygon>
        <polygon id="path-31" points="0 17.6806112 0 0.0465410468 21.1831249 0.0465410468 42.3662497 0.0465410468 42.3662497 17.6806112"></polygon>
        <polygon id="path-33" points="0.0830744174 9.35383621 0.0830744174 21.6083432 42.4494915 21.6083432 42.4494915 0.0465410468 0.0830744174 0.0465410468 0.0830744174 9.35383621 0.0825723168 21.60826 42.4489894 21.60826 42.4489894 9.35383621"></polygon>
        <polygon id="path-35" points="0.0830744174 9.35383621 0.0830744174 21.6083432 42.4494915 21.6083432 42.4494915 0.0465410468 0.0830744174 0.0465410468 0.0830744174 9.35383621 0.0825723168 21.60826 42.4489894 21.60826 42.4489894 9.35383621"></polygon>
        <linearGradient x1="102.093697%" y1="-120.141127%" x2="102.093697%" y2="112.273073%" id="linearGradient-37">
            <stop stop-color="#FFFFFF" offset="0%"></stop>
            <stop stop-color="#000000" offset="100%"></stop>
        </linearGradient>
        <linearGradient x1="50%" y1="-55.8419547%" x2="50%" y2="134.832129%" id="linearGradient-38">
            <stop stop-color="#FFFFFF" stop-opacity="0.5" offset="0%"></stop>
            <stop stop-color="#000000" stop-opacity="0.5" offset="100%"></stop>
        </linearGradient>
        <path d="M79.8624706,37.8852312 C79.8624706,37.8833047 79.541973,37.8833047 78.9965107,37.884268 C78.4510484,37.8833047 78.1305508,37.8833047 78.1305508,37.8833047 C72.5136247,37.8967902 55.0834854,37.9632542 54.6017117,38.3803398 C54.6017117,38.3803398 -13.1414165,89.0615416 2.35854655,145.207239 C2.35854655,145.207239 16.7121143,176.510816 40.2491713,179.492063 L78.1305508,179.492063 L79.8624706,179.492063 L117.74385,179.492063 C141.281934,176.510816 155.633448,145.207239 155.633448,145.207239 C171.134438,89.0615416 103.39131,38.3803398 103.39131,38.3803398 C102.909536,37.9632542 85.4793967,37.8967902 79.8624706,37.8852312 Z" id="path-39"></path>
        <linearGradient x1="102.093697%" y1="-115.454799%" x2="102.093696%" y2="100%" id="linearGradient-40">
            <stop stop-color="#FFFFFF" offset="0%"></stop>
            <stop stop-color="#000000" offset="100%"></stop>
        </linearGradient>
        <linearGradient x1="50%" y1="-85.0435563%" x2="50%" y2="140.785295%" id="linearGradient-41">
            <stop stop-color="#FFFFFF" stop-opacity="0.5" offset="0%"></stop>
            <stop stop-color="#000000" stop-opacity="0.5" offset="100%"></stop>
        </linearGradient>
        <path d="M106.181591,4.09291504 C106.181591,4.09291504 101.29092,5.09661764 96.0735891,7.43923253 C96.0735891,7.43923253 91.5085526,8.10772544 88.9004006,5.09661764 C88.9004006,5.09661764 86.2922485,0.413314343 81.727212,0.0781046455 C81.727212,0.0781046455 80.0394634,0.0174201313 78.9968189,0.0530602428 C77.9541744,0.0174201313 76.2653985,0.0781046455 76.2653985,0.0781046455 C71.7013893,0.413314343 69.09221,5.09661764 69.09221,5.09661764 C66.484058,8.10772544 61.9190215,7.43923253 61.9190215,7.43923253 C56.7027174,5.09661764 51.8110199,4.09291504 51.8110199,4.09291504 C45.6167872,3.42442214 38.7692324,9.77992094 38.7692324,9.77992094 L55.072494,27.1780748 C55.072494,26.9546017 74.1739462,27.1915603 78.5479168,27.249355 L78.5479168,27.2618772 C78.5479168,27.2618772 78.7153563,27.2589875 78.9968189,27.2551345 C79.2772543,27.2589875 79.4446938,27.2618772 79.4446938,27.2618772 L79.4446938,27.249355 C83.8186644,27.1915603 102.921144,26.9546017 102.921144,27.1780748 L119.223378,9.77992094 C119.223378,9.77992094 112.376851,3.42442214 106.181591,4.09291504" id="path-42"></path>
        <linearGradient x1="85.3226006%" y1="138.678965%" x2="85.3226006%" y2="23.0578708%" id="linearGradient-43">
            <stop stop-color="#F5F5F6" stop-opacity="0" offset="0%"></stop>
            <stop stop-color="#E7E7E9" offset="100%"></stop>
        </linearGradient>
        <polygon id="path-44" points="0 21.0677324 0 0.0244511345 41.1733439 0.0244511345 41.1733439 21.0677324"></polygon>
        <polygon id="path-46" points="0 0.64042359 0 15.2636431 41.1730186 15.2636431 41.1730186 0.64042359 0 0.64042359"></polygon>
        <polygon id="path-48" points="0 0.64042359 0 15.2636431 41.1730186 15.2636431 41.1730186 0.64042359 0 0.64042359"></polygon>
        <polygon id="path-50" points="0 0.64042359 0 15.2636431 41.1730186 15.2636431 41.1730186 0.64042359"></polygon>
        <polygon id="path-52" points="41.1730186 15.2634825 0 15.2634825 0 0.64042359 41.1730186 0.64042359"></polygon>
        <polygon id="path-54" points="0 0.64042359 0 15.2636431 41.1730186 15.2636431 41.1730186 0.64042359"></polygon>
        <polygon id="path-56" points="0 0.64042359 0 15.2636431 41.1730186 15.2636431 41.1730186 0.64042359 0 0.64042359"></polygon>
        <polygon id="path-58" points="0 0.64042359 0 15.2636431 41.1730186 15.2636431 41.1730186 0.64042359 0 0.64042359"></polygon>
        <polygon id="path-60" points="0 0.64042359 0 15.2636431 41.1730186 15.2636431 41.1730186 0.64042359 0 0.64042359"></polygon>
        <polygon id="path-62" points="0 21.0677324 0 0.0244511345 41.1733439 0.0244511345 41.1733439 21.0677324"></polygon>
        <polygon id="path-64" points="0 0.64042359 0 15.2636431 41.1730186 15.2636431 41.1730186 0.64042359 0 0.64042359"></polygon>
        <polygon id="path-66" points="0 0.64042359 0 15.2636431 41.1730186 15.2636431 41.1730186 0.64042359 0 0.64042359"></polygon>
        <polygon id="path-68" points="0 0.64042359 0 15.2636431 41.1730186 15.2636431 41.1730186 0.64042359"></polygon>
        <polygon id="path-70" points="41.1730186 15.2634825 0 15.2634825 0 0.64042359 41.1730186 0.64042359"></polygon>
        <polygon id="path-72" points="0 0.64042359 0 15.2636431 41.1730186 15.2636431 41.1730186 0.64042359"></polygon>
        <polygon id="path-74" points="0 0.64042359 0 15.2636431 41.1730186 15.2636431 41.1730186 0.64042359 0 0.64042359"></polygon>
        <polygon id="path-76" points="0 0.64042359 0 15.2636431 41.1730186 15.2636431 41.1730186 0.64042359 0 0.64042359"></polygon>
        <polygon id="path-78" points="0 0.64042359 0 15.2636431 41.1730186 15.2636431 41.1730186 0.64042359 0 0.64042359"></polygon>
        <polygon id="path-80" points="0 21.0677324 0 0.0244511345 41.1733439 0.0244511345 41.1733439 21.0677324"></polygon>
        <polygon id="path-82" points="0 0.64042359 0 15.2636431 41.1730186 15.2636431 41.1730186 0.64042359 0 0.64042359"></polygon>
        <polygon id="path-84" points="0 0.64042359 0 15.2636431 41.1730186 15.2636431 41.1730186 0.64042359 0 0.64042359"></polygon>
        <polygon id="path-86" points="0 0.64042359 0 15.2636431 41.1730186 15.2636431 41.1730186 0.64042359"></polygon>
        <polygon id="path-88" points="41.1730186 15.2634825 0 15.2634825 0 0.64042359 41.1730186 0.64042359"></polygon>
        <polygon id="path-90" points="0 0.64042359 0 15.2636431 41.1730186 15.2636431 41.1730186 0.64042359"></polygon>
        <polygon id="path-92" points="0 0.64042359 0 15.2636431 41.1730186 15.2636431 41.1730186 0.64042359 0 0.64042359"></polygon>
        <polygon id="path-94" points="0 0.64042359 0 15.2636431 41.1730186 15.2636431 41.1730186 0.64042359 0 0.64042359"></polygon>
        <polygon id="path-96" points="0 0.64042359 0 15.2636431 41.1730186 15.2636431 41.1730186 0.64042359 0 0.64042359"></polygon>
    </defs>
    <g id="Page-1" stroke="none" stroke-width="1" fill="none" fill-rule="evenodd">
        <g id="graphics" transform="translate(-3810.000000, -2007.000000)">
            <g id="more-than-an-investment" transform="translate(249.000000, 1975.000000)">
                <g id="morethan_6" transform="translate(3561.000000, 27.000000)">
                    <ellipse id="Oval-24" fill="#CCCCCC" opacity="0.707540761" cx="148.715881" cy="335.46402" rx="122.385856" ry="20.4789082"></ellipse>
                    <g id="Group-2" transform="translate(136.285873, 0.241383)">
                        <g id="Page-1" transform="translate(59.415932, 23.261264) rotate(46.000000) translate(-59.415932, -23.261264) translate(37.415932, 13.261264)">
                            <g id="Group-3" transform="translate(0.075860, 0.655833)">
                                <mask id="mask-2" fill="white">
                                    <use xlink:href="#path-1"></use>
                                </mask>
                                <g id="Clip-2"></g>
                                <path d="M42.0010234,7.40624457 C42.0010234,11.475686 32.5981064,14.7736003 21.0008436,14.7736003 C9.40192148,14.7736003 -0.00016592407,11.475686 -0.00016592407,7.40624457 C-0.00016592407,3.33749755 9.40192148,0.0388888604 21.0008436,0.0388888604 C32.5981064,0.0388888604 42.0010234,3.33749755 42.0010234,7.40624457" id="Fill-1" fill="#EFD44F" mask="url(#mask-2)"></path>
                            </g>
                            <path d="M37.7943006,8.22756341 C37.7943006,11.2858945 30.3094658,13.7657538 21.0766209,13.7657538 C11.8437761,13.7657538 4.35811168,11.2858945 4.35811168,8.22756341 C4.35811168,5.16853788 11.8437761,2.68867858 21.0766209,2.68867858 C30.3094658,2.68867858 37.7943006,5.16853788 37.7943006,8.22756341" id="Fill-4" fill="#E4C22F"></path>
                            <g id="Group-8" transform="translate(-0.000000, 0.655833)">
                                <mask id="mask-4" fill="white">
                                    <use xlink:href="#path-3"></use>
                                </mask>
                                <g id="Clip-7"></g>
                            </g>
                            <g id="Group-11" transform="translate(-0.000000, 0.655833)">
                                <mask id="mask-6" fill="white">
                                    <use xlink:href="#path-5"></use>
                                </mask>
                                <g id="Clip-10"></g>
                                <path d="M42.0226266,7.81589705 C41.2842645,11.649922 32.1916255,14.6804753 21.076372,14.6804753 C9.96111862,14.6804753 0.869309228,11.649922 0.130117498,7.81589705 L0.130117498,10.1846453 C0.098591925,10.3506174 0.0753625552,10.5186728 0.0753625552,10.6881172 C0.0753625552,14.7568642 9.47744996,18.0554729 21.076372,18.0554729 C32.6744645,18.0554729 42.0765519,14.7568642 42.0765519,10.6881172 C42.0765519,10.5186728 42.0541522,10.3506174 42.0226266,10.1846453 L42.0226266,7.81589705 Z" id="Fill-9" fill="#E4C22F" mask="url(#mask-6)"></path>
                            </g>
                            <path d="M42.0226266,8.4717299 C41.2842645,12.3057549 32.1916255,15.3363082 21.076372,15.3363082 C9.96111862,15.3363082 0.869309228,12.3057549 0.130117498,8.4717299 L0.130117498,10.8404782 C0.098591925,11.0064503 0.0753625552,11.1745057 0.0753625552,11.34395 C0.0753625552,15.412697 9.47744996,18.7113057 21.076372,18.7113057 C32.6744645,18.7113057 42.0765519,15.412697 42.0765519,11.34395 C42.0765519,11.1745057 42.0541522,11.0064503 42.0226266,10.8404782 L42.0226266,8.4717299 Z" id="Fill-6" fill="#E4C22F"></path>
                            <path d="M35.9722054,8.22756341 C35.9722054,10.7352005 29.3028874,12.7678379 21.076372,12.7678379 C12.8498567,12.7678379 6.1805387,10.7352005 6.1805387,8.22756341 C6.1805387,5.71992636 12.8498567,3.68659452 21.076372,3.68659452 C29.3028874,3.68659452 35.9722054,5.71992636 35.9722054,8.22756341" id="Fill-12" fill="#EFD44F"></path>
                            <path d="M25.7469687,8.05464687 L19.1000504,8.05464687 L19.1000504,8.35742443 L22.905519,8.35742443 C24.2710741,8.35742443 25.2176709,8.25603561 25.7469687,8.05464687 L25.7469687,8.05464687 Z M26.379969,7.4164529 C26.379969,7.35811961 26.3725024,7.31020297 26.3592285,7.272703 L19.1000504,7.272703 L19.1000504,7.58936944 L26.349273,7.58936944 C26.3691839,7.53798059 26.379969,7.48034174 26.379969,7.4164529 L26.379969,7.4164529 Z M25.7975755,6.80742557 C25.5030603,6.68242566 25.1313904,6.59909238 24.6825658,6.55742575 C24.3615027,6.52687022 23.7558798,6.51159245 22.8648676,6.51159245 L19.1000504,6.51159245 L19.1000504,6.80742557 L25.7975755,6.80742557 Z M29.0803832,8.05464687 L28.0358912,8.05464687 C27.8417601,8.21645231 27.5613484,8.36784109 27.1921673,8.50881321 C26.3957318,8.81436854 24.9571701,8.96645176 22.8756527,8.96645176 L19.1000504,8.96645176 L19.1000504,11.0657558 L17.1529315,11.0657558 L17.1529315,8.05464687 L15.7375992,8.05464687 L15.7375992,7.58936944 L17.1529315,7.58936944 L17.1529315,7.272703 L15.7375992,7.272703 L15.7375992,6.80742557 L17.1529315,6.80742557 L17.1529315,5.90187067 L22.7047509,5.90187067 C23.6554958,5.90187067 24.4013245,5.91853733 24.9438962,5.95187064 C26.5102194,6.0477039 27.5580299,6.33312036 28.0856684,6.80742557 L29.0803832,6.80742557 L29.0803832,7.272703 L28.3776948,7.272703 C28.3843318,7.30811964 28.3876502,7.34839739 28.3876502,7.39561958 C28.3876502,7.45464731 28.3776948,7.5192306 28.3569543,7.58936944 L29.0803832,7.58936944 L29.0803832,8.05464687 Z" id="Fill-14" fill="#D7B129"></path>
                        </g>
                        <g id="Page-1-Copy-8" transform="translate(76.526868, 134.955615) rotate(-19.000000) translate(-76.526868, -134.955615) translate(54.526868, 124.955615)">
                            <g id="Group-3" transform="translate(0.075860, 0.655833)">
                                <mask id="mask-8" fill="white">
                                    <use xlink:href="#path-7"></use>
                                </mask>
                                <g id="Clip-2"></g>
                                <path d="M42.0010234,7.40624457 C42.0010234,11.475686 32.5981064,14.7736003 21.0008436,14.7736003 C9.40192148,14.7736003 -0.00016592407,11.475686 -0.00016592407,7.40624457 C-0.00016592407,3.33749755 9.40192148,0.0388888604 21.0008436,0.0388888604 C32.5981064,0.0388888604 42.0010234,3.33749755 42.0010234,7.40624457" id="Fill-1" fill="#EFD44F" mask="url(#mask-8)"></path>
                            </g>
                            <path d="M37.7943006,8.22756341 C37.7943006,11.2858945 30.3094658,13.7657538 21.0766209,13.7657538 C11.8437761,13.7657538 4.35811168,11.2858945 4.35811168,8.22756341 C4.35811168,5.16853788 11.8437761,2.68867858 21.0766209,2.68867858 C30.3094658,2.68867858 37.7943006,5.16853788 37.7943006,8.22756341" id="Fill-4" fill="#E4C22F"></path>
                            <g id="Group-8" transform="translate(0.000000, 0.655833)">
                                <mask id="mask-10" fill="white">
                                    <use xlink:href="#path-9"></use>
                                </mask>
                                <g id="Clip-7"></g>
                            </g>
                            <g id="Group-11" transform="translate(0.000000, 0.655833)">
                                <mask id="mask-12" fill="white">
                                    <use xlink:href="#path-11"></use>
                                </mask>
                                <g id="Clip-10"></g>
                                <path d="M42.0226266,7.81589705 C41.2842645,11.649922 32.1916255,14.6804753 21.076372,14.6804753 C9.96111862,14.6804753 0.869309228,11.649922 0.130117498,7.81589705 L0.130117498,10.1846453 C0.098591925,10.3506174 0.0753625552,10.5186728 0.0753625552,10.6881172 C0.0753625552,14.7568642 9.47744996,18.0554729 21.076372,18.0554729 C32.6744645,18.0554729 42.0765519,14.7568642 42.0765519,10.6881172 C42.0765519,10.5186728 42.0541522,10.3506174 42.0226266,10.1846453 L42.0226266,7.81589705 Z" id="Fill-9" fill="#E4C22F" mask="url(#mask-12)"></path>
                            </g>
                            <path d="M42.0226266,8.4717299 C41.2842645,12.3057549 32.1916255,15.3363082 21.076372,15.3363082 C9.96111862,15.3363082 0.869309228,12.3057549 0.130117498,8.4717299 L0.130117498,10.8404782 C0.098591925,11.0064503 0.0753625552,11.1745057 0.0753625552,11.34395 C0.0753625552,15.412697 9.47744996,18.7113057 21.076372,18.7113057 C32.6744645,18.7113057 42.0765519,15.412697 42.0765519,11.34395 C42.0765519,11.1745057 42.0541522,11.0064503 42.0226266,10.8404782 L42.0226266,8.4717299 Z" id="Fill-6" fill="#E4C22F"></path>
                            <path d="M35.9722054,8.22756341 C35.9722054,10.7352005 29.3028874,12.7678379 21.076372,12.7678379 C12.8498567,12.7678379 6.1805387,10.7352005 6.1805387,8.22756341 C6.1805387,5.71992636 12.8498567,3.68659452 21.076372,3.68659452 C29.3028874,3.68659452 35.9722054,5.71992636 35.9722054,8.22756341" id="Fill-12" fill="#EFD44F"></path>
                            <path d="M25.7469687,8.05464687 L19.1000504,8.05464687 L19.1000504,8.35742443 L22.905519,8.35742443 C24.2710741,8.35742443 25.2176709,8.25603561 25.7469687,8.05464687 L25.7469687,8.05464687 Z M26.379969,7.4164529 C26.379969,7.35811961 26.3725024,7.31020297 26.3592285,7.272703 L19.1000504,7.272703 L19.1000504,7.58936944 L26.349273,7.58936944 C26.3691839,7.53798059 26.379969,7.48034174 26.379969,7.4164529 L26.379969,7.4164529 Z M25.7975755,6.80742557 C25.5030603,6.68242566 25.1313904,6.59909238 24.6825658,6.55742575 C24.3615027,6.52687022 23.7558798,6.51159245 22.8648676,6.51159245 L19.1000504,6.51159245 L19.1000504,6.80742557 L25.7975755,6.80742557 Z M29.0803832,8.05464687 L28.0358912,8.05464687 C27.8417601,8.21645231 27.5613484,8.36784109 27.1921673,8.50881321 C26.3957318,8.81436854 24.9571701,8.96645176 22.8756527,8.96645176 L19.1000504,8.96645176 L19.1000504,11.0657558 L17.1529315,11.0657558 L17.1529315,8.05464687 L15.7375992,8.05464687 L15.7375992,7.58936944 L17.1529315,7.58936944 L17.1529315,7.272703 L15.7375992,7.272703 L15.7375992,6.80742557 L17.1529315,6.80742557 L17.1529315,5.90187067 L22.7047509,5.90187067 C23.6554958,5.90187067 24.4013245,5.91853733 24.9438962,5.95187064 C26.5102194,6.0477039 27.5580299,6.33312036 28.0856684,6.80742557 L29.0803832,6.80742557 L29.0803832,7.272703 L28.3776948,7.272703 C28.3843318,7.30811964 28.3876502,7.34839739 28.3876502,7.39561958 C28.3876502,7.45464731 28.3776948,7.5192306 28.3569543,7.58936944 L29.0803832,7.58936944 L29.0803832,8.05464687 Z" id="Fill-14" fill="#D7B129"></path>
                        </g>
                        <g id="Page-1-Copy-5" transform="translate(107.222045, 85.270760) rotate(-27.000000) translate(-107.222045, -85.270760) translate(85.222045, 75.270760)">
                            <g id="Group-3" transform="translate(0.075860, 0.655833)">
                                <mask id="mask-14" fill="white">
                                    <use xlink:href="#path-13"></use>
                                </mask>
                                <g id="Clip-2"></g>
                                <path d="M42.0010234,7.40624457 C42.0010234,11.475686 32.5981064,14.7736003 21.0008436,14.7736003 C9.40192148,14.7736003 -0.00016592407,11.475686 -0.00016592407,7.40624457 C-0.00016592407,3.33749755 9.40192148,0.0388888604 21.0008436,0.0388888604 C32.5981064,0.0388888604 42.0010234,3.33749755 42.0010234,7.40624457" id="Fill-1" fill="#EFD44F" mask="url(#mask-14)"></path>
                            </g>
                            <path d="M37.7943006,8.22756341 C37.7943006,11.2858945 30.3094658,13.7657538 21.0766209,13.7657538 C11.8437761,13.7657538 4.35811168,11.2858945 4.35811168,8.22756341 C4.35811168,5.16853788 11.8437761,2.68867858 21.0766209,2.68867858 C30.3094658,2.68867858 37.7943006,5.16853788 37.7943006,8.22756341" id="Fill-4" fill="#E4C22F"></path>
                            <g id="Group-8" transform="translate(0.000000, 0.655833)">
                                <mask id="mask-16" fill="white">
                                    <use xlink:href="#path-15"></use>
                                </mask>
                                <g id="Clip-7"></g>
                            </g>
                            <g id="Group-11" transform="translate(0.000000, 0.655833)">
                                <mask id="mask-18" fill="white">
                                    <use xlink:href="#path-17"></use>
                                </mask>
                                <g id="Clip-10"></g>
                                <path d="M42.0226266,7.81589705 C41.2842645,11.649922 32.1916255,14.6804753 21.076372,14.6804753 C9.96111862,14.6804753 0.869309228,11.649922 0.130117498,7.81589705 L0.130117498,10.1846453 C0.098591925,10.3506174 0.0753625552,10.5186728 0.0753625552,10.6881172 C0.0753625552,14.7568642 9.47744996,18.0554729 21.076372,18.0554729 C32.6744645,18.0554729 42.0765519,14.7568642 42.0765519,10.6881172 C42.0765519,10.5186728 42.0541522,10.3506174 42.0226266,10.1846453 L42.0226266,7.81589705 Z" id="Fill-9" fill="#E4C22F" mask="url(#mask-18)"></path>
                            </g>
                            <path d="M42.0226266,8.4717299 C41.2842645,12.3057549 32.1916255,15.3363082 21.076372,15.3363082 C9.96111862,15.3363082 0.869309228,12.3057549 0.130117498,8.4717299 L0.130117498,10.8404782 C0.098591925,11.0064503 0.0753625552,11.1745057 0.0753625552,11.34395 C0.0753625552,15.412697 9.47744996,18.7113057 21.076372,18.7113057 C32.6744645,18.7113057 42.0765519,15.412697 42.0765519,11.34395 C42.0765519,11.1745057 42.0541522,11.0064503 42.0226266,10.8404782 L42.0226266,8.4717299 Z" id="Fill-6" fill="#E4C22F"></path>
                            <path d="M35.9722054,8.22756341 C35.9722054,10.7352005 29.3028874,12.7678379 21.076372,12.7678379 C12.8498567,12.7678379 6.1805387,10.7352005 6.1805387,8.22756341 C6.1805387,5.71992636 12.8498567,3.68659452 21.076372,3.68659452 C29.3028874,3.68659452 35.9722054,5.71992636 35.9722054,8.22756341" id="Fill-12" fill="#EFD44F"></path>
                            <path d="M25.7469687,8.05464687 L19.1000504,8.05464687 L19.1000504,8.35742443 L22.905519,8.35742443 C24.2710741,8.35742443 25.2176709,8.25603561 25.7469687,8.05464687 L25.7469687,8.05464687 Z M26.379969,7.4164529 C26.379969,7.35811961 26.3725024,7.31020297 26.3592285,7.272703 L19.1000504,7.272703 L19.1000504,7.58936944 L26.349273,7.58936944 C26.3691839,7.53798059 26.379969,7.48034174 26.379969,7.4164529 L26.379969,7.4164529 Z M25.7975755,6.80742557 C25.5030603,6.68242566 25.1313904,6.59909238 24.6825658,6.55742575 C24.3615027,6.52687022 23.7558798,6.51159245 22.8648676,6.51159245 L19.1000504,6.51159245 L19.1000504,6.80742557 L25.7975755,6.80742557 Z M29.0803832,8.05464687 L28.0358912,8.05464687 C27.8417601,8.21645231 27.5613484,8.36784109 27.1921673,8.50881321 C26.3957318,8.81436854 24.9571701,8.96645176 22.8756527,8.96645176 L19.1000504,8.96645176 L19.1000504,11.0657558 L17.1529315,11.0657558 L17.1529315,8.05464687 L15.7375992,8.05464687 L15.7375992,7.58936944 L17.1529315,7.58936944 L17.1529315,7.272703 L15.7375992,7.272703 L15.7375992,6.80742557 L17.1529315,6.80742557 L17.1529315,5.90187067 L22.7047509,5.90187067 C23.6554958,5.90187067 24.4013245,5.91853733 24.9438962,5.95187064 C26.5102194,6.0477039 27.5580299,6.33312036 28.0856684,6.80742557 L29.0803832,6.80742557 L29.0803832,7.272703 L28.3776948,7.272703 C28.3843318,7.30811964 28.3876502,7.34839739 28.3876502,7.39561958 C28.3876502,7.45464731 28.3776948,7.5192306 28.3569543,7.58936944 L29.0803832,7.58936944 L29.0803832,8.05464687 Z" id="Fill-14" fill="#D7B129"></path>
                        </g>
                        <g id="Page-1-Copy-6" transform="translate(25.042608, 72.806168) rotate(19.000000) translate(-25.042608, -72.806168) translate(3.042608, 62.806168)">
                            <g id="Group-3" transform="translate(0.075860, 0.655833)">
                                <mask id="mask-20" fill="white">
                                    <use xlink:href="#path-19"></use>
                                </mask>
                                <g id="Clip-2"></g>
                                <path d="M42.0010234,7.40624457 C42.0010234,11.475686 32.5981064,14.7736003 21.0008436,14.7736003 C9.40192148,14.7736003 -0.00016592407,11.475686 -0.00016592407,7.40624457 C-0.00016592407,3.33749755 9.40192148,0.0388888604 21.0008436,0.0388888604 C32.5981064,0.0388888604 42.0010234,3.33749755 42.0010234,7.40624457" id="Fill-1" fill="#EFD44F" mask="url(#mask-20)"></path>
                            </g>
                            <path d="M37.7943006,8.22756341 C37.7943006,11.2858945 30.3094658,13.7657538 21.0766209,13.7657538 C11.8437761,13.7657538 4.35811168,11.2858945 4.35811168,8.22756341 C4.35811168,5.16853788 11.8437761,2.68867858 21.0766209,2.68867858 C30.3094658,2.68867858 37.7943006,5.16853788 37.7943006,8.22756341" id="Fill-4" fill="#E4C22F"></path>
                            <g id="Group-8" transform="translate(0.000000, 0.655833)">
                                <mask id="mask-22" fill="white">
                                    <use xlink:href="#path-21"></use>
                                </mask>
                                <g id="Clip-7"></g>
                            </g>
                            <g id="Group-11" transform="translate(0.000000, 0.655833)">
                                <mask id="mask-24" fill="white">
                                    <use xlink:href="#path-23"></use>
                                </mask>
                                <g id="Clip-10"></g>
                                <path d="M42.0226266,7.81589705 C41.2842645,11.649922 32.1916255,14.6804753 21.076372,14.6804753 C9.96111862,14.6804753 0.869309228,11.649922 0.130117498,7.81589705 L0.130117498,10.1846453 C0.098591925,10.3506174 0.0753625552,10.5186728 0.0753625552,10.6881172 C0.0753625552,14.7568642 9.47744996,18.0554729 21.076372,18.0554729 C32.6744645,18.0554729 42.0765519,14.7568642 42.0765519,10.6881172 C42.0765519,10.5186728 42.0541522,10.3506174 42.0226266,10.1846453 L42.0226266,7.81589705 Z" id="Fill-9" fill="#E4C22F" mask="url(#mask-24)"></path>
                            </g>
                            <path d="M42.0226266,8.4717299 C41.2842645,12.3057549 32.1916255,15.3363082 21.076372,15.3363082 C9.96111862,15.3363082 0.869309228,12.3057549 0.130117498,8.4717299 L0.130117498,10.8404782 C0.098591925,11.0064503 0.0753625552,11.1745057 0.0753625552,11.34395 C0.0753625552,15.412697 9.47744996,18.7113057 21.076372,18.7113057 C32.6744645,18.7113057 42.0765519,15.412697 42.0765519,11.34395 C42.0765519,11.1745057 42.0541522,11.0064503 42.0226266,10.8404782 L42.0226266,8.4717299 Z" id="Fill-6" fill="#E4C22F"></path>
                            <path d="M35.9722054,8.22756341 C35.9722054,10.7352005 29.3028874,12.7678379 21.076372,12.7678379 C12.8498567,12.7678379 6.1805387,10.7352005 6.1805387,8.22756341 C6.1805387,5.71992636 12.8498567,3.68659452 21.076372,3.68659452 C29.3028874,3.68659452 35.9722054,5.71992636 35.9722054,8.22756341" id="Fill-12" fill="#EFD44F"></path>
                            <path d="M25.7469687,8.05464687 L19.1000504,8.05464687 L19.1000504,8.35742443 L22.905519,8.35742443 C24.2710741,8.35742443 25.2176709,8.25603561 25.7469687,8.05464687 L25.7469687,8.05464687 Z M26.379969,7.4164529 C26.379969,7.35811961 26.3725024,7.31020297 26.3592285,7.272703 L19.1000504,7.272703 L19.1000504,7.58936944 L26.349273,7.58936944 C26.3691839,7.53798059 26.379969,7.48034174 26.379969,7.4164529 L26.379969,7.4164529 Z M25.7975755,6.80742557 C25.5030603,6.68242566 25.1313904,6.59909238 24.6825658,6.55742575 C24.3615027,6.52687022 23.7558798,6.51159245 22.8648676,6.51159245 L19.1000504,6.51159245 L19.1000504,6.80742557 L25.7975755,6.80742557 Z M29.0803832,8.05464687 L28.0358912,8.05464687 C27.8417601,8.21645231 27.5613484,8.36784109 27.1921673,8.50881321 C26.3957318,8.81436854 24.9571701,8.96645176 22.8756527,8.96645176 L19.1000504,8.96645176 L19.1000504,11.0657558 L17.1529315,11.0657558 L17.1529315,8.05464687 L15.7375992,8.05464687 L15.7375992,7.58936944 L17.1529315,7.58936944 L17.1529315,7.272703 L15.7375992,7.272703 L15.7375992,6.80742557 L17.1529315,6.80742557 L17.1529315,5.90187067 L22.7047509,5.90187067 C23.6554958,5.90187067 24.4013245,5.91853733 24.9438962,5.95187064 C26.5102194,6.0477039 27.5580299,6.33312036 28.0856684,6.80742557 L29.0803832,6.80742557 L29.0803832,7.272703 L28.3776948,7.272703 C28.3843318,7.30811964 28.3876502,7.34839739 28.3876502,7.39561958 C28.3876502,7.45464731 28.3776948,7.5192306 28.3569543,7.58936944 L29.0803832,7.58936944 L29.0803832,8.05464687 Z" id="Fill-14" fill="#D7B129"></path>
                        </g>
                        <g id="Page-1-Copy-7" transform="translate(51.219512, 119.478566) rotate(24.000000) translate(-51.219512, -119.478566) translate(29.219512, 109.478566)">
                            <g id="Group-3" transform="translate(0.075860, 0.655833)">
                                <mask id="mask-26" fill="white">
                                    <use xlink:href="#path-25"></use>
                                </mask>
                                <g id="Clip-2"></g>
                                <path d="M42.0010234,7.40624457 C42.0010234,11.475686 32.5981064,14.7736003 21.0008436,14.7736003 C9.40192148,14.7736003 -0.00016592407,11.475686 -0.00016592407,7.40624457 C-0.00016592407,3.33749755 9.40192148,0.0388888604 21.0008436,0.0388888604 C32.5981064,0.0388888604 42.0010234,3.33749755 42.0010234,7.40624457" id="Fill-1" fill="#EFD44F" mask="url(#mask-26)"></path>
                            </g>
                            <path d="M37.7943006,8.22756341 C37.7943006,11.2858945 30.3094658,13.7657538 21.0766209,13.7657538 C11.8437761,13.7657538 4.35811168,11.2858945 4.35811168,8.22756341 C4.35811168,5.16853788 11.8437761,2.68867858 21.0766209,2.68867858 C30.3094658,2.68867858 37.7943006,5.16853788 37.7943006,8.22756341" id="Fill-4" fill="#E4C22F"></path>
                            <g id="Group-8" transform="translate(0.000000, 0.655833)">
                                <mask id="mask-28" fill="white">
                                    <use xlink:href="#path-27"></use>
                                </mask>
                                <g id="Clip-7"></g>
                            </g>
                            <g id="Group-11" transform="translate(0.000000, 0.655833)">
                                <mask id="mask-30" fill="white">
                                    <use xlink:href="#path-29"></use>
                                </mask>
                                <g id="Clip-10"></g>
                                <path d="M42.0226266,7.81589705 C41.2842645,11.649922 32.1916255,14.6804753 21.076372,14.6804753 C9.96111862,14.6804753 0.869309228,11.649922 0.130117498,7.81589705 L0.130117498,10.1846453 C0.098591925,10.3506174 0.0753625552,10.5186728 0.0753625552,10.6881172 C0.0753625552,14.7568642 9.47744996,18.0554729 21.076372,18.0554729 C32.6744645,18.0554729 42.0765519,14.7568642 42.0765519,10.6881172 C42.0765519,10.5186728 42.0541522,10.3506174 42.0226266,10.1846453 L42.0226266,7.81589705 Z" id="Fill-9" fill="#E4C22F" mask="url(#mask-30)"></path>
                            </g>
                            <path d="M42.0226266,8.4717299 C41.2842645,12.3057549 32.1916255,15.3363082 21.076372,15.3363082 C9.96111862,15.3363082 0.869309228,12.3057549 0.130117498,8.4717299 L0.130117498,10.8404782 C0.098591925,11.0064503 0.0753625552,11.1745057 0.0753625552,11.34395 C0.0753625552,15.412697 9.47744996,18.7113057 21.076372,18.7113057 C32.6744645,18.7113057 42.0765519,15.412697 42.0765519,11.34395 C42.0765519,11.1745057 42.0541522,11.0064503 42.0226266,10.8404782 L42.0226266,8.4717299 Z" id="Fill-6" fill="#E4C22F"></path>
                            <path d="M35.9722054,8.22756341 C35.9722054,10.7352005 29.3028874,12.7678379 21.076372,12.7678379 C12.8498567,12.7678379 6.1805387,10.7352005 6.1805387,8.22756341 C6.1805387,5.71992636 12.8498567,3.68659452 21.076372,3.68659452 C29.3028874,3.68659452 35.9722054,5.71992636 35.9722054,8.22756341" id="Fill-12" fill="#EFD44F"></path>
                            <path d="M25.7469687,8.05464687 L19.1000504,8.05464687 L19.1000504,8.35742443 L22.905519,8.35742443 C24.2710741,8.35742443 25.2176709,8.25603561 25.7469687,8.05464687 L25.7469687,8.05464687 Z M26.379969,7.4164529 C26.379969,7.35811961 26.3725024,7.31020297 26.3592285,7.272703 L19.1000504,7.272703 L19.1000504,7.58936944 L26.349273,7.58936944 C26.3691839,7.53798059 26.379969,7.48034174 26.379969,7.4164529 L26.379969,7.4164529 Z M25.7975755,6.80742557 C25.5030603,6.68242566 25.1313904,6.59909238 24.6825658,6.55742575 C24.3615027,6.52687022 23.7558798,6.51159245 22.8648676,6.51159245 L19.1000504,6.51159245 L19.1000504,6.80742557 L25.7975755,6.80742557 Z M29.0803832,8.05464687 L28.0358912,8.05464687 C27.8417601,8.21645231 27.5613484,8.36784109 27.1921673,8.50881321 C26.3957318,8.81436854 24.9571701,8.96645176 22.8756527,8.96645176 L19.1000504,8.96645176 L19.1000504,11.0657558 L17.1529315,11.0657558 L17.1529315,8.05464687 L15.7375992,8.05464687 L15.7375992,7.58936944 L17.1529315,7.58936944 L17.1529315,7.272703 L15.7375992,7.272703 L15.7375992,6.80742557 L17.1529315,6.80742557 L17.1529315,5.90187067 L22.7047509,5.90187067 C23.6554958,5.90187067 24.4013245,5.91853733 24.9438962,5.95187064 C26.5102194,6.0477039 27.5580299,6.33312036 28.0856684,6.80742557 L29.0803832,6.80742557 L29.0803832,7.272703 L28.3776948,7.272703 C28.3843318,7.30811964 28.3876502,7.34839739 28.3876502,7.39561958 C28.3876502,7.45464731 28.3776948,7.5192306 28.3569543,7.58936944 L29.0803832,7.58936944 L29.0803832,8.05464687 Z" id="Fill-14" fill="#D7B129"></path>
                        </g>
                    </g>
                    <g id="Group-32" transform="translate(292.555831, 288.655087)">
                        <ellipse id="Oval-24" fill="#CCCCCC" opacity="0.707540761" cx="49.7344913" cy="55.0980149" rx="45.8337469" ry="14.1401985"></ellipse>
                        <g id="toga" transform="translate(54.667083, 29.735429) scale(-1, 1) translate(-54.667083, -29.735429) translate(9.167083, 0.735429)">
                            <polygon id="Fill-1" fill="#32323A" points="19.7602107 19.0539675 19.7602107 50.7237218 45.361708 57.7954612 45.3634679 57.7954612 70.9649652 50.7237218 70.9649652 19.0539675"></polygon>
                            <polygon id="Fill-2" fill="#EEC930" points="3.6618404 39.8454305 5.1577861 39.8454305 5.1577861 15.8451015 3.6618404 15.8451015"></polygon>
                            <g id="Group-7" transform="translate(0.000000, 0.247137)">
                                <path d="M7.31587842,50.3618677 L7.31587842,41.8794612 C7.31587842,40.2812504 6.01469899,38.9856802 4.40963726,38.9856802 C2.80516217,38.9856802 1.50368941,40.2812504 1.50368941,41.8794612 L1.50368941,50.3618677 L7.31587842,50.3618677 Z" id="Fill-3" fill="#EEC930"></path>
                                <polygon id="Fill-5" fill="#3F3E3B" points="45.3630279 31.1504161 8.79968056e-05 15.5974387 45.3630279 0.045045531 90.7259678 15.5974387"></polygon>
                            </g>
                        </g>
                        <g id="Page-1-Copy-9" transform="translate(0.308329, 41.027389)">
                            <g id="Group-3" transform="translate(0.083074, 0.028485)">
                                <mask id="mask-32" fill="white">
                                    <use xlink:href="#path-31"></use>
                                </mask>
                                <g id="Clip-2"></g>
                                <path d="M42.3662497,8.86357614 C42.3662497,13.7337643 32.8815682,17.6806112 21.1834596,17.6806112 C9.48367732,17.6806112 -0.000167366888,13.7337643 -0.000167366888,8.86357614 C-0.000167366888,3.99421912 9.48367732,0.0465410468 21.1834596,0.0465410468 C32.8815682,0.0465410468 42.3662497,3.99421912 42.3662497,8.86357614" id="Fill-1" fill="#EFD44F" mask="url(#mask-32)"></path>
                            </g>
                            <path d="M38.1295011,9.09010993 C38.1295011,12.7502308 30.5795808,15.7180537 21.2664503,15.7180537 C11.9533199,15.7180537 4.40256274,12.7502308 4.40256274,9.09010993 C4.40256274,5.42915795 11.9533199,2.46133513 21.2664503,2.46133513 C30.5795808,2.46133513 38.1295011,5.42915795 38.1295011,9.09010993" id="Fill-4" fill="#E4C22F"></path>
                            <g id="Group-8" transform="translate(0.000000, 0.028485)">
                                <mask id="mask-34" fill="white">
                                    <use xlink:href="#path-33"></use>
                                </mask>
                                <g id="Clip-7"></g>
                            </g>
                            <g id="Group-11" transform="translate(0.000000, 0.028485)">
                                <mask id="mask-36" fill="white">
                                    <use xlink:href="#path-35"></use>
                                </mask>
                                <g id="Clip-10"></g>
                                <path d="M42.3945952,9.35383621 C41.6498125,13.9422848 32.4781071,17.5691621 21.2661993,17.5691621 C10.0542915,17.5691621 0.883422874,13.9422848 0.13780339,9.35383621 L0.13780339,12.1886846 C0.106003681,12.3873151 0.0825723168,12.588439 0.0825723168,12.7912249 C0.0825723168,17.660582 9.566417,21.60826 21.2661993,21.60826 C32.9651447,21.60826 42.4489894,17.660582 42.4489894,12.7912249 C42.4489894,12.588439 42.4263949,12.3873151 42.3945952,12.1886846 L42.3945952,9.35383621 Z" id="Fill-9" fill="#E4C22F" mask="url(#mask-36)"></path>
                            </g>
                            <path d="M42.3945952,9.38232122 C41.6498125,13.9707698 32.4781071,17.5976471 21.2661993,17.5976471 C10.0542915,17.5976471 0.883422874,13.9707698 0.13780339,9.38232122 L0.13780339,12.2171696 C0.106003681,12.4158002 0.0825723168,12.616924 0.0825723168,12.81971 C0.0825723168,17.689067 9.566417,21.6367451 21.2661993,21.6367451 C32.9651447,21.6367451 42.4489894,17.689067 42.4489894,12.81971 C42.4489894,12.616924 42.4263949,12.4158002 42.3945952,12.2171696 L42.3945952,9.38232122 Z" id="Fill-6" fill="#E4C22F"></path>
                            <path d="M36.2915616,9.09010993 C36.2915616,12.0911764 29.5642496,14.5237771 21.2661993,14.5237771 C12.968149,14.5237771 6.24083695,12.0911764 6.24083695,9.09010993 C6.24083695,6.08904351 12.968149,3.65561163 21.2661993,3.65561163 C29.5642496,3.65561163 36.2915616,6.08904351 36.2915616,9.09010993" id="Fill-12" fill="#EFD44F"></path>
                            <path d="M25.9774098,8.88316849 L19.2726923,8.88316849 L19.2726923,9.24552379 L23.1112518,9.24552379 C24.4886813,9.24552379 25.4435094,9.12418463 25.9774098,8.88316849 L25.9774098,8.88316849 Z M26.6159145,8.11939667 C26.6159145,8.0495851 26.608383,7.99223988 26.5949936,7.94736102 L19.2726923,7.94736102 L19.2726923,8.32633811 L26.5849516,8.32633811 C26.6050356,8.26483744 26.6159145,8.19585696 26.6159145,8.11939667 L26.6159145,8.11939667 Z M26.0284567,7.39053064 C25.7313805,7.24093441 25.3564786,7.1412036 24.9037512,7.09133819 C24.5798963,7.05477023 23.9690071,7.03648624 23.070247,7.03648624 L19.2726923,7.03648624 L19.2726923,7.39053064 L26.0284567,7.39053064 Z M29.3398106,8.88316849 L28.286236,8.88316849 C28.0904168,9.07681249 27.8075667,9.25799014 27.4351754,9.42670143 C26.6318143,9.79238109 25.1807434,9.97438982 23.0811258,9.97438982 L19.2726923,9.97438982 L19.2726923,12.4867753 L17.3086419,12.4867753 L17.3086419,8.88316849 L15.8810023,8.88316849 L15.8810023,8.32633811 L17.3086419,8.32633811 L17.3086419,7.94736102 L15.8810023,7.94736102 L15.8810023,7.39053064 L17.3086419,7.39053064 L17.3086419,6.30678912 L22.9087379,6.30678912 C23.8677502,6.30678912 24.6200643,6.32673528 25.1673541,6.36662761 C26.7472975,6.48131804 27.8042194,6.82289608 28.3364461,7.39053064 L29.3398106,7.39053064 L29.3398106,7.94736102 L28.6310118,7.94736102 C28.6377065,7.98974661 28.6410538,8.03794984 28.6410538,8.09446397 C28.6410538,8.16510663 28.6310118,8.24239801 28.6100909,8.32633811 L29.3398106,8.32633811 L29.3398106,8.88316849 Z" id="Fill-14" fill="#D7B129"></path>
                        </g>
                    </g>
                    <g id="Page-1" transform="translate(126.029339, 157.493087)">
                        <g id="Fill-1">
                            <use fill="#FBCFCC" xlink:href="#path-39"></use>
                            <use fill-opacity="0.560000002" fill="url(#linearGradient-37)" style="mix-blend-mode: overlay;" xlink:href="#path-39"></use>
                            <use fill="#424559" style="mix-blend-mode: overlay;" xlink:href="#path-39"></use>
                            <use fill="url(#linearGradient-38)" style="mix-blend-mode: overlay;" xlink:href="#path-39"></use>
                        </g>
                        <g id="Fill-4">
                            <use fill="#FBCFCC" xlink:href="#path-42"></use>
                            <use fill="url(#linearGradient-40)" style="mix-blend-mode: overlay;" xlink:href="#path-42"></use>
                            <use fill-opacity="0.840000033" fill="url(#linearGradient-41)" style="mix-blend-mode: overlay;" xlink:href="#path-42"></use>
                        </g>
                        <g id="Group-9" transform="translate(58.174776, 84.457660)">
                            <path d="M32.1257723,23.2945917 L11.1523786,23.2945917 L11.1523786,26.0470796 L23.1595847,26.0470796 C27.4691861,26.0470796 30.457347,25.1295836 32.1257723,23.2945917 L32.1257723,23.2945917 Z M34.1215739,17.4992907 C34.1215739,16.9660231 34.1011129,16.5283818 34.0593383,16.1872284 L11.1523786,16.1872284 L11.1523786,19.0680797 L34.0269417,19.0680797 C34.0900298,18.5994244 34.1215739,18.0756333 34.1215739,17.4992907 L34.1215739,17.4992907 Z M32.2843452,11.9615779 C31.3550741,10.8295688 30.1828284,10.0723115 28.7684606,9.68808315 C27.7547878,9.41154211 25.8425354,9.27284083 23.0334084,9.27284083 L11.1523786,9.27284083 L11.1523786,11.9615779 L32.2843452,11.9615779 Z M42.6444395,23.2945917 L39.3493635,23.2945917 C38.7372381,24.7668927 37.8497415,26.144429 36.6885789,27.4237544 C34.1752841,30.1986413 29.6337911,31.585654 23.065805,31.585654 L11.1523786,31.585654 L11.1523786,50.6661245 L5.00640094,50.6661245 L5.00640094,23.2945917 L0.539931698,23.2945917 L0.539931698,19.0680797 L5.00640094,19.0680797 L5.00640094,16.1872284 L0.539931698,16.1872284 L0.539931698,11.9615779 L5.00640094,11.9615779 L5.00640094,3.73340498 L22.5269983,3.73340498 C25.5253896,3.73340498 27.8809641,3.88330574 29.591164,4.18138424 C34.5342044,5.0566668 37.839511,7.65063901 39.5079363,11.9615779 L42.6444395,11.9615779 L42.6444395,16.1872284 L40.4261244,16.1872284 C40.447438,16.5077059 40.458521,16.8807348 40.458521,17.3080381 C40.458521,17.8413057 40.4261244,18.4279862 40.3638888,19.0680797 L42.6444395,19.0680797 L42.6444395,23.2945917 Z" id="Fill-9" fill="#FACBCE" style="mix-blend-mode: overlay;" opacity="0.14283288"></path>
                            <path d="M32.1257723,19.7303767 L11.1523786,19.7303767 L11.1523786,22.4828646 L23.1595847,22.4828646 C27.4691861,22.4828646 30.457347,21.5653686 32.1257723,19.7303767 L32.1257723,19.7303767 Z M34.1215739,13.9350758 C34.1215739,13.4018081 34.1011129,12.9641669 34.0593383,12.6230134 L11.1523786,12.6230134 L11.1523786,15.5038647 L34.0269417,15.5038647 C34.0900298,15.0352094 34.1215739,14.5114183 34.1215739,13.9350758 L34.1215739,13.9350758 Z M32.2843452,8.3973629 C31.3550741,7.26535377 30.1828284,6.50809652 28.7684606,6.12386815 C27.7547878,5.84732711 25.8425354,5.70862584 23.0334084,5.70862584 L11.1523786,5.70862584 L11.1523786,8.3973629 L32.2843452,8.3973629 Z M42.6444395,19.7303767 L39.3493635,19.7303767 C38.7372381,21.2026777 37.8497415,22.580214 36.6885789,23.8595394 C34.1752841,26.6344263 29.6337911,28.021439 23.065805,28.021439 L11.1523786,28.021439 L11.1523786,47.1019095 L5.00640094,47.1019095 L5.00640094,19.7303767 L0.539931698,19.7303767 L0.539931698,15.5038647 L5.00640094,15.5038647 L5.00640094,12.6230134 L0.539931698,12.6230134 L0.539931698,8.3973629 L5.00640094,8.3973629 L5.00640094,0.169189989 L22.5269983,0.169189989 C25.5253896,0.169189989 27.8809641,0.319090742 29.591164,0.617169249 C34.5342044,1.4924518 37.839511,4.08642402 39.5079363,8.3973629 L42.6444395,8.3973629 L42.6444395,12.6230134 L40.4261244,12.6230134 C40.447438,12.9434909 40.458521,13.3165198 40.458521,13.7438231 C40.458521,14.2770907 40.4261244,14.8637712 40.3638888,15.5038647 L42.6444395,15.5038647 L42.6444395,19.7303767 Z" id="Fill-9" fill="#C6645D"></path>
                        </g>
                        <path d="M101.607617,39.4646487 L56.3856097,39.4646487 C52.9515599,39.4646487 50.1410424,36.6061047 50.1410424,33.1120965 C50.1410424,29.6180883 52.9515599,26.7595443 56.3856097,26.7595443 L101.607617,26.7595443 C105.041667,26.7595443 107.851157,29.6180883 107.851157,33.1120965 C107.851157,36.6061047 105.041667,39.4646487 101.607617,39.4646487" id="Fill-7" fill="#E9E9E9"></path>
                    </g>
                    <polygon id="Fill-1" fill="url(#linearGradient-43)" points="53.1798527 124.149182 0 177.138245 17.9166487 177.138245 17.9166487 291.553294 88.4436263 291.553294 88.4436263 177.138245 106.359705 177.138245"></polygon>
                    <g id="note" transform="translate(36.943581, 241.836529)">
                        <polygon id="Fill-1" fill="#06845A" points="0 89.2716744 114.251863 89.2716744 114.251863 37.5493202 0 37.5493202"></polygon>
                        <polygon id="Fill-2" fill="#0B9B67" points="0 86.5410251 114.251863 86.5410251 114.251863 34.8186708 0 34.8186708"></polygon>
                        <polygon id="Fill-3" fill="#06845A" points="0 80.2765941 114.251863 80.2765941 114.251863 28.5548824 0 28.5548824"></polygon>
                        <polygon id="Fill-4" fill="#0B9B67" points="0 77.5459448 114.251863 77.5459448 114.251863 25.824233 0 25.824233"></polygon>
                        <polygon id="Fill-5" fill="#06845A" points="0 71.2815138 114.251863 71.2815138 114.251863 19.5591596 0 19.5591596"></polygon>
                        <polygon id="Fill-6" fill="#0B9B67" points="0 68.550222 114.251863 68.550222 114.251863 16.8285102 0 16.8285102"></polygon>
                        <polygon id="Fill-7" fill="#06845A" points="0 62.2864335 114.251863 62.2864335 114.251863 10.5647218 0 10.5647218"></polygon>
                        <polygon id="Fill-8" fill="#0B9B67" points="0 59.5557842 114.251863 59.5557842 114.251863 7.83342993 0 7.83342993"></polygon>
                        <polygon id="Fill-9" fill="#2BC19A" points="0 51.7217117 114.251863 51.7217117 114.251863 2.84217094e-14 0 2.84217094e-14"></polygon>
                        <path d="M8.73261424,43.4912133 L105.519891,43.4912133 L105.519891,8.23049848 L8.73261424,8.23049848 L8.73261424,43.4912133 Z M5.09129703,46.6067236 L109.161208,46.6067236 L109.161208,5.11434566 L5.09129703,5.11434566 L5.09129703,46.6067236 Z" id="Fill-10" fill="#0A996D"></path>
                        <g id="Group-25" transform="translate(4.493076, 1.248389)">
                            <path d="M77.0025941,24.479083 C77.0025941,37.9517858 66.0921217,48.8730983 52.6327915,48.8730983 C39.1741031,48.8730983 28.2629888,37.9517858 28.2629888,24.479083 C28.2629888,11.0063803 39.1741031,0.0850677594 52.6327915,0.0850677594 C66.0921217,0.0850677594 77.0025941,11.0063803 77.0025941,24.479083" id="Fill-11" fill="#2BC19A"></path>
                            <path d="M72.3032859,24.479083 C72.3032859,35.3534926 63.4962149,44.1693138 52.6325989,44.1693138 C41.7696248,44.1693138 32.9631957,35.3534926 32.9631957,24.479083 C32.9631957,13.6046735 41.7696248,4.78885225 52.6325989,4.78885225 C63.4962149,4.78885225 72.3032859,13.6046735 72.3032859,24.479083" id="Fill-13" fill="#0A996D"></path>
                            <path d="M104.614793,34.4642647 C104.582058,34.4636222 104.550606,34.4591246 104.518513,34.4591246 C98.6909931,34.4591246 93.9674865,39.1879668 93.9674865,45.0206339 C93.9674865,45.1343574 93.9809657,45.2448684 93.984175,45.3585919 L104.614793,45.3585919 L104.614793,34.4642647 Z" id="Fill-15" fill="#0A996D"></path>
                            <path d="M0.54571618,34.4642647 C0.578451448,34.4636222 0.609902981,34.4591246 0.642638249,34.4591246 C6.46951602,34.4591246 11.1936646,39.1879668 11.1936646,45.0206339 C11.1936646,45.1343574 11.1795435,45.2448684 11.1763341,45.3585919 L0.54571618,45.3585919 L0.54571618,34.4642647 Z" id="Fill-17" fill="#0A996D"></path>
                            <path d="M104.614793,14.7605413 C104.582058,14.7605413 104.550606,14.7656813 104.518513,14.7656813 C98.6909931,14.7656813 93.9674865,10.0368391 93.9674865,4.20417203 C93.9674865,4.09044852 93.9809657,3.97929502 93.984175,3.86621401 L104.614793,3.86621401 L104.614793,14.7605413 Z" id="Fill-19" fill="#0A996D"></path>
                            <path d="M0.54571618,14.7605413 C0.578451448,14.7605413 0.609902981,14.7656813 0.642638249,14.7656813 C6.46951602,14.7656813 11.1936646,10.0368391 11.1936646,4.20417203 C11.1936646,4.09044852 11.1795435,3.97929502 11.1763341,3.86621401 L0.54571618,3.86621401 L0.54571618,14.7605413 Z" id="Fill-21" fill="#0A996D"></path>
                            <path d="M59.8664514,30.7648451 C59.2412719,30.3748442 58.1911759,30.133262 57.1905036,29.6944306 C57.1552009,29.6725854 57.1083445,29.6507402 57.0396647,29.628895 C56.8657184,29.5485818 56.6981909,29.465056 56.5345145,29.3796028 C55.3143235,28.5437028 55.4895534,26.5146697 55.6442436,26.3906661 C56.8438949,25.4333325 57.4543114,24.4779265 57.7906502,23.4858977 C58.2611395,23.3278413 58.8805421,22.5247091 58.8805421,21.5513129 C58.8805421,20.6845727 58.6340648,19.9566137 58.2938747,19.6944713 C58.2964422,19.4747344 58.2996516,19.2678475 58.307354,19.1637616 C58.5287984,16.3303113 56.8785558,14.1624969 54.6583343,13.3214569 C54.0023452,13.0734497 53.298216,12.880698 52.5767564,12.880698 C52.0651876,12.880698 51.5645306,13.0181942 51.0876226,13.162758 C48.6100121,13.9099922 46.7248458,16.4408223 46.845517,19.1637616 C46.85001,19.2627075 46.8519356,19.4753769 46.8545031,19.6970413 C46.5162387,19.9630387 46.2723288,20.6884277 46.2723288,21.5513129 C46.2723288,22.6384326 47.1247295,23.5199505 47.5997119,23.5199505 C47.6016375,23.5199505 47.6029212,23.5186655 47.6042049,23.5186655 C48.0374659,24.5229019 48.6780501,25.4744529 49.5869352,26.3906661 C49.7275043,26.5326599 49.821217,28.3246084 48.8314566,29.2202614 C47.5952188,29.6648753 46.0059536,30.3562115 45.2857777,30.7648451 C43.480203,31.7889993 43.3171685,32.1667927 43.3171685,33.662546 L43.3171685,35.4609196 L61.949313,35.4609196 L61.949313,33.662546 C61.949313,32.2509609 61.4839587,31.7748642 59.8664514,30.7648451" id="Fill-23" fill="#2BC19A"></path>
                        </g>
                    </g>
                    <g id="coin" transform="translate(103.369727, 266.225806)">
                        <g id="Page-1" transform="translate(33.733877, 28.973076)">
                            <g id="Group-3" transform="translate(0.000000, 0.022253)">
                                <mask id="mask-45" fill="white">
                                    <use xlink:href="#path-44"></use>
                                </mask>
                                <g id="Clip-2"></g>
                                <path d="M41.1733439,10.5463729 C41.1733439,16.3569397 31.9557224,21.0677324 20.5869973,21.0677324 C9.21664556,21.0677324 -0.000162654341,16.3569397 -0.000162654341,10.5463729 C-0.000162654341,4.73500282 9.21664556,0.0242101321 20.5869973,0.0242101321 C31.9557224,0.0242101321 41.1733439,4.73500282 41.1733439,10.5463729" id="Fill-1" fill="#EFD44F" mask="url(#mask-45)"></path>
                            </g>
                            <path d="M36.975154,10.8047275 C36.975154,15.1724935 29.6378167,18.7136214 20.5869159,18.7136214 C11.5360151,18.7136214 4.19786455,15.1724935 4.19786455,10.8047275 C4.19786455,6.43615811 11.5360151,2.89503018 20.5869159,2.89503018 C29.6378167,2.89503018 36.975154,6.43615811 36.975154,10.8047275" id="Fill-4" fill="#E4C22F"></path>
                            <g id="Group-8" transform="translate(0.000000, 10.512633)">
                                <mask id="mask-47" fill="white">
                                    <use xlink:href="#path-46"></use>
                                </mask>
                                <g id="Clip-7"></g>
                                <path d="M41.1201559,0.64042359 C40.3963441,6.11519375 31.4828862,10.443596 20.5866719,10.443596 C9.69045766,10.443596 0.777813057,6.11599709 0.0531879694,0.641226932 L0.0531879694,4.02329331 C0.0222836447,4.2610823 -0.000487963022,4.50047797 -0.000487963022,4.74148033 C-0.000487963022,10.5528504 9.21632026,15.2636431 20.5866719,15.2636431 C31.9562104,15.2636431 41.1730186,10.5528504 41.1730186,4.74148033 C41.1730186,4.50047797 41.1510602,4.2610823 41.1201559,4.02329331 L41.1201559,0.64042359 Z" id="Fill-6" fill="#E4C22F" mask="url(#mask-47)"></path>
                            </g>
                            <g id="Group-11" transform="translate(0.000000, 15.332680)">
                                <mask id="mask-49" fill="white">
                                    <use xlink:href="#path-48"></use>
                                </mask>
                                <g id="Clip-10"></g>
                                <path d="M41.1201559,0.64042359 C40.3963441,6.11519375 31.4828862,10.443596 20.5866719,10.443596 C9.69045766,10.443596 0.777813057,6.11599709 0.0531879694,0.641226932 L0.0531879694,4.02329331 C0.0222836447,4.2610823 -0.000487963022,4.50047797 -0.000487963022,4.74148033 C-0.000487963022,10.5528504 9.21632026,15.2636431 20.5866719,15.2636431 C31.9562104,15.2636431 41.1730186,10.5528504 41.1730186,4.74148033 C41.1730186,4.50047797 41.1510602,4.2610823 41.1201559,4.02329331 L41.1201559,0.64042359 Z" id="Fill-9" fill="#EFD44F" mask="url(#mask-49)"></path>
                            </g>
                            <g id="Group-14" transform="translate(0.000000, 29.792821)">
                                <mask id="mask-51" fill="white">
                                    <use xlink:href="#path-50"></use>
                                </mask>
                                <g id="Clip-13"></g>
                                <path d="M41.1201559,0.64042359 C40.3963441,6.11519375 31.4828862,10.443596 20.5866719,10.443596 C9.69045766,10.443596 0.777813057,6.11599709 0.0531879694,0.641226932 L0.0531879694,4.02329331 C0.0222836447,4.2610823 -0.000487963022,4.50047797 -0.000487963022,4.74148033 C-0.000487963022,10.5528504 9.21632026,15.2636431 20.5866719,15.2636431 C31.9562104,15.2636431 41.1730186,10.5528504 41.1730186,4.74148033 C41.1730186,4.50047797 41.1510602,4.2610823 41.1201559,4.02329331 L41.1201559,0.64042359 Z" id="Fill-12" fill="#E4C22F" mask="url(#mask-51)"></path>
                            </g>
                            <g id="Group-17" transform="translate(0.000000, 34.612868)">
                                <mask id="mask-53" fill="white">
                                    <use xlink:href="#path-52"></use>
                                </mask>
                                <g id="Clip-16"></g>
                                <path d="M41.1201559,0.64042359 C40.3963441,6.11519375 31.4828862,10.443596 20.5866719,10.443596 C9.69045766,10.443596 0.777813057,6.11599709 0.0531879694,0.641226932 L0.0531879694,4.02329331 C0.0222836447,4.2610823 -0.000487963022,4.50047797 -0.000487963022,4.74148033 C-0.000487963022,10.5528504 9.21632026,15.2636431 20.5866719,15.2636431 C31.9562104,15.2636431 41.1730186,10.5528504 41.1730186,4.74148033 C41.1730186,4.50047797 41.1510602,4.2610823 41.1201559,4.02329331 L41.1201559,0.64042359 Z" id="Fill-15" fill="#EFD44F" mask="url(#mask-53)"></path>
                            </g>
                            <g id="Group-20" transform="translate(0.000000, 20.152727)">
                                <mask id="mask-55" fill="white">
                                    <use xlink:href="#path-54"></use>
                                </mask>
                                <g id="Clip-19"></g>
                                <path d="M41.1201559,0.64042359 C40.3963441,6.11519375 31.4828862,10.443596 20.5866719,10.443596 C9.69045766,10.443596 0.777813057,6.11599709 0.0531879694,0.641226932 L0.0531879694,4.02329331 C0.0222836447,4.2610823 -0.000487963022,4.50047797 -0.000487963022,4.74148033 C-0.000487963022,10.5528504 9.21632026,15.2636431 20.5866719,15.2636431 C31.9562104,15.2636431 41.1730186,10.5528504 41.1730186,4.74148033 C41.1730186,4.50047797 41.1510602,4.2610823 41.1201559,4.02329331 L41.1201559,0.64042359 Z" id="Fill-18" fill="#E4C22F" mask="url(#mask-55)"></path>
                            </g>
                            <g id="Group-23" transform="translate(0.000000, 24.972774)">
                                <mask id="mask-57" fill="white">
                                    <use xlink:href="#path-56"></use>
                                </mask>
                                <g id="Clip-22"></g>
                                <path d="M41.1201559,0.64042359 C40.3963441,6.11519375 31.4828862,10.443596 20.5866719,10.443596 C9.69045766,10.443596 0.777813057,6.11599709 0.0531879694,0.641226932 L0.0531879694,4.02329331 C0.0222836447,4.2610823 -0.000487963022,4.50047797 -0.000487963022,4.74148033 C-0.000487963022,10.5528504 9.21632026,15.2636431 20.5866719,15.2636431 C31.9562104,15.2636431 41.1730186,10.5528504 41.1730186,4.74148033 C41.1730186,4.50047797 41.1510602,4.2610823 41.1201559,4.02329331 L41.1201559,0.64042359 Z" id="Fill-21" fill="#EFD44F" mask="url(#mask-57)"></path>
                            </g>
                            <g id="Group-26" transform="translate(0.000000, 10.512633)">
                                <mask id="mask-59" fill="white">
                                    <use xlink:href="#path-58"></use>
                                </mask>
                                <g id="Clip-25"></g>
                                <path d="M41.1201559,0.64042359 C40.3963441,6.11519375 31.4828862,10.443596 20.5866719,10.443596 C9.69045766,10.443596 0.777813057,6.11599709 0.0531879694,0.641226932 L0.0531879694,4.02329331 C0.0222836447,4.2610823 -0.000487963022,4.50047797 -0.000487963022,4.74148033 C-0.000487963022,10.5528504 9.21632026,15.2636431 20.5866719,15.2636431 C31.9562104,15.2636431 41.1730186,10.5528504 41.1730186,4.74148033 C41.1730186,4.50047797 41.1510602,4.2610823 41.1201559,4.02329331 L41.1201559,0.64042359 Z" id="Fill-24" fill="#E4C22F" mask="url(#mask-59)"></path>
                            </g>
                            <g id="Group-29" transform="translate(0.000000, 15.332680)">
                                <mask id="mask-61" fill="white">
                                    <use xlink:href="#path-60"></use>
                                </mask>
                                <g id="Clip-28"></g>
                                <path d="M41.1201559,0.64042359 C40.3963441,6.11519375 31.4828862,10.443596 20.5866719,10.443596 C9.69045766,10.443596 0.777813057,6.11599709 0.0531879694,0.641226932 L0.0531879694,4.02329331 C0.0222836447,4.2610823 -0.000487963022,4.50047797 -0.000487963022,4.74148033 C-0.000487963022,10.5528504 9.21632026,15.2636431 20.5866719,15.2636431 C31.9562104,15.2636431 41.1730186,10.5528504 41.1730186,4.74148033 C41.1730186,4.50047797 41.1510602,4.2610823 41.1201559,4.02329331 L41.1201559,0.64042359 Z" id="Fill-27" fill="#EFD44F" mask="url(#mask-61)"></path>
                            </g>
                            <path d="M35.1889654,10.8047275 C35.1889654,14.3852191 28.6510742,17.2884941 20.5866719,17.2884941 C12.5222697,17.2884941 5.98437851,14.3852191 5.98437851,10.8047275 C5.98437851,7.22262913 12.5222697,4.32015744 20.5866719,4.32015744 C28.6510742,4.32015744 35.1889654,7.22262913 35.1889654,10.8047275" id="Fill-30" fill="#EFD44F"></path>
                            <path d="M25.165229,10.5576197 L18.6492961,10.5576197 L18.6492961,10.9898173 L22.3797734,10.9898173 C23.7184186,10.9898173 24.6463616,10.8452159 25.165229,10.5576197 L25.165229,10.5576197 Z M25.7857553,9.64663081 C25.7857553,9.56308333 25.7784358,9.49479933 25.7654235,9.44017213 L18.6492961,9.44017213 L18.6492961,9.89325655 L25.7556642,9.89325655 C25.7751828,9.81934917 25.7857553,9.73740837 25.7857553,9.64663081 L25.7857553,9.64663081 Z M25.2148386,8.77661231 C24.9261271,8.59907391 24.5617814,8.48017942 24.1218014,8.41992883 C23.8070652,8.37574506 23.2133769,8.35405485 22.3399231,8.35405485 L18.6492961,8.35405485 L18.6492961,8.77661231 L25.2148386,8.77661231 Z M28.4329547,10.5576197 L27.4090456,10.5576197 C27.21874,10.788982 26.9438542,11.0050808 26.5819483,11.2067194 C25.8012075,11.6421303 24.3909943,11.8598358 22.3504956,11.8598358 L18.6492961,11.8598358 L18.6492961,14.8587084 L16.7405474,14.8587084 L16.7405474,10.5576197 L15.3531059,10.5576197 L15.3531059,9.89325655 L16.7405474,9.89325655 L16.7405474,9.44017213 L15.3531059,9.44017213 L15.3531059,8.77661231 L16.7405474,8.77661231 L16.7405474,7.48403635 L22.1829616,7.48403635 C23.114971,7.48403635 23.8461023,7.50733324 24.377982,7.55473037 C25.913439,7.69210172 26.9406011,8.09859235 27.4578419,8.77661231 L28.4329547,8.77661231 L28.4329547,9.44017213 L27.7441136,9.44017213 C27.7506197,9.49078262 27.7538728,9.54942653 27.7538728,9.61690719 C27.7538728,9.70045467 27.7441136,9.79283891 27.7237818,9.89325655 L28.4329547,9.89325655 L28.4329547,10.5576197 Z" id="Fill-32" fill="#D7B129"></path>
                        </g>
                        <g id="Page-1-Copy-3" transform="translate(33.733877, 0.052794)">
                            <g id="Group-3" transform="translate(0.000000, 0.022253)">
                                <mask id="mask-63" fill="white">
                                    <use xlink:href="#path-62"></use>
                                </mask>
                                <g id="Clip-2"></g>
                                <path d="M41.1733439,10.5463729 C41.1733439,16.3569397 31.9557224,21.0677324 20.5869973,21.0677324 C9.21664556,21.0677324 -0.000162654341,16.3569397 -0.000162654341,10.5463729 C-0.000162654341,4.73500282 9.21664556,0.0242101321 20.5869973,0.0242101321 C31.9557224,0.0242101321 41.1733439,4.73500282 41.1733439,10.5463729" id="Fill-1" fill="#EFD44F" mask="url(#mask-63)"></path>
                            </g>
                            <path d="M36.975154,10.8047275 C36.975154,15.1724935 29.6378167,18.7136214 20.5869159,18.7136214 C11.5360151,18.7136214 4.19786455,15.1724935 4.19786455,10.8047275 C4.19786455,6.43615811 11.5360151,2.89503018 20.5869159,2.89503018 C29.6378167,2.89503018 36.975154,6.43615811 36.975154,10.8047275" id="Fill-4" fill="#E4C22F"></path>
                            <g id="Group-8" transform="translate(0.000000, 10.512633)">
                                <mask id="mask-65" fill="white">
                                    <use xlink:href="#path-64"></use>
                                </mask>
                                <g id="Clip-7"></g>
                                <path d="M41.1201559,0.64042359 C40.3963441,6.11519375 31.4828862,10.443596 20.5866719,10.443596 C9.69045766,10.443596 0.777813057,6.11599709 0.0531879694,0.641226932 L0.0531879694,4.02329331 C0.0222836447,4.2610823 -0.000487963022,4.50047797 -0.000487963022,4.74148033 C-0.000487963022,10.5528504 9.21632026,15.2636431 20.5866719,15.2636431 C31.9562104,15.2636431 41.1730186,10.5528504 41.1730186,4.74148033 C41.1730186,4.50047797 41.1510602,4.2610823 41.1201559,4.02329331 L41.1201559,0.64042359 Z" id="Fill-6" fill="#E4C22F" mask="url(#mask-65)"></path>
                            </g>
                            <g id="Group-11" transform="translate(0.000000, 15.332680)">
                                <mask id="mask-67" fill="white">
                                    <use xlink:href="#path-66"></use>
                                </mask>
                                <g id="Clip-10"></g>
                                <path d="M41.1201559,0.64042359 C40.3963441,6.11519375 31.4828862,10.443596 20.5866719,10.443596 C9.69045766,10.443596 0.777813057,6.11599709 0.0531879694,0.641226932 L0.0531879694,4.02329331 C0.0222836447,4.2610823 -0.000487963022,4.50047797 -0.000487963022,4.74148033 C-0.000487963022,10.5528504 9.21632026,15.2636431 20.5866719,15.2636431 C31.9562104,15.2636431 41.1730186,10.5528504 41.1730186,4.74148033 C41.1730186,4.50047797 41.1510602,4.2610823 41.1201559,4.02329331 L41.1201559,0.64042359 Z" id="Fill-9" fill="#EFD44F" mask="url(#mask-67)"></path>
                            </g>
                            <g id="Group-14" transform="translate(0.000000, 29.792821)">
                                <mask id="mask-69" fill="white">
                                    <use xlink:href="#path-68"></use>
                                </mask>
                                <g id="Clip-13"></g>
                                <path d="M41.1201559,0.64042359 C40.3963441,6.11519375 31.4828862,10.443596 20.5866719,10.443596 C9.69045766,10.443596 0.777813057,6.11599709 0.0531879694,0.641226932 L0.0531879694,4.02329331 C0.0222836447,4.2610823 -0.000487963022,4.50047797 -0.000487963022,4.74148033 C-0.000487963022,10.5528504 9.21632026,15.2636431 20.5866719,15.2636431 C31.9562104,15.2636431 41.1730186,10.5528504 41.1730186,4.74148033 C41.1730186,4.50047797 41.1510602,4.2610823 41.1201559,4.02329331 L41.1201559,0.64042359 Z" id="Fill-12" fill="#E4C22F" mask="url(#mask-69)"></path>
                            </g>
                            <g id="Group-17" transform="translate(0.000000, 34.612868)">
                                <mask id="mask-71" fill="white">
                                    <use xlink:href="#path-70"></use>
                                </mask>
                                <g id="Clip-16"></g>
                                <path d="M41.1201559,0.64042359 C40.3963441,6.11519375 31.4828862,10.443596 20.5866719,10.443596 C9.69045766,10.443596 0.777813057,6.11599709 0.0531879694,0.641226932 L0.0531879694,4.02329331 C0.0222836447,4.2610823 -0.000487963022,4.50047797 -0.000487963022,4.74148033 C-0.000487963022,10.5528504 9.21632026,15.2636431 20.5866719,15.2636431 C31.9562104,15.2636431 41.1730186,10.5528504 41.1730186,4.74148033 C41.1730186,4.50047797 41.1510602,4.2610823 41.1201559,4.02329331 L41.1201559,0.64042359 Z" id="Fill-15" fill="#EFD44F" mask="url(#mask-71)"></path>
                            </g>
                            <g id="Group-20" transform="translate(0.000000, 20.152727)">
                                <mask id="mask-73" fill="white">
                                    <use xlink:href="#path-72"></use>
                                </mask>
                                <g id="Clip-19"></g>
                                <path d="M41.1201559,0.64042359 C40.3963441,6.11519375 31.4828862,10.443596 20.5866719,10.443596 C9.69045766,10.443596 0.777813057,6.11599709 0.0531879694,0.641226932 L0.0531879694,4.02329331 C0.0222836447,4.2610823 -0.000487963022,4.50047797 -0.000487963022,4.74148033 C-0.000487963022,10.5528504 9.21632026,15.2636431 20.5866719,15.2636431 C31.9562104,15.2636431 41.1730186,10.5528504 41.1730186,4.74148033 C41.1730186,4.50047797 41.1510602,4.2610823 41.1201559,4.02329331 L41.1201559,0.64042359 Z" id="Fill-18" fill="#E4C22F" mask="url(#mask-73)"></path>
                            </g>
                            <g id="Group-23" transform="translate(0.000000, 24.972774)">
                                <mask id="mask-75" fill="white">
                                    <use xlink:href="#path-74"></use>
                                </mask>
                                <g id="Clip-22"></g>
                                <path d="M41.1201559,0.64042359 C40.3963441,6.11519375 31.4828862,10.443596 20.5866719,10.443596 C9.69045766,10.443596 0.777813057,6.11599709 0.0531879694,0.641226932 L0.0531879694,4.02329331 C0.0222836447,4.2610823 -0.000487963022,4.50047797 -0.000487963022,4.74148033 C-0.000487963022,10.5528504 9.21632026,15.2636431 20.5866719,15.2636431 C31.9562104,15.2636431 41.1730186,10.5528504 41.1730186,4.74148033 C41.1730186,4.50047797 41.1510602,4.2610823 41.1201559,4.02329331 L41.1201559,0.64042359 Z" id="Fill-21" fill="#EFD44F" mask="url(#mask-75)"></path>
                            </g>
                            <g id="Group-26" transform="translate(0.000000, 10.512633)">
                                <mask id="mask-77" fill="white">
                                    <use xlink:href="#path-76"></use>
                                </mask>
                                <g id="Clip-25"></g>
                                <path d="M41.1201559,0.64042359 C40.3963441,6.11519375 31.4828862,10.443596 20.5866719,10.443596 C9.69045766,10.443596 0.777813057,6.11599709 0.0531879694,0.641226932 L0.0531879694,4.02329331 C0.0222836447,4.2610823 -0.000487963022,4.50047797 -0.000487963022,4.74148033 C-0.000487963022,10.5528504 9.21632026,15.2636431 20.5866719,15.2636431 C31.9562104,15.2636431 41.1730186,10.5528504 41.1730186,4.74148033 C41.1730186,4.50047797 41.1510602,4.2610823 41.1201559,4.02329331 L41.1201559,0.64042359 Z" id="Fill-24" fill="#E4C22F" mask="url(#mask-77)"></path>
                            </g>
                            <g id="Group-29" transform="translate(0.000000, 15.332680)">
                                <mask id="mask-79" fill="white">
                                    <use xlink:href="#path-78"></use>
                                </mask>
                                <g id="Clip-28"></g>
                                <path d="M41.1201559,0.64042359 C40.3963441,6.11519375 31.4828862,10.443596 20.5866719,10.443596 C9.69045766,10.443596 0.777813057,6.11599709 0.0531879694,0.641226932 L0.0531879694,4.02329331 C0.0222836447,4.2610823 -0.000487963022,4.50047797 -0.000487963022,4.74148033 C-0.000487963022,10.5528504 9.21632026,15.2636431 20.5866719,15.2636431 C31.9562104,15.2636431 41.1730186,10.5528504 41.1730186,4.74148033 C41.1730186,4.50047797 41.1510602,4.2610823 41.1201559,4.02329331 L41.1201559,0.64042359 Z" id="Fill-27" fill="#EFD44F" mask="url(#mask-79)"></path>
                            </g>
                            <path d="M35.1889654,10.8047275 C35.1889654,14.3852191 28.6510742,17.2884941 20.5866719,17.2884941 C12.5222697,17.2884941 5.98437851,14.3852191 5.98437851,10.8047275 C5.98437851,7.22262913 12.5222697,4.32015744 20.5866719,4.32015744 C28.6510742,4.32015744 35.1889654,7.22262913 35.1889654,10.8047275" id="Fill-30" fill="#EFD44F"></path>
                            <path d="M25.165229,10.5576197 L18.6492961,10.5576197 L18.6492961,10.9898173 L22.3797734,10.9898173 C23.7184186,10.9898173 24.6463616,10.8452159 25.165229,10.5576197 L25.165229,10.5576197 Z M25.7857553,9.64663081 C25.7857553,9.56308333 25.7784358,9.49479933 25.7654235,9.44017213 L18.6492961,9.44017213 L18.6492961,9.89325655 L25.7556642,9.89325655 C25.7751828,9.81934917 25.7857553,9.73740837 25.7857553,9.64663081 L25.7857553,9.64663081 Z M25.2148386,8.77661231 C24.9261271,8.59907391 24.5617814,8.48017942 24.1218014,8.41992883 C23.8070652,8.37574506 23.2133769,8.35405485 22.3399231,8.35405485 L18.6492961,8.35405485 L18.6492961,8.77661231 L25.2148386,8.77661231 Z M28.4329547,10.5576197 L27.4090456,10.5576197 C27.21874,10.788982 26.9438542,11.0050808 26.5819483,11.2067194 C25.8012075,11.6421303 24.3909943,11.8598358 22.3504956,11.8598358 L18.6492961,11.8598358 L18.6492961,14.8587084 L16.7405474,14.8587084 L16.7405474,10.5576197 L15.3531059,10.5576197 L15.3531059,9.89325655 L16.7405474,9.89325655 L16.7405474,9.44017213 L15.3531059,9.44017213 L15.3531059,8.77661231 L16.7405474,8.77661231 L16.7405474,7.48403635 L22.1829616,7.48403635 C23.114971,7.48403635 23.8461023,7.50733324 24.377982,7.55473037 C25.913439,7.69210172 26.9406011,8.09859235 27.4578419,8.77661231 L28.4329547,8.77661231 L28.4329547,9.44017213 L27.7441136,9.44017213 C27.7506197,9.49078262 27.7538728,9.54942653 27.7538728,9.61690719 C27.7538728,9.70045467 27.7441136,9.79283891 27.7237818,9.89325655 L28.4329547,9.89325655 L28.4329547,10.5576197 Z" id="Fill-32" fill="#D7B129"></path>
                        </g>
                        <g id="Page-1-Copy-10" transform="translate(0.233339, 32.186441)">
                            <g id="Group-3" transform="translate(0.000000, 0.022253)">
                                <mask id="mask-81" fill="white">
                                    <use xlink:href="#path-80"></use>
                                </mask>
                                <g id="Clip-2"></g>
                                <path d="M41.1733439,10.5463729 C41.1733439,16.3569397 31.9557224,21.0677324 20.5869973,21.0677324 C9.21664556,21.0677324 -0.000162654341,16.3569397 -0.000162654341,10.5463729 C-0.000162654341,4.73500282 9.21664556,0.0242101321 20.5869973,0.0242101321 C31.9557224,0.0242101321 41.1733439,4.73500282 41.1733439,10.5463729" id="Fill-1" fill="#EFD44F" mask="url(#mask-81)"></path>
                            </g>
                            <path d="M36.975154,10.8047275 C36.975154,15.1724935 29.6378167,18.7136214 20.5869159,18.7136214 C11.5360151,18.7136214 4.19786455,15.1724935 4.19786455,10.8047275 C4.19786455,6.43615811 11.5360151,2.89503018 20.5869159,2.89503018 C29.6378167,2.89503018 36.975154,6.43615811 36.975154,10.8047275" id="Fill-4" fill="#E4C22F"></path>
                            <g id="Group-8" transform="translate(0.000000, 10.512633)">
                                <mask id="mask-83" fill="white">
                                    <use xlink:href="#path-82"></use>
                                </mask>
                                <g id="Clip-7"></g>
                                <path d="M41.1201559,0.64042359 C40.3963441,6.11519375 31.4828862,10.443596 20.5866719,10.443596 C9.69045766,10.443596 0.777813057,6.11599709 0.0531879694,0.641226932 L0.0531879694,4.02329331 C0.0222836447,4.2610823 -0.000487963022,4.50047797 -0.000487963022,4.74148033 C-0.000487963022,10.5528504 9.21632026,15.2636431 20.5866719,15.2636431 C31.9562104,15.2636431 41.1730186,10.5528504 41.1730186,4.74148033 C41.1730186,4.50047797 41.1510602,4.2610823 41.1201559,4.02329331 L41.1201559,0.64042359 Z" id="Fill-6" fill="#E4C22F" mask="url(#mask-83)"></path>
                            </g>
                            <g id="Group-11" transform="translate(0.000000, 15.332680)">
                                <mask id="mask-85" fill="white">
                                    <use xlink:href="#path-84"></use>
                                </mask>
                                <g id="Clip-10"></g>
                                <path d="M41.1201559,0.64042359 C40.3963441,6.11519375 31.4828862,10.443596 20.5866719,10.443596 C9.69045766,10.443596 0.777813057,6.11599709 0.0531879694,0.641226932 L0.0531879694,4.02329331 C0.0222836447,4.2610823 -0.000487963022,4.50047797 -0.000487963022,4.74148033 C-0.000487963022,10.5528504 9.21632026,15.2636431 20.5866719,15.2636431 C31.9562104,15.2636431 41.1730186,10.5528504 41.1730186,4.74148033 C41.1730186,4.50047797 41.1510602,4.2610823 41.1201559,4.02329331 L41.1201559,0.64042359 Z" id="Fill-9" fill="#EFD44F" mask="url(#mask-85)"></path>
                            </g>
                            <g id="Group-14" transform="translate(0.000000, 29.792821)">
                                <mask id="mask-87" fill="white">
                                    <use xlink:href="#path-86"></use>
                                </mask>
                                <g id="Clip-13"></g>
                                <path d="M41.1201559,0.64042359 C40.3963441,6.11519375 31.4828862,10.443596 20.5866719,10.443596 C9.69045766,10.443596 0.777813057,6.11599709 0.0531879694,0.641226932 L0.0531879694,4.02329331 C0.0222836447,4.2610823 -0.000487963022,4.50047797 -0.000487963022,4.74148033 C-0.000487963022,10.5528504 9.21632026,15.2636431 20.5866719,15.2636431 C31.9562104,15.2636431 41.1730186,10.5528504 41.1730186,4.74148033 C41.1730186,4.50047797 41.1510602,4.2610823 41.1201559,4.02329331 L41.1201559,0.64042359 Z" id="Fill-12" fill="#E4C22F" mask="url(#mask-87)"></path>
                            </g>
                            <g id="Group-17" transform="translate(0.000000, 34.612868)">
                                <mask id="mask-89" fill="white">
                                    <use xlink:href="#path-88"></use>
                                </mask>
                                <g id="Clip-16"></g>
                                <path d="M41.1201559,0.64042359 C40.3963441,6.11519375 31.4828862,10.443596 20.5866719,10.443596 C9.69045766,10.443596 0.777813057,6.11599709 0.0531879694,0.641226932 L0.0531879694,4.02329331 C0.0222836447,4.2610823 -0.000487963022,4.50047797 -0.000487963022,4.74148033 C-0.000487963022,10.5528504 9.21632026,15.2636431 20.5866719,15.2636431 C31.9562104,15.2636431 41.1730186,10.5528504 41.1730186,4.74148033 C41.1730186,4.50047797 41.1510602,4.2610823 41.1201559,4.02329331 L41.1201559,0.64042359 Z" id="Fill-15" fill="#EFD44F" mask="url(#mask-89)"></path>
                            </g>
                            <g id="Group-20" transform="translate(0.000000, 20.152727)">
                                <mask id="mask-91" fill="white">
                                    <use xlink:href="#path-90"></use>
                                </mask>
                                <g id="Clip-19"></g>
                                <path d="M41.1201559,0.64042359 C40.3963441,6.11519375 31.4828862,10.443596 20.5866719,10.443596 C9.69045766,10.443596 0.777813057,6.11599709 0.0531879694,0.641226932 L0.0531879694,4.02329331 C0.0222836447,4.2610823 -0.000487963022,4.50047797 -0.000487963022,4.74148033 C-0.000487963022,10.5528504 9.21632026,15.2636431 20.5866719,15.2636431 C31.9562104,15.2636431 41.1730186,10.5528504 41.1730186,4.74148033 C41.1730186,4.50047797 41.1510602,4.2610823 41.1201559,4.02329331 L41.1201559,0.64042359 Z" id="Fill-18" fill="#E4C22F" mask="url(#mask-91)"></path>
                            </g>
                            <g id="Group-23" transform="translate(0.000000, 24.972774)">
                                <mask id="mask-93" fill="white">
                                    <use xlink:href="#path-92"></use>
                                </mask>
                                <g id="Clip-22"></g>
                                <path d="M41.1201559,0.64042359 C40.3963441,6.11519375 31.4828862,10.443596 20.5866719,10.443596 C9.69045766,10.443596 0.777813057,6.11599709 0.0531879694,0.641226932 L0.0531879694,4.02329331 C0.0222836447,4.2610823 -0.000487963022,4.50047797 -0.000487963022,4.74148033 C-0.000487963022,10.5528504 9.21632026,15.2636431 20.5866719,15.2636431 C31.9562104,15.2636431 41.1730186,10.5528504 41.1730186,4.74148033 C41.1730186,4.50047797 41.1510602,4.2610823 41.1201559,4.02329331 L41.1201559,0.64042359 Z" id="Fill-21" fill="#EFD44F" mask="url(#mask-93)"></path>
                            </g>
                            <g id="Group-26" transform="translate(0.000000, 10.512633)">
                                <mask id="mask-95" fill="white">
                                    <use xlink:href="#path-94"></use>
                                </mask>
                                <g id="Clip-25"></g>
                                <path d="M41.1201559,0.64042359 C40.3963441,6.11519375 31.4828862,10.443596 20.5866719,10.443596 C9.69045766,10.443596 0.777813057,6.11599709 0.0531879694,0.641226932 L0.0531879694,4.02329331 C0.0222836447,4.2610823 -0.000487963022,4.50047797 -0.000487963022,4.74148033 C-0.000487963022,10.5528504 9.21632026,15.2636431 20.5866719,15.2636431 C31.9562104,15.2636431 41.1730186,10.5528504 41.1730186,4.74148033 C41.1730186,4.50047797 41.1510602,4.2610823 41.1201559,4.02329331 L41.1201559,0.64042359 Z" id="Fill-24" fill="#E4C22F" mask="url(#mask-95)"></path>
                            </g>
                            <g id="Group-29" transform="translate(0.000000, 15.332680)">
                                <mask id="mask-97" fill="white">
                                    <use xlink:href="#path-96"></use>
                                </mask>
                                <g id="Clip-28"></g>
                                <path d="M41.1201559,0.64042359 C40.3963441,6.11519375 31.4828862,10.443596 20.5866719,10.443596 C9.69045766,10.443596 0.777813057,6.11599709 0.0531879694,0.641226932 L0.0531879694,4.02329331 C0.0222836447,4.2610823 -0.000487963022,4.50047797 -0.000487963022,4.74148033 C-0.000487963022,10.5528504 9.21632026,15.2636431 20.5866719,15.2636431 C31.9562104,15.2636431 41.1730186,10.5528504 41.1730186,4.74148033 C41.1730186,4.50047797 41.1510602,4.2610823 41.1201559,4.02329331 L41.1201559,0.64042359 Z" id="Fill-27" fill="#EFD44F" mask="url(#mask-97)"></path>
                            </g>
                            <path d="M35.1889654,10.8047275 C35.1889654,14.3852191 28.6510742,17.2884941 20.5866719,17.2884941 C12.5222697,17.2884941 5.98437851,14.3852191 5.98437851,10.8047275 C5.98437851,7.22262913 12.5222697,4.32015744 20.5866719,4.32015744 C28.6510742,4.32015744 35.1889654,7.22262913 35.1889654,10.8047275" id="Fill-30" fill="#EFD44F"></path>
                            <path d="M25.165229,10.5576197 L18.6492961,10.5576197 L18.6492961,10.9898173 L22.3797734,10.9898173 C23.7184186,10.9898173 24.6463616,10.8452159 25.165229,10.5576197 L25.165229,10.5576197 Z M25.7857553,9.64663081 C25.7857553,9.56308333 25.7784358,9.49479933 25.7654235,9.44017213 L18.6492961,9.44017213 L18.6492961,9.89325655 L25.7556642,9.89325655 C25.7751828,9.81934917 25.7857553,9.73740837 25.7857553,9.64663081 L25.7857553,9.64663081 Z M25.2148386,8.77661231 C24.9261271,8.59907391 24.5617814,8.48017942 24.1218014,8.41992883 C23.8070652,8.37574506 23.2133769,8.35405485 22.3399231,8.35405485 L18.6492961,8.35405485 L18.6492961,8.77661231 L25.2148386,8.77661231 Z M28.4329547,10.5576197 L27.4090456,10.5576197 C27.21874,10.788982 26.9438542,11.0050808 26.5819483,11.2067194 C25.8012075,11.6421303 24.3909943,11.8598358 22.3504956,11.8598358 L18.6492961,11.8598358 L18.6492961,14.8587084 L16.7405474,14.8587084 L16.7405474,10.5576197 L15.3531059,10.5576197 L15.3531059,9.89325655 L16.7405474,9.89325655 L16.7405474,9.44017213 L15.3531059,9.44017213 L15.3531059,8.77661231 L16.7405474,8.77661231 L16.7405474,7.48403635 L22.1829616,7.48403635 C23.114971,7.48403635 23.8461023,7.50733324 24.377982,7.55473037 C25.913439,7.69210172 26.9406011,8.09859235 27.4578419,8.77661231 L28.4329547,8.77661231 L28.4329547,9.44017213 L27.7441136,9.44017213 C27.7506197,9.49078262 27.7538728,9.54942653 27.7538728,9.61690719 C27.7538728,9.70045467 27.7441136,9.79283891 27.7237818,9.89325655 L28.4329547,9.89325655 L28.4329547,10.5576197 Z" id="Fill-32" fill="#D7B129"></path>
                        </g>
                    </g>
                </g>
            </g>
        </g>
    </g>
</svg>