<?xml version="1.0" encoding="utf-8"?>
<!-- Generator: Adobe Illustrator 18.0.0, SVG Export Plug-In . SVG Version: 6.00 Build 0)  -->
<!DOCTYPE svg PUBLIC "-//W3C//DTD SVG 1.1//EN" "http://www.w3.org/Graphics/SVG/1.1/DTD/svg11.dtd">
<svg version="1.1" id="Layer_1" xmlns="http://www.w3.org/2000/svg" xmlns:xlink="http://www.w3.org/1999/xlink" x="0px" y="0px"
	 viewBox="0 0 800 800" enable-background="new 0 0 800 800" xml:space="preserve">
<rect fill="#D9DADE" width="800" height="800"/>
<g>
	<defs>
		<rect id="SVGID_1_" width="800" height="800"/>
	</defs>
	<clipPath id="SVGID_2_">
		<use xlink:href="#SVGID_1_"  overflow="visible"/>
	</clipPath>
	<g clip-path="url(#SVGID_2_)">
		<path fill="#FACAB9" d="M743,1149.4L743,1149.4c-27.8,7.4-56.8-9.4-64.4-37.2L520.6,626.5c-7.4-28.1,9.1-57,37.2-64.6
			c27.8-7.4,56.8,9.4,64.4,37.2l158.1,486C787.6,1112.9,770.9,1142,743,1149.4"/>
		<path fill="#723D25" d="M193.7,667.4c0,0-40.2-8-52.2-35.7c0,0,23.9,6.1,35.9-17c12-23,7.4-43.7,19.1-64.6
			c0,0-20.4-10.4-19.6-28.3c0,0,28.9,22.6,48.7-10.4c19.6-33.1,8.9-63.1-2.2-79.4s-25.2-47.2-10.9-83.1
			c14.6-36.1,33.1-48.9,39.4-74.6c6.3-25.7,6.7-69.8,32-103.3c25.2-33.5,72.4-63.5,142.2-35.2c0,0,53.5-10,93.1,30
			c39.6,40,70.5,72.8,69.1,124.8c-1.5,52-19.6,56.8-12.6,83.9s17.4,61.5,2.2,85c-15.2,23.5-17.4,57,10.4,69.4
			c0,0-19.8,12.6-42.8-9.1c0,0-6.7,54.1-42.2,80.9L426,667.4L193.7,667.4z"/>
		<path fill="#FACAB9" d="M537.3,1733.1c0-0.2,0-0.4,0-0.7v-704.8c0-35.9-23-65-51.3-65s-51.3,29.4-51.3,65v704.8c0,0.2,0,0.4,0,0.7
			H537.3z"/>
		<path fill="#C1826F" d="M497.3,1665.9h-22.8c-34.4,0-62.6,32.2-62.6,71.3v11.5v7.4v0.4c0,3.9,2.8,7.2,6.3,7.2h135.5
			c3.5,0,6.3-3.3,6.3-7.2v-0.4v-7.4v-11.5C559.9,1698.1,531.7,1665.9,497.3,1665.9"/>
		<path fill="#9F6757" d="M411.9,1740.5v8.3v7.4v0.4c0,3.9,2.8,7.2,6.3,7.2h135.5c3.5,0,6.3-3.3,6.3-7.2v-0.4v-7.4v-8.3H411.9z"/>
		<path fill="#FACAB9" d="M378.4,1733.1c0-0.2,0-0.4,0-0.7v-704.8c0-35.9-23-65-51.3-65c-28.3,0-51.3,29.4-51.3,65v704.8
			c0,0.2,0,0.4,0,0.7H378.4z"/>
		<path fill="#C1826F" d="M338.4,1665.9h-22.8c-34.4,0-62.6,32.2-62.6,71.3v11.5v7.4v0.4c0,3.9,2.8,7.2,6.3,7.2h135.5
			c3.5,0,6.3-3.3,6.3-7.2v-0.4v-7.4v-11.5C401.2,1698.1,372.9,1665.9,338.4,1665.9"/>
		<path fill="#9F6757" d="M253.1,1740.5v8.3v7.4v0.4c0,3.9,2.8,7.2,6.3,7.2h135.5c3.5,0,6.3-3.3,6.3-7.2v-0.4v-7.4v-8.3H253.1z"/>
		<path fill="#FACAB9" d="M404.7,1205.5L404.7,1205.5c-86.1,0-156.8-87.2-156.8-193.7V708.5c0-106.6,70.5-193.7,156.8-193.7
			c86.1,0,156.8,87.2,156.8,193.7v303.3C561.5,1118.3,491,1205.5,404.7,1205.5"/>
		<rect x="347.1" y="469" fill="#FACAB9" width="115.2" height="92"/>
		<path fill="#FACAB9" d="M500.6,1062.5H308.8c-33.5,0-60.9-40.4-60.9-89.8V622.6c-1.3-40.4,6.5-66.1,41.3-83.9l76.5-23.7h78.1
			l78.9,25.2c35.2,22.4,37.4,37.6,38.7,82.6v350.1C561.5,1022,534.1,1062.5,500.6,1062.5"/>
		<path fill="#FACAB9" d="M69.8,1149.4L69.8,1149.4c27.8,7.4,56.8-9.4,64.4-37.2l158.1-485.8c7.4-28.1-9.1-57-37.2-64.6
			c-27.8-7.4-56.8,9.4-64.4,37.2l-157.9,486C25.2,1112.9,42,1142,69.8,1149.4"/>
		<path fill="#E39384" d="M351,487.3c15.7,14.4,33.9,22.8,53.3,23.3h1.1c19.4-0.4,37.6-8.9,53.3-23.3H351z"/>
		<path fill="#F9C9B7" d="M404.9,498.4L404.9,498.4c-72.8,0-132.2-50.2-132.2-123.1v-48.1c0-73.1,59.6-132.9,132.2-132.9
			c72.8,0,132.2,59.8,132.2,132.9v48.1C537.3,448.4,477.7,498.4,404.9,498.4"/>
		<path fill="#ED4663" d="M350.1,425.6c0,0,25.7,34.4,55,34.8c29.4,0.7,60.7-36.5,60.7-36.5s-22.6,24.6-61.3,24.6
			S350.1,425.6,350.1,425.6z"/>
		<path fill="#8B2A22" d="M465.6,402.5h-57.4h-3.3h-57.4c0,0-9.6,0-6.3,10.7c0,0,12.2,35.9,63.7,37.2l0,0c0.7,0,1.1,0,1.5,0
			s1.1,0,1.5,0l0,0c51.8-1.3,63.9-37.2,63.9-37.2C475.1,402.5,465.6,402.5,465.6,402.5"/>
		<path fill="#DB6565" d="M406.4,428.2c-12.6,0-23.7,7-29.4,17.4c7.6,2.8,16.7,4.6,27.8,5l0,0c0.7,0,1.1,0,1.5,0s1.1,0,1.5,0l0,0
			c10.9-0.2,20-2.2,27.8-5C430.1,435.1,419.2,428.2,406.4,428.2"/>
		<path fill="#FFFFFF" d="M465.6,402.5h-57.4h-3.3h-57.4c0,0-9.6,0-6.3,10.7c0,0,1.3,3.7,4.6,8.5h121.6c3.3-5,4.6-8.5,4.6-8.5
			C475.1,402.5,465.6,402.5,465.6,402.5"/>
		<path fill="#E49483" d="M404.9,372.7c-8,0-15.2-3.5-19.1-8.5v1.1c0,8.3,8.7,15,19.1,15s19.1-6.7,19.1-15v-1.1
			C420.1,369.2,412.9,372.7,404.9,372.7"/>
		<path fill="#F8B4A8" d="M342.7,370.5c0,10.7-8.5,19.1-19.1,19.1s-19.1-8.7-19.1-19.1c0-10.7,8.5-19.1,19.1-19.1
			C334.2,351.4,342.7,359.9,342.7,370.5"/>
		<path fill="#F8B4A8" d="M505.4,370.5c0,10.7-8.5,19.1-19.1,19.1c-10.7,0-19.1-8.7-19.1-19.1c0-10.7,8.5-19.1,19.1-19.1
			C496.9,351.4,505.4,359.9,505.4,370.5"/>
		<path fill="#612F1C" d="M336.6,339.7c-6.7,0-13,1.1-17.8,2.8v-2.6c0-10,8-18,17.8-18c9.8,0,17.8,8,17.8,18v2.6l0,0
			C349.7,340.7,343.6,339.7,336.6,339.7"/>
		<path fill="#612F1C" d="M332.9,327.3L332.9,327.3c0.7-0.4,0.9-1.5,0.4-2l-5.4-7.2c-0.4-0.7-1.3-0.7-2-0.2l0,0
			c-0.7,0.4-0.7,1.3-0.2,2l5.4,7.2C331.4,327.5,332.3,327.7,332.9,327.3"/>
		<path fill="#612F1C" d="M326.4,332.3L326.4,332.3c0.7-0.4,0.9-1.5,0.4-2l-5.4-7.2c-0.4-0.7-1.3-0.7-2-0.2l0,0
			c-0.7,0.4-0.7,1.3-0.2,2l5.4,7.2C324.9,332.5,325.7,332.7,326.4,332.3"/>
		<path fill="#612F1C" d="M470.6,339.7c6.7,0,13,1.1,17.8,2.8v-2.6c0-10-8-18-17.8-18c-9.8,0-17.8,8-17.8,18v2.6
			C457.5,340.7,463.8,339.7,470.6,339.7"/>
		<path fill="#612F1C" d="M474.3,327.3L474.3,327.3c-0.7-0.4-0.9-1.5-0.4-2l5.4-7.2c0.4-0.7,1.3-0.7,2-0.2l0,0
			c0.7,0.4,0.7,1.3,0.2,2L476,327C475.8,327.5,474.9,327.7,474.3,327.3"/>
		<path fill="#612F1C" d="M481,332.3L481,332.3c-0.7-0.4-0.9-1.5-0.4-2l5.4-7.2c0.4-0.7,1.3-0.7,2-0.2l0,0c0.7,0.4,0.7,1.3,0.2,2
			l-5.4,7.2C482.5,332.5,481.7,332.7,481,332.3"/>
		<path fill="#ED4663" d="M345.3,402.7h121.3c0,0-22.4-11.1-60.7-1.5C406,401.2,379.9,391,345.3,402.7z"/>
		<path fill="#723D25" d="M269.2,323.3c0,0,45-27.8,67.2-78.7c0,0,52.2,45.4,114.6,56.5c0,0-27.6-8.3-39.4-22.8
			c0,0,56.5,36.1,122,36.1h22.6l-12.6-72l-68.7-82.6l-105.7-13.9l-72,22.6l-30.4,73.1l-13.9,80.2L269.2,323.3z"/>
		<g>
			<circle fill="#FFFFFF" cx="336.2" cy="509.3" r="4.8"/>
			<circle fill="#FFFFFF" cx="336.2" cy="524.3" r="4.8"/>
			<circle fill="#FFFFFF" cx="338.6" cy="540.4" r="4.8"/>
			<circle fill="#FFFFFF" cx="343.4" cy="554.9" r="4.8"/>
			<circle fill="#FFFFFF" cx="351.4" cy="567.3" r="4.8"/>
			<circle fill="#FFFFFF" cx="362.3" cy="577.5" r="4.8"/>
			<circle fill="#FFFFFF" cx="376.4" cy="584.3" r="4.8"/>
			<circle fill="#FFFFFF" cx="391.2" cy="587.8" r="4.8"/>
			<circle fill="#FFFFFF" cx="406.4" cy="589.1" r="4.8"/>
			<circle fill="#FFFFFF" cx="422.1" cy="586.9" r="4.8"/>
			<circle fill="#FFFFFF" cx="435.8" cy="583" r="4.8"/>
			<circle fill="#FFFFFF" cx="449.9" cy="576.7" r="4.8"/>
			<circle fill="#FFFFFF" cx="461.4" cy="566.2" r="4.8"/>
			<circle fill="#FFFFFF" cx="470.1" cy="554.3" r="4.8"/>
			<circle fill="#FFFFFF" cx="473.6" cy="539.5" r="4.8"/>
			<circle fill="#FFFFFF" cx="473.6" cy="524.5" r="4.8"/>
			<circle fill="#FFFFFF" cx="473.6" cy="509.1" r="4.8"/>
		</g>
		<path fill="#F89013" d="M602.6,1366.9l-31.1-437.1V556.7l-48.7-16.7c0,0-36.1,79.2-118.9,79.2s-114.6-80.5-114.6-80.5l-51.5,19.8
			v371.2l-37,437.5h401.8V1366.9z"/>
		<path fill="#3A4668" d="M571.5,936.3H469.9c-4.8,0-8.7-3.9-8.7-8.7s3.9-8.7,8.7-8.7h101.5c4.8,0,8.7,3.9,8.7,8.7
			C579.9,932.4,576,936.3,571.5,936.3z"/>
		<path fill="#3A4668" d="M355.1,936.3H237.9c-4.8,0-8.7-3.9-8.7-8.7s3.9-8.7,8.7-8.7h117.2c4.8,0,8.7,3.9,8.7,8.7
			C363.6,932.4,359.7,936.3,355.1,936.3z"/>
		<path fill="#FEC376" d="M421.2,954.8h-23.7c-12.2,0-22-9.8-22-22v-5.7c0-12.2,9.8-22,22-22h23.7c12.2,0,22,9.8,22,22v5.7
			C443.2,945,433.2,954.8,421.2,954.8z M397.3,922.4c-2.6,0-4.8,2.2-4.8,4.8v5.7c0,2.6,2.2,4.8,4.8,4.8H421c2.6,0,4.8-2.2,4.8-4.8
			v-5.7c0-2.6-2.2-4.8-4.8-4.8H397.3z"/>
		<rect x="406.6" y="926.3" fill="#FED9AE" width="47" height="6.5"/>
		<g>
			<path fill="#FFFFFF" d="M541.2,745.4h-72c-7.6,0-13.9-6.3-13.9-13.9v-29.8c0-7.6,6.3-13.9,13.9-13.9h72c7.6,0,13.9,6.3,13.9,13.9
				v29.8C555.4,739.1,549.1,745.4,541.2,745.4z"/>
			<path fill="#00BF66" d="M455.3,707.4v-5.9c0-7.6,6.1-13.7,13.7-13.7h72.4c7.6,0,13.7,6.1,13.7,13.7v5.9H455.3z"/>
			<rect x="499.9" y="679.3" fill="#424559" width="10.7" height="16.7"/>
			<g>
				<rect x="477.1" y="720" fill="#939598" width="11.7" height="11.7"/>
				<rect x="499.3" y="720" fill="#939598" width="11.7" height="11.7"/>
				<rect x="521.7" y="720" fill="#939598" width="11.7" height="11.7"/>
			</g>
		</g>
		<g>
			<path fill="none" stroke="#707070" stroke-width="2" stroke-miterlimit="10" d="M267.9,376.6v67.8c0,0,0.2,47.4,45.9,47.4
				s63.7,0,63.7,0"/>
			<path fill="none" stroke="#FFFFFF" stroke-width="3" stroke-miterlimit="10" d="M259,315.3V299c0-80.5,65.2-145.7,145.7-145.7
				S550.4,218.5,550.4,299v16.3"/>
			<path fill="#FFFFFF" d="M535.1,331.8c0,0-0.2-10.7,6.7-15.2c7-4.6,21.7-3,23.5,23.7c1.7,27-3.9,39.6-10.4,46.1
				c-4.3,4.3-19.8,3.5-19.8-15.7C535.1,363.1,535.1,331.8,535.1,331.8z"/>
			<path fill="#FFFFFF" d="M274.4,331.8c0,0,0.2-10.7-6.7-15.2c-7-4.6-21.7-3-23.5,23.7c-1.7,27,3.9,39.6,10.4,46.1
				c4.3,4.3,19.8,3.5,19.8-15.7C274.4,363.1,274.4,331.8,274.4,331.8z"/>
			<circle fill="#707070" cx="377.5" cy="491.9" r="11.5"/>
		</g>
	</g>
</g>
</svg>
