<?xml version="1.0" encoding="utf-8"?>
<!-- Generator: Adobe Illustrator 18.0.0, SVG Export Plug-In . SVG Version: 6.00 Build 0)  -->
<!DOCTYPE svg PUBLIC "-//W3C//DTD SVG 1.1//EN" "http://www.w3.org/Graphics/SVG/1.1/DTD/svg11.dtd">
<svg version="1.1" id="Layer_1" xmlns="http://www.w3.org/2000/svg" xmlns:xlink="http://www.w3.org/1999/xlink" x="0px" y="0px"
	 viewBox="0 0 528.4 528.4" enable-background="new 0 0 528.4 528.4" xml:space="preserve">
<rect x="0" y="0" fill="#D9DADE" width="528.4" height="528.4"/>
<g>
	<defs>
		<rect id="SVGID_1_" x="0" y="0" width="528.4" height="528.4"/>
	</defs>
	<clipPath id="SVGID_2_">
		<use xlink:href="#SVGID_1_"  overflow="visible"/>
	</clipPath>
	<g clip-path="url(#SVGID_2_)">
		<path fill="#7A391E" d="M126.2,441c0,0-25.4-5.3-27.7-20.1c0,0,9.8,10.2,22.8-12.3c7.9-15.2-2.1-31.7,6.5-47.4
			c0,0-15.3-3.6-13-17.7c0,0,18.7,15.6,31.8-6.3c13-21.9,5.5-40.8-1.8-51.6s-17.3-33.6-7.7-57.5s21.8-31.2,26-48.2
			s6.4-47.5,23.1-69.7s47.6-41.4,93.8-22.7c0,0,35.5-5.1,61.8,21.4c26.3,26.6,46.7,48.2,45.7,82.6c-1,34.4-13,37.6-8.4,55.6
			s10.9,40.6,0.8,56.1c-10.1,15.5-13.3,32.3,6.7,45.7c0,0-13.3,8-28.9-7.5c0,0,2.8,18.1-29,50.3L280,441L126.2,441z"/>
		<path fill="#FFC8B6" d="M350.7,360.4l-44.5-17.2H306v-25h-74v25.4l-40.2,16C168.1,371.7,163,389,164,416.3v236.4
			c0,33.3,18.3,60.6,41.2,60.6h130.7c22.8,0,41.2-27.2,41.2-60.6V416.3C376,386,374.7,375.5,350.7,360.4z"/>
		<path fill="#F08F81" d="M232.4,327.6c0,0,15.2,18.3,36.8,18.3c21.7,0,36.8-16,36.8-16v-8.3h-73.7V327.6z"/>
		<path fill="#FFC8B6" d="M361.3,239.8v-45.8l-51.3-51.3h-40.1h-40.1l-51.3,51.3v45.8c0,0-3.8,35.2,24.2,61s52.5,34.2,67.2,34.2
			c14.8,0,39.3-8.3,67.3-34.2S361.3,239.8,361.3,239.8z"/>
		<path fill="#FFC8B6" d="M153,796.1L153,796.1c19.6-1.1,34.8-18,33.8-37.6l-0.1-345.2c-1.1-19.5-18-34.6-37.6-33.5
			c-19.6,1.1-34.8,18-33.8,37.6l0.1,345.2C116.4,782.1,133.3,797.2,153,796.1"/>
		<path fill="#FFC8B6" d="M126.6,389.5c0,0,6.4-6.3,17.1-10.6s12.1-4.9,12.1-4.9v14.5L126.6,389.5z"/>
		<path fill="#FFC8B6" d="M385.6,796.1L385.6,796.1c-19.6-1.1-34.8-18-33.8-37.6l0.1-345.2c1.1-19.5,18-34.6,37.6-33.5
			c19.6,1.1,34.8,18,33.8,37.6l-0.1,345.2C422.2,782.1,405.2,797.2,385.6,796.1"/>
		<path fill="#FFC8B6" d="M412,389.5c0,0-6.4-6.3-17.1-10.6s-12.1-4.9-12.1-4.9v14.5L412,389.5z"/>
		<path fill="#F89013" d="M405.3,918.7l-21.4-295V371.8l-33.5-11.3c0,0-24.9,53.4-81.7,53.4s-78.8-54.4-78.8-54.4l-35.5,13.3v250.6
			l-25.4,295.3H405.3z"/>
		<g>
			<path fill="#FFFFFF" d="M357.6,494.2h-45.4c-5.2,0-9.5-4.3-9.5-9.5v-19.6c0-5.2,4.3-9.5,9.5-9.5h45.4c5.2,0,9.5,4.3,9.5,9.5v19.6
				C367.1,489.9,362.8,494.2,357.6,494.2z"/>
			<path fill="#00C456" d="M302.7,468.6v-3.5c0-5.2,4.3-9.5,9.5-9.5h45.4c5.2,0,9.5,4.3,9.5,9.5v3.5H302.7z"/>
			<path fill="#41455B" d="M335,460.8L335,460.8c-1.7,0-3-1.3-3-3v-6.9c0-1.7,1.3-3,3-3h0c1.7,0,3,1.3,3,3v6.9
				C338,459.5,336.7,460.8,335,460.8z"/>
			<g>
				<circle fill="#D9DADE" cx="318.6" cy="480.1" r="5.2"/>
				<circle fill="#D9DADE" cx="335" cy="480.1" r="5.2"/>
				<circle fill="#D9DADE" cx="351.4" cy="480.1" r="5.2"/>
			</g>
		</g>
		<path fill="#FF3262" d="M235.4,286.4c0,0,15.9,24.2,34.1,24.7c18.2,0.4,37.7-25.8,37.7-25.8s-14,17.4-38.1,17.4
			S235.4,286.4,235.4,286.4z"/>
		<path fill="#97201B" d="M307.1,270h-35.6h-2h-35.6c0,0-5.9,0-4,7.5c0,0,7.6,25.3,39.6,26.3v0c0.3,0,0.7,0,1,0c0.3,0,0.7,0,1,0v0
			c32-1,39.6-26.3,39.6-26.3C313,270,307.1,270,307.1,270"/>
		<path fill="#ED5D62" d="M270.5,288.2c-7.9,0-14.7,5-18.2,12.3c4.8,1.9,10.4,3.3,17.2,3.5v0c0.3,0,0.7,0,1,0c0.3,0,0.7,0,1,0v0
			c6.8-0.2,12.5-1.5,17.2-3.5C285.1,293.1,278.3,288.2,270.5,288.2"/>
		<path fill="#FFFFFF" d="M307.1,270h-35.6h-2h-35.6c0,0-5.9,0-4,7.5c0,0,0.8,2.5,2.8,6h75.5c2-3.5,2.8-6,2.8-6
			C313,270,307.1,270,307.1,270"/>
		<path fill="#FF3262" d="M232.5,270.3h75.3c0,0-13.9-7.8-37.7-1.1C270.2,269.1,253.9,261.9,232.5,270.3z"/>
		<path fill="#FFB0A5" d="M226.9,248.6c0,7-5.7,12.7-12.7,12.7c-7,0-12.7-5.7-12.7-12.7c0-7,5.7-12.7,12.7-12.7
			C221.2,235.9,226.9,241.6,226.9,248.6"/>
		<path fill="#FFB0A5" d="M336.8,248.6c0,7-5.7,12.7-12.7,12.7c-7,0-12.7-5.7-12.7-12.7c0-7,5.7-12.7,12.7-12.7
			C331.1,235.9,336.8,241.6,336.8,248.6"/>
		<path fill="#F08F7F" d="M269.2,250.3c-5.4,0-10.1-2.3-12.7-5.6v0.7c0,5.4,5.7,9.9,12.7,9.9c7,0,12.7-4.5,12.7-9.9v-0.7
			C279.3,248,274.6,250.3,269.2,250.3"/>
		<g>
			<path fill="#6A2E16" d="M314.7,226.8c4.9,0,9.3,0.8,12.8,2.1v-1.8c0-7.1-5.8-12.9-12.8-12.9c-7.1,0-12.8,5.8-12.8,12.9v1.8h0
				C305.4,227.6,309.8,226.8,314.7,226.8"/>
			<path fill="#6A2E16" d="M317.4,217.9L317.4,217.9c-0.5-0.4-0.6-1-0.3-1.5l3.8-5.1c0.3-0.4,1-0.5,1.4-0.2l0.1,0
				c0.4,0.3,0.5,1,0.2,1.4l-3.8,5.1C318.5,218.1,317.8,218.2,317.4,217.9"/>
			<path fill="#6A2E16" d="M322.1,221.5L322.1,221.5c-0.5-0.4-0.6-1-0.3-1.5l3.8-5.1c0.3-0.4,1-0.5,1.4-0.2l0.1,0
				c0.4,0.3,0.5,1,0.2,1.4l-3.8,5.1C323.2,221.7,322.6,221.8,322.1,221.5"/>
		</g>
		<path fill="#7A391E" d="M178.9,211.7c0,0,30.6-19,45.7-53.5c0,0,35.5,30.9,77.8,38.4c0,0-18.7-5.6-26.7-15.6
			c0,0,38.4,24.6,82.9,24.6h15.3l-8.5-48.9l-46.7-56.2l-71.7-9.5l-48.9,15.3L177.4,156l-9.5,54.5L178.9,211.7z"/>
		<g>
			<path fill="#DBDBDB" d="M165.4,247.2h-0.3c-2.5,0-4.5-2-4.5-4.5v-18.1c0-2.5,2-4.5,4.5-4.5h0.3V247.2z"/>
			<path fill="#FFFFFF" d="M173.8,259.4L173.8,259.4c-5.1,0-9.3-4.1-9.3-9.2v-32.8c0-5.1,4.1-9.2,9.2-9.2h0c5.1,0,9.2,4.1,9.2,9.2
				v32.8C183.1,255.3,178.9,259.4,173.8,259.4z"/>
			<path fill="#908E8D" d="M252.3,328.8h-37.1c-21.8,0-39.6-17.8-39.6-39.6v-33.3c0-0.9,0.7-1.6,1.6-1.6s1.6,0.7,1.6,1.6v33.3
				c0,20.1,16.3,36.4,36.4,36.4h37.1c0.9,0,1.6,0.7,1.6,1.6S253.2,328.8,252.3,328.8z"/>
			<path fill="#707070" d="M254.5,333.9h-4.2c-4.3,0-7.8-3.5-7.8-7.8v0c0-4.3,3.5-7.8,7.8-7.8h4.2c4.3,0,7.8,3.5,7.8,7.8v0
				C262.3,330.4,258.9,333.9,254.5,333.9z"/>
			<path fill="#FFFFFF" d="M369.1,212.5l-4.2-0.5c0.5-4.1,0.8-8.3,0.8-12.4c0-52.9-43-95.9-95.9-95.9s-95.9,43-95.9,95.9
				c0,4.2,0.3,8.3,0.8,12.4l-4.2,0.5c-0.6-4.3-0.8-8.7-0.8-13c0-55.2,44.9-100.1,100.1-100.1s100.1,44.9,100.1,100.1
				C369.9,203.8,369.7,208.2,369.1,212.5z"/>
			<path fill="#DBDBDB" d="M373.4,220.3h0.3c2.5,0,4.5,2,4.5,4.5l0,18.1c0,2.5-2,4.5-4.5,4.5h-0.3V220.3z"/>
			<path fill="#FFFFFF" d="M365,208.1L365,208.1c5.1,0,9.3,4.1,9.3,9.2v32.8c0,5.1-4.1,9.2-9.3,9.2l0,0c-5.1,0-9.3-4.1-9.3-9.2
				v-32.8C355.7,212.2,359.9,208.1,365,208.1z"/>
		</g>
		<g>
			<path fill="#6A2E16" d="M224.8,226.8c-4.9,0-9.3,0.8-12.8,2.1v-1.8c0-7.1,5.8-12.9,12.8-12.9c7.1,0,12.8,5.8,12.8,12.9v1.8h0
				C234.1,227.6,229.6,226.8,224.8,226.8"/>
			<path fill="#6A2E16" d="M222.1,217.9L222.1,217.9c0.5-0.4,0.6-1,0.3-1.5l-3.8-5.1c-0.3-0.4-1-0.5-1.4-0.2l-0.1,0
				c-0.4,0.3-0.5,1-0.2,1.4l3.8,5.1C221,218.1,221.6,218.2,222.1,217.9"/>
			<path fill="#6A2E16" d="M217.3,221.5L217.3,221.5c0.5-0.4,0.6-1,0.3-1.5l-3.8-5.1c-0.3-0.4-1-0.5-1.4-0.2l-0.1,0
				c-0.4,0.3-0.5,1-0.2,1.4l3.8,5.1C216.2,221.7,216.9,221.8,217.3,221.5"/>
		</g>
		<path fill="none" d="M121.3,408.6c7.9-15.2-2.9-31.2,6.5-47.4"/>
	</g>
</g>
</svg>
