<?xml version="1.0" encoding="utf-8"?>
<!-- Generator: Adobe Illustrator 18.0.0, SVG Export Plug-In . SVG Version: 6.00 Build 0)  -->
<!DOCTYPE svg PUBLIC "-//W3C//DTD SVG 1.1//EN" "http://www.w3.org/Graphics/SVG/1.1/DTD/svg11.dtd">
<svg version="1.1" id="Layer_1" xmlns="http://www.w3.org/2000/svg" xmlns:xlink="http://www.w3.org/1999/xlink" x="0px" y="0px"
	 viewBox="1368.5 -33.5 799.9 603.2" enable-background="new 1368.5 -33.5 799.9 603.2" xml:space="preserve">
<g>
	<g>
		<path fill="#F5F6F7" stroke="#E6E7E8" stroke-miterlimit="10" d="M2063.6,159.9h-589.2c-17.9,0-32.5-14.5-32.5-32.5V-0.5
			c0-17.9,14.5-32.5,32.5-32.5h589.2c17.9,0,32.5,14.5,32.5,32.5v127.9C2096.1,145.3,2081.5,159.9,2063.6,159.9z"/>
		
			<linearGradient id="SVGID_1_" gradientUnits="userSpaceOnUse" x1="1769.0499" y1="819.0728" x2="1769.05" y2="870.7345" gradientTransform="matrix(1 0 0 -1 0 903.45)">
			<stop  offset="0" style="stop-color:#BCBEC0"/>
			<stop  offset="1" style="stop-color:#FFFFFF;stop-opacity:0"/>
		</linearGradient>
		<rect x="1441.1" y="8.8" fill="url(#SVGID_1_)" width="655.9" height="51.4"/>
		<g>
			<path fill="#494D60" d="M1671.1,42.8h-0.8V20.4h0.8V42.8z"/>
			<path fill="#494D60" d="M1678.3,30c0.5-1.3,1.3-2.3,2.4-3.1c1.1-0.8,2.2-1.1,3.5-1.1c1.8,0,3.1,0.5,4,1.5s1.3,2.5,1.3,4.6v10.9
				h-0.8V31.9c0-1.8-0.4-3.1-1.1-4s-1.9-1.3-3.4-1.3c-1.4,0-2.7,0.5-3.7,1.5c-1.1,1-1.8,2.3-2.1,3.9v10.7h-0.8V26h0.8v4H1678.3z"/>
			<path fill="#494D60" d="M1705.6,30.2h2.1c1.3,0,2.4-0.4,3.2-1.1c0.8-0.7,1.2-1.6,1.2-2.8c0-2.6-1.3-3.9-3.9-3.9
				c-1.2,0-2.2,0.4-3,1.1c-0.7,0.7-1.1,1.6-1.1,2.8h-2.8c0-1.8,0.6-3.3,1.9-4.4c1.3-1.2,2.9-1.8,5-1.8s3.8,0.6,5,1.7
				s1.8,2.7,1.8,4.7c0,1-0.3,1.9-0.9,2.8s-1.5,1.6-2.6,2c1.2,0.4,2.2,1,2.9,1.9c0.7,0.9,1,2,1,3.3c0,2-0.7,3.6-2,4.8s-3,1.8-5.1,1.8
				s-3.8-0.6-5.1-1.7c-1.3-1.1-2-2.6-2-4.5h2.9c0,1.2,0.4,2.1,1.2,2.8c0.8,0.7,1.8,1.1,3.1,1.1c1.4,0,2.4-0.4,3.2-1.1
				c0.7-0.7,1.1-1.8,1.1-3.1s-0.4-2.3-1.2-3c-0.8-0.7-2-1.1-3.5-1.1h-2.1v-2.3H1705.6z"/>
			<path fill="#494D60" d="M1733.5,43.1c-1.3,0-2.6-0.4-3.7-1.1c-1.1-0.7-2-1.7-2.6-3c-0.6-1.3-1-2.7-1-4.2v-0.7
				c0-1.5,0.3-3,0.9-4.2c0.6-1.3,1.5-2.3,2.5-3c1.1-0.7,2.3-1.1,3.5-1.1c1.9,0,3.4,0.7,4.6,2s1.8,3.1,1.8,5.2v0.9H1727v0.9
				c0,1.4,0.3,2.6,0.9,3.8c0.6,1.2,1.4,2.1,2.4,2.7c1,0.7,2.1,1,3.3,1c1.1,0,2.1-0.2,2.9-0.6c0.8-0.4,1.5-0.9,2.1-1.7l0.6,0.4
				C1737.8,42.2,1736,43.1,1733.5,43.1z M1733.2,26.6c-1.6,0-3,0.6-4.1,1.8c-1.1,1.2-1.8,2.7-2,4.6h11.6v-0.2c0-1.1-0.2-2.2-0.7-3.2
				s-1.1-1.7-2-2.3C1735.2,26.9,1734.2,26.6,1733.2,26.6z"/>
			<path fill="#494D60" d="M1754.2,42.8c-0.2-0.7-0.3-1.7-0.3-3.1c-0.7,1.1-1.6,1.9-2.7,2.5s-2.4,0.9-3.9,0.9s-2.8-0.4-3.7-1.3
				c-0.9-0.8-1.4-1.9-1.4-3.3c0-1.5,0.7-2.8,2.1-3.7c1.4-0.9,3.2-1.4,5.5-1.4h4.1V31c0-1.4-0.4-2.5-1.3-3.3s-2.1-1.2-3.8-1.2
				c-1.5,0-2.8,0.4-3.8,1.2c-1,0.8-1.5,1.7-1.5,2.9h-0.8c0-1.4,0.6-2.5,1.8-3.5c1.2-0.9,2.7-1.4,4.4-1.4c1.8,0,3.2,0.4,4.3,1.3
				c1.1,0.9,1.6,2.2,1.6,3.8v8c0,1.8,0.1,3.1,0.4,3.7v0.1h-1V42.8z M1747.3,42.3c1.6,0,2.9-0.3,4-1s2-1.7,2.5-2.9v-4h-3.9
				c-2.4,0-4.2,0.5-5.5,1.4c-1,0.8-1.5,1.7-1.5,2.9c0,1,0.4,1.9,1.2,2.6C1745.1,41.9,1746.1,42.3,1747.3,42.3z"/>
			<path fill="#494D60" d="M1770.4,38.7c0-2-1.7-3.4-5.2-4.1c-2.1-0.4-3.5-1-4.3-1.7s-1.2-1.6-1.2-2.9c0-1.2,0.5-2.2,1.5-3
				s2.4-1.2,4-1.2c1.8,0,3.2,0.4,4.3,1.3c1.1,0.9,1.6,2,1.6,3.5h-0.8c0-1.1-0.5-2.1-1.4-2.8c-0.9-0.7-2.2-1.1-3.7-1.1
				s-2.6,0.3-3.5,1c-0.9,0.6-1.3,1.4-1.3,2.4c0,0.8,0.2,1.3,0.5,1.8c0.3,0.4,0.8,0.8,1.6,1.2c0.7,0.3,1.8,0.7,3.1,1
				c1.4,0.3,2.5,0.7,3.3,1.1s1.4,0.9,1.7,1.5c0.4,0.6,0.5,1.3,0.5,2.2c0,1.3-0.5,2.4-1.6,3.2s-2.5,1.2-4.2,1.2
				c-1.9,0-3.4-0.4-4.5-1.3c-1.1-0.8-1.7-1.9-1.7-3.3h0.8c0.1,1.2,0.6,2.1,1.5,2.7c1,0.7,2.2,1,3.9,1c1.5,0,2.7-0.3,3.6-1
				C1769.9,40.5,1770.4,39.7,1770.4,38.7z"/>
			<path fill="#494D60" d="M1780.9,41.5l0.1-0.3l5.8-15.1h0.9l-7.5,19.6l-0.4,0.9c-0.8,1.9-2.1,2.9-4,2.9c-0.6,0-1-0.1-1.2-0.2v-0.8
				c0.3,0.1,0.7,0.1,1.1,0.1c0.9,0,1.6-0.3,2.2-0.8s1.1-1.3,1.5-2.5l1-2.8l-6.6-16.6h0.9L1780.9,41.5z"/>
			<path fill="#494D60" d="M1808.7,38.7c0-2-1.7-3.4-5.2-4.1c-2.1-0.4-3.5-1-4.3-1.7s-1.2-1.6-1.2-2.9c0-1.2,0.5-2.2,1.5-3
				s2.4-1.2,4-1.2c1.8,0,3.2,0.4,4.3,1.3c1.1,0.9,1.6,2,1.6,3.5h-0.8c0-1.1-0.5-2.1-1.4-2.8c-0.9-0.7-2.2-1.1-3.7-1.1
				s-2.6,0.3-3.5,1c-0.9,0.6-1.3,1.4-1.3,2.4c0,0.8,0.2,1.3,0.5,1.8c0.3,0.4,0.8,0.8,1.6,1.2c0.7,0.3,1.8,0.7,3.1,1
				c1.4,0.3,2.5,0.7,3.3,1.1s1.4,0.9,1.7,1.5c0.4,0.6,0.5,1.3,0.5,2.2c0,1.3-0.5,2.4-1.6,3.2s-2.5,1.2-4.2,1.2
				c-1.9,0-3.4-0.4-4.5-1.3c-1.1-0.8-1.7-1.9-1.7-3.3h0.8c0.1,1.2,0.6,2.1,1.5,2.7c0.9,0.7,2.2,1,3.9,1c1.5,0,2.7-0.3,3.6-1
				C1808.2,40.5,1808.7,39.7,1808.7,38.7z"/>
			<path fill="#494D60" d="M1816,21.6v4.5h3.8v0.8h-3.8v11.8c0,1.2,0.2,2.1,0.6,2.6c0.4,0.6,1,0.8,1.9,0.8c0.5,0,1,0,1.6-0.1
				l0.1,0.8c-0.3,0.1-0.9,0.2-1.7,0.2c-1.2,0-2.1-0.3-2.6-1s-0.8-1.7-0.8-3.2v-12h-3.1V26h3.1v-4.5L1816,21.6L1816,21.6z"/>
			<path fill="#494D60" d="M1830.1,43.1c-1.3,0-2.6-0.4-3.7-1.1c-1.1-0.7-2-1.7-2.6-3c-0.6-1.3-1-2.7-1-4.2v-0.7
				c0-1.5,0.3-3,0.9-4.2c0.6-1.3,1.5-2.3,2.5-3c1.1-0.7,2.3-1.1,3.5-1.1c1.9,0,3.4,0.7,4.6,2s1.8,3.1,1.8,5.2v0.9h-12.5v0.9
				c0,1.4,0.3,2.6,0.9,3.8c0.6,1.2,1.4,2.1,2.4,2.7c1,0.7,2.1,1,3.3,1c1.1,0,2.1-0.2,2.9-0.6c0.8-0.4,1.5-0.9,2.1-1.7l0.6,0.4
				C1834.4,42.2,1832.5,43.1,1830.1,43.1z M1829.8,26.6c-1.6,0-3,0.6-4.1,1.8c-1.1,1.2-1.8,2.7-2,4.6h11.6v-0.2
				c0-1.1-0.2-2.2-0.7-3.2s-1.1-1.7-2-2.3C1831.8,26.9,1830.8,26.6,1829.8,26.6z"/>
			<path fill="#494D60" d="M1852.7,34.6c0,2.6-0.6,4.7-1.7,6.2c-1.1,1.5-2.6,2.3-4.6,2.3c-1.3,0-2.4-0.3-3.4-0.8s-1.8-1.2-2.3-2.1v9
				h-0.8V26.1h0.8v3c0.6-1.1,1.4-1.9,2.3-2.4c1-0.6,2.1-0.8,3.3-0.8c2,0,3.5,0.7,4.6,2.2s1.7,3.6,1.7,6.3L1852.7,34.6L1852.7,34.6z
				 M1851.9,34.3c0-2.4-0.5-4.3-1.4-5.6s-2.3-2-4-2c-1.4,0-2.6,0.4-3.6,1.1s-1.7,1.8-2.1,3.1v7.8c0.4,1.1,1.1,2,2.1,2.7
				c1,0.6,2.2,0.9,3.6,0.9c1.7,0,3-0.7,4-2C1851.4,38.9,1851.9,36.9,1851.9,34.3z"/>
			<path fill="#494D60" d="M1867.5,38.7c0-2-1.7-3.4-5.2-4.1c-2.1-0.4-3.5-1-4.3-1.7s-1.2-1.6-1.2-2.9c0-1.2,0.5-2.2,1.5-3
				s2.4-1.2,4-1.2c1.8,0,3.2,0.4,4.3,1.3c1.1,0.9,1.6,2,1.6,3.5h-0.8c0-1.1-0.5-2.1-1.4-2.8c-0.9-0.7-2.2-1.1-3.7-1.1
				s-2.6,0.3-3.5,1c-0.9,0.6-1.3,1.4-1.3,2.4c0,0.8,0.2,1.3,0.5,1.8c0.3,0.4,0.8,0.8,1.6,1.2c0.7,0.3,1.8,0.7,3.1,1
				c1.4,0.3,2.5,0.7,3.3,1.1s1.4,0.9,1.7,1.5c0.4,0.6,0.5,1.3,0.5,2.2c0,1.3-0.5,2.4-1.6,3.2s-2.5,1.2-4.2,1.2
				c-1.9,0-3.4-0.4-4.5-1.3c-1.1-0.8-1.7-1.9-1.7-3.3h0.8c0.1,1.2,0.6,2.1,1.5,2.7c0.9,0.7,2.2,1,3.9,1c1.5,0,2.7-0.3,3.6-1
				C1867.1,40.5,1867.5,39.7,1867.5,38.7z"/>
		</g>
	</g>
	<g>
		
			<linearGradient id="SVGID_2_" gradientUnits="userSpaceOnUse" x1="1768.4501" y1="334.2" x2="1768.4502" y2="847.8" gradientTransform="matrix(1 0 0 -1 0 903.45)">
			<stop  offset="0" style="stop-color:#ECECEE"/>
			<stop  offset="0.2413" style="stop-color:#F0F0F2"/>
			<stop  offset="1" style="stop-color:#F8F9FA"/>
		</linearGradient>
		<path fill="url(#SVGID_2_)" stroke="#E6E7E8" stroke-miterlimit="10" d="M2130.8,569.3h-724.7c-20.5,0-37.1-16.6-37.1-37.1V92.7
			c0-20.5,16.6-37.1,37.1-37.1h724.7c20.5,0,37.1,16.6,37.1,37.1V532C2167.9,552.5,2151.3,569.3,2130.8,569.3z"/>
		<g>
			<g>
				<path fill="#FFDD55" d="M1749.4,307c0,0-1.3,8.3-1.5,16.9s4.5,29.3,4.5,29.3l33.9,4.3c0,0,6.9-11.9,8.9-19.9
					c2.1-8.3,4.2-19.6,4.1-25.7c0-6.1-26.8-3.8-26.8-3.8l-16.6-0.6L1749.4,307z"/>
				<g>
					<g>
						<path fill="#F7C8B8" d="M1781.8,463.7C1781.8,463.7,1781.9,463.7,1781.8,463.7l8.9-54.9c0.6-3.5-2.6-7-7-7.8
							c-4.4-0.7-8.6,1.6-9.1,5.1l-8.9,54.8c0,0,0,0,0,0.1L1781.8,463.7z"/>
						<path fill="#D0D1D1" d="M1770.7,481.5L1770.7,481.5c-4.5-0.7-7.5-4.9-6.8-9.4l2.8-17.3l16.2,2.6l-2.8,17.3
							C1779.3,479.2,1775.1,482.2,1770.7,481.5z"/>
						
							<rect x="1765.1" y="457.1" transform="matrix(-0.987 -0.1607 0.1607 -0.987 3448.7825 1209.6584)" fill="#FDDC55" width="16.4" height="16.5"/>
						<path fill="#E73939" d="M1771,458.5l-4.8-0.8l0.6-3.8l0.9,0.2C1769.9,454.4,1771.3,456.4,1771,458.5L1771,458.5z"/>
						<path fill="#FDDC55" d="M1777.6,459.6l4.8,0.8l0.6-3.8l-0.9-0.2C1780,456,1778,457.5,1777.6,459.6L1777.6,459.6z"/>
						<path fill="#FFD426" d="M1775,454.8L1775,454.8c-1.8-0.3-3.6,0.9-3.9,2.8l-2.5,15.4l6.7,1.1l2.5-15.4
							C1778.1,456.8,1776.8,455.1,1775,454.8z"/>
						<path fill="#FFFFFF" d="M1772.2,471.9c-3-0.5-5.6-0.1-5.7,0.9v0.1c-0.5,3,1.5,5.8,4.5,6.3s5.8-1.5,6.3-4.5v-0.1
							C1777.5,473.5,1775.2,472.4,1772.2,471.9z"/>
						
							<line fill="none" stroke="#E3E4E3" stroke-width="2.5787" stroke-linecap="round" stroke-miterlimit="10" x1="1768.5" y1="469.5" x2="1777.1" y2="467"/>
						
							<line fill="none" stroke="#E3E4E3" stroke-width="2.5787" stroke-linecap="round" stroke-miterlimit="10" x1="1776.5" y1="470.8" x2="1769.1" y2="465.7"/>
						
							<line fill="none" stroke="#E3E4E3" stroke-width="2.5787" stroke-linecap="round" stroke-miterlimit="10" x1="1769.7" y1="461.8" x2="1778.4" y2="459.4"/>
						
							<line fill="none" stroke="#E3E4E3" stroke-width="2.5787" stroke-linecap="round" stroke-miterlimit="10" x1="1777.8" y1="463.1" x2="1770.4" y2="458"/>
						
							<line fill="none" stroke="#FFFFFF" stroke-width="2.5787" stroke-linecap="round" stroke-miterlimit="10" x1="1769.1" y1="465.6" x2="1777.8" y2="463.1"/>
						
							<line fill="none" stroke="#FFFFFF" stroke-width="2.5787" stroke-linecap="round" stroke-miterlimit="10" x1="1777.1" y1="466.9" x2="1769.7" y2="461.8"/>
						
							<line fill="none" stroke="#FFFFFF" stroke-width="2.5787" stroke-linecap="round" stroke-miterlimit="10" x1="1768.5" y1="469.5" x2="1776.5" y2="470.8"/>
					</g>
					<g>
						<path fill="#F7C8B8" d="M1773.5,461.4C1773.5,461.4,1773.5,461.3,1773.5,461.4l-7.1-55.1c-0.5-3.6-4.5-6-9-5.4s-7.7,4-7.3,7.5
							l7.1,55.1c0,0,0,0,0,0.1L1773.5,461.4z"/>
						<path fill="#D0D1D1" d="M1767.9,481.6L1767.9,481.6c-4.5,0.6-8.6-2.6-9.2-7.1l-2.3-17.4l16.2-2.1l2.3,17.4
							C1775.6,476.9,1772.4,481,1767.9,481.6z"/>
						
							<rect x="1757.6" y="457.3" transform="matrix(-0.9917 0.1287 -0.1287 -0.9917 3576.8892 699.875)" fill="#FDDC55" width="16.4" height="16.5"/>
						<path fill="#FDDC55" d="M1761.6,459.5l-4.8,0.6l-0.5-3.8l1-0.1C1759.4,455.9,1761.3,457.4,1761.6,459.5L1761.6,459.5z"/>
						<path fill="#FDDC55" d="M1768.3,458.6l4.8-0.6l-0.5-3.8l-1,0.1C1769.5,454.6,1768,456.5,1768.3,458.6L1768.3,458.6z"/>
						<path fill="#FFD426" d="M1764.4,454.8L1764.4,454.8c-1.9,0.2-3.2,1.9-2.9,3.8l2,15.5l6.7-0.9l-2-15.5
							C1768,455.9,1766.3,454.5,1764.4,454.8z"/>
						<path fill="#FFFFFF" d="M1766.6,472c-3,0.4-5.3,1.5-5.2,2.5v0.1c0.4,3,3.1,5.1,6.2,4.7s5.1-3.1,4.7-6.2V473
							C1772.2,472.1,1769.7,471.6,1766.6,472z"/>
						
							<line fill="none" stroke="#E3E4E3" stroke-width="2.5787" stroke-linecap="round" stroke-miterlimit="10" x1="1762.4" y1="470.7" x2="1770" y2="465.9"/>
						
							<line fill="none" stroke="#E3E4E3" stroke-width="2.5787" stroke-linecap="round" stroke-miterlimit="10" x1="1770.4" y1="469.7" x2="1761.9" y2="466.9"/>
						
							<line fill="none" stroke="#E3E4E3" stroke-width="2.5787" stroke-linecap="round" stroke-miterlimit="10" x1="1761.4" y1="463.1" x2="1769" y2="458.2"/>
						
							<line fill="none" stroke="#E3E4E3" stroke-width="2.5787" stroke-linecap="round" stroke-miterlimit="10" x1="1769.4" y1="462" x2="1760.9" y2="459.3"/>
						
							<line fill="none" stroke="#FFFFFF" stroke-width="2.5787" stroke-linecap="round" stroke-miterlimit="10" x1="1761.9" y1="466.8" x2="1769.4" y2="462"/>
						
							<line fill="none" stroke="#FFFFFF" stroke-width="2.5787" stroke-linecap="round" stroke-miterlimit="10" x1="1769.9" y1="465.8" x2="1761.4" y2="463.1"/>
						
							<line fill="none" stroke="#FFFFFF" stroke-width="2.5787" stroke-linecap="round" stroke-miterlimit="10" x1="1762.4" y1="470.7" x2="1770.4" y2="469.7"/>
					</g>
					<rect x="1761.7" y="336.8" fill="#F7C8B8" width="14.5" height="11.5"/>
					<path fill="#F7C8B8" d="M1779,408.7h-19.2c-3.3,0-6.1-3.7-6.1-8.2l-5.9-45.5c-0.2-5.1,3.6-7.9,8.4-10.1l7.8-3.4h10.7l7.8,3.4
						c4.8,2.8,8.2,4.5,8.4,10.1l-5.9,45.5C1785.1,405,1782.3,408.7,1779,408.7z"/>
					<g>
						<path fill="#F7C8B8" d="M1707.5,309.4L1707.5,309.4c2.7-2.6,7-2.6,9.6,0.1l39.4,40.1c2.6,2.7,2.6,7-0.1,9.6l0,0
							c-2.7,2.6-7,2.6-9.6-0.1l-39.4-40.1C1704.8,316.3,1704.8,312,1707.5,309.4z"/>
					</g>
					<g>
						<path fill="#F7C8B8" d="M1832.8,390.1L1832.8,390.1c2.4-2.9,1.9-7.2-1.1-9.6l-43.9-35.1c-2.9-2.4-7.2-1.9-9.6,1.1l0,0
							c-2.4,2.9-1.9,7.2,1.1,9.6l43.9,35.1C1826.1,393.5,1830.4,393,1832.8,390.1z"/>
					</g>
					<path fill="#FFFFFF" d="M1784.1,344.8l-2.7-1.1c-1.5,2.9-4.3,5.2-7.6,6.3c-1.4,0.7-4.8,1.4-8.7,0c-3.4-1.1-6.2-3.4-7.7-6.3
						l-2.6,1.1c-5.1,2.3-8.3,2.4-8.1,7.5l2.5,55h40.4l2.5-55C1792,346.6,1789,347,1784.1,344.8"/>
					<path fill="#F1F1F2" d="M1782.9,345.3c0-0.4-0.1-0.8-0.2-1.1l-1.2-0.5c-1.6,3.2-4.7,5.6-8.5,6.6c-1,0.3-2.2,0.5-3.5,0.5
						c-1,0-1.9-0.1-2.7-0.3h-0.1h-0.1c-4.1-0.8-7.4-3.3-9.2-6.7l-1,0.4c-0.4,0.7-0.5,1.4-0.5,2.3c0.2,2.3,2.2,4.1,4.5,3.9
						c0.7-0.1,1.4-0.3,1.9-0.6c0.4,2.1,2.3,3.7,4.5,3.5c1.2-0.1,2.3-0.7,3-1.6c0.8,0.8,2,1.2,3.2,1.1c1.9-0.1,3.5-1.6,3.8-3.4
						c0.6,0.3,1.4,0.5,2.1,0.4C1781.3,349.6,1783.1,347.6,1782.9,345.3"/>
					<path fill="#F1999C" d="M1792.2,390.5L1792.2,390.5C1792.1,390.5,1792.1,390.5,1792.2,390.5L1792.2,390.5z"/>
					<path fill="#F1999C" d="M1746.6,390.5L1746.6,390.5C1746.7,390.5,1746.6,390.5,1746.6,390.5L1746.6,390.5z"/>
					<g>
						<path fill="#F1999C" d="M1733.3,414.5c0,1.2,3.8,1.2,4.7,2.2c0.7,0.9-0.6,4.4,0.7,5.2c1.1,0.7,3.8-2.1,5.2-1.5
							c1.3,0.5,0.5,4.7,2,5.1c1.4,0.4,4.5-3.1,6-2.8c1.4,0.3,1.7,4.5,3.3,4.7c1.5,0.2,3.8-3.6,5.3-3.5s2.5,4.3,4.1,4.4
							c1.5,0.1,3.2-4,4.7-4c1.6,0,3.2,4,4.7,4c1.6-0.1,2.6-4.2,4.1-4.4c1.6-0.1,3.9,3.7,5.3,3.5c1.5-0.2,1.8-4.5,3.3-4.7
							c1.5-0.3,4.6,3.2,6,2.8c1.5-0.4,0.7-4.6,2-5.1c1.5-0.6,4.1,2.2,5.2,1.5c1.3-0.8,0-4.3,0.7-5.3c0.9-1.1,4.7-1.1,4.7-2.2
							l-15.2-20.3h-41.8L1733.3,414.5L1733.3,414.5L1733.3,414.5z"/>
					</g>
					<ellipse fill="#FFFFFF" cx="1769.4" cy="394.2" rx="20.8" ry="1.6"/>
					<g>
						<path fill="#E09081" d="M1777.2,337.4l-14.2-2.5l-0.6,3.3c1.7,2.2,4,3.7,6.5,4.2h0.1c2.6,0.4,5.2-0.3,7.6-1.7L1777.2,337.4z"
							/>
						<path fill="#FFDD55" d="M1770.5,336.3l-1.2-0.2c-13.3-2.3-22.3-15.1-20-28.4l0.1-0.7c2.3-13.3,15.1-22.2,28.4-19.9l1.2,0.2
							c13.3,2.3,22.3,15.1,20,28.4l-0.1,0.7C1796.6,329.8,1783.8,338.6,1770.5,336.3"/>
						<path fill="#F7C8B8" d="M1753.4,320.9l-4.5-0.8c-2.5-0.4-4.1-2.8-3.7-5.2c0.4-2.5,2.8-4.1,5.3-3.7l4.5,0.8
							c2.5,0.4,4.1,2.8,3.7,5.2C1758.3,319.6,1755.9,321.4,1753.4,320.9"/>
						<path fill="#E09081" d="M1751.2,313.9h-0.3c-1.4-0.2-2.6,0.3-2.8,1.2l-0.1,0.7c-0.2,0.9,0.9,1.8,2.2,2h0.3L1751.2,313.9z"/>
						<path fill="#F7C8B8" d="M1791.5,327.6l4.5,0.8c2.5,0.4,4.8-1.2,5.3-3.7c0.4-2.5-1.2-4.8-3.7-5.2l-4.5-0.8
							c-2.5-0.4-4.8,1.2-5.3,3.7C1787.3,324.8,1789,327.1,1791.5,327.6"/>
						<path fill="#E09081" d="M1795.9,321.8h0.3c1.4,0.2,2.4,1.2,2.2,2l-0.1,0.7c-0.2,0.9-1.4,1.4-2.8,1.2h-0.3L1795.9,321.8z"/>
						<path fill="#F7C8B8" d="M1769.4,340.8L1769.4,340.8c-12.3-2.1-20.6-13.9-18.5-26.2c2.1-12.3,14-20.5,26.3-18.4
							c12.3,2.1,20.6,13.9,18.5,26.2C1793.5,334.8,1781.7,343,1769.4,340.8"/>
						<path fill="#E19080" d="M1772.4,323.9c-1.2-0.2-2.1-0.9-2.6-1.7v0.2c-0.2,1.2,0.9,2.4,2.4,2.7c1.5,0.3,3-0.5,3.2-1.7v-0.2
							C1774.7,323.8,1773.5,324.1,1772.4,323.9"/>
						<path fill="#754548" d="M1782.8,321.8c1.1,0.2,2,0.5,2.8,1l0,0l0.1-0.4c0.3-1.6-0.8-3.1-2.4-3.3c-1.6-0.3-3.1,0.8-3.3,2.3
							l-0.1,0.4C1780.7,321.6,1781.7,321.6,1782.8,321.8"/>
						<path fill="#754548" d="M1764.7,318.8c1.1,0.2,2,0.5,2.8,1l0,0l0.1-0.4c0.3-1.6-0.8-3.1-2.4-3.3c-1.6-0.3-3.1,0.8-3.3,2.3
							l-0.1,0.4C1762.6,318.6,1763.6,318.6,1764.7,318.8"/>
						<path fill="#F5B0A4" d="M1763.1,323.1c-0.3,1.5-1.7,2.6-3.3,2.3c-1.5-0.3-2.6-1.7-2.3-3.3c0.3-1.5,1.7-2.6,3.3-2.3
							S1763.4,321.6,1763.1,323.1"/>
						<path fill="#F5B0A4" d="M1786.9,327.3c-0.3,1.5-1.7,2.6-3.3,2.3c-1.5-0.3-2.6-1.7-2.3-3.3c0.3-1.5,1.7-2.6,3.3-2.3
							C1786.1,324.3,1787.2,325.8,1786.9,327.3"/>
						<path fill="#8A2D22" d="M1780.1,329.8l-8.4-1.5l-0.5-0.1l-8.4-1.5c0,0-1.4-0.2-1.2,1.4c0,0,0.9,5.5,8.3,7l0,0
							c0.1,0,0.2,0,0.2,0c0.1,0,0.2,0,0.2,0l0,0c7.5,1.1,10.2-3.8,10.2-3.8C1781.5,330.1,1780.1,329.8,1780.1,329.8"/>
						<path fill="#DA6766" d="M1770.9,332c-1.8-0.3-3.6,0.4-4.7,1.8c1,0.6,2.3,1.1,3.9,1.4l0,0c0.1,0,0.2,0,0.2,0c0.1,0,0.2,0,0.2,0
							l0,0c1.6,0.2,3,0.2,4.2,0C1774.2,333.8,1772.7,332.4,1770.9,332"/>
						<path fill="#FFFFFF" d="M1771.7,328.4l-0.5-0.1l-5.4-0.9c0.5,1.6,1.8,2.9,3.6,3.2l3.3,0.6c1.8,0.3,3.5-0.5,4.4-1.8
							L1771.7,328.4z"/>
					</g>
				</g>
				<path fill="#FFDD55" d="M1752.1,307.4c0,0,13.8,2.8,18.6-10.6c0,0,1.8,14.6,26.4,19.1l-4.9-15.1l-15.5-8.4l-10.8,1.8l-11.4,8.2
					L1752.1,307.4z"/>
				<circle fill="#FFFFFF" cx="1794.6" cy="330.9" r="1.4"/>
				<circle fill="#FFFFFF" cx="1749.1" cy="322.9" r="1.4"/>
				<g>
					<g>
						<path fill="#EFC92B" d="M1765.2,293.6c-2.9,1.2-4.3,3.5-4,4.2c0.4,0.7,3.5,1.2,6.4,0s4.3-3.5,4-4.2
							C1771.3,292.9,1768.1,292.5,1765.2,293.6"/>
						<path fill="#FFFFFF" d="M1768.3,296c-3,1.4-6.1,1-6.5,0.3c-0.4-0.7,1.3-3.5,4.2-4.9c3-1.4,6.1-1,6.5-0.3
							S1771.2,294.5,1768.3,296"/>
					</g>
					<g>
						<path fill="#EFC92B" d="M1777.7,299.1c1.8,2.5,4.5,3.3,5.1,2.8s0.3-3.7-1.6-6.2c-1.8-2.5-4.5-3.3-5.1-2.8
							C1775.6,293.5,1775.9,296.8,1777.7,299.1"/>
						<path fill="#FFFFFF" d="M1782.1,294.5c1.9,2.7,1.9,5.9,1.3,6.4c-0.7,0.5-3.7-0.7-5.5-3.4c-1.9-2.7-1.9-5.9-1.3-6.4
							C1777.3,290.6,1780.3,291.8,1782.1,294.5"/>
					</g>
					<g>
						<path fill="#EFC92B" d="M1785.9,298.5c0.7,3,2.8,4.8,3.5,4.6c0.7-0.3,1.7-3.3,1-6.3s-2.8-4.8-3.5-4.6
							C1786.2,292.4,1785.2,295.5,1785.9,298.5"/>
						<path fill="#FFFFFF" d="M1791.9,296c0.6,3.2-0.6,6.2-1.4,6.3c-0.8,0.2-3.1-2.1-3.7-5.3s0.6-6.2,1.4-6.3
							C1789,290.5,1791.3,292.8,1791.9,296"/>
					</g>
					<g>
						<path fill="#EFC92B" d="M1793.2,307.4c1,2.9,3.3,4.5,4,4.2c0.7-0.3,1.3-3.5,0.3-6.4c-1-2.9-3.3-4.5-4-4.2
							C1792.9,301.4,1792.2,304.5,1793.2,307.4"/>
						<path fill="#FFFFFF" d="M1798.9,304.3c1,3.1,0.1,6.2-0.7,6.4c-0.8,0.2-3.3-1.8-4.3-4.9c-1-3.1-0.1-6.2,0.7-6.4
							C1795.4,299.3,1797.9,301.3,1798.9,304.3"/>
					</g>
					<g>
						<path fill="#EFC92B" d="M1755,296.1c-1,2.9-0.2,5.6,0.6,5.8c0.8,0.2,3.2-1.9,4.2-4.8c1-2.9,0.2-5.6-0.6-5.8
							S1756,293.1,1755,296.1"/>
						<path fill="#FFFFFF" d="M1759.9,296c-1.2,3.1-3.8,4.9-4.5,4.6c-0.8-0.3-1.5-3.4-0.3-6.5s3.8-4.9,4.5-4.6
							C1760.4,289.8,1761.1,292.9,1759.9,296"/>
					</g>
				</g>
			</g>
			<g>
				<path fill="#E09081" d="M1860.4,320.8h-0.3c-1.4,0-2.6,0.7-2.6,1.6v0.7c0,0.9,1.2,1.6,2.6,1.6h0.3V320.8z"/>
				<line fill="none" x1="1859" y1="367.8" x2="1859" y2="388.7"/>
				<g>
					<path fill="#404041" d="M1871.1,392.8c-5.3,0-9.3,2.5-9.3,5.7l1.1,71c0,0.1,0,0.1,0,0.2c0.1,0.9,0.9,1.6,2,1.6h13.5
						c1.1,0,2-0.7,2-1.6v-0.1l2.2-71C1882.6,395.3,1876.4,392.8,1871.1,392.8z"/>
					<path fill="#F7C8B8" d="M1859.9,477.3L1859.9,477.3c0-2.4,2-4.3,4.3-4.3h13.7c2.4,0,4.3,2,4.3,4.3c0,2.4-2,4.3-4.3,4.3h-13.7
						C1861.9,481.6,1859.9,479.7,1859.9,477.3"/>
					<path fill="#FFFFFF" d="M1872.9,468.5h-3.5c-5.3,0-9.7,4.3-9.7,9.6v1.6v1l0,0c0,0.5,0.4,1,1,1h20.9c0.5,0,1-0.4,1-1l0,0v-1
						v-1.6C1882.5,472.8,1878.2,468.5,1872.9,468.5"/>
					<path fill="#F0EFEF" d="M1859.7,478.5v1.1v1l0,0c0,0.5,0.4,1,1,1h20.9c0.5,0,1-0.4,1-1l0,0v-1v-1.1H1859.7z"/>
					<path fill="#404041" d="M1895.5,392.8c-5.3,0-11.5,2.5-11.5,5.7l2.2,71c0,0.1,0,0.1,0,0.2c0.1,0.9,0.9,1.6,2,1.6h13.5
						c1.1,0,2-0.7,2-1.6v-0.1l1.1-71C1904.7,395.3,1900.7,392.8,1895.5,392.8z"/>
					<path fill="#F7C8B8" d="M1884.2,477.3L1884.2,477.3c0-2.4,2-4.3,4.3-4.3h13.7c2.4,0,4.3,2,4.3,4.3c0,2.4-2,4.3-4.3,4.3h-13.7
						C1886.2,481.6,1884.2,479.7,1884.2,477.3"/>
					<path fill="#FFFFFF" d="M1897.2,468.5h-3.5c-5.3,0-9.7,4.3-9.7,9.6v1.6v1l0,0c0,0.5,0.4,1,1,1h20.9c0.5,0,1-0.4,1-1l0,0v-1
						v-1.6C1906.9,472.8,1902.5,468.5,1897.2,468.5"/>
					<path fill="#F0EFEF" d="M1884,478.5v1.1v1l0,0c0,0.5,0.4,1,1,1h20.9c0.5,0,1-0.4,1-1l0,0v-1v-1.1H1884z"/>
					<rect x="1875.6" y="340.3" fill="#F7C8B8" width="14.7" height="11.7"/>
					<path fill="#F7C8B8" d="M1897.2,414.8h-27.8c-4.9,0-8.8-5.1-8.8-11.4v-44.5c-0.2-5.1,3.8-8,8.8-10.3l8.3-3.4h11.3l8.3,3.4
						c5.1,2.9,8.6,4.6,8.8,10.3v44.5C1906,409.6,1902.1,414.8,1897.2,414.8"/>
					<path fill="#E09081" d="M1890.2,339.6h-14.6v3.3c2.1,1.9,4.6,3,7.2,3h0.1c2.7-0.1,5.1-1.2,7.2-3v-3.3H1890.2z"/>
					<path fill="#404041" d="M1883.3,424.7L1883.3,424.7c-12,0-21.7-12.1-21.7-27v-9c0-14.8,9.8-27,21.7-27c12,0,21.7,12.1,21.7,27
						v9C1905,412.6,1895.2,424.7,1883.3,424.7"/>
					<path fill="#545454" d="M1881.2,422.8c-4.5,0-8.7-1.3-12.5-3.5c4.1,3.4,9.1,5.4,14.6,5.4s10.5-2,14.6-5.4
						c-3.7,2.2-8,3.5-12.5,3.5H1881.2z"/>
					<g>
						<path fill="#FFFFFF" d="M1863.5,371.4l-10.2-3.8c-1.1-0.4-1.6-1.6-1.2-2.7l4-9.7c1.5-3.9,5.8-5.9,9.7-4.4l0,0
							c3.9,1.5,5.9,5.8,4.4,9.7l-4,9.7C1865.8,371.3,1864.6,371.8,1863.5,371.4z"/>
					</g>
					<g>
						<path fill="#F7C8B8" d="M1925.8,417.9L1925.8,417.9c3.5-1.3,5.3-5.3,4-8.8l-19.9-52.6c-1.3-3.5-5.3-5.3-8.8-4l0,0
							c-3.5,1.3-5.3,5.3-4,8.8l19.9,52.6C1918.3,417.4,1922.3,419.2,1925.8,417.9z"/>
						<path fill="#EFEFEF" d="M1917.6,411.1l10.2-3.8c1.1-0.4,1.6-1.6,1.2-2.7l-18.8-49.4c-1.5-3.9-5.8-5.9-9.7-4.4l0,0
							c-3.9,1.5-5.9,5.8-4.4,9.7l18.8,49.4C1915.3,410.9,1916.5,411.5,1917.6,411.1z"/>
					</g>
					<path fill="#A1CBDB" d="M1898.3,348.3l-3.8-1.4c-2.5,4.1-6.5,6.7-11,6.7s-8.4-2.6-11-6.7l-3.8,1.3c-5.1,2-8.3,2-8.1,6.5v57.5
						h45.8v-57.5C1906.2,349.8,1903.4,350.8,1898.3,348.3"/>
					<path fill="#723D25" d="M1891.6,331.3h-16.7c-8.3,0-15.1-6.8-15.1-15.1v-2.5c0-8.3,6.8-15.1,15.1-15.1h16.7
						c8.3,0,15.1,6.8,15.1,15.1v2.5C1906.7,324.5,1899.9,331.3,1891.6,331.3"/>
					<ellipse fill="#723D25" cx="1883.1" cy="315.8" rx="24.3" ry="25.9"/>
					<path fill="#F7C8B8" d="M1883.1,344.4L1883.1,344.4c-12.6,0-22.9-10.3-22.9-22.8c0-12.6,10.3-22.8,22.9-22.8
						s22.9,10.3,22.9,22.8S1895.7,344.4,1883.1,344.4"/>
					<path fill="#F7C8B8" d="M1863.8,327.4h-4.6c-2.5,0-4.6-2.1-4.6-4.6s2.1-4.6,4.6-4.6h4.6c2.5,0,4.6,2.1,4.6,4.6
						S1866.4,327.4,1863.8,327.4"/>
					<path fill="#F7C8B8" d="M1902.7,327.4h4.6c2.5,0,4.6-2.1,4.6-4.6s-2.1-4.6-4.6-4.6h-4.6c-2.5,0-4.6,2.1-4.6,4.6
						C1898.2,325.3,1900.2,327.4,1902.7,327.4"/>
					<path fill="#723D25" d="M1898.8,303c0,0-1.2,5.4,2.1,8.7c3.3,3.3,3.7,10.8,3.7,10.8s2.1-1.7,1.6-6
						C1905.7,312.1,1903.8,305,1898.8,303z"/>
					<path fill="#723D25" d="M1867.5,303c0,0,1.2,5.4-2.1,8.7c-3.3,3.3-3.7,10.8-3.7,10.8s-2.1-1.7-1.6-6S1862.5,305,1867.5,303z"/>
					<path fill="#E09081" d="M1906.2,320.8h0.3c1.4,0,2.6,0.7,2.6,1.6v0.7c0,0.9-1.2,1.6-2.6,1.6h-0.3V320.8z"/>
					<path fill="#8A2D22" d="M1892.2,331.5h-8.6h-0.5h-8.6c0,0-1.4,0-1,1.6c0,0,1.8,5.3,9.5,5.5l0,0c0.1,0,0.2,0,0.2,0
						c0.1,0,0.2,0,0.2,0l0,0c7.7-0.2,9.5-5.5,9.5-5.5C1893.6,331.5,1892.2,331.5,1892.2,331.5"/>
					<path fill="#DA6766" d="M1883.4,335.3c-1.9,0-3.5,1-4.4,2.6c1.1,0.4,2.5,0.7,4.1,0.7l0,0c0.1,0,0.2,0,0.2,0c0.1,0,0.2,0,0.2,0
						l0,0c1.6,0,3-0.3,4.1-0.7C1886.9,336.4,1885.3,335.3,1883.4,335.3"/>
					<path fill="#E19080" d="M1883.1,327.1c-1.2,0-2.3-0.5-2.9-1.3v0.2c0,1.2,1.3,2.2,2.9,2.2s2.9-1,2.9-2.2v-0.2
						C1885.4,326.6,1884.4,327.1,1883.1,327.1"/>
					<path fill="#754548" d="M1873.3,322c1.1,0,2.1,0.2,2.9,0.5v-0.4c0-1.6-1.3-2.9-2.9-2.9s-2.9,1.3-2.9,2.9v0.4l0,0
						C1871.2,322.3,1872.2,322,1873.3,322"/>
					<path fill="#754548" d="M1893.1,322c1.1,0,2.1,0.2,2.9,0.5v-0.4c0-1.6-1.3-2.9-2.9-2.9s-2.9,1.3-2.9,2.9v0.4
						C1891,322.3,1892,322,1893.1,322"/>
					<path fill="#F5B0A4" d="M1869.9,326.8c0,1.6-1.3,2.9-2.9,2.9s-2.9-1.3-2.9-2.9c0-1.6,1.3-2.9,2.9-2.9
						C1868.7,323.9,1869.9,325.3,1869.9,326.8"/>
					<path fill="#F5B0A4" d="M1902.1,326.8c0,1.6-1.3,2.9-2.9,2.9s-2.9-1.3-2.9-2.9c0-1.6,1.3-2.9,2.9-2.9
						C1900.8,323.9,1902.1,325.3,1902.1,326.8"/>
					<path fill="#FFFFFF" d="M1883.6,331.5h-0.5h-5.6c0.7,1.5,2.3,2.6,4.1,2.6h3.4c1.8,0,3.4-1.1,4.1-2.6H1883.6z"/>
					<g>
						<g>
							<polygon opacity="0.3" fill="#FFFFFF" enable-background="new    " points="1893.2,328.3 1890.3,328.3 1894.6,315.8 
								1897.6,315.8 							"/>
							<path fill="none" stroke="#6B6B6B" stroke-width="2.6714" stroke-miterlimit="10" d="M1900.9,324.6c0,2-1.7,3.7-3.7,3.7h-6.5
								c-2,0-3.4-1.6-3.7-3.7l-0.9-5.2c0-2,1.7-3.7,3.7-3.7h7.6c2,0,3.7,1.7,3.7,3.7L1900.9,324.6z"/>
						</g>
						<g>
							<polygon opacity="0.3" fill="#FFFFFF" enable-background="new    " points="1873.1,328.3 1876,328.3 1871.7,315.8 
								1868.7,315.8 							"/>
							<path fill="none" stroke="#6B6B6B" stroke-width="2.6714" stroke-miterlimit="10" d="M1865.3,324.6c0,2,1.7,3.7,3.7,3.7h6.5
								c2,0,3.4-1.6,3.7-3.7l0.9-5.2c0-2-1.7-3.7-3.7-3.7h-7.6c-2,0-3.7,1.7-3.7,3.7L1865.3,324.6z"/>
						</g>
						
							<line fill="none" stroke="#6B6B6B" stroke-width="2.5623" stroke-miterlimit="10" x1="1879.2" y1="321.1" x2="1887.1" y2="321.1"/>
						
							<line fill="none" stroke="#6B6B6B" stroke-width="2.6714" stroke-miterlimit="10" x1="1901.2" y1="319.5" x2="1907.6" y2="317.8"/>
						
							<line fill="none" stroke="#6B6B6B" stroke-width="2.6714" stroke-miterlimit="10" x1="1865.1" y1="319.5" x2="1858.7" y2="317.8"/>
					</g>
					<g>
						<path fill="#F6F8F9" d="M1874.7,359.6c0,0,2.5,13.6,2.7,20.4s0,72.3,0,72.3s-18.5-0.1-21.7-2.3c-3.2-2.2-2.2-4.6-2.1-8.3
							c0.1-3.7,3.8-65,3.8-65l2.2-23.4L1874.7,359.6z"/>
						<path fill="#F6F8F9" d="M1871.8,346.8c0,0-5.4,2-7.6,2.8c-2.2,0.8-5.8,0.7-4.9,8.5c0.9,7.8,10.9,0.3,10.9,0.3l1.1-10.1
							L1871.8,346.8z"/>
					</g>
					<path fill="#D0D2D3" d="M1856.2,397.3c0,0,6.8,12.9,21.3,12.5v-12.1l-21.1-2.9L1856.2,397.3z"/>
					<path fill="#A1CBDB" d="M1890.2,346.8c0,0-1,3-7.2,3.4c-6.2-0.3-7.2-3.4-7.2-3.4l-4.8,2.5v14h12.1h12.1v-14L1890.2,346.8z"/>
					<polygon fill="#F6F8F9" points="1873.1,351.8 1875.4,363.4 1869.1,363.4 1869.1,347.8 1871.8,346.8 1873.6,346 					"/>
					<path fill="#376DB4" d="M1885.6,353l-1.6-3.1l-1.1,0.1l-1.1-0.1l-1.6,3.1c0,0,0.3,2.1,1.2,2.6l-1.2,7.8h2.7h2.7l-1.2-7.8
						C1885.3,355.1,1885.6,353,1885.6,353"/>
					<polygon fill="#F6F8F9" points="1892.6,351.8 1890.3,363.4 1896.6,363.4 1896.6,347.8 1894,346.8 1892.2,346 					"/>
					<path fill="#BCE0ED" d="M1881.9,350l-2.7,5c0,0-3-2-5-4.4c0,0-1.7-1.7-0.7-3.4l2-2C1875.6,345.3,1876.2,349,1881.9,350"/>
					<polygon fill="#DCDCE0" points="1874.2,350.8 1873.9,354.4 1872.5,355.8 1872.2,352.8 					"/>
					<path fill="#ADAFAF" d="M1868.9,364.8c0.2-5.5,0.6-13.3,5.2-17.1c0.9-0.7-0.3-2.1-1.2-1.3c-5,4.2-5.5,12.4-5.7,18.4
						C1867.1,365.8,1868.9,365.9,1868.9,364.8"/>
					<path fill="#F5F6F7" d="M1874.2,347.3c0,0-1,2,0,3.4c0,0-1.7,3-1.7,5c0,0-0.7,0.3-0.7-0.7c0,0-1-4.7,0-7c0,0,0.7-1.3,2-2.3
						l1.7-1v0.7L1874.2,347.3z"/>
					<path fill="#BCE0ED" d="M1883.9,350l2.7,5c0,0,3-2,5-4.4c0,0,1.7-1.7,0.7-3.4l-2-2C1890.3,345.3,1889.6,349,1883.9,350"/>
					<polygon fill="#DCDCE0" points="1891.6,350.8 1892,354.4 1893.3,355.8 1893.6,352.8 					"/>
					<path fill="#F6F8F9" d="M1891,359.6c0,0-2.5,13.6-2.7,20.4s0,72.3,0,72.3s18.5-0.1,21.7-2.3c3.2-2.2,2.2-4.6,2.1-8.3
						c-0.1-3.7-3.8-65-3.8-65l-2.2-23.4L1891,359.6z"/>
					<path fill="#376DB4" d="M1880.5,361.8c0,0-1.5,10.9-1.6,11.7s2.9,3.9,3.4,4.4s4-3.2,4.2-3.8c0.3-0.6,0.3-1,0-3.2
						c-0.1-1.1-1.1-8.6-1.1-8.6L1880.5,361.8z"/>
					<path fill="#F6F8F9" d="M1894,346.8c0,0,5.4,2,7.6,2.8c2.2,0.8,5.8,0.7,4.9,8.5c-0.9,7.8-10.9,0.3-10.9,0.3l-1.1-10.1
						L1894,346.8z"/>
					<path fill="#D0D2D3" d="M1862.6,358.9c0,0,3.9,13.4,8.3,17.2c4.4,3.8-1.2,4.6-1.2,4.6l-6.2-4.5L1862.6,358.9z"/>
					<g>
						<path fill="#ADAFAF" d="M1891.9,347.8c3.6,2.3,3.2,6.6,3.3,10.4c0,1.2,1.8,1.1,1.8,0c0-4.5,0.1-9.2-4.2-11.9
							C1891.8,345.5,1890.9,347.1,1891.9,347.8"/>
						<path fill="#ADAFAF" d="M1891.8,371.6c-1.3-0.1-1-1.1-0.8-1.9c0.2-1.3,0.5-2.6,0.7-3.9c0.2-1.2,0.4-2.3,0.6-3.5
							c0.1-0.5,0.1-1,0.3-1.4c0.8-1.5,2.9-1.9,4.4-1.6c1.9,0.4,2.6,1.5,2.9,3.2c0.3,1.3,0.5,2.7,0.8,4c0.3,1.3,1.8,5.2-0.5,5.1
							c-1.2,0-1.1,1.8,0,1.8c2.8,0.1,3.3-2.1,2.9-4.3c-0.5-2.7-1-5.4-1.6-8c-1-4.3-7.5-4.8-10-1.7c-0.8,1-0.8,2.1-1,3.3
							c-0.3,1.6-0.6,3.3-0.9,4.9c-0.4,2.4-1.2,5.5,2.3,5.8C1893,373.5,1893,371.7,1891.8,371.6"/>
					</g>
					<g>
						<path fill="#6D6E70" d="M1892.7,392.8l-24.2-4.7c-1.1-0.2-1.7-1.2-1.5-2.3l5.2-26.8c0.2-1.1,1.2-1.7,2.3-1.5l24.2,4.7
							c1.1,0.2,1.7,1.2,1.5,2.3l-5.2,26.8C1894.8,392.3,1893.7,393,1892.7,392.8"/>
						<path fill="#929497" d="M1874.1,361.4l23.5,4.6c3.9,0.8,4.7-3.7,0.9-4.5l-23.5-4.6C1871.1,356.3,1870.2,360.6,1874.1,361.4"/>
						<path fill="#F6F8F9" d="M1889.8,373.7l-11.5-2.2c-0.7-0.1-1.2-0.8-1-1.5l0.2-1.3c0.1-0.7,0.8-1.2,1.5-1l11.5,2.2
							c0.7,0.1,1.2,0.8,1,1.5l-0.2,1.3C1891.2,373.4,1890.5,373.8,1889.8,373.7"/>
					</g>
					<path fill="#F7C8B8" d="M1897.4,389l-1.8,0.3l2.5,13.8l1.8-0.3c3.6-0.6,5.9-4.3,5.3-8.1C1904.4,390.9,1900.9,388.3,1897.4,389"
						/>
					<path fill="#F6F8F9" d="M1849.5,368.6c1.1-10.2,9-16.8,9-16.8l2.5,1.5l2.9,10.6c1,3.3,3.2,10.6,4.5,12.8
						c4.3,7.1,28,10.8,28,10.8c0,4.7,0.9,6.6,2.8,16.9c0,0-29,4.7-36.5-1.2C1847.5,391.4,1849.5,368.6,1849.5,368.6"/>
					<path fill="#F5F6F7" d="M1891.6,347.3c0,0,1,2,0,3.4c0,0,1.7,3,1.7,5c0,0,0.7,0.3,0.7-0.7c0,0,1-4.7,0-7c0,0-0.7-1.3-2-2.3
						l-1.7-1v0.7L1891.6,347.3z"/>
				</g>
				<g>
					<path fill="#723D25" d="M1858.5,318.1v-5.5c0-13.7,11-22.8,24.5-22.8s24.5,9.2,24.5,22.8v5.5l-2.6,0.3l-1.2-7.3l-21.1-8.1
						l-20.8,8l-0.7,7.3L1858.5,318.1z"/>
					<polygon fill="#723D25" points="1904.7,311.3 1892,311.3 1887.6,307.4 1887.2,311.3 1861.4,311.3 1867.1,298.8 1900.4,298.8 
											"/>
					<polygon fill="#723D25" points="1882.8,289.8 1876.6,286.9 1878.5,291.3 					"/>
					<polygon fill="#723D25" points="1885.2,290.3 1885.2,287.9 1880.4,290.3 					"/>
				</g>
			</g>
			<g>
				<path fill="#044668" d="M1647.8,392.8c-5.3,0-9.3,2.5-9.3,5.7l1.1,71c0,0.1,0,0.1,0,0.2c0.1,0.9,0.9,1.6,2,1.6h13.5
					c1.1,0,2-0.7,2-1.6v-0.1l2.2-71C1659.3,395.3,1653.1,392.8,1647.8,392.8z"/>
				<path fill="#F7C8B8" d="M1636.6,477.3L1636.6,477.3c0-2.4,2-4.3,4.3-4.3h13.7c2.4,0,4.3,2,4.3,4.3c0,2.4-2,4.3-4.3,4.3H1641
					C1638.6,481.6,1636.6,479.7,1636.6,477.3"/>
				<path fill="#212120" d="M1649.6,468.5h-3.5c-5.3,0-9.7,4.3-9.7,9.6v1.6v1l0,0c0,0.5,0.4,1,1,1h20.9c0.5,0,1-0.4,1-1l0,0v-1v-1.6
					C1659.2,472.8,1654.9,468.5,1649.6,468.5"/>
				<path fill="#404041" d="M1636.4,478.5v1.1v1l0,0c0,0.5,0.4,1,1,1h20.9c0.5,0,1-0.4,1-1l0,0v-1v-1.1H1636.4z"/>
				<path fill="#044668" d="M1672.2,392.8c-5.3,0-11.5,2.5-11.5,5.7l2.2,71c0,0.1,0,0.1,0,0.2c0.1,0.9,0.9,1.6,2,1.6h13.5
					c1.1,0,2-0.7,2-1.6v-0.1l1.1-71C1681.4,395.3,1677.4,392.8,1672.2,392.8z"/>
				<path fill="#F7C8B8" d="M1660.9,477.3L1660.9,477.3c0-2.4,2-4.3,4.3-4.3h13.7c2.4,0,4.3,2,4.3,4.3c0,2.4-2,4.3-4.3,4.3h-13.7
					C1662.9,481.6,1660.9,479.7,1660.9,477.3"/>
				<path fill="#212120" d="M1673.9,468.5h-3.5c-5.3,0-9.7,4.3-9.7,9.6v1.6v1l0,0c0,0.5,0.4,1,1,1h20.9c0.5,0,1-0.4,1-1l0,0v-1v-1.6
					C1683.6,472.8,1679.2,468.5,1673.9,468.5"/>
				<path fill="#404041" d="M1660.7,478.5v1.1v1l0,0c0,0.5,0.4,1,1,1h20.9c0.5,0,1-0.4,1-1l0,0v-1v-1.1H1660.7z"/>
				<rect x="1652.3" y="340.3" fill="#F7C8B8" width="14.7" height="11.7"/>
				<path fill="#F7C8B8" d="M1673.9,414.8h-27.8c-4.9,0-8.8-5.1-8.8-11.4v-44.5c-0.2-5.1,3.8-8,8.8-10.3l8.3-3.4h11.3l8.3,3.4
					c5.1,2.9,8.6,4.6,8.8,10.3v44.5C1682.7,409.6,1678.8,414.8,1673.9,414.8"/>
				<polygon fill="#002C3F" points="1658.9,352.4 1659.2,353.6 1655.7,354.3 1654.4,352.9 1656.2,350.8 				"/>
				<polygon fill="#002C3F" points="1660.8,352.4 1660.5,353.6 1664,354.3 1665.3,352.9 1663.5,350.8 				"/>
				<path fill="#E09081" d="M1666.9,339.6h-14.6v3.3c2.1,1.9,4.6,3,7.2,3h0.1c2.7-0.1,5.1-1.2,7.2-3v-3.3H1666.9z"/>
				<path fill="#044668" d="M1660,424.7L1660,424.7c-12,0-21.7-5.1-21.7-27v-9c0-14.8,9.8-27,21.7-27c12,0,21.7,12.1,21.7,27v9
					C1681.7,421.5,1671.9,424.7,1660,424.7"/>
				<path fill="#013951" d="M1657.9,422.8c-4.5,0-8.7-1.3-12.5-3.5c4.1,3.4,9.1,5.4,14.6,5.4s10.5-2,14.6-5.4
					c-3.7,2.2-8,3.5-12.5,3.5H1657.9z"/>
				<g>
					<path fill="#F7C8B8" d="M1617.2,417.9L1617.2,417.9c-3.5-1.3-5.3-5.3-4-8.8l19.9-52.6c1.3-3.5,5.3-5.3,8.8-4l0,0
						c3.5,1.3,5.3,5.3,4,8.8l-19.9,52.6C1624.7,417.4,1620.7,419.2,1617.2,417.9z"/>
					<path fill="#044668" d="M1625.4,412.1l-10.2-3.8c-1.1-0.4-1.6-1.6-1.2-2.7l18.8-50.4c1.5-3.9,5.8-5.9,9.7-4.4l0,0
						c3.9,1.5,5.9,5.8,4.4,9.7l-18.8,50.4C1627.7,411.9,1626.5,412.5,1625.4,412.1z"/>
					<polygon fill="#013448" points="1637.1,377.2 1628.4,410.3 1637.1,386.9 					"/>
				</g>
				<g>
					<path fill="#F7C8B8" d="M1702.5,417.9L1702.5,417.9c3.5-1.3,5.3-5.3,4-8.8l-19.9-52.6c-1.3-3.5-5.3-5.3-8.8-4l0,0
						c-3.5,1.3-5.3,5.3-4,8.8l19.9,52.6C1695,417.4,1699,419.2,1702.5,417.9z"/>
					<path fill="#044668" d="M1694.3,412.1l10.2-3.8c1.1-0.4,1.6-1.6,1.2-2.7l-18.9-50.4c-1.5-3.9-5.8-5.9-9.7-4.4l0,0
						c-3.9,1.5-5.9,5.8-4.4,9.7l18.9,50.4C1692,411.9,1693.2,412.5,1694.3,412.1z"/>
					<polygon fill="#013448" points="1682.9,378 1690.1,406.9 1682.9,387.6 					"/>
				</g>
				<path fill="#044668" d="M1674.8,348.3l-5.7-2.2c-1.3,2-1,4.5-2.8,5.7c-1.9,1.2-4,1.9-6.2,1.9c-4.5,0-8.4-2.6-11-6.7l-3.8,1.3
					c-5.1,2-8.3,2-8.1,6.5v57.5h45.8v-57.5C1682.7,349.8,1679.9,350.8,1674.8,348.3"/>
				<path fill="#723D25" d="M1668.3,331.3h-16.7c-8.3,0-15.1-6.8-15.1-15.1v-2.5c0-8.3,6.8-15.1,15.1-15.1h16.7
					c8.3,0,15.1,6.8,15.1,15.1v2.5C1683.4,324.5,1676.6,331.3,1668.3,331.3"/>
				<ellipse fill="#7A474D" cx="1659.8" cy="315.8" rx="24.3" ry="25.9"/>
				<path fill="#F7C8B8" d="M1659.8,344.4L1659.8,344.4c-12.6,0-22.9-10.3-22.9-22.8c0-12.6,10.3-22.8,22.9-22.8
					s22.9,10.3,22.9,22.8C1682.7,334.1,1672.4,344.4,1659.8,344.4"/>
				<path fill="#7A474D" d="M1642.1,311.8c0,0,10.1-1.8,35.4,0l3.1-3.2l-10.4-5.9h-27C1643.3,302.6,1635.1,304.3,1642.1,311.8z"/>
				<path fill="#F7C8B8" d="M1640.5,327.4h-4.6c-2.5,0-4.6-2.1-4.6-4.6s2.1-4.6,4.6-4.6h4.6c2.5,0,4.6,2.1,4.6,4.6
					S1643.1,327.4,1640.5,327.4"/>
				<path fill="#E09081" d="M1637.1,320.8h-0.3c-1.4,0-2.6,0.7-2.6,1.6v0.7c0,0.9,1.2,1.6,2.6,1.6h0.3V320.8z"/>
				<path fill="#F7C8B8" d="M1679.4,327.4h4.6c2.5,0,4.6-2.1,4.6-4.6s-2.1-4.6-4.6-4.6h-4.6c-2.5,0-4.6,2.1-4.6,4.6
					C1674.9,325.3,1676.9,327.4,1679.4,327.4"/>
				<path fill="#7A474D" d="M1675.5,303c0,0-1.2,5.4,2.1,8.7c3.3,3.3,3.7,10.8,3.7,10.8s2.1-1.7,1.6-6
					C1682.4,312.1,1680.5,305,1675.5,303z"/>
				<path fill="#7A474D" d="M1644.2,303c0,0,1.2,5.4-2.1,8.7c-3.3,3.4-3.7,10.8-3.7,10.8s-2.1-1.7-1.6-6S1639.2,305,1644.2,303z"/>
				<path fill="#E09081" d="M1682.9,320.8h0.3c1.4,0,2.6,0.7,2.6,1.6v0.7c0,0.9-1.2,1.6-2.6,1.6h-0.3V320.8z"/>
				<path fill="#8A2D22" d="M1668.9,331.5h-8.6h-0.5h-8.6c0,0-1.4,0-1,1.6c0,0,1.8,5.3,9.5,5.5l0,0c0.1,0,0.2,0,0.2,0
					c0.1,0,0.2,0,0.2,0l0,0c7.7-0.2,9.5-5.5,9.5-5.5C1670.3,331.5,1668.9,331.5,1668.9,331.5"/>
				<path fill="#DA6766" d="M1660.1,335.3c-1.9,0-3.5,1-4.4,2.6c1.1,0.4,2.5,0.7,4.1,0.7l0,0c0.1,0,0.2,0,0.2,0c0.1,0,0.2,0,0.2,0
					l0,0c1.6,0,3-0.3,4.1-0.7C1663.6,336.4,1662,335.3,1660.1,335.3"/>
				<path fill="#E19080" d="M1659.8,327.1c-1.2,0-2.3-0.5-2.9-1.3v0.2c0,1.2,1.3,2.2,2.9,2.2s2.9-1,2.9-2.2v-0.2
					C1662.1,326.6,1661.1,327.1,1659.8,327.1"/>
				<path fill="#754548" d="M1650,322c1.1,0,2.1,0.2,2.9,0.5v-0.4c0-1.6-1.3-2.9-2.9-2.9s-2.9,1.3-2.9,2.9v0.4l0,0
					C1647.9,322.3,1648.9,322,1650,322"/>
				<path fill="#754548" d="M1669.8,322c1.1,0,2.1,0.2,2.9,0.5v-0.4c0-1.6-1.3-2.9-2.9-2.9s-2.9,1.3-2.9,2.9v0.4
					C1667.7,322.3,1668.7,322,1669.8,322"/>
				<path fill="#F5B0A4" d="M1646.6,326.8c0,1.6-1.3,2.9-2.9,2.9s-2.9-1.3-2.9-2.9c0-1.6,1.3-2.9,2.9-2.9
					C1645.4,323.9,1646.6,325.3,1646.6,326.8"/>
				<path fill="#F5B0A4" d="M1678.8,326.8c0,1.6-1.3,2.9-2.9,2.9s-2.9-1.3-2.9-2.9c0-1.6,1.3-2.9,2.9-2.9S1678.8,325.3,1678.8,326.8
					"/>
				<path fill="#FFFFFF" d="M1660.3,331.5h-0.5h-5.6c0.7,1.5,2.3,2.6,4.1,2.6h3.4c1.8,0,3.4-1.1,4.1-2.6H1660.3z"/>
				<polygon fill="#08638C" points="1658.9,352.4 1652.3,345.3 1648.5,346.9 1652.5,356.5 1656.9,351.8 				"/>
				<polygon fill="#08638C" points="1660.8,352.4 1667,345.3 1671.1,346.8 1667.1,356.5 1662.7,351.8 				"/>
				<g>
					<polygon fill="#212120" points="1659.8,407.9 1659.8,413.6 1637.1,412.2 1637,407.9 					"/>
					<polygon fill="#212120" points="1659.8,407.9 1659.8,413.6 1682.9,412.2 1682.9,407.9 					"/>
				</g>
				<g>
					<path fill="#002C3F" d="M1676.6,308.9c0,5.2-7.6,9.4-17,9.4s-17-4.2-17-9.4s7.6-9.4,17-9.4S1676.6,303.8,1676.6,308.9"/>
					<path fill="#004C66" d="M1649.8,316.8c1.7,0.6,3.6,1.1,5.6,1.4v-18.3c-2,0.3-3.9,0.7-5.6,1.4V316.8z"/>
					<path fill="#044668" d="M1685.5,298.1c0,8.1-11.6,14.6-25.9,14.6s-25.9-6.5-25.9-14.6c0-8.1,11.6-14.6,25.9-14.6
						S1685.5,290,1685.5,298.1"/>
					<path fill="#FFEEA5" d="M1670.1,302.1l-20.7,0.1c-0.1,0-0.2-0.1-0.2-0.2v-0.4c0-0.1,0.1-0.3,0.2-0.3l20.7-0.1
						c0.1,0,0.2,0.1,0.2,0.2v0.4C1670.3,302,1670.2,302.1,1670.1,302.1"/>
					<path fill="#FFEEA5" d="M1669,303.5l-18.6,0.1c-0.1,0-0.2-0.1-0.2-0.2V303c0-0.1,0.1-0.3,0.2-0.3l18.6-0.1
						c0.1,0,0.2,0.1,0.2,0.2v0.4C1669.3,303.4,1669.2,303.5,1669,303.5"/>
					<path fill="#FFEEA5" d="M1667.3,304.8l-15,0.1c-0.1,0-0.2-0.1-0.2-0.2v-0.4c0-0.1,0.1-0.3,0.2-0.3l15-0.1
						c0.1,0,0.2,0.1,0.2,0.2v0.4C1667.5,304.8,1667.4,304.8,1667.3,304.8"/>
					<path fill="#FFDA3E" d="M1663.7,303.3c0,2.3-1.8,4.1-4.1,4.1c-2.2,0-4.1-1.8-4.1-4.1c0-2.3,1.8-4.1,4.1-4.1
						C1661.9,299.1,1663.7,300.9,1663.7,303.3"/>
					<path fill="#FFF7D2" d="M1661.2,303.3c0,0.9-0.7,1.6-1.6,1.6s-1.6-0.7-1.6-1.6c0-0.9,0.7-1.6,1.6-1.6
						S1661.2,302.3,1661.2,303.3"/>
					<path fill="#FFDA3E" d="M1643.3,308.4c0,0.5-0.4,0.9-0.9,0.9s-0.9-0.4-0.9-0.9s0.4-0.9,0.9-0.9S1643.3,307.9,1643.3,308.4"/>
					<path fill="#FFDA3E" d="M1677.8,308.4c0,0.5-0.4,0.9-0.9,0.9s-0.9-0.4-0.9-0.9s0.4-0.9,0.9-0.9S1677.8,307.9,1677.8,308.4"/>
				</g>
				<g>
					<path fill="#FFDA3E" d="M1640,349.6l-1.3,0.5l1.9,4.5c0.1,0.3,0.6,0.5,0.9,0.4c0.3-0.2,0.5-0.6,0.4-0.9L1640,349.6z"/>
					<path fill="#FFDA3E" d="M1641.8,348.8l-1.3,0.5l1.9,4.5c0.1,0.3,0.6,0.5,0.9,0.4c0.3-0.2,0.5-0.6,0.4-0.9L1641.8,348.8z"/>
					<path fill="#FFDA3E" d="M1643.5,348.1l-1.3,0.5l1.9,4.4c0.1,0.3,0.6,0.5,0.9,0.4c0.3-0.1,0.5-0.6,0.4-0.9L1643.5,348.1z"/>
				</g>
				<g>
					<path fill="#FFDA3E" d="M1679.5,349.6l1.3,0.5l-1.9,4.5c-0.1,0.3-0.6,0.5-0.9,0.4c-0.3-0.2-0.5-0.6-0.4-0.9L1679.5,349.6z"/>
					<path fill="#FFDA3E" d="M1677.7,348.8l1.3,0.5l-1.9,4.5c-0.1,0.3-0.6,0.5-0.9,0.4c-0.3-0.2-0.5-0.6-0.4-0.9L1677.7,348.8z"/>
					<path fill="#FFDA3E" d="M1675.9,348.1l1.3,0.5l-1.9,4.4c-0.1,0.3-0.6,0.5-0.9,0.4c-0.3-0.1-0.5-0.6-0.4-0.9L1675.9,348.1z"/>
				</g>
				<path fill="#002C3F" d="M1661.7,352.8l1.3,2.2c0.2,0.3,0.2,0.8,0,1.1l-1.3,2.2c-0.1,0.2-0.3,0.3-0.5,0.3h-2.8
					c-0.2,0-0.4-0.1-0.5-0.3l-1.3-2.2c-0.2-0.3-0.2-0.8,0-1.1l1.3-2.2c0.1-0.2,0.3-0.3,0.5-0.3h2.8
					C1661.4,352.6,1661.6,352.8,1661.7,352.8z"/>
				<polygon fill="#002C3F" points="1658.3,358 1654.8,389.7 1660.1,398 1665.3,389.7 1661.4,358 				"/>
				<g>
					<path fill="#FFDA3E" d="M1675.6,362.1c0.3,0,0.5,0.3,0.5,0.6c-0.2,5.2-2.9,8.8-5.1,8.8c-2.3,0-4.9-3.6-5.1-8.8
						c0-0.3,0.2-0.5,0.5-0.6c0.9-0.1,3-0.5,4.2-1.7c0.2-0.2,0.6-0.2,0.8,0C1672.7,361.8,1674.7,362,1675.6,362.1z"/>
					<path fill="#FFEEA5" d="M1671.1,370.4c-1.5,0-3.7-2.9-4-7.3c1.1-0.2,2.7-0.6,4-1.6c1.3,1,2.9,1.5,4,1.6
						C1674.7,367.8,1672.4,370.4,1671.1,370.4z"/>
				</g>
			</g>
			<g>
				<path fill="#FACAB9" d="M1972.9,423.8L1972.9,423.8c3.6-0.9,5.7-4.6,4.8-8.1l-8.7-56.8c-0.9-3.6-4.6-5.7-8.1-4.8
					c-3.6,0.9-5.7,4.6-4.8,8.1l8.7,56.8C1965.7,422.6,1969.4,424.7,1972.9,423.8"/>
				<path fill="#655296" d="M1960.6,352.9c-4.3,1.1-7,5.5-5.9,9.8l2.7,18.2c0.2,0.8,0.9,1.3,1.7,1.1l13.2-2.2c0.2,0,0.3-0.1,0.5-0.2
					s0.4-0.3,0.5-0.4c0.2-0.3,0.3-0.7,0.2-1.1l-2.9-19.3v-0.1C1969.4,354.5,1964.9,351.8,1960.6,352.9"/>
				<g>
					<path fill="#FACAB9" d="M1998.5,423.5L1998.5,423.5c-3.6-0.8-5.9-4.4-5.1-8l7.2-57c0.8-3.6,4.4-5.8,8-5s5.9,4.4,5.1,8l-7.2,57
						C2005.7,422.1,2002.1,424.4,1998.5,423.5"/>
					<path fill="#655296" d="M2009,352.3c4.4,1,7.1,5.3,6.2,9.7l-2.2,18.3c-0.1,0.8-0.9,1.3-1.6,1.2l-13.2-1.9
						c-0.2,0-0.3-0.1-0.5-0.2s-0.4-0.2-0.5-0.4c-0.2-0.3-0.3-0.7-0.3-1.1l2.4-19.4v-0.1C2000.2,354.1,2004.6,351.3,2009,352.3"/>
				</g>
				<path fill="#FACAB9" d="M1981.3,477.8L1981.3,477.8v-70.1c0-4.5-3.7-8.2-8.3-8.2c-4.5,0-8.3,3.7-8.3,8.2v70c0,0,0,0,0,0.1
					H1981.3z"/>
				<path fill="#FACAB9" d="M2005.6,477.8L2005.6,477.8v-70.1c0-4.5-3.7-8.2-8.3-8.2c-4.5,0-8.3,3.7-8.3,8.2v70c0,0,0,0,0,0.1
					H2005.6z"/>
				<rect x="1977.5" y="340.8" fill="#FACAB9" width="14.7" height="11.6"/>
				<path fill="#FACAB9" d="M1998.5,415h-26.6c-4.6,0-8.4-5.1-8.4-11.4v-44.4c-0.2-5.1,3.6-8,8.4-10.2l7.9-3.4h10.8l7.9,3.4
					c4.9,2.8,8.3,4.5,8.4,10.2v44.4C2006.9,409.9,2003.1,415,1998.5,415"/>
				<path fill="#E39384" d="M1992.1,340h-14.6v3.3c2.1,1.9,4.6,3,7.2,3h0.1c2.7-0.1,5.1-1.2,7.2-3V340H1992.1z"/>
				<path fill="#723D25" d="M1985.2,340.3h-1.2c-13.7,0-24.8-11.1-24.8-24.7v-0.7c0-13.6,11.2-24.7,24.8-24.7h1.2
					c13.7,0,24.8,11.1,24.8,24.7v0.7C2010,329,1998.9,340.3,1985.2,340.3"/>
				<path fill="#723D25" d="M1968.1,337.9c0,0,2.6-3.7,0-7c-1.8-2.2-4.8-3.3-7.2-3c0,0-2.4,0.2-4.4,2.1c-1.2,1.1-2.4,3.2-3,5.3
					c0,0-1.2,6.6-3,7.1c0,0-1.4,0.1-0.5,0.9c0.1,0.1,1.3,0.6,2.6,0.8c1.1,0.2,2.4,0.3,3.9,0.3
					C1964.3,343.9,1968.1,337.9,1968.1,337.9"/>
				<path fill="#723D25" d="M2001.8,337.9c0,0-2.6-3.7,0-7c1.8-2.2,4.8-3.3,7.2-3c0,0,2.4,0.2,4.4,2.1c1.2,1.1,2.4,3.2,3,5.3
					c0,0,1.2,6.6,3,7.1c0,0,1.4,0.1,0.5,0.9c-0.1,0.1-1.3,0.6-2.6,0.8c-1.1,0.2-2.4,0.3-3.9,0.3
					C2005.6,343.9,2001.8,337.9,2001.8,337.9"/>
				<path fill="#FACAB9" d="M1965.6,327.8h-4.6c-2.5,0-4.6-2.1-4.6-4.6s2.1-4.6,4.6-4.6h4.6c2.5,0,4.6,2.1,4.6,4.6
					C1970.2,325.8,1968.1,327.8,1965.6,327.8"/>
				<path fill="#E39384" d="M1962.2,321.3h-0.3c-1.4,0-2.6,0.7-2.6,1.6v0.7c0,0.9,1.2,1.6,2.6,1.6h0.3V321.3z"/>
				<path fill="#FACAB9" d="M2004.6,327.8h4.6c2.5,0,4.6-2.1,4.6-4.6s-2.1-4.6-4.6-4.6h-4.6c-2.5,0-4.6,2.1-4.6,4.6
					C2000,325.8,2002.1,327.8,2004.6,327.8"/>
				<path fill="#E39384" d="M2008,321.3h0.3c1.4,0,2.6,0.7,2.6,1.6v0.7c0,0.9-1.2,1.6-2.6,1.6h-0.3V321.3z"/>
				<path fill="#FACAB9" d="M1985,344.8L1985,344.8c-12.6,0-22.9-10.3-22.9-22.9s10.3-22.9,22.9-22.9s22.9,10.3,22.9,22.9
					S1997.6,344.8,1985,344.8"/>
				<path fill="#723D25" d="M2009.2,310.5c-1.6-11.6-11.9-20.6-24.4-20.6s-22.8,9-24.4,20.6H2009.2z"/>
				<path fill="#723D25" d="M1992.5,309.5c0,0-1.1,8.6-8,9.1h-24.1c0,0-0.8-4.9,0.4-10.5L1992.5,309.5z"/>
				<path fill="#723D25" d="M1991.4,309.5c0,0,1.1,9.1,6.7,9.1h10.9c0,0,0.5-4.9-0.2-10.5L1991.4,309.5z"/>
				<path fill="#E39382" d="M1985,327.5c-1.2,0-2.3-0.5-2.9-1.3v0.2c0,1.2,1.3,2.2,2.9,2.2s2.9-1,2.9-2.2v-0.2
					C1987.2,327,1986.2,327.5,1985,327.5"/>
				<path fill="#754448" d="M1975.1,323.6c1.1,0,2.1,0.2,2.9,0.5v-0.4c0-1.6-1.3-2.9-2.9-2.9s-2.9,1.3-2.9,2.9v0.4l0,0
					C1973,323.8,1974,323.6,1975.1,323.6"/>
				<path fill="#754448" d="M1994.9,323.6c1.1,0,2.1,0.2,2.9,0.5l0,0v-0.4c0-1.6-1.3-2.9-2.9-2.9s-2.9,1.3-2.9,2.9v0.4
					C1992.8,323.8,1993.8,323.6,1994.9,323.6"/>
				<path fill="#F8B3A7" d="M1975.6,328.3c0,1.6-1.3,2.9-2.9,2.9s-2.9-1.3-2.9-2.9c0-1.6,1.3-2.9,2.9-2.9
					C1974.4,325.5,1975.6,326.8,1975.6,328.3"/>
				<path fill="#F8B3A7" d="M2000,328.3c0,1.6-1.3,2.9-2.9,2.9s-2.9-1.3-2.9-2.9c0-1.6,1.3-2.9,2.9-2.9
					C1998.7,325.5,2000,326.8,2000,328.3"/>
				<path fill="#FDF2F7" d="M1989.1,459.3v15.8l0,0h16.5l0,0v-15.8H1989.1z"/>
				<path fill="#FDF2F7" d="M1964.8,459.3v15.8l0,0h16.5l0,0v-15.8H1964.8z"/>
				<path fill="#FACAB9" d="M1961.9,477.3L1961.9,477.3c0-2.4,2-4.3,4.3-4.3h13.7c2.4,0,4.3,1.9,4.3,4.3s-2,4.3-4.3,4.3h-13.7
					C1963.8,481.6,1961.9,479.7,1961.9,477.3"/>
				<path fill="#655296" d="M1974.8,468.5h-3.5c-5.3,0-9.6,4.3-9.6,9.6v1.6v1l0,0c0,0.5,0.4,1,1,1h20.9c0.5,0,1-0.4,1-1l0,0v-1v-1.6
					C1984.5,472.8,1980.1,468.5,1974.8,468.5"/>
				<path fill="#775DA7" d="M1961.7,478.6v1.1v1l0,0c0,0.5,0.4,1,1,1h20.9c0.5,0,1-0.4,1-1l0,0v-1v-1.1H1961.7z"/>
				<path fill="#FACAB9" d="M1986.2,477.3L1986.2,477.3c0-2.4,2-4.3,4.3-4.3h13.7c2.4,0,4.3,1.9,4.3,4.3s-2,4.3-4.3,4.3h-13.7
					C1988.1,481.6,1986.2,479.7,1986.2,477.3"/>
				<path fill="#655296" d="M1999.1,468.5h-3.5c-5.3,0-9.6,4.3-9.6,9.6v1.6v1l0,0c0,0.5,0.4,1,1,1h20.9c0.5,0,1-0.4,1-1l0,0v-1v-1.6
					C2008.7,472.8,2004.4,468.5,1999.1,468.5"/>
				<path fill="#775DA7" d="M1986,478.6v1.1v1l0,0c0,0.5,0.4,1,1,1h20.9c0.5,0,1-0.4,1-1l0,0v-1v-1.1H1986z"/>
				<path fill="#775DA7" d="M2008.1,395.1h-45.9l-7.8,25.1c6.1,7.5,11.8,8.3,30.8,8.3s24.3-0.6,30.5-8.1L2008.1,395.1z"/>
				<path fill="#F59C9E" d="M2008.2,395.1L2008.2,395.1L2008.2,395.1L2008.2,395.1z"/>
				<path fill="#F59C9E" d="M1962.2,395.1L1962.2,395.1C1962.3,395.1,1962.2,395.1,1962.2,395.1L1962.2,395.1z"/>
				<path fill="#F59C9E" d="M1985.2,399.2c8.3,0,16.1-1.5,22.9-4.1h-45.9C1969.1,397.7,1976.9,399.2,1985.2,399.2"/>
				<path fill="#8B2C22" d="M1993.7,332h-8.6h-0.5h-8.6c0,0-1.4,0-1,1.6c0,0,1.8,5.3,9.5,5.5l0,0c0.1,0,0.2,0,0.2,0
					c0.1,0,0.2,0,0.2,0l0,0c7.7-0.2,9.5-5.5,9.5-5.5C1995.2,332,1993.7,332,1993.7,332"/>
				<path fill="#DD6766" d="M1984.9,335.8c-1.9,0-3.5,1-4.4,2.6c1.1,0.4,2.5,0.7,4.1,0.7l0,0c0.1,0,0.2,0,0.2,0c0.1,0,0.2,0,0.2,0
					l0,0c1.6,0,3-0.3,4.1-0.7C1988.4,336.9,1986.8,335.8,1984.9,335.8"/>
				<path fill="#FFFFFF" d="M1985.1,332h-0.5h-5.6c0.7,1.5,2.3,2.6,4.1,2.6h3.4c1.8,0,3.4-1.1,4.1-2.6H1985.1z"/>
				<g>
					<polygon fill="#775DA7" points="1984.6,282.3 1981.9,281 1972,295.3 1997.2,295.3 1987.3,281 					"/>
					<path fill="#775DA7" d="M1984.6,301.8c6.8,0,12.4-2.8,12.6-6.4H1972C1972.2,298.8,1977.8,301.8,1984.6,301.8"/>
					<polygon fill="#FFEEA5" points="1984.6,292 1977.7,286.5 1976.9,287.4 1984.6,293.5 1992.2,287.4 1991.5,286.5 					"/>
					<path fill="#8172B3" d="M1998.5,295.1l-1.5-2.4c-2.3,2.3-7,3.9-12.3,3.9c-5.4,0-10-1.6-12.3-3.9l-1.5,2.4l0,0l0,0l0,0
						c0.3,3.9,6.4,7,13.9,7C1992.1,302.1,1998.2,299,1998.5,295.1L1998.5,295.1L1998.5,295.1L1998.5,295.1"/>
				</g>
				<rect x="1973.6" y="357.5" fill="#FFFFFF" width="23.2" height="13.1"/>
				<path fill="#775DA7" d="M2001.8,350.3l-2.7-0.9l-13.7,18.2L1972,348l-1.7,0.9c-5.1,2.3-8.3,2.4-8.1,7.6V412h45.9v-55.5
					C2008,350.8,2006.8,352.5,2001.8,350.3z"/>
				<g>
					<path fill="#61479C" d="M1970,349.6c2.9,0.1,5.2-1.5,5.2-2.2s-2.3-2.3-5.2-2.4c-2.9-0.1-4.4,2-5.2,2.2
						C1964.1,347.4,1967.1,349.6,1970,349.6"/>
					<path fill="#775DA7" d="M1970.2,346.1c2.1,2,4.8,2.5,5.3,2s-0.1-3.3-2.2-5.3s-4.4-1.5-5.3-2
						C1967.4,340.4,1968.1,344,1970.2,346.1"/>
					<path fill="#775DA7" d="M1992.2,345.8c0,0-5,4.2-14.7,0v-0.9c0,0-0.4,0-1.3,0.4s-2.2,2.6-2.2,2.6s3,3.1,10,4.4
						c0,0,6.5,0.9,13.9-3.5c0,0,0-1.9-5.7-4.4v0.9L1992.2,345.8L1992.2,345.8z"/>
				</g>
				<polygon fill="#655296" points="1962.2,395.2 1985.2,401.2 2008.2,395.3 2008.5,396.2 1985.2,402.3 1962,396.1 				"/>
				<g>
					<circle fill="#655296" cx="1983.3" cy="373.5" r="1.2"/>
					<circle fill="#655296" cx="1983.1" cy="373.3" r="1.2"/>
					
						<ellipse transform="matrix(0.3677 -0.93 0.93 0.3677 906.648 2079.6423)" fill="#6F5FA0" cx="1982.6" cy="373.1" rx="0.5" ry="0.4"/>
				</g>
				<g>
					<circle fill="#655296" cx="1983.3" cy="383.9" r="1.2"/>
					<circle fill="#655296" cx="1983.1" cy="383.7" r="1.2"/>
					
						<ellipse transform="matrix(0.3677 -0.93 0.93 0.3677 896.8724 2086.2576)" fill="#6F5FA0" cx="1982.6" cy="383.6" rx="0.5" ry="0.4"/>
				</g>
				<g>
					<circle fill="#655296" cx="1983.3" cy="394.4" r="1.2"/>
					<circle fill="#655296" cx="1983.1" cy="394.2" r="1.2"/>
					
						<ellipse transform="matrix(0.3677 -0.93 0.93 0.3677 887.2067 2092.8481)" fill="#6F5FA0" cx="1982.6" cy="394" rx="0.5" ry="0.4"/>
				</g>
			</g>
			<g>
				<g>
					<path fill="#FACAB9" d="M1570.7,414.1h-26.8c-4.7,0-8.5-5.2-8.5-11.5v-45c-0.2-5.2,3.7-8.1,8.5-10.4l8-3.5h10.9l8,3.5
						c4.9,2.9,8.3,4.6,8.5,10.4v45C1579.2,408.9,1575.4,414.1,1570.7,414.1"/>
					<path fill="#F59C9E" d="M1572.2,347l-2.7-1.1c-1.6,3-4.3,5.3-7.8,6.4c-1.4,0.7-4.9,1.5-8.9,0c-3.5-1.1-6.3-3.4-7.9-6.5
						l-2.7,1.1c-5.2,2.4-8.4,2.4-8.2,7.7v56.3h46.4v-56.3C1580.3,348.8,1577.3,349.3,1572.2,347"/>
					<path fill="#F6F8F9" d="M1578.4,350l-11.5,1.7l-9.5,17.4l-9.9-17.4L1536,350c0,0-3.3,2.8-3.3,8.4v26.3h49v-26.3
						C1581.7,352.8,1578.4,350,1578.4,350"/>
					<path fill="#FACAB9" d="M1553.3,477.8C1553.3,477.7,1553.3,477.7,1553.3,477.8v-71.1c0-4.6-3.8-8.4-8.4-8.4s-8.4,3.8-8.4,8.4
						v71c0,0,0,0,0,0.1H1553.3z"/>
					<path fill="#FACAB9" d="M1577.9,477.8C1577.9,477.7,1577.9,477.7,1577.9,477.8v-71.1c0-4.6-3.8-8.4-8.4-8.4s-8.4,3.8-8.4,8.4
						v71c0,0,0,0,0,0.1H1577.9z"/>
					<path fill="#FDF2F7" d="M1561.2,459v16l0,0h16.7l0,0v-16H1561.2z"/>
					<path fill="#FDF2F7" d="M1536.6,459v16l0,0h16.7l0,0v-16H1536.6z"/>
					<path fill="#FACAB9" d="M1533.7,477.3L1533.7,477.3c0-2.4,2-4.4,4.4-4.4h13.8c2.4,0,4.4,2,4.4,4.4s-2,4.4-4.4,4.4H1538
						C1535.6,481.6,1533.7,479.7,1533.7,477.3"/>
					<path fill="#F17EA5" d="M1546.7,468.3h-3.5c-5.4,0-9.7,4.4-9.7,9.7v1.6v1l0,0c0,0.5,0.4,1,1,1h21.1c0.5,0,1-0.4,1-1l0,0v-1V478
						C1556.5,472.7,1552.1,468.3,1546.7,468.3"/>
					<path fill="#F06B97" d="M1533.5,478.5v1.1v1l0,0c0,0.5,0.4,1,1,1h21.1c0.5,0,1-0.4,1-1l0,0v-1v-1.1H1533.5z"/>
					<path fill="#FACAB9" d="M1558.2,477.3L1558.2,477.3c0-2.4,2-4.4,4.4-4.4h13.8c2.4,0,4.4,2,4.4,4.4s-2,4.4-4.4,4.4h-13.8
						C1560.2,481.6,1558.2,479.7,1558.2,477.3"/>
					<path fill="#F17EA5" d="M1571.3,468.3h-3.5c-5.4,0-9.7,4.4-9.7,9.7v1.6v1l0,0c0,0.5,0.4,1,1,1h21.1c0.5,0,1-0.4,1-1l0,0v-1V478
						C1581,472.7,1576.6,468.3,1571.3,468.3"/>
					<path fill="#F06B97" d="M1558,478.5v1.1v1l0,0c0,0.5,0.4,1,1,1h21.1c0.5,0,1-0.4,1-1l0,0v-1v-1.1H1558z"/>
					<rect x="1534.9" y="408.8" fill="#FBE163" width="44.7" height="25.1"/>
					<rect x="1549.4" y="338.8" fill="#FACAB9" width="14.8" height="11.8"/>
					<path fill="#E39384" d="M1564.2,338h-14.7v3.4c2.1,1.9,4.6,3,7.3,3.1h0.1c2.7-0.1,5.2-1.2,7.3-3.1L1564.2,338L1564.2,338z"/>
					<path fill="#FACAB9" d="M1537.4,325.8h-4.6c-2.5,0-4.6-2.1-4.6-4.6s2.1-4.6,4.6-4.6h4.6c2.5,0,4.6,2.1,4.6,4.6
						C1542.1,323.6,1540,325.8,1537.4,325.8"/>
					<path fill="#E39384" d="M1534,319h-0.3c-1.4,0-2.6,0.7-2.6,1.7v0.7c0,0.9,1.2,1.7,2.6,1.7h0.3V319z"/>
					<path fill="#FACAB9" d="M1576.8,325.8h4.6c2.5,0,4.6-2.1,4.6-4.6s-2.1-4.6-4.6-4.6h-4.6c-2.5,0-4.6,2.1-4.6,4.6
						C1572.2,323.6,1574.3,325.8,1576.8,325.8"/>
					<path fill="#E39384" d="M1580.3,319h0.3c1.4,0,2.6,0.7,2.6,1.7v0.7c0,0.9-1.2,1.7-2.6,1.7h-0.3V319z"/>
					<path fill="#FACAB9" d="M1557,342.9L1557,342.9c-12.7,0-23.2-10.4-23.2-23.2c0-12.7,10.4-23.2,23.2-23.2
						c12.7,0,23.2,10.4,23.2,23.2C1580.1,332.5,1569.7,342.9,1557,342.9"/>
					<path fill="#723D25" d="M1539.7,301.8c0,0,1.8-6.4-3.5-9.7c-3.5-2.2-8.3-2.3-11.4-0.6c0,0-3.3,1.5-5.1,5.1
						c-1.1,2.1-1.7,5.7-1.6,8.8c0,0,1.6,9.7-0.6,11.4c0,0-1.9,0.8-0.3,1.5c0.2,0.1,2.1,0.2,4-0.1c1.5-0.3,3.5-0.8,5.5-1.6
						c3.3-1.3,6.8-3.4,8.7-6.8L1539.7,301.8z"/>
					<path fill="#723D25" d="M1574.2,301.8c0,0-1.8-6.4,3.5-9.7c3.5-2.2,8.3-2.3,11.4-0.6c0,0,3.3,1.5,5.1,5.1
						c1.1,2.1,1.7,5.7,1.6,8.8c0,0-1.6,9.7,0.6,11.4c0,0,1.9,0.8,0.3,1.5c-0.2,0.1-2.1,0.2-4-0.1c-1.5-0.3-3.5-0.8-5.5-1.6
						c-3.3-1.3-6.8-3.4-8.7-6.8L1574.2,301.8z"/>
					<path fill="#723D25" d="M1581.5,308.1c-1.7-11.8-12.1-20.9-24.7-20.9s-23,9.1-24.7,20.9H1581.5z"/>
					<path fill="#723D25" d="M1564.7,307.1c0,0-1.2,8.7-8.1,9.3h-24.3c0,0-0.9-5,0.4-10.6L1564.7,307.1z"/>
					<path fill="#723D25" d="M1563.5,307.1c0,0,1.2,9.3,6.8,9.3h11c0,0,0.5-5-0.2-10.6L1563.5,307.1z"/>
					<path fill="#E39382" d="M1557,325.4c-1.2,0-2.3-0.5-2.9-1.3v0.2c0,1.2,1.3,2.3,2.9,2.3s2.9-1,2.9-2.3v-0.2
						C1559.3,324.8,1558.2,325.4,1557,325.4"/>
					<path fill="#754448" d="M1547,321.4c1.1,0,2.1,0.2,2.9,0.5v-0.5c0-1.6-1.3-2.9-2.9-2.9s-2.9,1.3-2.9,2.9v0.4l0,0
						C1544.9,321.6,1545.9,321.4,1547,321.4"/>
					<path fill="#754448" d="M1567.1,321.4c1.1,0,2.1,0.2,2.9,0.5l0,0v-0.5c0-1.6-1.3-2.9-2.9-2.9s-2.9,1.3-2.9,2.9v0.4
						C1564.9,321.6,1565.9,321.4,1567.1,321.4"/>
					<path fill="#F8B3A7" d="M1547.6,326.3c0,1.6-1.3,2.9-2.9,2.9s-2.9-1.3-2.9-2.9c0-1.6,1.3-2.9,2.9-2.9
						C1546.3,323.3,1547.6,324.6,1547.6,326.3"/>
					<path fill="#F8B3A7" d="M1572.2,326.3c0,1.6-1.3,2.9-2.9,2.9s-2.9-1.3-2.9-2.9c0-1.6,1.3-2.9,2.9-2.9
						C1570.9,323.3,1572.2,324.6,1572.2,326.3"/>
					<path fill="#FFFFFF" d="M1571,347.5c0-0.4-0.1-0.8-0.2-1.1l-1.3-0.5c-1.7,3.3-4.8,5.7-8.7,6.7c-1.1,0.3-2.2,0.6-3.6,0.6
						c-1,0-1.9-0.1-2.8-0.3h-0.1h-0.1c-4.1-0.8-7.6-3.4-9.3-6.8l-1,0.4c-0.4,0.7-0.5,1.5-0.5,2.3c0.2,2.4,2.2,4.2,4.6,4
						c0.7-0.1,1.4-0.3,2-0.6c0.4,2.2,2.3,3.7,4.6,3.6c1.2-0.1,2.3-0.7,3-1.6c0.8,0.8,2,1.2,3.2,1.1c2-0.1,3.5-1.6,3.9-3.5
						c0.7,0.3,1.4,0.5,2.2,0.4C1569.4,352,1571.2,349.9,1571,347.5"/>
					<path fill="#F59C9E" d="M1580.5,393.9L1580.5,393.9C1580.5,393.9,1580.4,393.9,1580.5,393.9L1580.5,393.9z"/>
					<path fill="#F59C9E" d="M1534,393.9L1534,393.9C1534.1,393.9,1534,393.9,1534,393.9L1534,393.9z"/>
					<path fill="#F59C9E" d="M1557.2,398c8.4,0,16.3-1.5,23.2-4.2h-46.3C1541,396.5,1548.8,398,1557.2,398"/>
					<path fill="#8B2C22" d="M1565.8,329.9h-8.7h-0.5h-8.7c0,0-1.4,0-1,1.6c0,0,1.9,5.4,9.6,5.6l0,0c0.1,0,0.2,0,0.2,0
						c0.1,0,0.2,0,0.2,0l0,0c7.8-0.2,9.6-5.6,9.6-5.6C1567.3,329.9,1565.8,329.9,1565.8,329.9"/>
					<path fill="#DD6766" d="M1557,333.8c-1.9,0-3.6,1.1-4.4,2.6c1.2,0.4,2.5,0.7,4.2,0.7l0,0c0.1,0,0.2,0,0.2,0c0.1,0,0.2,0,0.2,0
						l0,0c1.6,0,3-0.3,4.2-0.7C1560.5,334.9,1558.9,333.8,1557,333.8"/>
					<path fill="#FFFFFF" d="M1557.1,329.9h-0.5h-5.6c0.8,1.5,2.3,2.6,4.1,2.6h3.5c1.8,0,3.4-1.1,4.1-2.6H1557.1z"/>
					<polygon fill="#F6F8F9" points="1558.2,445.5 1557.7,374.1 1545.3,345.3 1533.4,349.3 1529.2,445.5 					"/>
					<polygon fill="#F6F8F9" points="1556.8,445.5 1557.6,374.4 1569.7,345.3 1581.5,349.3 1585.8,445.5 					"/>
					<path fill="#FFFFFF" d="M1545.5,344.8c-0.6,0.5-6.6,8.4-6.6,8.4l5.8,1.8l-3.8,4.6l17.2,10L1545.5,344.8z"/>
					<path fill="#FFFFFF" d="M1569.4,344.6c0.6,0.5,6.7,8.3,6.7,8.3l-5.8,1.9l3.8,4.6l-17.1,10.1L1569.4,344.6z"/>
					<path fill="#AEAEAE" d="M1565.9,382.4c-3.4-1.5-6-3.7-6.9-7.4c-0.7-2.9-0.5-5.9-0.5-8.8c0-1.6-2.4-1.6-2.4,0
						c0,3.5-0.3,7.2,0.9,10.6c1.3,3.7,4.2,6.2,7.7,7.7C1566.1,385.1,1567.3,383,1565.9,382.4"/>
					<path fill="#EFEFEF" d="M1537.5,383.9l-0.1,2.2c3.8,3.2,42.6,15.7,46.6,3.6l-0.6-13.2l-11.2-3.8L1537.5,383.9z"/>
					<path fill="#EFEFEF" d="M1531.2,389.1l-0.5,9.7c16.8,3,23.3-6.1,23.3-6.1L1531.2,389.1z"/>
					<path fill="#EFEFEF" d="M1531.4,393.2l41.9,2.9l-0.6,5.1c-4.9,4.7-17.6,10-27.9,11.4c-3.5,0.5-9.6,0.6-14.1-0.7L1531.4,393.2z"
						/>
					<path fill="#FACAB9" d="M1547.8,391.9c-1-0.4-2.4-0.7-3.6-1.1l-6.7,12.8c1.6,0.7,3.3,1.2,5.1,1.8
						C1551.3,408.5,1556.6,395,1547.8,391.9"/>
					<path fill="#F6F8F9" d="M1530.2,351.9c-4,4-14.3,16.1-11.9,33.1c1.3,9.4,20.3,24,20.3,24s2.9-7.5,7.2-18.9c0,0-11-16-6-24.6
						c3.7-6.5-6.3-16.2-6.3-16.2S1531.7,350.4,1530.2,351.9"/>
					<path fill="#FDDC55" d="M1565,395.3h-27.5c-1.2,0-2.2-1-2.2-2.2v-30.4c0-1.2,1-2.2,2.2-2.2h27.5c1.2,0,2.2,1,2.2,2.2v30.4
						C1567.2,394.3,1566.2,395.3,1565,395.3"/>
					<path fill="#FFD426" d="M1538,364.9h26.7c4.4,0,4.4-5.1,0-5.1H1538C1533.6,359.8,1533.6,364.9,1538,364.9"/>
					<path fill="#F6F8F9" d="M1557.8,375h-13c-0.8,0-1.4-0.7-1.4-1.4v-1.4c0-0.8,0.7-1.4,1.4-1.4h13c0.8,0,1.4,0.7,1.4,1.4v1.4
						C1559.2,374.3,1558.6,375,1557.8,375"/>
					<path fill="#FACAB9" d="M1550.4,387.9c-3.3-0.6-7.4-1-10.6-1.7c-8.8-1.8-10.9,11.7-2.2,13.5c4.3,0.9,8.7,1.4,12.9,1.9
						L1550.4,387.9z"/>
					<path fill="#F6F8F9" d="M1590.6,366.1c-1.1-10.2-9-16.8-9-16.8l-2.5,1.5l-2.9,10.6c-1,3.3-3.2,10.6-4.5,12.8
						c-4.3,7.1-28,10.8-28,10.8c0,4.7-0.9,6.6-2.8,16.9c0,0,29,4.7,36.5-1.2C1592.6,388.8,1590.6,366.1,1590.6,366.1"/>
					<g>
						<polygon fill="#F2F2F2" points="1565.8,290.6 1547.9,290.6 1549.8,275.8 1563.8,275.8 						"/>
						<polygon fill="#E33E2D" points="1559,284.3 1557.6,284.3 1557.6,282.8 1556.1,282.8 1556.1,284.3 1554.7,284.3 1554.7,285.8 
							1556.1,285.8 1556.1,287.1 1557.6,287.1 1557.6,285.8 1559,285.8 						"/>
						<path fill="#F6F7F7" d="M1564,275.8c0,0.9-3.1,1.7-7,1.7s-7-0.8-7-1.7s3.1-1.7,7-1.7S1564,274.9,1564,275.8"/>
						<polygon fill="#3E4566" points="1549,280.9 1564.7,280.9 1564.5,279.4 1549.2,279.4 						"/>
					</g>
				</g>
				<path fill="#723D25" d="M1556.9,291.3c5.3,0,10.1,1.2,13.4,3.1c-2.5-3.1-7.6-5.2-13.4-5.2c-5.9,0-10.9,2.1-13.4,5.2
					C1546.8,292.3,1551.6,291.3,1556.9,291.3"/>
			</g>
		</g>
		<g>
			<g>
				<path fill="#424559" d="M1569.6,175.2h-1.2v-16.4h-21.1v16.4h-1.2v-33h1.2v15.4h21.1v-15.4h1.2V175.2z"/>
				<path fill="#424559" d="M1576.9,162.4c0-2.3,0.4-4.4,1.3-6.3c0.9-1.9,2.2-3.3,3.8-4.4c1.6-1,3.5-1.6,5.6-1.6s3.9,0.5,5.5,1.5
					s2.9,2.4,3.8,4.3s1.4,4,1.4,6.3v1.2c0,2.4-0.4,4.5-1.3,6.3c-0.9,1.9-2.2,3.3-3.8,4.4c-1.6,1-3.5,1.6-5.6,1.6s-3.9-0.5-5.6-1.5
					c-1.6-1-2.9-2.5-3.8-4.3c-0.9-1.9-1.4-3.9-1.4-6.2L1576.9,162.4L1576.9,162.4z M1578.1,163.4c0,2,0.4,3.9,1.2,5.6
					c0.8,1.7,1.9,3,3.4,4c1.4,0.9,3.1,1.4,5,1.4c2.8,0,5.1-1,6.8-3.1c1.8-2.1,2.6-4.8,2.6-8.1v-0.8c0-2-0.4-3.9-1.2-5.6
					c-0.8-1.7-1.9-3-3.4-4c-1.4-1-3.1-1.4-4.9-1.4c-2.8,0-5.1,1.1-6.8,3.2c-1.8,2.1-2.7,4.8-2.7,8V163.4z"/>
				<path fill="#424559" d="M1609.4,168.1l1.3,5.3l7.2-22.7h1.2l7.1,22.7l1.4-5.3l5-17.4h1.4l-7.1,24.5h-1.2l-6.1-18.4l-1.2-4.4
					l-1.2,4.4l-6,18.4h-1.2l-7.1-24.5h1.4L1609.4,168.1z"/>
				<path fill="#424559" d="M1655.4,144v6.6h5.6v1.2h-5.6v17.4c0,1.7,0.3,3,0.9,3.9c0.6,0.8,1.5,1.2,2.8,1.2c0.7,0,1.5-0.1,2.4-0.2
					l0.2,1.2c-0.5,0.2-1.4,0.3-2.6,0.3c-1.8,0-3.1-0.5-3.8-1.5c-0.8-1-1.2-2.6-1.2-4.7v-17.5h-4.5v-1.2h4.5v-6.6L1655.4,144
					L1655.4,144z"/>
				<path fill="#424559" d="M1665.7,162.4c0-2.3,0.4-4.4,1.3-6.3c0.9-1.9,2.2-3.3,3.8-4.4c1.6-1,3.5-1.6,5.6-1.6s3.9,0.5,5.5,1.5
					s2.9,2.4,3.8,4.3s1.4,4,1.4,6.3v1.2c0,2.4-0.4,4.5-1.3,6.3c-0.9,1.9-2.2,3.3-3.8,4.4c-1.6,1-3.5,1.6-5.6,1.6s-3.9-0.5-5.6-1.5
					c-1.6-1-2.9-2.5-3.8-4.3c-0.9-1.9-1.4-3.9-1.4-6.2L1665.7,162.4L1665.7,162.4z M1666.9,163.4c0,2,0.4,3.9,1.2,5.6
					c0.8,1.7,1.9,3,3.4,4c1.4,0.9,3.1,1.4,5,1.4c2.8,0,5.1-1,6.8-3.1c1.8-2.1,2.6-4.8,2.6-8.1v-0.8c0-2-0.4-3.9-1.2-5.6
					c-0.8-1.7-1.9-3-3.4-4c-1.4-1-3.1-1.4-4.9-1.4c-2.8,0-5.1,1.1-6.8,3.2c-1.8,2.1-2.7,4.8-2.7,8V163.4z"/>
				<path fill="#424559" d="M1720.7,169.2c0-3-2.5-5-7.6-6.1c-3.1-0.7-5.2-1.5-6.4-2.5c-1.2-1-1.8-2.4-1.8-4.2s0.8-3.3,2.3-4.4
					c1.5-1.2,3.5-1.7,5.9-1.7c2.6,0,4.8,0.6,6.4,1.9s2.4,3,2.4,5.1h-1.2c0-1.6-0.7-3-2.1-4.1c-1.4-1.1-3.2-1.7-5.4-1.7
					c-2.1,0-3.8,0.5-5.1,1.4c-1.3,0.9-1.9,2.1-1.9,3.5c0,1.1,0.2,2,0.7,2.6c0.5,0.6,1.2,1.2,2.3,1.7c1.1,0.5,2.6,1,4.6,1.5
					s3.6,1,4.8,1.7c1.2,0.6,2,1.4,2.6,2.3c0.5,0.9,0.8,1.9,0.8,3.2c0,1.9-0.8,3.5-2.4,4.7s-3.7,1.8-6.2,1.8c-2.7,0-5-0.6-6.6-1.9
					c-1.7-1.2-2.5-2.9-2.5-4.8h1.2c0.1,1.7,0.9,3.1,2.3,4c1.4,1,3.3,1.4,5.7,1.4c2.2,0,4-0.5,5.3-1.5
					C1720,171.8,1720.7,170.6,1720.7,169.2z"/>
				<path fill="#424559" d="M1732.1,144v6.6h5.6v1.2h-5.6v17.4c0,1.7,0.3,3,0.9,3.9c0.6,0.8,1.5,1.2,2.8,1.2c0.7,0,1.5-0.1,2.4-0.2
					l0.2,1.2c-0.5,0.2-1.4,0.3-2.6,0.3c-1.8,0-3.1-0.5-3.8-1.5c-0.8-1-1.2-2.6-1.2-4.7v-17.5h-4.5v-1.2h4.5v-6.6L1732.1,144
					L1732.1,144z"/>
				<path fill="#424559" d="M1760.6,175.2c-0.3-1-0.5-2.5-0.5-4.5c-1,1.6-2.3,2.8-4,3.6c-1.7,0.9-3.6,1.3-5.7,1.3
					c-2.3,0-4.1-0.6-5.5-1.8c-1.4-1.2-2.1-2.8-2.1-4.8c0-2.3,1-4.1,3-5.4c2-1.4,4.7-2,8.1-2.1h6.1v-3.6c0-2.1-0.6-3.6-1.9-4.8
					c-1.3-1.1-3.1-1.7-5.5-1.7c-2.2,0-4.1,0.6-5.6,1.7c-1.5,1.1-2.2,2.6-2.2,4.3h-1.2c0-2,0.9-3.7,2.6-5.1c1.8-1.4,3.9-2.1,6.4-2.1
					c2.6,0,4.7,0.7,6.3,2c1.6,1.3,2.4,3.2,2.4,5.6v11.7c0,2.7,0.2,4.5,0.6,5.5v0.2C1761.9,175.2,1760.6,175.2,1760.6,175.2z
					 M1750.5,174.4c2.3,0,4.3-0.5,5.9-1.5c1.7-1,2.9-2.5,3.7-4.3v-5.8h-5.7c-3.5,0-6.2,0.7-8,2.1c-1.5,1.1-2.3,2.5-2.3,4.2
					c0,1.5,0.6,2.8,1.8,3.8C1747.1,173.9,1748.7,174.4,1750.5,174.4z"/>
				<path fill="#424559" d="M1780.8,151.5l-1.6-0.1c-2.1,0-3.8,0.7-5.2,2s-2.3,3.2-2.8,5.7v16.1h-1.2v-24.6h1.2v5.1
					c0.7-1.7,1.7-3.1,3-4.1s3-1.5,5-1.5c0.7,0,1.3,0.1,1.7,0.3L1780.8,151.5z"/>
				<path fill="#424559" d="M1790,144v6.6h5.6v1.2h-5.6v17.4c0,1.7,0.3,3,0.9,3.9c0.6,0.8,1.5,1.2,2.8,1.2c0.7,0,1.5-0.1,2.4-0.2
					l0.2,1.2c-0.5,0.2-1.4,0.3-2.6,0.3c-1.8,0-3.1-0.5-3.8-1.5c-0.8-1-1.2-2.6-1.2-4.7v-17.5h-4.5v-1.2h4.5v-6.6L1790,144L1790,144z
					"/>
				<path fill="#424559" d="M1814.1,143c0-0.3,0.1-0.6,0.4-0.9c0.2-0.2,0.5-0.4,0.9-0.4c0.3,0,0.6,0.1,0.9,0.4
					c0.2,0.3,0.4,0.5,0.4,0.9c0,0.4-0.1,0.6-0.4,0.9c-0.3,0.2-0.5,0.4-0.9,0.4c-0.3,0-0.6-0.1-0.9-0.4
					C1814.3,143.6,1814.1,143.3,1814.1,143z M1816,175.2h-1.2v-24.6h1.2V175.2z"/>
				<path fill="#424559" d="M1826,156.3c0.8-1.9,2-3.4,3.5-4.5c1.6-1.1,3.3-1.7,5.2-1.7c2.6,0,4.6,0.7,5.9,2.2s1.9,3.7,1.9,6.7v16
					h-1.2v-16c0-2.6-0.6-4.6-1.6-5.8c-1.1-1.3-2.7-1.9-5-1.9c-2.1,0-3.9,0.8-5.5,2.3c-1.5,1.5-2.6,3.4-3.1,5.8v15.7h-1.2v-24.5h1.2
					v5.7H1826z"/>
				<path fill="#424559" d="M1858,173.2l8.8-22.6h1.3l-9.5,24.5h-1.2l-9.5-24.5h1.3L1858,173.2z"/>
				<path fill="#424559" d="M1882.2,175.6c-2,0-3.8-0.5-5.4-1.6c-1.7-1.1-2.9-2.5-3.9-4.4c-0.9-1.9-1.4-3.9-1.4-6.2v-1
					c0-2.3,0.5-4.3,1.4-6.2c0.9-1.9,2.2-3.4,3.7-4.4s3.3-1.6,5.2-1.6c2.7,0,5,1,6.7,2.9c1.7,1.9,2.6,4.5,2.6,7.7v1.3h-18.4v1.3
					c0,2,0.4,3.8,1.3,5.5c0.8,1.7,2,3,3.5,4s3.1,1.4,4.8,1.4c1.6,0,3-0.3,4.2-0.8s2.2-1.4,3.1-2.5l0.9,0.6
					C1888.5,174.3,1885.8,175.6,1882.2,175.6z M1881.8,151.4c-2.4,0-4.4,0.9-6.1,2.7s-2.6,4-2.9,6.8h17.1v-0.3
					c0-1.7-0.4-3.2-1.1-4.6c-0.7-1.4-1.7-2.5-2.9-3.3C1884.7,151.8,1883.3,151.4,1881.8,151.4z"/>
				<path fill="#424559" d="M1912.6,169.2c0-3-2.5-5-7.6-6.1c-3.1-0.7-5.2-1.5-6.4-2.5c-1.2-1-1.8-2.4-1.8-4.2s0.8-3.3,2.3-4.4
					c1.5-1.2,3.5-1.7,5.9-1.7c2.6,0,4.8,0.6,6.4,1.9s2.4,3,2.4,5.1h-1.2c0-1.6-0.7-3-2.1-4.1c-1.4-1.1-3.2-1.7-5.4-1.7
					c-2.1,0-3.8,0.5-5.1,1.4c-1.3,0.9-1.9,2.1-1.9,3.5c0,1.1,0.2,2,0.7,2.6c0.5,0.6,1.2,1.2,2.3,1.7c1.1,0.5,2.6,1,4.6,1.5
					s3.6,1,4.8,1.7c1.2,0.6,2,1.4,2.6,2.3c0.5,0.9,0.8,1.9,0.8,3.2c0,1.9-0.8,3.5-2.4,4.7s-3.7,1.8-6.2,1.8c-2.7,0-5-0.6-6.6-1.9
					c-1.7-1.2-2.5-2.9-2.5-4.8h1.2c0.1,1.7,0.9,3.1,2.3,4c1.4,1,3.3,1.4,5.7,1.4c2.2,0,4-0.5,5.3-1.5
					C1911.9,171.8,1912.6,170.6,1912.6,169.2z"/>
				<path fill="#424559" d="M1924,144v6.6h5.6v1.2h-5.6v17.4c0,1.7,0.3,3,0.9,3.9c0.6,0.8,1.5,1.2,2.8,1.2c0.7,0,1.5-0.1,2.4-0.2
					l0.2,1.2c-0.5,0.2-1.4,0.3-2.6,0.3c-1.8,0-3.1-0.5-3.8-1.5c-0.8-1-1.2-2.6-1.2-4.7v-17.5h-4.5v-1.2h4.5v-6.6L1924,144L1924,144z
					"/>
				<path fill="#424559" d="M1936.3,143c0-0.3,0.1-0.6,0.4-0.9c0.2-0.2,0.5-0.4,0.9-0.4c0.3,0,0.6,0.1,0.9,0.4
					c0.2,0.3,0.4,0.5,0.4,0.9c0,0.4-0.1,0.6-0.4,0.9c-0.3,0.2-0.5,0.4-0.9,0.4c-0.3,0-0.6-0.1-0.9-0.4S1936.3,143.3,1936.3,143z
					 M1938.2,175.2h-1.2v-24.6h1.2V175.2z"/>
				<path fill="#424559" d="M1948.1,156.3c0.8-1.9,2-3.4,3.5-4.5c1.6-1.1,3.3-1.7,5.2-1.7c2.6,0,4.6,0.7,5.9,2.2s1.9,3.7,1.9,6.7v16
					h-1.2v-16c0-2.6-0.6-4.6-1.6-5.8c-1.1-1.3-2.7-1.9-5-1.9c-2.1,0-3.9,0.8-5.5,2.3c-1.5,1.5-2.6,3.4-3.1,5.8v15.7h-1.2v-24.5h1.2
					v5.7H1948.1z"/>
				<path fill="#424559" d="M1971.9,162.6c0-3.9,0.8-7,2.5-9.2c1.6-2.2,3.9-3.3,6.8-3.3c1.8,0,3.5,0.4,4.9,1.3
					c1.4,0.8,2.6,2.1,3.4,3.7v-4.5h1.2v24.1c0,3.2-0.8,5.8-2.5,7.6c-1.7,1.8-3.9,2.7-6.8,2.7c-1.6,0-3.2-0.4-4.5-1.1
					c-1.4-0.7-2.5-1.7-3.5-3.1l0.9-0.8c1,1.2,2,2.1,3.1,2.8c1.1,0.6,2.5,1,4,1c2.5,0,4.5-0.8,5.9-2.3s2.1-3.7,2.2-6.5v-3.8
					c-0.8,1.4-2,2.5-3.4,3.2s-3.1,1.1-4.9,1.1c-2.8,0-5.1-1.1-6.7-3.4s-2.5-5.3-2.5-9.3L1971.9,162.6L1971.9,162.6z M1973.1,163.1
					c0,3.5,0.7,6.3,2.1,8.3s3.3,3,5.8,3c2.1,0,3.8-0.5,5.3-1.4c1.5-1,2.5-2.3,3.1-4v-11.2c-1.3-4.2-4.1-6.4-8.3-6.4
					c-2.5,0-4.5,1-5.9,3C1973.8,156.4,1973.1,159.3,1973.1,163.1z"/>
				<path fill="#424559" d="M1557.6,230.8v-23.2h-4.3v-1.2h4.3v-3.6c0-2.3,0.6-4,1.7-5.3c1.1-1.3,2.7-1.9,4.7-1.9
					c1.1,0,2.1,0.1,2.9,0.4l-0.2,1.2c-0.8-0.2-1.7-0.3-2.7-0.3c-1.6,0-2.9,0.5-3.8,1.6s-1.4,2.5-1.4,4.5v3.5h6.5v1.2h-6.5V231h-1.2
					V230.8z"/>
				<path fill="#424559" d="M1569.2,218.1c0-2.3,0.4-4.4,1.3-6.3s2.2-3.3,3.8-4.4c1.6-1,3.5-1.6,5.6-1.6s3.9,0.5,5.5,1.5
					s2.9,2.4,3.8,4.3s1.4,4,1.4,6.3v1.1c0,2.4-0.4,4.5-1.3,6.3c-0.9,1.9-2.2,3.3-3.8,4.4c-1.6,1-3.5,1.6-5.6,1.6s-3.9-0.5-5.6-1.5
					c-1.6-1-2.9-2.5-3.8-4.3c-0.9-1.9-1.4-3.9-1.4-6.2L1569.2,218.1L1569.2,218.1z M1570.4,219.1c0,2,0.4,3.9,1.2,5.6
					c0.8,1.7,1.9,3,3.4,4c1.4,0.9,3.1,1.4,5,1.4c2.8,0,5.1-1,6.8-3.1c1.8-2.1,2.6-4.8,2.6-8.1v-0.7c0-2-0.4-3.9-1.2-5.6
					c-0.8-1.7-1.9-3-3.4-4c-1.4-1-3.1-1.4-4.9-1.4c-2.8,0-5.1,1.1-6.8,3.2c-1.8,2.1-2.7,4.8-2.7,8V219.1z"/>
				<path fill="#424559" d="M1608.1,207.2l-1.6-0.1c-2.1,0-3.8,0.7-5.2,2c-1.4,1.4-2.3,3.2-2.8,5.7v16.1h-1.2v-24.6h1.2v5.1
					c0.7-1.7,1.7-3.1,3-4.1s3-1.5,5-1.5c0.7,0,1.3,0.1,1.7,0.3L1608.1,207.2z"/>
				<path fill="#424559" d="M1632.8,228.9l0.2-0.5l8.5-22.2h1.4l-11,28.8l-0.5,1.4c-1.2,2.9-3.1,4.3-5.8,4.3c-0.9,0-1.5-0.1-1.8-0.3
					v-1.2c0.5,0.1,1,0.2,1.7,0.2c1.3,0,2.3-0.4,3.2-1.1c0.8-0.7,1.6-2,2.2-3.6l1.5-4l-9.8-24.4h1.3L1632.8,228.9z"/>
				<path fill="#424559" d="M1646,218.1c0-2.3,0.4-4.4,1.3-6.3s2.2-3.3,3.8-4.4c1.6-1,3.5-1.6,5.6-1.6s3.9,0.5,5.5,1.5
					s2.9,2.4,3.8,4.3s1.4,4,1.4,6.3v1.1c0,2.4-0.4,4.5-1.3,6.3c-0.9,1.9-2.2,3.3-3.8,4.4c-1.6,1-3.5,1.6-5.6,1.6s-3.9-0.5-5.6-1.5
					c-1.6-1-2.9-2.5-3.8-4.3c-0.9-1.9-1.4-3.9-1.4-6.2L1646,218.1L1646,218.1z M1647.2,219.1c0,2,0.4,3.9,1.2,5.6
					c0.8,1.7,1.9,3,3.4,4c1.4,0.9,3.1,1.4,5,1.4c2.8,0,5.1-1,6.8-3.1c1.8-2.1,2.6-4.8,2.6-8.1v-0.7c0-2-0.4-3.9-1.2-5.6
					c-0.8-1.7-1.9-3-3.4-4c-1.4-1-3.1-1.4-4.9-1.4c-2.8,0-5.1,1.1-6.8,3.2c-1.8,2.1-2.7,4.8-2.7,8V219.1z"/>
				<path fill="#424559" d="M1690.5,230.8v-4c-0.7,1.4-1.8,2.4-3.2,3.2c-1.4,0.8-3.1,1.2-5.3,1.2c-2.7,0-4.7-0.8-6-2.3
					c-1.3-1.6-2-3.8-2.1-6.8v-15.8h1.2v15.8c0,2.6,0.6,4.6,1.8,5.9c1.1,1.3,2.8,2,5,2c2.3,0,4.2-0.6,5.7-1.7s2.4-2.7,2.8-4.8v-17.2
					h1.2v24.5H1690.5z"/>
				<path fill="#424559" d="M1711,207.2l-1.6-0.1c-2.1,0-3.8,0.7-5.2,2c-1.4,1.4-2.3,3.2-2.8,5.7v16.1h-1.2v-24.6h1.2v5.1
					c0.7-1.7,1.7-3.1,3-4.1s3-1.5,5-1.5c0.7,0,1.3,0.1,1.7,0.3L1711,207.2z"/>
				<path fill="#424559" d="M1736.5,230.1c2.2,0,4.1-0.6,5.5-1.8c1.4-1.2,2.2-2.8,2.4-4.9h1.2c-0.1,2.4-1,4.3-2.7,5.7
					c-1.7,1.4-3.8,2.2-6.3,2.2c-3.1,0-5.5-1.1-7.3-3.3c-1.8-2.2-2.7-5.2-2.7-9v-0.8c0-3.7,0.9-6.7,2.7-8.9c1.8-2.2,4.2-3.3,7.3-3.3
					c2.6,0,4.7,0.8,6.4,2.3c1.7,1.6,2.6,3.6,2.7,6.2h-1.2c-0.1-2.2-0.9-4-2.3-5.3s-3.3-2-5.6-2c-2.7,0-4.9,1-6.4,3s-2.3,4.7-2.3,8.2
					v0.8c0,3.4,0.8,6.1,2.3,8.1C1731.6,229.1,1733.8,230.1,1736.5,230.1z"/>
				<path fill="#424559" d="M1753.6,212c0.8-1.9,2-3.4,3.5-4.5c1.6-1.1,3.3-1.7,5.2-1.7c2.6,0,4.6,0.7,5.9,2.2s1.9,3.7,1.9,6.7v16
					h-1.2v-16c0-2.6-0.6-4.6-1.6-5.8c-1.1-1.3-2.7-1.9-5-1.9c-2.1,0-3.9,0.8-5.5,2.3c-1.5,1.5-2.6,3.4-3.1,5.8v15.7h-1.2V196h1.2v16
					H1753.6z"/>
				<path fill="#424559" d="M1778.2,198.7c0-0.3,0.1-0.6,0.4-0.9c0.2-0.2,0.5-0.4,0.9-0.4c0.3,0,0.6,0.1,0.9,0.4
					c0.2,0.3,0.4,0.5,0.4,0.9s-0.1,0.6-0.4,0.9c-0.3,0.2-0.5,0.4-0.9,0.4c-0.3,0-0.6-0.1-0.9-0.4
					C1778.3,199.3,1778.2,199,1778.2,198.7z M1780,230.8h-1.2v-24.5h1.2V230.8z"/>
				<path fill="#424559" d="M1790.3,230.8h-1.2V196h1.2V230.8z"/>
				<path fill="#424559" d="M1797.9,218.3c0-3.9,0.8-7,2.5-9.2c1.6-2.2,3.9-3.3,6.8-3.3c1.8,0,3.5,0.4,4.9,1.2
					c1.4,0.8,2.6,2.1,3.4,3.7V196h1.2v34.8h-1.2v-3.9c-0.8,1.4-2,2.5-3.4,3.2c-1.5,0.8-3.1,1.1-4.9,1.1c-2.8,0-5.1-1.1-6.7-3.4
					c-1.6-2.3-2.5-5.3-2.5-9.3v-0.2H1797.9z M1799.2,218.8c0,3.5,0.7,6.2,2.1,8.2s3.3,3,5.8,3c2,0,3.8-0.4,5.2-1.3
					c1.4-0.9,2.5-2.2,3.2-4v-11.4c-1.4-4.1-4.2-6.2-8.3-6.2c-2.5,0-4.5,1-5.9,3C1799.9,212,1799.2,215,1799.2,218.8z"/>
				<path fill="#424559" d="M1823.8,204.8l-0.8-0.7c1.2-1.6,1.9-3.2,2-4.9v-3.1h1.2v2.7C1826.2,201.1,1825.4,203.1,1823.8,204.8z"/>
				<path fill="#424559" d="M1845.7,224.8c0-3-2.5-5-7.6-6.1c-3.1-0.7-5.2-1.5-6.4-2.5c-1.2-1-1.8-2.4-1.8-4.2
					c0-1.8,0.8-3.3,2.3-4.4c1.5-1.2,3.5-1.7,5.9-1.7c2.6,0,4.8,0.6,6.4,1.9s2.4,3,2.4,5.1h-1.2c0-1.6-0.7-3-2.1-4.1
					s-3.2-1.7-5.4-1.7c-2.1,0-3.8,0.5-5.1,1.4c-1.3,0.9-1.9,2.1-1.9,3.5c0,1.1,0.2,2,0.7,2.6s1.2,1.2,2.3,1.7c1.1,0.5,2.6,1,4.6,1.5
					s3.6,1,4.8,1.7s2,1.4,2.6,2.3c0.5,0.9,0.8,1.9,0.8,3.2c0,1.9-0.8,3.5-2.4,4.7s-3.7,1.8-6.2,1.8c-2.7,0-5-0.6-6.6-1.9
					c-1.7-1.2-2.5-2.9-2.5-4.8h1.2c0.1,1.7,0.9,3.1,2.3,4c1.4,1,3.3,1.4,5.7,1.4c2.2,0,4-0.5,5.3-1.5
					C1845,227.5,1845.7,226.3,1845.7,224.8z"/>
				<path fill="#424559" d="M1868,230.8v-23.2h-4.3v-1.2h4.3v-3.6c0-2.3,0.6-4,1.7-5.3c1.1-1.3,2.7-1.9,4.7-1.9
					c1.1,0,2.1,0.1,2.9,0.4l-0.2,1.2c-0.8-0.2-1.7-0.3-2.7-0.3c-1.6,0-2.9,0.5-3.8,1.6s-1.4,2.5-1.4,4.5v3.5h6.5v1.2h-6.5V231h-1.2
					V230.8z"/>
				<path fill="#424559" d="M1897.9,230.8v-4c-0.7,1.4-1.8,2.4-3.2,3.2c-1.4,0.8-3.1,1.2-5.3,1.2c-2.7,0-4.7-0.8-6-2.3
					c-1.3-1.6-2-3.8-2.1-6.8v-15.8h1.2v15.8c0,2.6,0.6,4.6,1.8,5.9c1.1,1.3,2.8,2,5,2c2.3,0,4.2-0.6,5.7-1.7s2.4-2.7,2.8-4.8v-17.2
					h1.2v24.5H1897.9z"/>
				<path fill="#424559" d="M1910.3,199.7v6.6h5.6v1.2h-5.6v17.4c0,1.7,0.3,3,0.9,3.9c0.6,0.8,1.5,1.2,2.8,1.2
					c0.7,0,1.5-0.1,2.4-0.2l0.2,1.2c-0.5,0.2-1.4,0.3-2.6,0.3c-1.8,0-3.1-0.5-3.8-1.5c-0.8-1-1.2-2.6-1.2-4.7v-17.5h-4.5v-1.2h4.5
					v-6.6L1910.3,199.7L1910.3,199.7z"/>
				<path fill="#424559" d="M1939.4,230.8v-4c-0.7,1.4-1.8,2.4-3.2,3.2c-1.4,0.8-3.1,1.2-5.3,1.2c-2.7,0-4.7-0.8-6-2.3
					c-1.3-1.6-2-3.8-2.1-6.8v-15.8h1.2v15.8c0,2.6,0.6,4.6,1.8,5.9c1.1,1.3,2.8,2,5,2c2.3,0,4.2-0.6,5.7-1.7s2.4-2.7,2.8-4.8v-17.2
					h1.2v24.5H1939.4z"/>
				<path fill="#424559" d="M1959.8,207.2l-1.6-0.1c-2.1,0-3.8,0.7-5.2,2c-1.4,1.3-2.3,3.2-2.8,5.7v16.1h-1.2v-24.6h1.2v5.1
					c0.7-1.7,1.7-3.1,3-4.1s3-1.5,5-1.5c0.7,0,1.3,0.1,1.7,0.3L1959.8,207.2z"/>
				<path fill="#424559" d="M1973.6,231.3c-2,0-3.8-0.5-5.4-1.6c-1.7-1.1-2.9-2.5-3.9-4.4c-0.9-1.9-1.4-3.9-1.4-6.2v-1
					c0-2.3,0.5-4.3,1.4-6.2s2.2-3.4,3.7-4.4c1.6-1.1,3.3-1.6,5.2-1.6c2.7,0,5,1,6.7,2.9s2.6,4.5,2.6,7.7v1.3h-18.4v1.3
					c0,2,0.4,3.8,1.3,5.5c0.8,1.7,2,3,3.5,4s3.1,1.4,4.8,1.4c1.6,0,3-0.3,4.2-0.8s2.2-1.4,3.1-2.5l0.9,0.6
					C1979.9,230,1977.2,231.3,1973.6,231.3z M1973.2,207.1c-2.4,0-4.4,0.9-6.1,2.7c-1.7,1.8-2.6,4-2.9,6.8h17.1v-0.3
					c0-1.7-0.4-3.2-1.1-4.6c-0.7-1.4-1.7-2.5-2.9-3.3C1976.1,207.5,1974.7,207.1,1973.2,207.1z"/>
			</g>
		</g>
	</g>
</g>
</svg>
