<?xml version="1.0" encoding="utf-8"?>
<!-- Generator: Adobe Illustrator 18.0.0, SVG Export Plug-In . SVG Version: 6.00 Build 0)  -->
<!DOCTYPE svg PUBLIC "-//W3C//DTD SVG 1.1//EN" "http://www.w3.org/Graphics/SVG/1.1/DTD/svg11.dtd">
<svg version="1.1" id="Layer_1" xmlns="http://www.w3.org/2000/svg" xmlns:xlink="http://www.w3.org/1999/xlink" x="0px" y="0px"
	 viewBox="1252.6 297.7 800 617.8" enable-background="new 1252.6 297.7 800 617.8" xml:space="preserve">
<g>
	<path fill="#F5F6F7" stroke="#E6E7E8" stroke-miterlimit="10" d="M1878.2,450.1h-450c-18,0-32.5-14.5-32.5-32.5v-86.9
		c0-18,14.5-32.5,32.5-32.5h450.2c18,0,32.5,14.5,32.5,32.5v86.9C1910.7,435.6,1896.2,450.1,1878.2,450.1z"/>
	<g>
		<rect x="1674.2" y="298.7" fill="#FFFFFF" width="177" height="78.4"/>
		<rect x="1684.6" y="307.4" fill="#09783D" width="157.4" height="30.3"/>
		<rect x="1684.6" y="337.7" fill="#F6F6F6" width="157.4" height="39.4"/>
		<g enable-background="new    ">
			<path fill="#68981F" d="M1715.1,365.1h-1.6v4.4h-0.7v-4.4h-1.6v-0.5h3.8L1715.1,365.1L1715.1,365.1z"/>
			<path fill="#68981F" d="M1716.9,369.7c-0.5,0-0.9-0.2-1.2-0.5c-0.3-0.3-0.5-0.8-0.5-1.3v-0.1c0-0.4,0.1-0.7,0.2-1
				c0.1-0.3,0.3-0.5,0.6-0.7c0.3-0.2,0.5-0.2,0.8-0.2c0.5,0,0.9,0.2,1.1,0.5c0.3,0.3,0.4,0.8,0.4,1.4v0.3h-2.5
				c0,0.4,0.1,0.7,0.3,0.9c0.2,0.2,0.5,0.3,0.8,0.3c0.2,0,0.4,0,0.6-0.1c0.2-0.1,0.3-0.2,0.4-0.4l0.4,0.3
				C1718,369.4,1717.5,369.7,1716.9,369.7z M1716.8,366.3c-0.3,0-0.5,0.1-0.6,0.3c-0.2,0.2-0.3,0.4-0.3,0.8h1.9l0,0
				c0-0.3-0.1-0.6-0.3-0.7C1717.3,366.4,1717.1,366.3,1716.8,366.3z"/>
			<path fill="#68981F" d="M1719.8,369.6h-0.6v-5.3h0.6V369.6z"/>
			<path fill="#68981F" d="M1721.5,369.6h-0.6v-5.3h0.6V369.6z"/>
			<path fill="#68981F" d="M1726.5,369.2c-0.2,0.3-0.6,0.4-1.1,0.4c-0.4,0-0.7-0.1-0.9-0.3c-0.2-0.2-0.3-0.6-0.3-1v-2.4h0.6v2.4
				c0,0.6,0.2,0.8,0.7,0.8s0.8-0.2,1-0.5v-2.7h0.6v3.7h-0.6V369.2z"/>
			<path fill="#68981F" d="M1730.2,368.6c0-0.2-0.1-0.3-0.2-0.4c-0.1-0.1-0.4-0.2-0.7-0.2c-0.3-0.1-0.6-0.2-0.8-0.2
				c-0.2-0.1-0.3-0.2-0.4-0.3c-0.1-0.1-0.1-0.3-0.1-0.5c0-0.3,0.1-0.6,0.4-0.8c0.3-0.2,0.6-0.3,1-0.3c0.4,0,0.8,0.1,1,0.3
				c0.3,0.2,0.4,0.5,0.4,0.8h-0.6c0-0.2-0.1-0.3-0.2-0.4c-0.1-0.1-0.3-0.2-0.6-0.2c-0.2,0-0.4,0-0.5,0.2c-0.1,0.2-0.2,0.2-0.2,0.4
				c0,0.2,0.1,0.3,0.2,0.3c0.1,0.1,0.3,0.2,0.7,0.2c0.3,0.1,0.6,0.2,0.8,0.3c0.2,0.1,0.3,0.2,0.4,0.4s0.1,0.3,0.1,0.5
				c0,0.3-0.1,0.6-0.4,0.8c-0.3,0.2-0.6,0.3-1,0.3c-0.3,0-0.6-0.1-0.8-0.2c-0.2-0.1-0.4-0.3-0.5-0.4c-0.1-0.2-0.2-0.4-0.2-0.6h0.6
				c0,0.2,0.1,0.4,0.3,0.5c0.2,0.1,0.4,0.2,0.6,0.2c0.2,0,0.4,0,0.6-0.1C1730.2,368.9,1730.2,368.8,1730.2,368.6z"/>
			<path fill="#68981F" d="M1735.7,369.6c0-0.1-0.1-0.2-0.1-0.4c-0.3,0.3-0.6,0.5-1.1,0.5c-0.4,0-0.7-0.1-0.9-0.3
				c-0.2-0.2-0.3-0.5-0.3-0.8c0-0.4,0.1-0.7,0.4-0.9c0.3-0.2,0.7-0.3,1.2-0.3h0.6v-0.3c0-0.2-0.1-0.4-0.2-0.5
				c-0.1-0.1-0.3-0.2-0.6-0.2c-0.2,0-0.4,0.1-0.6,0.2c-0.2,0.1-0.2,0.3-0.2,0.4h-0.6c0-0.2,0.1-0.4,0.2-0.5c0.1-0.1,0.3-0.3,0.5-0.4
				c0.2-0.1,0.5-0.2,0.7-0.2c0.4,0,0.8,0.1,1,0.3c0.2,0.2,0.4,0.5,0.4,0.9v1.7c0,0.3,0,0.6,0.1,0.8v0.1h-0.5V369.6z M1734.7,369.1
				c0.2,0,0.4-0.1,0.6-0.2c0.2-0.1,0.3-0.2,0.4-0.4v-0.8h-0.5c-0.8,0-1.2,0.2-1.2,0.7c0,0.2,0.1,0.4,0.2,0.5
				C1734.3,369,1734.5,369.1,1734.7,369.1z"/>
			<path fill="#68981F" d="M1740.4,367.8c0,0.6-0.1,1-0.4,1.4c-0.3,0.4-0.6,0.5-1,0.5c-0.5,0-0.8-0.2-1.1-0.5v0.4h-0.7v-5.3h0.6v2
				c0.3-0.3,0.6-0.5,1.1-0.5c0.4,0,0.8,0.2,1.1,0.5C1740.2,366.7,1740.4,367.1,1740.4,367.8L1740.4,367.8z M1739.7,367.7
				c0-0.4-0.1-0.8-0.3-1c-0.2-0.2-0.4-0.4-0.7-0.4c-0.4,0-0.7,0.2-0.9,0.6v1.6c0.2,0.4,0.5,0.6,0.9,0.6c0.3,0,0.5-0.1,0.7-0.4
				C1739.7,368.5,1739.7,368.2,1739.7,367.7z"/>
			<path fill="#68981F" d="M1741,367.7c0-0.4,0.1-0.7,0.2-1c0.1-0.3,0.3-0.5,0.6-0.7c0.3-0.2,0.5-0.2,0.9-0.2c0.5,0,0.9,0.2,1.2,0.5
				c0.3,0.3,0.5,0.8,0.5,1.4l0,0c0,0.4-0.1,0.7-0.2,1c-0.1,0.3-0.3,0.5-0.6,0.7s-0.6,0.2-0.9,0.2c-0.5,0-0.9-0.2-1.2-0.5
				C1741.2,368.8,1741,368.3,1741,367.7L1741,367.7z M1741.6,367.8c0,0.4,0.1,0.7,0.3,1c0.2,0.2,0.4,0.4,0.8,0.4
				c0.3,0,0.6-0.1,0.8-0.4c0.2-0.3,0.3-0.6,0.3-1.1c0-0.4-0.1-0.7-0.3-1c-0.2-0.3-0.4-0.4-0.8-0.4c-0.3,0-0.6,0.1-0.8,0.4
				C1741.7,367,1741.6,367.3,1741.6,367.8z"/>
			<path fill="#68981F" d="M1747.4,369.2c-0.2,0.3-0.6,0.4-1.1,0.4c-0.4,0-0.7-0.1-0.9-0.3c-0.2-0.2-0.3-0.6-0.3-1v-2.4h0.6v2.4
				c0,0.6,0.2,0.8,0.7,0.8s0.8-0.2,1-0.5v-2.7h0.6v3.7h-0.6V369.2z"/>
			<path fill="#68981F" d="M1749.9,365v0.9h0.7v0.5h-0.7v2.3c0,0.1,0,0.3,0.1,0.3s0.2,0.1,0.3,0.1c0.1,0,0.2,0,0.3,0v0.5
				c-0.2,0-0.3,0.1-0.5,0.1c-0.3,0-0.5-0.1-0.6-0.3c-0.1-0.2-0.2-0.4-0.2-0.7v-2.3h-0.7v-0.5h0.7V365H1749.9z"/>
			<path fill="#68981F" d="M1754.2,368.7l0.9-2.8h0.7l-1.5,4.3c-0.2,0.6-0.6,0.9-1.1,0.9h-0.1h-0.2v-0.5h0.2c0.2,0,0.4,0,0.5-0.1
				c0.1-0.1,0.2-0.2,0.3-0.5l0.1-0.4l-1.3-3.7h0.7L1754.2,368.7z"/>
			<path fill="#68981F" d="M1756.1,367.7c0-0.4,0.1-0.7,0.2-1c0.1-0.3,0.3-0.5,0.6-0.7c0.3-0.2,0.5-0.2,0.9-0.2
				c0.5,0,0.9,0.2,1.2,0.5c0.3,0.3,0.5,0.8,0.5,1.4l0,0c0,0.4-0.1,0.7-0.2,1c-0.1,0.3-0.3,0.5-0.6,0.7c-0.3,0.2-0.6,0.2-0.9,0.2
				c-0.5,0-0.9-0.2-1.2-0.5C1756.3,368.8,1756.1,368.3,1756.1,367.7L1756.1,367.7z M1756.8,367.8c0,0.4,0.1,0.7,0.3,1
				c0.2,0.3,0.4,0.4,0.8,0.4c0.3,0,0.6-0.1,0.8-0.4s0.3-0.6,0.3-1.1c0-0.4-0.1-0.7-0.3-1c-0.2-0.3-0.4-0.4-0.8-0.4
				c-0.3,0-0.6,0.1-0.8,0.4S1756.8,367.3,1756.8,367.8z"/>
			<path fill="#68981F" d="M1762.6,369.2c-0.2,0.3-0.6,0.4-1.1,0.4c-0.4,0-0.7-0.1-0.9-0.3c-0.2-0.2-0.3-0.6-0.3-1v-2.4h0.6v2.4
				c0,0.6,0.2,0.8,0.7,0.8s0.8-0.2,1-0.5v-2.7h0.6v3.7h-0.6V369.2z"/>
			<path fill="#68981F" d="M1765.9,366.5c-0.1,0-0.2,0-0.3,0c-0.4,0-0.7,0.2-0.8,0.5v2.6h-0.6v-3.7h0.6v0.4c0.2-0.3,0.5-0.5,0.9-0.5
				c0.1,0,0.2,0,0.3,0L1765.9,366.5L1765.9,366.5z"/>
			<path fill="#68981F" d="M1768.6,369.6v-3.2h-0.6v-0.5h0.6v-0.4c0-0.4,0.1-0.7,0.3-0.9c0.2-0.2,0.5-0.3,0.9-0.3
				c0.1,0,0.3,0,0.4,0.1v0.5c-0.1,0-0.2,0-0.3,0c-0.2,0-0.4,0.1-0.5,0.2c-0.1,0.1-0.2,0.3-0.2,0.5v0.4h0.8v0.5h-0.8v3.2h-0.6V369.6z
				"/>
			<path fill="#68981F" d="M1773,369.2c-0.2,0.3-0.6,0.4-1.1,0.4c-0.4,0-0.7-0.1-0.9-0.3c-0.2-0.2-0.3-0.6-0.3-1v-2.4h0.6v2.4
				c0,0.6,0.2,0.8,0.7,0.8s0.8-0.2,1-0.5v-2.7h0.6v3.7h-0.6V369.2z"/>
			<path fill="#68981F" d="M1775.4,365v0.9h0.7v0.5h-0.7v2.3c0,0.1,0,0.3,0.1,0.3s0.2,0.1,0.3,0.1s0.2,0,0.3,0v0.5
				c-0.2,0-0.3,0.1-0.5,0.1c-0.3,0-0.5-0.1-0.6-0.3c-0.1-0.2-0.2-0.4-0.2-0.7v-2.3h-0.7v-0.5h0.7V365H1775.4z"/>
			<path fill="#68981F" d="M1779.1,369.2c-0.2,0.3-0.6,0.4-1.1,0.4c-0.4,0-0.7-0.1-0.9-0.3c-0.2-0.2-0.3-0.6-0.3-1v-2.4h0.6v2.4
				c0,0.6,0.2,0.8,0.7,0.8s0.8-0.2,1-0.5v-2.7h0.6v3.7h-0.6V369.2z"/>
			<path fill="#68981F" d="M1782.5,366.5c-0.1,0-0.2,0-0.3,0c-0.4,0-0.7,0.2-0.8,0.5v2.6h-0.6v-3.7h0.6v0.4c0.2-0.3,0.5-0.5,0.9-0.5
				c0.1,0,0.2,0,0.3,0L1782.5,366.5L1782.5,366.5z"/>
			<path fill="#68981F" d="M1784.5,369.7c-0.5,0-0.9-0.2-1.2-0.5c-0.3-0.3-0.5-0.8-0.5-1.3v-0.1c0-0.4,0.1-0.7,0.2-1
				c0.1-0.3,0.3-0.5,0.6-0.7c0.3-0.2,0.5-0.2,0.8-0.2c0.5,0,0.9,0.2,1.1,0.5c0.3,0.3,0.4,0.8,0.4,1.4v0.3h-2.5
				c0,0.4,0.1,0.7,0.3,0.9c0.2,0.2,0.5,0.3,0.8,0.3c0.2,0,0.4,0,0.6-0.1c0.2-0.1,0.3-0.2,0.4-0.4l0.4,0.3
				C1785.6,369.4,1785.1,369.7,1784.5,369.7z M1784.4,366.3c-0.3,0-0.5,0.1-0.6,0.3c-0.2,0.2-0.3,0.4-0.3,0.8h1.9l0,0
				c0-0.3-0.1-0.6-0.3-0.7C1784.9,366.4,1784.7,366.3,1784.4,366.3z"/>
			<path fill="#68981F" d="M1788.3,367.7c0-0.6,0.1-1,0.4-1.4c0.3-0.4,0.6-0.5,1.1-0.5s0.8,0.2,1.1,0.5v-0.4h0.6v3.6
				c0,0.5-0.1,0.9-0.4,1.1c-0.3,0.3-0.7,0.4-1.1,0.4c-0.3,0-0.5-0.1-0.8-0.2c-0.3-0.1-0.5-0.3-0.6-0.5l0.3-0.4
				c0.3,0.3,0.6,0.5,1,0.5c0.3,0,0.5-0.1,0.7-0.3c0.2-0.2,0.3-0.4,0.3-0.7v-0.3c-0.3,0.3-0.6,0.4-1,0.4s-0.8-0.2-1.1-0.5
				C1788.4,368.8,1788.3,368.3,1788.3,367.7z M1788.9,367.8c0,0.4,0.1,0.7,0.3,1c0.2,0.3,0.4,0.4,0.7,0.4c0.4,0,0.7-0.2,0.9-0.5V367
				c-0.2-0.4-0.5-0.5-0.9-0.5c-0.3,0-0.5,0.1-0.7,0.4C1789,367,1788.9,367.3,1788.9,367.8z"/>
			<path fill="#68981F" d="M1794.1,366.5c-0.1,0-0.2,0-0.3,0c-0.4,0-0.7,0.2-0.8,0.5v2.6h-0.6v-3.7h0.6v0.4c0.2-0.3,0.5-0.5,0.9-0.5
				c0.1,0,0.2,0,0.3,0v0.7H1794.1z"/>
			<path fill="#68981F" d="M1796.9,369.6c0-0.1-0.1-0.2-0.1-0.4c-0.3,0.3-0.6,0.5-1.1,0.5c-0.4,0-0.7-0.1-0.9-0.3
				c-0.2-0.2-0.4-0.5-0.4-0.8c0-0.4,0.1-0.7,0.4-0.9s0.7-0.3,1.2-0.3h0.6v-0.3c0-0.2-0.1-0.4-0.2-0.5s-0.3-0.2-0.6-0.2
				c-0.2,0-0.4,0.1-0.6,0.2c-0.2,0.1-0.2,0.3-0.2,0.4h-0.6c0-0.2,0.1-0.4,0.2-0.5c0.1-0.2,0.3-0.3,0.5-0.4c0.2-0.1,0.5-0.2,0.7-0.2
				c0.4,0,0.8,0.1,1,0.3c0.2,0.2,0.4,0.5,0.4,0.9v1.7c0,0.3,0,0.6,0.1,0.8v0.1h-0.4V369.6z M1795.8,369.1c0.2,0,0.4-0.1,0.6-0.2
				c0.2-0.1,0.3-0.2,0.4-0.4v-0.8h-0.5c-0.8,0-1.2,0.2-1.2,0.7c0,0.2,0.1,0.4,0.2,0.5C1795.4,369,1795.6,369.1,1795.8,369.1z"/>
			<path fill="#68981F" d="M1798.2,367.7c0-0.6,0.1-1,0.4-1.4c0.3-0.3,0.6-0.5,1.1-0.5c0.4,0,0.8,0.1,1,0.4v-1.9h0.6v5.3h-0.6v-0.4
				c-0.3,0.3-0.6,0.5-1.1,0.5c-0.4,0-0.8-0.2-1-0.5C1798.4,368.8,1798.2,368.3,1798.2,367.7L1798.2,367.7z M1798.9,367.8
				c0,0.4,0.1,0.7,0.3,1c0.2,0.2,0.4,0.4,0.7,0.4c0.4,0,0.7-0.2,0.9-0.5V367c-0.2-0.3-0.5-0.5-0.9-0.5c-0.3,0-0.6,0.1-0.7,0.4
				C1799,367,1798.9,367.3,1798.9,367.8z"/>
			<path fill="#68981F" d="M1804.6,369.2c-0.2,0.3-0.6,0.4-1.1,0.4c-0.4,0-0.7-0.1-0.9-0.3c-0.2-0.2-0.3-0.6-0.3-1v-2.4h0.6v2.4
				c0,0.6,0.2,0.8,0.7,0.8s0.8-0.2,1-0.5v-2.7h0.6v3.7h-0.6V369.2z"/>
			<path fill="#68981F" d="M1808.5,369.6c0-0.1-0.1-0.2-0.1-0.4c-0.3,0.3-0.6,0.5-1.1,0.5c-0.4,0-0.7-0.1-0.9-0.3
				c-0.2-0.2-0.4-0.5-0.4-0.8c0-0.4,0.1-0.7,0.4-0.9s0.7-0.3,1.2-0.3h0.6v-0.3c0-0.2-0.1-0.4-0.2-0.5s-0.3-0.2-0.6-0.2
				c-0.2,0-0.4,0.1-0.6,0.2c-0.2,0.1-0.2,0.3-0.2,0.4h-0.4c0-0.2,0.1-0.4,0.2-0.5c0.1-0.2,0.3-0.3,0.5-0.4c0.2-0.1,0.5-0.2,0.7-0.2
				c0.4,0,0.8,0.1,1,0.3c0.2,0.2,0.4,0.5,0.4,0.9v1.7c0,0.3,0,0.6,0.1,0.8v0.1h-0.6V369.6z M1807.4,369.1c0.2,0,0.4-0.1,0.6-0.2
				c0.2-0.1,0.3-0.2,0.4-0.4v-0.8h-0.5c-0.8,0-1.2,0.2-1.2,0.7c0,0.2,0.1,0.4,0.2,0.5C1807.1,369,1807.2,369.1,1807.4,369.1z"/>
			<path fill="#68981F" d="M1810.9,365v0.9h0.7v0.5h-0.7v2.3c0,0.1,0,0.3,0.1,0.3s0.2,0.1,0.3,0.1s0.2,0,0.3,0v0.5
				c-0.2,0-0.3,0.1-0.5,0.1c-0.3,0-0.5-0.1-0.6-0.3c-0.1-0.2-0.2-0.4-0.2-0.7v-2.3h-0.7v-0.5h0.7V365H1810.9z"/>
			<path fill="#68981F" d="M1813.8,369.7c-0.5,0-0.9-0.2-1.2-0.5c-0.3-0.3-0.5-0.8-0.5-1.3v-0.1c0-0.4,0.1-0.7,0.2-1
				s0.3-0.5,0.6-0.7c0.3-0.2,0.5-0.2,0.8-0.2c0.5,0,0.9,0.2,1.1,0.5c0.3,0.3,0.4,0.8,0.4,1.4v0.3h-2.5c0,0.4,0.1,0.7,0.3,0.9
				c0.2,0.2,0.5,0.3,0.8,0.3c0.2,0,0.4,0,0.6-0.1s0.3-0.2,0.4-0.4l0.4,0.3C1814.9,369.4,1814.5,369.7,1813.8,369.7z M1813.8,366.3
				c-0.3,0-0.5,0.1-0.6,0.3c-0.2,0.2-0.3,0.4-0.3,0.8h1.9l0,0c0-0.3-0.1-0.6-0.3-0.7C1814.2,366.4,1814,366.3,1813.8,366.3z"/>
		</g>
		<g enable-background="new    ">
			<path fill="#FFFFFF" d="M1718.6,326.7l1.7-3.2h1l-2.2,4v2.4h-0.8v-2.4l-2.2-4h1L1718.6,326.7z"/>
			<path fill="#FFFFFF" d="M1721.4,327.5c0-0.5,0.1-0.9,0.3-1.3c0.2-0.4,0.4-0.7,0.8-0.9c0.3-0.2,0.7-0.3,1.1-0.3
				c0.6,0,1.2,0.2,1.6,0.7c0.4,0.4,0.6,1,0.6,1.8v0.1c0,0.5-0.1,0.9-0.3,1.2c-0.2,0.4-0.4,0.7-0.8,0.9c-0.3,0.2-0.7,0.3-1.1,0.3
				c-0.6,0-1.2-0.2-1.6-0.7C1721.6,328.9,1721.4,328.3,1721.4,327.5L1721.4,327.5z M1722.2,327.6c0,0.5,0.1,1,0.4,1.3
				c0.2,0.3,0.6,0.5,1,0.5s0.7-0.2,1-0.5c0.2-0.3,0.4-0.8,0.4-1.4c0-0.5-0.1-0.9-0.4-1.3c-0.2-0.3-0.6-0.5-1-0.5s-0.7,0.2-1,0.5
				C1722.3,326.5,1722.2,327,1722.2,327.6z"/>
			<path fill="#FFFFFF" d="M1729.7,329.4c-0.3,0.4-0.8,0.6-1.4,0.6c-0.5,0-0.9-0.1-1.2-0.4c-0.3-0.3-0.4-0.7-0.4-1.3v-3.1h0.8v3.1
				c0,0.7,0.3,1.1,0.9,1.1c0.6,0,1-0.2,1.2-0.7v-3.5h0.8v4.8h-0.8L1729.7,329.4z"/>
			<path fill="#FFFFFF" d="M1734,325.9c-0.1,0-0.3,0-0.4,0c-0.5,0-0.9,0.2-1.1,0.7v3.4h-0.8v-4.8h0.8v0.5c0.3-0.4,0.6-0.6,1.1-0.6
				c0.2,0,0.3,0,0.4,0.1V325.9z"/>
			<path fill="#FFFFFF" d="M1741.8,327.9c-0.1,0.7-0.3,1.2-0.7,1.6c-0.4,0.4-1,0.6-1.7,0.6c-0.8,0-1.4-0.3-1.8-0.8
				c-0.5-0.5-0.7-1.3-0.7-2.2v-0.6c0-0.6,0.1-1.1,0.3-1.6s0.5-0.8,0.9-1c0.4-0.2,0.8-0.4,1.4-0.4c0.7,0,1.2,0.2,1.6,0.6
				c0.4,0.4,0.6,0.9,0.7,1.6h-0.8c-0.1-0.5-0.2-0.9-0.5-1.1c-0.2-0.2-0.6-0.3-1-0.3c-0.5,0-1,0.2-1.3,0.6c-0.3,0.4-0.5,1-0.5,1.7
				v0.6c0,0.7,0.1,1.2,0.4,1.7c0.3,0.5,0.7,0.6,1.2,0.6s0.8-0.1,1.1-0.3c0.3-0.2,0.4-0.6,0.5-1.1h0.9V327.9z"/>
			<path fill="#FFFFFF" d="M1743.6,325.7c0.4-0.4,0.8-0.7,1.4-0.7c1,0,1.5,0.6,1.5,1.7v3.1h-0.8v-3.1c0-0.3-0.1-0.6-0.2-0.8
				c-0.2-0.2-0.4-0.2-0.7-0.2c-0.3,0-0.5,0.1-0.7,0.2c-0.2,0.1-0.4,0.3-0.5,0.6v3.4h-0.8v-6.8h0.8V325.7L1743.6,325.7z"/>
			<path fill="#FFFFFF" d="M1747.8,323.9c0-0.1,0-0.2,0.1-0.3c0.1-0.1,0.2-0.1,0.4-0.1c0.2,0,0.3,0,0.4,0.1c0.1,0.1,0.1,0.2,0.1,0.3
				s0,0.2-0.1,0.3c-0.1,0.1-0.2,0.1-0.4,0.1c-0.2,0-0.3,0-0.4-0.1C1747.8,324.1,1747.8,324,1747.8,323.9z M1748.7,329.9h-0.8v-4.8
				h0.8V329.9z"/>
			<path fill="#FFFFFF" d="M1750.9,329.9h-0.8v-6.8h0.8V329.9z"/>
			<path fill="#FFFFFF" d="M1752,327.5c0-0.7,0.2-1.3,0.5-1.8c0.3-0.4,0.8-0.7,1.4-0.7c0.6,0,1,0.2,1.3,0.6v-2.5h0.8v6.8h-0.8v-0.5
				c-0.3,0.4-0.8,0.6-1.4,0.6c-0.6,0-1-0.2-1.3-0.7C1752.1,328.9,1752,328.3,1752,327.5L1752,327.5z M1752.8,327.6
				c0,0.5,0.1,1,0.3,1.3c0.2,0.3,0.5,0.5,0.9,0.5c0.5,0,0.9-0.2,1.1-0.7v-2.2c-0.2-0.4-0.6-0.7-1.1-0.7c-0.4,0-0.7,0.2-0.9,0.5
				S1752.8,327,1752.8,327.6z"/>
			<path fill="#FFFFFF" d="M1757.3,325.3l-0.5-0.3c0.3-0.4,0.4-0.8,0.4-1.2v-0.6h0.8v0.6c0,0.3-0.1,0.6-0.2,0.9
				C1757.7,324.9,1757.5,325.1,1757.3,325.3z"/>
			<path fill="#FFFFFF" d="M1761.3,328.7c0-0.2-0.1-0.4-0.2-0.5c-0.2-0.1-0.5-0.2-0.9-0.3s-0.7-0.2-1-0.3c-0.2-0.1-0.4-0.3-0.5-0.4
				c-0.1-0.2-0.2-0.4-0.2-0.6c0-0.4,0.2-0.7,0.5-1c0.3-0.3,0.8-0.4,1.3-0.4s1,0.1,1.3,0.4c0.3,0.3,0.5,0.6,0.5,1.1h-0.8
				c0-0.2-0.1-0.4-0.3-0.6c-0.2-0.2-0.4-0.2-0.7-0.2c-0.3,0-0.5,0.1-0.7,0.2c-0.2,0.1-0.3,0.3-0.3,0.5c0,0.2,0.1,0.3,0.2,0.4
				c0.1,0.1,0.4,0.2,0.8,0.3s0.7,0.2,1,0.3c0.3,0.1,0.4,0.3,0.6,0.5c0.1,0.2,0.2,0.4,0.2,0.6c0,0.4-0.2,0.8-0.5,1
				c-0.3,0.3-0.8,0.4-1.3,0.4c-0.4,0-0.7-0.1-1-0.2c-0.3-0.1-0.5-0.3-0.7-0.6c-0.2-0.2-0.2-0.5-0.2-0.8h0.8c0,0.3,0.1,0.5,0.3,0.6
				c0.2,0.2,0.5,0.2,0.8,0.2c0.3,0,0.6-0.1,0.7-0.2C1761.2,329,1761.3,328.9,1761.3,328.7z"/>
			<path fill="#FFFFFF" d="M1766.4,329.9h-0.8v-6.4h0.8V329.9z"/>
			<path fill="#FFFFFF" d="M1768.6,325.2v0.6c0.4-0.5,0.8-0.7,1.4-0.7c1,0,1.5,0.6,1.5,1.7v3.1h-0.8v-3.1c0-0.3-0.1-0.6-0.2-0.8
				c-0.2-0.2-0.4-0.2-0.7-0.2c-0.3,0-0.5,0.1-0.7,0.2c-0.2,0.1-0.4,0.3-0.5,0.6v3.4h-0.8v-4.8H1768.6z"/>
			<path fill="#FFFFFF" d="M1773.2,329.9v-4.1h-0.8v-0.6h0.8v-0.5c0-0.5,0.1-0.9,0.4-1.2c0.3-0.3,0.7-0.4,1.2-0.4
				c0.2,0,0.4,0,0.6,0.1v0.7c-0.1,0-0.3,0-0.4,0c-0.3,0-0.5,0.1-0.6,0.2c-0.1,0.1-0.2,0.4-0.2,0.7v0.5h1v0.6h-1v4.1h-1V329.9z"/>
			<path fill="#FFFFFF" d="M1775.7,327.5c0-0.5,0.1-0.9,0.3-1.3c0.2-0.4,0.4-0.7,0.8-0.9c0.3-0.2,0.7-0.3,1.1-0.3
				c0.6,0,1.2,0.2,1.6,0.7c0.4,0.4,0.6,1,0.6,1.8v0.1c0,0.5-0.1,0.9-0.3,1.2c-0.2,0.4-0.4,0.7-0.8,0.9c-0.3,0.2-0.7,0.3-1.1,0.3
				c-0.6,0-1.2-0.2-1.6-0.7C1775.9,328.9,1775.7,328.3,1775.7,327.5L1775.7,327.5z M1776.5,327.6c0,0.5,0.1,1,0.4,1.3
				c0.2,0.3,0.6,0.5,1,0.5s0.7-0.2,1-0.5c0.2-0.3,0.4-0.8,0.4-1.4c0-0.5-0.1-0.9-0.4-1.3c-0.2-0.3-0.6-0.5-1-0.5s-0.7,0.2-1,0.5
				C1776.6,326.5,1776.5,327,1776.5,327.6z"/>
			<path fill="#FFFFFF" d="M1783.4,325.9c-0.1,0-0.3,0-0.4,0c-0.5,0-0.9,0.2-1.1,0.7v3.4h-0.8v-4.8h0.8v0.5c0.3-0.4,0.6-0.6,1.1-0.6
				c0.2,0,0.3,0,0.4,0.1V325.9z"/>
			<path fill="#FFFFFF" d="M1784.9,325.2v0.5c0.3-0.4,0.8-0.6,1.4-0.6c0.7,0,1.1,0.3,1.4,0.8c0.2-0.2,0.4-0.4,0.6-0.6
				c0.3-0.1,0.6-0.2,0.9-0.2c1,0,1.6,0.6,1.6,1.7v3.2h-0.8v-3.1c0-0.3-0.1-0.6-0.2-0.8c-0.2-0.2-0.4-0.3-0.8-0.3
				c-0.3,0-0.6,0.1-0.8,0.3c-0.2,0.2-0.3,0.4-0.3,0.7v3.2h-0.8v-3.1c0-0.7-0.3-1-1-1c-0.5,0-0.9,0.2-1.1,0.7v3.5h-0.8v-4.8
				L1784.9,325.2L1784.9,325.2z"/>
			<path fill="#FFFFFF" d="M1794.9,329.9c0-0.1-0.1-0.3-0.1-0.5c-0.4,0.4-0.8,0.6-1.4,0.6c-0.5,0-0.9-0.1-1.2-0.4
				c-0.3-0.3-0.5-0.6-0.5-1c0-0.5,0.2-0.9,0.6-1.2c0.4-0.3,0.9-0.4,1.6-0.4h0.8v-0.4c0-0.3-0.1-0.5-0.3-0.7
				c-0.2-0.2-0.4-0.3-0.8-0.3c-0.3,0-0.5,0.1-0.7,0.2c-0.2,0.1-0.3,0.3-0.3,0.5h-0.8c0-0.2,0.1-0.5,0.3-0.7c0.2-0.2,0.4-0.4,0.7-0.5
				c0.3-0.1,0.6-0.2,1-0.2c0.5,0,1,0.1,1.3,0.4c0.3,0.3,0.5,0.7,0.5,1.1v2.2c0,0.4,0.1,0.8,0.2,1v0.1h-0.9V329.9z M1793.6,329.3
				c0.3,0,0.5-0.1,0.7-0.2c0.2-0.1,0.4-0.3,0.5-0.5v-1h-0.6c-1,0-1.5,0.3-1.5,0.9c0,0.3,0.1,0.5,0.3,0.6
				C1793.2,329.2,1793.3,329.3,1793.6,329.3z"/>
			<path fill="#FFFFFF" d="M1798,324v1.2h0.9v0.6h-0.9v3c0,0.2,0,0.3,0.1,0.4c0.1,0.1,0.2,0.1,0.4,0.1c0.1,0,0.2,0,0.4-0.1v0.7
				c-0.2,0.1-0.4,0.1-0.6,0.1c-0.4,0-0.6-0.1-0.8-0.3c-0.2-0.2-0.3-0.5-0.3-0.9v-2.9h-0.9v-0.6h0.9V324H1798z"/>
			<path fill="#FFFFFF" d="M1799.8,323.9c0-0.1,0-0.2,0.1-0.3c0.1-0.1,0.2-0.1,0.4-0.1c0.2,0,0.3,0,0.4,0.1c0.1,0.1,0.1,0.2,0.1,0.3
				s0,0.2-0.1,0.3c-0.1,0.1-0.2,0.1-0.4,0.1c-0.2,0-0.3,0-0.4-0.1C1799.9,324.1,1799.8,324,1799.8,323.9z M1800.7,329.9h-0.8v-4.8
				h0.8V329.9z"/>
			<path fill="#FFFFFF" d="M1801.8,327.5c0-0.5,0.1-0.9,0.3-1.3c0.2-0.4,0.4-0.7,0.8-0.9c0.3-0.2,0.7-0.3,1.1-0.3
				c0.6,0,1.2,0.2,1.6,0.7c0.4,0.4,0.6,1,0.6,1.8v0.1c0,0.5-0.1,0.9-0.3,1.2c-0.2,0.4-0.4,0.7-0.8,0.9c-0.3,0.2-0.7,0.3-1.1,0.3
				c-0.6,0-1.2-0.2-1.6-0.7C1802,328.9,1801.8,328.3,1801.8,327.5L1801.8,327.5z M1802.6,327.6c0,0.5,0.1,1,0.4,1.3
				c0.2,0.3,0.6,0.5,1,0.5s0.7-0.2,1-0.5c0.2-0.3,0.4-0.8,0.4-1.4c0-0.5-0.1-0.9-0.4-1.3c-0.2-0.3-0.6-0.5-1-0.5s-0.7,0.2-1,0.5
				C1802.7,326.5,1802.6,327,1802.6,327.6z"/>
			<path fill="#FFFFFF" d="M1807.9,325.2v0.6c0.4-0.5,0.8-0.7,1.4-0.7c1,0,1.5,0.6,1.5,1.7v3.1h-0.8v-3.1c0-0.3-0.1-0.6-0.2-0.8
				c-0.2-0.2-0.4-0.2-0.7-0.2c-0.3,0-0.5,0.1-0.7,0.2c-0.2,0.1-0.4,0.3-0.5,0.6v3.4h-0.7v-4.8H1807.9z"/>
		</g>
		<g enable-background="new    ">
			<path fill="#FFFFFF" d="M1757.1,312.2c-0.1,0.1-0.2,0.2-0.3,0.3s-0.3,0.1-0.4,0.1c-0.2,0-0.4,0-0.5-0.2c-0.2-0.1-0.3-0.2-0.4-0.4
				c-0.1-0.2-0.1-0.4-0.1-0.6s0-0.5,0.1-0.6c0.1-0.2,0.2-0.3,0.4-0.4c0.2-0.1,0.4-0.2,0.6-0.2c0.4,0,0.6,0.1,0.8,0.4
				c0.2,0.3,0.3,0.6,0.3,1.1v0.1c0,0.7-0.1,1.2-0.4,1.5c-0.3,0.3-0.7,0.5-1.2,0.5h-0.1v-0.4h0.1c0.4,0,0.7-0.1,0.9-0.3
				C1757.1,312.9,1757,312.6,1757.1,312.2z M1756.4,312.2c0.2,0,0.3,0,0.4-0.1c0.1-0.1,0.2-0.2,0.3-0.3v-0.2c0-0.3-0.1-0.5-0.2-0.7
				c-0.1-0.2-0.3-0.3-0.5-0.3c-0.2,0-0.4,0.1-0.5,0.2c-0.1,0.2-0.2,0.4-0.2,0.6c0,0.2,0.1,0.4,0.2,0.6
				C1756,312.2,1756.2,312.2,1756.4,312.2z"/>
			<path fill="#FFFFFF" d="M1758.2,313.5c0-0.1,0-0.1,0.1-0.2c0-0.1,0.1-0.1,0.2-0.1s0.2,0,0.2,0.1c0,0.1,0.1,0.1,0.1,0.2
				c0,0.1,0,0.1-0.1,0.2c0,0.1-0.1,0.1-0.2,0.1s-0.2,0-0.2-0.1C1758.2,313.7,1758.2,313.6,1758.2,313.5z M1758.2,311.4
				c0-0.1,0-0.1,0.1-0.2c0-0.1,0.1-0.1,0.2-0.1s0.2,0,0.2,0.1c0,0.1,0.1,0.1,0.1,0.2s0,0.1-0.1,0.2c0,0.1-0.1,0.1-0.2,0.1
				s-0.2,0-0.2-0.1C1758.2,311.5,1758.2,311.4,1758.2,311.4z"/>
			<path fill="#FFFFFF" d="M1761.3,312.6h0.5v0.4h-0.5v0.8h-0.5V313h-1.6v-0.3l1.6-2.5h0.5V312.6z M1759.7,312.6h1.1v-1.7l-0.1,0.1
				L1759.7,312.6z"/>
			<path fill="#FFFFFF" d="M1763.6,313.8h-0.4v-3l-0.9,0.3v-0.4l1.3-0.5h0.1L1763.6,313.8L1763.6,313.8z"/>
			<path fill="#FFFFFF" d="M1768.3,312.8h-1.5l-0.3,0.9h-0.5l1.4-3.6h0.4l1.4,3.6h-0.5L1768.3,312.8z M1766.9,312.4h1.2l-0.6-1.7
				L1766.9,312.4z"/>
			<path fill="#FFFFFF" d="M1770.2,310.2l1.2,2.9l1.2-2.9h0.6v3.6h-0.5v-1.4v-1.5l-1.2,2.9h-0.3l-1.2-2.9v1.5v1.4h-0.5v-3.6H1770.2z
				"/>
		</g>
		<g enable-background="new    ">
			<path fill="#FFFFFF" d="M1812.4,313.8h-0.3v-3.2l-1,0.4v-0.3l1.2-0.4l0,0L1812.4,313.8L1812.4,313.8z"/>
			<path fill="#FFFFFF" d="M1815.9,312.3c0,0.5-0.1,0.9-0.3,1.1c-0.2,0.3-0.5,0.4-0.8,0.4c-0.4,0-0.6-0.1-0.8-0.4
				c-0.2-0.3-0.3-0.6-0.3-1.1v-0.6c0-0.5,0.1-0.9,0.3-1.1c0.2-0.2,0.5-0.4,0.8-0.4c0.4,0,0.6,0.1,0.8,0.4c0.2,0.3,0.3,0.6,0.3,1.1
				V312.3z M1815.7,311.6c0-0.4-0.1-0.7-0.2-0.9s-0.3-0.3-0.6-0.3c-0.3,0-0.5,0.1-0.6,0.3s-0.2,0.5-0.2,0.9v0.7
				c0,0.4,0.1,0.7,0.2,0.9c0.1,0.2,0.3,0.3,0.6,0.3c0.3,0,0.5-0.1,0.6-0.3c0.1-0.2,0.2-0.5,0.2-0.9V311.6z"/>
			<path fill="#FFFFFF" d="M1818.7,312.3c0,0.5-0.1,0.9-0.3,1.1c-0.2,0.2-0.5,0.4-0.8,0.4c-0.4,0-0.6-0.1-0.8-0.4
				c-0.2-0.3-0.3-0.6-0.3-1.1v-0.6c0-0.5,0.1-0.9,0.3-1.1c0.2-0.2,0.5-0.4,0.8-0.4c0.4,0,0.6,0.1,0.8,0.4c0.2,0.3,0.3,0.6,0.3,1.1
				V312.3z M1818.4,311.6c0-0.4-0.1-0.7-0.2-0.9c-0.1-0.2-0.3-0.3-0.6-0.3c-0.3,0-0.5,0.1-0.6,0.3s-0.2,0.5-0.2,0.9v0.7
				c0,0.4,0.1,0.7,0.2,0.9c0.1,0.2,0.3,0.3,0.6,0.3c0.3,0,0.5-0.1,0.6-0.3c0.1-0.2,0.2-0.5,0.2-0.9V311.6z"/>
			<path fill="#FFFFFF" d="M1819.3,310.9c0-0.2,0.1-0.4,0.2-0.5c0.1-0.1,0.3-0.2,0.5-0.2c0.2,0,0.4,0.1,0.5,0.2s0.2,0.3,0.2,0.5v0.2
				c0,0.2-0.1,0.4-0.2,0.5c-0.1,0.1-0.3,0.2-0.5,0.2c-0.2,0-0.4-0.1-0.5-0.2c-0.1-0.1-0.2-0.3-0.2-0.5V310.9z M1819.5,311.1
				c0,0.2,0,0.3,0.1,0.4s0.2,0.1,0.3,0.1s0.2,0,0.3-0.1s0.1-0.2,0.1-0.4v-0.2c0-0.2,0-0.3-0.1-0.4c-0.1-0.1-0.2-0.1-0.3-0.1
				s-0.2,0-0.3,0.1c-0.1,0.1-0.1,0.2-0.1,0.4V311.1z M1820.1,313.5l-0.2-0.1l1.7-2.8l0.2,0.1L1820.1,313.5z M1821.1,312.9
				c0-0.2,0.1-0.4,0.2-0.5c0.1-0.1,0.3-0.2,0.5-0.2c0.2,0,0.4,0.1,0.5,0.2s0.2,0.3,0.2,0.5v0.2c0,0.2-0.1,0.4-0.2,0.5
				c-0.1,0.1-0.3,0.2-0.5,0.2c-0.2,0-0.4-0.1-0.5-0.2c-0.1-0.1-0.2-0.3-0.2-0.5V312.9z M1821.3,313.1c0,0.2,0,0.3,0.1,0.4
				s0.2,0.1,0.3,0.1s0.3,0,0.3-0.1s0.1-0.2,0.1-0.4v-0.2c0-0.2,0-0.3-0.1-0.4c-0.1-0.1-0.2-0.1-0.3-0.1s-0.2,0-0.3,0.1
				c-0.1,0.1-0.1,0.2-0.1,0.4V313.1z"/>
		</g>
		<g>
			<rect x="1688.1" y="312.1" fill="#FFFFFF" width="1.2" height="1.8"/>
			<rect x="1690" y="311.6" fill="#FFFFFF" width="1.2" height="2.3"/>
			<rect x="1691.9" y="310.7" fill="#FFFFFF" width="1.2" height="3.2"/>
			<rect x="1693.8" y="309.8" fill="#FFFFFF" width="1.2" height="4"/>
		</g>
		<g>
			<path fill="#FFFFFF" d="M1701.8,311.4c-0.8-0.5-1.6-0.7-2.3-0.7c-0.8,0-1.7,0.3-2.3,0.7l-0.6-0.8c0.8-0.6,1.9-0.9,2.9-0.9
				s1.9,0.3,2.9,0.9L1701.8,311.4z"/>
			<path fill="#FFFFFF" d="M1701,312.8c-0.9-0.6-2.1-0.6-3.1,0l-0.5-0.9c1.3-0.8,2.8-0.8,4.1,0L1701,312.8z"/>
			<path fill="#FFFFFF" d="M1698.9,314.2l-0.5-0.8l0.4-0.2c0.2-0.1,0.5-0.2,0.8-0.2c0.5,0,1,0.2,1.2,0.3l-0.6,0.8
				c-0.1-0.1-0.4-0.1-0.6-0.1c-0.1,0-0.2,0-0.5,0.1L1698.9,314.2z"/>
		</g>
		<path fill="#FFFFFF" d="M1806.1,314.4V312l-1.1,1.1l-0.1-0.1l1.2-1.2l0,0l0,0l-1.1-1.2l0.1-0.1l1,1.1v-2.2l1.4,1.4l-1.2,1l1.2,1.2
			L1806.1,314.4z M1806.3,312.1v1.9l1-1L1806.3,312.1L1806.3,312.1z M1806.3,309.8v1.7l1-0.8L1806.3,309.8z"/>
		<polygon fill="#FFFFFF" points="1838.1,310 1836.6,312.1 1837.6,312.1 1837.2,313.8 1838.9,311.3 1837.8,311.3 		"/>
		<g>
			<circle fill="none" stroke="#FFFFFF" stroke-width="0.2" stroke-miterlimit="10" cx="1828.6" cy="326.8" r="6.2"/>
			
				<line fill="none" stroke="#FFFFFF" stroke-linecap="round" stroke-miterlimit="10" x1="1828.6" y1="326.3" x2="1828.6" y2="328.9"/>
			<circle fill="#FFFFFF" cx="1828.6" cy="324.3" r="0.5"/>
		</g>
		
			<rect x="1684.6" y="307.4" fill="none" stroke="#E1E7EC" stroke-linejoin="round" stroke-miterlimit="10" width="157.4" height="88"/>
		<path fill="none" stroke="#FFFFFF" stroke-width="0.2" stroke-miterlimit="10" d="M1833.6,314.2h-8.6c-0.2,0-0.3-0.2-0.3-0.3v-3.6
			c0-0.2,0.2-0.3,0.3-0.3h8.6c0.2,0,0.3,0.2,0.3,0.3v3.6C1834,314.1,1833.8,314.2,1833.6,314.2z"/>
		<path fill="#59F16D" d="M1833.4,313.9h-8.2c-0.1,0-0.2-0.1-0.2-0.2v-3.4c0-0.1,0.1-0.2,0.2-0.2h8.2c0.1,0,0.2,0.1,0.2,0.2v3.4
			C1833.6,313.8,1833.5,313.9,1833.4,313.9z"/>
	</g>
	
		<linearGradient id="SVGID_1_" gradientUnits="userSpaceOnUse" x1="890.4526" y1="126.0396" x2="890.4526" y2="101.2271" gradientTransform="matrix(1.8565 0 0 1.8565 -4.047797e-004 159.3522)">
		<stop  offset="0" style="stop-color:#BCBEC0"/>
		<stop  offset="1" style="stop-color:#FFFFFF;stop-opacity:0"/>
	</linearGradient>
	<rect x="1394.6" y="325.9" fill="url(#SVGID_1_)" width="517.1" height="45.9"/>
	<g>
		<path fill="#F5F6F7" stroke="#E6E7E8" stroke-miterlimit="10" d="M1947.9,564.7h-589.3c-18,0-32.5-14.5-32.5-32.5V404.3
			c0-18,14.5-32.5,32.5-32.5h589.3c18,0,32.5,14.5,32.5,32.5v127.9C1980.3,550.2,1965.8,564.7,1947.9,564.7z"/>
		
			<linearGradient id="SVGID_2_" gradientUnits="userSpaceOnUse" x1="890.5604" y1="177.6358" x2="890.5604" y2="149.807" gradientTransform="matrix(1.8565 0 0 1.8565 -4.047797e-004 159.3522)">
			<stop  offset="0" style="stop-color:#BCBEC0"/>
			<stop  offset="1" style="stop-color:#FFFFFF;stop-opacity:0"/>
		</linearGradient>
		<rect x="1325.4" y="413.5" fill="url(#SVGID_2_)" width="655.9" height="51.5"/>
		<g enable-background="new    ">
			<path fill="#494D60" d="M1555.3,447.6h-0.8v-22.4h0.8V447.6z"/>
			<path fill="#494D60" d="M1562.5,434.8c0.5-1.3,1.3-2.3,2.4-3.1c1.1-0.8,2.2-1.1,3.5-1.1c1.8,0,3.1,0.5,4,1.5
				c0.9,1,1.3,2.5,1.3,4.6v10.9h-0.8v-10.9c0-1.8-0.4-3.1-1.1-4c-0.7-0.9-1.9-1.3-3.4-1.3c-1.4,0-2.7,0.5-3.7,1.5
				c-1.1,1-1.8,2.3-2.1,3.9v10.7h-0.8v-16.7h0.8L1562.5,434.8L1562.5,434.8z"/>
		</g>
		<g enable-background="new    ">
			<path fill="#494D60" d="M1589.8,435h2.1c1.3,0,2.4-0.4,3.2-1.1s1.2-1.6,1.2-2.8c0-2.6-1.3-3.9-3.9-3.9c-1.2,0-2.2,0.4-3,1.1
				c-0.7,0.7-1.1,1.6-1.1,2.8h-2.9c0-1.8,0.6-3.3,1.9-4.4c1.3-1.1,3-1.8,5-1.8c2.1,0,3.8,0.6,5,1.7c1.2,1.1,1.8,2.7,1.8,4.7
				c0,1-0.3,1.9-0.9,2.8c-0.6,0.9-1.5,1.6-2.6,2c1.2,0.4,2.2,1,2.9,1.9s1,2,1,3.3c0,2-0.7,3.6-2,4.8c-1.3,1.2-3,1.8-5.1,1.8
				c-2.1,0-3.8-0.6-5.1-1.7c-1.3-1.1-2-2.6-2-4.5h2.9c0,1.2,0.4,2.1,1.2,2.8c0.8,0.7,1.8,1.1,3.1,1.1c1.4,0,2.4-0.4,3.2-1.1
				c0.7-0.7,1.1-1.8,1.1-3.1c0-1.3-0.4-2.3-1.2-3c-0.8-0.7-2-1.1-3.5-1.1h-2.1V435H1589.8z"/>
		</g>
		<g enable-background="new    ">
			<path fill="#494D60" d="M1617.8,447.9c-1.3,0-2.6-0.4-3.7-1.1s-2-1.7-2.6-3c-0.6-1.3-1-2.7-1-4.2v-0.7c0-1.5,0.3-3,0.9-4.2
				c0.6-1.3,1.5-2.3,2.5-3c1.1-0.7,2.3-1.1,3.5-1.1c1.9,0,3.4,0.7,4.6,2c1.2,1.3,1.8,3.1,1.8,5.2v0.9h-12.5v0.9
				c0,1.4,0.3,2.6,0.9,3.8c0.6,1.2,1.4,2.1,2.4,2.7c1,0.7,2.1,1,3.3,1c1.1,0,2.1-0.2,2.9-0.6c0.8-0.4,1.5-0.9,2.1-1.7l0.6,0.4
				C1622.1,447,1620.3,447.9,1617.8,447.9z M1617.5,431.4c-1.6,0-3,0.6-4.1,1.8c-1.1,1.2-1.8,2.7-2,4.6h11.6v-0.2
				c0-1.1-0.2-2.2-0.7-3.2s-1.1-1.7-2-2.3C1619.5,431.7,1618.6,431.4,1617.5,431.4z"/>
			<path fill="#494D60" d="M1638.5,447.6c-0.2-0.7-0.3-1.7-0.3-3.1c-0.7,1.1-1.6,1.9-2.7,2.5c-1.1,0.6-2.4,0.9-3.9,0.9
				s-2.8-0.4-3.7-1.3c-0.9-0.8-1.4-1.9-1.4-3.3c0-1.5,0.7-2.8,2.1-3.7c1.4-0.9,3.2-1.4,5.5-1.4h4.1v-2.4c0-1.4-0.4-2.5-1.3-3.3
				c-0.9-0.8-2.1-1.2-3.8-1.2c-1.5,0-2.8,0.4-3.8,1.2c-1,0.8-1.5,1.7-1.5,2.9h-0.8c0-1.4,0.6-2.5,1.8-3.5c1.2-0.9,2.7-1.4,4.4-1.4
				c1.8,0,3.2,0.4,4.3,1.3s1.6,2.2,1.6,3.8v8c0,1.8,0.1,3.1,0.4,3.7v0.1h-1V447.6z M1631.6,447c1.6,0,2.9-0.3,4-1s2-1.7,2.5-2.9v-4
				h-3.9c-2.4,0-4.2,0.5-5.5,1.4c-1,0.8-1.5,1.7-1.5,2.9c0,1,0.4,1.9,1.2,2.6C1629.2,446.7,1630.4,447,1631.6,447z"/>
			<path fill="#494D60" d="M1654.7,443.5c0-2-1.7-3.4-5.2-4.1c-2.1-0.4-3.5-1-4.3-1.7c-0.8-0.7-1.2-1.6-1.2-2.9c0-1.2,0.5-2.2,1.5-3
				s2.4-1.2,4-1.2c1.8,0,3.2,0.4,4.3,1.3s1.6,2,1.6,3.5h-0.8c0-1.1-0.5-2.1-1.4-2.8c-0.9-0.8-2.2-1.1-3.7-1.1s-2.6,0.3-3.5,1
				c-0.9,0.6-1.3,1.4-1.3,2.4c0,0.8,0.2,1.3,0.5,1.8c0.3,0.4,0.8,0.8,1.6,1.2c0.7,0.3,1.8,0.7,3.1,1c1.4,0.3,2.5,0.7,3.3,1.1
				c0.8,0.4,1.4,0.9,1.7,1.5c0.4,0.6,0.5,1.3,0.5,2.2c0,1.3-0.5,2.4-1.6,3.2c-1.1,0.8-2.5,1.2-4.2,1.2c-1.9,0-3.4-0.4-4.5-1.3
				c-1.1-0.8-1.7-1.9-1.7-3.3h0.8c0.1,1.2,0.6,2.1,1.5,2.7c1,0.7,2.2,1,3.9,1c1.5,0,2.7-0.3,3.6-1S1654.7,444.5,1654.7,443.5z"/>
			<path fill="#494D60" d="M1665.2,446.3l0.1-0.3l5.8-15.1h0.9l-7.5,19.6l-0.4,0.9c-0.8,1.9-2.1,2.9-4,2.9c-0.6,0-1-0.1-1.2-0.2
				v-0.8c0.3,0.1,0.7,0.1,1.1,0.1c0.9,0,1.6-0.3,2.2-0.8s1.1-1.3,1.5-2.5l1-2.8l-6.6-16.6h0.9L1665.2,446.3z"/>
			<path fill="#494D60" d="M1693,443.5c0-2-1.7-3.4-5.2-4.1c-2.1-0.4-3.5-1-4.3-1.7c-0.8-0.7-1.2-1.6-1.2-2.9c0-1.2,0.5-2.2,1.5-3
				s2.4-1.2,4-1.2c1.8,0,3.2,0.4,4.3,1.3s1.6,2,1.6,3.5h-0.8c0-1.1-0.5-2.1-1.4-2.8c-0.9-0.7-2.2-1.1-3.7-1.1s-2.6,0.3-3.5,1
				c-0.9,0.6-1.3,1.4-1.3,2.4c0,0.8,0.2,1.3,0.5,1.8c0.3,0.4,0.8,0.8,1.6,1.2c0.7,0.3,1.8,0.7,3.1,1c1.4,0.3,2.5,0.7,3.3,1.1
				c0.8,0.4,1.4,0.9,1.7,1.5s0.5,1.3,0.5,2.2c0,1.3-0.5,2.4-1.6,3.2c-1.1,0.8-2.5,1.2-4.2,1.2c-1.9,0-3.4-0.4-4.5-1.3
				c-1.1-0.8-1.7-1.9-1.7-3.3h0.8c0.1,1.2,0.6,2.1,1.5,2.7c1,0.7,2.2,1,3.9,1c1.5,0,2.7-0.3,3.6-1
				C1692.4,445.5,1693,444.5,1693,443.5z"/>
			<path fill="#494D60" d="M1700.3,426.4v4.5h3.8v0.8h-3.8v11.8c0,1.2,0.2,2.1,0.6,2.6c0.4,0.6,1,0.8,1.9,0.8c0.5,0,1,0,1.6-0.1
				l0.1,0.8c-0.3,0.1-0.9,0.2-1.7,0.2c-1.2,0-2.1-0.3-2.6-1s-0.8-1.7-0.8-3.2v-12h-3.1v-0.8h3.1v-4.5h0.9V426.4z"/>
			<path fill="#494D60" d="M1714.4,447.9c-1.3,0-2.6-0.4-3.7-1.1s-2-1.7-2.6-3s-1-2.7-1-4.2v-0.7c0-1.5,0.3-3,0.9-4.2
				c0.6-1.3,1.5-2.3,2.5-3c1.1-0.7,2.3-1.1,3.5-1.1c1.9,0,3.4,0.7,4.6,2c1.2,1.3,1.8,3.1,1.8,5.2v0.9h-12.5v0.9
				c0,1.4,0.3,2.6,0.9,3.8c0.6,1.2,1.4,2.1,2.4,2.7c1,0.7,2.1,1,3.3,1c1.1,0,2.1-0.2,2.9-0.6c0.8-0.4,1.5-0.9,2.1-1.7l0.6,0.4
				C1718.7,447,1716.8,447.9,1714.4,447.9z M1714.1,431.4c-1.6,0-3,0.6-4.1,1.8c-1.1,1.2-1.8,2.7-2,4.6h11.6v-0.2
				c0-1.1-0.2-2.2-0.7-3.2s-1.1-1.7-2-2.3C1716.1,431.7,1715.1,431.4,1714.1,431.4z"/>
			<path fill="#494D60" d="M1737.1,439.4c0,2.6-0.6,4.7-1.7,6.2c-1.1,1.5-2.6,2.3-4.6,2.3c-1.3,0-2.4-0.3-3.4-0.8s-1.8-1.2-2.3-2.1
				v9h-0.8v-23.1h0.8v3c0.6-1.1,1.4-1.9,2.3-2.4c1-0.6,2.1-0.8,3.3-0.8c2,0,3.5,0.7,4.6,2.2s1.7,3.6,1.7,6.3L1737.1,439.4
				L1737.1,439.4z M1736.2,439.1c0-2.4-0.5-4.3-1.4-5.6c-1-1.4-2.3-2-4-2c-1.4,0-2.6,0.4-3.6,1.1s-1.7,1.8-2.1,3.1v7.8
				c0.4,1.2,1.1,2,2.1,2.7c1,0.6,2.2,0.9,3.6,0.9c1.7,0,3-0.7,4-2C1735.7,443.6,1736.2,441.7,1736.2,439.1z"/>
			<path fill="#494D60" d="M1751.9,443.5c0-2-1.7-3.4-5.2-4.1c-2.1-0.4-3.5-1-4.3-1.7c-0.8-0.7-1.2-1.6-1.2-2.9c0-1.2,0.5-2.2,1.5-3
				s2.4-1.2,4-1.2c1.8,0,3.2,0.4,4.3,1.3s1.6,2,1.6,3.5h-0.8c0-1.1-0.5-2.1-1.4-2.8c-0.9-0.8-2.2-1.1-3.7-1.1s-2.6,0.3-3.5,1
				c-0.9,0.6-1.3,1.4-1.3,2.4c0,0.8,0.2,1.3,0.5,1.8c0.3,0.4,0.8,0.8,1.6,1.2s1.8,0.7,3.1,1s2.5,0.7,3.3,1.1
				c0.8,0.4,1.4,0.9,1.7,1.5c0.4,0.6,0.5,1.3,0.5,2.2c0,1.3-0.5,2.4-1.6,3.2c-1.1,0.8-2.5,1.2-4.2,1.2c-1.9,0-3.4-0.4-4.5-1.3
				c-1.1-0.9-1.7-1.9-1.7-3.3h0.8c0.1,1.2,0.6,2.1,1.5,2.7c1,0.7,2.2,1,3.9,1c1.5,0,2.7-0.3,3.6-1
				C1751.3,445.5,1751.9,444.5,1751.9,443.5z"/>
		</g>
	</g>
	<g>
		
			<linearGradient id="SVGID_3_" gradientUnits="userSpaceOnUse" x1="890.1565" y1="407.0282" x2="890.1565" y2="164.9597" gradientTransform="matrix(1.8565 0 0 1.8565 -4.047797e-004 159.3522)">
			<stop  offset="0" style="stop-color:#ECECEE"/>
			<stop  offset="0.2413" style="stop-color:#F0F0F2"/>
			<stop  offset="1" style="stop-color:#F8F9FA"/>
		</linearGradient>
		<path fill="url(#SVGID_3_)" stroke="#E6E7E8" stroke-miterlimit="10" d="M2015.1,915h-724.9c-20.4,0-37.1-16.7-37.1-37.1V502.7
			c0-20.4,16.7-37.1,37.1-37.1H2015c20.4,0,37.1,16.7,37.1,37.1v375.2C2052.2,898.3,2035.5,915,2015.1,915z"/>
		<g>
			<g>
				<path fill="#FFDD55" d="M1633.5,690.1c0,0-1.3,8.3-1.5,16.9c-0.2,8.5,4.5,29.3,4.5,29.3l33.9,4.3c0,0,6.9-11.9,8.9-19.8
					c2-8.3,4.3-19.7,4.1-25.6c0-6.1-26.9-3.7-26.9-3.7l-16.7-0.6L1633.5,690.1z"/>
				<g>
					<g>
						<path fill="#F7C8B8" d="M1666.1,846.9L1666.1,846.9l8.9-54.8c0.6-3.5-2.6-7-7-7.8c-4.5-0.7-8.5,1.7-9.1,5.2l-8.9,54.8l0,0
							L1666.1,846.9z"/>
						<path fill="#D0D1D1" d="M1654.9,864.7L1654.9,864.7c-4.5-0.7-7.4-5-6.7-9.5l2.8-17.2l16.1,2.6l-2.8,17.2
							C1663.6,862.3,1659.4,865.4,1654.9,864.7z"/>
						
							<rect x="1649.3" y="840.1" transform="matrix(0.987 0.1607 -0.1607 0.987 157.869 -255.3267)" fill="#FDDC55" width="16.3" height="16.5"/>
						<path fill="#E73939" d="M1655.3,841.7l-4.8-0.7l0.6-3.7l0.9,0.2C1654.2,837.6,1655.7,839.6,1655.3,841.7L1655.3,841.7z"/>
						<path fill="#FDDC55" d="M1662,842.8l4.8,0.7l0.6-3.7l-0.9-0.2C1664.2,839.3,1662.2,840.6,1662,842.8L1662,842.8z"/>
						<path fill="#FFD426" d="M1659.2,838L1659.2,838c-1.9-0.4-3.5,0.9-3.9,2.8l-2.6,15.4l6.7,1.1l2.6-15.4
							C1662.3,840,1661,838.3,1659.2,838z"/>
						<path fill="#FFFFFF" d="M1656.4,855c-3-0.6-5.6,0-5.7,0.9v0.2c-0.6,3,1.5,5.7,4.5,6.3s5.7-1.5,6.3-4.5v-0.2
							C1661.8,856.7,1659.6,855.6,1656.4,855z"/>
						
							<line fill="none" stroke="#E3E4E3" stroke-width="2.5787" stroke-linecap="round" stroke-miterlimit="10" x1="1652.7" y1="852.6" x2="1661.4" y2="850.2"/>
						
							<line fill="none" stroke="#E3E4E3" stroke-width="2.5787" stroke-linecap="round" stroke-miterlimit="10" x1="1660.9" y1="853.9" x2="1653.4" y2="848.9"/>
						
							<line fill="none" stroke="#E3E4E3" stroke-width="2.5787" stroke-linecap="round" stroke-miterlimit="10" x1="1654" y1="845" x2="1662.7" y2="842.6"/>
						
							<line fill="none" stroke="#E3E4E3" stroke-width="2.5787" stroke-linecap="round" stroke-miterlimit="10" x1="1662" y1="846.3" x2="1654.6" y2="841.3"/>
						
							<line fill="none" stroke="#FFFFFF" stroke-width="2.5787" stroke-linecap="round" stroke-miterlimit="10" x1="1653.4" y1="848.7" x2="1662" y2="846.3"/>
						
							<line fill="none" stroke="#FFFFFF" stroke-width="2.5787" stroke-linecap="round" stroke-miterlimit="10" x1="1661.4" y1="850" x2="1654" y2="845"/>
						
							<line fill="none" stroke="#FFFFFF" stroke-width="2.5787" stroke-linecap="round" stroke-miterlimit="10" x1="1652.7" y1="852.6" x2="1660.9" y2="853.9"/>
					</g>
					<g>
						<path fill="#F7C8B8" d="M1657.7,844.6C1657.7,844.5,1657.7,844.5,1657.7,844.6l-7.2-55.2c-0.4-3.5-4.5-5.9-8.9-5.4
							s-7.8,3.9-7.2,7.6l7,55.2l0,0L1657.7,844.6z"/>
						<path fill="#D0D1D1" d="M1652,864.9L1652,864.9c-4.5,0.6-8.5-2.6-9.1-7l-2.2-17.4l16.3-2l2.2,17.4
							C1659.7,860,1656.6,864.1,1652,864.9z"/>
						
							<rect x="1641.9" y="840.3" transform="matrix(0.9917 -0.1287 0.1287 0.9917 -95.4851 219.4109)" fill="#FDDC55" width="16.3" height="16.5"/>
						<path fill="#FDDC55" d="M1645.7,842.6l-4.8,0.6l-0.6-3.9l0.9-0.2C1643.5,839.1,1645.6,840.6,1645.7,842.6L1645.7,842.6z"/>
						<path fill="#FDDC55" d="M1652.4,841.9l4.8-0.6l-0.6-3.9l-0.9,0.2C1653.8,837.8,1652.2,839.6,1652.4,841.9L1652.4,841.9z"/>
						<path fill="#FFD426" d="M1648.5,838L1648.5,838c-1.9,0.2-3.2,1.9-3,3.7l2,15.4l6.7-0.9l-2-15.4
							C1652,839.1,1650.4,837.8,1648.5,838z"/>
						<path fill="#FFFFFF" d="M1650.7,855.2c-3,0.4-5.4,1.5-5.2,2.4v0.2c0.4,3,3.2,5.2,6.1,4.8c3-0.4,5.2-3.2,4.8-6.1v-0.2
							C1656.4,855.2,1654,854.8,1650.7,855.2z"/>
						
							<line fill="none" stroke="#E3E4E3" stroke-width="2.5787" stroke-linecap="round" stroke-miterlimit="10" x1="1646.5" y1="853.9" x2="1654.2" y2="849.1"/>
						
							<line fill="none" stroke="#E3E4E3" stroke-width="2.5787" stroke-linecap="round" stroke-miterlimit="10" x1="1654.7" y1="852.8" x2="1646.1" y2="850.2"/>
						
							<line fill="none" stroke="#E3E4E3" stroke-width="2.5787" stroke-linecap="round" stroke-miterlimit="10" x1="1645.6" y1="846.3" x2="1653.3" y2="841.5"/>
						
							<line fill="none" stroke="#E3E4E3" stroke-width="2.5787" stroke-linecap="round" stroke-miterlimit="10" x1="1653.6" y1="845.2" x2="1645" y2="842.4"/>
						
							<line fill="none" stroke="#FFFFFF" stroke-width="2.5787" stroke-linecap="round" stroke-miterlimit="10" x1="1646.1" y1="850" x2="1653.6" y2="845.2"/>
						
							<line fill="none" stroke="#FFFFFF" stroke-width="2.5787" stroke-linecap="round" stroke-miterlimit="10" x1="1654.2" y1="848.9" x2="1645.6" y2="846.3"/>
						
							<line fill="none" stroke="#FFFFFF" stroke-width="2.5787" stroke-linecap="round" stroke-miterlimit="10" x1="1646.5" y1="853.9" x2="1654.7" y2="852.8"/>
					</g>
					<rect x="1645.9" y="719.9" fill="#F7C8B8" width="14.5" height="11.5"/>
					<path fill="#F7C8B8" d="M1663.3,791.9h-19.1c-3.3,0-6.1-3.7-6.1-8.2l-5.9-45.5c-0.2-5,3.5-7.8,8.3-10.2l7.8-3.3h10.8l7.8,3.3
						c4.8,2.8,8.2,4.5,8.3,10.2l-5.9,45.5C1669.4,788.2,1666.6,791.9,1663.3,791.9z"/>
					<g>
						<path fill="#F7C8B8" d="M1591.8,692.6L1591.8,692.6c2.6-2.6,7-2.6,9.6,0l39.5,40.1c2.6,2.6,2.6,7,0,9.6l0,0
							c-2.6,2.6-7,2.6-9.6,0l-39.5-40.1C1589,699.4,1589,695.2,1591.8,692.6z"/>
					</g>
					<g>
						<path fill="#F7C8B8" d="M1717,773.1L1717,773.1c2.4-3,1.9-7.2-1.1-9.6l-43.9-35c-3-2.4-7.2-1.9-9.6,1.1l0,0
							c-2.4,3-1.9,7.2,1.1,9.6l43.9,35C1710.4,776.7,1714.6,776.1,1717,773.1z"/>
					</g>
					<path fill="#FFFFFF" d="M1668.3,727.9l-2.6-1.1c-1.5,3-4.3,5.2-7.6,6.3c-1.3,0.7-4.8,1.5-8.7,0c-3.3-1.1-6.1-3.3-7.8-6.3
						l-2.6,1.1c-5,2.2-8.2,2.4-8,7.6l2.6,55h40.4l2.6-55C1676.3,729.7,1673.3,730.1,1668.3,727.9"/>
					<path fill="#F1F1F2" d="M1667.2,728.5c0-0.4-0.2-0.7-0.2-1.1l-1.3-0.6c-1.7,3.2-4.6,5.6-8.5,6.5c-1.1,0.4-2.2,0.6-3.5,0.6
						c-0.9,0-1.9-0.2-2.8-0.4c0,0,0,0-0.2,0l0,0c-4.1-0.7-7.4-3.3-9.1-6.7l-0.9,0.4c-0.4,0.7-0.6,1.5-0.6,2.2
						c0.2,2.4,2.2,4.1,4.5,3.9c0.7,0,1.3-0.2,1.9-0.6c0.4,2,2.2,3.7,4.5,3.5c1.3,0,2.2-0.7,3-1.5c0.7,0.7,2,1.1,3.2,1.1
						c1.9-0.2,3.5-1.5,3.9-3.3c0.6,0.4,1.3,0.4,2.2,0.4C1665.5,732.7,1667.3,730.7,1667.2,728.5"/>
					<path fill="#F1999C" d="M1676.4,773.7L1676.4,773.7L1676.4,773.7L1676.4,773.7z"/>
					<path fill="#F1999C" d="M1630.9,773.7L1630.9,773.7L1630.9,773.7L1630.9,773.7z"/>
					<g>
						<path fill="#F1999C" d="M1617.6,797.6c0,1.1,3.9,1.1,4.6,2.2c0.7,0.9-0.6,4.5,0.7,5.2c1.1,0.7,3.7-2,5.2-1.5
							c1.3,0.6,0.6,4.6,2,5.2c1.3,0.4,4.5-3.2,5.9-2.8s1.7,4.5,3.3,4.8c1.5,0.2,3.7-3.7,5.4-3.5c1.5,0.2,2.6,4.3,4.1,4.5
							c1.5,0,3.2-3.9,4.8-3.9c1.5,0,3.2,4.1,4.8,3.9c1.5,0,2.6-4.3,4.1-4.5s3.9,3.7,5.4,3.5s1.9-4.5,3.3-4.8s4.6,3.2,5.9,2.8
							c1.5-0.4,0.7-4.6,2-5.2c1.5-0.6,4.1,2.2,5.2,1.5c1.3-0.7,0-4.3,0.7-5.2c0.9-1.1,4.6-1.1,4.6-2.2l-15.2-20.2h-41.9
							L1617.6,797.6L1617.6,797.6L1617.6,797.6z"/>
					</g>
					<ellipse fill="#FFFFFF" cx="1653.6" cy="777.2" rx="20.8" ry="1.7"/>
					<g>
						<path fill="#E09081" d="M1661.4,720.5l-14.3-2.4l-0.6,3.3c1.7,2.2,3.9,3.7,6.5,4.3h0.2c2.6,0.4,5.2-0.2,7.6-1.7L1661.4,720.5z
							"/>
						<path fill="#FFDD55" d="M1654.7,719.5l-1.1-0.2c-13.4-2.4-22.3-15-20-28.4l0.2-0.7c2.2-13.4,15-22.3,28.4-19.8l1.1,0.2
							c13.4,2.4,22.3,15,20,28.4l-0.2,0.7C1680.9,712.8,1668.1,721.8,1654.7,719.5"/>
						<path fill="#F7C8B8" d="M1637.6,704.1l-4.5-0.7c-2.4-0.4-4.1-2.8-3.7-5.2c0.4-2.4,2.8-4.1,5.2-3.7l4.5,0.7
							c2.4,0.4,4.1,2.8,3.7,5.2C1642.4,702.8,1640,704.4,1637.6,704.1"/>
						<path fill="#E09081" d="M1635.4,697h-0.4c-1.3-0.2-2.6,0.4-2.8,1.1l-0.2,0.7c-0.2,0.9,0.9,1.9,2.2,2h0.4L1635.4,697z"/>
						<path fill="#F7C8B8" d="M1675.7,710.7l4.5,0.7c2.4,0.4,4.8-1.3,5.2-3.7c0.4-2.4-1.3-4.8-3.7-5.2l-4.5-0.7
							c-2.4-0.4-4.8,1.3-5.2,3.7C1671.6,708,1673.3,710.2,1675.7,710.7"/>
						<path fill="#E09081" d="M1680.1,704.8h0.4c1.3,0.2,2.4,1.1,2.2,2l-0.2,0.7c-0.2,0.9-1.5,1.5-2.8,1.1h-0.4L1680.1,704.8z"/>
						<path fill="#F7C8B8" d="M1653.6,724L1653.6,724c-12.2-2.2-20.6-13.9-18.5-26.1c2.2-12.2,13.9-20.6,26.1-18.4
							c12.2,2.2,20.6,13.9,18.5,26.1C1677.6,717.8,1666.1,726.2,1653.6,724"/>
						<path fill="#E19080" d="M1656.6,707c-1.1-0.2-2.2-0.9-2.6-1.7v0.2c-0.2,1.1,0.9,2.4,2.4,2.6c1.5,0.2,3-0.6,3.2-1.7v-0.2
							C1659,707,1657.9,707.2,1656.6,707"/>
						<path fill="#754548" d="M1667,705c1.1,0.2,2,0.6,2.8,0.9l0,0v-0.4c0.2-1.5-0.7-3-2.4-3.3c-1.5-0.2-3.2,0.7-3.3,2.4v0.4
							C1664.9,704.8,1665.9,704.8,1667,705"/>
						<path fill="#754548" d="M1648.9,701.8c1.1,0.2,2,0.6,2.8,0.9l0,0v-0.4c0.2-1.5-0.7-3-2.4-3.3c-1.5-0.2-3.2,0.7-3.3,2.4v0.4
							C1646.7,701.6,1647.8,701.6,1648.9,701.8"/>
						<path fill="#F5B0A4" d="M1647.2,706.3c-0.2,1.5-1.7,2.6-3.3,2.2c-1.5-0.2-2.6-1.7-2.2-3.3c0.2-1.5,1.7-2.6,3.3-2.2
							C1646.5,703.3,1647.6,704.8,1647.2,706.3"/>
						<path fill="#F5B0A4" d="M1671.1,710.4c-0.2,1.5-1.7,2.6-3.3,2.2c-1.5-0.2-2.6-1.7-2.2-3.3c0.2-1.5,1.7-2.6,3.3-2.2
							C1670.3,707.4,1671.4,708.9,1671.1,710.4"/>
						<path fill="#8A2D22" d="M1664.4,713l-8.3-1.5h-0.4l-8.3-1.5c0,0-1.5-0.2-1.1,1.3c0,0,0.9,5.6,8.3,7l0,0h0.2h0.2l0,0
							c7.6,1.1,10.2-3.7,10.2-3.7C1665.9,713.1,1664.4,713,1664.4,713"/>
						<path fill="#DA6766" d="M1655.1,715.2c-1.9-0.4-3.5,0.4-4.6,1.9c1.1,0.6,2.4,1.1,3.9,1.5l0,0h0.2h0.2l0,0c1.7,0.2,3,0.2,4.1,0
							C1658.4,716.9,1657,715.6,1655.1,715.2"/>
						<path fill="#FFFFFF" d="M1656,711.5h-0.3l-5.4-0.9c0.6,1.7,1.9,3,3.5,3.2l3.3,0.6c1.7,0.4,3.5-0.4,4.5-1.9L1656,711.5z"/>
					</g>
				</g>
				<path fill="#FFDD55" d="M1636.3,690.5c0,0,13.7,2.8,18.5-10.6c0,0,1.9,14.5,26.3,19.1l-4.8-15l-15.4-8.3l-10.8,1.9l-11.5,8.2
					L1636.3,690.5z"/>
				<circle fill="#FFFFFF" cx="1678.8" cy="714.1" r="1.3"/>
				<circle fill="#FFFFFF" cx="1633.3" cy="705.9" r="1.3"/>
				<g>
					<g>
						<path fill="#EFC92B" d="M1649.4,676.8c-2.8,1.1-4.3,3.5-3.9,4.3c0.4,0.7,3.5,1.1,6.3,0c2.8-1.1,4.3-3.5,3.9-4.3
							S1652.2,675.7,1649.4,676.8"/>
						<path fill="#FFFFFF" d="M1652.4,679c-3,1.5-6.1,0.9-6.5,0.2c-0.4-0.7,1.3-3.5,4.3-5s6.1-0.9,6.5-0.2
							C1657.2,674.9,1655.5,677.7,1652.4,679"/>
					</g>
					<g>
						<path fill="#EFC92B" d="M1662,682.4c1.9,2.4,4.5,3.3,5,2.8s0.2-3.7-1.7-6.1c-1.9-2.4-4.5-3.3-5-2.8
							C1659.7,676.6,1660.1,679.8,1662,682.4"/>
						<path fill="#FFFFFF" d="M1666.4,677.7c1.9,2.6,1.9,5.9,1.3,6.3c-0.7,0.6-3.7-0.7-5.6-3.3s-1.9-5.9-1.3-6.3
							C1661.6,673.8,1664.6,674.9,1666.4,677.7"/>
					</g>
					<g>
						<path fill="#EFC92B" d="M1670.1,681.6c0.7,3,2.8,4.8,3.5,4.6c0.7-0.2,1.7-3.3,1.1-6.3c-0.7-3-2.8-4.8-3.5-4.6
							C1670.5,675.7,1669.6,678.7,1670.1,681.6"/>
						<path fill="#FFFFFF" d="M1676.1,679.2c0.6,3.2-0.6,6.1-1.3,6.3c-0.7,0.2-3.2-2-3.7-5.4c-0.6-3.2,0.6-6.1,1.3-6.3
							C1673.3,673.6,1675.5,676.1,1676.1,679.2"/>
					</g>
					<g>
						<path fill="#EFC92B" d="M1677.5,690.5c0.9,3,3.3,4.5,4.1,4.1c0.8-0.4,1.3-3.5,0.4-6.3c-0.9-3-3.3-4.5-4.1-4.1
							C1677.2,684.6,1676.4,687.7,1677.5,690.5"/>
						<path fill="#FFFFFF" d="M1683.1,687.4c0.9,3.2,0.2,6.1-0.7,6.5c-0.7,0.2-3.3-1.7-4.3-4.8c-0.9-3.2-0.2-6.1,0.7-6.5
							C1679.6,682.4,1682.2,684.4,1683.1,687.4"/>
					</g>
					<g>
						<path fill="#EFC92B" d="M1639.2,679.2c-0.9,3-0.2,5.6,0.6,5.7c0.7,0.2,3.2-1.9,4.3-4.8c0.9-3,0.2-5.6-0.6-5.7
							C1642.8,674.2,1640.2,676.2,1639.2,679.2"/>
						<path fill="#FFFFFF" d="M1644.1,679.2c-1.1,3.2-3.7,5-4.5,4.6c-0.8-0.4-1.5-3.3-0.4-6.5s3.7-5,4.5-4.6
							C1644.4,672.9,1645.2,676.1,1644.1,679.2"/>
					</g>
				</g>
			</g>
			<g>
				<path fill="#E09081" d="M1744.6,703.9h-0.4c-1.5,0-2.6,0.7-2.6,1.7v0.7c0,0.9,1.1,1.7,2.6,1.7h0.4V703.9z"/>
				<line fill="none" x1="1743.3" y1="751.1" x2="1743.3" y2="771.8"/>
				<g>
					<path fill="#404041" d="M1755.3,775.9c-5.2,0-9.3,2.4-9.3,5.7l1.1,70.9v0.2c0,0.9,0.9,1.7,2,1.7h13.7c1.1,0,2-0.7,2-1.7
						c0,0,0,0,0-0.2l2.2-70.9C1766.8,778.5,1760.7,775.9,1755.3,775.9z"/>
					<path fill="#F7C8B8" d="M1744.2,860.4L1744.2,860.4c0-2.4,2-4.3,4.3-4.3h13.7c2.4,0,4.3,2,4.3,4.3c0,2.4-2,4.3-4.3,4.3h-13.7
						C1746.1,864.9,1744.2,862.8,1744.2,860.4"/>
					<path fill="#FFFFFF" d="M1757.2,851.7h-3.5c-5.4,0-9.6,4.3-9.6,9.6v1.5v0.9l0,0c0,0.6,0.4,0.9,0.9,0.9h21
						c0.6,0,0.9-0.4,0.9-0.9l0,0v-0.9v-1.5C1766.8,855.9,1762.4,851.7,1757.2,851.7"/>
					<path fill="#F0EFEF" d="M1744,861.7v1.1v0.9l0,0c0,0.6,0.4,0.9,0.9,0.9h21c0.6,0,0.9-0.4,0.9-0.9l0,0v-0.9v-1.1H1744z"/>
					<path fill="#404041" d="M1779.6,775.9c-5.2,0-11.5,2.4-11.5,5.7l2.2,70.9v0.2c0,0.9,0.9,1.7,2,1.7h13.5c1.1,0,2-0.7,2-1.7
						c0,0,0,0,0-0.2l1.1-70.9C1788.9,778.5,1785,775.9,1779.6,775.9z"/>
					<path fill="#F7C8B8" d="M1768.5,860.4L1768.5,860.4c0-2.4,2-4.3,4.3-4.3h13.7c2.4,0,4.3,2,4.3,4.3c0,2.4-2,4.3-4.3,4.3h-13.7
						C1770.4,864.9,1768.5,862.8,1768.5,860.4"/>
					<path fill="#FFFFFF" d="M1781.5,851.7h-3.5c-5.4,0-9.6,4.3-9.6,9.6v1.5v0.9l0,0c0,0.6,0.4,0.9,0.9,0.9h21
						c0.6,0,0.9-0.4,0.9-0.9l0,0v-0.9v-1.5C1791.1,855.9,1786.7,851.7,1781.5,851.7"/>
					<path fill="#F0EFEF" d="M1768.3,861.7v1.1v0.9l0,0c0,0.6,0.4,0.9,0.9,0.9h21c0.6,0,0.9-0.4,0.9-0.9l0,0v-0.9v-1.1H1768.3z"/>
					<rect x="1759.8" y="723.6" fill="#F7C8B8" width="14.6" height="11.7"/>
					<path fill="#F7C8B8" d="M1781.5,798h-27.8c-4.8,0-8.9-5.2-8.9-11.3v-44.6c-0.2-5.2,3.7-8,8.9-10.2l8.2-3.3h11.3l8.2,3.3
						c5.2,2.8,8.7,4.6,8.9,10.2v44.6C1790.2,792.8,1786.3,798,1781.5,798"/>
					<path fill="#E09081" d="M1774.5,722.7h-14.7v3.3c2,1.9,4.6,3,7.2,3h0.2c2.6,0,5.2-1.1,7.2-3L1774.5,722.7L1774.5,722.7z"/>
					<path fill="#404041" d="M1767.6,807.9L1767.6,807.9c-11.9,0-21.7-12.1-21.7-26.9v-9c0-14.8,9.8-26.9,21.7-26.9
						s21.7,12.1,21.7,26.9v8.9C1789.3,795.8,1779.5,807.9,1767.6,807.9"/>
					<path fill="#545454" d="M1765.4,806.1c-4.5,0-8.7-1.3-12.4-3.5c4.1,3.3,9.1,5.4,14.5,5.4s10.6-2,14.5-5.4
						c-3.7,2.2-8,3.5-12.4,3.5H1765.4z"/>
					<g>
						<path fill="#FFFFFF" d="M1747.7,754.6l-10.2-3.9c-1.1-0.4-1.7-1.7-1.3-2.8l4.1-9.6c1.5-3.9,5.7-5.9,9.6-4.5l0,0
							c3.9,1.5,5.9,5.7,4.5,9.6l-4.1,9.6C1750.2,754.4,1748.9,755,1747.7,754.6z"/>
					</g>
					<g>
						<path fill="#F7C8B8" d="M1810.1,801L1810.1,801c3.5-1.3,5.4-5.2,3.9-8.7l-19.9-52.6c-1.3-3.5-5.2-5.4-8.7-3.9l0,0
							c-3.5,1.3-5.4,5.2-3.9,8.7l19.8,52.6C1802.5,800.6,1806.5,802.3,1810.1,801z"/>
						<path fill="#EFEFEF" d="M1801.7,794.3l10.2-3.9c1.1-0.4,1.7-1.7,1.3-2.8l-18.9-49.4c-1.5-3.9-5.7-5.9-9.6-4.5l0,0
							c-3.9,1.5-5.9,5.7-4.5,9.6l18.9,49.4C1799.5,794.1,1800.8,794.7,1801.7,794.3z"/>
					</g>
					<path fill="#A1CBDB" d="M1782.4,731.4l-3.9-1.3c-2.6,4.1-6.5,6.7-10.9,6.7c-4.5,0-8.3-2.6-10.9-6.7l-3.9,1.3
						c-5,2-8.3,2-8.2,6.5v57.6h46.1v-57.6C1790.4,732.9,1787.6,733.8,1782.4,731.4"/>
					<path fill="#723D25" d="M1775.9,714.4h-16.7c-8.3,0-15-6.9-15-15v-2.6c0-8.3,6.9-15,15-15h16.7c8.3,0,15,6.9,15,15v2.6
						C1791,707.6,1784.1,714.4,1775.9,714.4"/>
					<ellipse fill="#723D25" cx="1767.4" cy="699.1" rx="24.3" ry="26"/>
					<path fill="#F7C8B8" d="M1767.4,727.5L1767.4,727.5c-12.6,0-22.8-10.2-22.8-22.8s10.2-22.8,22.8-22.8s22.8,10.2,22.8,22.8
						S1780,727.5,1767.4,727.5"/>
					<path fill="#F7C8B8" d="M1748.1,710.5h-4.6c-2.6,0-4.6-2-4.6-4.6s2-4.6,4.6-4.6h4.6c2.6,0,4.6,2,4.6,4.6
						S1750.5,710.5,1748.1,710.5"/>
					<path fill="#F7C8B8" d="M1787.1,710.5h4.6c2.6,0,4.6-2,4.6-4.6s-2-4.6-4.6-4.6h-4.6c-2.6,0-4.6,2-4.6,4.6
						S1784.5,710.5,1787.1,710.5"/>
					<path fill="#723D25" d="M1783,686.1c0,0-1.1,5.4,2,8.7c3.3,3.3,3.7,10.8,3.7,10.8s2-1.7,1.7-5.9
						C1789.8,695.2,1788,688.1,1783,686.1z"/>
					<path fill="#723D25" d="M1751.8,686.1c0,0,1.1,5.4-2,8.7c-3.3,3.3-3.7,10.8-3.7,10.8s-2-1.7-1.7-5.9
						C1745,695.2,1746.8,688.1,1751.8,686.1z"/>
					<path fill="#E09081" d="M1790.4,703.9h0.4c1.5,0,2.6,0.7,2.6,1.7v0.7c0,0.9-1.1,1.7-2.6,1.7h-0.4V703.9z"/>
					<path fill="#8A2D22" d="M1776.5,714.6h-8.5h-0.6h-8.5c0,0-1.5,0-0.9,1.7c0,0,1.9,5.4,9.5,5.6l0,0h0.2h0.2l0,0
						c7.6-0.2,9.5-5.6,9.5-5.6C1777.8,714.6,1776.5,714.6,1776.5,714.6"/>
					<path fill="#DA6766" d="M1767.6,718.6c-1.9,0-3.5,1.1-4.5,2.6c1.1,0.4,2.6,0.7,4.1,0.7l0,0h0.2h0.2l0,0c1.7,0,3-0.4,4.1-0.7
						C1771.1,719.5,1769.4,718.6,1767.6,718.6"/>
					<path fill="#E19080" d="M1767.4,710.2c-1.3,0-2.2-0.6-2.8-1.3v0.2c0,1.3,1.3,2.2,2.8,2.2s2.8-0.9,2.8-2.2v-0.2
						C1769.6,709.6,1768.5,710.2,1767.4,710.2"/>
					<path fill="#754548" d="M1757.6,705.2c1.1,0,2,0.2,3,0.6v-0.4c0-1.7-1.3-3-3-3c-1.7,0-3,1.3-3,3v0.4l0,0
						C1755.3,705.4,1756.5,705.2,1757.6,705.2"/>
					<path fill="#754548" d="M1777.4,705.2c1.1,0,2,0.2,3,0.6v-0.4c0-1.7-1.3-3-3-3c-1.7,0-3,1.3-3,3v0.4
						C1775.2,705.4,1776.3,705.2,1777.4,705.2"/>
					<path fill="#F5B0A4" d="M1754.2,710c0,1.5-1.3,2.8-2.8,2.8c-1.7,0-2.8-1.3-2.8-2.8s1.3-2.8,2.8-2.8
						C1752.9,707,1754.2,708.3,1754.2,710"/>
					<path fill="#F5B0A4" d="M1786.3,710c0,1.5-1.3,2.8-2.8,2.8c-1.7,0-2.8-1.3-2.8-2.8s1.3-2.8,2.8-2.8
						C1785,707,1786.3,708.3,1786.3,710"/>
					<path fill="#FFFFFF" d="M1767.8,714.6h-0.6h-5.6c0.7,1.5,2.2,2.6,4.1,2.6h3.3c1.9,0,3.3-1.1,4.1-2.6H1767.8z"/>
					<g>
						<g>
							<polygon opacity="0.3" fill="#FFFFFF" enable-background="new    " points="1777.4,711.5 1774.5,711.5 1778.9,698.9 
								1781.9,698.9 							"/>
							<path fill="none" stroke="#6B6B6B" stroke-width="2.6714" stroke-miterlimit="10" d="M1785.2,707.8c0,2-1.7,3.7-3.7,3.7h-6.5
								c-2,0-3.3-1.7-3.7-3.7l-0.9-5.2c0-2,1.7-3.7,3.7-3.7h7.6c2,0,3.7,1.7,3.7,3.7L1785.2,707.8z"/>
						</g>
						<g>
							<polygon opacity="0.3" fill="#FFFFFF" enable-background="new    " points="1757.4,711.5 1760.4,711.5 1755.9,698.9 
								1752.9,698.9 							"/>
							<path fill="none" stroke="#6B6B6B" stroke-width="2.6714" stroke-miterlimit="10" d="M1749.6,707.8c0,2,1.7,3.7,3.7,3.7h6.5
								c2,0,3.3-1.7,3.7-3.7l0.9-5.2c0-2-1.7-3.7-3.7-3.7h-7.6c-2,0-3.7,1.7-3.7,3.7L1749.6,707.8z"/>
						</g>
						
							<line fill="none" stroke="#6B6B6B" stroke-width="2.5623" stroke-miterlimit="10" x1="1763.5" y1="704.2" x2="1771.3" y2="704.2"/>
						
							<line fill="none" stroke="#6B6B6B" stroke-width="2.6714" stroke-miterlimit="10" x1="1785.4" y1="702.6" x2="1791.9" y2="700.9"/>
						
							<line fill="none" stroke="#6B6B6B" stroke-width="2.6714" stroke-miterlimit="10" x1="1749.2" y1="702.6" x2="1742.9" y2="700.9"/>
					</g>
					<g>
						<path fill="#F6F8F9" d="M1759.1,742.7c0,0,2.6,13.5,2.8,20.4c0.2,6.9,0,72.2,0,72.2s-18.5-0.2-21.7-2.2c-3.2-2-2.2-4.6-2-8.3
							c0.2-3.7,3.9-65,3.9-65l2.2-23.4L1759.1,742.7z"/>
						<path fill="#F6F8F9" d="M1756.1,729.9c0,0-5.4,2-7.6,2.8c-2.2,0.7-5.7,0.7-4.8,8.5s10.9,0.4,10.9,0.4l1.1-10.2L1756.1,729.9z"
							/>
					</g>
					<path fill="#D0D2D3" d="M1740.4,780.4c0,0,6.7,13,21.3,12.4v-12.1l-21.1-2.8L1740.4,780.4z"/>
					<path fill="#A1CBDB" d="M1774.5,729.9c0,0-1.1,3-7.2,3.3c-6.1-0.4-7.2-3.3-7.2-3.3l-4.8,2.4v13.9h12.1h12.1v-13.9L1774.5,729.9
						z"/>
					<polygon fill="#F6F8F9" points="1757.4,734.9 1759.6,746.6 1753.3,746.6 1753.3,730.9 1756.1,729.9 1757.8,729.2 					"/>
					<path fill="#376DB4" d="M1769.8,736.2l-1.5-3.2l-1.1,0.2l-1.1-0.2l-1.5,3.2c0,0,0.2,2,1.3,2.6l-1.3,7.8h2.6h2.6l-1.3-7.8
						C1769.6,738.3,1769.8,736.2,1769.8,736.2"/>
					<polygon fill="#F6F8F9" points="1776.9,734.9 1774.6,746.6 1780.9,746.6 1780.9,730.9 1778.2,729.9 1776.3,729.2 					"/>
					<path fill="#BCE0ED" d="M1766.1,733.3l-2.6,5c0,0-3-2-5-4.3c0,0-1.7-1.7-0.7-3.3l2-2C1759.8,728.5,1760.5,732.2,1766.1,733.3"
						/>
					<polygon fill="#DCDCE0" points="1758.5,733.8 1758.1,737.5 1756.8,738.8 1756.5,735.9 					"/>
					<path fill="#ADAFAF" d="M1753.1,747.9c0.2-5.6,0.6-13.4,5.2-17.1c0.9-0.7-0.4-2-1.3-1.3c-5,4.1-5.6,12.4-5.7,18.4
						C1751.3,749,1753.1,749,1753.1,747.9"/>
					<path fill="#F5F6F7" d="M1758.5,730.5c0,0-0.9,2,0,3.3c0,0-1.7,3-1.7,5c0,0-0.7,0.4-0.7-0.7c0,0-0.9-4.6,0-7c0,0,0.7-1.3,2-2.4
						l1.7-0.9v0.7L1758.5,730.5z"/>
					<path fill="#BCE0ED" d="M1768.1,733.3l2.6,5c0,0,3-2,5-4.3c0,0,1.7-1.7,0.7-3.3l-2-2C1774.5,728.5,1773.9,732.2,1768.1,733.3"
						/>
					<polygon fill="#DCDCE0" points="1775.9,733.8 1776.1,737.5 1777.6,738.8 1777.8,735.9 					"/>
					<path fill="#F6F8F9" d="M1775.2,742.7c0,0-2.6,13.5-2.8,20.4c-0.2,6.9,0,72.2,0,72.2s18.5-0.2,21.7-2.2c3.2-2.2,2.2-4.6,2-8.3
						c-0.2-3.7-3.9-65-3.9-65l-2.2-23.4L1775.2,742.7z"/>
					<path fill="#376DB4" d="M1764.8,745c0,0-1.5,10.9-1.7,11.7c-0.2,0.7,2.8,3.9,3.3,4.5c0.6,0.6,3.9-3.2,4.3-3.9
						c0.2-0.6,0.4-1.1,0-3.2c-0.2-1.1-1.1-8.5-1.1-8.5L1764.8,745z"/>
					<path fill="#F6F8F9" d="M1778.2,729.9c0,0,5.4,2,7.6,2.8c2.2,0.8,5.7,0.7,4.8,8.5s-10.9,0.4-10.9,0.4l-1.1-10.2L1778.2,729.9z"
						/>
					<path fill="#D0D2D3" d="M1746.8,742c0,0,3.9,13.4,8.3,17.2c4.5,3.9-1.1,4.6-1.1,4.6l-6.1-4.6L1746.8,742z"/>
					<g>
						<path fill="#ADAFAF" d="M1776.1,730.9c3.5,2.2,3.2,6.7,3.3,10.4c0,1.1,1.9,1.1,1.9,0c0-4.5,0-9.3-4.1-11.9
							C1775.9,728.8,1775.2,730.3,1776.1,730.9"/>
						<path fill="#ADAFAF" d="M1776.1,754.8c-1.3,0-0.9-1.1-0.7-1.9c0.2-1.3,0.6-2.6,0.7-3.9c0.2-1.1,0.4-2.4,0.6-3.5
							c0-0.4,0.2-0.9,0.4-1.5c0.7-1.5,3-1.9,4.5-1.7c1.9,0.4,2.6,1.5,3,3.2c0.2,1.3,0.6,2.6,0.7,4.1c0.2,1.3,1.9,5.2-0.6,5.2
							c-1.1,0-1.1,1.7,0,1.9c2.8,0,3.3-2,2.8-4.3c-0.6-2.6-0.9-5.4-1.7-8c-0.9-4.3-7.6-4.8-10-1.7c-0.7,0.9-0.7,2-1.1,3.3
							c-0.4,1.7-0.6,3.3-0.9,4.8c-0.4,2.4-1.1,5.6,2.2,5.7C1777.2,756.6,1777.2,754.8,1776.1,754.8"/>
					</g>
					<g>
						<path fill="#6D6E70" d="M1776.9,775.9l-24.1-4.6c-1.1-0.2-1.7-1.3-1.5-2.2l5.2-26.7c0.2-1.1,1.3-1.7,2.2-1.5l24.1,4.6
							c1.1,0.2,1.7,1.3,1.5,2.2l-5.2,26.7C1779.1,775.4,1778,776.1,1776.9,775.9"/>
						<path fill="#929497" d="M1758.3,744.6l23.4,4.6c3.9,0.7,4.8-3.7,0.9-4.5l-23.4-4.6C1755.3,739.4,1754.4,743.8,1758.3,744.6"/>
						<path fill="#F6F8F9" d="M1774.1,756.8l-11.5-2.2c-0.7-0.2-1.1-0.7-1.1-1.5l0.2-1.3c0.2-0.7,0.7-1.1,1.5-1.1l11.5,2.2
							c0.7,0.2,1.1,0.7,1.1,1.5l-0.2,1.3C1775.4,756.6,1774.8,757,1774.1,756.8"/>
					</g>
					<path fill="#F7C8B8" d="M1781.5,772.2l-1.9,0.4l2.4,13.7l1.9-0.4c3.5-0.6,5.9-4.3,5.2-8
						C1788.5,774.1,1785.2,771.5,1781.5,772.2"/>
					<path fill="#F6F8F9" d="M1733.7,751.8c1.1-10.2,9.1-16.9,9.1-16.9l2.4,1.5l3,10.6c0.9,3.3,3.2,10.6,4.5,12.8
						c4.3,7,28,10.8,28,10.8c0,4.6,0.9,6.7,2.8,16.9c0,0-28.9,4.6-36.5-1.1C1731.7,774.4,1733.7,751.8,1733.7,751.8"/>
					<path fill="#F5F6F7" d="M1775.9,730.5c0,0,0.9,2,0,3.3c0,0,1.7,3,1.7,5c0,0,0.7,0.4,0.7-0.7c0,0,0.9-4.6,0-7c0,0-0.7-1.3-2-2.4
						l-1.7-0.9v0.7L1775.9,730.5z"/>
				</g>
				<g>
					<path fill="#723D25" d="M1742.7,701.3v-5.6c0-13.7,10.9-22.8,24.5-22.8c13.5,0,24.5,9.1,24.5,22.8v5.6l-2.6,0.4l-1.3-7.2
						l-21.1-8.2l-20.8,8l-0.7,7.2L1742.7,701.3z"/>
					<polygon fill="#723D25" points="1788.9,694.4 1776.3,694.4 1771.9,690.5 1771.5,694.4 1745.7,694.2 1751.5,682 1784.6,682 
											"/>
					<polygon fill="#723D25" points="1767,672.9 1760.9,670.1 1762.8,674.4 					"/>
					<polygon fill="#723D25" points="1769.4,673.5 1769.4,671 1764.6,673.5 					"/>
				</g>
			</g>
			<g>
				<path fill="#044668" d="M1532,775.9c-5.2,0-9.3,2.4-9.3,5.7l1.1,70.9v0.2c0,0.9,0.9,1.7,2,1.7h13.5c1.1,0,2-0.7,2-1.7
					c0,0,0,0,0-0.2l2.2-70.9C1543.5,778.5,1537.3,775.9,1532,775.9z"/>
				<path fill="#F7C8B8" d="M1520.8,860.4L1520.8,860.4c0-2.4,2-4.3,4.3-4.3h13.7c2.4,0,4.3,2,4.3,4.3c0,2.4-2,4.3-4.3,4.3h-13.7
					C1522.7,864.9,1520.8,862.8,1520.8,860.4"/>
				<path fill="#212120" d="M1533.8,851.7h-3.5c-5.4,0-9.6,4.3-9.6,9.6v1.5v0.9l0,0c0,0.6,0.4,0.9,0.9,0.9h21c0.6,0,0.9-0.4,0.9-0.9
					l0,0v-0.9v-1.5C1543.5,855.9,1539,851.7,1533.8,851.7"/>
				<path fill="#404041" d="M1520.7,861.7v1.1v0.9l0,0c0,0.6,0.4,0.9,0.9,0.9h21c0.6,0,0.9-0.4,0.9-0.9l0,0v-0.9v-1.1H1520.7z"/>
				<path fill="#044668" d="M1556.3,775.9c-5.2,0-11.5,2.4-11.5,5.7l2.2,70.9v0.2c0,0.9,0.9,1.7,2,1.7h13.5c1.1,0,2-0.7,2-1.7
					c0,0,0,0,0-0.2l1.1-70.9C1565.6,778.5,1561.6,775.9,1556.3,775.9z"/>
				<path fill="#F7C8B8" d="M1545.1,860.4L1545.1,860.4c0-2.4,2-4.3,4.3-4.3h13.7c2.4,0,4.3,2,4.3,4.3c0,2.4-2,4.3-4.3,4.3h-13.7
					C1547.2,864.9,1545.1,862.8,1545.1,860.4"/>
				<path fill="#212120" d="M1558.1,851.7h-3.5c-5.4,0-9.6,4.3-9.6,9.6v1.5v0.9l0,0c0,0.6,0.4,0.9,0.9,0.9h21c0.6,0,0.9-0.4,0.9-0.9
					l0,0v-0.9v-1.5C1567.9,855.9,1563.3,851.7,1558.1,851.7"/>
				<path fill="#404041" d="M1544.9,861.7v1.1v0.9l0,0c0,0.6,0.4,0.9,0.9,0.9h21c0.6,0,0.9-0.4,0.9-0.9l0,0v-0.9v-1.1H1544.9z"/>
				<rect x="1536.4" y="723.6" fill="#F7C8B8" width="14.6" height="11.7"/>
				<path fill="#F7C8B8" d="M1558.1,798h-27.8c-4.8,0-8.9-5.2-8.9-11.3v-44.6c-0.2-5.2,3.7-8,8.9-10.2l8.2-3.3h11.3l8.2,3.3
					c5.2,2.8,8.7,4.6,8.9,10.2v44.6C1566.9,792.8,1562.9,798,1558.1,798"/>
				<polygon fill="#002C3F" points="1543.1,735.5 1543.3,736.8 1539.9,737.5 1538.6,736.1 1540.3,734 				"/>
				<polygon fill="#002C3F" points="1544.9,735.5 1544.8,736.8 1548.1,737.5 1549.6,736.1 1547.7,734 				"/>
				<path fill="#E09081" d="M1551.1,722.7h-14.6v3.3c2,1.9,4.6,3,7.2,3h0.2c2.6,0,5.2-1.1,7.2-3V722.7L1551.1,722.7z"/>
				<path fill="#044668" d="M1544.2,807.9L1544.2,807.9c-11.9,0-21.7-5.2-21.7-26.9v-9c0-14.8,9.8-26.9,21.7-26.9
					s21.7,12.1,21.7,26.9v8.9C1566,804.7,1556.1,807.9,1544.2,807.9"/>
				<path fill="#013951" d="M1542,806.1c-4.5,0-8.7-1.3-12.4-3.5c4.1,3.3,9.1,5.4,14.5,5.4s10.6-2,14.5-5.4c-3.7,2.2-8,3.5-12.4,3.5
					H1542z"/>
				<g>
					<path fill="#F7C8B8" d="M1501.4,801L1501.4,801c-3.5-1.3-5.4-5.2-3.9-8.7l19.8-52.6c1.3-3.5,5.2-5.4,8.7-3.9l0,0
						c3.5,1.3,5.4,5.2,3.9,8.7l-19.7,52.6C1509,800.6,1504.9,802.3,1501.4,801z"/>
					<path fill="#044668" d="M1509.7,795.2l-10.2-3.9c-1.1-0.4-1.7-1.7-1.3-2.8l18.7-50.4c1.5-3.9,5.7-5.9,9.6-4.5l0,0
						c3.9,1.5,5.9,5.7,4.5,9.6l-18.7,50.4C1511.9,795,1510.8,795.6,1509.7,795.2z"/>
					<polygon fill="#013448" points="1521.4,760.3 1512.5,793.4 1521.4,770 					"/>
				</g>
				<g>
					<path fill="#F7C8B8" d="M1586.8,801L1586.8,801c3.5-1.3,5.4-5.2,3.9-8.7l-19.9-52.6c-1.3-3.5-5.2-5.4-8.7-3.9l0,0
						c-3.5,1.3-5.4,5.2-3.9,8.7l19.8,52.6C1579.4,800.6,1583.2,802.3,1586.8,801z"/>
					<path fill="#044668" d="M1578.6,795.2l10.2-3.9c1.1-0.4,1.7-1.7,1.3-2.8l-18.9-50.3c-1.5-3.9-5.7-5.9-9.6-4.5l0,0
						c-3.9,1.5-5.9,5.7-4.5,9.6l18.9,50.4C1576.2,795,1577.5,795.6,1578.6,795.2z"/>
					<polygon fill="#013448" points="1567.1,761.1 1574.3,790 1567.1,770.7 					"/>
				</g>
				<path fill="#044668" d="M1558.9,731.4l-5.7-2.2c-1.3,2-0.9,4.5-2.8,5.6c-1.9,1.1-4.1,1.9-6.3,1.9c-4.5,0-8.3-2.6-10.9-6.7
					l-3.9,1.3c-5,2-8.3,2-8.2,6.5v57.6h45.9v-57.6C1566.9,732.9,1564.1,733.8,1558.9,731.4"/>
				<path fill="#723D25" d="M1552.5,714.4h-16.7c-8.3,0-15-6.9-15-15v-2.6c0-8.3,6.9-15,15-15h16.7c8.3,0,15,6.9,15,15v2.6
					C1567.7,707.6,1560.7,714.4,1552.5,714.4"/>
				<ellipse fill="#7A474D" cx="1544" cy="699.1" rx="24.3" ry="26"/>
				<path fill="#F7C8B8" d="M1544,727.5L1544,727.5c-12.6,0-22.8-10.2-22.8-22.8s10.2-22.8,22.8-22.8s22.8,10.2,22.8,22.8
					C1566.9,717.3,1556.6,727.5,1544,727.5"/>
				<path fill="#7A474D" d="M1526.4,694.8c0,0,10-1.9,35.4,0l3.2-3.2l-10.4-5.9h-27.1C1527.5,685.7,1519.4,687.4,1526.4,694.8z"/>
				<path fill="#F7C8B8" d="M1524.7,710.5h-4.6c-2.6,0-4.6-2-4.6-4.6s2-4.6,4.6-4.6h4.6c2.6,0,4.6,2,4.6,4.6
					S1527.3,710.5,1524.7,710.5"/>
				<path fill="#E09081" d="M1521.4,703.9h-0.4c-1.5,0-2.6,0.7-2.6,1.7v0.7c0,0.9,1.1,1.7,2.6,1.7h0.4V703.9z"/>
				<path fill="#F7C8B8" d="M1563.8,710.5h4.6c2.6,0,4.6-2,4.6-4.6s-2-4.6-4.6-4.6h-4.6c-2.6,0-4.6,2-4.6,4.6
					C1559.1,708.5,1561.1,710.5,1563.8,710.5"/>
				<path fill="#7A474D" d="M1559.6,686.1c0,0-1.1,5.4,2,8.7c3.3,3.3,3.7,10.8,3.7,10.8s2-1.7,1.7-5.9
					C1566.6,695.2,1564.7,688.1,1559.6,686.1z"/>
				<path fill="#7A474D" d="M1528.4,686.1c0,0,1.1,5.4-2,8.7c-3.3,3.3-3.7,10.8-3.7,10.8s-2-1.7-1.7-5.9
					C1521.6,695.2,1523.4,688.1,1528.4,686.1z"/>
				<path fill="#E09081" d="M1567.1,703.9h0.4c1.5,0,2.6,0.7,2.6,1.7v0.7c0,0.9-1.1,1.7-2.6,1.7h-0.4V703.9z"/>
				<path fill="#8A2D22" d="M1553.1,714.6h-8.5h-0.6h-8.5c0,0-1.5,0-0.9,1.7c0,0,1.9,5.4,9.5,5.6l0,0h0.2h0.2l0,0
					c7.6-0.2,9.5-5.6,9.5-5.6C1554.6,714.6,1553.1,714.6,1553.1,714.6"/>
				<path fill="#DA6766" d="M1544.2,718.6c-1.9,0-3.5,1.1-4.5,2.6c1.1,0.4,2.6,0.7,4.1,0.7l0,0h0.2h0.2l0,0c1.7,0,3-0.4,4.1-0.7
					C1547.7,719.5,1546.2,718.6,1544.2,718.6"/>
				<path fill="#E19080" d="M1544,710.2c-1.3,0-2.2-0.6-2.8-1.3v0.2c0,1.3,1.3,2.2,2.8,2.2s2.8-0.9,2.8-2.2v-0.2
					C1546.2,709.6,1545.3,710.2,1544,710.2"/>
				<path fill="#754548" d="M1534.2,705.2c1.1,0,2,0.2,3,0.6v-0.4c0-1.7-1.3-3-3-3c-1.7,0-3,1.3-3,3v0.4l0,0
					C1532.1,705.4,1533.1,705.2,1534.2,705.2"/>
				<path fill="#754548" d="M1554,705.2c1.1,0,2,0.2,3,0.6v-0.4c0-1.7-1.3-3-3-3c-1.7,0-3,1.3-3,3v0.4
					C1551.8,705.4,1552.9,705.2,1554,705.2"/>
				<path fill="#F5B0A4" d="M1530.8,710c0,1.5-1.3,2.8-2.8,2.8c-1.7,0-2.8-1.3-2.8-2.8s1.3-2.8,2.8-2.8
					C1529.6,707,1530.8,708.3,1530.8,710"/>
				<path fill="#F5B0A4" d="M1562.9,710c0,1.5-1.3,2.8-2.8,2.8c-1.7,0-2.8-1.3-2.8-2.8s1.3-2.8,2.8-2.8
					C1561.6,707,1562.9,708.3,1562.9,710"/>
				<path fill="#FFFFFF" d="M1544.4,714.6h-0.6h-5.6c0.7,1.5,2.2,2.6,4.1,2.6h3.3c1.9,0,3.3-1.1,4.1-2.6H1544.4z"/>
				<polygon fill="#08638C" points="1543.1,735.5 1536.4,728.5 1532.7,730.1 1536.8,739.8 1541,734.9 				"/>
				<polygon fill="#08638C" points="1544.9,735.5 1551.1,728.5 1555.1,729.9 1551.2,739.8 1547,734.9 				"/>
				<g>
					<polygon fill="#212120" points="1544,791.1 1544,796.7 1521.4,795.4 1521.2,791.1 					"/>
					<polygon fill="#212120" points="1544,791.1 1544,796.7 1567.1,795.4 1567.1,791.1 					"/>
				</g>
				<g>
					<path fill="#002C3F" d="M1560.7,692c0,5.2-7.6,9.5-17.1,9.5s-17.1-4.3-17.1-9.5s7.6-9.5,17.1-9.5S1560.7,686.8,1560.7,692"/>
					<path fill="#004C66" d="M1534,699.8c1.7,0.6,3.5,1.1,5.6,1.3v-18.4c-2,0.2-3.9,0.7-5.6,1.3V699.8z"/>
					<path fill="#044668" d="M1569.7,681.2c0,8-11.5,14.6-25.8,14.6c-14.3,0-25.8-6.5-25.8-14.6c0-8,11.5-14.6,25.8-14.6
						C1558.2,666.6,1569.7,673.1,1569.7,681.2"/>
					<path fill="#FFEEA5" d="M1554.2,685.3h-20.6c-0.2,0-0.2-0.2-0.2-0.2v-0.4c0-0.2,0.2-0.2,0.2-0.2h20.6c0.2,0,0.2,0.2,0.2,0.2
						v0.4C1554.6,685.1,1554.4,685.3,1554.2,685.3"/>
					<path fill="#FFEEA5" d="M1553.3,686.6h-18.5c-0.2,0-0.2-0.2-0.2-0.2V686c0-0.2,0.2-0.2,0.2-0.2h18.5c0.2,0,0.2,0.2,0.2,0.2v0.4
						C1553.5,686.4,1553.3,686.6,1553.3,686.6"/>
					<path fill="#FFEEA5" d="M1551.4,687.9h-15c-0.2,0-0.2-0.2-0.2-0.2v-0.4c0-0.2,0.2-0.2,0.2-0.2h15c0.2,0,0.2,0.2,0.2,0.2v0.4
						C1551.6,687.9,1551.6,687.9,1551.4,687.9"/>
					<path fill="#FFDA3E" d="M1547.9,686.3c0,2.2-1.9,4.1-4.1,4.1c-2.2,0-4.1-1.9-4.1-4.1c0-2.2,1.9-4.1,4.1-4.1
						C1546,682.2,1547.9,684,1547.9,686.3"/>
					<path fill="#FFF7D2" d="M1545.3,686.3c0,0.9-0.7,1.7-1.5,1.7c-0.9,0-1.5-0.7-1.5-1.7s0.7-1.7,1.5-1.7
						C1544.8,684.8,1545.3,685.5,1545.3,686.3"/>
					<path fill="#FFDA3E" d="M1527.5,691.6c0,0.6-0.4,0.9-0.9,0.9s-0.9-0.4-0.9-0.9s0.4-0.9,0.9-0.9
						C1527.1,690.5,1527.5,691.1,1527.5,691.6"/>
					<path fill="#FFDA3E" d="M1562,691.6c0,0.6-0.4,0.9-0.9,0.9s-0.9-0.4-0.9-0.9s0.4-0.9,0.9-0.9
						C1561.4,690.5,1562,691.1,1562,691.6"/>
				</g>
				<g>
					<path fill="#FFDA3E" d="M1524.2,732.7l-1.3,0.6l1.9,4.5c0.2,0.4,0.6,0.6,0.9,0.4c0.4-0.2,0.6-0.6,0.4-0.9L1524.2,732.7z"/>
					<path fill="#FFDA3E" d="M1526,732l-1.3,0.6l1.9,4.5c0.2,0.4,0.6,0.6,0.9,0.4c0.4-0.2,0.6-0.6,0.4-0.9L1526,732z"/>
					<path fill="#FFDA3E" d="M1527.7,731.2l-1.3,0.6l1.9,4.5c0.2,0.4,0.6,0.6,0.9,0.4c0.4-0.2,0.6-0.6,0.4-0.9L1527.7,731.2z"/>
				</g>
				<g>
					<path fill="#FFDA3E" d="M1563.8,732.7l1.3,0.6l-1.9,4.5c-0.2,0.4-0.6,0.6-0.9,0.4c-0.4-0.2-0.6-0.6-0.4-0.9L1563.8,732.7z"/>
					<path fill="#FFDA3E" d="M1561.8,732l1.3,0.6l-1.9,4.5c-0.2,0.4-0.6,0.6-0.9,0.4c-0.4-0.2-0.6-0.6-0.4-0.9L1561.8,732z"/>
					<path fill="#FFDA3E" d="M1560.1,731.2l1.3,0.6l-1.9,4.5c-0.2,0.4-0.6,0.6-0.9,0.4c-0.4-0.2-0.6-0.6-0.4-0.9L1560.1,731.2z"/>
				</g>
				<path fill="#002C3F" d="M1545.9,736.1l1.3,2.2c0.2,0.4,0.2,0.7,0,1.1l-1.3,2.2c0,0.2-0.4,0.2-0.6,0.2h-2.8
					c-0.2,0-0.4-0.2-0.6-0.2l-1.3-2.2c-0.2-0.4-0.2-0.7,0-1.1l1.3-2.2c0-0.2,0.4-0.2,0.6-0.2h2.8
					C1545.7,735.7,1545.9,735.9,1545.9,736.1z"/>
				<polygon fill="#002C3F" points="1542.5,741.2 1539,772.8 1544.2,781.1 1549.6,772.8 1545.7,741.2 				"/>
				<g>
					<path fill="#FFDA3E" d="M1559.8,745.3c0.4,0,0.6,0.2,0.6,0.6c-0.2,5.2-3,8.7-5,8.7c-2.2,0-4.8-3.5-5-8.7c0-0.4,0.2-0.6,0.6-0.6
						c0.9-0.2,3-0.6,4.3-1.7c0.2-0.2,0.6-0.2,0.7,0C1556.8,744.8,1558.9,745.1,1559.8,745.3z"/>
					<path fill="#FFEEA5" d="M1555.1,753.5c-1.5,0-3.7-2.8-3.9-7.2c1.1-0.2,2.8-0.6,3.9-1.7c1.3,1.1,3,1.5,3.9,1.7
						C1558.9,750.9,1556.6,753.5,1555.1,753.5z"/>
				</g>
			</g>
			<g>
				<path fill="#FACAB9" d="M1857.3,807L1857.3,807c3.5-0.9,5.7-4.6,4.8-8.2l-8.7-56.8c-0.9-3.5-4.6-5.7-8.2-4.8
					c-3.5,0.9-5.7,4.6-4.8,8.2l8.7,56.8C1850,805.8,1853.5,807.9,1857.3,807"/>
				<path fill="#655296" d="M1844.8,736.1c-4.3,1.1-7,5.6-5.9,9.8l2.8,18.2c0.2,0.7,0.9,1.3,1.7,1.1l13.2-2.2c0.2,0,0.4,0,0.6-0.2
					s0.4-0.2,0.6-0.4c0.2-0.4,0.4-0.7,0.2-1.1l-3-19.3l0,0C1853.5,737.7,1849.3,734.9,1844.8,736.1"/>
				<g>
					<path fill="#FACAB9" d="M1882.8,806.8L1882.8,806.8c-3.5-0.7-5.9-4.5-5-8l7.2-57c0.7-3.5,4.5-5.9,8-5s5.9,4.5,5,8l-7.2,57
						C1889.9,805.2,1886.4,807.5,1882.8,806.8"/>
					<path fill="#655296" d="M1893.2,735.5c4.5,0.9,7,5.4,6.1,9.6l-2.2,18.4c-0.2,0.7-0.9,1.3-1.7,1.1l-13.2-1.9
						c-0.2,0-0.4,0-0.6-0.2c-0.2-0.2-0.4-0.2-0.6-0.4c-0.2-0.4-0.4-0.7-0.2-1.1l2.4-19.5l0,0
						C1884.5,737.4,1888.8,734.6,1893.2,735.5"/>
				</g>
				<path fill="#FACAB9" d="M1865.6,861L1865.6,861v-70.2c0-4.5-3.7-8.2-8.3-8.2s-8.3,3.7-8.3,8.2v70l0,0h16.7v0.2H1865.6z"/>
				<path fill="#FACAB9" d="M1889.9,861L1889.9,861v-70.2c0-4.5-3.7-8.2-8.3-8.2s-8.3,3.7-8.3,8.2v70l0,0h16.6V861z"/>
				<rect x="1861.7" y="724" fill="#FACAB9" width="14.6" height="11.7"/>
				<path fill="#FACAB9" d="M1882.7,798.2h-26.5c-4.6,0-8.3-5.2-8.3-11.3v-44.3c-0.2-5.2,3.5-8,8.3-10.2l7.8-3.3h10.8l7.8,3.3
					c4.8,2.8,8.2,4.6,8.3,10.2v44.3C1891.2,793,1887.3,798.2,1882.7,798.2"/>
				<path fill="#E39384" d="M1876.4,723.3h-14.6v3.3c2,1.9,4.6,3,7.2,3h0.2c2.6,0,5.2-1.1,7.2-3V723.3L1876.4,723.3z"/>
				<path fill="#723D25" d="M1869.5,723.4h-1.3c-13.7,0-24.8-11.1-24.8-24.7V698c0-13.5,11.1-24.7,24.8-24.7h1.3
					c13.7,0,24.8,11.1,24.8,24.7v0.7C1894.2,712.2,1883,723.4,1869.5,723.4"/>
				<path fill="#723D25" d="M1852.3,721.2c0,0,2.6-3.7,0-7c-1.7-2.2-4.8-3.3-7.2-3c0,0-2.4,0.2-4.5,2c-1.1,1.1-2.4,3.2-3,5.2
					c0,0-1.1,6.5-3,7c0,0-1.5,0.2-0.6,0.9c0.2,0.2,1.3,0.6,2.6,0.7c1.1,0.2,2.4,0.4,3.9,0.2C1848.5,727.2,1852.3,721.2,1852.3,721.2
					"/>
				<path fill="#723D25" d="M1886,721.2c0,0-2.6-3.7,0-7c1.7-2.2,4.8-3.3,7.2-3c0,0,2.4,0.2,4.5,2c1.1,1.1,2.4,3.2,3,5.2
					c0,0,1.1,6.5,3,7c0,0,1.5,0.2,0.6,0.9c-0.2,0.2-1.3,0.6-2.6,0.7c-1.1,0.2-2.4,0.4-3.9,0.2C1889.9,727.2,1886,721.2,1886,721.2"
					/>
				<path fill="#FACAB9" d="M1849.8,710.9h-4.6c-2.6,0-4.6-2-4.6-4.6s2-4.6,4.6-4.6h4.6c2.6,0,4.6,2,4.6,4.6
					C1854.4,708.9,1852.4,710.9,1849.8,710.9"/>
				<path fill="#E39384" d="M1846.5,704.4h-0.4c-1.5,0-2.6,0.7-2.6,1.7v0.7c0,0.9,1.1,1.7,2.6,1.7h0.4V704.4z"/>
				<path fill="#FACAB9" d="M1888.8,710.9h4.6c2.6,0,4.6-2,4.6-4.6s-2-4.6-4.6-4.6h-4.6c-2.6,0-4.6,2-4.6,4.6
					S1886.4,710.9,1888.8,710.9"/>
				<path fill="#E39384" d="M1892.3,704.4h0.4c1.5,0,2.6,0.7,2.6,1.7v0.7c0,0.9-1.1,1.7-2.6,1.7h-0.4V704.4z"/>
				<path fill="#FACAB9" d="M1869.1,728.1L1869.1,728.1c-12.6,0-22.8-10.2-22.8-22.8s10.4-22.8,22.8-22.8
					c12.6,0,22.8,10.2,22.8,22.8C1892.1,717.7,1881.7,728.1,1869.1,728.1"/>
				<path fill="#723D25" d="M1893.4,693.7c-1.7-11.7-11.9-20.6-24.3-20.6s-22.8,8.9-24.3,20.6H1893.4z"/>
				<path fill="#723D25" d="M1876.7,692.7c0,0-1.1,8.5-8,9.1h-24.1c0,0-0.9-5,0.4-10.4L1876.7,692.7z"/>
				<path fill="#723D25" d="M1875.6,692.7c0,0,1.1,9.1,6.7,9.1h10.9c0,0,0.4-5-0.2-10.4L1875.6,692.7z"/>
				<path fill="#E39382" d="M1869.1,710.5c-1.3,0-2.2-0.6-2.8-1.3v0.2c0,1.3,1.3,2.2,2.8,2.2s2.8-0.9,2.8-2.2l0,0
					C1871.5,710.2,1870.4,710.5,1869.1,710.5"/>
				<path fill="#754448" d="M1859.3,706.7c1.1,0,2,0.2,3,0.6v-0.4c0-1.7-1.3-3-3-3c-1.7,0-3,1.3-3,3v0.4l0,0
					C1857.3,706.8,1858.2,706.7,1859.3,706.7"/>
				<path fill="#754448" d="M1879.1,706.7c1.1,0,2,0.2,3,0.6l0,0v-0.4c0-1.7-1.3-3-3-3c-1.7,0-3,1.3-3,3v0.4
					C1877.1,706.8,1878,706.7,1879.1,706.7"/>
				<path fill="#F8B3A7" d="M1859.9,711.5c0,1.5-1.3,2.8-2.8,2.8c-1.7,0-2.8-1.3-2.8-2.8s1.3-2.8,2.8-2.8S1859.9,709.8,1859.9,711.5
					"/>
				<path fill="#F8B3A7" d="M1884.1,711.5c0,1.5-1.3,2.8-2.8,2.8c-1.7,0-2.8-1.3-2.8-2.8s1.3-2.8,2.8-2.8
					C1882.8,708.7,1884.1,709.8,1884.1,711.5"/>
				<path fill="#FDF2F7" d="M1873.4,842.6v15.8l0,0h16.5l0,0v-15.8H1873.4z"/>
				<path fill="#FDF2F7" d="M1849.1,842.6v15.8l0,0h16.5l0,0v-15.8H1849.1z"/>
				<path fill="#FACAB9" d="M1846.1,860.4L1846.1,860.4c0-2.4,2-4.3,4.3-4.3h13.7c2.4,0,4.3,1.9,4.3,4.3c0,2.4-2,4.3-4.3,4.3h-13.7
					C1848.2,864.9,1846.1,862.8,1846.1,860.4"/>
				<path fill="#655296" d="M1859.1,851.7h-3.5c-5.4,0-9.6,4.3-9.6,9.6v1.5v0.9l0,0c0,0.6,0.4,0.9,0.9,0.9h20.8
					c0.6,0,0.9-0.4,0.9-0.9l0,0v-0.9v-1.5C1868.8,855.9,1864.3,851.7,1859.1,851.7"/>
				<path fill="#775DA7" d="M1845.9,861.7v1.1v0.9l0,0c0,0.6,0.4,0.9,0.9,0.9h20.8c0.6,0,0.9-0.4,0.9-0.9l0,0v-0.9v-1.1H1845.9z"/>
				<path fill="#FACAB9" d="M1870.4,860.4L1870.4,860.4c0-2.4,2-4.3,4.3-4.3h13.7c2.4,0,4.3,1.9,4.3,4.3c0,2.4-2,4.3-4.3,4.3h-13.7
					C1872.3,864.9,1870.4,862.8,1870.4,860.4"/>
				<path fill="#655296" d="M1883.4,851.7h-3.5c-5.4,0-9.6,4.3-9.6,9.6v1.5v0.9l0,0c0,0.6,0.4,0.9,0.9,0.9h20.7
					c0.6,0,0.9-0.4,0.9-0.9l0,0v-0.9v-1.5C1893,855.9,1888.6,851.7,1883.4,851.7"/>
				<path fill="#775DA7" d="M1870.2,861.7v1.1v0.9l0,0c0,0.6,0.4,0.9,0.9,0.9h20.8c0.6,0,0.9-0.4,0.9-0.9l0,0v-0.9v-1.1H1870.2z"/>
				<path fill="#775DA7" d="M1892.3,778.3h-45.9l-7.8,25c6.1,7.6,11.9,8.3,30.8,8.3c18.9,0,24.3-0.6,30.4-8.2L1892.3,778.3z"/>
				<path fill="#F59C9E" d="M1892.5,778.1L1892.5,778.1C1892.5,778.1,1892.3,778.1,1892.5,778.1L1892.5,778.1z"/>
				<path fill="#F59C9E" d="M1846.5,778.1L1846.5,778.1L1846.5,778.1L1846.5,778.1z"/>
				<path fill="#F59C9E" d="M1869.5,782.4c8.3,0,16.1-1.5,23-4.1h-45.9C1853.4,780.9,1861.2,782.4,1869.5,782.4"/>
				<path fill="#8B2C22" d="M1878,715.2h-8.5h-0.6h-8.5c0,0-1.5,0-0.9,1.7c0,0,1.9,5.4,9.5,5.6l0,0h0.2h0.2l0,0
					c7.6-0.2,9.5-5.6,9.5-5.6C1879.3,715.2,1878,715.2,1878,715.2"/>
				<path fill="#DD6766" d="M1869.1,719c-1.9,0-3.5,1.1-4.5,2.6c1.1,0.4,2.6,0.7,4.1,0.7l0,0h0.2h0.2l0,0c1.7,0,3-0.4,4.1-0.7
					C1872.6,720.1,1871,719,1869.1,719"/>
				<path fill="#FFFFFF" d="M1869.3,715.2h-0.6h-5.6c0.7,1.5,2.2,2.6,4.1,2.6h3.3c1.9,0,3.3-1.1,4.1-2.6H1869.3z"/>
				<g>
					<polygon fill="#775DA7" points="1868.9,665.5 1866.2,664.2 1856.3,678.5 1881.6,678.5 1871.5,664.2 					"/>
					<path fill="#775DA7" d="M1868.9,684.8c6.9,0,12.4-2.8,12.6-6.3h-25.2C1856.5,682,1862.1,684.8,1868.9,684.8"/>
					<polygon fill="#FFEEA5" points="1868.8,675.1 1861.9,669.8 1861.2,670.5 1868.8,676.6 1876.4,670.5 1875.8,669.8 					"/>
					<path fill="#8172B3" d="M1882.7,678.3l-1.5-2.4c-2.2,2.2-6.9,3.9-12.2,3.9c-5.3,0-10-1.7-12.2-3.9l-1.5,2.4l0,0l0,0l0,0
						c0.2,3.9,6.3,7,13.9,7C1876.4,685.1,1882.5,682.2,1882.7,678.3L1882.7,678.3L1882.7,678.3L1882.7,678.3"/>
				</g>
				<rect x="1857.8" y="740.7" fill="#FFFFFF" width="23.2" height="13.2"/>
				<path fill="#775DA7" d="M1886,733.5l-2.8-0.9l-13.7,18.2l-13.4-19.7l-1.7,0.9c-5,2.4-8.3,2.4-8.2,7.6V795h46v-55.5
					C1892.1,733.8,1891,735.7,1886,733.5z"/>
				<g>
					<path fill="#61479C" d="M1854.3,732.7c2.8,0,5.2-1.5,5.2-2.2s-2.2-2.4-5.2-2.4c-2.8,0-4.5,2-5.2,2.2
						C1848.4,730.7,1851.3,732.7,1854.3,732.7"/>
					<path fill="#775DA7" d="M1854.5,729.2c2,2,4.8,2.6,5.4,2c0.6-0.6,0-3.3-2.2-5.4c-2-2-4.5-1.5-5.4-2
						C1851.7,723.6,1852.4,727.3,1854.5,729.2"/>
					<path fill="#775DA7" d="M1876.4,729c0,0-5,4.3-14.6,0v-0.9c0,0-0.4,0-1.3,0.4s-2.2,2.6-2.2,2.6s3,3,10,4.5
						c0,0,6.5,0.9,13.9-3.5c0,0,0-1.9-5.6-4.5v0.9v0.6L1876.4,729L1876.4,729L1876.4,729z"/>
				</g>
				<polygon fill="#655296" points="1846.5,778.3 1869.5,784.3 1892.5,778.5 1892.7,779.3 1869.5,785.4 1846.3,779.3 				"/>
				<g>
					<circle fill="#655296" cx="1867.6" cy="756.6" r="1.3"/>
					<circle fill="#655296" cx="1867.3" cy="756.5" r="1.3"/>
					
						<ellipse transform="matrix(0.93 0.3677 -0.3677 0.93 408.7898 -633.3518)" fill="#6F5FA0" cx="1866.6" cy="756.2" rx="0.4" ry="0.6"/>
				</g>
				<g>
					<circle fill="#655296" cx="1867.6" cy="767" r="1.3"/>
					<circle fill="#655296" cx="1867.3" cy="766.8" r="1.3"/>
					
						<ellipse transform="matrix(0.93 0.3677 -0.3677 0.93 412.6294 -632.653)" fill="#6F5FA0" cx="1866.7" cy="766.6" rx="0.4" ry="0.6"/>
				</g>
				<g>
					<circle fill="#655296" cx="1867.6" cy="777.6" r="1.3"/>
					<circle fill="#655296" cx="1867.3" cy="777.2" r="1.3"/>
					
						<ellipse transform="matrix(0.93 0.3677 -0.3677 0.93 416.4806 -631.9024)" fill="#6F5FA0" cx="1866.7" cy="777.1" rx="0.4" ry="0.6"/>
				</g>
			</g>
			<g>
				<g>
					<path fill="#FACAB9" d="M1454.9,797.2H1428c-4.6,0-8.5-5.2-8.5-11.5v-45c-0.2-5.2,3.7-8,8.5-10.4l8-3.5h10.9l8,3.5
						c5,3,8.3,4.6,8.5,10.4v45.1C1463.4,792.1,1459.5,797.2,1454.9,797.2"/>
					<path fill="#F59C9E" d="M1456.4,730.3l-2.8-1.1c-1.5,3-4.3,5.4-7.8,6.5c-1.5,0.7-4.8,1.5-8.9,0c-3.5-1.1-6.3-3.5-7.8-6.5
						l-2.8,1.1c-5.2,2.4-8.3,2.4-8.2,7.8v56.3h46.5v-56.3C1464.4,732,1461.4,732.5,1456.4,730.3"/>
					<path fill="#F6F8F9" d="M1462.5,733.3L1451,735l-9.5,17.2l-9.8-17.4l-11.5-1.7c0,0-3.3,2.8-3.3,8.3v26.4h49.1v-26.3
						C1465.8,736.1,1462.5,733.3,1462.5,733.3"/>
					<path fill="#FACAB9" d="M1437.5,861C1437.5,861,1437.5,860.8,1437.5,861v-71.1c0-4.6-3.7-8.3-8.3-8.3s-8.3,3.7-8.3,8.3V861l0,0
						H1437.5z"/>
					<path fill="#FACAB9" d="M1462,861C1462,861,1462,860.8,1462,861v-71.1c0-4.6-3.7-8.3-8.3-8.3s-8.3,3.7-8.3,8.3V861l0,0H1462z"
						/>
					<path fill="#FDF2F7" d="M1445.3,842.2v15.9l0,0h16.7l0,0v-15.9H1445.3z"/>
					<path fill="#FDF2F7" d="M1420.8,842.2v15.9l0,0h16.7l0,0v-15.9H1420.8z"/>
					<path fill="#FACAB9" d="M1417.8,860.4L1417.8,860.4c0-2.4,2-4.5,4.5-4.5h13.9c2.4,0,4.5,2,4.5,4.5c0,2.4-2,4.5-4.5,4.5h-13.9
						C1419.9,864.9,1417.8,862.8,1417.8,860.4"/>
					<path fill="#F17EA5" d="M1431,851.5h-3.5c-5.4,0-9.6,4.5-9.6,9.8v1.7v0.9l0,0c0,0.6,0.4,0.9,0.9,0.9h21c0.6,0,0.9-0.4,0.9-0.9
						l0,0V863v-1.7C1440.6,855.9,1436.4,851.5,1431,851.5"/>
					<path fill="#F06B97" d="M1417.6,861.7v1.1v0.9l0,0c0,0.6,0.4,0.9,0.9,0.9h21.1c0.6,0,0.9-0.4,0.9-0.9l0,0v-0.9v-1.1H1417.6z"/>
					<path fill="#FACAB9" d="M1442.5,860.4L1442.5,860.4c0-2.4,2-4.5,4.5-4.5h13.9c2.4,0,4.5,2,4.5,4.5c0,2.4-2,4.5-4.5,4.5H1447
						C1444.3,864.9,1442.5,862.8,1442.5,860.4"/>
					<path fill="#F17EA5" d="M1455.5,851.5h-3.5c-5.4,0-9.6,4.5-9.6,9.8v1.7v0.9l0,0c0,0.6,0.4,0.9,0.9,0.9h21.1
						c0.6,0,0.9-0.4,0.9-0.9l0,0V863v-1.7C1465.1,855.9,1460.8,851.5,1455.5,851.5"/>
					<path fill="#F06B97" d="M1442.1,861.7v1.1v0.9l0,0c0,0.6,0.4,0.9,0.9,0.9h21.1c0.6,0,0.9-0.4,0.9-0.9l0,0v-0.9v-1.1H1442.1z"/>
					<rect x="1419.1" y="791.9" fill="#FBE163" width="44.8" height="25"/>
					<rect x="1433.6" y="722" fill="#FACAB9" width="14.8" height="11.9"/>
					<path fill="#E39384" d="M1448.4,721.2h-14.6v3.3c2,1.9,4.6,3,7.2,3.2h0.2c2.6,0,5.2-1.1,7.2-3.2V721.2L1448.4,721.2z"/>
					<path fill="#FACAB9" d="M1421.7,708.9h-4.6c-2.6,0-4.6-2-4.6-4.6s2-4.6,4.6-4.6h4.6c2.6,0,4.6,2,4.6,4.6
						C1426.3,706.7,1424.1,708.9,1421.7,708.9"/>
					<path fill="#E39384" d="M1418.2,702.2h-0.4c-1.5,0-2.6,0.7-2.6,1.7v0.7c0,0.9,1.1,1.7,2.6,1.7h0.4V702.2z"/>
					<path fill="#FACAB9" d="M1461,708.9h4.6c2.6,0,4.6-2,4.6-4.6s-2-4.6-4.6-4.6h-4.6c-2.6,0-4.6,2-4.6,4.6
						C1456.4,706.7,1458.4,708.9,1461,708.9"/>
					<path fill="#E39384" d="M1464.5,702.2h0.4c1.5,0,2.6,0.7,2.6,1.7v0.7c0,0.9-1.1,1.7-2.6,1.7h-0.4V702.2z"/>
					<path fill="#FACAB9" d="M1441.2,726L1441.2,726c-12.8,0-23.2-10.4-23.2-23.2s10.4-23.2,23.2-23.2s23.2,10.4,23.2,23.2
						C1464.4,715.5,1454,726,1441.2,726"/>
					<path fill="#723D25" d="M1423.9,685c0,0,1.9-6.3-3.5-9.6c-3.5-2.2-8.3-2.2-11.3-0.6c0,0-3.3,1.5-5.2,5c-1.1,2-1.7,5.7-1.5,8.9
						c0,0,1.7,9.6-0.6,11.3c0,0-1.9,0.7-0.2,1.5c0.2,0.2,2.2,0.2,3.9-0.2c1.5-0.4,3.5-0.7,5.6-1.5c3.3-1.3,6.7-3.3,8.7-6.9
						L1423.9,685z"/>
					<path fill="#723D25" d="M1458.4,685c0,0-1.9-6.3,3.5-9.6c3.5-2.2,8.3-2.2,11.3-0.6c0,0,3.3,1.5,5.2,5c1.1,2,1.7,5.7,1.5,8.9
						c0,0-1.7,9.6,0.6,11.3c0,0,1.9,0.7,0.2,1.5c-0.2,0.2-2.2,0.2-3.9-0.2c-1.5-0.4-3.5-0.7-5.6-1.5c-3.3-1.3-6.7-3.3-8.7-6.9
						L1458.4,685z"/>
					<path fill="#723D25" d="M1465.7,691.3c-1.7-11.7-12.1-20.8-24.7-20.8c-12.6,0-23,9.1-24.7,20.8H1465.7z"/>
					<path fill="#723D25" d="M1448.8,690.3c0,0-1.1,8.7-8.2,9.3h-24.1c0,0-0.9-5,0.4-10.6L1448.8,690.3z"/>
					<path fill="#723D25" d="M1447.7,690.3c0,0,1.1,9.3,6.7,9.3h10.9c0,0,0.6-5-0.2-10.6L1447.7,690.3z"/>
					<path fill="#E39382" d="M1441.2,708.5c-1.3,0-2.2-0.6-3-1.3v0.2c0,1.3,1.3,2.2,3,2.2s3-0.9,3-2.2v-0.2
						C1443.4,708,1442.5,708.5,1441.2,708.5"/>
					<path fill="#754448" d="M1431.2,704.4c1.1,0,2.2,0.2,3,0.6v-0.4c0-1.7-1.3-3-3-3s-3,1.3-3,3v0.4l0,0
						C1429.1,704.6,1430.1,704.4,1431.2,704.4"/>
					<path fill="#754448" d="M1451.2,704.4c1.1,0,2.2,0.2,3,0.6l0,0v-0.4c0-1.7-1.3-3-3-3s-3,1.3-3,3v0.4
						C1449.2,704.6,1450.1,704.4,1451.2,704.4"/>
					<path fill="#F8B3A7" d="M1431.7,709.2c0,1.7-1.3,3-3,3s-3-1.3-3-3s1.3-3,3-3C1430.4,706.5,1431.7,707.8,1431.7,709.2"/>
					<path fill="#F8B3A7" d="M1456.4,709.2c0,1.7-1.3,3-3,3c-1.7,0-3-1.3-3-3s1.3-3,3-3C1455.1,706.5,1456.4,707.8,1456.4,709.2"/>
					<path fill="#FFFFFF" d="M1455.3,730.7c0-0.4-0.2-0.7-0.2-1.1l-1.3-0.6c-1.7,3.3-4.8,5.7-8.7,6.7c-1.1,0.4-2.2,0.6-3.5,0.6
						c-0.9,0-1.9-0.2-2.8-0.4c0,0,0,0-0.2,0l0,0c-4.1-0.7-7.6-3.3-9.3-6.9l-1.1,0.4c-0.4,0.7-0.6,1.5-0.6,2.2
						c0.2,2.4,2.2,4.3,4.6,4.1c0.7,0,1.3-0.4,2-0.6c0.4,2.2,2.4,3.7,4.6,3.5c1.3,0,2.4-0.7,3-1.7c0.9,0.7,2,1.3,3.2,1.1
						c2-0.2,3.5-1.7,3.9-3.5c0.7,0.4,1.5,0.6,2.2,0.4C1453.6,735.1,1455.3,733.1,1455.3,730.7"/>
					<path fill="#F59C9E" d="M1464.7,777L1464.7,777C1464.5,777,1464.5,777,1464.7,777L1464.7,777z"/>
					<path fill="#F59C9E" d="M1418.2,777L1418.2,777C1418.4,777,1418.2,777,1418.2,777L1418.2,777z"/>
					<path fill="#F59C9E" d="M1441.4,781.1c8.3,0,16.3-1.5,23.2-4.1h-46.4C1425.2,779.6,1433,781.1,1441.4,781.1"/>
					<path fill="#8B2C22" d="M1450.1,713.1h-8.7h-0.6h-8.5c0,0-1.5,0-0.9,1.7c0,0,1.9,5.4,9.6,5.6l0,0h0.2h0.2l0,0
						c7.8-0.2,9.6-5.6,9.6-5.6C1451.6,713.1,1450.1,713.1,1450.1,713.1"/>
					<path fill="#DD6766" d="M1441.2,716.9c-1.9,0-3.5,1.1-4.5,2.6c1.1,0.4,2.6,0.7,4.3,0.7l0,0h0.2h0.2l0,0c1.7,0,3-0.4,4.3-0.7
						C1444.7,718.1,1443,716.9,1441.2,716.9"/>
					<path fill="#FFFFFF" d="M1441.4,713.1h-0.6h-5.6c0.7,1.5,2.4,2.6,4.1,2.6h3.5c1.9,0,3.3-1.1,4.1-2.6H1441.4z"/>
					<polygon fill="#F6F8F9" points="1442.3,828.7 1441.9,757.2 1429.5,728.5 1417.6,732.5 1413.4,828.7 					"/>
					<polygon fill="#F6F8F9" points="1441,828.7 1441.7,757.6 1453.8,728.5 1465.7,732.5 1469.9,828.7 					"/>
					<path fill="#FFFFFF" d="M1429.7,727.9c-0.6,0.6-6.7,8.3-6.7,8.3l5.7,1.9l-3.7,4.6l17.2,10L1429.7,727.9z"/>
					<path fill="#FFFFFF" d="M1453.6,727.7c0.6,0.6,6.7,8.3,6.7,8.3l-5.7,1.9l3.9,4.6l-17.1,10.2L1453.6,727.7z"/>
					<path fill="#AEAEAE" d="M1450.1,765.5c-3.3-1.5-5.9-3.7-6.9-7.4c-0.7-2.8-0.6-5.9-0.6-8.9c0-1.5-2.4-1.5-2.4,0
						c0,3.5-0.4,7.2,0.9,10.6c1.3,3.7,4.1,6.1,7.6,7.8C1450.3,768.3,1451.6,766.1,1450.1,765.5"/>
					<path fill="#EFEFEF" d="M1421.7,767l-0.2,2.2c3.7,3.2,42.5,15.6,46.6,3.5l-0.6-13.2l-11.1-3.9L1421.7,767z"/>
					<path fill="#EFEFEF" d="M1415.4,772.2l-0.6,9.6c16.9,3,23.4-6.1,23.4-6.1L1415.4,772.2z"/>
					<path fill="#EFEFEF" d="M1415.6,776.3l41.7,3l-0.6,5c-5,4.6-17.6,10-27.8,11.5c-3.5,0.6-9.6,0.6-14.1-0.7L1415.6,776.3z"/>
					<path fill="#FACAB9" d="M1431.9,775c-1.1-0.4-2.4-0.7-3.5-1.1l-6.7,12.8c1.7,0.7,3.3,1.3,5,1.9
						C1435.4,791.7,1440.8,778.1,1431.9,775"/>
					<path fill="#F6F8F9" d="M1414.3,735.1c-3.9,3.9-14.3,16.1-11.9,33c1.3,9.5,20.2,23.9,20.2,23.9s2.8-7.6,7.2-18.9
						c0,0-10.9-15.9-5.9-24.7c3.7-6.5-6.3-16.1-6.3-16.1S1416,733.6,1414.3,735.1"/>
					<path fill="#FDDC55" d="M1449.2,778.3h-27.4c-1.1,0-2.2-0.9-2.2-2.2v-30.4c0-1.1,0.9-2.2,2.2-2.2h27.4c1.1,0,2.2,0.9,2.2,2.2
						v30.6C1451.4,777.4,1450.5,778.3,1449.2,778.3"/>
					<path fill="#FFD426" d="M1422.3,748.1h26.7c4.5,0,4.5-5,0-5h-26.7C1417.8,742.9,1417.8,748.1,1422.3,748.1"/>
					<path fill="#F6F8F9" d="M1441.9,758.1h-13c-0.7,0-1.5-0.7-1.5-1.5v-1.5c0-0.7,0.7-1.5,1.5-1.5h13c0.7,0,1.5,0.7,1.5,1.5v1.5
						C1443.4,757.6,1442.8,758.1,1441.9,758.1"/>
					<path fill="#FACAB9" d="M1434.7,771.1c-3.3-0.6-7.4-0.9-10.6-1.7c-8.7-1.9-10.9,11.7-2.2,13.5c4.3,0.9,8.7,1.5,12.8,1.9V771.1z
						"/>
					<path fill="#F6F8F9" d="M1474.7,749.2c-1.1-10.2-9.1-16.9-9.1-16.9l-2.4,1.5l-3,10.6c-0.9,3.3-3.2,10.6-4.5,12.8
						c-4.3,7-28,10.8-28,10.8c0,4.6-0.9,6.7-2.8,16.9c0,0,28.9,4.6,36.5-1.1C1476.9,772,1474.7,749.2,1474.7,749.2"/>
					<g>
						<polygon fill="#F2F2F2" points="1449.9,673.8 1432.1,673.8 1433.9,659 1448,659 						"/>
						<polygon fill="#E33E2D" points="1443.2,667.3 1441.7,667.3 1441.7,666 1440.3,666 1440.3,667.3 1439,667.3 1439,668.8 
							1440.3,668.8 1440.3,670.3 1441.7,670.3 1441.7,668.8 1443.2,668.8 						"/>
						<path fill="#F6F7F7" d="M1448.2,659c0,0.9-3.2,1.7-7,1.7c-3.9,0-7-0.7-7-1.7s3.2-1.7,7-1.7
							C1445.1,657.3,1448.2,658.1,1448.2,659"/>
						<polygon fill="#3E4566" points="1433.2,664 1448.8,664 1448.6,662.7 1433.4,662.7 						"/>
					</g>
				</g>
				<path fill="#723D25" d="M1441,674.4c5.4,0,10,1.1,13.4,3c-2.4-3.2-7.6-5.2-13.4-5.2c-5.9,0-10.9,2-13.4,5.2
					C1431,675.5,1435.8,674.4,1441,674.4"/>
			</g>
		</g>
		<g>
			<g enable-background="new    ">
				<path fill="#424559" d="M1450.1,550.5h-1.2v-16.7h-21.5v16.7h-1.2v-33.7h1.2v15.7h21.5v-15.7h1.2V550.5z"/>
				<path fill="#424559" d="M1456.8,537.5c0-2.4,0.5-4.5,1.4-6.4c0.9-1.9,2.2-3.4,3.9-4.5c1.7-1.1,3.6-1.6,5.7-1.6s4,0.5,5.6,1.5
					c1.7,1,3,2.5,3.9,4.4c0.9,1.9,1.4,4,1.4,6.4v1.1c0,2.4-0.5,4.6-1.4,6.4c-0.9,1.9-2.2,3.4-3.9,4.4c-1.7,1.1-3.6,1.6-5.7,1.6
					s-4-0.5-5.7-1.6c-1.7-1-3-2.5-3.9-4.4s-1.4-4-1.4-6.4L1456.8,537.5L1456.8,537.5z M1458,538.4c0,2.1,0.4,4,1.2,5.7
					c0.8,1.7,2,3.1,3.4,4.1c1.5,1,3.2,1.5,5.1,1.5c2.9,0,5.2-1.1,7-3.2s2.7-4.9,2.7-8.3v-0.7c0-2-0.4-3.9-1.2-5.7
					c-0.8-1.7-2-3.1-3.5-4.1s-3.1-1.5-5-1.5c-2.9,0-5.2,1.1-7,3.3c-1.8,2.2-2.7,4.9-2.7,8.2V538.4z"/>
				<path fill="#424559" d="M1489.2,543.2l1.4,5.4l7.3-23.2h1.3l7.3,23.2l1.4-5.4l5.1-17.8h1.5l-7.3,25h-1.2l-6.2-18.8l-1.2-4.5
					l-1.3,4.5l-6.1,18.8h-1.2l-7.3-25h1.4L1489.2,543.2z"/>
				<path fill="#424559" d="M1534.7,518.7v6.7h5.7v1.2h-5.7v17.8c0,1.8,0.3,3.1,0.9,3.9c0.6,0.8,1.5,1.3,2.9,1.3
					c0.7,0,1.5-0.1,2.5-0.2l0.2,1.2c-0.5,0.2-1.4,0.3-2.6,0.3c-1.8,0-3.1-0.5-3.9-1.5c-0.8-1-1.2-2.6-1.2-4.8v-17.9h-4.6v-1.2h4.6
					v-6.7L1534.7,518.7L1534.7,518.7z"/>
				<path fill="#424559" d="M1544.5,537.5c0-2.4,0.5-4.5,1.4-6.4c0.9-1.9,2.2-3.4,3.9-4.5c1.7-1.1,3.6-1.6,5.7-1.6
					c2.1,0,4,0.5,5.6,1.5c1.7,1,3,2.5,3.9,4.4c0.9,1.9,1.4,4,1.4,6.4v1.1c0,2.4-0.5,4.6-1.4,6.4c-0.9,1.9-2.2,3.4-3.9,4.4
					c-1.7,1.1-3.6,1.6-5.7,1.6c-2.1,0-4-0.5-5.7-1.6c-1.7-1-3-2.5-3.9-4.4s-1.4-4-1.4-6.4v-0.9H1544.5z M1545.8,538.4
					c0,2.1,0.4,4,1.2,5.7c0.8,1.7,2,3.1,3.4,4.1c1.5,1,3.2,1.5,5.1,1.5c2.9,0,5.2-1.1,7-3.2c1.8-2.1,2.7-4.9,2.7-8.3v-0.7
					c0-2-0.4-3.9-1.2-5.7c-0.8-1.7-2-3.1-3.5-4.1s-3.1-1.5-5-1.5c-2.9,0-5.2,1.1-7,3.3c-1.8,2.2-2.7,4.9-2.7,8.2V538.4z"/>
				<path fill="#424559" d="M1599.2,544.3c0-3-2.6-5.1-7.8-6.2c-3.1-0.7-5.3-1.5-6.5-2.6c-1.2-1-1.8-2.5-1.8-4.3
					c0-1.8,0.8-3.3,2.3-4.5c1.5-1.2,3.6-1.8,6-1.8c2.7,0,4.9,0.6,6.5,1.9c1.6,1.3,2.5,3,2.5,5.2h-1.2c0-1.7-0.7-3.1-2.1-4.2
					s-3.3-1.7-5.5-1.7c-2.2,0-3.9,0.5-5.2,1.4c-1.3,1-1.9,2.1-1.9,3.6c0,1.1,0.2,2,0.7,2.6c0.5,0.6,1.3,1.2,2.3,1.7
					c1.1,0.5,2.7,1,4.7,1.5c2.1,0.5,3.7,1,4.9,1.7c1.2,0.7,2.1,1.4,2.6,2.3c0.5,0.9,0.8,2,0.8,3.2c0,2-0.8,3.6-2.4,4.8
					c-1.6,1.2-3.7,1.8-6.4,1.8c-2.8,0-5.1-0.6-6.8-1.9c-1.7-1.3-2.6-2.9-2.6-4.9h1.2c0.1,1.8,0.9,3.1,2.3,4.1c1.4,1,3.4,1.5,5.8,1.5
					c2.2,0,4-0.5,5.4-1.6C1598.5,547.1,1599.2,545.8,1599.2,544.3z"/>
				<path fill="#424559" d="M1610.1,518.7v6.7h5.7v1.2h-5.7v17.8c0,1.8,0.3,3.1,0.9,3.9c0.6,0.8,1.5,1.3,2.9,1.3
					c0.7,0,1.5-0.1,2.5-0.2l0.2,1.2c-0.5,0.2-1.4,0.3-2.6,0.3c-1.8,0-3.1-0.5-3.9-1.5c-0.8-1-1.2-2.6-1.2-4.8v-17.9h-4.7v-1.2h4.6
					v-6.7L1610.1,518.7L1610.1,518.7z"/>
				<path fill="#424559" d="M1638.5,550.5c-0.3-1.1-0.5-2.6-0.5-4.6c-1,1.6-2.3,2.8-4,3.7c-1.7,0.9-3.6,1.3-5.8,1.3
					c-2.3,0-4.2-0.6-5.6-1.9s-2.1-2.9-2.1-4.9c0-2.3,1-4.1,3.1-5.5c2.1-1.4,4.8-2.1,8.3-2.1h6.2v-3.7c0-2.1-0.7-3.7-2-4.9
					c-1.3-1.2-3.2-1.7-5.7-1.7c-2.3,0-4.2,0.6-5.7,1.8c-1.5,1.2-2.3,2.6-2.3,4.3h-1.2c0-2,0.9-3.8,2.7-5.2c1.8-1.4,4-2.1,6.6-2.1
					c2.7,0,4.8,0.7,6.4,2c1.6,1.3,2.4,3.2,2.5,5.7v12c0,2.7,0.2,4.6,0.6,5.6v0.2H1638.5L1638.5,550.5z M1628.2,549.7
					c2.3,0,4.4-0.5,6-1.6c1.6-1.1,3-2.5,3.8-4.4v-5.9h-5.8c-3.6,0-6.3,0.7-8.2,2.1c-1.5,1.2-2.3,2.6-2.3,4.3c0,1.5,0.6,2.8,1.8,3.9
					C1624.8,549.1,1626.3,549.7,1628.2,549.7z"/>
				<path fill="#424559" d="M1658.3,526.4l-1.6-0.1c-2.1,0-3.9,0.7-5.3,2.1c-1.4,1.4-2.4,3.3-2.8,5.8v16.4h-1.2v-25h1.2v5.2
					c0.7-1.7,1.7-3.1,3.1-4.1c1.4-1,3.1-1.5,5.1-1.5c0.7,0,1.3,0.1,1.8,0.3L1658.3,526.4z"/>
				<path fill="#424559" d="M1667.1,518.7v6.7h5.7v1.2h-5.7v17.8c0,1.8,0.3,3.1,0.9,3.9c0.6,0.8,1.5,1.3,2.9,1.3
					c0.7,0,1.5-0.1,2.5-0.2l0.2,1.2c-0.5,0.2-1.4,0.3-2.6,0.3c-1.8,0-3.1-0.5-3.9-1.5c-0.8-1-1.2-2.6-1.2-4.8v-17.9h-4.7v-1.2h4.6
					v-6.7L1667.1,518.7L1667.1,518.7z"/>
				<path fill="#424559" d="M1690.3,517.6c0-0.4,0.1-0.7,0.4-0.9c0.2-0.3,0.5-0.4,0.9-0.4s0.7,0.1,0.9,0.4c0.3,0.3,0.4,0.6,0.4,0.9
					c0,0.3-0.1,0.7-0.4,0.9c-0.3,0.2-0.6,0.4-0.9,0.4c-0.3,0-0.7-0.1-0.9-0.4C1690.4,518.3,1690.3,518,1690.3,517.6z M1692.1,550.5
					h-1.2v-25h1.2V550.5z"/>
				<path fill="#424559" d="M1701.6,531.3c0.8-1.9,2-3.5,3.6-4.6c1.6-1.1,3.3-1.7,5.3-1.7c2.7,0,4.7,0.8,6,2.3c1.3,1.5,2,3.8,2,6.9
					v16.3h-1.3v-16.4c0-2.7-0.6-4.7-1.6-5.9c-1.1-1.3-2.8-1.9-5.1-1.9c-2.2,0-4,0.8-5.6,2.3c-1.6,1.5-2.6,3.5-3.2,5.9v16h-1.2v-25
					h1.2L1701.6,531.3L1701.6,531.3z"/>
				<path fill="#424559" d="M1733.6,548.5l9-23h1.3l-9.7,25h-1.2l-9.7-25h1.3L1733.6,548.5z"/>
				<path fill="#424559" d="M1757.6,550.9c-2,0-3.9-0.5-5.6-1.6c-1.7-1.1-3-2.6-4-4.5s-1.4-4-1.4-6.3v-1c0-2.3,0.5-4.4,1.4-6.4
					c0.9-2,2.2-3.4,3.8-4.5c1.6-1.1,3.4-1.6,5.3-1.6c2.8,0,5.1,1,6.8,3c1.8,2,2.7,4.6,2.7,7.8v1.3h-18.7v1.4c0,2,0.4,3.9,1.3,5.6
					c0.9,1.7,2,3.1,3.5,4.1s3.1,1.5,4.9,1.5c1.7,0,3.1-0.3,4.3-0.8c1.2-0.6,2.2-1.4,3.1-2.6l0.9,0.6
					C1764,549.6,1761.2,550.9,1757.6,550.9z M1757.1,526.2c-2.4,0-4.5,0.9-6.2,2.7c-1.7,1.8-2.7,4.1-3,6.9h17.4v-0.3
					c0-1.7-0.4-3.3-1.1-4.7c-0.7-1.5-1.7-2.6-3-3.4C1760.1,526.6,1758.7,526.2,1757.1,526.2z"/>
				<path fill="#424559" d="M1787.8,544.3c0-3-2.6-5.1-7.8-6.2c-3.1-0.7-5.3-1.5-6.5-2.6c-1.2-1-1.8-2.5-1.8-4.3
					c0-1.8,0.8-3.3,2.3-4.5c1.5-1.2,3.6-1.8,6-1.8c2.7,0,4.9,0.6,6.5,1.9s2.5,3,2.5,5.2h-1.3c0-1.7-0.7-3.1-2.1-4.2
					c-1.4-1.1-3.3-1.7-5.5-1.7c-2.2,0-3.9,0.5-5.2,1.4c-1.3,1-1.9,2.1-1.9,3.6c0,1.1,0.2,2,0.7,2.6c0.5,0.6,1.3,1.2,2.3,1.7
					c1.1,0.5,2.7,1,4.7,1.5s3.7,1,4.9,1.7c1.2,0.7,2.1,1.4,2.6,2.3c0.5,0.9,0.8,2,0.8,3.2c0,2-0.8,3.6-2.4,4.8
					c-1.6,1.2-3.7,1.8-6.4,1.8c-2.8,0-5.1-0.6-6.8-1.9c-1.7-1.3-2.6-2.9-2.6-4.9h1.2c0.1,1.8,0.9,3.1,2.3,4.1c1.4,1,3.4,1.5,5.8,1.5
					c2.2,0,4-0.5,5.4-1.6C1787.1,547.1,1787.8,545.8,1787.8,544.3z"/>
				<path fill="#424559" d="M1798.8,518.7v6.7h5.7v1.2h-5.7v17.8c0,1.8,0.3,3.1,0.9,3.9c0.6,0.8,1.5,1.3,2.9,1.3
					c0.7,0,1.5-0.1,2.5-0.2l0.2,1.2c-0.5,0.2-1.4,0.3-2.6,0.3c-1.8,0-3.1-0.5-3.9-1.5s-1.2-2.6-1.2-4.8v-17.9h-4.6v-1.2h4.6v-6.7
					L1798.8,518.7L1798.8,518.7z"/>
				<path fill="#424559" d="M1810.6,517.6c0-0.4,0.1-0.7,0.4-0.9c0.2-0.3,0.5-0.4,0.9-0.4s0.7,0.1,0.9,0.4c0.3,0.3,0.4,0.6,0.4,0.9
					c0,0.3-0.1,0.7-0.4,0.9c-0.3,0.2-0.6,0.4-0.9,0.4s-0.7-0.1-0.9-0.4C1810.7,518.3,1810.6,518,1810.6,517.6z M1812.5,550.5h-1.2
					v-25h1.2V550.5z"/>
				<path fill="#424559" d="M1822,531.3c0.8-1.9,2-3.5,3.6-4.6c1.6-1.1,3.3-1.7,5.3-1.7c2.7,0,4.7,0.8,6,2.3c1.3,1.5,2,3.8,2,6.9
					v16.3h-1.2v-16.4c0-2.7-0.6-4.7-1.6-5.9c-1.1-1.3-2.8-1.9-5.1-1.9c-2.2,0-4,0.8-5.6,2.3s-2.6,3.5-3.2,5.9v16h-1.2v-25h1.2v5.8
					H1822z"/>
				<path fill="#424559" d="M1845.5,537.7c0-4,0.8-7.1,2.5-9.4c1.7-2.3,4-3.4,6.9-3.4c1.9,0,3.5,0.4,5,1.3c1.4,0.9,2.6,2.1,3.5,3.8
					v-4.6h1.3V550c0,3.3-0.8,5.9-2.5,7.7c-1.7,1.9-4,2.8-6.9,2.8c-1.7,0-3.2-0.4-4.6-1.1c-1.4-0.7-2.6-1.8-3.6-3.1l0.9-0.8
					c1,1.2,2,2.2,3.2,2.8c1.2,0.7,2.5,1,4.1,1c2.6,0,4.6-0.8,6-2.3c1.4-1.6,2.2-3.8,2.2-6.6v-3.8c-0.9,1.4-2,2.5-3.5,3.3
					c-1.5,0.8-3.1,1.1-5,1.1c-2.9,0-5.2-1.1-6.9-3.4c-1.7-2.3-2.5-5.4-2.5-9.5L1845.5,537.7L1845.5,537.7z M1846.7,538.2
					c0,3.6,0.7,6.4,2.1,8.4c1.4,2,3.4,3.1,6,3.1c2.1,0,3.9-0.5,5.4-1.5s2.5-2.4,3.1-4.1v-11.3c-1.4-4.3-4.2-6.5-8.5-6.5
					c-2.6,0-4.6,1-6,3C1847.4,531.3,1846.7,534.2,1846.7,538.2z"/>
			</g>
			<g enable-background="new    ">
				<path fill="#424559" d="M1435.9,607.3v-23.8h-4.3v-1.2h4.3v-3.7c0-2.3,0.6-4.1,1.7-5.4c1.1-1.3,2.7-1.9,4.8-1.9
					c1.1,0,2.1,0.1,3,0.4l-0.2,1.2c-0.8-0.2-1.7-0.3-2.8-0.3c-1.6,0-2.9,0.5-3.9,1.6c-0.9,1.1-1.4,2.6-1.4,4.6v3.6h6.6v1.2h-6.6
					v23.8h-1.2V607.3z"/>
				<path fill="#424559" d="M1447,594.3c0-2.4,0.5-4.5,1.4-6.4c0.9-1.9,2.2-3.4,3.9-4.5c1.7-1.1,3.6-1.6,5.7-1.6
					c2.1,0,4,0.5,5.6,1.5c1.7,1,3,2.5,3.9,4.4c0.9,1.9,1.4,4,1.4,6.4v1.1c0,2.4-0.5,4.6-1.4,6.4c-0.9,1.9-2.2,3.4-3.9,4.4
					c-1.7,1.1-3.6,1.6-5.7,1.6c-2.1,0-4-0.5-5.7-1.6c-1.7-1-3-2.5-3.9-4.4c-0.9-1.9-1.4-4-1.4-6.4L1447,594.3L1447,594.3z
					 M1448.2,595.2c0,2.1,0.4,4,1.2,5.7c0.8,1.7,2,3.1,3.4,4.1c1.5,1,3.2,1.5,5.1,1.5c2.9,0,5.2-1.1,7-3.2c1.8-2.1,2.7-4.9,2.7-8.3
					v-0.7c0-2-0.4-3.9-1.2-5.7c-0.8-1.7-2-3.1-3.5-4.1s-3.1-1.5-5-1.5c-2.9,0-5.2,1.1-7,3.3c-1.8,2.2-2.7,4.9-2.7,8.2V595.2z"/>
				<path fill="#424559" d="M1486,583.2l-1.6-0.1c-2.1,0-3.9,0.7-5.3,2.1s-2.4,3.3-2.8,5.8v16.4h-1.2v-25h1.2v5.2
					c0.7-1.7,1.7-3.1,3.1-4.1c1.4-1,3.1-1.5,5.1-1.5c0.7,0,1.3,0.1,1.8,0.3L1486,583.2z"/>
				<path fill="#424559" d="M1509.8,605.3l0.2-0.5l8.6-22.6h1.4l-11.2,29.4l-0.6,1.4c-1.2,2.9-3.2,4.4-6,4.4c-0.9,0-1.5-0.1-1.8-0.3
					v-1.2c0.5,0.1,1.1,0.2,1.7,0.2c1.3,0,2.4-0.4,3.3-1.1c0.9-0.8,1.6-2,2.2-3.7l1.5-4.1l-10-24.9h1.4L1509.8,605.3z"/>
				<path fill="#424559" d="M1522.5,594.3c0-2.4,0.5-4.5,1.4-6.4c0.9-1.9,2.2-3.4,3.9-4.5c1.7-1.1,3.6-1.6,5.7-1.6
					c2.1,0,4,0.5,5.6,1.5c1.7,1,3,2.5,3.9,4.4c0.9,1.9,1.4,4,1.4,6.4v1.1c0,2.4-0.5,4.6-1.4,6.4c-0.9,1.9-2.2,3.4-3.9,4.4
					c-1.7,1.1-3.6,1.6-5.7,1.6c-2.1,0-4-0.5-5.7-1.6c-1.7-1-3-2.5-3.9-4.4s-1.4-4-1.4-6.4v-0.9H1522.5z M1523.7,595.2
					c0,2.1,0.4,4,1.2,5.7c0.8,1.7,2,3.1,3.4,4.1c1.5,1,3.2,1.5,5.1,1.5c2.9,0,5.2-1.1,7-3.2c1.8-2.1,2.7-4.9,2.7-8.3v-0.7
					c0-2-0.4-3.9-1.2-5.7c-0.8-1.7-2-3.1-3.5-4.1s-3.1-1.5-5-1.5c-2.9,0-5.2,1.1-7,3.3c-1.8,2.2-2.7,4.9-2.7,8.2V595.2z"/>
				<path fill="#424559" d="M1567.2,607.3v-4c-0.7,1.4-1.8,2.5-3.2,3.3s-3.2,1.2-5.4,1.2c-2.7,0-4.8-0.8-6.1-2.4
					c-1.4-1.6-2.1-3.9-2.1-7v-16.1h1.2v16.2c0,2.7,0.6,4.7,1.8,6c1.2,1.4,2.9,2,5.1,2c2.4,0,4.3-0.6,5.8-1.7s2.4-2.8,2.8-4.9v-17.6
					h1.3v25H1567.2z"/>
				<path fill="#424559" d="M1587.3,583.2l-1.6-0.1c-2.1,0-3.9,0.7-5.3,2.1c-1.4,1.4-2.4,3.3-2.8,5.8v16.4h-1.2v-25h1.2v5.2
					c0.7-1.7,1.7-3.1,3.1-4.1c1.4-1,3.1-1.5,5.1-1.5c0.7,0,1.3,0.1,1.8,0.3L1587.3,583.2z"/>
				<path fill="#424559" d="M1612,606.5c2.3,0,4.1-0.6,5.6-1.8s2.3-2.9,2.4-5h1.2c-0.1,2.4-1.1,4.4-2.8,5.8
					c-1.7,1.5-3.9,2.2-6.5,2.2c-3.1,0-5.6-1.1-7.5-3.4c-1.9-2.3-2.8-5.3-2.8-9.2v-0.8c0-3.8,0.9-6.8,2.8-9.1
					c1.8-2.3,4.3-3.4,7.4-3.4c2.7,0,4.8,0.8,6.6,2.4c1.7,1.6,2.6,3.7,2.8,6.3h-1.2c-0.1-2.3-0.9-4.1-2.4-5.4c-1.5-1.4-3.4-2-5.7-2
					c-2.8,0-5,1-6.6,3s-2.4,4.8-2.4,8.4v0.8c0,3.5,0.8,6.2,2.4,8.2C1607,605.5,1609.2,606.5,1612,606.5z"/>
				<path fill="#424559" d="M1628.8,588.1c0.8-1.9,2-3.5,3.6-4.6c1.6-1.1,3.3-1.7,5.3-1.7c2.7,0,4.7,0.8,6,2.3c1.3,1.5,2,3.8,2,6.9
					v16.3h-1.2v-16.4c0-2.7-0.6-4.7-1.6-5.9c-1.1-1.3-2.8-1.9-5.1-1.9c-2.2,0-4,0.8-5.6,2.3s-2.6,3.5-3.2,5.9v16h-1.2v-35.5h1.2
					v16.3H1628.8z"/>
				<path fill="#424559" d="M1653.1,574.4c0-0.4,0.1-0.7,0.4-0.9c0.2-0.3,0.5-0.4,0.9-0.4c0.4,0,0.7,0.1,0.9,0.4
					c0.3,0.3,0.4,0.6,0.4,0.9c0,0.3-0.1,0.7-0.4,0.9c-0.3,0.2-0.6,0.4-0.9,0.4c-0.3,0-0.7-0.1-0.9-0.4
					C1653.2,575.1,1653.1,574.8,1653.1,574.4z M1655,607.3h-1.2v-25h1.2V607.3z"/>
				<path fill="#424559" d="M1664.7,607.3h-1.2v-35.5h1.2V607.3z"/>
				<path fill="#424559" d="M1671.8,594.5c0-4,0.8-7.1,2.5-9.4c1.7-2.3,4-3.4,6.9-3.4c1.9,0,3.5,0.4,5,1.3c1.4,0.8,2.6,2.1,3.5,3.8
					v-15.1h1.2v35.5h-1.2v-4c-0.8,1.4-2,2.5-3.5,3.3c-1.5,0.8-3.2,1.2-5,1.2c-2.9,0-5.2-1.1-6.9-3.4c-1.7-2.3-2.5-5.4-2.5-9.5V594.5
					z M1673.1,595c0,3.5,0.7,6.3,2.1,8.4c1.4,2.1,3.4,3.1,6,3.1c2.1,0,3.8-0.5,5.3-1.4c1.5-0.9,2.6-2.3,3.3-4v-11.7
					c-1.4-4.2-4.3-6.3-8.5-6.3c-2.6,0-4.5,1-6,3S1673.1,591.1,1673.1,595z"/>
				<path fill="#424559" d="M1697.5,580.7l-0.9-0.7c1.2-1.6,1.9-3.3,2-5v-3.2h1.2v2.7C1699.9,576.9,1699.1,579,1697.5,580.7z"/>
				<path fill="#424559" d="M1719.1,601.1c0-3-2.6-5.1-7.8-6.2c-3.1-0.7-5.3-1.5-6.5-2.6c-1.2-1.1-1.8-2.5-1.8-4.3s0.8-3.3,2.3-4.5
					s3.6-1.8,6-1.8c2.7,0,4.9,0.6,6.5,1.9c1.6,1.3,2.5,3,2.5,5.2h-1.3c0-1.7-0.7-3.1-2.1-4.2c-1.4-1.1-3.3-1.7-5.5-1.7
					c-2.2,0-3.9,0.5-5.2,1.4s-1.9,2.1-1.9,3.6c0,1.1,0.2,2,0.7,2.6s1.3,1.2,2.3,1.7c1.1,0.5,2.7,1,4.7,1.5c2.1,0.5,3.7,1,4.9,1.7
					c1.2,0.7,2.1,1.4,2.6,2.3s0.8,2,0.8,3.2c0,2-0.8,3.6-2.4,4.8c-1.6,1.2-3.7,1.8-6.4,1.8c-2.8,0-5.1-0.6-6.8-1.9
					c-1.7-1.3-2.6-2.9-2.6-4.9h1.2c0.1,1.8,0.9,3.1,2.3,4.1s3.4,1.5,5.8,1.5c2.2,0,4-0.5,5.4-1.6
					C1718.4,603.9,1719.1,602.6,1719.1,601.1z"/>
				<path fill="#424559" d="M1740.4,607.3v-23.8h-4.3v-1.2h4.3v-3.7c0-2.3,0.6-4.1,1.7-5.4c1.1-1.3,2.7-1.9,4.8-1.9
					c1.1,0,2.1,0.1,3,0.4l-0.2,1.2c-0.8-0.2-1.7-0.3-2.8-0.3c-1.6,0-2.9,0.5-3.9,1.6c-0.9,1.1-1.4,2.6-1.4,4.6v3.6h6.6v1.2h-6.6
					v23.8h-1.2V607.3z"/>
				<path fill="#424559" d="M1770.2,607.3v-4c-0.7,1.4-1.8,2.5-3.2,3.3s-3.2,1.2-5.4,1.2c-2.7,0-4.8-0.8-6.1-2.4
					c-1.4-1.6-2.1-3.9-2.1-7v-16.1h1.2v16.2c0,2.7,0.6,4.7,1.8,6c1.2,1.4,2.9,2,5.1,2c2.4,0,4.3-0.6,5.8-1.7s2.4-2.8,2.8-4.9v-17.6
					h1.3v25H1770.2z"/>
				<path fill="#424559" d="M1782.1,575.5v6.7h5.7v1.2h-5.7v17.8c0,1.8,0.3,3.1,0.9,3.9c0.6,0.8,1.5,1.3,2.9,1.3
					c0.7,0,1.5-0.1,2.5-0.2l0.2,1.2c-0.5,0.2-1.4,0.3-2.6,0.3c-1.8,0-3.1-0.5-3.9-1.5s-1.2-2.6-1.2-4.8v-17.9h-4.6v-1.2h4.6v-6.7
					L1782.1,575.5L1782.1,575.5z"/>
				<path fill="#424559" d="M1811.1,607.3v-4c-0.7,1.4-1.8,2.5-3.2,3.3s-3.2,1.2-5.4,1.2c-2.7,0-4.8-0.8-6.1-2.4
					c-1.4-1.6-2.1-3.9-2.1-7v-16.1h1.2v16.2c0,2.7,0.6,4.7,1.8,6c1.2,1.4,2.9,2,5.1,2c2.4,0,4.3-0.6,5.8-1.7s2.4-2.8,2.8-4.9v-17.6
					h1.3v25H1811.1z"/>
				<path fill="#424559" d="M1831.3,583.2l-1.6-0.1c-2.1,0-3.9,0.7-5.3,2.1c-1.4,1.4-2.4,3.3-2.8,5.8v16.4h-1.4v-25h1.2v5.2
					c0.7-1.7,1.7-3.1,3.1-4.1s3.1-1.5,5.1-1.5c0.7,0,1.3,0.1,1.8,0.3L1831.3,583.2z"/>
				<path fill="#424559" d="M1844.6,607.7c-2,0-3.9-0.5-5.6-1.6c-1.7-1.1-3-2.6-4-4.5c-1-1.9-1.4-4-1.4-6.3v-1
					c0-2.3,0.5-4.4,1.4-6.4c0.9-1.9,2.2-3.4,3.8-4.5s3.4-1.6,5.3-1.6c2.8,0,5.1,1,6.8,3c1.8,2,2.7,4.6,2.7,7.8v1.3h-18.7v1.4
					c0,2,0.4,3.9,1.3,5.6c0.9,1.7,2,3.1,3.5,4.1s3.1,1.5,4.9,1.5c1.7,0,3.1-0.3,4.3-0.8c1.2-0.5,2.2-1.4,3.1-2.6l0.9,0.6
					C1851.1,606.4,1848.3,607.7,1844.6,607.7z M1844.2,583c-2.4,0-4.5,0.9-6.2,2.7c-1.7,1.8-2.7,4.1-3,6.9h17.4v-0.3
					c0-1.7-0.4-3.3-1.1-4.7c-0.7-1.5-1.7-2.6-3-3.4C1847.1,583.4,1845.7,583,1844.2,583z"/>
			</g>
		</g>
	</g>
	<polyline fill="none" stroke="#FFFFFF" stroke-linecap="round" stroke-miterlimit="10" points="1695.7,331.2 1691.3,326.8 
		1695.7,322.4 	"/>
</g>
</svg>
