<?xml version="1.0" encoding="utf-8"?>
<!-- Generator: Adobe Illustrator 18.0.0, SVG Export Plug-In . SVG Version: 6.00 Build 0)  -->
<!DOCTYPE svg PUBLIC "-//W3C//DTD SVG 1.1//EN" "http://www.w3.org/Graphics/SVG/1.1/DTD/svg11.dtd">
<svg version="1.1" id="Layer_1" xmlns="http://www.w3.org/2000/svg" xmlns:xlink="http://www.w3.org/1999/xlink" x="0px" y="0px"
	 viewBox="0 0 800 800" enable-background="new 0 0 800 800" xml:space="preserve">
<g>
	<path fill="#F5F6F7" stroke="#E6E7E8" stroke-miterlimit="10" d="M626,312.1H176c-18,0-32.5-14.5-32.5-32.5v-86.9
		c0-18,14.5-32.5,32.5-32.5h450.2c18,0,32.5,14.5,32.5,32.5v86.9C658.5,297.6,644,312.1,626,312.1z"/>
	<g>
		<rect x="422" y="160.7" fill="#FFFFFF" width="177" height="78.4"/>
		<rect x="432.4" y="169.4" fill="#09783D" width="157.4" height="30.3"/>
		<rect x="432.4" y="199.7" fill="#F6F6F6" width="157.4" height="39.4"/>
		<text transform="matrix(1 0 0 1 458.5778 231.5833)" fill="#68981F" font-family="'Roboto-Regular'" font-size="7">Tell us about your future graduate</text>
		<text transform="matrix(1 0 0 1 463.6663 191.9167)" fill="#FFFFFF" font-family="'Roboto-Regular'" font-size="9">Your Child’s Information</text>
		<text transform="matrix(1 0 0 1 502.8333 175.75)" fill="#FFFFFF" font-family="'Roboto-Regular'" font-size="5">9:41 AM</text>
		<text transform="matrix(1 0 0 1 558.5 175.75)" fill="#FFFFFF" font-family="'Roboto-Light'" font-size="5">100%</text>
		<g>
			<rect x="435.9" y="174.1" fill="#FFFFFF" width="1.2" height="1.8"/>
			<rect x="437.8" y="173.6" fill="#FFFFFF" width="1.2" height="2.3"/>
			<rect x="439.7" y="172.7" fill="#FFFFFF" width="1.2" height="3.2"/>
			<rect x="441.6" y="171.8" fill="#FFFFFF" width="1.2" height="4"/>
		</g>
		<g>
			<path fill="none" stroke="#FFFFFF" stroke-miterlimit="10" d="M449.9,173c-0.8-0.5-1.7-0.8-2.6-0.8s-1.9,0.3-2.6,0.8"/>
			<path fill="none" stroke="#FFFFFF" stroke-miterlimit="10" d="M449.1,174.4c-0.5-0.3-1.1-0.5-1.8-0.5s-1.3,0.2-1.8,0.5"/>
			<path fill="none" stroke="#FFFFFF" stroke-miterlimit="10" d="M448.1,175.7c-0.2-0.1-0.5-0.2-0.8-0.2s-0.5,0.1-0.8,0.2"/>
		</g>
		<polyline fill="none" stroke="#FFFFFF" stroke-width="0.2" stroke-miterlimit="10" points="552.8,172.5 554,173.8 554,171.6 
			555.2,172.8 554,173.8 555.2,175 554,176.2 554,173.8 552.7,175.1 		"/>
		<polygon fill="#FFFFFF" points="585.9,172 584.4,174.1 585.4,174.1 585,175.8 586.7,173.3 585.6,173.3 		"/>
		<g>
			<circle fill="none" stroke="#FFFFFF" stroke-width="0.2" stroke-miterlimit="10" cx="576.4" cy="188.8" r="6.2"/>
			
				<line fill="none" stroke="#FFFFFF" stroke-linecap="round" stroke-miterlimit="10" x1="576.4" y1="188.3" x2="576.4" y2="190.9"/>
			<circle fill="#FFFFFF" cx="576.4" cy="186.3" r="0.5"/>
		</g>
		
			<rect x="432.4" y="169.4" fill="none" stroke="#E1E7EC" stroke-linejoin="round" stroke-miterlimit="10" width="157.4" height="88"/>
		<path fill="none" stroke="#FFFFFF" stroke-width="0.2" stroke-miterlimit="10" d="M581.4,176.2h-8.6c-0.2,0-0.3-0.2-0.3-0.3v-3.6
			c0-0.2,0.2-0.3,0.3-0.3h8.6c0.2,0,0.3,0.2,0.3,0.3v3.6C581.8,176.1,581.6,176.2,581.4,176.2z"/>
		<path fill="#59F16D" d="M581.2,175.9H573c-0.1,0-0.2-0.1-0.2-0.2v-3.4c0-0.1,0.1-0.2,0.2-0.2h8.2c0.1,0,0.2,0.1,0.2,0.2v3.4
			C581.4,175.8,581.3,175.9,581.2,175.9z"/>
	</g>
	
		<linearGradient id="SVGID_1_" gradientUnits="userSpaceOnUse" x1="215.9711" y1="748.2938" x2="215.9711" y2="773.1063" gradientTransform="matrix(1.8565 0 0 -1.8565 -4.505217e-004 1644.5522)">
		<stop  offset="0" style="stop-color:#BCBEC0"/>
		<stop  offset="1" style="stop-color:#FFFFFF;stop-opacity:0"/>
	</linearGradient>
	<rect x="142.4" y="187.9" fill="url(#SVGID_1_)" width="517.1" height="45.9"/>
	<g>
		<path fill="#F5F6F7" stroke="#E6E7E8" stroke-miterlimit="10" d="M695.7,426.7H106.4c-18,0-32.5-14.5-32.5-32.5V266.3
			c0-18,14.5-32.5,32.5-32.5h589.3c18,0,32.5,14.5,32.5,32.5v127.9C728.1,412.2,713.6,426.7,695.7,426.7z"/>
		
			<linearGradient id="SVGID_2_" gradientUnits="userSpaceOnUse" x1="216.0789" y1="696.6976" x2="216.0789" y2="724.5264" gradientTransform="matrix(1.8565 0 0 -1.8565 -4.505217e-004 1644.5522)">
			<stop  offset="0" style="stop-color:#BCBEC0"/>
			<stop  offset="1" style="stop-color:#FFFFFF;stop-opacity:0"/>
		</linearGradient>
		<rect x="73.2" y="275.5" fill="url(#SVGID_2_)" width="655.9" height="51.5"/>
		<text transform="matrix(1 0 0 1 298.5576 309.5625)" fill="#494D60" font-family="'Roboto-Thin'" font-size="31.5608">In </text>
		<text transform="matrix(1 0 0 1 331.604 309.5625)" fill="#494D60" font-family="'Roboto-Regular'" font-size="31.5608">3</text>
		<text transform="matrix(1 0 0 1 349.4263 309.5625)" fill="#494D60" font-family="'Roboto-Thin'" font-size="31.5608"> easy steps</text>
	</g>
	<g>
		
			<linearGradient id="SVGID_3_" gradientUnits="userSpaceOnUse" x1="215.675" y1="467.3053" x2="215.675" y2="709.3737" gradientTransform="matrix(1.8565 0 0 -1.8565 -4.505217e-004 1644.5522)">
			<stop  offset="0" style="stop-color:#ECECEE"/>
			<stop  offset="0.2413" style="stop-color:#F0F0F2"/>
			<stop  offset="1" style="stop-color:#F8F9FA"/>
		</linearGradient>
		<path fill="url(#SVGID_3_)" stroke="#E6E7E8" stroke-miterlimit="10" d="M762.9,777H38c-20.4,0-37.1-16.7-37.1-37.1V364.7
			c0-20.4,16.7-37.1,37.1-37.1h724.8c20.4,0,37.1,16.7,37.1,37.1v375.2C800,760.3,783.3,777,762.9,777z"/>
		<g>
			<g>
				<path fill="#FFDD55" d="M381.3,552.1c0,0-1.3,8.3-1.5,16.9c-0.2,8.5,4.5,29.3,4.5,29.3l33.9,4.3c0,0,6.9-11.9,8.9-19.8
					c2-8.3,4.3-19.7,4.1-25.6c0-6.1-26.9-3.7-26.9-3.7l-16.7-0.6L381.3,552.1z"/>
				<g>
					<g>
						<path fill="#F7C8B8" d="M413.9,708.9L413.9,708.9l8.9-54.8c0.6-3.5-2.6-7-7-7.8c-4.5-0.7-8.5,1.7-9.1,5.2l-8.9,54.8l0,0
							L413.9,708.9z"/>
						<path fill="#D0D1D1" d="M402.7,726.7L402.7,726.7c-4.5-0.7-7.4-5-6.7-9.5l2.8-17.2l16.1,2.6l-2.8,17.2
							C411.4,724.3,407.2,727.4,402.7,726.7z"/>
						
							<rect x="397.1" y="702.1" transform="matrix(-0.987 -0.1607 0.1607 -0.987 691.0989 1476.5724)" fill="#FDDC55" width="16.3" height="16.5"/>
						<path fill="#E73939" d="M403.1,703.7l-4.8-0.7l0.6-3.7l0.9,0.2C402,699.6,403.5,701.6,403.1,703.7L403.1,703.7z"/>
						<path fill="#FDDC55" d="M409.8,704.8l4.8,0.7l0.6-3.7l-0.9-0.2C412,701.3,410,702.6,409.8,704.8L409.8,704.8z"/>
						<path fill="#FFD426" d="M407,700L407,700c-1.9-0.4-3.5,0.9-3.9,2.8l-2.6,15.4l6.7,1.1l2.6-15.4C410.1,702,408.8,700.3,407,700
							z"/>
						<path fill="#FFFFFF" d="M404.2,717c-3-0.6-5.6,0-5.7,0.9v0.2c-0.6,3,1.5,5.7,4.5,6.3s5.7-1.5,6.3-4.5v-0.2
							C409.6,718.7,407.4,717.6,404.2,717z"/>
						
							<line fill="none" stroke="#E3E4E3" stroke-width="2.5787" stroke-linecap="round" stroke-miterlimit="10" x1="400.5" y1="714.6" x2="409.2" y2="712.2"/>
						
							<line fill="none" stroke="#E3E4E3" stroke-width="2.5787" stroke-linecap="round" stroke-miterlimit="10" x1="408.7" y1="715.9" x2="401.2" y2="710.9"/>
						
							<line fill="none" stroke="#E3E4E3" stroke-width="2.5787" stroke-linecap="round" stroke-miterlimit="10" x1="401.8" y1="707" x2="410.5" y2="704.6"/>
						
							<line fill="none" stroke="#E3E4E3" stroke-width="2.5787" stroke-linecap="round" stroke-miterlimit="10" x1="409.8" y1="708.3" x2="402.4" y2="703.3"/>
						
							<line fill="none" stroke="#FFFFFF" stroke-width="2.5787" stroke-linecap="round" stroke-miterlimit="10" x1="401.2" y1="710.7" x2="409.8" y2="708.3"/>
						
							<line fill="none" stroke="#FFFFFF" stroke-width="2.5787" stroke-linecap="round" stroke-miterlimit="10" x1="409.2" y1="712" x2="401.8" y2="707"/>
						
							<line fill="none" stroke="#FFFFFF" stroke-width="2.5787" stroke-linecap="round" stroke-miterlimit="10" x1="400.5" y1="714.6" x2="408.7" y2="715.9"/>
					</g>
					<g>
						<path fill="#F7C8B8" d="M405.5,706.6C405.5,706.5,405.5,706.5,405.5,706.6l-7.2-55.2c-0.4-3.5-4.5-5.9-8.9-5.4
							s-7.8,3.9-7.2,7.6l7,55.2l0,0L405.5,706.6z"/>
						<path fill="#D0D1D1" d="M399.8,726.9L399.8,726.9c-4.5,0.6-8.5-2.6-9.1-7l-2.2-17.4l16.3-2l2.2,17.4
							C407.5,722,404.4,726.1,399.8,726.9z"/>
						
							<rect x="389.7" y="702.3" transform="matrix(-0.9917 0.1287 -0.1287 -0.9917 883.841 1364.0015)" fill="#FDDC55" width="16.3" height="16.5"/>
						<path fill="#FDDC55" d="M393.5,704.6l-4.8,0.6l-0.6-3.9l0.9-0.2C391.3,701.1,393.4,702.6,393.5,704.6L393.5,704.6z"/>
						<path fill="#FDDC55" d="M400.2,703.9l4.8-0.6l-0.6-3.9l-0.9,0.2C401.6,699.8,400,701.6,400.2,703.9L400.2,703.9z"/>
						<path fill="#FFD426" d="M396.3,700L396.3,700c-1.9,0.2-3.2,1.9-3,3.7l2,15.4l6.7-0.9l-2-15.4
							C399.8,701.1,398.2,699.8,396.3,700z"/>
						<path fill="#FFFFFF" d="M398.5,717.2c-3,0.4-5.4,1.5-5.2,2.4v0.2c0.4,3,3.2,5.2,6.1,4.8c3-0.4,5.2-3.2,4.8-6.1v-0.2
							C404.2,717.2,401.8,716.8,398.5,717.2z"/>
						
							<line fill="none" stroke="#E3E4E3" stroke-width="2.5787" stroke-linecap="round" stroke-miterlimit="10" x1="394.3" y1="715.9" x2="402" y2="711.1"/>
						
							<line fill="none" stroke="#E3E4E3" stroke-width="2.5787" stroke-linecap="round" stroke-miterlimit="10" x1="402.5" y1="714.8" x2="393.9" y2="712.2"/>
						
							<line fill="none" stroke="#E3E4E3" stroke-width="2.5787" stroke-linecap="round" stroke-miterlimit="10" x1="393.4" y1="708.3" x2="401.1" y2="703.5"/>
						
							<line fill="none" stroke="#E3E4E3" stroke-width="2.5787" stroke-linecap="round" stroke-miterlimit="10" x1="401.4" y1="707.2" x2="392.8" y2="704.4"/>
						
							<line fill="none" stroke="#FFFFFF" stroke-width="2.5787" stroke-linecap="round" stroke-miterlimit="10" x1="393.9" y1="712" x2="401.4" y2="707.2"/>
						
							<line fill="none" stroke="#FFFFFF" stroke-width="2.5787" stroke-linecap="round" stroke-miterlimit="10" x1="402" y1="710.9" x2="393.4" y2="708.3"/>
						
							<line fill="none" stroke="#FFFFFF" stroke-width="2.5787" stroke-linecap="round" stroke-miterlimit="10" x1="394.3" y1="715.9" x2="402.5" y2="714.8"/>
					</g>
					<rect x="393.7" y="581.9" fill="#F7C8B8" width="14.5" height="11.5"/>
					<path fill="#F7C8B8" d="M411.1,653.9H392c-3.3,0-6.1-3.7-6.1-8.2l-5.9-45.5c-0.2-5,3.5-7.8,8.3-10.2l7.8-3.3h10.8l7.8,3.3
						c4.8,2.8,8.2,4.5,8.3,10.2l-5.9,45.5C417.2,650.2,414.4,653.9,411.1,653.9z"/>
					<g>
						<path fill="#F7C8B8" d="M339.6,554.6L339.6,554.6c2.6-2.6,7-2.6,9.6,0l39.5,40.1c2.6,2.6,2.6,7,0,9.6l0,0
							c-2.6,2.6-7,2.6-9.6,0l-39.5-40.1C336.8,561.4,336.8,557.2,339.6,554.6z"/>
					</g>
					<g>
						<path fill="#F7C8B8" d="M464.8,635.1L464.8,635.1c2.4-3,1.9-7.2-1.1-9.6l-43.9-35c-3-2.4-7.2-1.9-9.6,1.1l0,0
							c-2.4,3-1.9,7.2,1.1,9.6l43.9,35C458.2,638.7,462.4,638.1,464.8,635.1z"/>
					</g>
					<path fill="#FFFFFF" d="M416.1,589.9l-2.6-1.1c-1.5,3-4.3,5.2-7.6,6.3c-1.3,0.7-4.8,1.5-8.7,0c-3.3-1.1-6.1-3.3-7.8-6.3
						l-2.6,1.1c-5,2.2-8.2,2.4-8,7.6l2.6,55h40.4l2.6-55C424.1,591.7,421.1,592.1,416.1,589.9"/>
					<path fill="#F1F1F2" d="M415,590.5c0-0.4-0.2-0.7-0.2-1.1l-1.3-0.6c-1.7,3.2-4.6,5.6-8.5,6.5c-1.1,0.4-2.2,0.6-3.5,0.6
						c-0.9,0-1.9-0.2-2.8-0.4c0,0,0,0-0.2,0l0,0c-4.1-0.7-7.4-3.3-9.1-6.7l-0.9,0.4c-0.4,0.7-0.6,1.5-0.6,2.2
						c0.2,2.4,2.2,4.1,4.5,3.9c0.7,0,1.3-0.2,1.9-0.6c0.4,2,2.2,3.7,4.5,3.5c1.3,0,2.2-0.7,3-1.5c0.7,0.7,2,1.1,3.2,1.1
						c1.9-0.2,3.5-1.5,3.9-3.3c0.6,0.4,1.3,0.4,2.2,0.4C413.3,594.7,415.1,592.7,415,590.5"/>
					<path fill="#F1999C" d="M424.2,635.7L424.2,635.7L424.2,635.7L424.2,635.7z"/>
					<path fill="#F1999C" d="M378.7,635.7L378.7,635.7L378.7,635.7L378.7,635.7z"/>
					<g>
						<path fill="#F1999C" d="M365.4,659.6c0,1.1,3.9,1.1,4.6,2.2c0.7,0.9-0.6,4.5,0.7,5.2c1.1,0.7,3.7-2,5.2-1.5
							c1.3,0.6,0.6,4.6,2,5.2c1.3,0.4,4.5-3.2,5.9-2.8s1.7,4.5,3.3,4.8c1.5,0.2,3.7-3.7,5.4-3.5c1.5,0.2,2.6,4.3,4.1,4.5
							c1.5,0,3.2-3.9,4.8-3.9c1.5,0,3.2,4.1,4.8,3.9c1.5,0,2.6-4.3,4.1-4.5s3.9,3.7,5.4,3.5s1.9-4.5,3.3-4.8s4.6,3.2,5.9,2.8
							c1.5-0.4,0.7-4.6,2-5.2c1.5-0.6,4.1,2.2,5.2,1.5c1.3-0.7,0-4.3,0.7-5.2c0.9-1.1,4.6-1.1,4.6-2.2l-15.2-20.2h-41.9L365.4,659.6
							L365.4,659.6L365.4,659.6z"/>
					</g>
					<ellipse fill="#FFFFFF" cx="401.4" cy="639.2" rx="20.8" ry="1.7"/>
					<g>
						<path fill="#E09081" d="M409.2,582.5l-14.3-2.4l-0.6,3.3c1.7,2.2,3.9,3.7,6.5,4.3h0.2c2.6,0.4,5.2-0.2,7.6-1.7L409.2,582.5z"
							/>
						<path fill="#FFDD55" d="M402.5,581.5l-1.1-0.2c-13.4-2.4-22.3-15-20-28.4l0.2-0.7c2.2-13.4,15-22.3,28.4-19.8l1.1,0.2
							c13.4,2.4,22.3,15,20,28.4l-0.2,0.7C428.7,574.8,415.9,583.8,402.5,581.5"/>
						<path fill="#F7C8B8" d="M385.4,566.1l-4.5-0.7c-2.4-0.4-4.1-2.8-3.7-5.2s2.8-4.1,5.2-3.7l4.5,0.7c2.4,0.4,4.1,2.8,3.7,5.2
							S387.8,566.4,385.4,566.1"/>
						<path fill="#E09081" d="M383.2,559h-0.4c-1.3-0.2-2.6,0.4-2.8,1.1l-0.2,0.7c-0.2,0.9,0.9,1.9,2.2,2h0.4L383.2,559z"/>
						<path fill="#F7C8B8" d="M423.5,572.7l4.5,0.7c2.4,0.4,4.8-1.3,5.2-3.7c0.4-2.4-1.3-4.8-3.7-5.2l-4.5-0.7
							c-2.4-0.4-4.8,1.3-5.2,3.7C419.4,570,421.1,572.2,423.5,572.7"/>
						<path fill="#E09081" d="M427.9,566.8h0.4c1.3,0.2,2.4,1.1,2.2,2l-0.2,0.7c-0.2,0.9-1.5,1.5-2.8,1.1h-0.4L427.9,566.8z"/>
						<path fill="#F7C8B8" d="M401.4,586L401.4,586c-12.2-2.2-20.6-13.9-18.5-26.1c2.2-12.2,13.9-20.6,26.1-18.4
							c12.2,2.2,20.6,13.9,18.5,26.1C425.4,579.8,413.9,588.2,401.4,586"/>
						<path fill="#E19080" d="M404.4,569c-1.1-0.2-2.2-0.9-2.6-1.7v0.2c-0.2,1.1,0.9,2.4,2.4,2.6c1.5,0.2,3-0.6,3.2-1.7v-0.2
							C406.8,569,405.7,569.2,404.4,569"/>
						<path fill="#754548" d="M414.8,567c1.1,0.2,2,0.6,2.8,0.9l0,0v-0.4c0.2-1.5-0.7-3-2.4-3.3c-1.5-0.2-3.2,0.7-3.3,2.4v0.4
							C412.7,566.8,413.7,566.8,414.8,567"/>
						<path fill="#754548" d="M396.7,563.8c1.1,0.2,2,0.6,2.8,0.9l0,0v-0.4c0.2-1.5-0.7-3-2.4-3.3c-1.5-0.2-3.2,0.7-3.3,2.4v0.4
							C394.5,563.6,395.6,563.6,396.7,563.8"/>
						<path fill="#F5B0A4" d="M395,568.3c-0.2,1.5-1.7,2.6-3.3,2.2c-1.5-0.2-2.6-1.7-2.2-3.3c0.2-1.5,1.7-2.6,3.3-2.2
							C394.3,565.3,395.4,566.8,395,568.3"/>
						<path fill="#F5B0A4" d="M418.9,572.4c-0.2,1.5-1.7,2.6-3.3,2.2c-1.5-0.2-2.6-1.7-2.2-3.3c0.2-1.5,1.7-2.6,3.3-2.2
							C418.1,569.4,419.2,570.9,418.9,572.4"/>
						<path fill="#8A2D22" d="M412.2,575l-8.3-1.5h-0.4l-8.3-1.5c0,0-1.5-0.2-1.1,1.3c0,0,0.9,5.6,8.3,7l0,0h0.2h0.2l0,0
							c7.6,1.1,10.2-3.7,10.2-3.7C413.7,575.1,412.2,575,412.2,575"/>
						<path fill="#DA6766" d="M402.9,577.2c-1.9-0.4-3.5,0.4-4.6,1.9c1.1,0.6,2.4,1.1,3.9,1.5l0,0h0.2h0.2l0,0c1.7,0.2,3,0.2,4.1,0
							C406.2,578.9,404.8,577.6,402.9,577.2"/>
						<path fill="#FFFFFF" d="M403.8,573.5h-0.3l-5.4-0.9c0.6,1.7,1.9,3,3.5,3.2l3.3,0.6c1.7,0.4,3.5-0.4,4.5-1.9L403.8,573.5z"/>
					</g>
				</g>
				<path fill="#FFDD55" d="M384.1,552.5c0,0,13.7,2.8,18.5-10.6c0,0,1.9,14.5,26.3,19.1l-4.8-15l-15.4-8.3l-10.8,1.9l-11.5,8.2
					L384.1,552.5z"/>
				<circle fill="#FFFFFF" cx="426.6" cy="576.1" r="1.3"/>
				<circle fill="#FFFFFF" cx="381.1" cy="567.9" r="1.3"/>
				<g>
					<g>
						<path fill="#EFC92B" d="M397.2,538.8c-2.8,1.1-4.3,3.5-3.9,4.3c0.4,0.7,3.5,1.1,6.3,0s4.3-3.5,3.9-4.3S400,537.7,397.2,538.8"
							/>
						<path fill="#FFFFFF" d="M400.2,541c-3,1.5-6.1,0.9-6.5,0.2s1.3-3.5,4.3-5s6.1-0.9,6.5-0.2C405,536.9,403.3,539.7,400.2,541"/>
					</g>
					<g>
						<path fill="#EFC92B" d="M409.8,544.4c1.9,2.4,4.5,3.3,5,2.8s0.2-3.7-1.7-6.1c-1.9-2.4-4.5-3.3-5-2.8
							C407.5,538.6,407.9,541.8,409.8,544.4"/>
						<path fill="#FFFFFF" d="M414.2,539.7c1.9,2.6,1.9,5.9,1.3,6.3c-0.7,0.6-3.7-0.7-5.6-3.3s-1.9-5.9-1.3-6.3
							C409.4,535.8,412.4,536.9,414.2,539.7"/>
					</g>
					<g>
						<path fill="#EFC92B" d="M417.9,543.6c0.7,3,2.8,4.8,3.5,4.6s1.7-3.3,1.1-6.3c-0.7-3-2.8-4.8-3.5-4.6
							C418.3,537.7,417.4,540.7,417.9,543.6"/>
						<path fill="#FFFFFF" d="M423.9,541.2c0.6,3.2-0.6,6.1-1.3,6.3c-0.7,0.2-3.2-2-3.7-5.4c-0.6-3.2,0.6-6.1,1.3-6.3
							C421.1,535.6,423.3,538.1,423.9,541.2"/>
					</g>
					<g>
						<path fill="#EFC92B" d="M425.3,552.5c0.9,3,3.3,4.5,4.1,4.1c0.8-0.4,1.3-3.5,0.4-6.3c-0.9-3-3.3-4.5-4.1-4.1
							C425,546.6,424.2,549.7,425.3,552.5"/>
						<path fill="#FFFFFF" d="M430.9,549.4c0.9,3.2,0.2,6.1-0.7,6.5c-0.7,0.2-3.3-1.7-4.3-4.8c-0.9-3.2-0.2-6.1,0.7-6.5
							C427.4,544.4,430,546.4,430.9,549.4"/>
					</g>
					<g>
						<path fill="#EFC92B" d="M387,541.2c-0.9,3-0.2,5.6,0.6,5.7c0.7,0.2,3.2-1.9,4.3-4.8c0.9-3,0.2-5.6-0.6-5.7
							C390.6,536.2,388,538.2,387,541.2"/>
						<path fill="#FFFFFF" d="M391.9,541.2c-1.1,3.2-3.7,5-4.5,4.6s-1.5-3.3-0.4-6.5s3.7-5,4.5-4.6
							C392.2,534.9,393,538.1,391.9,541.2"/>
					</g>
				</g>
			</g>
			<g>
				<path fill="#E09081" d="M492.4,565.9H492c-1.5,0-2.6,0.7-2.6,1.7v0.7c0,0.9,1.1,1.7,2.6,1.7h0.4V565.9z"/>
				<line fill="none" x1="491.1" y1="613.1" x2="491.1" y2="633.8"/>
				<g>
					<path fill="#404041" d="M503.1,637.9c-5.2,0-9.3,2.4-9.3,5.7l1.1,70.9v0.2c0,0.9,0.9,1.7,2,1.7h13.7c1.1,0,2-0.7,2-1.7
						c0,0,0,0,0-0.2l2.2-70.9C514.6,640.5,508.5,637.9,503.1,637.9z"/>
					<path fill="#F7C8B8" d="M492,722.4L492,722.4c0-2.4,2-4.3,4.3-4.3H510c2.4,0,4.3,2,4.3,4.3c0,2.4-2,4.3-4.3,4.3h-13.7
						C493.9,726.9,492,724.8,492,722.4"/>
					<path fill="#FFFFFF" d="M505,713.7h-3.5c-5.4,0-9.6,4.3-9.6,9.6v1.5v0.9l0,0c0,0.6,0.4,0.9,0.9,0.9h21c0.6,0,0.9-0.4,0.9-0.9
						l0,0v-0.9v-1.5C514.6,717.9,510.2,713.7,505,713.7"/>
					<path fill="#F0EFEF" d="M491.8,723.7v1.1v0.9l0,0c0,0.6,0.4,0.9,0.9,0.9h21c0.6,0,0.9-0.4,0.9-0.9l0,0v-0.9v-1.1H491.8z"/>
					<path fill="#404041" d="M527.4,637.9c-5.2,0-11.5,2.4-11.5,5.7l2.2,70.9v0.2c0,0.9,0.9,1.7,2,1.7h13.5c1.1,0,2-0.7,2-1.7
						c0,0,0,0,0-0.2l1.1-70.9C536.7,640.5,532.8,637.9,527.4,637.9z"/>
					<path fill="#F7C8B8" d="M516.3,722.4L516.3,722.4c0-2.4,2-4.3,4.3-4.3h13.7c2.4,0,4.3,2,4.3,4.3c0,2.4-2,4.3-4.3,4.3h-13.7
						C518.2,726.9,516.3,724.8,516.3,722.4"/>
					<path fill="#FFFFFF" d="M529.3,713.7h-3.5c-5.4,0-9.6,4.3-9.6,9.6v1.5v0.9l0,0c0,0.6,0.4,0.9,0.9,0.9h21c0.6,0,0.9-0.4,0.9-0.9
						l0,0v-0.9v-1.5C538.9,717.9,534.5,713.7,529.3,713.7"/>
					<path fill="#F0EFEF" d="M516.1,723.7v1.1v0.9l0,0c0,0.6,0.4,0.9,0.9,0.9h21c0.6,0,0.9-0.4,0.9-0.9l0,0v-0.9v-1.1H516.1z"/>
					<rect x="507.6" y="585.6" fill="#F7C8B8" width="14.6" height="11.7"/>
					<path fill="#F7C8B8" d="M529.3,660h-27.8c-4.8,0-8.9-5.2-8.9-11.3v-44.6c-0.2-5.2,3.7-8,8.9-10.2l8.2-3.3H521l8.2,3.3
						c5.2,2.8,8.7,4.6,8.9,10.2v44.6C538,654.8,534.1,660,529.3,660"/>
					<path fill="#E09081" d="M522.3,584.7h-14.7v3.3c2,1.9,4.6,3,7.2,3h0.2c2.6,0,5.2-1.1,7.2-3L522.3,584.7L522.3,584.7z"/>
					<path fill="#404041" d="M515.4,669.9L515.4,669.9c-11.9,0-21.7-12.1-21.7-26.9v-9c0-14.8,9.8-26.9,21.7-26.9
						s21.7,12.1,21.7,26.9v8.9C537.1,657.8,527.3,669.9,515.4,669.9"/>
					<path fill="#545454" d="M513.2,668.1c-4.5,0-8.7-1.3-12.4-3.5c4.1,3.3,9.1,5.4,14.5,5.4s10.6-2,14.5-5.4
						c-3.7,2.2-8,3.5-12.4,3.5H513.2z"/>
					<g>
						<path fill="#FFFFFF" d="M495.5,616.6l-10.2-3.9c-1.1-0.4-1.7-1.7-1.3-2.8l4.1-9.6c1.5-3.9,5.7-5.9,9.6-4.5l0,0
							c3.9,1.5,5.9,5.7,4.5,9.6l-4.1,9.6C498,616.4,496.7,617,495.5,616.6z"/>
					</g>
					<g>
						<path fill="#F7C8B8" d="M557.9,663L557.9,663c3.5-1.3,5.4-5.2,3.9-8.7l-19.9-52.6c-1.3-3.5-5.2-5.4-8.7-3.9l0,0
							c-3.5,1.3-5.4,5.2-3.9,8.7l19.8,52.6C550.3,662.6,554.3,664.3,557.9,663z"/>
						<path fill="#EFEFEF" d="M549.5,656.3l10.2-3.9c1.1-0.4,1.7-1.7,1.3-2.8l-18.9-49.4c-1.5-3.9-5.7-5.9-9.6-4.5l0,0
							c-3.9,1.5-5.9,5.7-4.5,9.6l18.9,49.4C547.3,656.1,548.6,656.7,549.5,656.3z"/>
					</g>
					<path fill="#A1CBDB" d="M530.2,593.4l-3.9-1.3c-2.6,4.1-6.5,6.7-10.9,6.7c-4.5,0-8.3-2.6-10.9-6.7l-3.9,1.3c-5,2-8.3,2-8.2,6.5
						v57.6h46.1v-57.6C538.2,594.9,535.4,595.8,530.2,593.4"/>
					<path fill="#723D25" d="M523.7,576.4H507c-8.3,0-15-6.9-15-15v-2.6c0-8.3,6.9-15,15-15h16.7c8.3,0,15,6.9,15,15v2.6
						C538.8,569.6,531.9,576.4,523.7,576.4"/>
					<ellipse fill="#723D25" cx="515.2" cy="561.1" rx="24.3" ry="26"/>
					<path fill="#F7C8B8" d="M515.2,589.5L515.2,589.5c-12.6,0-22.8-10.2-22.8-22.8s10.2-22.8,22.8-22.8s22.8,10.2,22.8,22.8
						S527.8,589.5,515.2,589.5"/>
					<path fill="#F7C8B8" d="M495.9,572.5h-4.6c-2.6,0-4.6-2-4.6-4.6s2-4.6,4.6-4.6h4.6c2.6,0,4.6,2,4.6,4.6
						S498.3,572.5,495.9,572.5"/>
					<path fill="#F7C8B8" d="M534.9,572.5h4.6c2.6,0,4.6-2,4.6-4.6s-2-4.6-4.6-4.6h-4.6c-2.6,0-4.6,2-4.6,4.6
						C530.3,570.5,532.3,572.5,534.9,572.5"/>
					<path fill="#723D25" d="M530.8,548.1c0,0-1.1,5.4,2,8.7c3.3,3.3,3.7,10.8,3.7,10.8s2-1.7,1.7-5.9
						C537.6,557.2,535.8,550.1,530.8,548.1z"/>
					<path fill="#723D25" d="M499.6,548.1c0,0,1.1,5.4-2,8.7c-3.3,3.3-3.7,10.8-3.7,10.8s-2-1.7-1.7-5.9
						C492.8,557.2,494.6,550.1,499.6,548.1z"/>
					<path fill="#E09081" d="M538.2,565.9h0.4c1.5,0,2.6,0.7,2.6,1.7v0.7c0,0.9-1.1,1.7-2.6,1.7h-0.4V565.9z"/>
					<path fill="#8A2D22" d="M524.3,576.6h-8.5h-0.6h-8.5c0,0-1.5,0-0.9,1.7c0,0,1.9,5.4,9.5,5.6l0,0h0.2h0.2l0,0
						c7.6-0.2,9.5-5.6,9.5-5.6C525.6,576.6,524.3,576.6,524.3,576.6"/>
					<path fill="#DA6766" d="M515.4,580.6c-1.9,0-3.5,1.1-4.5,2.6c1.1,0.4,2.6,0.7,4.1,0.7l0,0h0.2h0.2l0,0c1.7,0,3-0.4,4.1-0.7
						C518.9,581.5,517.2,580.6,515.4,580.6"/>
					<path fill="#E19080" d="M515.2,572.2c-1.3,0-2.2-0.6-2.8-1.3v0.2c0,1.3,1.3,2.2,2.8,2.2s2.8-0.9,2.8-2.2v-0.2
						C517.4,571.6,516.3,572.2,515.2,572.2"/>
					<path fill="#754548" d="M505.4,567.2c1.1,0,2,0.2,3,0.6v-0.4c0-1.7-1.3-3-3-3s-3,1.3-3,3v0.4l0,0
						C503.1,567.4,504.3,567.2,505.4,567.2"/>
					<path fill="#754548" d="M525.2,567.2c1.1,0,2,0.2,3,0.6v-0.4c0-1.7-1.3-3-3-3s-3,1.3-3,3v0.4
						C523,567.4,524.1,567.2,525.2,567.2"/>
					<path fill="#F5B0A4" d="M502,572c0,1.5-1.3,2.8-2.8,2.8c-1.7,0-2.8-1.3-2.8-2.8s1.3-2.8,2.8-2.8C500.7,569,502,570.3,502,572"
						/>
					<path fill="#F5B0A4" d="M534.1,572c0,1.5-1.3,2.8-2.8,2.8c-1.7,0-2.8-1.3-2.8-2.8s1.3-2.8,2.8-2.8
						C532.8,569,534.1,570.3,534.1,572"/>
					<path fill="#FFFFFF" d="M515.6,576.6H515h-5.6c0.7,1.5,2.2,2.6,4.1,2.6h3.3c1.9,0,3.3-1.1,4.1-2.6H515.6z"/>
					<g>
						<g>
							<polygon opacity="0.3" fill="#FFFFFF" enable-background="new    " points="525.2,573.5 522.3,573.5 526.7,560.9 
								529.7,560.9 							"/>
							<path fill="none" stroke="#6B6B6B" stroke-width="2.6714" stroke-miterlimit="10" d="M533,569.8c0,2-1.7,3.7-3.7,3.7h-6.5
								c-2,0-3.3-1.7-3.7-3.7l-0.9-5.2c0-2,1.7-3.7,3.7-3.7h7.6c2,0,3.7,1.7,3.7,3.7L533,569.8z"/>
						</g>
						<g>
							<polygon opacity="0.3" fill="#FFFFFF" enable-background="new    " points="505.2,573.5 508.2,573.5 503.7,560.9 
								500.7,560.9 							"/>
							<path fill="none" stroke="#6B6B6B" stroke-width="2.6714" stroke-miterlimit="10" d="M497.4,569.8c0,2,1.7,3.7,3.7,3.7h6.5
								c2,0,3.3-1.7,3.7-3.7l0.9-5.2c0-2-1.7-3.7-3.7-3.7h-7.6c-2,0-3.7,1.7-3.7,3.7L497.4,569.8z"/>
						</g>
						
							<line fill="none" stroke="#6B6B6B" stroke-width="2.5623" stroke-miterlimit="10" x1="511.3" y1="566.2" x2="519.1" y2="566.2"/>
						
							<line fill="none" stroke="#6B6B6B" stroke-width="2.6714" stroke-miterlimit="10" x1="533.2" y1="564.6" x2="539.7" y2="562.9"/>
						
							<line fill="none" stroke="#6B6B6B" stroke-width="2.6714" stroke-miterlimit="10" x1="497" y1="564.6" x2="490.7" y2="562.9"/>
					</g>
					<g>
						<path fill="#F6F8F9" d="M506.9,604.7c0,0,2.6,13.5,2.8,20.4c0.2,6.9,0,72.2,0,72.2s-18.5-0.2-21.7-2.2s-2.2-4.6-2-8.3
							s3.9-65,3.9-65l2.2-23.4L506.9,604.7z"/>
						<path fill="#F6F8F9" d="M503.9,591.9c0,0-5.4,2-7.6,2.8c-2.2,0.7-5.7,0.7-4.8,8.5c0.9,7.8,10.9,0.4,10.9,0.4l1.1-10.2
							L503.9,591.9z"/>
					</g>
					<path fill="#D0D2D3" d="M488.2,642.4c0,0,6.7,13,21.3,12.4v-12.1l-21.1-2.8L488.2,642.4z"/>
					<path fill="#A1CBDB" d="M522.3,591.9c0,0-1.1,3-7.2,3.3c-6.1-0.4-7.2-3.3-7.2-3.3l-4.8,2.4v13.9h12.1h12.1v-13.9L522.3,591.9z"
						/>
					<polygon fill="#F6F8F9" points="505.2,596.9 507.4,608.6 501.1,608.6 501.1,592.9 503.9,591.9 505.6,591.2 					"/>
					<path fill="#376DB4" d="M517.6,598.2l-1.5-3.2l-1.1,0.2l-1.1-0.2l-1.5,3.2c0,0,0.2,2,1.3,2.6l-1.3,7.8h2.6h2.6l-1.3-7.8
						C517.4,600.3,517.6,598.2,517.6,598.2"/>
					<polygon fill="#F6F8F9" points="524.7,596.9 522.4,608.6 528.7,608.6 528.7,592.9 526,591.9 524.1,591.2 					"/>
					<path fill="#BCE0ED" d="M513.9,595.3l-2.6,5c0,0-3-2-5-4.3c0,0-1.7-1.7-0.7-3.3l2-2C507.6,590.5,508.3,594.2,513.9,595.3"/>
					<polygon fill="#DCDCE0" points="506.3,595.8 505.9,599.5 504.6,600.8 504.3,597.9 					"/>
					<path fill="#ADAFAF" d="M500.9,609.9c0.2-5.6,0.6-13.4,5.2-17.1c0.9-0.7-0.4-2-1.3-1.3c-5,4.1-5.6,12.4-5.7,18.4
						C499.1,611,500.9,611,500.9,609.9"/>
					<path fill="#F5F6F7" d="M506.3,592.5c0,0-0.9,2,0,3.3c0,0-1.7,3-1.7,5c0,0-0.7,0.4-0.7-0.7c0,0-0.9-4.6,0-7c0,0,0.7-1.3,2-2.4
						l1.7-0.9v0.7L506.3,592.5z"/>
					<path fill="#BCE0ED" d="M515.9,595.3l2.6,5c0,0,3-2,5-4.3c0,0,1.7-1.7,0.7-3.3l-2-2C522.3,590.5,521.7,594.2,515.9,595.3"/>
					<polygon fill="#DCDCE0" points="523.7,595.8 523.9,599.5 525.4,600.8 525.6,597.9 					"/>
					<path fill="#F6F8F9" d="M523,604.7c0,0-2.6,13.5-2.8,20.4s0,72.2,0,72.2s18.5-0.2,21.7-2.2c3.2-2.2,2.2-4.6,2-8.3
						s-3.9-65-3.9-65l-2.2-23.4L523,604.7z"/>
					<path fill="#376DB4" d="M512.6,607c0,0-1.5,10.9-1.7,11.7c-0.2,0.7,2.8,3.9,3.3,4.5c0.6,0.6,3.9-3.2,4.3-3.9
						c0.2-0.6,0.4-1.1,0-3.2c-0.2-1.1-1.1-8.5-1.1-8.5L512.6,607z"/>
					<path fill="#F6F8F9" d="M526,591.9c0,0,5.4,2,7.6,2.8c2.2,0.8,5.7,0.7,4.8,8.5s-10.9,0.4-10.9,0.4l-1.1-10.2L526,591.9z"/>
					<path fill="#D0D2D3" d="M494.6,604c0,0,3.9,13.4,8.3,17.2c4.5,3.9-1.1,4.6-1.1,4.6l-6.1-4.6L494.6,604z"/>
					<g>
						<path fill="#ADAFAF" d="M523.9,592.9c3.5,2.2,3.2,6.7,3.3,10.4c0,1.1,1.9,1.1,1.9,0c0-4.5,0-9.3-4.1-11.9
							C523.7,590.8,523,592.3,523.9,592.9"/>
						<path fill="#ADAFAF" d="M523.9,616.8c-1.3,0-0.9-1.1-0.7-1.9c0.2-1.3,0.6-2.6,0.7-3.9c0.2-1.1,0.4-2.4,0.6-3.5
							c0-0.4,0.2-0.9,0.4-1.5c0.7-1.5,3-1.9,4.5-1.7c1.9,0.4,2.6,1.5,3,3.2c0.2,1.3,0.6,2.6,0.7,4.1c0.2,1.3,1.9,5.2-0.6,5.2
							c-1.1,0-1.1,1.7,0,1.9c2.8,0,3.3-2,2.8-4.3c-0.6-2.6-0.9-5.4-1.7-8c-0.9-4.3-7.6-4.8-10-1.7c-0.7,0.9-0.7,2-1.1,3.3
							c-0.4,1.7-0.6,3.3-0.9,4.8c-0.4,2.4-1.1,5.6,2.2,5.7C525,618.6,525,616.8,523.9,616.8"/>
					</g>
					<g>
						<path fill="#6D6E70" d="M524.7,637.9l-24.1-4.6c-1.1-0.2-1.7-1.3-1.5-2.2l5.2-26.7c0.2-1.1,1.3-1.7,2.2-1.5l24.1,4.6
							c1.1,0.2,1.7,1.3,1.5,2.2l-5.2,26.7C526.9,637.4,525.8,638.1,524.7,637.9"/>
						<path fill="#929497" d="M506.1,606.6l23.4,4.6c3.9,0.7,4.8-3.7,0.9-4.5l-23.4-4.6C503.1,601.4,502.2,605.8,506.1,606.6"/>
						<path fill="#F6F8F9" d="M521.9,618.8l-11.5-2.2c-0.7-0.2-1.1-0.7-1.1-1.5l0.2-1.3c0.2-0.7,0.7-1.1,1.5-1.1l11.5,2.2
							c0.7,0.2,1.1,0.7,1.1,1.5l-0.2,1.3C523.2,618.6,522.6,619,521.9,618.8"/>
					</g>
					<path fill="#F7C8B8" d="M529.3,634.2l-1.9,0.4l2.4,13.7l1.9-0.4c3.5-0.6,5.9-4.3,5.2-8C536.3,636.1,533,633.5,529.3,634.2"/>
					<path fill="#F6F8F9" d="M481.5,613.8c1.1-10.2,9.1-16.9,9.1-16.9l2.4,1.5l3,10.6c0.9,3.3,3.2,10.6,4.5,12.8
						c4.3,7,28,10.8,28,10.8c0,4.6,0.9,6.7,2.8,16.9c0,0-28.9,4.6-36.5-1.1C479.5,636.4,481.5,613.8,481.5,613.8"/>
					<path fill="#F5F6F7" d="M523.7,592.5c0,0,0.9,2,0,3.3c0,0,1.7,3,1.7,5c0,0,0.7,0.4,0.7-0.7c0,0,0.9-4.6,0-7c0,0-0.7-1.3-2-2.4
						l-1.7-0.9v0.7L523.7,592.5z"/>
				</g>
				<g>
					<path fill="#723D25" d="M490.5,563.3v-5.6c0-13.7,10.9-22.8,24.5-22.8c13.5,0,24.5,9.1,24.5,22.8v5.6l-2.6,0.4l-1.3-7.2
						l-21.1-8.2l-20.8,8l-0.7,7.2L490.5,563.3z"/>
					<polygon fill="#723D25" points="536.7,556.4 524.1,556.4 519.7,552.5 519.3,556.4 493.5,556.2 499.3,544 532.4,544 					"/>
					<polygon fill="#723D25" points="514.8,534.9 508.7,532.1 510.6,536.4 					"/>
					<polygon fill="#723D25" points="517.2,535.5 517.2,533 512.4,535.5 					"/>
				</g>
			</g>
			<g>
				<path fill="#044668" d="M279.8,637.9c-5.2,0-9.3,2.4-9.3,5.7l1.1,70.9v0.2c0,0.9,0.9,1.7,2,1.7h13.5c1.1,0,2-0.7,2-1.7
					c0,0,0,0,0-0.2l2.2-70.9C291.3,640.5,285.1,637.9,279.8,637.9z"/>
				<path fill="#F7C8B8" d="M268.6,722.4L268.6,722.4c0-2.4,2-4.3,4.3-4.3h13.7c2.4,0,4.3,2,4.3,4.3c0,2.4-2,4.3-4.3,4.3h-13.7
					C270.5,726.9,268.6,724.8,268.6,722.4"/>
				<path fill="#212120" d="M281.6,713.7h-3.5c-5.4,0-9.6,4.3-9.6,9.6v1.5v0.9l0,0c0,0.6,0.4,0.9,0.9,0.9h21c0.6,0,0.9-0.4,0.9-0.9
					l0,0v-0.9v-1.5C291.3,717.9,286.8,713.7,281.6,713.7"/>
				<path fill="#404041" d="M268.5,723.7v1.1v0.9l0,0c0,0.6,0.4,0.9,0.9,0.9h21c0.6,0,0.9-0.4,0.9-0.9l0,0v-0.9v-1.1H268.5z"/>
				<path fill="#044668" d="M304.1,637.9c-5.2,0-11.5,2.4-11.5,5.7l2.2,70.9v0.2c0,0.9,0.9,1.7,2,1.7h13.5c1.1,0,2-0.7,2-1.7
					c0,0,0,0,0-0.2l1.1-70.9C313.4,640.5,309.4,637.9,304.1,637.9z"/>
				<path fill="#F7C8B8" d="M292.9,722.4L292.9,722.4c0-2.4,2-4.3,4.3-4.3h13.7c2.4,0,4.3,2,4.3,4.3c0,2.4-2,4.3-4.3,4.3h-13.7
					C295,726.9,292.9,724.8,292.9,722.4"/>
				<path fill="#212120" d="M305.9,713.7h-3.5c-5.4,0-9.6,4.3-9.6,9.6v1.5v0.9l0,0c0,0.6,0.4,0.9,0.9,0.9h21c0.6,0,0.9-0.4,0.9-0.9
					l0,0v-0.9v-1.5C315.7,717.9,311.1,713.7,305.9,713.7"/>
				<path fill="#404041" d="M292.7,723.7v1.1v0.9l0,0c0,0.6,0.4,0.9,0.9,0.9h21c0.6,0,0.9-0.4,0.9-0.9l0,0v-0.9v-1.1H292.7z"/>
				<rect x="284.2" y="585.6" fill="#F7C8B8" width="14.6" height="11.7"/>
				<path fill="#F7C8B8" d="M305.9,660h-27.8c-4.8,0-8.9-5.2-8.9-11.3v-44.6c-0.2-5.2,3.7-8,8.9-10.2l8.2-3.3h11.3l8.2,3.3
					c5.2,2.8,8.7,4.6,8.9,10.2v44.6C314.7,654.8,310.7,660,305.9,660"/>
				<polygon fill="#002C3F" points="290.9,597.5 291.1,598.8 287.7,599.5 286.4,598.1 288.1,596 				"/>
				<polygon fill="#002C3F" points="292.7,597.5 292.6,598.8 295.9,599.5 297.4,598.1 295.5,596 				"/>
				<path fill="#E09081" d="M298.9,584.7h-14.6v3.3c2,1.9,4.6,3,7.2,3h0.2c2.6,0,5.2-1.1,7.2-3L298.9,584.7L298.9,584.7z"/>
				<path fill="#044668" d="M292,669.9L292,669.9c-11.9,0-21.7-5.2-21.7-26.9v-9c0-14.8,9.8-26.9,21.7-26.9s21.7,12.1,21.7,26.9v8.9
					C313.8,666.7,303.9,669.9,292,669.9"/>
				<path fill="#013951" d="M289.8,668.1c-4.5,0-8.7-1.3-12.4-3.5c4.1,3.3,9.1,5.4,14.5,5.4s10.6-2,14.5-5.4
					c-3.7,2.2-8,3.5-12.4,3.5H289.8z"/>
				<g>
					<path fill="#F7C8B8" d="M249.2,663L249.2,663c-3.5-1.3-5.4-5.2-3.9-8.7l19.8-52.6c1.3-3.5,5.2-5.4,8.7-3.9l0,0
						c3.5,1.3,5.4,5.2,3.9,8.7L258,659.1C256.8,662.6,252.7,664.3,249.2,663z"/>
					<path fill="#044668" d="M257.5,657.2l-10.2-3.9c-1.1-0.4-1.7-1.7-1.3-2.8l18.7-50.4c1.5-3.9,5.7-5.9,9.6-4.5l0,0
						c3.9,1.5,5.9,5.7,4.5,9.6l-18.7,50.4C259.7,657,258.6,657.6,257.5,657.2z"/>
					<polygon fill="#013448" points="269.2,622.3 260.3,655.4 269.2,632 					"/>
				</g>
				<g>
					<path fill="#F7C8B8" d="M334.6,663L334.6,663c3.5-1.3,5.4-5.2,3.9-8.7l-19.9-52.6c-1.3-3.5-5.2-5.4-8.7-3.9l0,0
						c-3.5,1.3-5.4,5.2-3.9,8.7l19.8,52.6C327.2,662.6,331,664.3,334.6,663z"/>
					<path fill="#044668" d="M326.4,657.2l10.2-3.9c1.1-0.4,1.7-1.7,1.3-2.8L319,600.2c-1.5-3.9-5.7-5.9-9.6-4.5l0,0
						c-3.9,1.5-5.9,5.7-4.5,9.6l18.9,50.4C324,657,325.3,657.6,326.4,657.2z"/>
					<polygon fill="#013448" points="314.9,623.1 322.1,652 314.9,632.7 					"/>
				</g>
				<path fill="#044668" d="M306.7,593.4l-5.7-2.2c-1.3,2-0.9,4.5-2.8,5.6s-4.1,1.9-6.3,1.9c-4.5,0-8.3-2.6-10.9-6.7l-3.9,1.3
					c-5,2-8.3,2-8.2,6.5v57.6h45.9v-57.6C314.7,594.9,311.9,595.8,306.7,593.4"/>
				<path fill="#723D25" d="M300.3,576.4h-16.7c-8.3,0-15-6.9-15-15v-2.6c0-8.3,6.9-15,15-15h16.7c8.3,0,15,6.9,15,15v2.6
					C315.5,569.6,308.5,576.4,300.3,576.4"/>
				<ellipse fill="#7A474D" cx="291.8" cy="561.1" rx="24.3" ry="26"/>
				<path fill="#F7C8B8" d="M291.8,589.5L291.8,589.5c-12.6,0-22.8-10.2-22.8-22.8s10.2-22.8,22.8-22.8s22.8,10.2,22.8,22.8
					C314.7,579.3,304.4,589.5,291.8,589.5"/>
				<path fill="#7A474D" d="M274.2,556.8c0,0,10-1.9,35.4,0l3.2-3.2l-10.4-5.9h-27.1C275.3,547.7,267.2,549.4,274.2,556.8z"/>
				<path fill="#F7C8B8" d="M272.5,572.5h-4.6c-2.6,0-4.6-2-4.6-4.6s2-4.6,4.6-4.6h4.6c2.6,0,4.6,2,4.6,4.6S275.1,572.5,272.5,572.5
					"/>
				<path fill="#E09081" d="M269.2,565.9h-0.4c-1.5,0-2.6,0.7-2.6,1.7v0.7c0,0.9,1.1,1.7,2.6,1.7h0.4V565.9z"/>
				<path fill="#F7C8B8" d="M311.6,572.5h4.6c2.6,0,4.6-2,4.6-4.6s-2-4.6-4.6-4.6h-4.6c-2.6,0-4.6,2-4.6,4.6
					C306.9,570.5,308.9,572.5,311.6,572.5"/>
				<path fill="#7A474D" d="M307.4,548.1c0,0-1.1,5.4,2,8.7c3.3,3.3,3.7,10.8,3.7,10.8s2-1.7,1.7-5.9
					C314.4,557.2,312.5,550.1,307.4,548.1z"/>
				<path fill="#7A474D" d="M276.2,548.1c0,0,1.1,5.4-2,8.7c-3.3,3.3-3.7,10.8-3.7,10.8s-2-1.7-1.7-5.9
					C269.4,557.2,271.2,550.1,276.2,548.1z"/>
				<path fill="#E09081" d="M314.9,565.9h0.4c1.5,0,2.6,0.7,2.6,1.7v0.7c0,0.9-1.1,1.7-2.6,1.7h-0.4V565.9z"/>
				<path fill="#8A2D22" d="M300.9,576.6h-8.5h-0.6h-8.5c0,0-1.5,0-0.9,1.7c0,0,1.9,5.4,9.5,5.6l0,0h0.2h0.2l0,0
					c7.6-0.2,9.5-5.6,9.5-5.6C302.4,576.6,300.9,576.6,300.9,576.6"/>
				<path fill="#DA6766" d="M292,580.6c-1.9,0-3.5,1.1-4.5,2.6c1.1,0.4,2.6,0.7,4.1,0.7l0,0h0.2h0.2l0,0c1.7,0,3-0.4,4.1-0.7
					C295.5,581.5,294,580.6,292,580.6"/>
				<path fill="#E19080" d="M291.8,572.2c-1.3,0-2.2-0.6-2.8-1.3v0.2c0,1.3,1.3,2.2,2.8,2.2s2.8-0.9,2.8-2.2v-0.2
					C294,571.6,293.1,572.2,291.8,572.2"/>
				<path fill="#754548" d="M282,567.2c1.1,0,2,0.2,3,0.6v-0.4c0-1.7-1.3-3-3-3s-3,1.3-3,3v0.4l0,0
					C279.9,567.4,280.9,567.2,282,567.2"/>
				<path fill="#754548" d="M301.8,567.2c1.1,0,2,0.2,3,0.6v-0.4c0-1.7-1.3-3-3-3s-3,1.3-3,3v0.4
					C299.6,567.4,300.7,567.2,301.8,567.2"/>
				<path fill="#F5B0A4" d="M278.6,572c0,1.5-1.3,2.8-2.8,2.8c-1.7,0-2.8-1.3-2.8-2.8s1.3-2.8,2.8-2.8
					C277.4,569,278.6,570.3,278.6,572"/>
				<path fill="#F5B0A4" d="M310.7,572c0,1.5-1.3,2.8-2.8,2.8c-1.7,0-2.8-1.3-2.8-2.8s1.3-2.8,2.8-2.8
					C309.4,569,310.7,570.3,310.7,572"/>
				<path fill="#FFFFFF" d="M292.2,576.6h-0.6H286c0.7,1.5,2.2,2.6,4.1,2.6h3.3c1.9,0,3.3-1.1,4.1-2.6H292.2z"/>
				<polygon fill="#08638C" points="290.9,597.5 284.2,590.5 280.5,592.1 284.6,601.8 288.8,596.9 				"/>
				<polygon fill="#08638C" points="292.7,597.5 298.9,590.5 302.9,591.9 299,601.8 294.8,596.9 				"/>
				<g>
					<polygon fill="#212120" points="291.8,653.1 291.8,658.7 269.2,657.4 269,653.1 					"/>
					<polygon fill="#212120" points="291.8,653.1 291.8,658.7 314.9,657.4 314.9,653.1 					"/>
				</g>
				<g>
					<path fill="#002C3F" d="M308.5,554c0,5.2-7.6,9.5-17.1,9.5s-17.1-4.3-17.1-9.5s7.6-9.5,17.1-9.5S308.5,548.8,308.5,554"/>
					<path fill="#004C66" d="M281.8,561.8c1.7,0.6,3.5,1.1,5.6,1.3v-18.4c-2,0.2-3.9,0.7-5.6,1.3V561.8z"/>
					<path fill="#044668" d="M317.5,543.2c0,8-11.5,14.6-25.8,14.6s-25.8-6.5-25.8-14.6c0-8,11.5-14.6,25.8-14.6
						S317.5,535.1,317.5,543.2"/>
					<path fill="#FFEEA5" d="M302,547.3h-20.6c-0.2,0-0.2-0.2-0.2-0.2v-0.4c0-0.2,0.2-0.2,0.2-0.2H302c0.2,0,0.2,0.2,0.2,0.2v0.4
						C302.4,547.1,302.2,547.3,302,547.3"/>
					<path fill="#FFEEA5" d="M301.1,548.6h-18.5c-0.2,0-0.2-0.2-0.2-0.2V548c0-0.2,0.2-0.2,0.2-0.2h18.5c0.2,0,0.2,0.2,0.2,0.2v0.4
						C301.3,548.4,301.1,548.6,301.1,548.6"/>
					<path fill="#FFEEA5" d="M299.2,549.9h-15c-0.2,0-0.2-0.2-0.2-0.2v-0.4c0-0.2,0.2-0.2,0.2-0.2h15c0.2,0,0.2,0.2,0.2,0.2v0.4
						C299.4,549.9,299.4,549.9,299.2,549.9"/>
					<path fill="#FFDA3E" d="M295.7,548.3c0,2.2-1.9,4.1-4.1,4.1s-4.1-1.9-4.1-4.1c0-2.2,1.9-4.1,4.1-4.1S295.7,546,295.7,548.3"/>
					<path fill="#FFF7D2" d="M293.1,548.3c0,0.9-0.7,1.7-1.5,1.7c-0.9,0-1.5-0.7-1.5-1.7s0.7-1.7,1.5-1.7
						C292.6,546.8,293.1,547.5,293.1,548.3"/>
					<path fill="#FFDA3E" d="M275.3,553.6c0,0.6-0.4,0.9-0.9,0.9s-0.9-0.4-0.9-0.9s0.4-0.9,0.9-0.9
						C274.9,552.5,275.3,553.1,275.3,553.6"/>
					<path fill="#FFDA3E" d="M309.8,553.6c0,0.6-0.4,0.9-0.9,0.9s-0.9-0.4-0.9-0.9s0.4-0.9,0.9-0.9
						C309.2,552.5,309.8,553.1,309.8,553.6"/>
				</g>
				<g>
					<path fill="#FFDA3E" d="M272,594.7l-1.3,0.6l1.9,4.5c0.2,0.4,0.6,0.6,0.9,0.4c0.4-0.2,0.6-0.6,0.4-0.9L272,594.7z"/>
					<path fill="#FFDA3E" d="M273.8,594l-1.3,0.6l1.9,4.5c0.2,0.4,0.6,0.6,0.9,0.4c0.4-0.2,0.6-0.6,0.4-0.9L273.8,594z"/>
					<path fill="#FFDA3E" d="M275.5,593.2l-1.3,0.6l1.9,4.5c0.2,0.4,0.6,0.6,0.9,0.4c0.4-0.2,0.6-0.6,0.4-0.9L275.5,593.2z"/>
				</g>
				<g>
					<path fill="#FFDA3E" d="M311.6,594.7l1.3,0.6l-1.9,4.5c-0.2,0.4-0.6,0.6-0.9,0.4c-0.4-0.2-0.6-0.6-0.4-0.9L311.6,594.7z"/>
					<path fill="#FFDA3E" d="M309.6,594l1.3,0.6l-1.9,4.5c-0.2,0.4-0.6,0.6-0.9,0.4c-0.4-0.2-0.6-0.6-0.4-0.9L309.6,594z"/>
					<path fill="#FFDA3E" d="M307.9,593.2l1.3,0.6l-1.9,4.5c-0.2,0.4-0.6,0.6-0.9,0.4c-0.4-0.2-0.6-0.6-0.4-0.9L307.9,593.2z"/>
				</g>
				<path fill="#002C3F" d="M293.7,598.1l1.3,2.2c0.2,0.4,0.2,0.7,0,1.1l-1.3,2.2c0,0.2-0.4,0.2-0.6,0.2h-2.8
					c-0.2,0-0.4-0.2-0.6-0.2l-1.3-2.2c-0.2-0.4-0.2-0.7,0-1.1l1.3-2.2c0-0.2,0.4-0.2,0.6-0.2h2.8
					C293.5,597.7,293.7,597.9,293.7,598.1z"/>
				<polygon fill="#002C3F" points="290.3,603.2 286.8,634.8 292,643.1 297.4,634.8 293.5,603.2 				"/>
				<g>
					<path fill="#FFDA3E" d="M307.6,607.3c0.4,0,0.6,0.2,0.6,0.6c-0.2,5.2-3,8.7-5,8.7c-2.2,0-4.8-3.5-5-8.7c0-0.4,0.2-0.6,0.6-0.6
						c0.9-0.2,3-0.6,4.3-1.7c0.2-0.2,0.6-0.2,0.7,0C304.6,606.8,306.7,607.1,307.6,607.3z"/>
					<path fill="#FFEEA5" d="M302.9,615.5c-1.5,0-3.7-2.8-3.9-7.2c1.1-0.2,2.8-0.6,3.9-1.7c1.3,1.1,3,1.5,3.9,1.7
						C306.7,612.9,304.4,615.5,302.9,615.5z"/>
				</g>
			</g>
			<g>
				<path fill="#FACAB9" d="M605.1,669L605.1,669c3.5-0.9,5.7-4.6,4.8-8.2l-8.7-56.8c-0.9-3.5-4.6-5.7-8.2-4.8
					c-3.5,0.9-5.7,4.6-4.8,8.2l8.7,56.8C597.8,667.8,601.3,669.9,605.1,669"/>
				<path fill="#655296" d="M592.6,598.1c-4.3,1.1-7,5.6-5.9,9.8l2.8,18.2c0.2,0.7,0.9,1.3,1.7,1.1l13.2-2.2c0.2,0,0.4,0,0.6-0.2
					c0.2-0.2,0.4-0.2,0.6-0.4c0.2-0.4,0.4-0.7,0.2-1.1l-3-19.3l0,0C601.3,599.7,597.1,596.9,592.6,598.1"/>
				<g>
					<path fill="#FACAB9" d="M630.6,668.8L630.6,668.8c-3.5-0.7-5.9-4.5-5-8l7.2-57c0.7-3.5,4.5-5.9,8-5s5.9,4.5,5,8l-7.2,57
						C637.7,667.2,634.2,669.5,630.6,668.8"/>
					<path fill="#655296" d="M641,597.5c4.5,0.9,7,5.4,6.1,9.6l-2.2,18.4c-0.2,0.7-0.9,1.3-1.7,1.1l-13.2-1.9c-0.2,0-0.4,0-0.6-0.2
						c-0.2-0.2-0.4-0.2-0.6-0.4c-0.2-0.4-0.4-0.7-0.2-1.1l2.4-19.5l0,0C632.3,599.4,636.6,596.6,641,597.5"/>
				</g>
				<path fill="#FACAB9" d="M613.4,723L613.4,723v-70.2c0-4.5-3.7-8.2-8.3-8.2s-8.3,3.7-8.3,8.2v70l0,0h16.7v0.2H613.4z"/>
				<path fill="#FACAB9" d="M637.7,723L637.7,723v-70.2c0-4.5-3.7-8.2-8.3-8.2s-8.3,3.7-8.3,8.2v70l0,0h16.6V723z"/>
				<rect x="609.5" y="586" fill="#FACAB9" width="14.6" height="11.7"/>
				<path fill="#FACAB9" d="M630.5,660.2H604c-4.6,0-8.3-5.2-8.3-11.3v-44.3c-0.2-5.2,3.5-8,8.3-10.2l7.8-3.3h10.8l7.8,3.3
					c4.8,2.8,8.2,4.6,8.3,10.2v44.3C639,655,635.1,660.2,630.5,660.2"/>
				<path fill="#E39384" d="M624.2,585.3h-14.6v3.3c2,1.9,4.6,3,7.2,3h0.2c2.6,0,5.2-1.1,7.2-3L624.2,585.3L624.2,585.3z"/>
				<path fill="#723D25" d="M617.3,585.4H616c-13.7,0-24.8-11.1-24.8-24.7V560c0-13.5,11.1-24.7,24.8-24.7h1.3
					c13.7,0,24.8,11.1,24.8,24.7v0.7C642,574.2,630.8,585.4,617.3,585.4"/>
				<path fill="#723D25" d="M600.1,583.2c0,0,2.6-3.7,0-7c-1.7-2.2-4.8-3.3-7.2-3c0,0-2.4,0.2-4.5,2c-1.1,1.1-2.4,3.2-3,5.2
					c0,0-1.1,6.5-3,7c0,0-1.5,0.2-0.6,0.9c0.2,0.2,1.3,0.6,2.6,0.7c1.1,0.2,2.4,0.4,3.9,0.2C596.3,589.2,600.1,583.2,600.1,583.2"/>
				<path fill="#723D25" d="M633.8,583.2c0,0-2.6-3.7,0-7c1.7-2.2,4.8-3.3,7.2-3c0,0,2.4,0.2,4.5,2c1.1,1.1,2.4,3.2,3,5.2
					c0,0,1.1,6.5,3,7c0,0,1.5,0.2,0.6,0.9c-0.2,0.2-1.3,0.6-2.6,0.7c-1.1,0.2-2.4,0.4-3.9,0.2C637.7,589.2,633.8,583.2,633.8,583.2"
					/>
				<path fill="#FACAB9" d="M597.6,572.9H593c-2.6,0-4.6-2-4.6-4.6s2-4.6,4.6-4.6h4.6c2.6,0,4.6,2,4.6,4.6
					C602.2,570.9,600.2,572.9,597.6,572.9"/>
				<path fill="#E39384" d="M594.3,566.4h-0.4c-1.5,0-2.6,0.7-2.6,1.7v0.7c0,0.9,1.1,1.7,2.6,1.7h0.4V566.4z"/>
				<path fill="#FACAB9" d="M636.6,572.9h4.6c2.6,0,4.6-2,4.6-4.6s-2-4.6-4.6-4.6h-4.6c-2.6,0-4.6,2-4.6,4.6
					S634.2,572.9,636.6,572.9"/>
				<path fill="#E39384" d="M640.1,566.4h0.4c1.5,0,2.6,0.7,2.6,1.7v0.7c0,0.9-1.1,1.7-2.6,1.7h-0.4V566.4z"/>
				<path fill="#FACAB9" d="M616.9,590.1L616.9,590.1c-12.6,0-22.8-10.2-22.8-22.8s10.4-22.8,22.8-22.8c12.6,0,22.8,10.2,22.8,22.8
					C639.9,579.7,629.5,590.1,616.9,590.1"/>
				<path fill="#723D25" d="M641.2,555.7c-1.7-11.7-11.9-20.6-24.3-20.6c-12.4,0-22.8,8.9-24.3,20.6H641.2z"/>
				<path fill="#723D25" d="M624.5,554.7c0,0-1.1,8.5-8,9.1h-24.1c0,0-0.9-5,0.4-10.4L624.5,554.7z"/>
				<path fill="#723D25" d="M623.4,554.7c0,0,1.1,9.1,6.7,9.1H641c0,0,0.4-5-0.2-10.4L623.4,554.7z"/>
				<path fill="#E39382" d="M616.9,572.5c-1.3,0-2.2-0.6-2.8-1.3v0.2c0,1.3,1.3,2.2,2.8,2.2s2.8-0.9,2.8-2.2l0,0
					C619.3,572.2,618.2,572.5,616.9,572.5"/>
				<path fill="#754448" d="M607.1,568.7c1.1,0,2,0.2,3,0.6v-0.4c0-1.7-1.3-3-3-3s-3,1.3-3,3v0.4l0,0
					C605.1,568.8,606,568.7,607.1,568.7"/>
				<path fill="#754448" d="M626.9,568.7c1.1,0,2,0.2,3,0.6l0,0v-0.4c0-1.7-1.3-3-3-3s-3,1.3-3,3v0.4
					C624.9,568.8,625.8,568.7,626.9,568.7"/>
				<path fill="#F8B3A7" d="M607.7,573.5c0,1.5-1.3,2.8-2.8,2.8c-1.7,0-2.8-1.3-2.8-2.8s1.3-2.8,2.8-2.8S607.7,571.8,607.7,573.5"/>
				<path fill="#F8B3A7" d="M631.9,573.5c0,1.5-1.3,2.8-2.8,2.8c-1.7,0-2.8-1.3-2.8-2.8s1.3-2.8,2.8-2.8
					C630.6,570.7,631.9,571.8,631.9,573.5"/>
				<path fill="#FDF2F7" d="M621.2,704.6v15.8l0,0h16.5l0,0v-15.8H621.2z"/>
				<path fill="#FDF2F7" d="M596.9,704.6v15.8l0,0h16.5l0,0v-15.8H596.9z"/>
				<path fill="#FACAB9" d="M593.9,722.4L593.9,722.4c0-2.4,2-4.3,4.3-4.3h13.7c2.4,0,4.3,1.9,4.3,4.3c0,2.4-2,4.3-4.3,4.3h-13.7
					C596,726.9,593.9,724.8,593.9,722.4"/>
				<path fill="#655296" d="M606.9,713.7h-3.5c-5.4,0-9.6,4.3-9.6,9.6v1.5v0.9l0,0c0,0.6,0.4,0.9,0.9,0.9h20.8
					c0.6,0,0.9-0.4,0.9-0.9l0,0v-0.9v-1.5C616.6,717.9,612.1,713.7,606.9,713.7"/>
				<path fill="#775DA7" d="M593.7,723.7v1.1v0.9l0,0c0,0.6,0.4,0.9,0.9,0.9h20.8c0.6,0,0.9-0.4,0.9-0.9l0,0v-0.9v-1.1H593.7z"/>
				<path fill="#FACAB9" d="M618.2,722.4L618.2,722.4c0-2.4,2-4.3,4.3-4.3h13.7c2.4,0,4.3,1.9,4.3,4.3c0,2.4-2,4.3-4.3,4.3h-13.7
					C620.1,726.9,618.2,724.8,618.2,722.4"/>
				<path fill="#655296" d="M631.2,713.7h-3.5c-5.4,0-9.6,4.3-9.6,9.6v1.5v0.9l0,0c0,0.6,0.4,0.9,0.9,0.9h20.7
					c0.6,0,0.9-0.4,0.9-0.9l0,0v-0.9v-1.5C640.8,717.9,636.4,713.7,631.2,713.7"/>
				<path fill="#775DA7" d="M618,723.7v1.1v0.9l0,0c0,0.6,0.4,0.9,0.9,0.9h20.8c0.6,0,0.9-0.4,0.9-0.9l0,0v-0.9v-1.1H618z"/>
				<path fill="#775DA7" d="M640.1,640.3h-45.9l-7.8,25c6.1,7.6,11.9,8.3,30.8,8.3c18.9,0,24.3-0.6,30.4-8.2L640.1,640.3z"/>
				<path fill="#F59C9E" d="M640.3,640.1L640.3,640.1C640.3,640.1,640.1,640.1,640.3,640.1L640.3,640.1z"/>
				<path fill="#F59C9E" d="M594.3,640.1L594.3,640.1L594.3,640.1L594.3,640.1z"/>
				<path fill="#F59C9E" d="M617.3,644.4c8.3,0,16.1-1.5,23-4.1h-45.9C601.2,642.9,609,644.4,617.3,644.4"/>
				<path fill="#8B2C22" d="M625.8,577.2h-8.5h-0.6h-8.5c0,0-1.5,0-0.9,1.7c0,0,1.9,5.4,9.5,5.6l0,0h0.2h0.2l0,0
					c7.6-0.2,9.5-5.6,9.5-5.6C627.1,577.2,625.8,577.2,625.8,577.2"/>
				<path fill="#DD6766" d="M616.9,581c-1.9,0-3.5,1.1-4.5,2.6c1.1,0.4,2.6,0.7,4.1,0.7l0,0h0.2h0.2l0,0c1.7,0,3-0.4,4.1-0.7
					C620.4,582.1,618.8,581,616.9,581"/>
				<path fill="#FFFFFF" d="M617.1,577.2h-0.6h-5.6c0.7,1.5,2.2,2.6,4.1,2.6h3.3c1.9,0,3.3-1.1,4.1-2.6H617.1z"/>
				<g>
					<polygon fill="#775DA7" points="616.7,527.5 614,526.2 604.1,540.5 629.4,540.5 619.3,526.2 					"/>
					<path fill="#775DA7" d="M616.7,546.8c6.9,0,12.4-2.8,12.6-6.3h-25.2C604.3,544,609.9,546.8,616.7,546.8"/>
					<polygon fill="#FFEEA5" points="616.6,537.1 609.7,531.8 609,532.5 616.6,538.6 624.2,532.5 623.6,531.8 					"/>
					<path fill="#8172B3" d="M630.5,540.3l-1.5-2.4c-2.2,2.2-6.9,3.9-12.2,3.9s-10-1.7-12.2-3.9l-1.5,2.4l0,0l0,0l0,0
						c0.2,3.9,6.3,7,13.9,7C624.2,547.1,630.3,544.2,630.5,540.3L630.5,540.3L630.5,540.3L630.5,540.3"/>
				</g>
				<rect x="605.6" y="602.7" fill="#FFFFFF" width="23.2" height="13.2"/>
				<path fill="#775DA7" d="M633.8,595.5l-2.8-0.9l-13.7,18.2l-13.4-19.7l-1.7,0.9c-5,2.4-8.3,2.4-8.2,7.6V657h46v-55.5
					C639.9,595.8,638.8,597.7,633.8,595.5z"/>
				<g>
					<path fill="#61479C" d="M602.1,594.7c2.8,0,5.2-1.5,5.2-2.2s-2.2-2.4-5.2-2.4c-2.8,0-4.5,2-5.2,2.2
						C596.2,592.7,599.1,594.7,602.1,594.7"/>
					<path fill="#775DA7" d="M602.3,591.2c2,2,4.8,2.6,5.4,2c0.6-0.6,0-3.3-2.2-5.4c-2-2-4.5-1.5-5.4-2
						C599.5,585.6,600.2,589.3,602.3,591.2"/>
					<path fill="#775DA7" d="M624.2,591c0,0-5,4.3-14.6,0v-0.9c0,0-0.4,0-1.3,0.4c-0.9,0.4-2.2,2.6-2.2,2.6s3,3,10,4.5
						c0,0,6.5,0.9,13.9-3.5c0,0,0-1.9-5.6-4.5v0.9v0.6L624.2,591L624.2,591L624.2,591z"/>
				</g>
				<polygon fill="#655296" points="594.3,640.3 617.3,646.3 640.3,640.5 640.5,641.3 617.3,647.4 594.1,641.3 				"/>
				<g>
					<circle fill="#655296" cx="615.4" cy="618.6" r="1.3"/>
					<circle fill="#655296" cx="615.1" cy="618.5" r="1.3"/>
					
						<ellipse transform="matrix(-0.3677 0.93 -0.93 -0.3677 1415.3245 274.0168)" fill="#6F5FA0" cx="614.5" cy="618.2" rx="0.6" ry="0.4"/>
				</g>
				<g>
					<circle fill="#655296" cx="615.4" cy="629" r="1.3"/>
					<circle fill="#655296" cx="615.1" cy="628.8" r="1.3"/>
					
						<ellipse transform="matrix(-0.3677 0.93 -0.93 -0.3677 1425.0823 288.2674)" fill="#6F5FA0" cx="614.5" cy="628.6" rx="0.6" ry="0.4"/>
				</g>
				<g>
					<circle fill="#655296" cx="615.4" cy="639.6" r="1.3"/>
					<circle fill="#655296" cx="615.1" cy="639.2" r="1.3"/>
					
						<ellipse transform="matrix(-0.3677 0.93 -0.93 -0.3677 1434.8397 302.5179)" fill="#6F5FA0" cx="614.6" cy="639.1" rx="0.6" ry="0.4"/>
				</g>
			</g>
			<g>
				<g>
					<path fill="#FACAB9" d="M202.7,659.2h-26.9c-4.6,0-8.5-5.2-8.5-11.5v-45c-0.2-5.2,3.7-8,8.5-10.4l8-3.5h10.9l8,3.5
						c5,3,8.3,4.6,8.5,10.4v45.1C211.2,654.1,207.3,659.2,202.7,659.2"/>
					<path fill="#F59C9E" d="M204.2,592.3l-2.8-1.1c-1.5,3-4.3,5.4-7.8,6.5c-1.5,0.7-4.8,1.5-8.9,0c-3.5-1.1-6.3-3.5-7.8-6.5
						l-2.8,1.1c-5.2,2.4-8.3,2.4-8.2,7.8v56.3h46.5v-56.3C212.2,594,209.2,594.5,204.2,592.3"/>
					<path fill="#F6F8F9" d="M210.3,595.3l-11.5,1.7l-9.5,17.2l-9.8-17.4l-11.5-1.7c0,0-3.3,2.8-3.3,8.3v26.4h49.1v-26.3
						C213.6,598.1,210.3,595.3,210.3,595.3"/>
					<path fill="#FACAB9" d="M185.3,723C185.3,723,185.3,722.8,185.3,723v-71.1c0-4.6-3.7-8.3-8.3-8.3s-8.3,3.7-8.3,8.3V723l0,0
						H185.3z"/>
					<path fill="#FACAB9" d="M209.8,723C209.8,723,209.8,722.8,209.8,723v-71.1c0-4.6-3.7-8.3-8.3-8.3s-8.3,3.7-8.3,8.3V723l0,0
						H209.8z"/>
					<path fill="#FDF2F7" d="M193.1,704.2v15.9l0,0h16.7l0,0v-15.9H193.1z"/>
					<path fill="#FDF2F7" d="M168.6,704.2v15.9l0,0h16.7l0,0v-15.9H168.6z"/>
					<path fill="#FACAB9" d="M165.6,722.4L165.6,722.4c0-2.4,2-4.5,4.5-4.5H184c2.4,0,4.5,2,4.5,4.5c0,2.4-2,4.5-4.5,4.5h-13.9
						C167.7,726.9,165.6,724.8,165.6,722.4"/>
					<path fill="#F17EA5" d="M178.8,713.5h-3.5c-5.4,0-9.6,4.5-9.6,9.8v1.7v0.9l0,0c0,0.6,0.4,0.9,0.9,0.9h21c0.6,0,0.9-0.4,0.9-0.9
						l0,0V725v-1.7C188.4,717.9,184.2,713.5,178.8,713.5"/>
					<path fill="#F06B97" d="M165.4,723.7v1.1v0.9l0,0c0,0.6,0.4,0.9,0.9,0.9h21.1c0.6,0,0.9-0.4,0.9-0.9l0,0v-0.9v-1.1H165.4z"/>
					<path fill="#FACAB9" d="M190.3,722.4L190.3,722.4c0-2.4,2-4.5,4.5-4.5h13.9c2.4,0,4.5,2,4.5,4.5c0,2.4-2,4.5-4.5,4.5h-13.9
						C192.1,726.9,190.3,724.8,190.3,722.4"/>
					<path fill="#F17EA5" d="M203.3,713.5h-3.5c-5.4,0-9.6,4.5-9.6,9.8v1.7v0.9l0,0c0,0.6,0.4,0.9,0.9,0.9h21.1
						c0.6,0,0.9-0.4,0.9-0.9l0,0V725v-1.7C212.9,717.9,208.6,713.5,203.3,713.5"/>
					<path fill="#F06B97" d="M189.9,723.7v1.1v0.9l0,0c0,0.6,0.4,0.9,0.9,0.9h21.1c0.6,0,0.9-0.4,0.9-0.9l0,0v-0.9v-1.1H189.9z"/>
					<rect x="166.9" y="653.9" fill="#FBE163" width="44.8" height="25"/>
					<rect x="181.4" y="584" fill="#FACAB9" width="14.8" height="11.9"/>
					<path fill="#E39384" d="M196.2,583.2h-14.6v3.3c2,1.9,4.6,3,7.2,3.2h0.2c2.6,0,5.2-1.1,7.2-3.2L196.2,583.2L196.2,583.2z"/>
					<path fill="#FACAB9" d="M169.5,570.9h-4.6c-2.6,0-4.6-2-4.6-4.6s2-4.6,4.6-4.6h4.6c2.6,0,4.6,2,4.6,4.6
						C174.1,568.7,171.9,570.9,169.5,570.9"/>
					<path fill="#E39384" d="M166,564.2h-0.4c-1.5,0-2.6,0.7-2.6,1.7v0.7c0,0.9,1.1,1.7,2.6,1.7h0.4V564.2z"/>
					<path fill="#FACAB9" d="M208.8,570.9h4.6c2.6,0,4.6-2,4.6-4.6s-2-4.6-4.6-4.6h-4.6c-2.6,0-4.6,2-4.6,4.6
						C204.2,568.7,206.2,570.9,208.8,570.9"/>
					<path fill="#E39384" d="M212.3,564.2h0.4c1.5,0,2.6,0.7,2.6,1.7v0.7c0,0.9-1.1,1.7-2.6,1.7h-0.4V564.2z"/>
					<path fill="#FACAB9" d="M189,588L189,588c-12.8,0-23.2-10.4-23.2-23.2s10.4-23.2,23.2-23.2s23.2,10.4,23.2,23.2
						C212.2,577.5,201.8,588,189,588"/>
					<path fill="#723D25" d="M171.7,547c0,0,1.9-6.3-3.5-9.6c-3.5-2.2-8.3-2.2-11.3-0.6c0,0-3.3,1.5-5.2,5c-1.1,2-1.7,5.7-1.5,8.9
						c0,0,1.7,9.6-0.6,11.3c0,0-1.9,0.7-0.2,1.5c0.2,0.2,2.2,0.2,3.9-0.2c1.5-0.4,3.5-0.7,5.6-1.5c3.3-1.3,6.7-3.3,8.7-6.9
						L171.7,547z"/>
					<path fill="#723D25" d="M206.2,547c0,0-1.9-6.3,3.5-9.6c3.5-2.2,8.3-2.2,11.3-0.6c0,0,3.3,1.5,5.2,5c1.1,2,1.7,5.7,1.5,8.9
						c0,0-1.7,9.6,0.6,11.3c0,0,1.9,0.7,0.2,1.5c-0.2,0.2-2.2,0.2-3.9-0.2c-1.5-0.4-3.5-0.7-5.6-1.5c-3.3-1.3-6.7-3.3-8.7-6.9
						L206.2,547z"/>
					<path fill="#723D25" d="M213.5,553.3c-1.7-11.7-12.1-20.8-24.7-20.8c-12.6,0-23,9.1-24.7,20.8H213.5z"/>
					<path fill="#723D25" d="M196.6,552.3c0,0-1.1,8.7-8.2,9.3h-24.1c0,0-0.9-5,0.4-10.6L196.6,552.3z"/>
					<path fill="#723D25" d="M195.5,552.3c0,0,1.1,9.3,6.7,9.3h10.9c0,0,0.6-5-0.2-10.6L195.5,552.3z"/>
					<path fill="#E39382" d="M189,570.5c-1.3,0-2.2-0.6-3-1.3v0.2c0,1.3,1.3,2.2,3,2.2s3-0.9,3-2.2v-0.2
						C191.2,570,190.3,570.5,189,570.5"/>
					<path fill="#754448" d="M179,566.4c1.1,0,2.2,0.2,3,0.6v-0.4c0-1.7-1.3-3-3-3s-3,1.3-3,3v0.4l0,0
						C176.9,566.6,177.9,566.4,179,566.4"/>
					<path fill="#754448" d="M199,566.4c1.1,0,2.2,0.2,3,0.6l0,0v-0.4c0-1.7-1.3-3-3-3s-3,1.3-3,3v0.4
						C197,566.6,197.9,566.4,199,566.4"/>
					<path fill="#F8B3A7" d="M179.5,571.2c0,1.7-1.3,3-3,3s-3-1.3-3-3s1.3-3,3-3C178.2,568.5,179.5,569.8,179.5,571.2"/>
					<path fill="#F8B3A7" d="M204.2,571.2c0,1.7-1.3,3-3,3s-3-1.3-3-3s1.3-3,3-3C202.9,568.5,204.2,569.8,204.2,571.2"/>
					<path fill="#FFFFFF" d="M203.1,592.7c0-0.4-0.2-0.7-0.2-1.1l-1.3-0.6c-1.7,3.3-4.8,5.7-8.7,6.7c-1.1,0.4-2.2,0.6-3.5,0.6
						c-0.9,0-1.9-0.2-2.8-0.4c0,0,0,0-0.2,0l0,0c-4.1-0.7-7.6-3.3-9.3-6.9l-1.1,0.4c-0.4,0.7-0.6,1.5-0.6,2.2
						c0.2,2.4,2.2,4.3,4.6,4.1c0.7,0,1.3-0.4,2-0.6c0.4,2.2,2.4,3.7,4.6,3.5c1.3,0,2.4-0.7,3-1.7c0.9,0.7,2,1.3,3.2,1.1
						c2-0.2,3.5-1.7,3.9-3.5c0.7,0.4,1.5,0.6,2.2,0.4C201.4,597.1,203.1,595.1,203.1,592.7"/>
					<path fill="#F59C9E" d="M212.5,639L212.5,639C212.3,639,212.3,639,212.5,639L212.5,639z"/>
					<path fill="#F59C9E" d="M166,639L166,639C166.2,639,166,639,166,639L166,639z"/>
					<path fill="#F59C9E" d="M189.2,643.1c8.3,0,16.3-1.5,23.2-4.1H166C173,641.6,180.8,643.1,189.2,643.1"/>
					<path fill="#8B2C22" d="M197.9,575.1h-8.7h-0.6h-8.5c0,0-1.5,0-0.9,1.7c0,0,1.9,5.4,9.6,5.6l0,0h0.2h0.2l0,0
						c7.8-0.2,9.6-5.6,9.6-5.6C199.4,575.1,197.9,575.1,197.9,575.1"/>
					<path fill="#DD6766" d="M189,578.9c-1.9,0-3.5,1.1-4.5,2.6c1.1,0.4,2.6,0.7,4.3,0.7l0,0h0.2h0.2l0,0c1.7,0,3-0.4,4.3-0.7
						C192.5,580.1,190.8,578.9,189,578.9"/>
					<path fill="#FFFFFF" d="M189.2,575.1h-0.6H183c0.7,1.5,2.4,2.6,4.1,2.6h3.5c1.9,0,3.3-1.1,4.1-2.6H189.2z"/>
					<polygon fill="#F6F8F9" points="190.1,690.7 189.7,619.2 177.3,590.5 165.4,594.5 161.2,690.7 					"/>
					<polygon fill="#F6F8F9" points="188.8,690.7 189.5,619.6 201.6,590.5 213.5,594.5 217.7,690.7 					"/>
					<path fill="#FFFFFF" d="M177.5,589.9c-0.6,0.6-6.7,8.3-6.7,8.3l5.7,1.9l-3.7,4.6l17.2,10L177.5,589.9z"/>
					<path fill="#FFFFFF" d="M201.4,589.7c0.6,0.6,6.7,8.3,6.7,8.3l-5.7,1.9l3.9,4.6l-17.1,10.2L201.4,589.7z"/>
					<path fill="#AEAEAE" d="M197.9,627.5c-3.3-1.5-5.9-3.7-6.9-7.4c-0.7-2.8-0.6-5.9-0.6-8.9c0-1.5-2.4-1.5-2.4,0
						c0,3.5-0.4,7.2,0.9,10.6c1.3,3.7,4.1,6.1,7.6,7.8C198.1,630.3,199.4,628.1,197.9,627.5"/>
					<path fill="#EFEFEF" d="M169.5,629l-0.2,2.2c3.7,3.2,42.5,15.6,46.6,3.5l-0.6-13.2l-11.1-3.9L169.5,629z"/>
					<path fill="#EFEFEF" d="M163.2,634.2l-0.6,9.6c16.9,3,23.4-6.1,23.4-6.1L163.2,634.2z"/>
					<path fill="#EFEFEF" d="M163.4,638.3l41.7,3l-0.6,5c-5,4.6-17.6,10-27.8,11.5c-3.5,0.6-9.6,0.6-14.1-0.7L163.4,638.3z"/>
					<path fill="#FACAB9" d="M179.7,637c-1.1-0.4-2.4-0.7-3.5-1.1l-6.7,12.8c1.7,0.7,3.3,1.3,5,1.9
						C183.2,653.7,188.6,640.1,179.7,637"/>
					<path fill="#F6F8F9" d="M162.1,597.1c-3.9,3.9-14.3,16.1-11.9,33c1.3,9.5,20.2,23.9,20.2,23.9s2.8-7.6,7.2-18.9
						c0,0-10.9-15.9-5.9-24.7c3.7-6.5-6.3-16.1-6.3-16.1S163.8,595.6,162.1,597.1"/>
					<path fill="#FDDC55" d="M197,640.3h-27.4c-1.1,0-2.2-0.9-2.2-2.2v-30.4c0-1.1,0.9-2.2,2.2-2.2H197c1.1,0,2.2,0.9,2.2,2.2v30.6
						C199.2,639.4,198.3,640.3,197,640.3"/>
					<path fill="#FFD426" d="M170.1,610.1h26.7c4.5,0,4.5-5,0-5h-26.7C165.6,604.9,165.6,610.1,170.1,610.1"/>
					<path fill="#F6F8F9" d="M189.7,620.1h-13c-0.7,0-1.5-0.7-1.5-1.5v-1.5c0-0.7,0.7-1.5,1.5-1.5h13c0.7,0,1.5,0.7,1.5,1.5v1.5
						C191.2,619.6,190.6,620.1,189.7,620.1"/>
					<path fill="#FACAB9" d="M182.5,633.1c-3.3-0.6-7.4-0.9-10.6-1.7c-8.7-1.9-10.9,11.7-2.2,13.5c4.3,0.9,8.7,1.5,12.8,1.9V633.1z"
						/>
					<path fill="#F6F8F9" d="M222.5,611.2c-1.1-10.2-9.1-16.9-9.1-16.9l-2.4,1.5l-3,10.6c-0.9,3.3-3.2,10.6-4.5,12.8
						c-4.3,7-28,10.8-28,10.8c0,4.6-0.9,6.7-2.8,16.9c0,0,28.9,4.6,36.5-1.1C224.7,634,222.5,611.2,222.5,611.2"/>
					<g>
						<polygon fill="#F2F2F2" points="197.7,535.8 179.9,535.8 181.7,521 195.8,521 						"/>
						<polygon fill="#E33E2D" points="191,529.3 189.5,529.3 189.5,528 188.1,528 188.1,529.3 186.8,529.3 186.8,530.8 188.1,530.8 
							188.1,532.3 189.5,532.3 189.5,530.8 191,530.8 						"/>
						<path fill="#F6F7F7" d="M196,521c0,0.9-3.2,1.7-7,1.7c-3.9,0-7-0.7-7-1.7s3.2-1.7,7-1.7C192.9,519.3,196,520.1,196,521"/>
						<polygon fill="#3E4566" points="181,526 196.6,526 196.4,524.7 181.2,524.7 						"/>
					</g>
				</g>
				<path fill="#723D25" d="M188.8,536.4c5.4,0,10,1.1,13.4,3c-2.4-3.2-7.6-5.2-13.4-5.2c-5.9,0-10.9,2-13.4,5.2
					C178.8,537.5,183.6,536.4,188.8,536.4"/>
			</g>
		</g>
		<g>
			<text transform="matrix(1 0 0 1 169.2612 412.4521)" fill="#424559" font-family="'Roboto-Thin'" font-size="47.3412">How to start investing</text>
			<text transform="matrix(1 0 0 1 177.8008 469.2617)" fill="#424559" font-family="'Roboto-Thin'" font-size="47.3412">for your child’s future</text>
		</g>
	</g>
	<polyline fill="none" stroke="#FFFFFF" stroke-linecap="round" stroke-miterlimit="10" points="443.5,193.2 439.1,188.8 
		443.5,184.4 	"/>
</g>
</svg>
