<?xml version="1.0" encoding="UTF-8"?>
<svg width="572px" height="483px" viewBox="0 0 572 483" version="1.1" xmlns="http://www.w3.org/2000/svg" xmlns:xlink="http://www.w3.org/1999/xlink">
    <!-- Generator: Sketch 46.2 (44496) - http://www.bohemiancoding.com/sketch -->
    <title>Group</title>
    <desc>Created with Sketch.</desc>
    <defs>
        <polygon id="path-1" points="0 483 572 483 572 0 0 0"></polygon>
    </defs>
    <g id="Page-1" stroke="none" stroke-width="1" fill="none" fill-rule="evenodd">
        <g id="Desktop_co-creators" transform="translate(-674.000000, -285.000000)">
            <g id="Group" transform="translate(674.000000, 285.000000)">
                <g id="Page-1">
                    <path d="M275.32716,232.138755 C275.32716,232.138755 294,240.790199 294,258.088 L294,457 L19,457 L19,258.088 C19,240.790199 37.6728395,232.138755 37.6728395,232.138755 L102.179012,209.649748 C114.061728,206.18951 119.154321,201 119.154321,201 L156.5,202.65298 L193.845679,201 C193.845679,201 198.938272,206.18951 210.820988,209.649748 L275.32716,232.138755 Z" id="Fill-1" fill="#EFEFEF"></path>
                    <mask id="mask-2" fill="white">
                        <use xlink:href="#path-1"></use>
                    </mask>
                    <g id="Clip-4"></g>
                    <polygon id="Fill-3" fill="#FBCAB9" mask="url(#mask-2)" points="119 238 194 238 194 185 119 185"></polygon>
                    <path d="M179,238.7339 L165.832391,223 L156.499146,223.47473 L147.167609,223 L134,238.7339 C134,238.7339 140.297849,249.315288 148.576046,251.775405 L134,355.720876 L155.230699,396 L157.769301,395.993218 L179,355.720876 L164.422247,251.775405 C172.700444,249.315288 179,238.7339 179,238.7339" id="Fill-5" fill="#376DB4" mask="url(#mask-2)"></path>
                    <path d="M151,222.800339 L135.590681,263 C135.590681,263 118.254345,251.513657 106.699062,238.114334 C106.699062,238.114334 97.067385,217.056321 102.846732,207.48465 L114.403721,196 C114.403721,196 118.254345,217.056321 151,222.800339" id="Fill-6" fill="#F6F7F7" mask="url(#mask-2)"></path>
                    <path d="M162,222.800339 L177.409463,263 C177.409463,263 194.744256,251.513657 206.303058,238.114334 C206.303058,238.114334 215.931415,217.056321 210.153719,207.48465 L198.598327,196 C198.598327,196 194.744256,217.056321 162,222.800339" id="Fill-7" fill="#F6F7F7" mask="url(#mask-2)"></path>
                    <path d="M119,196.146529 C130.069318,204.889176 143.240341,210 157.352273,210 C170.741477,210 183.297159,205.416294 194,197.475412 L194,181 L119,181 L119,196.146529 Z" id="Fill-8" fill="#E39485" mask="url(#mask-2)"></path>
                    <path d="M153.499155,175 L153.499155,175 C110.875127,175 76,146.513043 76,105.478261 L76,93.6086957 C76,52.573913 110.875127,19 153.499155,19 C196.123183,19 231,52.573913 231,93.6086957 L231,105.478261 C231,146.513043 196.123183,175 153.499155,175" id="Fill-9" fill="#79474D" mask="url(#mask-2)"></path>
                    <path d="M208.80594,0 C208.80594,0 237.283976,20.1208824 216.264554,54.4125294 L213.892515,58 L164,19.6074118 C164,19.6074118 190.155167,23.8823529 200.328316,17.0588235 C200.328316,17.0588235 210.501465,11.9411765 208.80594,0" id="Fill-10" fill="#79474D" mask="url(#mask-2)"></path>
                    <path d="M156.5,202 L156.5,202 C117.725,202 86,175.435 86,136.752632 L86,111.331579 C86,72.6492105 117.725,41 156.5,41 C195.275,41 227,72.6492105 227,111.331579 L227,136.752632 C227,175.435 195.275,202 156.5,202" id="Fill-11" fill="#FBCAB9" mask="url(#mask-2)"></path>
                    <path d="M100.053571,142 L84.9464286,142 C76.1758929,142 69,134.801684 69,126 C69,117.198316 76.1758929,110 84.9464286,110 L100.053571,110 C108.824107,110 116,117.198316 116,126 C116,134.801684 108.824107,142 100.053571,142" id="Fill-12" fill="#FBCAB9" mask="url(#mask-2)"></path>
                    <path d="M228.446582,142 L216.553418,142 C209.649038,142 204,134.801684 204,126 C204,117.198316 209.649038,110 216.553418,110 L228.446582,110 C235.349247,110 241,117.198316 241,126 C241,134.801684 235.349247,142 228.446582,142" id="Fill-13" fill="#FBCAB9" mask="url(#mask-2)"></path>
                    <path d="M209.233188,62.4194193 C209.233188,62.4194193 187.163307,75.9391612 158.302693,72.5592257 C158.302693,72.5592257 143.023544,70.869258 131.139762,67.4893225 C131.139762,67.4893225 112.465247,62.4194193 97.186099,74.2491934 C97.186099,74.2491934 91.8536762,79.4728837 87.7300038,87 L87,72.5592257 C87,72.5592257 137.930495,32 139.628178,32 C141.325861,32 193.954039,40.4498387 193.954039,40.4498387 C193.954039,40.4498387 214.326237,55.6595483 211.779712,57.3495161 C209.233188,59.0394838 209.233188,62.4194193 209.233188,62.4194193" id="Fill-14" fill="#79474D" mask="url(#mask-2)"></path>
                    <path d="M86,119 L85.2,119 C81.24,119 78,121.761667 78,125.138333 L78,127.863333 C78,131.238333 81.24,134 85.2,134 L86,134 L86,119 Z" id="Fill-15" fill="#E39485" mask="url(#mask-2)"></path>
                    <path d="M191.912975,154 L166.701549,154 L165.299511,154 L140.088085,154 C140.088085,154 135.885339,154 137.285693,159.555 C137.285693,159.555 142.678404,178.213333 165.299511,178.965 L165.299511,179 C165.538514,179 165.764052,178.986667 165.999688,178.981667 C166.235325,178.986667 166.460863,179 166.701549,179 L166.701549,178.965 C189.320973,178.213333 194.713683,159.555 194.713683,159.555 C196.115721,154 191.912975,154 191.912975,154" id="Fill-16" fill="#8B2B23" mask="url(#mask-2)"></path>
                    <path d="M166.000849,168 C160.392174,168 155.525773,171.776571 153,177.336 C156.39544,178.8 160.448226,179.799429 165.294244,179.964 L165.294244,180 C165.535441,180 165.76305,179.986286 166.000849,179.981143 C166.23695,179.986286 166.464559,180 166.707454,180 L166.707454,179.964 C171.551774,179.799429 175.606259,178.8 179,177.336 C176.475926,171.776571 171.607826,168 166.000849,168" id="Fill-17" fill="#DC6666" mask="url(#mask-2)"></path>
                    <path d="M191.912975,154 L166.701549,154 L165.299511,154 L140.088085,154 C140.088085,154 135.885339,154 137.285693,159.555 C137.285693,159.555 137.842805,161.43 139.290287,164 L192.70909,164 C194.158254,161.43 194.713683,159.555 194.713683,159.555 C196.115721,154 191.912975,154 191.912975,154" id="Fill-18" fill="#FFFFFF" mask="url(#mask-2)"></path>
                    <path d="M166,136.2624 C161.761667,136.2624 158.043333,134.544 156,132 L156,132.5248 C156,136.6352 160.5,140 166,140 C171.5,140 176,136.6352 176,132.5248 L176,132 C173.955,134.544 170.236667,136.2624 166,136.2624" id="Fill-19" fill="#E39483" mask="url(#mask-2)"></path>
                    <path d="M131.5,118.313709 C135.470372,118.313709 139.126207,118.948002 141.996562,120 L142,120 L142,118.499355 C142,112.725398 137.273367,108 131.5,108 C125.726633,108 121,112.725398 121,118.499355 L121,120 L121.001719,120 C123.873793,118.948002 127.52791,118.313709 131.5,118.313709" id="Fill-20" fill="#754448" mask="url(#mask-2)"></path>
                    <path d="M132,135 C132,140.521667 127.52,145 122,145 C116.478333,145 112,140.521667 112,135 C112,129.478333 116.478333,125 122,125 C127.52,125 132,129.478333 132,135" id="Fill-21" fill="#F8B4A8" mask="url(#mask-2)"></path>
                    <path d="M215,135 C215,140.521667 210.52,145 205,145 C199.478333,145 195,140.521667 195,135 C195,129.478333 199.478333,125 205,125 C210.52,125 215,129.478333 215,135" id="Fill-22" fill="#F8B4A8" mask="url(#mask-2)"></path>
                    <path d="M172,73.0933778 C172,73.0933778 152.07434,78.0798876 124.267736,74.4885143 C124.267736,74.4885143 103.890377,73.8520469 97.3101887,89.9758874 C97.3101887,89.9758874 94.3418868,97.5320282 93.0377358,110 L85.3962264,110 L82,93.0275364 L93.0377358,67.9727855 L122.145094,52 L149.676604,59.5459573 L172,73.0933778 Z" id="Fill-23" fill="#79474D" mask="url(#mask-2)"></path>
                    <path d="M203.499141,118.313709 C207.471556,118.313709 211.125972,118.948002 213.998281,120 L214,120 L214,118.499355 C214,112.725398 209.274699,108 203.499141,108 C197.723582,108 193,112.725398 193,118.499355 L193,120 L193.001719,120 C195.872309,118.948002 199.526725,118.313709 203.499141,118.313709" id="Fill-24" fill="#754448" mask="url(#mask-2)"></path>
                    <path d="M150,412 L182.366035,416.292656 C182.366035,416.292656 197.583523,420.994137 189.767576,429 L161.69165,428.021862 L150,412 Z" id="Fill-25" fill="#F3BDAF" mask="url(#mask-2)"></path>
                    <path d="M479,134.000841 C479,151.12116 493.102693,165 510.499146,165 C527.897307,165 542,151.12116 542,134.000841 C542,116.87884 527.897307,103 510.499146,103 C493.102693,103 479,116.87884 479,134.000841" id="Fill-26" fill="#723D25" mask="url(#mask-2)"></path>
                    <path d="M483,163.5 C483,176.477764 493.520537,187 506.5,187 C519.479463,187 530,176.477764 530,163.5 C530,150.520537 519.479463,140 506.5,140 C493.520537,140 483,150.520537 483,163.5" id="Fill-27" fill="#723D25" mask="url(#mask-2)"></path>
                    <path d="M448.194896,191 L433.805104,191 C394.86323,191 363,154.358476 363,109.576838 L363,108.423162 C363,63.6398298 394.86323,27 433.805104,27 L448.194896,27 C487.140164,27 519,63.6398298 519,108.423162 L519,109.576838 C519,154.358476 487.140164,191 448.194896,191" id="Fill-28" fill="#723D25" mask="url(#mask-2)"></path>
                    <path d="M523.350053,239.613622 L476.20293,218.949544 C467.516908,215.768373 463.794811,211 463.794811,211 L436.501694,212.519517 L409.203495,211 C409.203495,211 405.481398,215.768373 396.79707,218.949544 L349.648253,239.613622 C349.648253,239.613622 336,247.564858 336,263.462254 L336,343 L435.258172,343 L437.73844,343 L537,343 L537,263.462254 C537,247.564858 523.350053,239.613622 523.350053,239.613622" id="Fill-29" fill="#FBCAB9" mask="url(#mask-2)"></path>
                    <polygon id="Fill-30" fill="#FBCAB9" mask="url(#mask-2)" points="410 241 463 241 463 193 410 193"></polygon>
                    <path d="M410,204.102933 C417.823697,212.245543 427.128833,217 437.102734,217 C446.563634,217 455.435344,212.733755 463,205.343301 L463,190 L410,190 L410,204.102933 Z" id="Fill-31" fill="#E39485" mask="url(#mask-2)"></path>
                    <path d="M438.945855,184 L434.052454,184 C397.723943,184 368,154.115742 368,117.591292 L368,106.407008 C368,69.8842585 397.723943,40 434.052454,40 L438.945855,40 C475.276057,40 505,69.8842585 505,106.407008 L505,117.591292 C505,154.115742 475.276057,184 438.945855,184" id="Fill-32" fill="#723D25" mask="url(#mask-2)"></path>
                    <path d="M439.319515,209 L434.677083,209 C400.201625,209 372,180.947226 372,146.655802 L372,123.342506 C372,89.0527742 400.201625,61 434.677083,61 L439.319515,61 C473.794972,61 502,89.0527742 502,123.342506 L502,146.655802 C502,180.947226 473.794972,209 439.319515,209" id="Fill-33" fill="#FBCAB9" mask="url(#mask-2)"></path>
                    <path d="M382.875259,155 L371.123063,155 C365.006217,155 360,148.49034 360,140.535041 L360,139.46153 C360,131.50966 365.006217,125 371.123063,125 L382.875259,125 C388.993783,125 394,131.50966 394,139.46153 L394,140.535041 C394,148.49034 388.993783,155 382.875259,155" id="Fill-34" fill="#FBCAB9" mask="url(#mask-2)"></path>
                    <path d="M503.606424,155 L488.395283,155 C480.479072,155 474,148.49034 474,140.535041 L474,139.46153 C474,131.50966 480.479072,125 488.395283,125 L503.606424,125 C511.522635,125 518,131.50966 518,139.46153 L518,140.535041 C518,148.49034 511.522635,155 503.606424,155" id="Fill-35" fill="#FBCAB9" mask="url(#mask-2)"></path>
                    <path d="M372,133 L371.400166,133 C368.43082,133 366,135.574946 366,138.727734 L366,141.272266 C366,144.421675 368.43082,147 371.400166,147 L372,147 L372,133 Z" id="Fill-36" fill="#E39485" mask="url(#mask-2)"></path>
                    <path d="M502,133 L502.801217,133 C506.758636,133 510,135.574946 510,138.727734 L510,141.272266 C510,144.421675 506.758636,147 502.801217,147 L502,147 L502,133 Z" id="Fill-37" fill="#E39485" mask="url(#mask-2)"></path>
                    <path d="M454.180667,166 L431.138563,166 L429.861344,166 L406.820923,166 C406.820923,166 402.980853,166 404.261437,171.110926 C404.261437,171.110926 409.186891,188.277243 429.861344,188.966693 L429.861344,189 C430.078421,189 430.285401,188.986677 430.499112,188.983347 C430.716189,188.986677 430.921486,189 431.138563,189 L431.138563,188.966693 C451.813016,188.277243 456.73847,171.110926 456.73847,171.110926 C458.019054,166 454.180667,166 454.180667,166" id="Fill-38" fill="#8B2B23" mask="url(#mask-2)"></path>
                    <path d="M431,178 C425.822588,178 421.33138,181.462995 419,186.559348 C422.130808,187.900853 425.875768,188.815671 430.34639,188.967572 L430.34639,189 C430.571122,189 430.78213,188.986346 431,188.984639 C431.219585,188.986346 431.428878,189 431.650179,189 L431.650179,188.967572 C436.124232,188.815671 439.867477,187.900853 443,186.559348 C440.670336,181.462995 436.179128,178 431,178" id="Fill-39" fill="#DC6666" mask="url(#mask-2)"></path>
                    <path d="M454.180667,166 L431.138563,166 L429.861344,166 L406.820923,166 C406.820923,166 402.980853,166 404.261437,171.001086 C404.261437,171.001086 404.769632,172.68767 406.092286,175 L454.905938,175 C456.231957,172.68767 456.73847,171.001086 456.73847,171.001086 C458.019054,166 454.180667,166 454.180667,166" id="Fill-40" fill="#FFFFFF" mask="url(#mask-2)"></path>
                    <path d="M430.50086,151.263307 C426.473527,151.263307 422.941443,149.546166 421,147 L421,147.524875 C421,151.636976 425.274957,155 430.50086,155 C435.725043,155 440,151.636976 440,147.524875 L440,147 C438.058557,149.546166 434.524753,151.263307 430.50086,151.263307" id="Fill-41" fill="#E39483" mask="url(#mask-2)"></path>
                    <path d="M400,150.5 C400,155.747013 395.746628,160 390.50086,160 C385.253372,160 381,155.747013 381,150.5 C381,145.252987 385.253372,141 390.50086,141 C395.746628,141 400,145.252987 400,150.5" id="Fill-42" fill="#F8B4A8" mask="url(#mask-2)"></path>
                    <path d="M480,150.5 C480,155.747013 475.747398,160 470.50086,160 C465.252602,160 461,155.747013 461,150.5 C461,145.252987 465.252602,141 470.50086,141 C475.747398,141 480,145.252987 480,150.5" id="Fill-43" fill="#F8B4A8" mask="url(#mask-2)"></path>
                    <path d="M462.5,134.454489 C466.093956,134.454489 469.4008,135.036409 471.996622,136 L472,136 L472,134.625642 C472,129.331881 467.725422,125 462.5,125 C457.276267,125 453,129.331881 453,134.625642 L453,136 C455.5992,135.036409 458.907733,134.454489 462.5,134.454489" id="Fill-44" fill="#754448" mask="url(#mask-2)"></path>
                    <path d="M464.311522,127.858793 L464.271441,127.825342 C463.970831,127.592779 463.910709,127.148361 464.137323,126.836153 L466.730272,123.280806 C466.955343,122.970191 467.388529,122.908068 467.687597,123.140631 L467.72922,123.172489 C468.029829,123.406645 468.08841,123.851063 467.863338,124.163271 L465.270389,127.717025 C465.043776,128.029233 464.613673,128.092949 464.311522,127.858793" id="Fill-45" fill="#754448" mask="url(#mask-2)"></path>
                    <path d="M468.311433,129.859131 L468.272892,129.828861 C467.970725,129.594666 467.9106,129.146988 468.137225,128.836321 L470.728769,125.280383 C470.955394,124.971309 471.387061,124.907583 471.689228,125.140184 L471.727769,125.173641 C472.029936,125.406243 472.08852,125.852328 471.863436,126.162995 L469.271892,129.718933 C469.043726,130.028006 468.6136,130.093326 468.311433,129.859131" id="Fill-46" fill="#754448" mask="url(#mask-2)"></path>
                    <path d="M397.5,134.454489 C393.907733,134.454489 390.5992,135.036409 388,136 L388,136 L388,134.625642 C388,129.331881 392.274578,125 397.5,125 C402.725422,125 407,129.331881 407,134.625642 L407,136 L406.996622,136 C404.399111,135.036409 401.092267,134.454489 397.5,134.454489" id="Fill-47" fill="#754448" mask="url(#mask-2)"></path>
                    <path d="M395.688779,127.858793 L395.728862,127.825342 C396.029488,127.592779 396.089613,127.148361 395.861446,126.836153 L393.271439,123.280806 C393.046356,122.970191 392.614688,122.908068 392.314062,123.140631 L392.272437,123.172489 C391.971811,123.406645 391.910144,123.851063 392.13677,124.163271 L394.72986,127.717025 C394.956485,128.029233 395.386612,128.092949 395.688779,127.858793" id="Fill-48" fill="#754448" mask="url(#mask-2)"></path>
                    <path d="M391.687565,129.859131 L391.726109,129.828861 C392.028295,129.594666 392.089965,129.146988 391.863326,128.836321 L389.271621,125.280383 C389.046523,124.971309 388.613287,124.907583 388.314185,125.140184 L388.271016,125.173641 C387.971914,125.406243 387.910243,125.852328 388.136882,126.162995 L390.730129,129.718933 C390.956769,130.028006 391.385379,130.093326 391.687565,129.859131" id="Fill-49" fill="#754448" mask="url(#mask-2)"></path>
                    <path d="M504.184663,73.8496622 C510.398499,87.9611486 513.639093,104.496622 512.894931,122 C509.158797,119.148649 506.963775,116.439189 506.963775,116.439189 C418.137775,123.048986 405,54.0743243 405,54.0743243 L456.648568,54 L504.184663,73.8496622 Z" id="Fill-50" fill="#723D25" mask="url(#mask-2)"></path>
                    <path d="M412.245778,57 C412.245778,57 427.677716,103.958981 367,121 L372.632169,80.8964065 L412.245778,57 Z" id="Fill-51" fill="#723D25" mask="url(#mask-2)"></path>
                    <path d="M483.696688,218 C477.596353,238.358456 459.830911,253.192899 438.9983,253.192899 C418.169089,253.192899 400.401947,238.358456 394.299911,218 L366,228.076355 L366,457 L512,457 L512,228.076355 L483.696688,218 Z" id="Fill-52" fill="#FFFFFF" mask="url(#mask-2)"></path>
                    <path d="M509,160.5 C509,162.431971 507.432782,164 505.5,164 C503.569028,164 502,162.431971 502,160.5 C502,158.566218 503.569028,157 505.5,157 C507.432782,157 509,158.566218 509,160.5" id="Fill-53" fill="#FFFFFF" mask="url(#mask-2)"></path>
                    <path d="M402.598808,212 C400.543075,213.503363 397.893238,215.097996 394.56322,216.458428 L342.940353,238.254613 C342.940353,238.254613 328,247.965341 328,267.383353 L328,453.435324 L422,457 L402.598808,212 Z" id="Fill-54" fill="#FFD31A" mask="url(#mask-2)"></path>
                    <path d="M473.926292,210 C475.995065,211.532155 478.66171,213.157327 482.014549,214.543813 L533.961479,236.757428 C533.961479,236.757428 549,246.654131 549,266.444027 L549,456.05917 L443,462 L473.926292,210 Z" id="Fill-55" fill="#FFD31A" mask="url(#mask-2)"></path>
                    <path d="M377.533796,373.201494 C377.533796,373.201494 366.842016,361.353503 347.637011,363.194245 C347.637011,363.194245 335.713726,364.022999 341.663445,373.024985 C341.663445,373.024985 348.897472,380.557739 353.154085,382.657362 C359.814091,385.940439 367.399004,395.08027 369.059747,399.52831 C369.059747,399.52831 378.502989,428.655744 393,422.015624 L392.122787,380.855284 C392.122787,380.855284 380.589564,378.88342 377.533796,373.201494" id="Fill-56" fill="#FBCAB9" mask="url(#mask-2)"></path>
                    <path d="M534.834627,241.100632 C534.834627,241.100632 554.312468,238.994928 563.253758,254.048007 C565.63561,258.061372 570.587891,271.06122 571.598735,281.337533 C573.199094,297.589036 573.464122,307.137492 572.210337,316.801051 C572.210337,316.801051 569.561758,338.77892 562.699918,358.695094 C556.964445,375.340993 545.765323,388.439017 536.190346,394.95079 C515.158014,409.254009 461.540859,424.105659 448.647937,427.511348 C435.751618,430.917038 412.549797,432.64358 386.536302,428.857036 L379,369.399656 C379,369.399656 410.849202,364.1574 427.415136,362.847259 L477.61921,342.716113 L499.049083,299.787838 C499.049083,299.787838 503.817884,284.970042 509.865953,270.123471 C515.10195,257.275964 520.444978,244.40476 534.834627,241.100632" id="Fill-57" fill="#FFDE56" mask="url(#mask-2)"></path>
                    <path d="M226,119 L226.701272,119 C230.164028,119 233,121.761667 233,125.138333 L233,127.863333 C233,131.238333 230.164028,134 226.701272,134 L226,134 L226,119 Z" id="Fill-58" fill="#E39485" mask="url(#mask-2)"></path>
                    <path d="M166.455614,423 C166.455614,423 200.03732,427.091476 210.285066,438.926928 C210.285066,438.926928 219.944018,461.324965 193.415934,480.426431 C193.415934,480.426431 177.123685,484.743328 150,469.690966 L155.384236,432.015146 L166.455614,423 Z" id="Fill-59" fill="#F3BDAF" mask="url(#mask-2)"></path>
                    <path d="M14.8678389,247.399148 C5.94376121,257.984365 -19.0105101,371.468209 26.6008786,417.935545 C72.2122673,464.402881 149.06892,483 149.06892,483 L170,412.164259 C170,412.164259 142.783001,400.372165 122.518225,392.76595 C111.877653,388.771881 86.2587689,363.132096 86.2587689,363.132096 C86.2587689,363.132096 86.4566307,293.248617 82.9187929,276.14694 C79.380955,259.043566 58.4160525,237.438588 47.6198972,232.395503 C36.8237418,227.352418 23.7919165,236.813931 14.8678389,247.399148" id="Fill-60" fill="#F6F7F7" mask="url(#mask-2)"></path>
                    <path d="M345.71607,368.775909 L317.099934,351.604232 C311.826806,348.961526 309.56786,345 309.56786,345 L293,346.263095 L276.43214,345 C276.43214,345 274.173194,348.961526 268.903446,351.604232 L240.285619,368.775909 C240.285619,368.775909 232,375.381829 232,388.588603 L232,396 L292.248144,396 L293.753545,396 L354,396 L354,388.588603 C354,375.381829 345.71607,368.775909 345.71607,368.775909" id="Fill-61" fill="#FBCAB9" mask="url(#mask-2)"></path>
                    <path d="M355.288774,369.036218 L326.91241,355 C322.734483,364.86046 309.362064,372.077736 293.499153,372.077736 C277.678597,372.077736 264.33498,364.899281 260.118085,355.077641 L231.709531,369.036218 C231.709531,369.036218 222,375.426444 222,388.206897 L222.001694,462 L365,462 L364.998306,388.206897 C364.998306,375.426444 355.288774,369.036218 355.288774,369.036218" id="Fill-62" fill="#F185B5" mask="url(#mask-2)"></path>
                    <polygon id="Fill-63" fill="#FBCAB9" mask="url(#mask-2)" points="277 358 310 358 310 323 277 323"></polygon>
                    <path d="M276,345.642216 C281.582739,350.399228 287.528514,353 293.696797,353 C299.353147,353 304.823796,350.821619 310,346.802089 L310,308 L276,308 L276,345.642216 Z" id="Fill-64" fill="#E39485" mask="url(#mask-2)"></path>
                    <path d="M248.333333,308 L237.666667,308 C231.799157,308 227,303.275829 227,297.5 C227,291.724171 231.799157,287 237.666667,287 L248.333333,287 C254.199157,287 259,291.724171 259,297.5 C259,303.275829 254.199157,308 248.333333,308" id="Fill-65" fill="#FBCAB9" mask="url(#mask-2)"></path>
                    <path d="M241,293 L240.299292,293 C236.834681,293 234,294.658964 234,296.681892 L234,298.318108 C234,300.344286 236.834681,302 240.299292,302 L241,302 L241,293 Z" id="Fill-66" fill="#E39485" mask="url(#mask-2)"></path>
                    <path d="M339.666667,308 L350.333333,308 C356.199157,308 361,303.275829 361,297.5 C361,291.724171 356.199157,287 350.333333,287 L339.666667,287 C333.799157,287 329,291.724171 329,297.5 C329,303.275829 333.799157,308 339.666667,308" id="Fill-67" fill="#FBCAB9" mask="url(#mask-2)"></path>
                    <path d="M348,293 L348.700708,293 C352.165319,293 355,294.658964 355,296.681892 L355,298.318108 C355,300.344286 352.165319,302 348.700708,302 L348,302 L348,293 Z" id="Fill-68" fill="#E39485" mask="url(#mask-2)"></path>
                    <path d="M293.5,348 L293.5,348 C264.075845,348 240,323.924535 240,294.500845 C240,265.075465 264.075845,241 293.5,241 C322.925845,241 347,265.075465 347,294.500845 C347,323.924535 322.925845,348 293.5,348" id="Fill-69" fill="#FBCAB9" mask="url(#mask-2)"></path>
                    <path d="M253.335003,252.604515 C253.335003,252.604515 257.447139,237.802695 245.220095,230.099776 C237.105188,224.985988 226.215766,224.845164 219.01448,228.62706 C219.01448,228.62706 211.512019,232.032293 207.234993,240.335835 C204.697718,245.262989 203.311302,253.486788 203.625937,260.78929 C203.625937,260.78929 207.337628,283.255006 202.136886,287.167545 C202.136886,287.167545 197.769003,289.098365 201.522758,290.744143 C202.059489,290.978284 206.434103,291.283686 210.616906,290.469281 C214.141834,289.783823 218.642638,288.660622 223.257855,286.84348 C230.884825,283.838663 238.823065,278.945443 243.189265,271.02026 L253.335003,252.604515 Z" id="Fill-70" fill="#723D25" mask="url(#mask-2)"></path>
                    <path d="M333.664997,252.604515 C333.664997,252.604515 329.552861,237.802695 341.779905,230.099776 C349.894812,224.985988 360.784234,224.845164 367.98552,228.62706 C367.98552,228.62706 375.487981,232.032293 379.765007,240.335835 C382.302282,245.262989 383.688698,253.486788 383.374063,260.78929 C383.374063,260.78929 379.660689,283.255006 384.863114,287.167545 C384.863114,287.167545 389.230997,289.098365 385.477242,290.744143 C384.938828,290.978284 380.565897,291.283686 376.383094,290.469281 C372.856483,289.783823 368.357362,288.660622 363.742145,286.84348 C356.115175,283.838663 348.176935,278.945443 343.810735,271.02026 L333.664997,252.604515 Z" id="Fill-71" fill="#723D25" mask="url(#mask-2)"></path>
                    <path d="M350,267 C346.179423,239.892571 322.126192,219 292.999154,219 C263.875499,219 239.820577,239.892571 236,267 L350,267 Z" id="Fill-72" fill="#723D25" mask="url(#mask-2)"></path>
                    <path d="M312,265.151319 C312,265.151319 309.307851,285.634889 293.160062,287 L236.643649,287 C236.643649,287 234.655575,275.235193 237.667448,262 L312,265.151319 Z" id="Fill-73" fill="#723D25" mask="url(#mask-2)"></path>
                    <path d="M309,265.151319 C309,265.151319 311.710623,287 324.830517,287 L350.645646,287 C350.645646,287 351.741539,275.235193 350.078864,262 L309,265.151319 Z" id="Fill-74" fill="#723D25" mask="url(#mask-2)"></path>
                    <path d="M314.550773,318 L294.554288,318 L293.444027,318 L273.449227,318 C273.449227,318 270.115076,318 271.227021,321.777778 C271.227021,321.777778 275.502957,334.465474 293.444027,334.975938 L293.444027,335 C293.634406,335 293.811306,334.991406 293.998315,334.987969 C294.187009,334.991406 294.363909,335 294.554288,335 L294.554288,334.975938 C312.495359,334.465474 316.772979,321.777778 316.772979,321.777778 C317.884924,318 314.550773,318 314.550773,318" id="Fill-75" fill="#8B2B23" mask="url(#mask-2)"></path>
                    <path d="M293.499179,308.195632 C290.744092,308.195632 288.327436,306.907188 287,305 L287,305.393085 C287,308.477707 289.924302,311 293.499179,311 C297.074055,311 300,308.477707 300,305.393085 L300,305 C298.669278,306.907188 296.254265,308.195632 293.499179,308.195632" id="Fill-76" fill="#E39483" mask="url(#mask-2)"></path>
                    <path d="M271.001738,298.87576 C273.646723,298.87576 276.086643,299.298002 278,300 L278,298.999131 C278,295.150304 274.851043,292 271.001738,292 C267.150695,292 264,295.150304 264,298.999131 L264,300 L264.003476,300 C265.915094,299.298002 268.355015,298.87576 271.001738,298.87576" id="Fill-77" fill="#754448" mask="url(#mask-2)"></path>
                    <path d="M316.998262,298.87576 C319.646723,298.87576 322.084906,299.298002 323.996524,300 L324,300 L324,298.999131 C324,295.150304 320.849305,292 316.998262,292 C313.150695,292 310,295.150304 310,298.999131 L310,300 C311.913357,299.298002 314.349801,298.87576 316.998262,298.87576" id="Fill-78" fill="#754448" mask="url(#mask-2)"></path>
                    <path d="M271,309.5 C271,313.090116 268.088473,316 264.5,316 C260.909884,316 258,313.090116 258,309.5 C258,305.908241 260.909884,303 264.5,303 C268.088473,303 271,305.908241 271,309.5" id="Fill-79" fill="#F8B4A8" mask="url(#mask-2)"></path>
                    <path d="M328,309.5 C328,313.090116 325.088841,316 321.499179,316 C317.909516,316 315,313.090116 315,309.5 C315,305.908241 317.909516,303 321.499179,303 C325.088841,303 328,305.908241 328,309.5" id="Fill-80" fill="#F8B4A8" mask="url(#mask-2)"></path>
                    <path d="M294.053141,318 L292.946859,318 L280,318 C281.729824,321.541702 285.348709,324 289.519059,324 L297.477589,324 C301.649615,324 305.2685,321.541702 307,318 L294.053141,318 Z" id="Fill-81" fill="#FFFFFF" mask="url(#mask-2)"></path>
                    <path d="M236.257281,243.559622 C237.328947,239.559805 241.441273,237.185554 245.440792,238.2573 C249.440312,239.329046 251.814385,243.441678 250.742719,247.441496 C249.671053,251.439603 245.558727,253.815563 241.559208,252.742108 C237.559688,251.670362 235.185615,247.559439 236.257281,243.559622" id="Fill-82" fill="#F185B5" mask="url(#mask-2)"></path>
                    <path d="M243.257281,231.559208 C244.328947,227.559688 248.439564,225.185615 252.440792,226.257281 C256.440312,227.328947 258.814385,231.441273 257.742719,235.440792 C256.669344,239.440312 252.558727,241.814385 248.559208,240.742719 C244.559688,239.671053 242.185615,235.560436 243.257281,231.559208" id="Fill-83" fill="#F185B5" mask="url(#mask-2)"></path>
                    <path d="M348.742578,243.559622 C347.670799,239.559805 343.559747,237.185554 339.558094,238.2573 C335.559861,239.329046 333.185536,243.441678 334.257316,247.441496 C335.329095,251.439603 339.440147,253.815563 343.44009,252.742108 C347.441742,251.670362 349.814358,247.559439 348.742578,243.559622" id="Fill-84" fill="#F185B5" mask="url(#mask-2)"></path>
                    <path d="M342.742719,231.559208 C341.671053,227.559688 337.558727,225.185615 333.559208,226.257281 C329.559688,227.328947 327.185615,231.441273 328.257281,235.440792 C329.328947,239.440312 333.441273,241.814385 337.440792,240.742719 C341.440312,239.671053 343.814385,235.560436 342.742719,231.559208" id="Fill-85" fill="#F185B5" mask="url(#mask-2)"></path>
                    <path d="M271.265627,368.930058 C273.017673,368.80507 274.635988,368.258455 276.032547,367.406869 C276.931422,372.593043 281.701727,376.359352 287.144073,375.972722 C290.160639,375.757742 292.779398,374.301214 294.543293,372.156418 C296.603429,374.029573 299.408395,375.097805 302.424961,374.882826 C307.229122,374.539525 311.034532,371.064855 311.952029,366.635276 C313.548337,367.391871 315.357938,367.766835 317.25218,367.633514 C323.038163,367.22022 327.390347,362.267358 326.972226,356.569566 C326.902821,355.629655 326.697993,354.733074 326.394982,353.886487 L323.202365,352 C319.510372,362.412344 307.692949,370.033286 293.674888,370.033286 C279.694069,370.033286 267.90373,362.45234 264.177882,352.083325 L261.203636,353.82816 C260.328459,355.476336 259.88156,357.36949 260.027141,359.360967 C260.446955,365.058759 265.477951,369.341685 271.265627,368.930058" id="Fill-86" fill="#F2F2F2" mask="url(#mask-2)"></path>
                    <path d="M293.5,220 L293.5,220 C291.574439,220 290,218.347094 290,216.325567 L290,204.674433 C290,202.652906 291.574439,201 293.5,201 C295.425561,201 297,202.652906 297,204.674433 L297,216.325567 C297,218.347094 295.425561,220 293.5,220" id="Fill-87" fill="#FFC82C" mask="url(#mask-2)"></path>
                    <path d="M246.434169,366.818976 C253.176263,379.319064 295.474048,455.158332 336.867013,469.808429 C337.673556,470.093634 338.558043,470.054819 339.349337,469.729112 L341.826578,468.714861 C344.171654,467.752926 344.751145,464.710175 342.9127,462.971942 C326.253171,447.208027 294.377759,430.865263 257.64953,370.862477 C257.481782,370.587398 257.449588,370.26844 257.285229,369.993361 C256.075414,367.974985 250.758327,359.643281 247.11702,362.64553 C245.900427,363.649655 245.685236,365.433453 246.434169,366.818976" id="Fill-88" fill="#FFC82C" mask="url(#mask-2)"></path>
                    <path d="M324,220.500848 C324,227.956844 310.791172,234 294.499148,234 C278.207124,234 265,227.956844 265,220.500848 C265,213.044852 278.207124,207 294.499148,207 C310.791172,207 324,213.044852 324,220.500848" id="Fill-89" fill="#FFC82C" mask="url(#mask-2)"></path>
                    <path d="M240.9126,425.26132 C240.9126,425.26132 246.636852,444.848707 306.810892,445.710885 C306.810892,445.710885 322.753154,441.67664 348.8508,450.228832 C348.8508,450.228832 368.476081,471.121365 342.694944,480.359225 C342.694944,480.359225 327.043804,482.809982 281.750788,478.12571 C281.750788,478.12571 217.780326,474.909516 210.14517,462.881459 C203.845446,454.037349 201.450468,434.383771 207.484459,420 L240.9126,425.26132 Z" id="Fill-90" fill="#F4BDAE" mask="url(#mask-2)"></path>
                    <path d="M339.958325,429.004048 C339.958325,429.004048 335.670682,441.34839 275.790833,435.819942 C275.790833,435.819942 260.377307,430.155177 233.536832,435.819942 C233.536832,435.819942 211.447438,444.820289 231.234867,467.580328 C231.234867,467.580328 251.744515,470.256197 297.245961,470.436271 C297.245961,470.436271 361.147906,474.046171 370.014109,462.996007 C377.212613,454.944837 381.679542,435.819942 377.212613,421 L339.958325,429.004048 Z" id="Fill-91" fill="#FBCAB9" mask="url(#mask-2)"></path>
                    <path d="M244.447851,430 L251.33735,398.110917 C254.141017,385.129762 247.786608,372.644072 237.213022,370.361521 C226.639436,368.080678 215.694876,376.833305 212.891209,389.814459 L206,421.703542 L244.447851,430 Z" id="Fill-92" fill="#F794C4" mask="url(#mask-2)"></path>
                    <path d="M339.553988,429 L334.377293,397.006955 C332.271405,383.987398 339.196799,371.925087 349.770257,370.205779 C360.342021,368.486471 370.715724,377.733055 372.823306,390.754309 L378,422.745657 L339.553988,429 Z" id="Fill-93" fill="#F794C4" mask="url(#mask-2)"></path>
                </g>
            </g>
        </g>
    </g>
</svg>