<?xml version="1.0" encoding="UTF-8"?>
<svg width="46px" height="101px" viewBox="0 0 46 101" version="1.1" xmlns="http://www.w3.org/2000/svg" xmlns:xlink="http://www.w3.org/1999/xlink">
    <!-- Generator: Sketch 46.2 (44496) - http://www.bohemiancoding.com/sketch -->
    <title>Combined Shape</title>
    <desc>Created with Sketch.</desc>
    <defs></defs>
    <g id="Page-1" stroke="none" stroke-width="1" fill="none" fill-rule="evenodd" fill-opacity="0.5">
        <g id="Desktop---FINAL" transform="translate(-69.000000, -5702.000000)" fill="#D8D8D8">
            <g id="Group-12" transform="translate(0.000000, 5250.000000)">
                <path d="M93.4762664,523.331194 L141.375401,483.091066 C142.115683,482.469155 142.21164,481.36488 141.589729,480.624599 C140.967818,479.884317 139.863543,479.78836 139.123262,480.410271 L92,519.998586 L44.8767385,480.410271 C44.1364573,479.78836 43.0321821,479.884317 42.4102708,480.624599 C41.7883596,481.36488 41.8843174,482.469155 42.6245986,483.091066 L90.5237336,523.331194 C90.5520832,523.371337 90.5823452,523.410622 90.6145298,523.448932 C90.9710028,523.873254 91.4859547,524.085885 92,524.072976 C92.5140453,524.085885 93.0289972,523.873254 93.3854702,523.448932 C93.4176548,523.410622 93.4479168,523.371337 93.4762664,523.331194 Z" id="Combined-Shape" transform="translate(92.000000, 502.036765) rotate(-270.000000) translate(-92.000000, -502.036765) "></path>
            </g>
        </g>
    </g>
</svg>