<?xml version="1.0" encoding="UTF-8"?>
<svg width="46px" height="101px" viewBox="0 0 46 101" version="1.1" xmlns="http://www.w3.org/2000/svg" xmlns:xlink="http://www.w3.org/1999/xlink">
    <!-- Generator: Sketch 46.2 (44496) - http://www.bohemiancoding.com/sketch -->
    <title>Combined Shape</title>
    <desc>Created with Sketch.</desc>
    <defs></defs>
    <g id="Page-1" stroke="none" stroke-width="1" fill="none" fill-rule="evenodd">
        <g id="Desktop---FINAL" transform="translate(-1325.000000, -5702.000000)" fill="#D8D8D8">
            <g id="Group-12" transform="translate(0.000000, 5250.000000)">
                <path d="M1349.47627,523.331194 L1397.3754,483.091066 C1398.11568,482.469155 1398.21164,481.36488 1397.58973,480.624599 C1396.96782,479.884317 1395.86354,479.78836 1395.12326,480.410271 L1348,519.998586 L1300.87674,480.410271 C1300.13646,479.78836 1299.03218,479.884317 1298.41027,480.624599 C1297.78836,481.36488 1297.88432,482.469155 1298.6246,483.091066 L1346.52373,523.331194 C1346.55208,523.371337 1346.58235,523.410622 1346.61453,523.448932 C1346.971,523.873254 1347.48595,524.085885 1348,524.072976 C1348.51405,524.085885 1349.029,523.873254 1349.38547,523.448932 C1349.41765,523.410622 1349.44792,523.371337 1349.47627,523.331194 Z" id="Combined-Shape" transform="translate(1348.000000, 502.036765) scale(-1, 1) rotate(-270.000000) translate(-1348.000000, -502.036765) "></path>
            </g>
        </g>
    </g>
</svg>