<?xml version="1.0" encoding="UTF-8"?>
<svg width="151px" height="165px" viewBox="0 0 151 165" version="1.1" xmlns="http://www.w3.org/2000/svg" xmlns:xlink="http://www.w3.org/1999/xlink">
    <!-- Generator: Sketch 46.2 (44496) - http://www.bohemiancoding.com/sketch -->
    <title>Page 1</title>
    <desc>Created with Sketch.</desc>
    <defs>
        <polygon id="path-1" points="0.673927381 0.530163934 12.5831536 0.530163934 12.5831536 12.4767951 0.673927381 12.4767951 0.673927381 0.530163934"></polygon>
        <polygon id="path-3" points="146.224895 45.0819672 0.617751786 45.0819672 0.617751786 0.000180327869 146.224895 0.000180327869"></polygon>
        <polygon id="path-5" points="0 164.469836 151 164.469836 151 0.901639344 0 0.901639344"></polygon>
    </defs>
    <g id="Page-1" stroke="none" stroke-width="1" fill="none" fill-rule="evenodd">
        <g id="avatar" transform="translate(-242.000000, -789.000000)">
            <g id="doctor-copy-6" transform="translate(234.000000, 789.000000)">
                <g id="Page-1" transform="translate(8.000000, 0.000000)">
                    <path d="M79.2486649,138.566189 L72.9569982,138.566189 C40.3302125,138.566189 13.6355696,111.7875 13.6355696,79.0579918 L13.6355696,66.0996311 C13.6355696,33.370123 40.3302125,6.59233607 72.9569982,6.59233607 L79.2486649,6.59233607 C111.875451,6.59233607 138.570093,33.370123 138.570093,66.0996311 L138.570093,79.0579918 C138.570093,111.7875 111.875451,138.566189 79.2486649,138.566189 Z" id="Fill-1" fill="#48677C"></path>
                    <path d="M26.8113982,85.1255738 L16.4678982,85.1255738 C8.64645774,85.1255738 2.24693393,80.4595902 2.24693393,74.7567213 C2.24693393,69.0538525 8.64645774,64.3878689 16.4678982,64.3878689 L26.8113982,64.3878689 L26.8113982,85.1255738 Z" id="Fill-3" fill="#48677C"></path>
                    <path d="M13.6777238,88.7321311 L12.3870333,88.7321311 C10.0240631,88.7321311 8.08892619,86.7918033 8.08892619,84.4204918 L8.08892619,65.0929508 C8.08892619,62.7216393 10.0240631,60.7813115 12.3870333,60.7813115 L13.6777238,60.7813115 C16.0415929,60.7813115 17.975831,62.7216393 17.975831,65.0929508 L17.975831,84.4204918 C17.975831,86.7918033 16.0415929,88.7321311 13.6777238,88.7321311" id="Fill-5" fill="#C7D7DF"></path>
                    <path d="M124.637647,85.1255738 L134.981147,85.1255738 C142.802587,85.1255738 149.202111,80.4595902 149.202111,74.7567213 C149.202111,69.0538525 142.802587,64.3878689 134.981147,64.3878689 L124.637647,64.3878689 L124.637647,85.1255738 Z" id="Fill-7" fill="#48677C"></path>
                    <path d="M137.771321,88.7321311 L139.062012,88.7321311 C141.424982,88.7321311 143.360119,86.7918033 143.360119,84.4204918 L143.360119,65.0929508 C143.360119,62.7216393 141.424982,60.7813115 139.062012,60.7813115 L137.771321,60.7813115 C135.407452,60.7813115 133.473214,62.7216393 133.473214,65.0929508 L133.473214,84.4204918 C133.473214,86.7918033 135.407452,88.7321311 137.771321,88.7321311" id="Fill-9" fill="#C7D7DF"></path>
                    <path d="M127.069017,37.3386885 L127.069017,37.3386885 C125.923035,37.3386885 124.985576,36.3982787 124.985576,35.2486885 L124.985576,11.3552459 C124.985576,10.2047541 125.923035,9.26344262 127.069017,9.26344262 C128.214999,9.26344262 129.152457,10.2047541 129.152457,11.3552459 L129.152457,35.2486885 C129.152457,36.3982787 128.214999,37.3386885 127.069017,37.3386885" id="Fill-11" fill="#BFD0D9"></path>
                    <g id="Group-15" transform="translate(120.440476, 0.371475)">
                        <mask id="mask-2" fill="white">
                            <use xlink:href="#path-1"></use>
                        </mask>
                        <g id="Clip-14"></g>
                        <path d="M12.5831536,6.50343443 C12.5831536,9.80163115 9.91728452,12.4767951 6.62854048,12.4767951 C3.33979643,12.4767951 0.673927381,9.80163115 0.673927381,6.50343443 C0.673927381,3.20433607 3.33979643,0.53007377 6.62854048,0.53007377 C9.91728452,0.53007377 12.5831536,3.20433607 12.5831536,6.50343443" id="Fill-13" fill="#C7D7DF" mask="url(#mask-2)"></path>
                    </g>
                    <g id="Group-18" transform="translate(2.696429, 119.387869)">
                        <mask id="mask-4" fill="white">
                            <use xlink:href="#path-3"></use>
                        </mask>
                        <g id="Clip-17"></g>
                        <path d="M136.33799,16.5605902 L102.183228,4.59944262 C95.8915613,2.76009836 93.1951327,0.000180327869 93.1951327,0.000180327869 L73.4213232,0.879278689 L53.6475137,0.000180327869 C53.6475137,0.000180327869 50.9510851,2.76009836 44.6594185,4.59944262 L10.5046565,16.5605902 C10.5046565,16.5605902 0.617751786,21.1616557 0.617751786,30.3619836 L0.617751786,45.0821475 L72.5225137,45.0821475 L74.3201327,45.0821475 L146.224895,45.0821475 L146.224895,30.3619836 C146.224895,21.1616557 136.33799,16.5605902 136.33799,16.5605902" id="Fill-16" fill="#FFCBB9" mask="url(#mask-4)"></path>
                    </g>
                    <mask id="mask-6" fill="white">
                        <use xlink:href="#path-5"></use>
                    </mask>
                    <g id="Clip-20"></g>
                    <polygon id="Fill-19" fill="#FFCBB9" mask="url(#mask-6)" points="56.3436726 137.420656 95.8912917 137.420656 95.8912917 109.469836 56.3436726 109.469836"></polygon>
                    <path d="M56.3439423,115.673025 C62.1808113,120.293926 69.1259125,122.994336 76.5671565,122.994336 C83.6273054,122.994336 90.2470375,120.572533 95.8915613,116.376303 L95.8915613,107.666467 L56.3439423,107.666467 L56.3439423,115.673025 Z" id="Fill-21" fill="#E39586" mask="url(#mask-6)"></path>
                    <path d="M79.7129899,105.945148 L72.5225137,105.945148 C50.7713232,105.945148 32.9748946,88.0926885 32.9748946,66.2730164 L32.9748946,60.7811311 C32.9748946,38.961459 50.7713232,21.109 72.5225137,21.109 L79.7129899,21.109 C101.46418,21.109 119.260609,38.961459 119.260609,60.7811311 L119.260609,66.2730164 C119.260609,88.0926885 101.46418,105.945148 79.7129899,105.945148" id="Fill-22" fill="#79464D" mask="url(#mask-6)"></path>
                    <path d="M76.1177518,118.48623 L76.1177518,118.48623 C55.6024244,118.48623 38.8171565,104.353033 38.8171565,83.7731148 L38.8171565,70.2485246 C38.8171565,49.6686066 55.6024244,32.8304918 76.1177518,32.8304918 C96.6330792,32.8304918 113.418347,49.6686066 113.418347,70.2485246 L113.418347,83.7731148 C113.418347,104.353033 96.6330792,118.48623 76.1177518,118.48623" id="Fill-23" fill="#FFCBB9" mask="url(#mask-6)"></path>
                    <path d="M46.4570375,86.9288525 L38.3677518,86.9288525 C33.671472,86.9288525 29.8290613,83.0743443 29.8290613,78.3632787 C29.8290613,73.6522131 33.671472,69.7977049 38.3677518,69.7977049 L46.4570375,69.7977049 C51.1533173,69.7977049 54.995728,73.6522131 54.995728,78.3632787 C54.995728,83.0743443 51.1533173,86.9288525 46.4570375,86.9288525" id="Fill-24" fill="#FFCBB9" mask="url(#mask-6)"></path>
                    <path d="M113.867752,86.9288525 L105.778466,86.9288525 C101.082186,86.9288525 97.2397756,83.0743443 97.2397756,78.3632787 C97.2397756,73.6522131 101.082186,69.7977049 105.778466,69.7977049 L113.867752,69.7977049 C118.564032,69.7977049 122.406442,73.6522131 122.406442,78.3632787 C122.406442,83.0743443 118.564032,86.9288525 113.867752,86.9288525" id="Fill-25" fill="#FFCBB9" mask="url(#mask-6)"></path>
                    <path d="M38.8171565,74.3059016 L38.3677518,74.3059016 C36.1431982,74.3059016 34.3231089,75.799918 34.3231089,77.6257377 L34.3231089,79.1008197 C34.3231089,80.9266393 36.1431982,82.4206557 38.3677518,82.4206557 L38.8171565,82.4206557 L38.8171565,74.3059016 Z" id="Fill-26" fill="#E39586" mask="url(#mask-6)"></path>
                    <path d="M113.418347,74.3059016 L113.867752,74.3059016 C116.092305,74.3059016 117.912395,75.799918 117.912395,77.6257377 L117.912395,79.1008197 C117.912395,80.9266393 116.092305,82.4206557 113.867752,82.4206557 L113.418347,82.4206557 L113.418347,74.3059016 Z" id="Fill-27" fill="#E39586" mask="url(#mask-6)"></path>
                    <path d="M93.1951327,91.4370492 L77.0165613,91.4370492 L76.1177518,91.4370492 L59.9391804,91.4370492 C59.9391804,91.4370492 57.2427518,91.4370492 58.1415613,94.4422131 C58.1415613,94.4422131 61.601978,104.536066 76.1177518,104.942705 L76.1177518,104.961639 C76.2714482,104.961639 76.4161565,104.953525 76.5671565,104.951721 C76.7181565,104.953525 76.8628649,104.961639 77.0165613,104.961639 L77.0165613,104.942705 C91.5323351,104.536066 94.9927518,94.4422131 94.9927518,94.4422131 C95.8915613,91.4370492 93.1951327,91.4370492 93.1951327,91.4370492" id="Fill-28" fill="#8B2A23" mask="url(#mask-6)"></path>
                    <path d="M76.5671565,98.6501639 C73.0015792,98.6501639 69.9078768,100.636475 68.3008054,103.560492 C70.4579482,104.331393 73.0366327,104.856148 76.1177518,104.942705 L76.1177518,104.961639 C76.2714482,104.961639 76.4161565,104.953525 76.5671565,104.951721 C76.7181565,104.953525 76.8628649,104.961639 77.0165613,104.961639 L77.0165613,104.942705 C80.0976804,104.856148 82.6763649,104.331393 84.8335077,103.560492 C83.2264363,100.636475 80.1327339,98.6501639 76.5671565,98.6501639" id="Fill-29" fill="#DB6565" mask="url(#mask-6)"></path>
                    <path d="M76.1177518,83.0194344 C73.8320792,83.0194344 71.8277339,82.0519754 70.7248946,80.6174672 L70.7248946,80.9132049 C70.7248946,83.2295164 73.1516804,85.1256639 76.1177518,85.1256639 C79.0838232,85.1256639 81.5106089,83.2295164 81.5106089,80.9132049 L81.5106089,80.6174672 C80.4077696,82.0519754 78.4034244,83.0194344 76.1177518,83.0194344" id="Fill-30" fill="#E49584" mask="url(#mask-6)"></path>
                    <path d="M57.516619,73.4042623 C59.5937679,73.4042623 61.5046369,73.7369672 63.0065476,74.2887705 L63.0074464,74.2887705 L63.0074464,73.502541 C63.0074464,70.4730328 60.536619,67.9944262 57.516619,67.9944262 C54.496619,67.9944262 52.0257917,70.4730328 52.0257917,73.502541 L52.0257917,74.2887705 L52.0266905,74.2887705 C53.5286012,73.7369672 55.4394702,73.4042623 57.516619,73.4042623" id="Fill-31" fill="#754448" mask="url(#mask-6)"></path>
                    <path d="M94.894422,73.4042623 C96.9715708,73.4042623 98.8824399,73.7369672 100.384351,74.2887705 L100.385249,74.2887705 L100.385249,73.502541 C100.385249,70.4730328 97.914422,67.9944262 94.894422,67.9944262 C91.8753208,67.9944262 89.4044935,70.4730328 89.4044935,73.502541 L89.4044935,74.2887705 L89.4053923,74.2887705 C90.9064042,73.7369672 92.8172732,73.4042623 94.894422,73.4042623" id="Fill-32" fill="#754448" mask="url(#mask-6)"></path>
                    <path d="M58.5909661,82.4206557 C58.5909661,85.4077869 56.1758649,87.8304918 53.1981089,87.8304918 C50.220353,87.8304918 47.8052518,85.4077869 47.8052518,82.4206557 C47.8052518,79.4335246 50.220353,77.0108197 53.1981089,77.0108197 C56.1758649,77.0108197 58.5909661,79.4335246 58.5909661,82.4206557" id="Fill-33" fill="#FFB7A9" mask="url(#mask-6)"></path>
                    <path d="M104.430252,82.4206557 C104.430252,85.4077869 102.015151,87.8304918 99.0373946,87.8304918 C96.0596387,87.8304918 93.6445375,85.4077869 93.6445375,82.4206557 C93.6445375,79.4335246 96.0596387,77.0108197 99.0373946,77.0108197 C102.015151,77.0108197 104.430252,79.4335246 104.430252,82.4206557" id="Fill-34" fill="#FFB7A9" mask="url(#mask-6)"></path>
                    <path d="M1.23568333,164.469836 L1.23568333,152.34459 C1.23568333,132.73123 22.0368321,116.682951 47.4596595,116.682951 L104.775844,116.682951 C130.198671,116.682951 150.99982,132.73123 150.99982,152.34459 L150.99982,164.469836 L1.23568333,164.469836 Z" id="Fill-35" fill="#F4F4F4" mask="url(#mask-6)"></path>
                    <path d="M138.570093,79.212082 C138.492796,111.94159 111.736135,138.657164 79.1093494,138.580525 L72.8176827,138.565197 C40.4075101,138.489459 13.9258851,112.000197 13.6508494,79.5673279 L13.6508494,89.8847869 C13.6508494,122.614295 40.3454923,149.392984 72.972278,149.392984 L79.2639446,149.392984 C111.889832,149.392984 138.585373,122.614295 138.585373,89.8847869 L138.585373,76.9273279 C138.585373,76.8065082 138.576385,76.6883934 138.576385,76.5675738 L138.570093,79.212082 Z" id="Fill-36" fill="#BFD0D9" mask="url(#mask-6)"></path>
                    <path d="M-0.000179761905,154.895238 L-0.000179761905,154.895238 C-0.000179761905,153.596877 1.05951667,152.533844 2.35380238,152.533844 L25.5089333,152.533844 C26.803219,152.533844 27.8629155,153.596877 27.8629155,154.895238 C27.8629155,156.193598 26.803219,157.256631 25.5089333,157.256631 L2.35380238,157.256631 C1.05951667,157.256631 -0.000179761905,156.193598 -0.000179761905,154.895238" id="Fill-37" fill="#1B9DC7" mask="url(#mask-6)"></path>
                    <path d="M-0.000179761905,150.601811 L-0.000179761905,150.601811 C-0.000179761905,149.303451 1.05951667,148.240418 2.35380238,148.240418 L25.5089333,148.240418 C26.803219,148.240418 27.8629155,149.303451 27.8629155,150.601811 C27.8629155,151.900172 26.803219,152.963205 25.5089333,152.963205 L2.35380238,152.963205 C1.05951667,152.963205 -0.000179761905,151.900172 -0.000179761905,150.601811" id="Fill-38" fill="#E44D4F" mask="url(#mask-6)"></path>
                    <path d="M122.222995,78.0841311 C122.222995,89.5547869 113.153108,98.9399508 102.068989,98.9399508 L49.7987214,98.9399508 C38.7146024,98.9399508 29.6456143,89.5547869 29.6456143,78.0841311 L29.6456143,65.847082 C29.6456143,54.3764262 38.7146024,44.9912623 49.7987214,44.9912623 L102.068989,44.9912623 C113.153108,44.9912623 122.222995,54.3764262 122.222995,65.847082 L122.222995,78.0841311 Z M79.2482155,3.97839344 L72.9565488,3.97839344 C40.3297631,3.97839344 13.6351202,31.6037213 13.6351202,65.3674098 L13.6351202,78.7360164 C13.6351202,112.499705 40.3297631,140.125934 72.9565488,140.125934 L79.2482155,140.125934 C111.875001,140.125934 138.569644,112.499705 138.569644,78.7360164 L138.569644,65.3674098 C138.569644,31.6037213 111.875001,3.97839344 79.2482155,3.97839344 L79.2482155,3.97839344 Z" id="Fill-39" fill="#F4F4F4" mask="url(#mask-6)"></path>
                    <polygon id="Fill-40" fill-opacity="0.3" fill="#FFFFFF" mask="url(#mask-6)" points="79.9938679 98.6501639 43.1426774 98.6501639 71.9045821 44.5518033 108.755773 44.5518033"></polygon>
                    <path d="M121.339106,155.904262 C121.339106,157.647131 119.930671,159.06 118.193273,159.06 C116.455874,159.06 115.047439,157.647131 115.047439,155.904262 C115.047439,154.161393 116.455874,152.748525 118.193273,152.748525 C119.930671,152.748525 121.339106,154.161393 121.339106,155.904262" id="Fill-41" fill="#C7D7DF" mask="url(#mask-6)"></path>
                    <path d="M112.351011,155.904262 C112.351011,157.647131 110.942576,159.06 109.205177,159.06 C107.467779,159.06 106.059344,157.647131 106.059344,155.904262 C106.059344,154.161393 107.467779,152.748525 109.205177,152.748525 C110.942576,152.748525 112.351011,154.161393 112.351011,155.904262" id="Fill-42" fill="#C7D7DF" mask="url(#mask-6)"></path>
                    <path d="M103.362915,155.904262 C103.362915,157.647131 101.954481,159.06 100.217082,159.06 C98.4796833,159.06 97.0712488,157.647131 97.0712488,155.904262 C97.0712488,154.161393 98.4796833,152.748525 100.217082,152.748525 C101.954481,152.748525 103.362915,154.161393 103.362915,155.904262" id="Fill-43" fill="#C7D7DF" mask="url(#mask-6)"></path>
                    <path d="M82.6902964,115.330492 C82.6902964,119.065984 79.6729929,122.092787 75.949225,122.092787 C72.2254571,122.092787 69.2081536,119.065984 69.2081536,115.330492 C69.2081536,111.595 72.2254571,108.568197 75.949225,108.568197 C79.6729929,108.568197 82.6902964,111.595 82.6902964,115.330492" id="Fill-44" fill="#C7D7DF" mask="url(#mask-6)"></path>
                    <path d="M73.7022012,131.44991 L45.0823083,131.44991 C23.500094,131.44991 5.84208214,113.736303 5.84208214,92.0861393 L5.84208214,70.2484344" id="Stroke-45" stroke="#48677C" stroke-width="3" stroke-linecap="round" stroke-linejoin="round" mask="url(#mask-6)"></path>
                    <path d="M74.189356,136.895 L66.0623202,136.895 L66.0623202,125.248525 L74.189356,125.248525 C77.3819274,125.248525 79.9938679,127.868689 79.9938679,131.071311 C79.9938679,134.274836 77.3819274,136.895 74.189356,136.895" id="Fill-46" fill="#48677C" mask="url(#mask-6)"></path>
                    <path d="M81.5492577,30.6556475 L81.1349065,30.6556475 C80.5075375,30.6556475 79.9943173,30.1408115 79.9943173,29.5105656 L79.9943173,20.8223689 C79.9943173,20.1930246 80.5075375,19.6772869 81.1349065,19.6772869 L81.5492577,19.6772869 C82.1766268,19.6772869 82.6907458,20.1930246 82.6907458,20.8223689 L82.6907458,29.5105656 C82.6907458,30.1408115 82.1766268,30.6556475 81.5492577,30.6556475" id="Fill-47" fill="#C7D7DF" mask="url(#mask-6)"></path>
                    <path d="M75.949225,35.5354098 L75.949225,35.5354098 C75.2077071,35.5354098 74.6010107,34.9268033 74.6010107,34.1829508 L74.6010107,16.1501639 C74.6010107,15.4063115 75.2077071,14.7977049 75.949225,14.7977049 C76.6907429,14.7977049 77.2974393,15.4063115 77.2974393,16.1501639 L77.2974393,34.1829508 C77.2974393,34.9268033 76.6907429,35.5354098 75.949225,35.5354098" id="Fill-48" fill="#C7D7DF" mask="url(#mask-6)"></path>
                    <path d="M70.7635435,30.6556475 L70.3491923,30.6556475 C69.7218232,30.6556475 69.208603,30.1408115 69.208603,29.5105656 L69.208603,20.8223689 C69.208603,20.1930246 69.7218232,19.6772869 70.3491923,19.6772869 L70.7635435,19.6772869 C71.3909125,19.6772869 71.9050315,20.1930246 71.9050315,20.8223689 L71.9050315,29.5105656 C71.9050315,30.1408115 71.3909125,30.6556475 70.7635435,30.6556475" id="Fill-49" fill="#C7D7DF" mask="url(#mask-6)"></path>
                </g>
            </g>
        </g>
    </g>
</svg>