<?xml version="1.0" encoding="UTF-8"?>
<svg width="118px" height="165px" viewBox="0 0 118 165" version="1.1" xmlns="http://www.w3.org/2000/svg" xmlns:xlink="http://www.w3.org/1999/xlink">
    <!-- Generator: Sketch 46.2 (44496) - http://www.bohemiancoding.com/sketch -->
    <title>Page 1</title>
    <desc>Created with Sketch.</desc>
    <defs>
        <polygon id="path-1" points="118 0.0002 118 50 0.0003 50 0.0003 0.0002 118 0.0002"></polygon>
        <polygon id="path-3" points="0 165 118 165 118 0 0 0"></polygon>
    </defs>
    <g id="Page-1" stroke="none" stroke-width="1" fill="none" fill-rule="evenodd">
        <g id="avatar" transform="translate(-610.000000, -220.000000)">
            <g id="doctor-copy" transform="translate(234.000000, 220.000000)">
                <g id="Page-1" transform="translate(376.000000, 0.000000)">
                    <path d="M59.5,139 C33.375,139 12,117.625 12,91.5 L12,47.5 C12,21.375 33.375,0 59.5,0 C85.625,0 107,21.375 107,47.5 L107,91.5 C107,117.625 85.625,139 59.5,139 Z" id="Fill-1" fill="#FFDE55"></path>
                    <g id="Group-5" transform="translate(0.000000, 115.000000)">
                        <mask id="mask-2" fill="white">
                            <use xlink:href="#path-1"></use>
                        </mask>
                        <g id="Clip-4"></g>
                        <path d="M109.9873,18.3672 L82.3083,5.1012 C77.2103,3.0612 75.0243,0.0002 75.0243,0.0002 L59.0003,0.9752 L42.9753,0.0002 C42.9753,0.0002 40.7903,3.0612 35.6913,5.1012 L8.0123,18.3672 C8.0123,18.3672 0.0003,23.4702 0.0003,33.6742 L0.0003,50.0002 L58.2713,50.0002 L59.7283,50.0002 L118.0003,50.0002 L118.0003,33.6742 C118.0003,23.4702 109.9873,18.3672 109.9873,18.3672" id="Fill-3" fill="#FFCBB9" mask="url(#mask-2)"></path>
                    </g>
                    <mask id="mask-4" fill="white">
                        <use xlink:href="#path-3"></use>
                    </mask>
                    <g id="Clip-7"></g>
                    <polygon id="Fill-6" fill="#FFCBB9" mask="url(#mask-4)" points="42 135 76 135 76 104 42 104"></polygon>
                    <path d="M42,110.8799 C47.019,116.0049 52.988,118.9999 59.387,118.9999 C65.457,118.9999 71.146,116.3139 76,111.6599 L76,101.9999 L42,101.9999 L42,110.8799 Z" id="Fill-8" fill="#E39586" mask="url(#mask-4)"></path>
                    <path d="M59,98 L59,98 C34.8,98 15,81.2 15,57 L15,50 C15,25.8 34.8,6 59,6 C83.2,6 103,25.8 103,50 L103,57 C103,81.2 83.2,98 59,98" id="Fill-9" fill="#FFDE55" mask="url(#mask-4)"></path>
                    <path d="M59,114 L59,114 C36.175,114 17.5,98.325 17.5,75.5 L17.5,60.5 C17.5,37.675 36.175,19 59,19 C81.825,19 100.5,37.675 100.5,60.5 L100.5,75.5 C100.5,98.325 81.825,114 59,114" id="Fill-10" fill="#FFCBB9" mask="url(#mask-4)"></path>
                    <path d="M26,79 L17,79 C11.775,79 7.5,74.725 7.5,69.5 C7.5,64.275 11.775,60 17,60 L26,60 C31.225,60 35.5,64.275 35.5,69.5 C35.5,74.725 31.225,79 26,79" id="Fill-11" fill="#FFCBB9" mask="url(#mask-4)"></path>
                    <path d="M101,79 L92,79 C86.775,79 82.5,74.725 82.5,69.5 C82.5,64.275 86.775,60 92,60 L101,60 C106.225,60 110.5,64.275 110.5,69.5 C110.5,74.725 106.225,79 101,79" id="Fill-12" fill="#FFCBB9" mask="url(#mask-4)"></path>
                    <path d="M17.5,65 L17,65 C14.525,65 12.5,66.657 12.5,68.682 L12.5,70.318 C12.5,72.343 14.525,74 17,74 L17.5,74 L17.5,65 Z" id="Fill-13" fill="#E39586" mask="url(#mask-4)"></path>
                    <path d="M100.5,65 L101,65 C103.475,65 105.5,66.657 105.5,68.682 L105.5,70.318 C105.5,72.343 103.475,74 101,74 L100.5,74 L100.5,65 Z" id="Fill-14" fill="#E39586" mask="url(#mask-4)"></path>
                    <path d="M78,84 L60,84 L59,84 L41,84 C41,84 38,84 39,87.333 C39,87.333 42.85,98.528 59,98.979 L59,99 C59.171,99 59.332,98.991 59.5,98.989 C59.668,98.991 59.829,99 60,99 L60,98.979 C76.15,98.528 80,87.333 80,87.333 C81,84 78,84 78,84" id="Fill-15" fill="#8B2A23" mask="url(#mask-4)"></path>
                    <path d="M59.5,92 C55.533,92 52.091,94.203 50.303,97.446 C52.703,98.301 55.572,98.883 59,98.979 L59,99 C59.171,99 59.332,98.991 59.5,98.989 C59.668,98.991 59.829,99 60,99 L60,98.979 C63.428,98.883 66.297,98.301 68.697,97.446 C66.909,94.203 63.467,92 59.5,92" id="Fill-16" fill="#DB6565" mask="url(#mask-4)"></path>
                    <path d="M78,84 L60,84 L59,84 L41,84 C41,84 38,84 39,87.333 C39,87.333 39.396,88.458 40.432,90 L78.568,90 C79.604,88.458 80,87.333 80,87.333 C81,84 78,84 78,84" id="Fill-17" fill="#FFFFFF" mask="url(#mask-4)"></path>
                    <path d="M59,74.6641 C56.457,74.6641 54.227,73.5911 53,72.0001 L53,72.3281 C53,74.8971 55.7,77.0001 59,77.0001 C62.3,77.0001 65,74.8971 65,72.3281 L65,72.0001 C63.773,73.5911 61.543,74.6641 59,74.6641" id="Fill-18" fill="#E49584" mask="url(#mask-4)"></path>
                    <path d="M39.5,74 C39.5,77.313 36.813,80 33.5,80 C30.187,80 27.5,77.313 27.5,74 C27.5,70.687 30.187,68 33.5,68 C36.813,68 39.5,70.687 39.5,74" id="Fill-19" fill="#FFB7A9" mask="url(#mask-4)"></path>
                    <path d="M90.5,74 C90.5,77.313 87.813,80 84.5,80 C81.187,80 78.5,77.313 78.5,74 C78.5,70.687 81.187,68 84.5,68 C87.813,68 90.5,70.687 90.5,74" id="Fill-20" fill="#FFB7A9" mask="url(#mask-4)"></path>
                    <path d="M79.8906,64 C82.2016,64 84.3276,64.369 85.9986,64.981 L85.9996,64.981 L85.9996,64.109 C85.9996,60.749 83.2506,58 79.8906,58 C76.5316,58 73.7826,60.749 73.7826,64.109 L73.7826,64.981 L73.7836,64.981 C75.4536,64.369 77.5796,64 79.8906,64" id="Fill-21" fill="#754448" mask="url(#mask-4)"></path>
                    <path d="M81.167,59.7471 L81.167,59.7471 C80.947,59.5811 80.903,59.2671 81.068,59.0471 L82.873,56.6501 C83.039,56.4311 83.354,56.3861 83.573,56.5521 C83.793,56.7171 83.838,57.0321 83.672,57.2521 L81.867,59.6481 C81.702,59.8681 81.387,59.9121 81.167,59.7471" id="Fill-22" fill="#754448" mask="url(#mask-4)"></path>
                    <path d="M83.4268,61.4482 L83.4268,61.4482 C83.2068,61.2832 83.1618,60.9682 83.3278,60.7482 L85.1328,58.3512 C85.2978,58.1322 85.6138,58.0882 85.8328,58.2532 C86.0528,58.4192 86.0968,58.7332 85.9318,58.9532 L84.1268,61.3492 C83.9608,61.5692 83.6468,61.6142 83.4268,61.4482" id="Fill-23" fill="#754448" mask="url(#mask-4)"></path>
                    <path d="M38.3359,64 C36.0249,64 33.8989,64.369 32.2279,64.981 L32.2269,64.981 L32.2269,64.109 C32.2269,60.749 34.9759,58 38.3359,58 C41.6959,58 44.4449,60.749 44.4449,64.109 L44.4449,64.981 L44.4439,64.981 C42.7729,64.369 40.6469,64 38.3359,64" id="Fill-24" fill="#754448" mask="url(#mask-4)"></path>
                    <path d="M37.0596,59.7471 L37.0596,59.7471 C37.2796,59.5811 37.3246,59.2671 37.1586,59.0471 L35.3536,56.6501 C35.1886,56.4311 34.8726,56.3861 34.6536,56.5521 C34.4336,56.7171 34.3896,57.0321 34.5546,57.2521 L36.3596,59.6481 C36.5256,59.8681 36.8396,59.9121 37.0596,59.7471" id="Fill-25" fill="#754448" mask="url(#mask-4)"></path>
                    <path d="M34.8008,61.4482 L34.8008,61.4482 C35.0208,61.2832 35.0648,60.9682 34.8998,60.7482 L33.0948,58.3512 C32.9288,58.1322 32.6138,58.0882 32.3948,58.2532 C32.1748,58.4192 32.1298,58.7332 32.2958,58.9532 L34.1008,61.3492 C34.2658,61.5692 34.5808,61.6142 34.8008,61.4482" id="Fill-26" fill="#754448" mask="url(#mask-4)"></path>
                    <path d="M15,48 C15,48 42,49 47,22 C47,22 55,49 103,50 L89,23 L57,12 L37.141,18.873 L18,38 L15,48 Z" id="Fill-27" fill="#FFDE55" mask="url(#mask-4)"></path>
                    <path d="M42.0254,16.542 C37.2294,20.735 35.9414,26.409 37.1404,27.458 C38.3394,28.506 44.8274,27.38 49.6234,23.187 C54.4184,18.992 55.7064,13.319 54.5064,12.271 C53.3074,11.223 46.8204,12.349 42.0254,16.542" id="Fill-28" fill="#EFCA2E" mask="url(#mask-4)"></path>
                    <path d="M29.8242,10 C28.1282,10 24.4512,14.808 24.4512,20.738 C24.4512,26.67 28.1282,31.478 29.8242,31.478 C31.5192,31.478 35.1962,26.67 35.1962,20.738 C35.1962,14.808 31.5192,10 29.8242,10" id="Fill-29" fill="#EFCA2E" mask="url(#mask-4)"></path>
                    <path d="M17.8242,23.1172 C16.1282,23.1172 12.4512,27.9262 12.4512,33.8562 C12.4512,39.7872 16.1282,44.5952 17.8242,44.5952 C19.5192,44.5952 23.1962,39.7872 23.1962,33.8562 C23.1962,27.9262 19.5192,23.1172 17.8242,23.1172" id="Fill-30" fill="#EFCA2E" mask="url(#mask-4)"></path>
                    <path d="M100.8242,23.9922 C99.1282,23.9922 95.4512,28.8002 95.4512,34.7302 C95.4512,40.6622 99.1282,45.4702 100.8242,45.4702 C102.5192,45.4702 106.1962,40.6622 106.1962,34.7302 C106.1962,28.8002 102.5192,23.9922 100.8242,23.9922" id="Fill-31" fill="#EFCA2E" mask="url(#mask-4)"></path>
                    <path d="M88.8242,10 C87.1282,10 83.4512,14.808 83.4512,20.738 C83.4512,26.67 87.1282,31.478 88.8242,31.478 C90.5192,31.478 94.1962,26.67 94.1962,20.738 C94.1962,14.808 90.5192,10 88.8242,10" id="Fill-32" fill="#EFCA2E" mask="url(#mask-4)"></path>
                    <path d="M64.1406,12.2705 C62.9416,13.3195 64.2296,18.9925 69.0256,23.1865 C73.8206,27.3795 80.3076,28.5055 81.5066,27.4585 C82.7056,26.4095 81.4176,20.7355 76.6226,16.5415 C71.8276,12.3485 65.3396,11.2225 64.1406,12.2705" id="Fill-33" fill="#EFCA2E" mask="url(#mask-4)"></path>
                    <path d="M49.623,18.9883 C44.827,23.7843 38.34,25.0723 37.141,23.8733 C35.941,22.6743 37.229,16.1863 42.025,11.3903 C46.82,6.5953 53.308,5.3073 54.507,6.5073 C55.706,7.7063 54.418,14.1933 49.623,18.9883" id="Fill-34" fill="#FFFFFF" mask="url(#mask-4)"></path>
                    <path d="M35.1963,16.1895 C35.1963,22.9715 31.5193,28.4695 29.8243,28.4695 C28.1283,28.4695 24.4513,22.9715 24.4513,16.1895 C24.4513,9.4085 28.1283,3.9105 29.8243,3.9105 C31.5193,3.9105 35.1963,9.4085 35.1963,16.1895" id="Fill-35" fill="#FFFFFF" mask="url(#mask-4)"></path>
                    <path d="M23.1963,31.1895 C23.1963,37.9715 19.5193,43.4695 17.8243,43.4695 C16.1283,43.4695 12.4513,37.9715 12.4513,31.1895 C12.4513,24.4085 16.1283,18.9105 17.8243,18.9105 C19.5193,18.9105 23.1963,24.4085 23.1963,31.1895" id="Fill-36" fill="#FFFFFF" mask="url(#mask-4)"></path>
                    <path d="M106.1963,32.1895 C106.1963,38.9715 102.5193,44.4695 100.8243,44.4695 C99.1283,44.4695 95.4513,38.9715 95.4513,32.1895 C95.4513,25.4085 99.1283,19.9105 100.8243,19.9105 C102.5193,19.9105 106.1963,25.4085 106.1963,32.1895" id="Fill-37" fill="#FFFFFF" mask="url(#mask-4)"></path>
                    <path d="M94.1963,16.1895 C94.1963,22.9715 90.5193,28.4695 88.8243,28.4695 C87.1283,28.4695 83.4513,22.9715 83.4513,16.1895 C83.4513,9.4085 87.1283,3.9105 88.8243,3.9105 C90.5193,3.9105 94.1963,9.4085 94.1963,16.1895" id="Fill-38" fill="#FFFFFF" mask="url(#mask-4)"></path>
                    <path d="M69.0254,18.9883 C73.8204,23.7843 80.3074,25.0723 81.5064,23.8733 C82.7064,22.6743 81.4184,16.1863 76.6234,11.3903 C71.8274,6.5953 65.3394,5.3073 64.1404,6.5073 C62.9414,7.7063 64.2294,14.1933 69.0254,18.9883" id="Fill-39" fill="#FFFFFF" mask="url(#mask-4)"></path>
                    <path d="M18.1113,85.5 C18.1113,86.911 16.9663,88.056 15.5553,88.056 C14.1443,88.056 13.0003,86.911 13.0003,85.5 C13.0003,84.089 14.1443,82.944 15.5553,82.944 C16.9663,82.944 18.1113,84.089 18.1113,85.5" id="Fill-40" fill="#FFFFFF" mask="url(#mask-4)"></path>
                    <path d="M105,85.5 C105,86.911 103.855,88.056 102.444,88.056 C101.033,88.056 99.889,86.911 99.889,85.5 C99.889,84.089 101.033,82.944 102.444,82.944 C103.855,82.944 105,84.089 105,85.5" id="Fill-41" fill="#FFFFFF" mask="url(#mask-4)"></path>
                    <path d="M90.9844,165 C99.3184,150.68 108.1774,129.611 104.0644,125.498 C99.3494,120.783 72.3504,133.116 58.7814,142.162 C45.2124,133.116 18.2134,120.783 13.4984,125.498 C9.3844,129.611 18.2444,150.68 26.5784,165 L90.9844,165 Z" id="Fill-42" fill="#FFFFFF" mask="url(#mask-4)"></path>
                </g>
            </g>
        </g>
    </g>
</svg>