<?xml version="1.0" encoding="UTF-8"?>
<svg width="123px" height="180px" viewBox="0 0 123 180" version="1.1" xmlns="http://www.w3.org/2000/svg" xmlns:xlink="http://www.w3.org/1999/xlink">
    <!-- Generator: Sketch 46.2 (44496) - http://www.bohemiancoding.com/sketch -->
    <title>Page 1</title>
    <desc>Created with Sketch.</desc>
    <defs>
        <polygon id="path-1" points="118.407 25.0001 118.407 50 0.407 50 0.407 0.0002 118.407 0.0002 118.407 25.0001"></polygon>
        <polygon id="path-3" points="0 180 122.407 180 122.407 0 0 0"></polygon>
    </defs>
    <g id="Page-1" stroke="none" stroke-width="1" fill="none" fill-rule="evenodd">
        <g id="avatar" transform="translate(-249.000000, -1690.000000)">
            <g id="doctor-copy-8" transform="translate(234.000000, 1690.000000)">
                <g id="Page-1" transform="translate(15.000000, 0.000000)">
                    <path d="M93.5,168 C78.925,168 67,156.075 67,141.5 L67,26.5 C67,11.925 78.925,0 93.5,0 C108.075,0 120,11.925 120,26.5 L120,141.5 C120,156.075 108.075,168 93.5,168 Z" id="Fill-1" fill="#602F1C"></path>
                    <path d="M88.8643,23.7031 C95.1973,28.1531 99.1803,34.9431 100.7763,42.8411 C102.2603,32.9941 99.3993,23.7951 92.3043,18.8081 C85.2103,13.8221 75.5863,14.2461 66.8233,18.9761 C74.7943,17.8041 82.5323,19.2521 88.8643,23.7031" id="Fill-3" fill="#E23E2D"></path>
                    <path d="M64.1426,119 L62.8576,119 C38.1856,119 17.9996,98.814 17.9996,74.143 L17.9996,59.857 C17.9996,35.186 38.1856,15 62.8576,15 L64.1426,15 C88.8136,15 108.9996,35.186 108.9996,59.857 L108.9996,74.143 C108.9996,98.814 88.8136,119 64.1426,119" id="Fill-5" fill="#713D25"></path>
                    <g id="Group-9" transform="translate(4.000000, 130.000000)">
                        <mask id="mask-2" fill="white">
                            <use xlink:href="#path-1"></use>
                        </mask>
                        <g id="Clip-8"></g>
                        <path d="M110.395,18.3672 L82.716,5.1012 C77.617,3.0612 75.432,0.0002 75.432,0.0002 L59.407,0.9752 L43.383,0.0002 C43.383,0.0002 41.198,3.0612 36.099,5.1012 L8.42,18.3672 C8.42,18.3672 0.407,23.4702 0.407,33.6742 L0.407,50.0002 L58.679,50.0002 L60.136,50.0002 L118.407,50.0002 L118.407,33.6742 C118.407,23.4702 110.395,18.3672 110.395,18.3672" id="Fill-7" fill="#FFCBB9" mask="url(#mask-2)"></path>
                    </g>
                    <mask id="mask-4" fill="white">
                        <use xlink:href="#path-3"></use>
                    </mask>
                    <g id="Clip-11"></g>
                    <polygon id="Fill-10" fill="#FFCBB9" mask="url(#mask-4)" points="46 150 80 150 80 119 46 119"></polygon>
                    <path d="M46,125.8799 C51.018,131.0049 56.989,133.9999 63.386,133.9999 C69.457,133.9999 75.147,131.3139 80,126.6599 L80,116.9999 L46,116.9999 L46,125.8799 Z" id="Fill-12" fill="#E39586" mask="url(#mask-4)"></path>
                    <path d="M63,113 L63,113 C38.8,113 19,96.2 19,72 L19,65 C19,40.8 38.8,21 63,21 C87.2,21 107,40.8 107,65 L107,72 C107,96.2 87.2,113 63,113" id="Fill-13" fill="#713D25" mask="url(#mask-4)"></path>
                    <path d="M63,129 L63,129 C40.175,129 21.5,113.325 21.5,90.5 L21.5,75.5 C21.5,52.675 40.175,34 63,34 C85.825,34 104.5,52.675 104.5,75.5 L104.5,90.5 C104.5,113.325 85.825,129 63,129" id="Fill-14" fill="#FFCBB9" mask="url(#mask-4)"></path>
                    <path d="M30,94 L21,94 C15.775,94 11.5,89.725 11.5,84.5 C11.5,79.275 15.775,75 21,75 L30,75 C35.225,75 39.5,79.275 39.5,84.5 C39.5,89.725 35.225,94 30,94" id="Fill-15" fill="#FFCBB9" mask="url(#mask-4)"></path>
                    <path d="M105,94 L96,94 C90.775,94 86.5,89.725 86.5,84.5 C86.5,79.275 90.775,75 96,75 L105,75 C110.225,75 114.5,79.275 114.5,84.5 C114.5,89.725 110.225,94 105,94" id="Fill-16" fill="#FFCBB9" mask="url(#mask-4)"></path>
                    <path d="M21.5,80 L21,80 C18.525,80 16.5,81.657 16.5,83.682 L16.5,85.318 C16.5,87.343 18.525,89 21,89 L21.5,89 L21.5,80 Z" id="Fill-17" fill="#E39586" mask="url(#mask-4)"></path>
                    <path d="M104.5,80 L105,80 C107.475,80 109.5,81.657 109.5,83.682 L109.5,85.318 C109.5,87.343 107.475,89 105,89 L104.5,89 L104.5,80 Z" id="Fill-18" fill="#E39586" mask="url(#mask-4)"></path>
                    <path d="M82,99 L64,99 L63,99 L45,99 C45,99 42,99 43,102.333 C43,102.333 46.85,113.528 63,113.979 L63,114 C63.171,114 63.332,113.991 63.5,113.989 C63.668,113.991 63.829,114 64,114 L64,113.979 C80.15,113.528 84,102.333 84,102.333 C85,99 82,99 82,99" id="Fill-19" fill="#8B2A23" mask="url(#mask-4)"></path>
                    <path d="M63.5,107 C59.533,107 56.09,109.203 54.303,112.446 C56.704,113.301 59.572,113.883 63,113.979 L63,114 C63.171,114 63.332,113.991 63.5,113.989 C63.668,113.991 63.829,114 64,114 L64,113.979 C67.428,113.883 70.296,113.301 72.697,112.446 C70.91,109.203 67.467,107 63.5,107" id="Fill-20" fill="#DB6565" mask="url(#mask-4)"></path>
                    <path d="M82,99 L64,99 L63,99 L45,99 C45,99 42,99 43,102.333 C43,102.333 43.396,103.458 44.431,105 L82.569,105 C83.604,103.458 84,102.333 84,102.333 C85,99 82,99 82,99" id="Fill-21" fill="#FFFFFF" mask="url(#mask-4)"></path>
                    <path d="M63,89.6641 C60.457,89.6641 58.226,88.5911 57,87.0001 L57,87.3281 C57,89.8971 59.7,92.0001 63,92.0001 C66.3,92.0001 69,89.8971 69,87.3281 L69,87.0001 C67.774,88.5911 65.543,89.6641 63,89.6641" id="Fill-22" fill="#E49584" mask="url(#mask-4)"></path>
                    <path d="M43.5,89 C43.5,92.313 40.813,95 37.5,95 C34.187,95 31.5,92.313 31.5,89 C31.5,85.687 34.187,83 37.5,83 C40.813,83 43.5,85.687 43.5,89" id="Fill-23" fill="#FFB7A9" mask="url(#mask-4)"></path>
                    <path d="M94.5,89 C94.5,92.313 91.813,95 88.5,95 C85.187,95 82.5,92.313 82.5,89 C82.5,85.687 85.187,83 88.5,83 C91.813,83 94.5,85.687 94.5,89" id="Fill-24" fill="#FFB7A9" mask="url(#mask-4)"></path>
                    <path d="M83.8911,79 C86.2021,79 88.3281,79.369 89.9991,79.981 L90.0001,79.981 L90.0001,79.109 C90.0001,75.749 87.2511,73 83.8911,73 C80.5311,73 77.7821,75.749 77.7821,79.109 L77.7821,79.981 L77.7831,79.981 C79.4531,79.369 81.5801,79 83.8911,79" id="Fill-25" fill="#754448" mask="url(#mask-4)"></path>
                    <path d="M85.167,74.7471 L85.167,74.7471 C84.947,74.5811 84.903,74.2671 85.068,74.0471 L86.873,71.6501 C87.039,71.4311 87.354,71.3861 87.573,71.5521 C87.793,71.7171 87.837,72.0321 87.672,72.2521 L85.867,74.6481 C85.702,74.8681 85.387,74.9121 85.167,74.7471" id="Fill-26" fill="#754448" mask="url(#mask-4)"></path>
                    <path d="M87.4268,76.4482 L87.4268,76.4482 C87.2068,76.2832 87.1628,75.9682 87.3278,75.7482 L89.1328,73.3512 C89.2978,73.1322 89.6138,73.0882 89.8328,73.2532 C90.0528,73.4192 90.0968,73.7332 89.9318,73.9532 L88.1268,76.3492 C87.9618,76.5692 87.6458,76.6142 87.4268,76.4482" id="Fill-27" fill="#754448" mask="url(#mask-4)"></path>
                    <path d="M42.3359,79 C40.0249,79 37.8989,79.369 36.2279,79.981 L36.2269,79.981 L36.2269,79.109 C36.2269,75.749 38.9759,73 42.3359,73 C45.6959,73 48.4449,75.749 48.4449,79.109 L48.4449,79.981 L48.4439,79.981 C46.7729,79.369 44.6469,79 42.3359,79" id="Fill-28" fill="#754448" mask="url(#mask-4)"></path>
                    <path d="M41.0596,74.7471 L41.0596,74.7471 C41.2796,74.5811 41.3236,74.2671 41.1586,74.0471 L39.3536,71.6501 C39.1886,71.4311 38.8726,71.3861 38.6536,71.5521 C38.4336,71.7171 38.3896,72.0321 38.5546,72.2521 L40.3596,74.6481 C40.5246,74.8681 40.8406,74.9121 41.0596,74.7471" id="Fill-29" fill="#754448" mask="url(#mask-4)"></path>
                    <path d="M38.8003,76.4482 L38.8003,76.4482 C39.0203,76.2832 39.0643,75.9682 38.8993,75.7482 L37.0943,73.3512 C36.9283,73.1322 36.6133,73.0882 36.3943,73.2532 C36.1743,73.4192 36.1303,73.7332 36.2953,73.9532 L38.1003,76.3492 C38.2653,76.5692 38.5803,76.6142 38.8003,76.4482" id="Fill-30" fill="#754448" mask="url(#mask-4)"></path>
                    <path d="M93.0186,137.8232 C88.9766,150.3222 77.2066,159.4292 63.4076,159.4292 C49.6086,159.4292 37.8376,150.3222 33.7966,137.8232 L20.8886,144.0102 L20.8886,180.0002 L62.6516,180.0002 L64.1626,180.0002 L105.9256,180.0002 L105.9256,144.0102 L93.0186,137.8232 Z" id="Fill-31" fill="#E23E2D" mask="url(#mask-4)"></path>
                    <path d="M85.5,131 L85.5,136.771 C85.5,145.696 75.354,153 62.954,153 C50.553,153 40.407,145.696 40.407,136.771 L40.407,131" id="Stroke-32" stroke="#00D4B9" stroke-width="3" stroke-linecap="round" stroke-linejoin="round" stroke-dasharray="0,5" mask="url(#mask-4)"></path>
                    <polygon id="Fill-33" fill="#00D4B9" mask="url(#mask-4)" points="15.0146 109 19.2576 99.758 23.4996 109"></polygon>
                    <polygon id="Fill-34" fill="#00D4B9" mask="url(#mask-4)" points="103.0146 109 107.2576 99.758 111.4996 109"></polygon>
                    <path d="M85.5,133 L85.5,143.229 C85.5,159.054 75.354,172 62.954,172 C50.553,172 40.407,159.054 40.407,143.229 L40.407,133" id="Stroke-35" stroke="#00D4B9" stroke-width="3" stroke-linecap="round" stroke-linejoin="round" stroke-dasharray="0,5" mask="url(#mask-4)"></path>
                    <path d="M91,40.1348 C91,40.1348 65.335,30.8798 53.572,47.3328 C53.572,47.3328 45.461,68.2798 25.769,70.9848 C18.284,72.0128 12.937,72.0128 6.521,67.8998 C6.521,67.8998 -0.965,62.7578 0.104,53.5028 C0.104,53.5028 12.937,61.7298 17.214,50.4178 C17.214,50.4178 21.492,10.3138 69.613,15.4548 C69.613,15.4548 86.723,26.4348 91,40.1348" id="Fill-36" fill="#713D25" mask="url(#mask-4)"></path>
                </g>
            </g>
        </g>
    </g>
</svg>