<?xml version="1.0" encoding="UTF-8"?>
<svg width="162px" height="192px" viewBox="0 0 162 192" version="1.1" xmlns="http://www.w3.org/2000/svg" xmlns:xlink="http://www.w3.org/1999/xlink">
    <!-- Generator: Sketch 46.2 (44496) - http://www.bohemiancoding.com/sketch -->
    <title>Page 1</title>
    <desc>Created with Sketch.</desc>
    <defs>
        <polygon id="path-1" points="0 192.01 162 192.01 162 0 0 0"></polygon>
    </defs>
    <g id="Page-1" stroke="none" stroke-width="1" fill="none" fill-rule="evenodd">
        <g id="avatar" transform="translate(0.000000, -271.000000)">
            <g id="doctor">
                <g id="Page-1" transform="translate(0.000000, 271.000000)">
                    <path d="M151,138.3669 C151,138.3669 162,143.4699 162,153.6739 L162,169.9999 L82,169.9999 L80,169.9999 L0,169.9999 L0,153.6739 C0,143.4699 11,138.3669 11,138.3669 L49,125.1009 C56,123.0609 59,119.9999 59,119.9999 L81,120.9749 L103,119.9999 C103,119.9999 106,123.0609 113,125.1009 L151,138.3669 Z" id="Fill-1" fill="#E9E9E9"></path>
                    <mask id="mask-2" fill="white">
                        <use xlink:href="#path-1"></use>
                    </mask>
                    <g id="Clip-4"></g>
                    <polygon id="Fill-3" fill="#FFCBB9" mask="url(#mask-2)" points="59 140 103 140 103 109 59 109"></polygon>
                    <path d="M102.6001,119.9997 C102.6001,119.9997 99.5141,128.9997 81.0001,129.9997 C62.4861,128.9997 59.4001,119.9997 59.4001,119.9997 L45.0001,127.3327 L45.0001,168.9997 L81.0001,168.9997 L117.0001,168.9997 L117.0001,127.3327 L102.6001,119.9997 Z" id="Fill-5" fill="#A2CCDC" mask="url(#mask-2)"></path>
                    <path d="M89,138.9997 L84.319,129.7197 L81,129.9997 L77.681,129.7197 L73,138.9997 C73,138.9997 73.785,145.2407 76.729,146.6917 L73,169.9997 L81,169.9997 L89,169.9997 L85.271,146.6917 C88.215,145.2407 89,138.9997 89,138.9997" id="Fill-6" fill="#356DB8" mask="url(#mask-2)"></path>
                    <polygon id="Fill-7" fill="#E9E9E9" mask="url(#mask-2)" points="52 134.9997 73 169.9997 40 169.9997 40.039 128.0647 48 124.9997"></polygon>
                    <polygon id="Fill-8" fill="#E9E9E9" mask="url(#mask-2)" points="110 134.9997 89 169.9997 122 169.9997 121.961 128.0647 114 124.9997"></polygon>
                    <path d="M78,129.9997 L70,144.9997 C70,144.9997 61,138.9997 55,131.9997 C55,131.9997 50,126.9997 53,121.9997 L59,115.9997 C59,115.9997 61,126.9997 78,129.9997" id="Fill-9" fill="#BCE0ED" mask="url(#mask-2)"></path>
                    <polygon id="Fill-10" fill="#DCDDE1" mask="url(#mask-2)" points="55 131.9997 54 142.9997 50 146.9997 49 137.9997"></polygon>
                    <path d="M55,121.9997 C55,121.9997 52,127.9997 55,131.9997 C55,131.9997 50,140.9997 50,146.9997 C50,146.9997 48,147.9997 48,144.9997 C48,144.9997 45,130.9997 48,123.9997 C48,123.9997 50,119.9997 54,116.9997 L59,113.9997 L59,115.9997 L55,121.9997 Z" id="Fill-11" fill="#F6F6F6" mask="url(#mask-2)"></path>
                    <path d="M84,129.9997 L92,144.9997 C92,144.9997 101,138.9997 107,131.9997 C107,131.9997 112,126.9997 109,121.9997 L103,115.9997 C103,115.9997 101,126.9997 84,129.9997" id="Fill-12" fill="#BCE0ED" mask="url(#mask-2)"></path>
                    <polygon id="Fill-13" fill="#DCDDE1" mask="url(#mask-2)" points="107 131.9997 108 142.9997 112 146.9997 113 137.9997"></polygon>
                    <path d="M107,121.9997 C107,121.9997 110,127.9997 107,131.9997 C107,131.9997 112,140.9997 112,146.9997 C112,146.9997 114,147.9997 114,144.9997 C114,144.9997 117,130.9997 114,123.9997 C114,123.9997 112,119.9997 108,116.9997 L103,113.9997 L103,115.9997 L107,121.9997 Z" id="Fill-14" fill="#F6F6F6" mask="url(#mask-2)"></path>
                    <path d="M59,115.8796 C65.494,121.0046 73.221,123.9996 81.5,123.9996 C89.356,123.9996 96.72,121.3136 103,116.6596 L103,106.9996 L59,106.9996 L59,115.8796 Z" id="Fill-15" fill="#E39586" mask="url(#mask-2)"></path>
                    <path d="M81,102.9997 L81,102.9997 C56.8,102.9997 37,86.1997 37,61.9997 L37,54.9997 C37,30.7997 56.8,10.9997 81,10.9997 C105.2,10.9997 125,30.7997 125,54.9997 L125,61.9997 C125,86.1997 105.2,102.9997 81,102.9997" id="Fill-16" fill="#79464D" mask="url(#mask-2)"></path>
                    <path d="M49,-0.0003 C49,-0.0003 32.204,11.7947 44.602,31.8967 L46,33.9997 L75.427,11.4937 C75.427,11.4937 60,13.9997 54,9.9997 C54,9.9997 48,6.9997 49,-0.0003" id="Fill-17" fill="#79464D" mask="url(#mask-2)"></path>
                    <path d="M81,118.9997 L81,118.9997 C58.175,118.9997 39.5,103.3247 39.5,80.4997 L39.5,65.4997 C39.5,42.6747 58.175,23.9997 81,23.9997 C103.825,23.9997 122.5,42.6747 122.5,65.4997 L122.5,80.4997 C122.5,103.3247 103.825,118.9997 81,118.9997" id="Fill-18" fill="#FFCBB9" mask="url(#mask-2)"></path>
                    <path d="M48,83.9997 L39,83.9997 C33.775,83.9997 29.5,79.7247 29.5,74.4997 C29.5,69.2747 33.775,64.9997 39,64.9997 L48,64.9997 C53.225,64.9997 57.5,69.2747 57.5,74.4997 C57.5,79.7247 53.225,83.9997 48,83.9997" id="Fill-19" fill="#FFCBB9" mask="url(#mask-2)"></path>
                    <path d="M123,83.9997 L114,83.9997 C108.775,83.9997 104.5,79.7247 104.5,74.4997 C104.5,69.2747 108.775,64.9997 114,64.9997 L123,64.9997 C128.225,64.9997 132.5,69.2747 132.5,74.4997 C132.5,79.7247 128.225,83.9997 123,83.9997" id="Fill-20" fill="#FFCBB9" mask="url(#mask-2)"></path>
                    <path d="M49,36.9997 C49,36.9997 62,44.9997 79,42.9997 C79,42.9997 88,41.9997 95,39.9997 C95,39.9997 106,36.9997 115,43.9997 C115,43.9997 118.141,47.0907 120.571,51.5457 L121,42.9997 C121,42.9997 91,18.9997 90,18.9997 C89,18.9997 58,23.9997 58,23.9997 C58,23.9997 46,32.9997 47.5,33.9997 C49,34.9997 49,36.9997 49,36.9997" id="Fill-21" fill="#79464D" mask="url(#mask-2)"></path>
                    <path d="M39.5,69.9997 L39,69.9997 C36.525,69.9997 34.5,71.6567 34.5,73.6817 L34.5,75.3177 C34.5,77.3427 36.525,78.9997 39,78.9997 L39.5,78.9997 L39.5,69.9997 Z" id="Fill-22" fill="#E39586" mask="url(#mask-2)"></path>
                    <path d="M122.5,69.9997 L123,69.9997 C125.475,69.9997 127.5,71.6567 127.5,73.6817 L127.5,75.3177 C127.5,77.3427 125.475,78.9997 123,78.9997 L122.5,78.9997 L122.5,69.9997 Z" id="Fill-23" fill="#E39586" mask="url(#mask-2)"></path>
                    <path d="M100,88.9997 L82,88.9997 L81,88.9997 L63,88.9997 C63,88.9997 60,88.9997 61,92.3327 C61,92.3327 64.85,103.5277 81,103.9787 L81,103.9997 C81.171,103.9997 81.332,103.9907 81.5,103.9887 C81.668,103.9907 81.829,103.9997 82,103.9997 L82,103.9787 C98.15,103.5277 102,92.3327 102,92.3327 C103,88.9997 100,88.9997 100,88.9997" id="Fill-24" fill="#8B2A23" mask="url(#mask-2)"></path>
                    <path d="M81.5,96.9997 C77.533,96.9997 74.09,99.2027 72.303,102.4457 C74.704,103.3007 77.572,103.8827 81,103.9787 L81,103.9997 C81.171,103.9997 81.332,103.9907 81.5,103.9887 C81.668,103.9907 81.829,103.9997 82,103.9997 L82,103.9787 C85.428,103.8827 88.296,103.3007 90.697,102.4457 C88.91,99.2027 85.467,96.9997 81.5,96.9997" id="Fill-25" fill="#DB6565" mask="url(#mask-2)"></path>
                    <path d="M100,88.9997 L82,88.9997 L81,88.9997 L63,88.9997 C63,88.9997 60,88.9997 61,92.3327 C61,92.3327 61.396,93.4577 62.431,94.9997 L100.568,94.9997 C101.604,93.4577 102,92.3327 102,92.3327 C103,88.9997 100,88.9997 100,88.9997" id="Fill-26" fill="#FFFFFF" mask="url(#mask-2)"></path>
                    <path d="M81,79.6638 C78.457,79.6638 76.226,78.5908 75,76.9998 L75,77.3278 C75,79.8968 77.7,81.9998 81,81.9998 C84.3,81.9998 87,79.8968 87,77.3278 L87,76.9998 C85.774,78.5908 83.543,79.6638 81,79.6638" id="Fill-27" fill="#E49584" mask="url(#mask-2)"></path>
                    <path d="M60.3047,68.9997 C62.6157,68.9997 64.7417,69.3687 66.4127,69.9807 L66.4137,69.9807 L66.4137,69.1087 C66.4137,65.7487 63.6647,62.9997 60.3047,62.9997 C56.9447,62.9997 54.1957,65.7487 54.1957,69.1087 L54.1957,69.9807 L54.1967,69.9807 C55.8677,69.3687 57.9937,68.9997 60.3047,68.9997" id="Fill-28" fill="#754448" mask="url(#mask-2)"></path>
                    <path d="M101.8911,68.9997 C104.2021,68.9997 106.3281,69.3687 107.9991,69.9807 L108.0001,69.9807 L108.0001,69.1087 C108.0001,65.7487 105.2511,62.9997 101.8911,62.9997 C98.5311,62.9997 95.7821,65.7487 95.7821,69.1087 L95.7821,69.9807 L95.7831,69.9807 C97.4531,69.3687 99.5801,68.9997 101.8911,68.9997" id="Fill-29" fill="#754448" mask="url(#mask-2)"></path>
                    <path d="M61.5,78.9997 C61.5,82.3127 58.813,84.9997 55.5,84.9997 C52.187,84.9997 49.5,82.3127 49.5,78.9997 C49.5,75.6867 52.187,72.9997 55.5,72.9997 C58.813,72.9997 61.5,75.6867 61.5,78.9997" id="Fill-30" fill="#FFB7A9" mask="url(#mask-2)"></path>
                    <path d="M112.5,78.9997 C112.5,82.3127 109.813,84.9997 106.5,84.9997 C103.187,84.9997 100.5,82.3127 100.5,78.9997 C100.5,75.6867 103.187,72.9997 106.5,72.9997 C109.813,72.9997 112.5,75.6867 112.5,78.9997" id="Fill-31" fill="#FFB7A9" mask="url(#mask-2)"></path>
                    <path d="M36.75,169.9997 C36.75,156.1097 36.991,136.6547 48.091,126.5907 C50.241,124.6417 47.051,121.4667 44.909,123.4087 C32.856,134.3367 32.25,154.9027 32.25,169.9997 C32.25,172.8957 36.75,172.8997 36.75,169.9997" id="Fill-32" fill="#AEAFAF" mask="url(#mask-2)"></path>
                    <path d="M113.3643,127.4421 C122.2543,133.2521 121.2813,144.1341 121.2503,153.5001 C121.2403,156.3951 125.7403,156.3991 125.7503,153.5001 C125.7873,142.2001 126.1643,130.4361 115.6353,123.5571 C113.2043,121.9681 110.9473,125.8631 113.3643,127.4421" id="Fill-33" fill="#AEAFAF" mask="url(#mask-2)"></path>
                    <path d="M112.5,187.2497 C109.157,186.9797 110.137,184.2597 110.539,182.1657 C111.147,178.9947 111.751,175.8217 112.357,172.6497 C112.928,169.6607 113.458,166.6607 114.071,163.6797 C115.177,158.3057 119.229,155.8377 124.725,156.3627 C129.864,156.8537 132.239,159.8257 133.093,164.5357 C133.673,167.7357 134.313,170.9257 134.924,174.1197 C135.5,177.1377 136.205,180.1597 136.659,183.1977 C137.029,185.6827 136.99,187.6377 133.5,187.4997 C130.604,187.3857 130.609,191.8857 133.5,191.9997 C140.455,192.2747 141.931,186.9607 140.854,181.2487 C139.578,174.4837 138.667,167.4867 137.064,160.8087 C134.57,150.4087 118.928,149.1497 112.399,156.2037 C110.167,158.6147 109.922,161.4847 109.34,164.5327 C108.534,168.7487 107.729,172.9647 106.923,177.1807 C105.766,183.2397 103.721,191.0437 112.5,191.7497 C115.387,191.9817 115.372,187.4807 112.5,187.2497" id="Fill-34" fill="#AEAFAF" mask="url(#mask-2)"></path>
                </g>
            </g>
        </g>
    </g>
</svg>