<?xml version="1.0" encoding="UTF-8"?>
<svg width="29px" height="23px" viewBox="0 0 29 23" version="1.1" xmlns="http://www.w3.org/2000/svg" xmlns:xlink="http://www.w3.org/1999/xlink">
    <!-- Generator: Sketch 46.2 (44496) - http://www.bohemiancoding.com/sketch -->
    <title>Group 11</title>
    <desc>Created with Sketch.</desc>
    <defs></defs>
    <g id="Page-1" stroke="none" stroke-width="1" fill="none" fill-rule="evenodd">
        <g id="Desktop_PRE-LAUNCH-_-EARLY-ACCESS" transform="translate(-1227.000000, -38.000000)">
            <g id="Group-6" transform="translate(1204.000000, 25.000000)">
                <g id="Group-11" transform="translate(24.000000, 14.000000)">
                    <g id="Group-2" stroke="#F2F2F3" fill="#424559">
                        <path d="M18.222919,18.5631632 C17.572052,18.5631632 17.0438122,18.0437907 17.0438122,17.4038495 L17.0438122,15.2434684 C17.0438122,13.4511694 15.0245917,11.936526 12.6345422,11.936526 C11.9836753,11.936526 11.4554354,11.4177331 11.4554354,10.7772123 C11.4554354,10.1372711 11.9836753,9.61789853 12.6345422,9.61789853 C16.3664153,9.61789853 19.4020258,12.1417245 19.4020258,15.2434684 L19.4020258,17.4038495 C19.4020258,18.0437907 18.8737859,18.5631632 18.222919,18.5631632" id="Fill-44"></path>
                        <path d="M1.17910682,18.5631632 C0.528239854,18.5631632 0,18.0437907 0,17.4038495 L0,15.2434684 C0,12.1417245 3.0356105,9.61789853 6.76748357,9.61789853 C7.41835053,9.61789853 7.94659039,10.1372711 7.94659039,10.7772123 C7.94659039,11.4177331 7.41835053,11.936526 6.76748357,11.936526 C4.37743405,11.936526 2.35821363,13.4511694 2.35821363,15.2434684 L2.35821363,17.4038495 C2.35821363,18.0437907 1.82997378,18.5631632 1.17910682,18.5631632" id="Fill-45"></path>
                        <path d="M9.70086551,2.31862745 C7.42518935,2.31862745 5.57399165,4.13932966 5.57399165,6.37622549 C5.57399165,8.61312132 7.42518935,10.4338235 9.70086551,10.4338235 C11.9765417,10.4338235 13.8277394,8.61312132 13.8277394,6.37622549 C13.8277394,4.13932966 11.9765417,2.31862745 9.70086551,2.31862745 M9.70086551,12.752451 C6.12522409,12.752451 3.21577802,9.89184436 3.21577802,6.37622549 C3.21577802,2.86060662 6.12522409,0 9.70086551,0 C13.2765069,0 16.185953,2.86060662 16.185953,6.37622549 C16.185953,9.89184436 13.2765069,12.752451 9.70086551,12.752451" id="Fill-46"></path>
                    </g>
                    <ellipse id="Oval" fill="#F2F2F2" cx="21.7777778" cy="16" rx="6.22222222" ry="6"></ellipse>
                    <path d="M22.952603,14.8251748 L22.952603,12.1748252 C22.952603,11.5259871 22.4266158,11 21.7777778,11 L21.7777778,11 L21.7777778,11 C21.1289398,11 20.6029526,11.5259871 20.6029526,12.1748252 L20.6029526,12.1748252 L20.6029526,14.8251748 L17.952603,14.8251748 C17.3037649,14.8251748 16.7777778,15.351162 16.7777778,16 C16.7777778,16.648838 17.3037649,17.1748252 17.952603,17.1748252 L20.6029526,17.1748252 L20.6029526,19.8251748 C20.6029526,20.4740129 21.1289398,21 21.7777778,21 C22.4266158,21 22.952603,20.4740129 22.952603,19.8251748 L22.952603,19.8251748 L22.952603,17.1748252 L25.6029526,17.1748252 C26.2517906,17.1748252 26.7777778,16.648838 26.7777778,16 C26.7777778,15.351162 26.2517906,14.8251748 25.6029526,14.8251748 L22.952603,14.8251748 Z" id="Combined-Shape" stroke="#F2F2F2" fill="#424559"></path>
                </g>
            </g>
        </g>
    </g>
</svg>