<?xml version="1.0" encoding="UTF-8"?>
<svg width="225px" height="158px" viewBox="0 0 225 158" version="1.1" xmlns="http://www.w3.org/2000/svg" xmlns:xlink="http://www.w3.org/1999/xlink">
    <!-- Generator: Sketch 46.2 (44496) - http://www.bohemiancoding.com/sketch -->
    <title>1_smart</title>
    <desc>Created with Sketch.</desc>
    <defs>
        <linearGradient x1="50%" y1="0%" x2="50%" y2="106.94797%" id="linearGradient-1">
            <stop stop-color="#FFFFFF" stop-opacity="0.776041667" offset="0%"></stop>
            <stop stop-color="#000000" stop-opacity="0.853600543" offset="100%"></stop>
        </linearGradient>
        <linearGradient x1="50%" y1="100%" x2="50%" y2="0%" id="linearGradient-2">
            <stop stop-color="#006A3F" offset="0%"></stop>
            <stop stop-color="#00AA65" offset="100%"></stop>
        </linearGradient>
        <linearGradient x1="6.69872981%" y1="75%" x2="93.3012702%" y2="25%" id="linearGradient-3">
            <stop stop-color="#F7E500" offset="0%"></stop>
            <stop stop-color="#EDAB69" offset="100%"></stop>
        </linearGradient>
        <linearGradient x1="0%" y1="100%" x2="100%" y2="0%" id="linearGradient-4">
            <stop stop-color="#EEEEEE" stop-opacity="0" offset="0%"></stop>
            <stop stop-color="#D8D8D8" offset="100%"></stop>
        </linearGradient>
        <linearGradient x1="50%" y1="-16.5270404%" x2="50%" y2="100%" id="linearGradient-5">
            <stop stop-color="#F7E500" offset="0%"></stop>
            <stop stop-color="#FFB66E" offset="100%"></stop>
        </linearGradient>
        <linearGradient x1="145.311205%" y1="-29.9929872%" x2="-44.3436987%" y2="100%" id="linearGradient-6">
            <stop stop-color="#FFFFFF" stop-opacity="0.5" offset="0%"></stop>
            <stop stop-color="#424559" stop-opacity="0.5" offset="100%"></stop>
        </linearGradient>
        <linearGradient x1="0%" y1="-34.7886029%" x2="72.4034926%" y2="74.9234069%" id="linearGradient-7">
            <stop stop-color="#179410" offset="0%"></stop>
            <stop stop-color="#B2E4FF" stop-opacity="0.7" offset="100%"></stop>
        </linearGradient>
        <linearGradient x1="-20.1302174%" y1="100%" x2="71.3335901%" y2="100%" id="linearGradient-8">
            <stop stop-color="#F7E500" offset="0%"></stop>
            <stop stop-color="#FFB66E" offset="100%"></stop>
        </linearGradient>
        <linearGradient x1="145.311205%" y1="-29.9929872%" x2="-44.3436987%" y2="100%" id="linearGradient-9">
            <stop stop-color="#FFFFFF" stop-opacity="0.137652853" offset="0%"></stop>
            <stop stop-color="#424559" stop-opacity="0.5" offset="100%"></stop>
        </linearGradient>
    </defs>
    <g id="Page-1" stroke="none" stroke-width="1" fill="none" fill-rule="evenodd">
        <g id="Desktop---FINAL" transform="translate(-221.000000, -1945.000000)">
            <g id="3" transform="translate(0.000000, 1600.000000)">
                <g id="1_smart" transform="translate(221.014493, 344.727815)">
                    <path d="M196.53495,131.866545 C192.70555,134.328323 187.807164,132.864018 185.593286,128.594363 L175.995056,110.083338 C173.781543,105.814384 175.09927,100.353039 178.920878,97.8962705 C182.750278,95.4344929 187.648664,96.8987974 189.862541,101.168453 L199.460772,119.679478 C201.674285,123.948432 200.356558,129.409777 196.53495,131.866545 Z" id="Rectangle-9" fill="url(#linearGradient-3)"></path>
                    <rect id="Rectangle-5" fill="url(#linearGradient-4)" opacity="0.839787138" x="159.365589" y="112.020492" width="59.9845144" height="45.9490762"></rect>
                    <path d="M133.988587,58.2382836 C130.87584,47.2949145 132.65049,37.3989769 139.312538,28.5504707 C149.305611,15.2777115 167.675181,12.596346 183.330145,15.6511083 C198.985109,18.7058705 203.527918,18.8798269 210.061807,17.1790434 C216.595697,15.4782599 220.830482,12.0345888 223.347863,15.6511083 C225.865244,19.2676277 223.911836,30.0241137 210.061807,37.5962013 C196.211779,45.1682888 190.400307,41.7322057 186.495707,43.6379696 C182.591107,45.5437335 174.802959,48.199783 172.036277,58.2382836 C169.269596,68.2767842 162.822131,73.4278867 151.067334,73.4278867 C143.230804,73.4278867 137.537888,68.3646857 133.988587,58.2382836 Z" id="Path-4" fill="url(#linearGradient-5)" opacity="0.72412817"></path>
                    <circle id="Oval-14" fill="url(#linearGradient-6)" cx="201.016077" cy="45.6447298" r="11.3459433"></circle>
                    <circle id="Oval-15" fill="url(#linearGradient-7)" cx="41.0382768" cy="133.034917" r="18.1535092"></circle>
                    <path d="M0.192881036,110.722326 C0.654548649,124.039036 8.34149908,129.968326 23.2537323,128.510195 C45.6220822,126.322998 46.508484,114.756983 43.1911252,116.312198 C39.8737664,117.867412 30.9787242,119.155331 28.4857191,117.733765 C25.9927139,116.312198 18.2954222,113.750496 10.9515831,107.218823 C6.05569039,102.864374 2.46945637,104.032208 0.192881036,110.722326 Z" id="Path-5" fill="url(#linearGradient-8)" opacity="0.571614583"></path>
                    <polygon id="Path-11" stroke="url(#linearGradient-9)" stroke-width="10" opacity="0.529664855" points="39.9036825 15.9813697 39.9036825 45.2691976 69.403135 45.2691976"></polygon>
                    <g id="Page-1" transform="translate(73.941512, 37.702569)" fill="#000000">
                        <path d="M24.6926221,89.8543123 L59.6421795,89.8543123 L59.6421795,79.0960101 C59.6421795,78.5311386 59.958245,78.0132136 60.4612147,77.7527367 C73.5467849,70.9720078 81.6755961,57.6452821 81.6755961,42.9707398 C81.6755961,21.3640286 64.0374662,3.78562302 42.357344,3.78562302 C20.6772218,3.78562302 3.03909195,21.3640286 3.03909195,42.9707398 C3.03909195,57.4756692 11.0281049,70.7312181 23.8880225,77.5657082 C24.3833945,77.8292139 24.6926221,78.3425958 24.6926221,78.9021668 L24.6926221,89.8543123 Z M61.1617254,92.8831136 L23.1730761,92.8831136 C22.3342867,92.8831136 21.6535301,92.2046621 21.6535301,91.3687129 L21.6535301,79.7994492 C8.27392783,72.3190672 0,58.291174 0,42.9707398 C0,19.6944018 19.0011626,0.756821724 42.357344,0.756821724 C65.7135254,0.756821724 84.714688,19.6944018 84.714688,42.9707398 C84.714688,58.4706305 76.2956436,72.5757581 62.6812714,80.0046505 L62.6812714,91.3687129 C62.6812714,92.2046621 62.0005148,92.8831136 61.1617254,92.8831136 L61.1617254,92.8831136 Z" id="Fill-3"></path>
                        <path d="M27.5328814,59.5959059 C27.5374401,59.5959059 31.948682,60.3235754 34.0730073,60.3235754 L34.7058982,60.3235754 L34.7058982,57.2947741 C34.7058982,57.2599429 34.706658,57.2258688 34.7096971,57.1910376 C34.8175848,55.5494273 34.5934518,50.8547853 32.2845017,48.8974225 C31.1668756,47.9494077 29.6488492,47.7063464 27.6453278,48.1538518 C27.2282125,48.3007486 24.1169421,49.5092403 23.4065543,53.0483946 C22.7979762,56.0840107 24.6487832,59.0211908 27.5328814,59.5959059 M36.2254442,92.8831893 C35.385895,92.8831893 34.7058982,92.2047378 34.7058982,91.3687887 L34.7058982,63.3523767 L34.0730073,63.3523767 C31.6956776,63.3523767 27.1765479,62.6065343 26.9850851,62.5747319 C22.4089724,61.6630627 19.4891648,57.1274328 20.4267247,52.4547496 C21.5329541,46.941574 26.5679697,45.3151077 26.7822257,45.2484741 C26.8186948,45.2371161 26.8559237,45.2265153 26.8931526,45.2181861 C29.8942559,44.5291338 32.3733951,44.9917832 34.2606712,46.5970479 C38.0671339,49.8325649 37.7882972,56.5966354 37.7449901,57.3409633 L37.7449901,60.3235754 L43.1902831,60.3235754 C44.0290725,60.3235754 44.7098291,61.0012697 44.7098291,61.837976 C44.7098291,62.6739252 44.0290725,63.3523767 43.1902831,63.3523767 L37.7449901,63.3523767 L37.7449901,91.3687887 C37.7449901,92.2047378 37.0642335,92.8831893 36.2254442,92.8831893" id="Fill-6"></path>
                        <path d="M50.0092457,60.3234996 L50.6421366,60.3234996 C52.7687412,60.3234996 57.1860613,59.5943157 57.2301282,59.5867437 C60.0663607,59.0211151 61.9171677,56.083935 61.3085895,53.0483189 C60.6012409,49.5243086 57.5127637,48.3112737 57.0675367,48.1530188 C55.0647751,47.7062706 53.5475085,47.9500891 52.4306422,48.8973468 C50.1209323,50.8547096 49.8975591,55.5493516 50.0062066,57.1932335 C50.0084859,57.2265503 50.0092457,57.2613815 50.0092457,57.2946983 L50.0092457,60.3234996 Z M48.4896997,92.8831136 C47.6509103,92.8831136 46.9701537,92.2046621 46.9701537,91.3687129 L46.9701537,63.3523009 L41.5248607,63.3523009 C40.6860714,63.3523009 40.0053148,62.6738495 40.0053148,61.8379003 C40.0053148,61.0019511 40.6860714,60.3234996 41.5248607,60.3234996 L46.9701537,60.3234996 L46.9701537,57.3416448 C46.9268467,56.5965596 46.64801,49.8324892 50.4537129,46.5969722 C52.3417488,44.9917075 54.8201282,44.5290581 57.8219913,45.2181104 C57.8592202,45.2271968 57.8964491,45.2370404 57.9329182,45.2483984 C58.1464144,45.315032 63.1821897,46.9414983 64.2884192,52.4546739 C65.2259791,57.1273571 62.3061715,61.6637442 57.7779245,62.5655698 C57.538596,62.6064586 53.0194663,63.3523009 50.6421366,63.3523009 L50.0092457,63.3523009 L50.0092457,91.3687129 C50.0092457,92.2046621 49.3284891,92.8831136 48.4896997,92.8831136 L48.4896997,92.8831136 Z" id="Fill-8"></path>
                        <path d="M27.7587619,114.463323 C26.9199726,114.463323 26.239216,113.784871 26.239216,112.948922 L26.239216,92.8831136 C26.239216,92.0471644 26.9199726,91.3687129 27.7587619,91.3687129 C28.5975513,91.3687129 29.2783079,92.0471644 29.2783079,92.8831136 L29.2783079,112.948922 C29.2783079,113.784871 28.5975513,114.463323 27.7587619,114.463323" id="Fill-10"></path>
                        <path d="M56.95623,114.463323 C56.1174406,114.463323 55.436684,113.784871 55.436684,112.948922 L55.436684,92.8831136 C55.436684,92.0471644 56.1174406,91.3687129 56.95623,91.3687129 C57.7950194,91.3687129 58.475776,92.0471644 58.475776,92.8831136 L58.475776,112.948922 C58.475776,113.784871 57.7950194,114.463323 56.95623,114.463323" id="Fill-12"></path>
                        <path d="M43.1909669,100.455495 L23.9915036,100.455495 C23.1527142,100.455495 22.4719576,99.7770439 22.4719576,98.9410948 C22.4719576,98.1051456 23.1527142,97.4266941 23.9915036,97.4266941 L43.1909669,97.4266941 C44.0297563,97.4266941 44.7105129,98.1051456 44.7105129,98.9410948 C44.7105129,99.7770439 44.0297563,100.455495 43.1909669,100.455495" id="Fill-14"></path>
                        <path d="M43.1909669,106.513098 L23.9915036,106.513098 C23.1527142,106.513098 22.4719576,105.834647 22.4719576,104.998697 C22.4719576,104.162748 23.1527142,103.484297 23.9915036,103.484297 L43.1909669,103.484297 C44.0297563,103.484297 44.7105129,104.162748 44.7105129,104.998697 C44.7105129,105.834647 44.0297563,106.513098 43.1909669,106.513098" id="Fill-16"></path>
                        <path d="M65.252951,115.599502 L19.4614331,115.599502 C18.6226437,115.599502 17.9418871,114.92105 17.9418871,114.085101 C17.9418871,113.249152 18.6226437,112.570701 19.4614331,112.570701 L65.252951,112.570701 C66.0917404,112.570701 66.772497,113.249152 66.772497,114.085101 C66.772497,114.92105 66.0917404,115.599502 65.252951,115.599502" id="Fill-18"></path>
                    </g>
                    <path d="M119.019431,19.270918 C119.019431,20.5651001 117.976415,21.6146353 116.690271,21.6146353 C115.404127,21.6146353 114.361111,20.5651001 114.361111,19.270918 C114.361111,17.9767359 115.404127,16.9272007 116.690271,16.9272007 C117.976415,16.9272007 119.019431,17.9767359 119.019431,19.270918 Z M119.019431,10.9376737 C119.019431,12.2318558 117.976415,13.281391 116.690271,13.281391 C115.404127,13.281391 114.361111,12.2318558 114.361111,10.9376737 C114.361111,9.64349157 115.404127,8.59395636 116.690271,8.59395636 C117.976415,8.59395636 119.019431,9.64349157 119.019431,10.9376737 Z M119.019431,2.60475556 C119.019431,3.89893767 117.976415,4.94847288 116.690271,4.94847288 C115.404127,4.94847288 114.361111,3.89893767 114.361111,2.60475556 C114.361111,1.31057345 115.404127,0.261038244 116.690271,0.261038244 C117.976415,0.261038244 119.019431,1.31057345 119.019431,2.60475556 Z" id="Combined-Shape" fill="#000000"></path>
                    <path d="M135.699102,24.9180209 C134.788996,25.8330003 133.314833,25.8330003 132.405537,24.9180209 C131.49543,24.002226 131.49543,22.5188503 132.405537,21.6038709 C133.314833,20.688076 134.788996,20.688076 135.699102,21.6038709 C136.608399,22.5188503 136.608399,24.002226 135.699102,24.9180209 Z M141.554825,19.0256187 C140.644718,19.9405981 139.170556,19.9405981 138.261259,19.0256187 C137.351153,18.1098238 137.351153,16.6264481 138.261259,15.7114687 C139.170556,14.7956738 140.644718,14.7956738 141.554825,15.7114687 C142.464931,16.6264481 142.464931,18.1098238 141.554825,19.0256187 Z M147.410628,13.1332165 C146.500521,14.0481959 145.026359,14.0481959 144.117063,13.1332165 C143.206956,12.2174216 143.206956,10.7340459 144.117063,9.8190665 C145.026359,8.9032716 146.500521,8.9032716 147.410628,9.8190665 C148.320735,10.7340459 148.320735,12.2174216 147.410628,13.1332165 Z" id="Combined-Shape" fill="#000000" transform="translate(139.908083, 17.368238) rotate(-15.000000) translate(-139.908083, -17.368238) "></path>
                    <path d="M85.9695088,13.1332165 C85.0602125,12.2174216 85.0602125,10.7340459 85.9695088,9.8190665 C86.8796156,8.9032716 88.3537778,8.9032716 89.2630741,9.8190665 C90.1731808,10.7340459 90.1731808,12.2174216 89.2630741,13.1332165 C88.3537778,14.0481959 86.8796156,14.0481959 85.9695088,13.1332165 Z M91.8256364,19.0256187 C90.9155297,18.1098238 90.9155297,16.6264481 91.8256364,15.7114687 C92.7349327,14.7956738 94.2099053,14.7956738 95.1192016,15.7114687 C96.0293084,16.6264481 96.0293084,18.1098238 95.1192016,19.0256187 C94.2099053,19.9405981 92.7349327,19.9405981 91.8256364,19.0256187 Z M97.6814398,24.9180209 C96.7713331,24.002226 96.7713331,22.5188503 97.6814398,21.6038709 C98.5907361,20.688076 100.065709,20.688076 100.975005,21.6038709 C101.885112,22.5188503 101.885112,24.002226 100.975005,24.9180209 C100.065709,25.8330003 98.5907361,25.8330003 97.6814398,24.9180209 Z" id="Combined-Shape" fill="#000000" transform="translate(93.472561, 17.368238) rotate(15.000000) translate(-93.472561, -17.368238) "></path>
                </g>
            </g>
        </g>
    </g>
</svg>