<?xml version="1.0" encoding="UTF-8"?>
<svg width="223px" height="166px" viewBox="0 0 223 166" version="1.1" xmlns="http://www.w3.org/2000/svg" xmlns:xlink="http://www.w3.org/1999/xlink">
    <!-- Generator: Sketch 46.2 (44496) - http://www.bohemiancoding.com/sketch -->
    <title>3_personal</title>
    <desc>Created with Sketch.</desc>
    <defs>
        <linearGradient x1="50%" y1="0%" x2="50%" y2="106.94797%" id="linearGradient-1">
            <stop stop-color="#FFFFFF" stop-opacity="0.776041667" offset="0%"></stop>
            <stop stop-color="#000000" stop-opacity="0.853600543" offset="100%"></stop>
        </linearGradient>
        <linearGradient x1="50%" y1="100%" x2="50%" y2="0%" id="linearGradient-2">
            <stop stop-color="#006A3F" offset="0%"></stop>
            <stop stop-color="#00AA65" offset="100%"></stop>
        </linearGradient>
        <linearGradient x1="0%" y1="0%" x2="91.6385135%" y2="100%" id="linearGradient-3">
            <stop stop-color="#F7E500" stop-opacity="0" offset="0%"></stop>
            <stop stop-color="#FFB66E" offset="100%"></stop>
        </linearGradient>
        <linearGradient x1="145.311205%" y1="-29.9929872%" x2="-44.3436987%" y2="100%" id="linearGradient-4">
            <stop stop-color="#FFFFFF" stop-opacity="0.5" offset="0%"></stop>
            <stop stop-color="#424559" stop-opacity="0.5" offset="100%"></stop>
        </linearGradient>
        <linearGradient x1="50%" y1="-71.7708333%" x2="50%" y2="100%" id="linearGradient-5">
            <stop stop-color="#F7E500" offset="0%"></stop>
            <stop stop-color="#FFB66E" offset="100%"></stop>
        </linearGradient>
        <linearGradient x1="0%" y1="-34.7886029%" x2="72.4034926%" y2="74.9234069%" id="linearGradient-6">
            <stop stop-color="#179410" offset="0%"></stop>
            <stop stop-color="#B2E4FF" stop-opacity="0.7" offset="100%"></stop>
        </linearGradient>
        <linearGradient x1="-28.8461291%" y1="-49.0632059%" x2="72.4034926%" y2="74.9234069%" id="linearGradient-7">
            <stop stop-color="#179410" offset="0%"></stop>
            <stop stop-color="#B2E4FF" stop-opacity="0.7" offset="100%"></stop>
        </linearGradient>
        <polygon id="path-8" points="3.96626876 0.219904682 3.96626876 72.0704775 0.688011159 72.0704775 0.688011159 0.219904682 3.96626876 0.219904682"></polygon>
        <polygon id="path-10" points="0 97.5761385 127.73287 97.5761385 127.73287 0 0 0"></polygon>
    </defs>
    <g id="Page-1" stroke="none" stroke-width="1" fill="none" fill-rule="evenodd">
        <g id="Desktop---FINAL" transform="translate(-987.000000, -1938.000000)">
            <g id="3" transform="translate(0.000000, 1600.000000)">
                <g id="3_personal" transform="translate(987.385713, 338.000000)">
                    <circle id="Oval-18" fill="url(#linearGradient-3)" cx="71.9269069" cy="42.0931844" r="42.0097326"></circle>
                    <circle id="Oval-20" fill="url(#linearGradient-4)" cx="169.003451" cy="122.138756" r="21.0048663"></circle>
                    <polygon id="Path-13" fill="url(#linearGradient-5)" opacity="0.737601902" points="183 118 183 156.778628 220 156.778628"></polygon>
                    <rect id="Rectangle-17" stroke="url(#linearGradient-4)" stroke-width="10" opacity="0.284646739" x="192.737521" y="51.6347771" width="24.0619453" height="32.0097326"></rect>
                    <rect id="Rectangle-18" fill="url(#linearGradient-6)" opacity="0.410326087" x="204.768494" y="23.9268135" width="9.08318542" height="39.7389362"></rect>
                    <rect id="Rectangle-19" fill="url(#linearGradient-4)" opacity="0.426234149" transform="translate(37.864962, 54.014865) rotate(-30.000000) translate(-37.864962, -54.014865) " x="-3.00937287" y="50.0409716" width="81.7486688" height="7.94778725"></rect>
                    <path d="M3.06789023,132.627329 C3.01466844,136.230518 3.28779971,139.609178 3.88728403,142.763308 C4.78651052,147.494503 7.35335308,157.465828 20.3993443,163.189942 C35.4296327,169.784695 44.435635,158.009688 45.5133762,155.683452 C46.0081902,154.615427 50.1930129,147.305436 45.5133762,139.22794 C42.4000479,133.85404 35.2612177,132.143766 30.9411393,134.415803 C22.9539902,138.616444 19.0000547,141.590211 14.0215998,138.251098 C9.0431449,134.911985 7.70317547,131.294567 5.68407382,130.45965 C4.33800606,129.903039 3.46594486,130.625599 3.06789023,132.627329 Z" id="Path-15" fill="url(#linearGradient-7)" opacity="0.659703351"></path>
                    <g id="Page-1" transform="translate(48.083545, 50.040972)">
                        <path d="M116.258149,79.7983219 L50.6864395,79.7983219 C49.7815499,79.7983219 49.0471467,79.0631182 49.0471467,78.1572422 C49.0471467,77.2513662 49.7815499,76.5161625 50.6864395,76.5161625 L116.258149,76.5161625 C117.163038,76.5161625 117.897441,77.2513662 117.897441,78.1572422 C117.897441,79.0631182 117.163038,79.7983219 116.258149,79.7983219 Z" id="Fill-1" fill="#000000"></path>
                        <path d="M21.9984068,87.59263 C21.0935173,87.59263 20.3591141,86.8574263 20.3591141,85.9515503 L20.3591141,19.4566412 C20.3591141,18.5499446 21.0935173,17.8155614 21.9984068,17.8155614 C22.9032964,17.8155614 23.6376996,18.5499446 23.6376996,19.4566412 L23.6376996,85.9515503 C23.6376996,86.8574263 22.9032964,87.59263 21.9984068,87.59263" id="Fill-3" fill="#000000"></path>
                        <path d="M21.9988167,13.9540188 C21.0939271,13.9540188 20.3595239,13.2188151 20.3595239,12.3129391 L20.3595239,9.76188066 C20.3595239,8.85518411 21.0939271,8.12080094 21.9988167,8.12080094 C22.9037063,8.12080094 23.6381094,8.85518411 23.6381094,9.76188066 L23.6381094,12.3129391 C23.6381094,13.2188151 22.9037063,13.9540188 21.9988167,13.9540188" id="Fill-5" fill="#000000"></path>
                        <path d="M116.46306,80.2077713 C115.558171,80.2077713 114.823768,79.4725676 114.823768,78.5666916 L114.823768,24.4110608 C114.823768,23.5051848 115.558171,22.7699811 116.46306,22.7699811 C117.36795,22.7699811 118.102353,23.5051848 118.102353,24.4110608 L118.102353,78.5666916 C118.102353,79.4725676 117.36795,80.2077713 116.46306,80.2077713" id="Fill-7" fill="#000000"></path>
                        <path d="M102.32416,12.3080979 L31.0149267,12.3080979 C30.1100371,12.3080979 29.375634,11.5728942 29.375634,10.6670182 C29.375634,9.76114217 30.1100371,9.02593846 31.0149267,9.02593846 L102.32416,9.02593846 C103.22905,9.02593846 103.963453,9.76114217 103.963453,10.6670182 C103.963453,11.5728942 103.22905,12.3080979 102.32416,12.3080979" id="Fill-9" fill="#000000"></path>
                        <g id="Group-13" transform="translate(123.766601, 0.752435)">
                            <mask id="mask-9" fill="white">
                                <use xlink:href="#path-8"></use>
                            </mask>
                            <g id="Clip-12"></g>
                            <path d="M2.32730389,72.0704775 C1.4224143,72.0704775 0.688011159,71.3352738 0.688011159,70.4293978 L0.688011159,1.8609844 C0.688011159,0.954287857 1.4224143,0.219904682 2.32730389,0.219904682 C3.23219348,0.219904682 3.96659662,0.954287857 3.96659662,1.8609844 L3.96659662,70.4293978 C3.96659662,71.3352738 3.23219348,72.0704775 2.32730389,72.0704775" id="Fill-11" fill="#000000" mask="url(#mask-9)"></path>
                        </g>
                        <path d="M125.683672,3.28215944 L43.3092123,3.28215944 C42.4043228,3.28215944 41.6699196,2.54695572 41.6699196,1.64107972 C41.6699196,0.735203714 42.4043228,0 43.3092123,0 L125.683672,0 C126.588562,0 127.322965,0.735203714 127.322965,1.64107972 C127.322965,2.54695572 126.588562,3.28215944 125.683672,3.28215944" id="Fill-14" fill="#000000"></path>
                        <path d="M61.3418422,58.0531951 L61.2664347,58.0531951 C60.3607255,58.0531951 59.627142,57.3179914 59.627142,56.4121154 C59.627142,55.5062394 60.3607255,54.7710356 61.2664347,54.7710356 C62.1713243,54.7710356 62.9434312,55.5062394 62.9434312,56.4121154 C62.9434312,57.3179914 62.2467318,58.0531951 61.3418422,58.0531951" id="Fill-16" fill="#000000"></path>
                        <path d="M64.6204277,49.0280772 L40.9260905,49.0280772 C40.0212009,49.0280772 39.2867978,48.2928734 39.2867978,47.3869974 C39.2867978,46.4811214 40.0212009,45.7459177 40.9260905,45.7459177 L64.6204277,45.7459177 C65.5253173,45.7459177 66.2597204,46.4811214 66.2597204,47.3869974 C66.2597204,48.2928734 65.5253173,49.0280772 64.6204277,49.0280772" id="Fill-18" fill="#000000"></path>
                        <path d="M54.7882777,58.0531951 L40.9264184,58.0531951 C40.0207092,58.0531951 39.2871257,57.3179914 39.2871257,56.4121154 C39.2871257,55.5062394 40.0207092,54.7710356 40.9264184,54.7710356 L54.7882777,54.7710356 C55.6931673,54.7710356 56.4275705,55.5062394 56.4275705,56.4121154 C56.4275705,57.3179914 55.6931673,58.0531951 54.7882777,58.0531951" id="Fill-20" fill="#000000"></path>
                        <mask id="mask-11" fill="white">
                            <use xlink:href="#path-10"></use>
                        </mask>
                        <g id="Clip-23"></g>
                        <polygon id="Fill-22" fill="#FFFFFF" mask="url(#mask-11)" points="2.33025462 85.3082471 30.1949525 85.3082471 30.1949525 62.5366249 2.33025462 62.5366249"></polygon>
                        <path d="M29.9111089,83.8850207 C29.9111089,86.557519 23.6096677,88.7237442 15.8361415,88.7237442 C8.06343505,88.7237442 1.76199379,86.557519 1.76199379,83.8850207" id="Fill-24" fill="#FFFFFF" mask="url(#mask-11)"></path>
                        <path d="M15.8362235,90.3651522 C8.26842861,90.3651522 0.122783026,88.3367776 0.122783026,83.8853489 C0.122783026,82.9786523 0.856366523,82.2442692 1.76207576,82.2442692 C2.66696534,82.2442692 3.40136849,82.9786523 3.40136849,83.8853489 C3.40136849,84.7067093 7.67664393,87.0829927 15.8362235,87.0829927 C23.9958031,87.0829927 28.2718982,84.7067093 28.2718982,83.8853489 C28.2718982,82.9786523 29.0054817,82.2442692 29.9111909,82.2442692 C30.8160805,82.2442692 31.5504836,82.9786523 31.5504836,83.8853489 C31.5504836,88.3367776 23.404838,90.3651522 15.8362235,90.3651522" id="Fill-25" fill="#000000" mask="url(#mask-11)"></path>
                        <path d="M29.9111089,76.8639073 C29.9111089,79.5364056 23.6096677,81.7018103 15.8361415,81.7018103 C8.06343505,81.7018103 1.76199379,79.5364056 1.76199379,76.8639073" id="Fill-26" fill="#FFFFFF" mask="url(#mask-11)"></path>
                        <path d="M15.8362235,83.3433003 C8.26842861,83.3433003 0.122783026,81.3157463 0.122783026,76.8643175 C0.122783026,75.957621 0.856366523,75.2232378 1.76207576,75.2232378 C2.66696534,75.2232378 3.40136849,75.957621 3.40136849,76.8643175 C3.40136849,77.6848574 7.67664393,80.0611408 15.8362235,80.0611408 C23.9958031,80.0611408 28.2718982,77.6848574 28.2718982,76.8643175 C28.2718982,75.957621 29.0054817,75.2232378 29.9111909,75.2232378 C30.8160805,75.2232378 31.5504836,75.957621 31.5504836,76.8643175 C31.5504836,81.3157463 23.404838,83.3433003 15.8362235,83.3433003" id="Fill-27" fill="#000000" mask="url(#mask-11)"></path>
                        <path d="M29.9111089,69.8420553 C29.9111089,72.5153742 23.6096677,74.6807789 15.8361415,74.6807789 C8.06343505,74.6807789 1.76199379,72.5153742 1.76199379,69.8420553" id="Fill-28" fill="#FFFFFF" mask="url(#mask-11)"></path>
                        <path d="M15.8362235,76.3222689 C8.26842861,76.3222689 0.122783026,74.2938944 0.122783026,69.8424656 C0.122783026,68.9357691 0.856366523,68.2013859 1.76207576,68.2013859 C2.66696534,68.2013859 3.40136849,68.9357691 3.40136849,69.8424656 C3.40136849,70.663826 7.67664393,73.0401095 15.8362235,73.0401095 C23.9958031,73.0401095 28.2718982,70.663826 28.2718982,69.8424656 C28.2718982,68.9357691 29.0054817,68.2013859 29.9111909,68.2013859 C30.8160805,68.2013859 31.5504836,68.9357691 31.5504836,69.8424656 C31.5504836,74.2938944 23.404838,76.3222689 15.8362235,76.3222689" id="Fill-29" fill="#000000" mask="url(#mask-11)"></path>
                        <path d="M29.9111089,62.821024 C29.9111089,65.4935223 23.6096677,67.6597475 15.8361415,67.6597475 C8.06343505,67.6597475 1.76199379,65.4935223 1.76199379,62.821024 C1.76199379,60.1485257 8.06343505,57.9823004 15.8361415,57.9823004 C23.6096677,57.9823004 29.9111089,60.1485257 29.9111089,62.821024" id="Fill-30" fill="#FFFFFF" mask="url(#mask-11)"></path>
                        <path d="M15.8362235,59.6229699 C7.67664393,59.6229699 3.40136849,61.9992533 3.40136849,62.8206137 C3.40136849,63.6427947 7.67664393,66.0190781 15.8362235,66.0190781 C23.9958031,66.0190781 28.2718982,63.6427947 28.2718982,62.8206137 C28.2718982,61.9992533 23.9958031,59.6229699 15.8362235,59.6229699 M15.8362235,69.3012375 C8.26842861,69.3012375 0.122783026,67.272863 0.122783026,62.8206137 C0.122783026,58.369185 8.26842861,56.3408104 15.8362235,56.3408104 C23.404838,56.3408104 31.5504836,58.369185 31.5504836,62.8206137 C31.5504836,67.272863 23.404838,69.3012375 15.8362235,69.3012375" id="Fill-31" fill="#000000" mask="url(#mask-11)"></path>
                        <path d="M1.63929273,86.0949807 C0.734403144,86.0949807 0,85.359777 0,84.453901 L0,63.2683823 C0,62.3616858 0.734403144,61.6273026 1.63929273,61.6273026 C2.54418232,61.6273026 3.27858546,62.3616858 3.27858546,63.2683823 L3.27858546,84.453901 C3.27858546,85.359777 2.54418232,86.0949807 1.63929273,86.0949807" id="Fill-32" fill="#000000" mask="url(#mask-11)"></path>
                        <path d="M30.0727432,86.0949807 C29.1678536,86.0949807 28.4334505,85.359777 28.4334505,84.453901 L28.4334505,63.2683823 C28.4334505,62.3616858 29.1678536,61.6273026 30.0727432,61.6273026 C30.9776328,61.6273026 31.7120359,62.3616858 31.7120359,63.2683823 L31.7120359,84.453901 C31.7120359,85.359777 30.9776328,86.0949807 30.0727432,86.0949807" id="Fill-33" fill="#000000" mask="url(#mask-11)"></path>
                        <polygon id="Fill-34" fill="#FFFFFF" mask="url(#mask-11)" points="16.365879 93.5620575 44.2305768 93.5620575 44.2305768 76.7680682 16.365879 76.7680682"></polygon>
                        <path d="M43.9467333,91.095925 C43.9467333,93.7684233 37.645292,95.9346485 29.8717659,95.9346485 C22.0990594,95.9346485 15.7976182,93.7684233 15.7976182,91.095925" id="Fill-35" fill="#FFFFFF" mask="url(#mask-11)"></path>
                        <path d="M29.8718479,97.5761385 C22.304053,97.5761385 14.1584074,95.547764 14.1584074,91.0963352 C14.1584074,90.1896387 14.8919909,89.4552555 15.7977001,89.4552555 C16.7025897,89.4552555 17.4369929,90.1896387 17.4369929,91.0963352 C17.4369929,91.9176956 21.7122683,94.2939791 29.8718479,94.2939791 C38.0314274,94.2939791 42.3075225,91.9176956 42.3075225,91.0963352 C42.3075225,90.1896387 43.041106,89.4552555 43.9468153,89.4552555 C44.8517048,89.4552555 45.586108,90.1896387 45.586108,91.0963352 C45.586108,95.547764 37.4404624,97.5761385 29.8718479,97.5761385" id="Fill-36" fill="#000000" mask="url(#mask-11)"></path>
                        <path d="M43.9467333,84.0748936 C43.9467333,86.7473919 37.645292,88.9127966 29.8717659,88.9127966 C22.0990594,88.9127966 15.7976182,86.7473919 15.7976182,84.0748936" id="Fill-37" fill="#FFFFFF" mask="url(#mask-11)"></path>
                        <path d="M29.8718479,90.5542866 C22.304053,90.5542866 14.1584074,88.5267326 14.1584074,84.0753039 C14.1584074,83.1686073 14.8919909,82.4342241 15.7977001,82.4342241 C16.7025897,82.4342241 17.4369929,83.1686073 17.4369929,84.0753039 C17.4369929,84.8958437 21.7122683,87.2721272 29.8718479,87.2721272 C38.0314274,87.2721272 42.3075225,84.8958437 42.3075225,84.0753039 C42.3075225,83.1686073 43.041106,82.4342241 43.9468153,82.4342241 C44.8517048,82.4342241 45.586108,83.1686073 45.586108,84.0753039 C45.586108,88.5267326 37.4404624,90.5542866 29.8718479,90.5542866" id="Fill-38" fill="#000000" mask="url(#mask-11)"></path>
                        <path d="M43.9467333,77.0530417 C43.9467333,79.7263606 37.645292,81.8917652 29.8717659,81.8917652 C22.0990594,81.8917652 15.7976182,79.7263606 15.7976182,77.0530417 C15.7976182,74.3805434 22.0990594,72.2151387 29.8717659,72.2151387 C37.645292,72.2151387 43.9467333,74.3805434 43.9467333,77.0530417" id="Fill-39" fill="#FFFFFF" mask="url(#mask-11)"></path>
                        <path d="M29.8718479,73.8558081 C21.7122683,73.8558081 17.4369929,76.2320916 17.4369929,77.0526314 C17.4369929,77.8748124 21.7122683,80.2510958 29.8718479,80.2510958 C38.0314274,80.2510958 42.3075225,77.8748124 42.3075225,77.0526314 C42.3075225,76.2320916 38.0314274,73.8558081 29.8718479,73.8558081 M29.8718479,83.5332552 C22.304053,83.5332552 14.1584074,81.5048807 14.1584074,77.0526314 C14.1584074,72.6012027 22.304053,70.5736487 29.8718479,70.5736487 C37.4404624,70.5736487 45.586108,72.6012027 45.586108,77.0526314 C45.586108,81.5048807 37.4404624,83.5332552 29.8718479,83.5332552" id="Fill-40" fill="#000000" mask="url(#mask-11)"></path>
                        <path d="M15.6749171,92.9269597 C14.7700275,92.9269597 14.0356244,92.1917559 14.0356244,91.2858799 L14.0356244,77.4999898 C14.0356244,76.5941137 14.7700275,75.85891 15.6749171,75.85891 C16.5798067,75.85891 17.3142098,76.5941137 17.3142098,77.4999898 L17.3142098,91.2858799 C17.3142098,92.1917559 16.5798067,92.9269597 15.6749171,92.9269597" id="Fill-41" fill="#000000" mask="url(#mask-11)"></path>
                        <path d="M44.1084495,92.9269597 C43.2035599,92.9269597 42.4691568,92.1917559 42.4691568,91.2858799 L42.4691568,77.4999898 C42.4691568,76.5941137 43.2035599,75.85891 44.1084495,75.85891 C45.0133391,75.85891 45.7477422,76.5941137 45.7477422,77.4999898 L45.7477422,91.2858799 C45.7477422,92.1917559 45.0133391,92.9269597 44.1084495,92.9269597" id="Fill-42" fill="#000000" mask="url(#mask-11)"></path>
                        <path d="M104.7831,22.7699811 L112.300076,22.7699811 L104.7831,15.2439895 L104.7831,22.7699811 Z M116.258149,26.0521405 L103.143807,26.0521405 C102.238917,26.0521405 101.504514,25.3169368 101.504514,24.4110608 L101.504514,11.2824231 C101.504514,10.6186063 101.903682,10.0204328 102.516777,9.76606541 C103.128234,9.51169805 103.833949,9.65283091 104.302787,10.1221797 L117.417129,23.2508175 C117.885966,23.7201663 118.026126,24.4258305 117.772855,25.0395944 C117.518765,25.6525376 116.921243,26.0521405 116.258149,26.0521405 L116.258149,26.0521405 Z" id="Fill-43" fill="#000000" mask="url(#mask-11)"></path>
                        <path d="M101.690984,60.5348358 C100.786094,60.5348358 100.051691,59.7996321 100.051691,58.8937561 L100.051691,55.8356041 C100.051691,53.2984948 97.2444021,51.1544242 93.9215558,51.1544242 C93.0166662,51.1544242 92.282263,50.420041 92.282263,49.5133444 C92.282263,48.6074684 93.0166662,47.8722647 93.9215558,47.8722647 C99.1099173,47.8722647 103.330276,51.4448953 103.330276,55.8356041 L103.330276,58.8937561 C103.330276,59.7996321 102.595873,60.5348358 101.690984,60.5348358" id="Fill-44" fill="#000000" mask="url(#mask-11)"></path>
                        <path d="M77.9952531,60.5348358 C77.0903635,60.5348358 76.3559604,59.7996321 76.3559604,58.8937561 L76.3559604,55.8356041 C76.3559604,51.4448953 80.5763195,47.8722647 85.764681,47.8722647 C86.6695706,47.8722647 87.4039738,48.6074684 87.4039738,49.5133444 C87.4039738,50.420041 86.6695706,51.1544242 85.764681,51.1544242 C82.4418347,51.1544242 79.6345459,53.2984948 79.6345459,55.8356041 L79.6345459,58.8937561 C79.6345459,59.7996321 78.9001427,60.5348358 77.9952531,60.5348358" id="Fill-45" fill="#000000" mask="url(#mask-11)"></path>
                        <path d="M89.8429135,37.5396986 C86.6790785,37.5396986 84.1053889,40.1170143 84.1053889,43.2834776 C84.1053889,46.4499409 86.6790785,49.0272566 89.8429135,49.0272566 C93.0067485,49.0272566 95.5804381,46.4499409 95.5804381,43.2834776 C95.5804381,40.1170143 93.0067485,37.5396986 89.8429135,37.5396986 M89.8429135,52.3094161 C84.8717583,52.3094161 80.8268035,48.2600518 80.8268035,43.2834776 C80.8268035,38.3069034 84.8717583,34.2575391 89.8429135,34.2575391 C94.8140687,34.2575391 98.8590235,38.3069034 98.8590235,43.2834776 C98.8590235,48.2600518 94.8140687,52.3094161 89.8429135,52.3094161" id="Fill-46" fill="#000000" mask="url(#mask-11)"></path>
                        <path d="M36.7524512,27.7357242 C37.0958831,27.7357242 37.4401345,27.8440355 37.7302894,28.060658 L41.6703294,30.9924469 L41.6703294,12.1027988 L31.8345731,12.1027988 L31.8345731,30.9924469 L35.7746131,28.060658 C36.0647679,27.8440355 36.4090194,27.7357242 36.7524512,27.7357242 M43.3096222,35.8984548 C42.9637314,35.8984548 42.6194799,35.7885024 42.3317841,35.5743415 L36.7524512,31.4215893 L31.1731184,35.5743415 C30.6755931,35.9452255 30.0124992,36.0026633 29.4592379,35.7236798 C28.9051569,35.4455168 28.5559876,34.8777032 28.5559876,34.257375 L28.5559876,10.4617191 C28.5559876,9.5558431 29.2903907,8.82063938 30.1952803,8.82063938 L43.3096222,8.82063938 C44.2145118,8.82063938 44.9489149,9.5558431 44.9489149,10.4617191 L44.9489149,34.257375 C44.9489149,34.8777032 44.5997455,35.4455168 44.0456646,35.7236798 C43.812885,35.841017 43.5612536,35.8984548 43.3096222,35.8984548" id="Fill-47" fill="#000000" mask="url(#mask-11)"></path>
                    </g>
                </g>
            </g>
        </g>
    </g>
</svg>