<?xml version="1.0" encoding="UTF-8"?>
<svg width="211px" height="155px" viewBox="0 0 211 155" version="1.1" xmlns="http://www.w3.org/2000/svg" xmlns:xlink="http://www.w3.org/1999/xlink">
    <!-- Generator: Sketch 46.2 (44496) - http://www.bohemiancoding.com/sketch -->
    <title>2_simple</title>
    <desc>Created with Sketch.</desc>
    <defs>
        <linearGradient x1="50%" y1="0%" x2="50%" y2="106.94797%" id="linearGradient-1">
            <stop stop-color="#FFFFFF" stop-opacity="0.776041667" offset="0%"></stop>
            <stop stop-color="#000000" stop-opacity="0.853600543" offset="100%"></stop>
        </linearGradient>
        <linearGradient x1="50%" y1="100%" x2="50%" y2="0%" id="linearGradient-2">
            <stop stop-color="#006A3F" offset="0%"></stop>
            <stop stop-color="#00AA65" offset="100%"></stop>
        </linearGradient>
        <linearGradient x1="0%" y1="-53.5481771%" x2="72.4034926%" y2="74.9234069%" id="linearGradient-3">
            <stop stop-color="#179410" offset="0%"></stop>
            <stop stop-color="#B2E4FF" stop-opacity="0.7" offset="100%"></stop>
        </linearGradient>
        <linearGradient x1="50%" y1="-71.7708333%" x2="50%" y2="100%" id="linearGradient-4">
            <stop stop-color="#F7E500" offset="0%"></stop>
            <stop stop-color="#FFB66E" offset="100%"></stop>
        </linearGradient>
        <linearGradient x1="100%" y1="70.4510727%" x2="-40.4731196%" y2="-6.70403978%" id="linearGradient-5">
            <stop stop-color="#FFFFFF" stop-opacity="0.5" offset="0%"></stop>
            <stop stop-color="#424559" stop-opacity="0.5" offset="100%"></stop>
        </linearGradient>
        <linearGradient x1="0%" y1="-34.7886029%" x2="72.4034926%" y2="74.9234069%" id="linearGradient-6">
            <stop stop-color="#179410" offset="0%"></stop>
            <stop stop-color="#B2E4FF" stop-opacity="0.7" offset="100%"></stop>
        </linearGradient>
        <linearGradient x1="-16.7290225%" y1="-22.9142136%" x2="80.0907512%" y2="89.9317755%" id="linearGradient-7">
            <stop stop-color="#F7E500" stop-opacity="0" offset="0%"></stop>
            <stop stop-color="#FFB66E" offset="100%"></stop>
        </linearGradient>
        <linearGradient x1="100%" y1="100%" x2="-77.2707088%" y2="100%" id="linearGradient-8">
            <stop stop-color="#FFFFFF" stop-opacity="0.30822577" offset="0%"></stop>
            <stop stop-color="#424559" stop-opacity="0.5" offset="100%"></stop>
        </linearGradient>
    </defs>
    <g id="Page-1" stroke="none" stroke-width="1" fill="none" fill-rule="evenodd">
        <g id="Desktop---FINAL" transform="translate(-614.000000, -1946.000000)">
            <g id="3" transform="translate(0.000000, 1600.000000)">
                <g id="2_simple" transform="translate(614.000000, 346.000000)">
                    <ellipse id="Oval-16" fill="url(#linearGradient-3)" opacity="0.808140851" cx="35.9375377" cy="15.6126931" rx="16.1580829" ry="15.4560272"></ellipse>
                    <polygon id="Path-12" stroke="url(#linearGradient-4)" stroke-width="6" opacity="0.566519475" points="37.2198894 120.705897 14.1449105 103.896267 14.1449105 136.339388"></polygon>
                    <path d="M46.8918193,138.140909 C26.145493,121.269755 12.0566794,116.078286 4.62537864,122.566501 C-6.52157252,132.298825 7.7580966,146.522206 15.1717644,150.758919 C22.5854321,154.995631 39.9690571,156.649262 47.20006,151.570795 C52.0207286,148.18515 51.9179817,143.708522 46.8918193,138.140909 Z" id="Path-14" fill="url(#linearGradient-5)" opacity="0.519814312"></path>
                    <path d="M169.952171,13.4066664 C160.433171,12.8513269 153.697648,14.6214737 149.745603,18.7171066 C143.817536,24.8605561 145.886438,39.4628288 149.81844,42.4492699 C153.750442,45.4357109 163.570603,46.7998185 165.929081,41.9939167 C168.287558,37.188015 168.51644,33.1002594 174.735408,29.7910208 C180.954376,26.4817821 184.532351,25.9541146 186.681111,23.5079496 C188.829872,21.0617846 182.227739,17.6682286 179.582406,16.9881622 C177.818851,16.5347845 174.608772,15.3409526 169.952171,13.4066664 Z" id="Path-16" fill="url(#linearGradient-6)" opacity="0.62669837" transform="translate(166.573010, 29.230375) rotate(-210.000000) translate(-166.573010, -29.230375) "></path>
                    <path d="M39.8761374,64.7208314 C57.0095577,67.9872835 80.0405637,48.7459445 87.8720502,43.1009093 C95.7035368,37.4558741 100.695947,27.6902374 101.93861,19.9854108 C103.181274,12.2805843 97.8910421,4.74728514 91.7041048,10.6186013 C85.5171676,16.4899174 80.0427197,19.0242761 72.9388091,24.1448653 C65.8348986,29.2654544 57.5150511,26.800633 49.5359111,21.9577735 C41.5567711,17.114914 18.8810532,12.7815401 14.9256045,26.5153066 C10.9701558,40.249073 22.7427172,61.4543792 39.8761374,64.7208314 Z" id="Path-17" fill="url(#linearGradient-7)"></path>
                    <rect id="Rectangle-19" fill="url(#linearGradient-8)" transform="translate(177.746976, 100.938500) rotate(-90.000000) translate(-177.746976, -100.938500) " x="154.872668" y="96.6329356" width="45.7486162" height="8.61112889"></rect>
                    <ellipse id="Oval-19" fill="url(#linearGradient-4)" opacity="0.587466033" cx="202.502552" cy="131.882436" rx="7.53430567" ry="7.53473778"></ellipse>
                    <g id="Page-1" transform="translate(64.732391, 36.083627)" fill="#000000">
                        <path d="M58.7912634,113.021067 L9.61656451,113.021067 C4.34175327,113.021067 0.0491922391,108.736613 0.0491922391,103.469991 L0.0491922391,9.55107606 C0.0491922391,4.28445354 4.34175327,0 9.61656451,0 L58.7912634,0 C64.066872,0 68.3586357,4.28445354 68.3586357,9.55107606 L68.3586357,32.6328432 C68.3586357,33.5115422 67.6442719,34.2246892 66.7640737,34.2246892 C65.8838754,34.2246892 65.1695116,33.5115422 65.1695116,32.6328432 L65.1695116,9.55107606 C65.1695116,6.04025968 62.30807,3.18369202 58.7912634,3.18369202 L9.61656451,3.18369202 C6.09975792,3.18369202 3.23831633,6.04025968 3.23831633,9.55107606 L3.23831633,103.469991 C3.23831633,106.980807 6.09975792,109.837375 9.61656451,109.837375 L58.7912634,109.837375 C61.8033912,109.837375 64.4312294,107.697138 65.0395548,104.747447 C65.2173485,103.886258 66.0616691,103.3315 66.9227326,103.509787 C67.7853907,103.686482 68.3410955,104.528568 68.1633019,105.389757 C67.2504151,109.811905 63.309455,113.021067 58.7912634,113.021067" id="Fill-1"></path>
                        <path d="M66.8139037,18.7045886 L1.5947215,18.7045886 C0.713725972,18.7045886 0.000159456205,17.9914416 0.000159456205,17.1127426 C0.000159456205,16.2340436 0.713725972,15.5208966 1.5947215,15.5208966 L66.8139037,15.5208966 C67.694102,15.5208966 68.4084658,16.2340436 68.4084658,17.1127426 C68.4084658,17.9914416 67.694102,18.7045886 66.8139037,18.7045886" id="Fill-3"></path>
                        <path d="M33.107812,99.889133 L4.4056952,99.889133 C3.52549696,99.889133 2.81113316,99.175986 2.81113316,98.297287 C2.81113316,97.418588 3.52549696,96.705441 4.4056952,96.705441 L33.107812,96.705441 C33.9880103,96.705441 34.7023741,97.418588 34.7023741,98.297287 C34.7023741,99.175986 33.9880103,99.889133 33.107812,99.889133" id="Fill-5"></path>
                        <path d="M55.8225078,40.1622748 C48.7442469,40.1622748 41.6683778,42.8509027 36.2787581,48.2305463 C31.0589593,53.4422502 28.1839639,60.3707599 28.1839639,67.740211 C28.1839639,75.110458 31.0589593,82.0389678 36.2787581,87.2506716 C41.4993543,92.4623755 48.4404828,95.3316779 55.8225078,95.3316779 C63.2053301,95.3316779 70.1456614,92.4623755 75.3662575,87.2506716 C80.5860564,82.0389678 83.4610518,75.110458 83.4610518,67.740211 C83.4610518,60.3707599 80.5860564,53.4422502 75.3662575,48.2305463 C69.9782324,42.8524946 62.8991742,40.1622748 55.8225078,40.1622748 M55.8225078,98.5153699 C47.5881894,98.5153699 39.8465907,95.3149635 34.0240474,89.5015419 C28.2015041,83.6897121 24.9948398,75.9612997 24.9948398,67.740211 C24.9948398,59.5199182 28.2015041,51.7915059 34.0240474,45.9796761 C46.0446534,33.9795449 65.6019569,33.9795449 77.6209683,45.9796761 C83.4435116,51.7915059 86.6501759,59.5199182 86.6501759,67.740211 C86.6501759,75.9612997 83.4435116,83.6897121 77.6209683,89.5015419 C71.798425,95.3149635 64.0568262,98.5153699 55.8225078,98.5153699" id="Fill-7"></path>
                        <path d="M105.880674,112.266372 C105.472466,112.266372 105.065055,112.111168 104.753318,111.799962 L79.3096892,86.3996708 C78.6870127,85.7780549 78.6870127,84.7704164 79.3096892,84.1488005 C79.9323657,83.5271846 80.9417235,83.5271846 81.5643999,84.1488005 L107.008029,109.549091 C107.630706,110.170707 107.630706,111.178346 107.008029,111.799962 C106.69709,112.111168 106.288882,112.266372 105.880674,112.266372" id="Fill-9"></path>
                        <path d="M86.3846813,107.510255 C85.9812571,107.510255 85.5778329,107.35903 85.2676906,107.054191 L71.8319108,93.8864409 C71.202856,93.2703965 71.1932887,92.262758 71.8103842,91.6355707 C72.428277,91.0091793 73.4376348,90.9988323 74.0650949,91.6148767 L87.501672,104.782627 C88.1299294,105.398671 88.1394968,106.40631 87.5224013,107.033497 C87.2106644,107.35107 86.7976729,107.510255 86.3846813,107.510255" id="Fill-11"></path>
                        <path d="M55.8225078,89.6377243 C43.7277547,89.6377243 33.8885096,79.8144426 33.8885096,67.7402906 C33.8885096,64.4204958 34.6140353,61.2312323 36.0451548,58.2600517 C36.4270524,57.4689042 37.3798032,57.1362084 38.1730978,57.5158637 C38.9671897,57.8971108 39.3012505,58.8474429 38.9193529,59.6409781 C37.6971211,62.1767888 37.0776337,64.9020292 37.0776337,67.7402906 C37.0776337,78.0594324 45.4865566,86.4540323 55.8225078,86.4540323 C58.8681213,86.4540323 61.7718188,85.7488445 64.4530749,84.3575711 C65.2344103,83.9516504 66.1975258,84.255693 66.6025445,85.0364934 C67.0091579,85.8157021 66.7045965,86.777177 65.9232611,87.1823019 C62.8282162,88.7892704 59.3345307,89.6377243 55.8225078,89.6377243" id="Fill-13"></path>
                        <path d="M73.1431191,79.9801538 C72.8576925,79.9801538 72.5682795,79.9037452 72.3075686,79.7429687 C71.5581245,79.2813334 71.3253184,78.3007562 71.7877414,77.5517927 C73.6063394,74.6100613 74.5678603,71.2170415 74.5678603,67.7404498 C74.5678603,57.422104 66.1589374,49.027504 55.8221889,49.027504 C51.9147146,49.027504 48.1698857,50.2158171 44.9943153,52.4642996 C44.2751679,52.9720984 43.2801611,52.8025668 42.7714959,52.0862361 C42.2620333,51.3691095 42.4310569,50.3757976 43.1494071,49.8664069 C46.8671285,47.2350854 51.2497823,45.843812 55.8221889,45.843812 C67.916942,45.843812 77.7569844,55.6662978 77.7569844,67.7404498 C77.7569844,71.8076164 76.6312236,75.7792721 74.501686,79.2248228 C74.2003138,79.7119277 73.6780947,79.9801538 73.1431191,79.9801538" id="Fill-15"></path>
                        <path d="M52.6540333,78.6401378 C51.9930873,78.6401378 51.4581118,78.1052775 51.4581118,77.4462533 L51.4581118,59.8778448 C51.4581118,59.2188206 51.9930873,58.6839603 52.6540333,58.6839603 C53.3149793,58.6839603 53.8499549,59.2188206 53.8499549,59.8778448 L53.8499549,77.4462533 C53.8499549,78.1052775 53.3149793,78.6401378 52.6540333,78.6401378" id="Fill-17"></path>
                        <path d="M57.2465315,72.278166 L52.6541928,72.278166 C51.9932468,72.278166 51.4582712,71.7433058 51.4582712,71.0842815 C51.4582712,70.4252573 51.9932468,69.890397 52.6541928,69.890397 L57.2465315,69.890397 C60.2451054,69.890397 62.683988,67.8098543 62.683988,65.2525537 C62.683988,62.6944571 60.2451054,60.6139144 57.2465315,60.6139144 L52.6541928,60.6139144 C51.9932468,60.6139144 51.4582712,60.0790541 51.4582712,59.4200299 C51.4582712,58.7610056 51.9932468,58.2261454 52.6541928,58.2261454 L57.2465315,58.2261454 C61.5638082,58.2261454 65.0758311,61.3780005 65.0758311,65.2525537 C65.0758311,69.1263109 61.5638082,72.278166 57.2465315,72.278166" id="Fill-19"></path>
                        <path d="M66.1712155,66.5116243 L49.6762684,66.5116243 C49.0153225,66.5116243 48.4803469,65.976764 48.4803469,65.3177398 C48.4803469,64.6587155 49.0153225,64.1238553 49.6762684,64.1238553 L66.1712155,64.1238553 C66.8321615,64.1238553 67.367137,64.6587155 67.367137,65.3177398 C67.367137,65.976764 66.8321615,66.5116243 66.1712155,66.5116243" id="Fill-21"></path>
                        <path d="M21.4475771,10.7453585 L20.650296,10.7453585 C19.7700978,10.7453585 19.055734,10.0322115 19.055734,9.15351252 C19.055734,8.27481352 19.7700978,7.56166651 20.650296,7.56166651 L21.4475771,7.56166651 C22.3277753,7.56166651 23.0421391,8.27481352 23.0421391,9.15351252 C23.0421391,10.0322115 22.3277753,10.7453585 21.4475771,10.7453585" id="Fill-23"></path>
                        <path d="M40.1049895,10.7449606 L28.9430552,10.7449606 C28.0628569,10.7449606 27.3484931,10.0318136 27.3484931,9.15311456 C27.3484931,8.27441556 28.0628569,7.56126855 28.9430552,7.56126855 L40.1049895,7.56126855 C40.9851877,7.56126855 41.6995515,8.27441556 41.6995515,9.15311456 C41.6995515,10.0318136 40.9851877,10.7449606 40.1049895,10.7449606" id="Fill-25"></path>
                    </g>
                </g>
            </g>
        </g>
    </g>
</svg>