<?xml version="1.0" encoding="UTF-8"?>
<svg width="162px" height="181px" viewBox="0 0 162 181" version="1.1" xmlns="http://www.w3.org/2000/svg" xmlns:xlink="http://www.w3.org/1999/xlink">
    <!-- Generator: Sketch 46.2 (44496) - http://www.bohemiancoding.com/sketch -->
    <title>Page 1</title>
    <desc>Created with Sketch.</desc>
    <defs>
        <polygon id="path-1" points="0 25.0001 0 50 162 50 162 25.0001 162 0.0002 0 0.0002"></polygon>
        <polygon id="path-3" points="0 181 162 181 162 0 0 0"></polygon>
    </defs>
    <g id="Page-1" stroke="none" stroke-width="1" fill="none" fill-rule="evenodd">
        <g id="avatar" transform="translate(-235.000000, -1140.000000)">
            <g id="doctor-copy-5" transform="translate(234.000000, 1140.000000)">
                <g id="Page-1" transform="translate(1.000000, 0.000000)">
                    <path d="M111,108 L51.833,108 C43,108 10.833,91.575 10.833,71.5 C10.833,51.425 29.283,35 51.833,35 L111,35 C133.55,35 152,51.425 152,71.5 C152,91.575 119,108 111,108 Z" id="Fill-1" fill="#D44442"></path>
                    <g id="Group-5" transform="translate(0.000000, 131.000000)">
                        <mask id="mask-2" fill="white">
                            <use xlink:href="#path-1"></use>
                        </mask>
                        <g id="Clip-4"></g>
                        <path d="M151,18.3672 L113,5.1012 C106,3.0612 103,0.0002 103,0.0002 L81,0.9752 L59,0.0002 C59,0.0002 56,3.0612 49,5.1012 L11,18.3672 C11,18.3672 0,23.4702 0,33.6742 L0,50.0002 L80,50.0002 L82,50.0002 L162,50.0002 L162,33.6742 C162,23.4702 151,18.3672 151,18.3672" id="Fill-3" fill="#824C28" mask="url(#mask-2)"></path>
                    </g>
                    <mask id="mask-4" fill="white">
                        <use xlink:href="#path-3"></use>
                    </mask>
                    <g id="Clip-7"></g>
                    <polygon id="Fill-6" fill="#FFCBB9" mask="url(#mask-4)" points="59 164 103 164 103 120 59 120"></polygon>
                    <path d="M59,126.8799 C65.494,132.0049 73.221,134.9999 81.5,134.9999 C89.356,134.9999 96.72,132.3139 103,127.6599 L103,117.9999 L59,117.9999 L59,126.8799 Z" id="Fill-8" fill="#E39586" mask="url(#mask-4)"></path>
                    <path d="M85,114 L77,114 C52.8,114 33,94.2 33,70 L33,66 C33,41.8 52.8,22 77,22 L85,22 C109.2,22 129,41.8 129,66 L129,70 C129,94.2 109.2,114 85,114" id="Fill-9" fill="#79464D" mask="url(#mask-4)"></path>
                    <path d="M81,130 L81,130 C58.175,130 39.5,114.325 39.5,91.5 L39.5,76.5 C39.5,53.675 58.175,35 81,35 C103.825,35 122.5,53.675 122.5,76.5 L122.5,91.5 C122.5,114.325 103.825,130 81,130" id="Fill-10" fill="#FFCBB9" mask="url(#mask-4)"></path>
                    <path d="M48,95 L39,95 C33.775,95 29.5,90.725 29.5,85.5 C29.5,80.275 33.775,76 39,76 L48,76 C53.225,76 57.5,80.275 57.5,85.5 C57.5,90.725 53.225,95 48,95" id="Fill-11" fill="#FFCBB9" mask="url(#mask-4)"></path>
                    <path d="M123,95 L114,95 C108.775,95 104.5,90.725 104.5,85.5 C104.5,80.275 108.775,76 114,76 L123,76 C128.225,76 132.5,80.275 132.5,85.5 C132.5,90.725 128.225,95 123,95" id="Fill-12" fill="#FFCBB9" mask="url(#mask-4)"></path>
                    <path d="M49,48 C49,48 62,56 79,54 C79,54 88,53 95,51 C95,51 106,48 115,55 C115,55 118.141,58.091 120.571,62.546 L121,54 C121,54 91,30 90,30 C89,30 58,35 58,35 C58,35 46,44 47.5,45 C49,46 49,48 49,48" id="Fill-13" fill="#79464D" mask="url(#mask-4)"></path>
                    <path d="M39.5,81 L39,81 C36.525,81 34.5,82.657 34.5,84.682 L34.5,86.318 C34.5,88.343 36.525,90 39,90 L39.5,90 L39.5,81 Z" id="Fill-14" fill="#E39586" mask="url(#mask-4)"></path>
                    <path d="M122.5,81 L123,81 C125.475,81 127.5,82.657 127.5,84.682 L127.5,86.318 C127.5,88.343 125.475,90 123,90 L122.5,90 L122.5,81 Z" id="Fill-15" fill="#E39586" mask="url(#mask-4)"></path>
                    <path d="M100,100 L82,100 L81,100 L63,100 C63,100 60,100 61,103.333 C61,103.333 64.85,114.528 81,114.979 L81,115 C81.171,115 81.332,114.991 81.5,114.989 C81.668,114.991 81.829,115 82,115 L82,114.979 C98.15,114.528 102,103.333 102,103.333 C103,100 100,100 100,100" id="Fill-16" fill="#8B2A23" mask="url(#mask-4)"></path>
                    <path d="M81.5,108 C77.533,108 74.09,110.203 72.303,113.446 C74.704,114.301 77.572,114.883 81,114.979 L81,115 C81.171,115 81.332,114.991 81.5,114.989 C81.668,114.991 81.829,115 82,115 L82,114.979 C85.428,114.883 88.296,114.301 90.697,113.446 C88.91,110.203 85.467,108 81.5,108" id="Fill-17" fill="#DB6565" mask="url(#mask-4)"></path>
                    <path d="M100,100 L82,100 L81,100 L63,100 C63,100 60,100 61,103.333 C61,103.333 61.396,104.458 62.431,106 L100.568,106 C101.604,104.458 102,103.333 102,103.333 C103,100 100,100 100,100" id="Fill-18" fill="#FFFFFF" mask="url(#mask-4)"></path>
                    <path d="M81,90.6641 C78.457,90.6641 76.226,89.5911 75,88.0001 L75,88.3281 C75,90.8971 77.7,93.0001 81,93.0001 C84.3,93.0001 87,90.8971 87,88.3281 L87,88.0001 C85.774,89.5911 83.543,90.6641 81,90.6641" id="Fill-19" fill="#E49584" mask="url(#mask-4)"></path>
                    <path d="M60.3047,80 C62.6157,80 64.7417,80.369 66.4127,80.981 L66.4137,80.981 L66.4137,80.109 C66.4137,76.749 63.6647,74 60.3047,74 C56.9447,74 54.1957,76.749 54.1957,80.109 L54.1957,80.981 L54.1967,80.981 C55.8677,80.369 57.9937,80 60.3047,80" id="Fill-20" fill="#754448" mask="url(#mask-4)"></path>
                    <path d="M101.8911,80 C104.2021,80 106.3281,80.369 107.9991,80.981 L108.0001,80.981 L108.0001,80.109 C108.0001,76.749 105.2511,74 101.8911,74 C98.5311,74 95.7821,76.749 95.7821,80.109 L95.7821,80.981 L95.7831,80.981 C97.4531,80.369 99.5801,80 101.8911,80" id="Fill-21" fill="#754448" mask="url(#mask-4)"></path>
                    <path d="M61.5,90 C61.5,93.313 58.813,96 55.5,96 C52.187,96 49.5,93.313 49.5,90 C49.5,86.687 52.187,84 55.5,84 C58.813,84 61.5,86.687 61.5,90" id="Fill-22" fill="#FFB7A9" mask="url(#mask-4)"></path>
                    <path d="M112.5,90 C112.5,93.313 109.813,96 106.5,96 C103.187,96 100.5,93.313 100.5,90 C100.5,86.687 103.187,84 106.5,84 C109.813,84 112.5,86.687 112.5,90" id="Fill-23" fill="#FFB7A9" mask="url(#mask-4)"></path>
                    <path d="M81,5 C54.904,5 33.75,25.697 33.75,47 C33.75,47.331 33.776,47.656 33.786,47.985 C45.317,58.413 62.188,65 81,65 C99.812,65 116.683,58.413 128.214,47.985 C128.224,47.656 128.25,47.331 128.25,47 C128.25,25.697 107.096,5 81,5" id="Fill-24" fill="#D44442" mask="url(#mask-4)"></path>
                    <path d="M81,60 C62.64,60 46.007,54.602 33.785,45.86 C33.771,46.24 33.75,46.62 33.75,47 C33.75,47.331 33.776,47.656 33.786,47.985 C45.317,58.413 62.188,65 81,65 C99.812,65 116.683,58.413 128.214,47.985 C128.224,47.656 128.25,47.331 128.25,47 C128.25,46.62 128.229,46.24 128.215,45.86 C115.993,54.602 99.36,60 81,60" id="Fill-25" fill="#F25C2F" mask="url(#mask-4)"></path>
                    <path d="M95,19.0771 L95,2.1861 C90.914,0.7871 86.546,0.0001 82,0.0001 C77.454,0.0001 73.086,0.7871 69,2.1861 L69,19.0771 C69,25.6621 74.82,31.0001 82,31.0001 C89.18,31.0001 95,25.6621 95,19.0771" id="Fill-26" fill="#F7C800" mask="url(#mask-4)"></path>
                    <path d="M59,59 L59,59 C57.9,59 57,58.1 57,57 L57,10 C57,8.9 57.9,8 59,8 C60.1,8 61,8.9 61,10 L61,57 C61,58.1 60.1,59 59,59" id="Fill-27" fill="#F25C2F" mask="url(#mask-4)"></path>
                    <path d="M105,59 L105,59 C103.9,59 103,58.1 103,57 L103,10 C103,8.9 103.9,8 105,8 C106.1,8 107,8.9 107,10 L107,57 C107,58.1 106.1,59 105,59" id="Fill-28" fill="#F25C2F" mask="url(#mask-4)"></path>
                    <path d="M95,16.6152 L95,1.9042 C90.914,0.6852 86.546,0.0002 82,0.0002 C77.454,0.0002 73.086,0.6852 69,1.9042 L69,16.6152 C69,22.3502 74.82,27.0002 82,27.0002 C89.18,27.0002 95,22.3502 95,16.6152" id="Fill-29" fill="#FFDE55" mask="url(#mask-4)"></path>
                    <path d="M80,161 C67.318,161 56.47,156.724 52,150.666 L52,181 L108,181 L108,150.666 C103.53,156.724 92.682,161 80,161" id="Fill-30" fill="#4C3E34" mask="url(#mask-4)"></path>
                    <polygon id="Fill-31" fill="#824C28" mask="url(#mask-4)" points="74 181 38 181 38 161 60 161"></polygon>
                    <polygon id="Fill-32" fill="#824C28" mask="url(#mask-4)" points="88 181 124 181 124 161 102 161"></polygon>
                    <path d="M79.9775,181 L71.2625,181 C71.2625,181 55.4875,168.771 44.9705,154.502 C44.9705,154.502 36.2065,144.311 41.4655,134.119 L58.9165,125 C58.9165,125 56.4045,154 79.9775,181" id="Fill-33" fill="#93572E" mask="url(#mask-4)"></path>
                    <path d="M81.8071,181 L90.5221,181 C90.5221,181 106.2971,168.771 116.8141,154.502 C116.8141,154.502 125.5781,144.311 120.3201,134.119 L102.8681,125 C102.8681,125 105.3801,154 81.8071,181" id="Fill-34" fill="#93572E" mask="url(#mask-4)"></path>
                    <path d="M42.8188,175.2568 L23.2568,175.2568 C22.0158,175.2568 20.9998,174.2408 20.9998,172.9998 C20.9998,171.7588 22.0158,170.7428 23.2568,170.7428 L42.8188,170.7428 C44.0608,170.7428 45.0758,171.7588 45.0758,172.9998 C45.0758,174.2408 44.0608,175.2568 42.8188,175.2568" id="Fill-35" fill="#FFDE55" mask="url(#mask-4)"></path>
                    <path d="M137.7427,175.2568 L118.1807,175.2568 C116.9397,175.2568 115.9237,174.2408 115.9237,172.9998 C115.9237,171.7588 116.9397,170.7428 118.1807,170.7428 L137.7427,170.7428 C138.9847,170.7428 139.9997,171.7588 139.9997,172.9998 C139.9997,174.2408 138.9847,175.2568 137.7427,175.2568" id="Fill-36" fill="#FFDE55" mask="url(#mask-4)"></path>
                </g>
            </g>
        </g>
    </g>
</svg>