<?xml version="1.0" encoding="UTF-8"?>
<svg width="138px" height="189px" viewBox="0 0 138 189" version="1.1" xmlns="http://www.w3.org/2000/svg" xmlns:xlink="http://www.w3.org/1999/xlink">
    <!-- Generator: Sketch 46.2 (44496) - http://www.bohemiancoding.com/sketch -->
    <title>Page 1</title>
    <desc>Created with Sketch.</desc>
    <defs>
        <polygon id="path-1" points="0 47.9998 0 0.9378 137.9999 0.9378 137.9999 47.9998"></polygon>
        <polygon id="path-3" points="118.0003 50 0.0003 50 0.0003 0.0002 118.0003 0.0002"></polygon>
        <polygon id="path-5" points="0 188.544 138 188.544 138 0 0 0"></polygon>
    </defs>
    <g id="Page-1" stroke="none" stroke-width="1" fill="none" fill-rule="evenodd">
        <g id="avatar" transform="translate(-249.000000, -951.000000)">
            <g id="doctor-copy-3" transform="translate(234.000000, 951.000000)">
                <g id="Page-1" transform="translate(15.000000, 0.000000)">
                    <path d="M34.6113,148.1631 C27.9713,148.0451 21.0763,143.1021 22.6833,142.6891 C24.6473,142.1841 28.1593,137.5251 34.7983,137.6441 C41.4383,137.7631 46.7563,141.4581 46.7263,143.1181 C46.6973,144.7771 41.2513,148.2811 34.6113,148.1631 Z" id="Fill-1" fill="#6042A8"></path>
                    <g id="Group-5" transform="translate(0.000000, 140.544000)">
                        <mask id="mask-2" fill="white">
                            <use xlink:href="#path-1"></use>
                        </mask>
                        <g id="Clip-4"></g>
                        <path d="M128.6299,17.6328 L96.2589,4.8988 C90.2959,2.9388 87.7409,0.9998 87.7409,0.9998 L68.9999,0.9378 L50.2589,0.9998 C50.2589,0.9998 47.7039,2.9388 41.7409,4.8988 L9.3699,17.6328 C9.3699,17.6328 -0.0001,22.5298 -0.0001,32.3258 L-0.0001,47.9998 L68.1489,47.9998 L69.8519,47.9998 L137.9999,47.9998 L137.9999,32.3258 C137.9999,22.5298 128.6299,17.6328 128.6299,17.6328" id="Fill-3" fill="#7E58C5" mask="url(#mask-2)"></path>
                    </g>
                    <path d="M69.5,121.544 L69.5,121.544 C43.375,121.544 22,100.169 22,74.044 L22,71.044 C22,44.919 43.375,23.544 69.5,23.544 C95.625,23.544 117,44.919 117,71.044 L117,74.044 C117,100.169 95.625,121.544 69.5,121.544" id="Fill-6" fill="#713D25"></path>
                    <g id="Group-10" transform="translate(10.000000, 138.544000)">
                        <mask id="mask-4" fill="white">
                            <use xlink:href="#path-3"></use>
                        </mask>
                        <g id="Clip-9"></g>
                        <path d="M109.9873,18.3672 L82.3083,5.1012 C77.2103,3.0612 75.0243,0.0002 75.0243,0.0002 L59.0003,0.9752 L42.9753,0.0002 C42.9753,0.0002 40.7903,3.0612 35.6913,5.1012 L8.0123,18.3672 C8.0123,18.3672 0.0003,23.4702 0.0003,33.6742 L0.0003,50.0002 L58.2713,50.0002 L59.7283,50.0002 L118.0003,50.0002 L118.0003,33.6742 C118.0003,23.4702 109.9873,18.3672 109.9873,18.3672" id="Fill-8" fill="#FFCBB9" mask="url(#mask-4)"></path>
                    </g>
                    <mask id="mask-6" fill="white">
                        <use xlink:href="#path-5"></use>
                    </mask>
                    <g id="Clip-12"></g>
                    <polygon id="Fill-11" fill="#FFCBB9" mask="url(#mask-6)" points="52 158.544 86 158.544 86 127.544 52 127.544"></polygon>
                    <path d="M52,134.4239 C57.019,139.5489 62.988,142.5439 69.387,142.5439 C75.457,142.5439 81.146,139.8579 86,135.2039 L86,125.5439 L52,125.5439 L52,134.4239 Z" id="Fill-13" fill="#E39586" mask="url(#mask-6)"></path>
                    <path d="M69,121.544 L69,121.544 C44.8,121.544 25,104.744 25,80.544 L25,73.544 C25,49.344 44.8,29.544 69,29.544 C93.2,29.544 113,49.344 113,73.544 L113,80.544 C113,104.744 93.2,121.544 69,121.544" id="Fill-14" fill="#713D25" mask="url(#mask-6)"></path>
                    <path d="M69,137.544 L69,137.544 C46.175,137.544 27.5,121.869 27.5,99.044 L27.5,84.044 C27.5,61.219 46.175,42.544 69,42.544 C91.825,42.544 110.5,61.219 110.5,84.044 L110.5,99.044 C110.5,121.869 91.825,137.544 69,137.544" id="Fill-15" fill="#FFCBB9" mask="url(#mask-6)"></path>
                    <path d="M36,102.544 L27,102.544 C21.775,102.544 17.5,98.269 17.5,93.044 C17.5,87.819 21.775,83.544 27,83.544 L36,83.544 C41.225,83.544 45.5,87.819 45.5,93.044 C45.5,98.269 41.225,102.544 36,102.544" id="Fill-16" fill="#FFCBB9" mask="url(#mask-6)"></path>
                    <path d="M111,102.544 L102,102.544 C96.775,102.544 92.5,98.269 92.5,93.044 C92.5,87.819 96.775,83.544 102,83.544 L111,83.544 C116.225,83.544 120.5,87.819 120.5,93.044 C120.5,98.269 116.225,102.544 111,102.544" id="Fill-17" fill="#FFCBB9" mask="url(#mask-6)"></path>
                    <path d="M27.5,88.544 L27,88.544 C24.525,88.544 22.5,90.201 22.5,92.226 L22.5,93.862 C22.5,95.887 24.525,97.544 27,97.544 L27.5,97.544 L27.5,88.544 Z" id="Fill-18" fill="#E39586" mask="url(#mask-6)"></path>
                    <path d="M110.5,88.544 L111,88.544 C113.475,88.544 115.5,90.201 115.5,92.226 L115.5,93.862 C115.5,95.887 113.475,97.544 111,97.544 L110.5,97.544 L110.5,88.544 Z" id="Fill-19" fill="#E39586" mask="url(#mask-6)"></path>
                    <path d="M88,107.544 L70,107.544 L69,107.544 L51,107.544 C51,107.544 48,107.544 49,110.877 C49,110.877 52.85,122.072 69,122.523 L69,122.544 C69.171,122.544 69.332,122.535 69.5,122.533 C69.668,122.535 69.829,122.544 70,122.544 L70,122.523 C86.15,122.072 90,110.877 90,110.877 C91,107.544 88,107.544 88,107.544" id="Fill-20" fill="#8B2A23" mask="url(#mask-6)"></path>
                    <path d="M69.5,115.544 C65.533,115.544 62.091,117.747 60.303,120.99 C62.703,121.845 65.572,122.427 69,122.523 L69,122.544 C69.171,122.544 69.332,122.535 69.5,122.533 C69.668,122.535 69.829,122.544 70,122.544 L70,122.523 C73.428,122.427 76.297,121.845 78.697,120.99 C76.909,117.747 73.467,115.544 69.5,115.544" id="Fill-21" fill="#DB6565" mask="url(#mask-6)"></path>
                    <path d="M88,107.544 L70,107.544 L69,107.544 L51,107.544 C51,107.544 48,107.544 49,110.877 C49,110.877 49.396,112.002 50.432,113.544 L88.568,113.544 C89.604,112.002 90,110.877 90,110.877 C91,107.544 88,107.544 88,107.544" id="Fill-22" fill="#FFFFFF" mask="url(#mask-6)"></path>
                    <path d="M69,98.2081 C66.457,98.2081 64.227,97.1351 63,95.5441 L63,95.8721 C63,98.4411 65.7,100.5441 69,100.5441 C72.3,100.5441 75,98.4411 75,95.8721 L75,95.5441 C73.773,97.1351 71.543,98.2081 69,98.2081" id="Fill-23" fill="#E49584" mask="url(#mask-6)"></path>
                    <path d="M49.5,97.544 C49.5,100.857 46.813,103.544 43.5,103.544 C40.187,103.544 37.5,100.857 37.5,97.544 C37.5,94.231 40.187,91.544 43.5,91.544 C46.813,91.544 49.5,94.231 49.5,97.544" id="Fill-24" fill="#FFB7A9" mask="url(#mask-6)"></path>
                    <path d="M100.5,97.544 C100.5,100.857 97.813,103.544 94.5,103.544 C91.187,103.544 88.5,100.857 88.5,97.544 C88.5,94.231 91.187,91.544 94.5,91.544 C97.813,91.544 100.5,94.231 100.5,97.544" id="Fill-25" fill="#FFB7A9" mask="url(#mask-6)"></path>
                    <path d="M89.8906,87.544 C92.2016,87.544 94.3276,87.913 95.9986,88.525 L95.9996,88.525 L95.9996,87.653 C95.9996,84.293 93.2506,81.544 89.8906,81.544 C86.5316,81.544 83.7826,84.293 83.7826,87.653 L83.7826,88.525 L83.7836,88.525 C85.4536,87.913 87.5796,87.544 89.8906,87.544" id="Fill-26" fill="#754448" mask="url(#mask-6)"></path>
                    <path d="M91.167,83.2911 L91.167,83.2911 C90.947,83.1251 90.903,82.8111 91.068,82.5911 L92.873,80.1941 C93.039,79.9751 93.354,79.9301 93.573,80.0961 C93.793,80.2611 93.838,80.5761 93.672,80.7961 L91.867,83.1921 C91.702,83.4121 91.387,83.4561 91.167,83.2911" id="Fill-27" fill="#754448" mask="url(#mask-6)"></path>
                    <path d="M93.4268,84.9922 L93.4268,84.9922 C93.2068,84.8272 93.1618,84.5122 93.3278,84.2922 L95.1328,81.8952 C95.2978,81.6762 95.6138,81.6322 95.8328,81.7972 C96.0528,81.9632 96.0968,82.2772 95.9318,82.4972 L94.1268,84.8932 C93.9608,85.1132 93.6468,85.1582 93.4268,84.9922" id="Fill-28" fill="#754448" mask="url(#mask-6)"></path>
                    <path d="M48.3359,87.544 C46.0249,87.544 43.8989,87.913 42.2279,88.525 L42.2269,88.525 L42.2269,87.653 C42.2269,84.293 44.9759,81.544 48.3359,81.544 C51.6959,81.544 54.4449,84.293 54.4449,87.653 L54.4449,88.525 L54.4439,88.525 C52.7729,87.913 50.6469,87.544 48.3359,87.544" id="Fill-29" fill="#754448" mask="url(#mask-6)"></path>
                    <path d="M47.0596,83.2911 L47.0596,83.2911 C47.2796,83.1251 47.3246,82.8111 47.1586,82.5911 L45.3536,80.1941 C45.1886,79.9751 44.8726,79.9301 44.6536,80.0961 C44.4336,80.2611 44.3896,80.5761 44.5546,80.7961 L46.3596,83.1921 C46.5256,83.4121 46.8396,83.4561 47.0596,83.2911" id="Fill-30" fill="#754448" mask="url(#mask-6)"></path>
                    <path d="M44.8008,84.9922 L44.8008,84.9922 C45.0208,84.8272 45.0648,84.5122 44.8998,84.2922 L43.0948,81.8952 C42.9288,81.6762 42.6138,81.6322 42.3948,81.7972 C42.1748,81.9632 42.1298,82.2772 42.2958,82.4972 L44.1008,84.8932 C44.2658,85.1132 44.5808,85.1582 44.8008,84.9922" id="Fill-31" fill="#754448" mask="url(#mask-6)"></path>
                    <path d="M31.7354,46.1651 C26.9804,53.4301 24.1624,62.0571 24.0184,71.3071 C26.6684,69.9101 28.2624,68.5441 28.2624,68.5441 C88.4754,74.5441 99.9784,38.5441 99.9784,38.5441 L64.8264,37.0441 L31.7354,46.1651 Z" id="Fill-32" fill="#713D25" mask="url(#mask-6)"></path>
                    <path d="M93.207,44.1378 C93.207,44.1378 86.531,66.5928 112.78,74.7408 L110.345,55.5648 L93.207,44.1378 Z" id="Fill-33" fill="#713D25" mask="url(#mask-6)"></path>
                    <polygon id="Fill-34" fill="#7E58C5" mask="url(#mask-6)" points="69.25 3.0001 63.25 0.0001 41.25 31.5441 97.25 31.5441 75.25 0.0001"></polygon>
                    <path d="M41.25,31.544 L41.274,31.544 C41.273,31.53 41.273,31.517 41.272,31.502 L41.25,31.544 Z" id="Fill-35" fill="#7E58C5" mask="url(#mask-6)"></path>
                    <path d="M97.2275,31.502 C97.2265,31.517 97.2265,31.53 97.2255,31.544 L97.2495,31.544 L97.2275,31.502 Z" id="Fill-36" fill="#7E58C5" mask="url(#mask-6)"></path>
                    <path d="M69.25,45.544 C84.391,45.544 96.716,39.32 97.226,31.544 L41.274,31.544 C41.784,39.32 54.109,45.544 69.25,45.544" id="Fill-37" fill="#7E58C5" mask="url(#mask-6)"></path>
                    <polygon id="Fill-38" fill="#FFFFFF" mask="url(#mask-6)" points="39 188.544 96 188.544 96 173.544 39 173.544"></polygon>
                    <polygon id="Fill-39" fill="#7E58C5" mask="url(#mask-6)" points="40 157.4327 61 188.5437 28 188.5437 28.039 151.2687 36 148.5437"></polygon>
                    <polygon id="Fill-40" fill="#7E58C5" mask="url(#mask-6)" points="98 157.4327 77 188.5437 110 188.5437 109.961 151.2687 102 148.5437"></polygon>
                    <polygon id="Fill-41" fill="#7E58C5" mask="url(#mask-6)" points="29.0801 150.9122 9.0001 160.5442 6.0001 177.5442 6.0001 188.5442 32.5001 188.5442"></polygon>
                    <polygon id="Fill-42" fill="#7E58C5" mask="url(#mask-6)" points="109.4199 150.9122 129.4999 160.5442 132.4999 177.5442 132.4999 188.5442 105.9999 188.5442"></polygon>
                    <path d="M35.1689,140.0508 C39.9399,144.6698 46.3109,145.8288 47.4659,144.6368 C48.6199,143.4448 47.2589,137.1128 42.4879,132.4928 C37.7189,127.8738 32.2759,129.0658 30.1919,127.9068 C28.7409,127.1008 30.3989,135.4308 35.1689,140.0508" id="Fill-43" fill="#7E58C5" mask="url(#mask-6)"></path>
                    <path d="M86,139.544 C86,139.544 74.355,149.215 52,139.544 L52,137.544 C52,137.544 51,137.544 49,138.544 C47,139.544 44,144.544 44,144.544 C44,144.544 51,151.544 67,154.544 C67,154.544 82.121,156.544 99.061,146.544 C99.061,146.544 99,142.204 86,136.544 L86,138.544 L86,139.544 Z" id="Fill-44" fill="#7E58C5" mask="url(#mask-6)"></path>
                    <polygon id="Fill-45" fill="#FFEEA6" mask="url(#mask-6)" points="69.1836 24.3711 53.8306 12.1911 52.2496 14.1101 69.1836 27.5441 86.1176 14.1101 84.5376 12.1911"></polygon>
                    <path d="M99.9746,31.0547 L96.5386,25.7977 C91.4176,30.9007 81.1236,34.3877 69.2496,34.3877 C57.3756,34.3877 47.0816,30.9007 41.9606,25.7977 L38.5256,31.0547 C38.5246,31.0527 38.5246,31.0497 38.5246,31.0477 L38.4996,31.0927 L38.5266,31.0927 C39.0866,39.6327 52.6226,46.4677 69.2496,46.4677 C85.8766,46.4677 99.4126,39.6327 99.9736,31.0927 L99.9996,31.0927 L99.9756,31.0477 C99.9756,31.0497 99.9746,31.0527 99.9746,31.0547" id="Fill-46" fill="#8C72DB" mask="url(#mask-6)"></path>
                </g>
            </g>
        </g>
    </g>
</svg>