<?xml version="1.0" encoding="UTF-8"?>
<svg width="334px" height="521px" viewBox="0 0 334 521" version="1.1" xmlns="http://www.w3.org/2000/svg" xmlns:xlink="http://www.w3.org/1999/xlink">
    <!-- Generator: Sketch 46.2 (44496) - http://www.bohemiancoding.com/sketch -->
    <title>Page 1</title>
    <desc>Created with Sketch.</desc>
    <defs>
        <polygon id="path-1" points="0 520.438445 333.930398 520.438445 333.930398 0 0 0"></polygon>
    </defs>
    <g id="Page-1" stroke="none" stroke-width="1" fill="none" fill-rule="evenodd">
        <g id="Desktop---FINAL" transform="translate(-836.000000, -310.000000)">
            <g id="girl" transform="translate(808.000000, 310.000000)">
                <g id="Page-1" transform="translate(28.100210, 0.000000)">
                    <path d="M260.669784,340.915222 C260.669784,340.915222 275.329513,353.25488 275.329513,377.938988 L275.329513,490.025854 L59.4351668,490.025854 L59.4351668,377.938988 C59.4351668,353.25488 74.0948957,340.915222 74.0948957,340.915222 L124.735421,348.319975 C134.061295,343.382675 138.062882,335.977921 138.062882,335.977921 L167.38234,338.339968 L196.701798,335.977921 C196.701798,335.977921 200.696209,343.382675 210.029259,348.319975 L260.669784,340.915222 Z" id="Fill-1" fill="#F7F8F9"></path>
                    <path d="M241.782438,347.224714 L200.26687,321.802766 C192.617692,317.890775 189.338447,312.023988 189.338447,312.023988 L165.302615,313.89494 L141.269175,312.023988 C141.269175,312.023988 137.987539,317.890775 130.340752,321.802766 L88.8227927,347.224714 C88.8227927,347.224714 76.8036807,357.003492 76.8036807,376.558652 L76.8036807,407.847388 L164.209534,407.847388 L166.395697,407.847388 L253.80155,407.847388 L253.80155,376.558652 C253.80155,357.003492 241.782438,347.224714 241.782438,347.224714" id="Fill-3" fill="#FBCAB9"></path>
                    <mask id="mask-2" fill="white">
                        <use xlink:href="#path-1"></use>
                    </mask>
                    <g id="Clip-6"></g>
                    <polygon id="Fill-5" fill="#FBCAB9" mask="url(#mask-2)" points="141.385419 333.582815 189.222681 333.582815 189.222681 276.088776 141.385419 276.088776"></polygon>
                    <path d="M250.062828,341.152625 L221.869938,321.688496 C210.817139,339.820679 190.555666,351.973482 167.383297,351.973482 C144.206143,351.973482 123.944671,339.820679 112.887088,321.688496 L84.6989816,341.152625 C84.6989816,341.152625 71.7087731,353.065869 71.7087731,376.899544 L71.7087731,415.032466 L166.199325,415.032466 L168.562485,415.032466 L263.057821,415.032466 L263.057821,376.899544 C263.057821,353.065869 250.062828,341.152625 250.062828,341.152625" id="Fill-7" fill="#F185B5" mask="url(#mask-2)"></path>
                    <polygon id="Fill-8" fill="#F7F8F9" mask="url(#mask-2)" points="160.870014 417.429009 93.5486358 417.429009 88.7649096 331.187949 117.115663 309.627684"></polygon>
                    <polygon id="Fill-9" fill="#F7F8F9" mask="url(#mask-2)" points="169.73689 417.429009 237.058269 417.429009 237.058269 324.001194 217.923364 309.627684"></polygon>
                    <polygon id="Fill-10" fill="#F7F8F9" mask="url(#mask-2)" points="268.153685 417.429009 231.338128 417.429009 231.338128 319.657999 260.978096 340.770289"></polygon>
                    <polygon id="Fill-11" fill="#F7F8F9" mask="url(#mask-2)" points="96.8738039 417.429009 67.2338364 417.429009 74.4094257 340.770289 95.9361936 326.396779"></polygon>
                    <path d="M141.384941,306.147618 C149.237427,309.94462 157.599381,312.023988 166.279452,312.023988 C174.239572,312.023988 181.93898,310.289584 189.222203,307.072314 L189.222203,276.090213 L141.384941,276.090213 L141.384941,306.147618 Z" id="Fill-12" fill="#E39485" mask="url(#mask-2)"></path>
                    <path d="M168.092484,266.908175 C160.182593,266.908175 153.325122,271.304074 149.761245,277.77934 C154.544972,279.484996 160.263916,280.646855 167.095077,280.838502 L167.095077,280.881622 C167.439506,280.881622 167.755232,280.864853 168.092484,280.860062 C168.429737,280.864853 168.745463,280.881622 169.089891,280.881622 L169.089891,280.838502 C175.921052,280.646855 181.639997,279.484996 186.423723,277.77934 C182.862239,271.304074 176.002375,266.908175 168.092484,266.908175" id="Fill-13" fill="#DC6666" mask="url(#mask-2)"></path>
                    <path d="M86.3720898,233.56786 L67.237185,233.56786 C56.7129874,233.56786 48.1022803,224.94615 48.1022803,214.40318 C48.1022803,203.862606 56.7129874,195.2385 67.237185,195.2385 L86.3720898,195.2385 C96.8938955,195.2385 105.506995,203.862606 105.506995,214.40318 C105.506995,224.94615 96.8938955,233.56786 86.3720898,233.56786" id="Fill-14" fill="#FBCAB9" mask="url(#mask-2)"></path>
                    <path d="M72.0209112,206.018633 L70.8249797,206.018633 C64.9027267,206.018633 60.0615958,209.108938 60.0615958,212.879588 L60.0615958,215.929168 C60.0615958,219.699819 64.9027267,222.787728 70.8249797,222.787728 L72.0209112,222.787728 L72.0209112,206.018633 Z" id="Fill-15" fill="#E39485" mask="url(#mask-2)"></path>
                    <path d="M249.01878,233.56786 L268.153685,233.56786 C278.675491,233.56786 287.28859,224.94615 287.28859,214.40318 C287.28859,203.862606 278.675491,195.2385 268.153685,195.2385 L249.01878,195.2385 C238.494583,195.2385 229.883875,203.862606 229.883875,214.40318 C229.883875,224.94615 238.494583,233.56786 249.01878,233.56786" id="Fill-16" fill="#FBCAB9" mask="url(#mask-2)"></path>
                    <path d="M263.369959,206.018633 L264.56589,206.018633 C270.485751,206.018633 275.329274,209.108938 275.329274,212.879588 L275.329274,215.929168 C275.329274,219.699819 270.485751,222.787728 264.56589,222.787728 L263.369959,222.787728 L263.369959,206.018633 Z" id="Fill-17" fill="#E39485" mask="url(#mask-2)"></path>
                    <path d="M167.097469,304.836514 L167.097469,304.836514 C114.476481,304.836514 71.4229455,261.715984 71.4229455,209.013114 C71.4229455,156.310244 114.476481,113.189714 167.097469,113.189714 C219.718457,113.189714 262.771993,156.310244 262.771993,209.013114 C262.771993,261.715984 219.718457,304.836514 167.097469,304.836514" id="Fill-18" fill="#FBCAB9" mask="url(#mask-2)"></path>
                    <path d="M95.823776,134.518326 C95.823776,134.518326 103.212241,108.107002 81.2453704,94.3587393 C66.664573,85.2315604 47.1015248,84.9824196 34.1615454,91.7331781 C34.1615454,91.7331781 20.6833969,97.8059861 13.0007327,112.625075 C8.4418416,121.416872 5.94952026,136.08983 6.51399995,149.121812 C6.51399995,149.121812 13.1849061,189.214323 3.83989701,196.195058 C3.83989701,196.195058 -4.0078058,199.639909 2.73724812,202.5745 C3.70356081,202.993728 11.5608311,203.539921 19.0760649,202.088197 C25.4097184,200.864053 33.4942156,198.856552 41.786805,195.61293 C55.4873968,190.254007 69.7524683,181.522099 77.5977792,167.37617 L95.823776,134.518326 Z" id="Fill-19" fill="#723D25" mask="url(#mask-2)"></path>
                    <path d="M238.107101,134.518326 C238.107101,134.518326 230.718636,108.107002 252.685506,94.3587393 C267.266304,85.2315604 286.829352,84.9824196 299.769331,91.7331781 C299.769331,91.7331781 313.24748,97.8059861 320.930144,112.625075 C325.489035,121.416872 327.981356,136.08983 327.414485,149.121812 C327.414485,149.121812 320.745971,189.214323 330.09098,196.195058 C330.09098,196.195058 337.938683,199.639909 331.193629,202.5745 C330.227316,202.993728 322.367654,203.539921 314.854812,202.088197 C308.521158,200.864053 300.436661,198.856552 292.144072,195.61293 C278.441088,190.254007 264.178408,181.522099 256.333097,167.37617 L238.107101,134.518326 Z" id="Fill-20" fill="#723D25" mask="url(#mask-2)"></path>
                    <path d="M268.377802,161.101414 C261.549033,112.399171 218.555294,74.8603543 166.496394,74.8603543 C114.444669,74.8603543 71.4461465,112.399171 64.6197693,161.101414 L268.377802,161.101414 Z" id="Fill-21" fill="#723D25" mask="url(#mask-2)"></path>
                    <path d="M198.789655,156.90914 C198.789655,156.90914 194.005929,192.842915 165.303572,195.2385 L64.845322,195.2385 C64.845322,195.2385 61.3125402,174.59814 66.6679216,151.377735 L198.789655,156.90914 Z" id="Fill-22" fill="#723D25" mask="url(#mask-2)"></path>
                    <path d="M194.005929,156.90914 C194.005929,156.90914 198.789655,195.2385 221.954849,195.2385 L267.524625,195.2385 C267.524625,195.2385 269.462034,174.59814 266.524826,151.377735 L194.005929,156.90914 Z" id="Fill-23" fill="#723D25" mask="url(#mask-2)"></path>
                    <path d="M204.967838,250.935852 L169.089891,250.935852 L167.097469,250.935852 L131.219523,250.935852 C131.219523,250.935852 125.239865,250.935852 127.232287,257.588391 C127.232287,257.588391 134.905384,279.939199 167.097469,280.837544 L167.097469,280.880664 C167.439506,280.880664 167.755232,280.866291 168.092484,280.859104 C168.429737,280.866291 168.745463,280.880664 169.089891,280.880664 L169.089891,280.837544 C201.279585,279.939199 208.955073,257.588391 208.955073,257.588391 C210.947495,250.935852 204.967838,250.935852 204.967838,250.935852" id="Fill-24" fill="#8B2B23" mask="url(#mask-2)"></path>
                    <path d="M167.097469,232.297482 C162.029111,232.297482 157.580246,230.151038 155.138154,226.979283 L155.138154,227.635673 C155.138154,232.764621 160.519846,236.964081 167.097469,236.964081 C173.675093,236.964081 179.056785,232.764621 179.056785,227.635673 L179.056785,226.979283 C176.612301,230.151038 172.165827,232.297482 167.097469,232.297482" id="Fill-25" fill="#E39483" mask="url(#mask-2)"></path>
                    <path d="M125.847159,215.799807 C130.449104,215.799807 134.689877,216.537647 138.021742,217.761791 L138.021742,216.017805 C138.021742,209.310167 132.541984,203.821882 125.847159,203.821882 C119.147551,203.821882 113.667792,209.310167 113.667792,216.017805 L113.667792,217.761791 L113.672576,217.761791 C116.999658,216.537647 121.240431,215.799807 125.847159,215.799807" id="Fill-26" fill="#754448" mask="url(#mask-2)"></path>
                    <path d="M208.7355,215.799807 C213.342229,215.799807 217.583002,216.537647 220.910083,217.761791 L220.914867,217.761791 L220.914867,216.017805 C220.914867,209.310167 215.435109,203.821882 208.7355,203.821882 C202.040676,203.821882 196.560917,209.310167 196.560917,216.017805 L196.560917,217.761791 C199.892782,216.537647 204.128772,215.799807 208.7355,215.799807" id="Fill-27" fill="#754448" mask="url(#mask-2)"></path>
                    <path d="M128.229694,235.76557 C128.229694,242.377385 122.871921,247.743495 116.270378,247.743495 C109.664053,247.743495 104.311063,242.377385 104.311063,235.76557 C104.311063,229.148964 109.664053,223.787645 116.270378,223.787645 C122.871921,223.787645 128.229694,229.148964 128.229694,235.76557" id="Fill-28" fill="#F8B4A8" mask="url(#mask-2)"></path>
                    <path d="M229.883875,235.76557 C229.883875,242.377385 224.526102,247.743495 217.92456,247.743495 C211.318234,247.743495 205.965244,242.377385 205.965244,235.76557 C205.965244,229.148964 211.318234,223.787645 217.92456,223.787645 C224.526102,223.787645 229.883875,229.148964 229.883875,235.76557" id="Fill-29" fill="#F8B4A8" mask="url(#mask-2)"></path>
                    <path d="M168.891367,250.935852 L166.896553,250.935852 L143.547185,250.935852 C146.668567,257.298525 153.195961,261.715984 160.715978,261.715984 L175.067157,261.715984 C182.59435,261.715984 189.119353,257.298525 192.240734,250.935852 L168.891367,250.935852 Z" id="Fill-30" fill="#FFFFFF" mask="url(#mask-2)"></path>
                    <path d="M168.891367,98.8162043 C192.058952,98.8162043 212.913607,103.964316 227.542241,112.190755 C216.678399,98.5718546 194.501045,89.2338643 168.891367,89.2338643 C143.276905,89.2338643 121.101942,98.5718546 110.2381,112.190755 C124.866734,103.964316 145.721389,98.8162043 168.891367,98.8162043" id="Fill-31" fill="#40859A" mask="url(#mask-2)"></path>
                    <path d="M217.326594,51.5034006 C217.326594,79.9485768 194.300128,103.008478 165.901538,103.008478 C137.498163,103.008478 114.476481,79.9485768 114.476481,51.5034006 C114.476481,23.0582243 137.498163,-0.0016769095 165.901538,-0.0016769095 C194.300128,-0.0016769095 217.326594,23.0582243 217.326594,51.5034006" id="Fill-32" fill="#A1CBDA" mask="url(#mask-2)"></path>
                    <path d="M171.881195,51.5034006 C171.881195,54.8117034 169.204701,57.4923631 165.901538,57.4923631 C162.598375,57.4923631 159.92188,54.8117034 159.92188,51.5034006 C159.92188,48.1950977 162.598375,45.5144381 165.901538,45.5144381 C169.204701,45.5144381 171.881195,48.1950977 171.881195,51.5034006" id="Fill-33" fill="#FFFFFF" mask="url(#mask-2)"></path>
                    <path d="M199.387621,51.5034006 C199.387621,70.0260638 184.393031,85.0415905 165.901538,85.0415905 C147.407652,85.0415905 132.415454,70.0260638 132.415454,51.5034006 C132.415454,32.9807374 147.407652,17.9652106 165.901538,17.9652106 C184.393031,17.9652106 199.387621,32.9807374 199.387621,51.5034006 Z" id="Stroke-34" stroke="#FFFFFF" mask="url(#mask-2)"></path>
                    <path d="M50.4099498,421.636375 C44.2102407,447.645241 48.747605,477.331331 67.8298887,497.063764 C80.4445747,510.102933 96.9388626,513.178865 113.710607,517.191469 C143.637598,524.349477 156.405363,478.162599 126.430535,470.995008 C119.391281,469.308516 108.343266,468.000527 103.535621,464.881475 C95.498961,459.663891 94.1977875,444.197995 96.5418133,434.3737 C103.683916,404.400141 57.5711879,391.610113 50.4099498,421.636375" id="Fill-36" fill="#FBCAB9" mask="url(#mask-2)"></path>
                    <path d="M74.4127743,340.770289 C74.4127743,340.770289 19.3999232,383.890819 28.9434569,447.316328 C33.2799047,476.132819 95.9395422,520.439164 95.9395422,520.439164 C95.9395422,520.439164 105.399361,497.448735 119.858173,462.945124 C119.858173,462.945124 83.5640425,414.199761 100.003318,387.774062 C116.437809,361.348364 74.4127743,340.770289 74.4127743,340.770289" id="Fill-37" fill="#F7F8F9" mask="url(#mask-2)"></path>
                    <path d="M118.087477,309.627684 C115.616682,311.872347 90.8991691,350.053181 90.8991691,350.053181 L114.8178,357.539384 L99.2802574,376.442945 L152.69056,417.429009 L169.830651,417.429009 L118.087477,309.627684 Z" id="Fill-38" fill="#FFFFFF" mask="url(#mask-2)"></path>
                    <path d="M216.33134,309.337579 C218.826053,311.563077 243.864076,349.528308 243.864076,349.528308 L220.007634,357.218136 L235.707823,375.98994 L182.649124,417.42877 L165.504249,417.534175 L216.33134,309.337579 Z" id="Fill-39" fill="#FFFFFF" mask="url(#mask-2)"></path>
                    <path d="M204.20866,475.061035 C189.307353,468.420473 177.862288,458.739914 173.839175,442.430771 C170.717793,429.786874 171.731943,416.354829 171.77978,403.456999 C171.806091,396.516989 161.042707,396.507407 161.016396,403.456999 C160.958992,418.987577 159.772628,435.375774 164.924701,450.312246 C170.600592,466.772311 183.229629,477.442246 198.776739,484.367882 C205.052988,487.16353 210.535138,477.878243 204.20866,475.061035" id="Fill-40" fill="#AEAEAE" mask="url(#mask-2)"></path>
                    <path d="M209.293761,301.557677 C228.553043,302.355407 220.248494,318.228553 217.177342,330.513113 C213.469954,345.346575 209.70277,360.160873 206.055179,375.008709 C198.915467,404.033616 134.177301,405.423056 126.836673,375.722593 C123.205825,361.00891 119.558233,346.271271 115.88194,331.557588 C112.196079,316.829531 103.836517,299.701099 127.403544,300.81265 C134.327988,301.13845 134.311245,290.358317 127.403544,290.032518 C106.558458,289.050328 97.2062729,301.229482 101.975648,320.317503 C107.108586,340.857249 111.047985,362.233054 117.089831,382.447 C121.641546,397.673338 140.501387,404.412119 154.512921,406.438784 C171.770213,408.934983 192.263696,406.663969 206.268054,395.368786 C214.560644,388.682708 215.77571,380.499389 218.169965,370.924236 C221.298522,358.4097 224.427079,345.895164 227.558028,333.380628 C229.325615,326.308861 232.121703,318.825054 232.736411,311.494564 C233.944302,297.073142 221.961068,291.304573 209.293761,290.777544 C202.366926,290.487679 202.376493,301.270207 209.293761,301.557677" id="Fill-41" fill="#AEAEAE" mask="url(#mask-2)"></path>
                    <path d="M183.639594,474.923049 L92.7487968,474.923049 C88.8022227,474.923049 85.5732075,471.691405 85.5732075,467.736294 L85.5732075,367.121724 C85.5732075,363.169009 88.8022227,359.934969 92.7487968,359.934969 L183.639594,359.934969 C187.586168,359.934969 190.815184,363.169009 190.815184,367.121724 L190.815184,467.736294 C190.815184,471.691405 187.586168,474.923049 183.639594,474.923049" id="Fill-42" fill="#FFDD55" mask="url(#mask-2)"></path>
                    <path d="M94.1035481,365.923932 L182.284365,365.923932" id="Fill-43" fill="#FFD528" mask="url(#mask-2)"></path>
                    <path d="M94.1035481,374.308479 L182.284365,374.308479 C196.83646,374.308479 196.860378,357.539384 182.284365,357.539384 L94.1035481,357.539384 C79.551453,357.539384 79.5275344,374.308479 94.1035481,374.308479" id="Fill-44" fill="#FFD528" mask="url(#mask-2)"></path>
                    <path d="M159.720963,407.846669 L116.667428,407.846669 C114.036378,407.846669 111.883702,405.690643 111.883702,403.055499 L111.883702,398.264329 C111.883702,395.631581 114.036378,393.473159 116.667428,393.473159 L159.720963,393.473159 C162.352013,393.473159 164.50469,395.631581 164.50469,398.264329 L164.50469,403.055499 C164.50469,405.690643 162.352013,407.846669 159.720963,407.846669" id="Fill-45" fill="#F7F8F9" mask="url(#mask-2)"></path>
                    <path d="M176.146366,430.394155 C172.374398,436.838278 173.539235,435.851297 168.348892,440.865257 C164.519519,444.568831 170.688134,439.780057 166.488022,442.077423 C164.041147,443.306358 164.055498,443.378225 166.5239,442.295421 C165.158147,442.791307 163.770866,443.21293 162.359667,443.56029 C157.310444,444.573622 165.411684,443.699234 159.312433,444.128043 C156.604844,444.322086 153.885296,444.346042 151.177707,444.288548 C144.358505,444.137626 136.929378,443.804639 130.25608,442.161268 C116.923835,438.881712 103.811642,433.309582 90.7831637,428.947221 C61.5163269,419.151674 48.9638294,465.405629 78.0632358,475.148474 C98.3725453,481.947144 117.239561,488.95423 138.632385,491.294716 C172.436586,494.986313 199.90235,484.579892 217.453841,454.577585 C233.048789,427.919515 191.717394,403.779205 176.146366,430.394155" id="Fill-46" fill="#FBCAB9" mask="url(#mask-2)"></path>
                    <path d="M263.74596,383.476622 C263.74596,383.476622 265.460925,455.88797 211.945381,491.675615 C185.582266,509.297538 91.1539025,486.901214 91.1539025,486.901214 C100.123389,453.48999 103.579631,447.139294 104.543552,431.750056 C104.543552,431.750056 183.833814,424.946594 199.603367,402.677236 C215.368137,380.410274 263.74596,383.476622 263.74596,383.476622" id="Fill-47" fill="#F7F8F9" mask="url(#mask-2)"></path>
                </g>
            </g>
        </g>
    </g>
</svg>