<?xml version="1.0" encoding="UTF-8"?>
<svg width="375px" height="327px" viewBox="0 0 375 327" version="1.1" xmlns="http://www.w3.org/2000/svg" xmlns:xlink="http://www.w3.org/1999/xlink">
    <!-- Generator: Sketch 47.1 (45422) - http://www.bohemiancoding.com/sketch -->
    <title>GRAPH</title>
    <desc>Created with Sketch.</desc>
    <defs>
        <linearGradient x1="90.1637316%" y1="61.8896484%" x2="90.1637316%" y2="-9.7265625%" id="linearGradient-1">
            <stop stop-color="#FFFFFF" stop-opacity="0.5" offset="0%"></stop>
            <stop stop-color="#000000" stop-opacity="0.400758605" offset="100%"></stop>
        </linearGradient>
        <linearGradient x1="100%" y1="100%" x2="-22.556686%" y2="100%" id="linearGradient-2">
            <stop stop-color="#FFFFFF" stop-opacity="0.5" offset="0%"></stop>
            <stop stop-color="#000000" stop-opacity="0.5" offset="100%"></stop>
        </linearGradient>
        <polygon id="path-3" points="1 263.449219 76 214 151 138.435709 227 111 303 76.091368 376 1.40039062 376 326.708882 1 326.708882"></polygon>
        <circle id="path-4" cx="238.526971" cy="10.8921162" r="10.8921162"></circle>
        <filter x="-32.1%" y="-23.0%" width="164.3%" height="164.3%" filterUnits="objectBoundingBox" id="filter-5">
            <feOffset dx="0" dy="2" in="SourceAlpha" result="shadowOffsetOuter1"></feOffset>
            <feGaussianBlur stdDeviation="2" in="shadowOffsetOuter1" result="shadowBlurOuter1"></feGaussianBlur>
            <feComposite in="shadowBlurOuter1" in2="SourceAlpha" operator="out" result="shadowBlurOuter1"></feComposite>
            <feColorMatrix values="0 0 0 0 0   0 0 0 0 0   0 0 0 0 0  0 0 0 0.129670516 0" type="matrix" in="shadowBlurOuter1"></feColorMatrix>
        </filter>
        <circle id="path-6" cx="162.842324" cy="46.7427386" r="10.8921162"></circle>
        <filter x="-32.1%" y="-23.0%" width="164.3%" height="164.3%" filterUnits="objectBoundingBox" id="filter-7">
            <feOffset dx="0" dy="2" in="SourceAlpha" result="shadowOffsetOuter1"></feOffset>
            <feGaussianBlur stdDeviation="2" in="shadowOffsetOuter1" result="shadowBlurOuter1"></feGaussianBlur>
            <feComposite in="shadowBlurOuter1" in2="SourceAlpha" operator="out" result="shadowBlurOuter1"></feComposite>
            <feColorMatrix values="0 0 0 0 0   0 0 0 0 0   0 0 0 0 0  0 0 0 0.129670516 0" type="matrix" in="shadowBlurOuter1"></feColorMatrix>
        </filter>
        <circle id="path-8" cx="87.1576763" cy="76.4315353" r="10.8921162"></circle>
        <filter x="-32.1%" y="-23.0%" width="164.3%" height="164.3%" filterUnits="objectBoundingBox" id="filter-9">
            <feOffset dx="0" dy="2" in="SourceAlpha" result="shadowOffsetOuter1"></feOffset>
            <feGaussianBlur stdDeviation="2" in="shadowOffsetOuter1" result="shadowBlurOuter1"></feGaussianBlur>
            <feComposite in="shadowBlurOuter1" in2="SourceAlpha" operator="out" result="shadowBlurOuter1"></feComposite>
            <feColorMatrix values="0 0 0 0 0   0 0 0 0 0   0 0 0 0 0  0 0 0 0.129670516 0" type="matrix" in="shadowBlurOuter1"></feColorMatrix>
        </filter>
        <circle id="path-10" cx="11.473029" cy="153" r="10.8921162"></circle>
        <filter x="-32.1%" y="-23.0%" width="164.3%" height="164.3%" filterUnits="objectBoundingBox" id="filter-11">
            <feOffset dx="0" dy="2" in="SourceAlpha" result="shadowOffsetOuter1"></feOffset>
            <feGaussianBlur stdDeviation="2" in="shadowOffsetOuter1" result="shadowBlurOuter1"></feGaussianBlur>
            <feComposite in="shadowBlurOuter1" in2="SourceAlpha" operator="out" result="shadowBlurOuter1"></feComposite>
            <feColorMatrix values="0 0 0 0 0   0 0 0 0 0   0 0 0 0 0  0 0 0 0.129670516 0" type="matrix" in="shadowBlurOuter1"></feColorMatrix>
        </filter>
        <path d="M56.4549513,28.25 L66,28.25 C73.5939153,28.25 79.75,22.0939153 79.75,14.5 L79.75,14.5 C79.75,6.90608469 73.5939153,0.75 66,0.75 L33.5,0.75 L33.5,0.75 C25.9060847,0.75 19.75,6.90608469 19.75,14.5 L19.75,14.5 L19.75,14.5 C19.75,22.0939153 25.9060847,28.25 33.5,28.25 L44.2950487,28.25 L50.375,34.3299513 L56.4549513,28.25 Z" id="path-12"></path>
        <filter x="-11.7%" y="-14.9%" width="123.3%" height="141.7%" filterUnits="objectBoundingBox" id="filter-13">
            <feOffset dx="0" dy="2" in="SourceAlpha" result="shadowOffsetOuter1"></feOffset>
            <feGaussianBlur stdDeviation="2" in="shadowOffsetOuter1" result="shadowBlurOuter1"></feGaussianBlur>
            <feColorMatrix values="0 0 0 0 0   0 0 0 0 0   0 0 0 0 0  0 0 0 0.078125 0" type="matrix" in="shadowBlurOuter1"></feColorMatrix>
        </filter>
    </defs>
    <g id="Page-1" stroke="none" stroke-width="1" fill="none" fill-rule="evenodd">
        <g id="Mobile_pre" transform="translate(0.000000, -2943.000000)">
            <g id="5" transform="translate(-1.000000, 2676.000000)">
                <g id="GRAPH" transform="translate(0.000000, 267.000000)">
                    <g id="Group-7" transform="translate(187.500000, 143.000000) rotate(-270.000000) translate(-187.500000, -143.000000) translate(119.000000, -44.000000)" stroke="#BCBCBC" stroke-width="0.5" stroke-linecap="square" stroke-dasharray="3,5">
                        <path d="M136.25,0.294658763 L136.25,373.429379" id="Line"></path>
                        <path d="M68.5833333,0.294658763 L68.5833333,373.429379" id="Line"></path>
                        <path d="M0.916666667,0.294658763 L0.916666667,373.429379" id="Line"></path>
                    </g>
                    <g id="Combined-Shape">
                        <use fill="#008E53" xlink:href="#path-3"></use>
                        <use fill="url(#linearGradient-2)" style="mix-blend-mode: overlay;" xlink:href="#path-3"></use>
                    </g>
                    <polyline id="Path-2" stroke="#116734" points="1 262.929687 77 214 152 138.435709 226 111 304 76.091368 376 0.323086703"></polyline>
                    <g id="Group-7" transform="translate(74.000000, 73.000000)" stroke="#FFFFFF" stroke-linecap="square" stroke-dasharray="1,1">
                        <path d="M1.5,121.433807 L1.5,252.501257" id="Line" opacity="0.192595109"></path>
                        <path d="M76.5,50.7688707 L76.5,252.194027" id="Line" opacity="0.192595109"></path>
                        <path d="M152.5,32.7692736 L152.5,253.193604" id="Line" opacity="0.192595109"></path>
                        <path d="M228.5,0.444055944 L228.5,253.538609" id="Line" opacity="0.19"></path>
                    </g>
                    <g id="Group-6" transform="translate(64.000000, 61.000000)">
                        <g id="Oval-4">
                            <use fill="black" fill-opacity="1" filter="url(#filter-5)" xlink:href="#path-4"></use>
                            <use fill="#FFFFFF" fill-rule="evenodd" xlink:href="#path-4"></use>
                            <circle stroke="#FFFFFF" stroke-width="2" cx="238.526971" cy="10.8921162" r="9.89211618"></circle>
                        </g>
                        <g id="Oval-4">
                            <use fill="black" fill-opacity="1" filter="url(#filter-7)" xlink:href="#path-6"></use>
                            <use fill="#FFFFFF" fill-rule="evenodd" xlink:href="#path-6"></use>
                            <circle stroke="#FFFFFF" stroke-width="2" cx="162.842324" cy="46.7427386" r="9.89211618"></circle>
                        </g>
                        <g id="Oval-4">
                            <use fill="black" fill-opacity="1" filter="url(#filter-9)" xlink:href="#path-8"></use>
                            <use fill="#FFFFFF" fill-rule="evenodd" xlink:href="#path-8"></use>
                            <circle stroke="#FFFFFF" stroke-width="2" cx="87.1576763" cy="76.4315353" r="9.89211618"></circle>
                        </g>
                        <g id="Oval-4">
                            <use fill="black" fill-opacity="1" filter="url(#filter-11)" xlink:href="#path-10"></use>
                            <use fill="#FFFFFF" fill-rule="evenodd" xlink:href="#path-10"></use>
                            <circle stroke="#FFFFFF" stroke-width="2" cx="11.473029" cy="153" r="9.89211618"></circle>
                        </g>
                        <circle id="Oval-4" fill="#424559" cx="238.526971" cy="10.8921162" r="3.63070539"></circle>
                        <circle id="Oval-4" fill="#424559" cx="162.842324" cy="46.7427386" r="3.63070539"></circle>
                        <circle id="Oval-4" fill="#424559" cx="87.1576763" cy="76.4315353" r="3.63070539"></circle>
                        <circle id="Oval-4" fill="#424559" cx="11.473029" cy="153" r="3.63070539"></circle>
                    </g>
                    <g id="start" transform="translate(24.000000, 161.000000)">
                        <g id="Combined-Shape">
                            <use fill="black" fill-opacity="1" filter="url(#filter-13)" xlink:href="#path-12"></use>
                            <use fill="#F5A623" fill-rule="evenodd" xlink:href="#path-12"></use>
                        </g>
                        <path d="M39.9580078,14.8803711 C38.9127552,14.5799139 38.152102,14.2106955 37.6760254,13.7727051 C37.1999488,13.3347146 36.9619141,12.7941113 36.9619141,12.1508789 C36.9619141,11.4230107 37.2528454,10.8210473 37.8347168,10.3449707 C38.4165882,9.8688941 39.1730097,9.63085938 40.1040039,9.63085938 C40.7387727,9.63085938 41.3047664,9.7535795 41.802002,9.99902344 C42.2992375,10.2444674 42.6843248,10.5830057 42.9572754,11.0146484 C43.230226,11.4462912 43.3666992,11.918129 43.3666992,12.4301758 L42.1416016,12.4301758 C42.1416016,11.8715792 41.963869,11.4325374 41.6083984,11.1130371 C41.2529279,10.7935368 40.7514681,10.6337891 40.1040039,10.6337891 C39.5030894,10.6337891 39.0344255,10.7660306 38.697998,11.0305176 C38.3615706,11.2950046 38.1933594,11.662107 38.1933594,12.1318359 C38.1933594,12.5084654 38.3531071,12.826903 38.6726074,13.0871582 C38.9921077,13.3474134 39.5358848,13.5854481 40.3039551,13.8012695 C41.0720253,14.0170909 41.6729308,14.2551257 42.1066895,14.5153809 C42.5404481,14.7756361 42.8620595,15.0792626 43.0715332,15.4262695 C43.2810069,15.7732765 43.3857422,16.1816383 43.3857422,16.6513672 C43.3857422,17.4003944 43.0937529,18.0002419 42.5097656,18.4509277 C41.9257783,18.9016136 41.1450244,19.1269531 40.1674805,19.1269531 C39.5327117,19.1269531 38.9402697,19.0052909 38.3901367,18.7619629 C37.8400038,18.5186349 37.415773,18.1853862 37.1174316,17.762207 C36.8190903,17.3390278 36.6699219,16.8587266 36.6699219,16.3212891 L37.8950195,16.3212891 C37.8950195,16.8798856 38.1013163,17.3210433 38.513916,17.6447754 C38.9265157,17.9685075 39.4776984,18.1303711 40.1674805,18.1303711 C40.8107129,18.1303711 41.3037092,17.9991875 41.6464844,17.7368164 C41.9892595,17.4744453 42.1606445,17.1168642 42.1606445,16.6640625 C42.1606445,16.2112608 42.0019547,15.8610852 41.6845703,15.6135254 C41.3671859,15.3659656 40.7916708,15.1215832 39.9580078,14.8803711 Z M46.3564453,10.46875 L46.3564453,12.1318359 L47.6386719,12.1318359 L47.6386719,13.0395508 L46.3564453,13.0395508 L46.3564453,17.2988281 C46.3564453,17.5738946 46.4135736,17.7801914 46.527832,17.9177246 C46.6420904,18.0552578 46.8367499,18.1240234 47.1118164,18.1240234 C47.2472337,18.1240234 47.4334298,18.0986331 47.6704102,18.0478516 L47.6704102,19 C47.3614893,19.0846358 47.0610366,19.1269531 46.769043,19.1269531 C46.2443008,19.1269531 45.8486341,18.9682633 45.5820312,18.6508789 C45.3154284,18.3334945 45.1821289,17.8828154 45.1821289,17.2988281 L45.1821289,13.0395508 L43.9316406,13.0395508 L43.9316406,12.1318359 L45.1821289,12.1318359 L45.1821289,10.46875 L46.3564453,10.46875 Z M53.25,19 C53.1822913,18.8645827 53.1272789,18.6233741 53.0849609,18.2763672 C52.5390598,18.8434273 51.8873736,19.1269531 51.1298828,19.1269531 C50.4527961,19.1269531 49.8973817,18.9354674 49.463623,18.5524902 C49.0298644,18.1695131 48.8129883,17.6839222 48.8129883,17.0957031 C48.8129883,16.3805303 49.0848768,15.8251159 49.6286621,15.4294434 C50.1724474,15.0337708 50.9373323,14.8359375 51.9233398,14.8359375 L53.065918,14.8359375 L53.065918,14.2963867 C53.065918,13.8859029 52.9431978,13.5590019 52.6977539,13.3156738 C52.45231,13.0723458 52.0904972,12.9506836 51.6123047,12.9506836 C51.1933573,12.9506836 50.8421238,13.0564768 50.5585938,13.2680664 C50.2750637,13.479656 50.1333008,13.7356756 50.1333008,14.0361328 L48.9526367,14.0361328 C48.9526367,13.6933577 49.0742989,13.3622249 49.317627,13.0427246 C49.560955,12.7232243 49.8910298,12.4703785 50.3078613,12.2841797 C50.7246928,12.0979808 51.1827775,12.0048828 51.6821289,12.0048828 C52.473474,12.0048828 53.0934222,12.2027161 53.5419922,12.5983887 C53.9905621,12.9940612 54.2233072,13.5388963 54.2402344,14.2329102 L54.2402344,17.394043 C54.2402344,18.02458 54.3206372,18.5260398 54.4814453,18.8984375 L54.4814453,19 L53.25,19 Z M51.3012695,18.1049805 C51.6694354,18.1049805 52.018553,18.0097666 52.3486328,17.8193359 C52.6787126,17.6289053 52.9178052,17.3813492 53.065918,17.0766602 L53.065918,15.6674805 L52.1455078,15.6674805 C50.7066985,15.6674805 49.9873047,16.0885375 49.9873047,16.9306641 C49.9873047,17.29883 50.1100248,17.5865875 50.3554688,17.7939453 C50.6009127,18.0013031 50.9161765,18.1049805 51.3012695,18.1049805 Z M59.4008789,13.1855469 C59.2231436,13.1559243 59.0306,13.1411133 58.8232422,13.1411133 C58.053056,13.1411133 57.5304376,13.4690722 57.2553711,14.125 L57.2553711,19 L56.0810547,19 L56.0810547,12.1318359 L57.2236328,12.1318359 L57.2426758,12.925293 C57.6277689,12.3116831 58.1736618,12.0048828 58.8803711,12.0048828 C59.1088879,12.0048828 59.2823887,12.0345049 59.4008789,12.09375 L59.4008789,13.1855469 Z M62.0732422,10.46875 L62.0732422,12.1318359 L63.3554688,12.1318359 L63.3554688,13.0395508 L62.0732422,13.0395508 L62.0732422,17.2988281 C62.0732422,17.5738946 62.1303705,17.7801914 62.2446289,17.9177246 C62.3588873,18.0552578 62.5535468,18.1240234 62.8286133,18.1240234 C62.9640306,18.1240234 63.1502267,18.0986331 63.387207,18.0478516 L63.387207,19 C63.0782862,19.0846358 62.7778335,19.1269531 62.4858398,19.1269531 C61.9610976,19.1269531 61.565431,18.9682633 61.2988281,18.6508789 C61.0322252,18.3334945 60.8989258,17.8828154 60.8989258,17.2988281 L60.8989258,13.0395508 L59.6484375,13.0395508 L59.6484375,12.1318359 L60.8989258,12.1318359 L60.8989258,10.46875 L62.0732422,10.46875 Z" id="Start" fill="#FFFFFF"></path>
                    </g>
                    <g id="Group-12" transform="translate(44.000000, 89.000000)" fill="#FFFFFF">
                        <path d="M251.023438,19 L244.331055,19 L244.331055,17.8583984 L247.646484,14.2421875 C248.125002,13.7089817 248.465657,13.2635109 248.668457,12.9057617 C248.871258,12.5480125 248.972656,12.1891294 248.972656,11.8291016 C248.972656,11.3551409 248.839357,10.9723322 248.572754,10.6806641 C248.306151,10.3889959 247.947268,10.2431641 247.496094,10.2431641 C246.958331,10.2431641 246.541343,10.4072249 246.245117,10.7353516 C245.948892,11.0634782 245.800781,11.5123669 245.800781,12.0820312 L244.139648,12.0820312 C244.139648,11.4759084 244.277505,10.9301782 244.553223,10.4448242 C244.82894,9.95947023 245.223142,9.58235812 245.73584,9.31347656 C246.248538,9.04459501 246.83984,8.91015625 247.509766,8.91015625 C248.475916,8.91015625 249.238116,9.1528296 249.796387,9.63818359 C250.354658,10.1235376 250.633789,10.7945921 250.633789,11.6513672 C250.633789,12.1481145 250.493654,12.6687798 250.213379,13.2133789 C249.933104,13.757978 249.473962,14.3766241 248.835938,15.0693359 L246.402344,17.6738281 L251.023438,17.6738281 L251.023438,19 Z M258.775391,14.8095703 C258.775391,16.2405671 258.507652,17.3194951 257.972168,18.0463867 C257.436684,18.7732784 256.622076,19.1367188 255.52832,19.1367188 C254.452794,19.1367188 253.642744,18.7823929 253.098145,18.0737305 C252.553545,17.3650681 252.274414,16.3157622 252.260742,14.9257812 L252.260742,13.203125 C252.260742,11.7721283 252.52848,10.6988968 253.063965,9.98339844 C253.599449,9.26790007 254.416336,8.91015625 255.514648,8.91015625 C256.603847,8.91015625 257.416176,9.25878558 257.95166,9.95605469 C258.487145,10.6533238 258.761719,11.6969332 258.775391,13.0869141 L258.775391,14.8095703 Z M257.114258,12.9501953 C257.114258,12.0159458 256.986655,11.3312196 256.731445,10.8959961 C256.476236,10.4607726 256.070641,10.2431641 255.514648,10.2431641 C254.972328,10.2431641 254.573569,10.4493794 254.318359,10.8618164 C254.06315,11.2742534 253.928711,11.9179644 253.915039,12.7929688 L253.915039,15.0488281 C253.915039,15.9785203 254.044921,16.6712217 254.304688,17.1269531 C254.564454,17.5826846 254.972328,17.8105469 255.52832,17.8105469 C256.061526,17.8105469 256.455728,17.5997742 256.710938,17.1782227 C256.966147,16.7566711 257.100586,16.0970097 257.114258,15.1992188 L257.114258,12.9501953 Z M262.166016,13.2646484 L263.177734,13.2646484 C263.688154,13.2600911 264.092609,13.127931 264.391113,12.8681641 C264.689617,12.6083971 264.838867,12.2324243 264.838867,11.7402344 C264.838867,11.2662737 264.714682,10.898276 264.466309,10.6362305 C264.217935,10.3741849 263.838544,10.2431641 263.328125,10.2431641 C262.881508,10.2431641 262.51465,10.3719063 262.227539,10.6293945 C261.940428,10.8868828 261.796875,11.2229797 261.796875,11.6376953 L260.135742,11.6376953 C260.135742,11.1272761 260.27132,10.662437 260.54248,10.2431641 C260.813641,9.82389113 261.191892,9.49690873 261.677246,9.26220703 C262.1626,9.02750534 262.706052,8.91015625 263.307617,8.91015625 C264.301112,8.91015625 265.08154,9.15966547 265.648926,9.65869141 C266.216311,10.1577173 266.5,10.8515581 266.5,11.7402344 C266.5,12.1868512 266.357586,12.6072571 266.072754,13.0014648 C265.787922,13.3956725 265.419924,13.6930329 264.96875,13.8935547 C265.515628,14.0804046 265.931476,14.374347 266.216309,14.7753906 C266.501141,15.1764343 266.643555,15.6549451 266.643555,16.2109375 C266.643555,17.1041711 266.33708,17.8151015 265.724121,18.34375 C265.111162,18.8723985 264.305669,19.1367188 263.307617,19.1367188 C262.350581,19.1367188 261.566735,18.881513 260.956055,18.3710938 C260.345375,17.8606745 260.040039,17.1816449 260.040039,16.3339844 L261.701172,16.3339844 C261.701172,16.7714866 261.848143,17.1269518 262.14209,17.4003906 C262.436037,17.6738295 262.831378,17.8105469 263.328125,17.8105469 C263.843102,17.8105469 264.248696,17.6738295 264.544922,17.4003906 C264.841147,17.1269518 264.989258,16.7304713 264.989258,16.2109375 C264.989258,15.6868463 264.834311,15.2835301 264.524414,15.0009766 C264.214517,14.7184231 263.754235,14.5771484 263.143555,14.5771484 L262.166016,14.5771484 L262.166016,13.2646484 Z M274.894531,19 L268.202148,19 L268.202148,17.8583984 L271.517578,14.2421875 C271.996096,13.7089817 272.33675,13.2635109 272.539551,12.9057617 C272.742351,12.5480125 272.84375,12.1891294 272.84375,11.8291016 C272.84375,11.3551409 272.710451,10.9723322 272.443848,10.6806641 C272.177245,10.3889959 271.818362,10.2431641 271.367188,10.2431641 C270.829424,10.2431641 270.412436,10.4072249 270.116211,10.7353516 C269.819985,11.0634782 269.671875,11.5123669 269.671875,12.0820312 L268.010742,12.0820312 C268.010742,11.4759084 268.148599,10.9301782 268.424316,10.4448242 C268.700034,9.95947023 269.094236,9.58235812 269.606934,9.31347656 C270.119631,9.04459501 270.710934,8.91015625 271.380859,8.91015625 C272.34701,8.91015625 273.109209,9.1528296 273.66748,9.63818359 C274.225751,10.1235376 274.504883,10.7945921 274.504883,11.6513672 C274.504883,12.1481145 274.364747,12.6687798 274.084473,13.2133789 C273.804198,13.757978 273.345055,14.3766241 272.707031,15.0693359 L270.273438,17.6738281 L274.894531,17.6738281 L274.894531,19 Z" id="2032"></path>
                        <path d="M175.023438,55 L168.331055,55 L168.331055,53.8583984 L171.646484,50.2421875 C172.125002,49.7089817 172.465657,49.2635109 172.668457,48.9057617 C172.871258,48.5480125 172.972656,48.1891294 172.972656,47.8291016 C172.972656,47.3551409 172.839357,46.9723322 172.572754,46.6806641 C172.306151,46.3889959 171.947268,46.2431641 171.496094,46.2431641 C170.958331,46.2431641 170.541343,46.4072249 170.245117,46.7353516 C169.948892,47.0634782 169.800781,47.5123669 169.800781,48.0820312 L168.139648,48.0820312 C168.139648,47.4759084 168.277505,46.9301782 168.553223,46.4448242 C168.82894,45.9594702 169.223142,45.5823581 169.73584,45.3134766 C170.248538,45.044595 170.83984,44.9101562 171.509766,44.9101562 C172.475916,44.9101562 173.238116,45.1528296 173.796387,45.6381836 C174.354658,46.1235376 174.633789,46.7945921 174.633789,47.6513672 C174.633789,48.1481145 174.493654,48.6687798 174.213379,49.2133789 C173.933104,49.757978 173.473962,50.3766241 172.835938,51.0693359 L170.402344,53.6738281 L175.023438,53.6738281 L175.023438,55 Z M182.775391,50.8095703 C182.775391,52.2405671 182.507652,53.3194951 181.972168,54.0463867 C181.436684,54.7732784 180.622076,55.1367188 179.52832,55.1367188 C178.452794,55.1367188 177.642744,54.7823929 177.098145,54.0737305 C176.553545,53.3650681 176.274414,52.3157622 176.260742,50.9257812 L176.260742,49.203125 C176.260742,47.7721283 176.52848,46.6988968 177.063965,45.9833984 C177.599449,45.2679001 178.416336,44.9101562 179.514648,44.9101562 C180.603847,44.9101562 181.416176,45.2587856 181.95166,45.9560547 C182.487145,46.6533238 182.761719,47.6969332 182.775391,49.0869141 L182.775391,50.8095703 Z M181.114258,48.9501953 C181.114258,48.0159458 180.986655,47.3312196 180.731445,46.8959961 C180.476236,46.4607726 180.070641,46.2431641 179.514648,46.2431641 C178.972328,46.2431641 178.573569,46.4493794 178.318359,46.8618164 C178.06315,47.2742534 177.928711,47.9179644 177.915039,48.7929688 L177.915039,51.0488281 C177.915039,51.9785203 178.044921,52.6712217 178.304688,53.1269531 C178.564454,53.5826846 178.972328,53.8105469 179.52832,53.8105469 C180.061526,53.8105469 180.455728,53.5997742 180.710938,53.1782227 C180.966147,52.7566711 181.100586,52.0970097 181.114258,51.1992188 L181.114258,48.9501953 Z M190.9375,55 L184.245117,55 L184.245117,53.8583984 L187.560547,50.2421875 C188.039065,49.7089817 188.379719,49.2635109 188.58252,48.9057617 C188.78532,48.5480125 188.886719,48.1891294 188.886719,47.8291016 C188.886719,47.3551409 188.753419,46.9723322 188.486816,46.6806641 C188.220214,46.3889959 187.86133,46.2431641 187.410156,46.2431641 C186.872393,46.2431641 186.455405,46.4072249 186.15918,46.7353516 C185.862954,47.0634782 185.714844,47.5123669 185.714844,48.0820312 L184.053711,48.0820312 C184.053711,47.4759084 184.191568,46.9301782 184.467285,46.4448242 C184.743003,45.9594702 185.137204,45.5823581 185.649902,45.3134766 C186.1626,45.044595 186.753903,44.9101562 187.423828,44.9101562 C188.389979,44.9101562 189.152178,45.1528296 189.710449,45.6381836 C190.26872,46.1235376 190.547852,46.7945921 190.547852,47.6513672 C190.547852,48.1481145 190.407716,48.6687798 190.127441,49.2133789 C189.847167,49.757978 189.388024,50.3766241 188.75,51.0693359 L186.316406,53.6738281 L190.9375,53.6738281 L190.9375,55 Z M198.826172,45.9697266 L194.847656,55 L193.104492,55 L197.076172,46.3798828 L191.928711,46.3798828 L191.928711,45.046875 L198.826172,45.046875 L198.826172,45.9697266 Z" id="2027"></path>
                        <path d="M99.0234375,85 L92.3310547,85 L92.3310547,83.8583984 L95.6464844,80.2421875 C96.1250024,79.7089817 96.4656565,79.2635109 96.668457,78.9057617 C96.8712575,78.5480125 96.9726562,78.1891294 96.9726562,77.8291016 C96.9726562,77.3551409 96.8393568,76.9723322 96.5727539,76.6806641 C96.306151,76.3889959 95.9472679,76.2431641 95.4960938,76.2431641 C94.9583306,76.2431641 94.5413426,76.4072249 94.2451172,76.7353516 C93.9488917,77.0634782 93.8007812,77.5123669 93.8007812,78.0820312 L92.1396484,78.0820312 C92.1396484,77.4759084 92.2775051,76.9301782 92.5532227,76.4448242 C92.8289402,75.9594702 93.223142,75.5823581 93.7358398,75.3134766 C94.2485377,75.044595 94.8398404,74.9101562 95.5097656,74.9101562 C96.4759163,74.9101562 97.2381157,75.1528296 97.7963867,75.6381836 C98.3546577,76.1235376 98.6337891,76.7945921 98.6337891,77.6513672 C98.6337891,78.1481145 98.4936537,78.6687798 98.2133789,79.2133789 C97.9331041,79.757978 97.4739615,80.3766241 96.8359375,81.0693359 L94.4023438,83.6738281 L99.0234375,83.6738281 L99.0234375,85 Z M106.775391,80.8095703 C106.775391,82.2405671 106.507652,83.3194951 105.972168,84.0463867 C105.436684,84.7732784 104.622076,85.1367188 103.52832,85.1367188 C102.452794,85.1367188 101.642744,84.7823929 101.098145,84.0737305 C100.553545,83.3650681 100.274414,82.3157622 100.260742,80.9257812 L100.260742,79.203125 C100.260742,77.7721283 100.52848,76.6988968 101.063965,75.9833984 C101.599449,75.2679001 102.416336,74.9101562 103.514648,74.9101562 C104.603847,74.9101562 105.416176,75.2587856 105.95166,75.9560547 C106.487145,76.6533238 106.761719,77.6969332 106.775391,79.0869141 L106.775391,80.8095703 Z M105.114258,78.9501953 C105.114258,78.0159458 104.986655,77.3312196 104.731445,76.8959961 C104.476236,76.4607726 104.070641,76.2431641 103.514648,76.2431641 C102.972328,76.2431641 102.573569,76.4493794 102.318359,76.8618164 C102.06315,77.2742534 101.928711,77.9179644 101.915039,78.7929688 L101.915039,81.0488281 C101.915039,81.9785203 102.044921,82.6712217 102.304688,83.1269531 C102.564454,83.5826846 102.972328,83.8105469 103.52832,83.8105469 C104.061526,83.8105469 104.455728,83.5997742 104.710938,83.1782227 C104.966147,82.7566711 105.100586,82.0970097 105.114258,81.1992188 L105.114258,78.9501953 Z M114.9375,85 L108.245117,85 L108.245117,83.8583984 L111.560547,80.2421875 C112.039065,79.7089817 112.379719,79.2635109 112.58252,78.9057617 C112.78532,78.5480125 112.886719,78.1891294 112.886719,77.8291016 C112.886719,77.3551409 112.753419,76.9723322 112.486816,76.6806641 C112.220214,76.3889959 111.86133,76.2431641 111.410156,76.2431641 C110.872393,76.2431641 110.455405,76.4072249 110.15918,76.7353516 C109.862954,77.0634782 109.714844,77.5123669 109.714844,78.0820312 L108.053711,78.0820312 C108.053711,77.4759084 108.191568,76.9301782 108.467285,76.4448242 C108.743003,75.9594702 109.137204,75.5823581 109.649902,75.3134766 C110.1626,75.044595 110.753903,74.9101562 111.423828,74.9101562 C112.389979,74.9101562 113.152178,75.1528296 113.710449,75.6381836 C114.26872,76.1235376 114.547852,76.7945921 114.547852,77.6513672 C114.547852,78.1481145 114.407716,78.6687798 114.127441,79.2133789 C113.847167,79.757978 113.388024,80.3766241 112.75,81.0693359 L110.316406,83.6738281 L114.9375,83.6738281 L114.9375,85 Z M122.894531,85 L116.202148,85 L116.202148,83.8583984 L119.517578,80.2421875 C119.996096,79.7089817 120.33675,79.2635109 120.539551,78.9057617 C120.742351,78.5480125 120.84375,78.1891294 120.84375,77.8291016 C120.84375,77.3551409 120.710451,76.9723322 120.443848,76.6806641 C120.177245,76.3889959 119.818362,76.2431641 119.367188,76.2431641 C118.829424,76.2431641 118.412436,76.4072249 118.116211,76.7353516 C117.819985,77.0634782 117.671875,77.5123669 117.671875,78.0820312 L116.010742,78.0820312 C116.010742,77.4759084 116.148599,76.9301782 116.424316,76.4448242 C116.700034,75.9594702 117.094236,75.5823581 117.606934,75.3134766 C118.119631,75.044595 118.710934,74.9101562 119.380859,74.9101562 C120.34701,74.9101562 121.109209,75.1528296 121.66748,75.6381836 C122.225751,76.1235376 122.504883,76.7945921 122.504883,77.6513672 C122.504883,78.1481145 122.364747,78.6687798 122.084473,79.2133789 C121.804198,79.757978 121.345055,80.3766241 120.707031,81.0693359 L118.273438,83.6738281 L122.894531,83.6738281 L122.894531,85 Z" id="2022"></path>
                        <path d="M23.0234375,161 L16.3310547,161 L16.3310547,159.858398 L19.6464844,156.242188 C20.1250024,155.708982 20.4656565,155.263511 20.668457,154.905762 C20.8712575,154.548013 20.9726562,154.189129 20.9726562,153.829102 C20.9726562,153.355141 20.8393568,152.972332 20.5727539,152.680664 C20.306151,152.388996 19.9472679,152.243164 19.4960938,152.243164 C18.9583306,152.243164 18.5413426,152.407225 18.2451172,152.735352 C17.9488917,153.063478 17.8007812,153.512367 17.8007812,154.082031 L16.1396484,154.082031 C16.1396484,153.475908 16.2775051,152.930178 16.5532227,152.444824 C16.8289402,151.95947 17.223142,151.582358 17.7358398,151.313477 C18.2485377,151.044595 18.8398404,150.910156 19.5097656,150.910156 C20.4759163,150.910156 21.2381157,151.15283 21.7963867,151.638184 C22.3546577,152.123538 22.6337891,152.794592 22.6337891,153.651367 C22.6337891,154.148114 22.4936537,154.66878 22.2133789,155.213379 C21.9331041,155.757978 21.4739615,156.376624 20.8359375,157.069336 L18.4023438,159.673828 L23.0234375,159.673828 L23.0234375,161 Z M30.7753906,156.80957 C30.7753906,158.240567 30.5076524,159.319495 29.972168,160.046387 C29.4366835,160.773278 28.6220758,161.136719 27.5283203,161.136719 C26.4527941,161.136719 25.6427436,160.782393 25.0981445,160.07373 C24.5535455,159.365068 24.2744141,158.315762 24.2607422,156.925781 L24.2607422,155.203125 C24.2607422,153.772128 24.5284804,152.698897 25.0639648,151.983398 C25.5994493,151.2679 26.4163357,150.910156 27.5146484,150.910156 C28.6038466,150.910156 29.4161757,151.258786 29.9516602,151.956055 C30.4871446,152.653324 30.7617187,153.696933 30.7753906,155.086914 L30.7753906,156.80957 Z M29.1142578,154.950195 C29.1142578,154.015946 28.9866549,153.33122 28.7314453,152.895996 C28.4762357,152.460773 28.0706408,152.243164 27.5146484,152.243164 C26.972328,152.243164 26.573569,152.449379 26.3183594,152.861816 C26.0631498,153.274253 25.928711,153.917964 25.9150391,154.792969 L25.9150391,157.048828 C25.9150391,157.97852 26.0449206,158.671222 26.3046875,159.126953 C26.5644544,159.582685 26.9723279,159.810547 27.5283203,159.810547 C28.0615261,159.810547 28.4557279,159.599774 28.7109375,159.178223 C28.9661471,158.756671 29.1005859,158.09701 29.1142578,157.199219 L29.1142578,154.950195 Z M36.7431641,161 L35.0888672,161 L35.0888672,153.008789 L32.6484375,153.842773 L32.6484375,152.441406 L36.53125,151.012695 L36.7431641,151.012695 L36.7431641,161 Z M46.8261719,151.969727 L42.8476562,161 L41.1044922,161 L45.0761719,152.379883 L39.9287109,152.379883 L39.9287109,151.046875 L46.8261719,151.046875 L46.8261719,151.969727 Z" id="2017"></path>
                    </g>
                    <path d="M341,312 L366,312 L366,287 L341,287 L341,312 Z M359.435218,295.813611 L363.174813,292.182459 L363.174813,306.933831 L359.435218,310.568471 L359.435218,295.813611 Z M353.262824,295.853731 L357.001256,292.222579 L357.001256,306.974533 L353.262824,310.609754 L353.262824,295.853731 Z M347.117751,295.858382 L350.856764,292.226649 L350.856764,306.987324 L347.117751,310.617313 L347.117751,295.858382 Z" id="Page-1" fill="#FFFFFF" opacity="0.419157609"></path>
                    <path d="M174.34375,291.140625 L172.398438,290.507812 L172.585938,289.916016 L174.53125,290.636719 L174.507812,288.46875 L175.117188,288.46875 L175.070312,290.654297 L176.96875,289.910156 L177.162109,290.501953 L175.210938,291.175781 L176.517578,292.898438 L176.019531,293.267578 L174.765625,291.480469 L173.570312,293.255859 L173.072266,292.898438 L174.34375,291.140625 Z M186.015625,293.015625 L182.037109,293.015625 L182.037109,297 L181.316406,297 L181.316406,288.46875 L186.601562,288.46875 L186.601562,289.083984 L182.037109,289.083984 L182.037109,292.400391 L186.015625,292.400391 L186.015625,293.015625 Z M187.392578,293.736328 C187.392578,293.12695 187.510741,292.578127 187.74707,292.089844 C187.9834,291.60156 188.317381,291.221681 188.749023,290.950195 C189.180666,290.67871 189.669919,290.542969 190.216797,290.542969 C191.060551,290.542969 191.744138,290.838864 192.267578,291.430664 C192.791018,292.022464 193.052734,292.806636 193.052734,293.783203 L193.052734,293.929688 C193.052734,294.542972 192.934571,295.094724 192.698242,295.584961 C192.461913,296.075198 192.128908,296.453124 191.699219,296.71875 C191.269529,296.984376 190.7793,297.117188 190.228516,297.117188 C189.388668,297.117188 188.706057,296.821292 188.180664,296.229492 C187.655271,295.637692 187.392578,294.853521 187.392578,293.876953 L187.392578,293.736328 Z M188.095703,293.929688 C188.095703,294.687504 188.29199,295.309568 188.68457,295.795898 C189.07715,296.282229 189.591794,296.525391 190.228516,296.525391 C190.861331,296.525391 191.374021,296.282229 191.766602,295.795898 C192.159182,295.309568 192.355469,294.667973 192.355469,293.871094 L192.355469,293.736328 C192.355469,293.251951 192.265626,292.808596 192.085938,292.40625 C191.906249,292.003904 191.654298,291.692384 191.330078,291.47168 C191.005858,291.250975 190.634768,291.140625 190.216797,291.140625 C189.591794,291.140625 189.082033,291.38574 188.6875,291.875977 C188.292967,292.366213 188.095703,293.007809 188.095703,293.800781 L188.095703,293.929688 Z M197.429688,291.257812 C197.281249,291.230469 197.123048,291.216797 196.955078,291.216797 C196.517576,291.216797 196.147462,291.338866 195.844727,291.583008 C195.541991,291.82715 195.326173,292.181638 195.197266,292.646484 L195.197266,297 L194.5,297 L194.5,290.660156 L195.185547,290.660156 L195.197266,291.667969 C195.568361,290.917965 196.164058,290.542969 196.984375,290.542969 C197.179688,290.542969 197.333984,290.568359 197.447266,290.619141 L197.429688,291.257812 Z M202.240234,297 L201.537109,297 L201.537109,290.660156 L202.240234,290.660156 L202.240234,297 Z M201.414062,288.826172 C201.414062,288.693359 201.457031,288.581055 201.542969,288.489258 C201.628907,288.39746 201.746093,288.351562 201.894531,288.351562 C202.042969,288.351562 202.161132,288.39746 202.249023,288.489258 C202.336915,288.581055 202.380859,288.693359 202.380859,288.826172 C202.380859,288.958985 202.336915,289.070312 202.249023,289.160156 C202.161132,289.25 202.042969,289.294922 201.894531,289.294922 C201.746093,289.294922 201.628907,289.25 201.542969,289.160156 C201.457031,289.070312 201.414062,288.958985 201.414062,288.826172 Z M204.929688,297 L204.226562,297 L204.226562,288 L204.929688,288 L204.929688,297 Z M207.619141,297 L206.916016,297 L206.916016,288 L207.619141,288 L207.619141,297 Z M213.601562,296.197266 C213.179685,296.81055 212.505864,297.117188 211.580078,297.117188 C210.904293,297.117188 210.390627,296.9209 210.039062,296.52832 C209.687498,296.13574 209.507813,295.554691 209.5,294.785156 L209.5,290.660156 L210.197266,290.660156 L210.197266,294.697266 C210.197266,295.904303 210.685542,296.507812 211.662109,296.507812 C212.677739,296.507812 213.320311,296.087895 213.589844,295.248047 L213.589844,290.660156 L214.292969,290.660156 L214.292969,297 L213.613281,297 L213.601562,296.197266 Z M219.912109,295.388672 C219.912109,295.041014 219.772462,294.76172 219.493164,294.550781 C219.213866,294.339843 218.792972,294.174805 218.230469,294.055664 C217.667966,293.936523 217.231447,293.799805 216.920898,293.645508 C216.61035,293.49121 216.379884,293.302735 216.229492,293.080078 C216.079101,292.857421 216.003906,292.587892 216.003906,292.271484 C216.003906,291.771482 216.212889,291.3584 216.630859,291.032227 C217.04883,290.706053 217.583981,290.542969 218.236328,290.542969 C218.943363,290.542969 219.51074,290.717772 219.938477,291.067383 C220.366213,291.416994 220.580078,291.873044 220.580078,292.435547 L219.876953,292.435547 C219.876953,292.064451 219.721681,291.755861 219.411133,291.509766 C219.100584,291.263671 218.708987,291.140625 218.236328,291.140625 C217.775388,291.140625 217.405275,291.243163 217.125977,291.448242 C216.846678,291.653321 216.707031,291.91992 216.707031,292.248047 C216.707031,292.564455 216.823241,292.809569 217.055664,292.983398 C217.288087,293.157227 217.711911,293.316406 218.327148,293.460938 C218.942386,293.605469 219.403319,293.759765 219.709961,293.923828 C220.016603,294.087891 220.24414,294.285155 220.392578,294.515625 C220.541016,294.746095 220.615234,295.025389 220.615234,295.353516 C220.615234,295.888675 220.399416,296.316405 219.967773,296.636719 C219.536131,296.957033 218.97266,297.117188 218.277344,297.117188 C217.539059,297.117188 216.940432,296.938478 216.481445,296.581055 C216.022459,296.223631 215.792969,295.771487 215.792969,295.224609 L216.496094,295.224609 C216.523438,295.634768 216.696287,295.9541 217.014648,296.182617 C217.333009,296.411134 217.753904,296.525391 218.277344,296.525391 C218.765627,296.525391 219.160155,296.41797 219.460938,296.203125 C219.76172,295.98828 219.912109,295.716799 219.912109,295.388672 Z M223.28125,289.037109 L223.28125,290.660156 L224.59375,290.660156 L224.59375,291.234375 L223.28125,291.234375 L223.28125,295.458984 C223.28125,295.810549 223.344726,296.072265 223.47168,296.244141 C223.598633,296.416016 223.810545,296.501953 224.107422,296.501953 C224.22461,296.501953 224.414061,296.482422 224.675781,296.443359 L224.705078,297.017578 C224.521483,297.083985 224.271486,297.117188 223.955078,297.117188 C223.474607,297.117188 223.125001,296.97754 222.90625,296.698242 C222.687499,296.418944 222.578125,296.007815 222.578125,295.464844 L222.578125,291.234375 L221.412109,291.234375 L221.412109,290.660156 L222.578125,290.660156 L222.578125,289.037109 L223.28125,289.037109 Z M228.976562,291.257812 C228.828124,291.230469 228.669923,291.216797 228.501953,291.216797 C228.064451,291.216797 227.694337,291.338866 227.391602,291.583008 C227.088866,291.82715 226.873048,292.181638 226.744141,292.646484 L226.744141,297 L226.046875,297 L226.046875,290.660156 L226.732422,290.660156 L226.744141,291.667969 C227.115236,290.917965 227.710933,290.542969 228.53125,290.542969 C228.726563,290.542969 228.880859,290.568359 228.994141,290.619141 L228.976562,291.257812 Z M233.851562,297 C233.78125,296.80078 233.736328,296.505861 233.716797,296.115234 C233.470702,296.435548 233.157228,296.682616 232.776367,296.856445 C232.395506,297.030274 231.99219,297.117188 231.566406,297.117188 C230.957028,297.117188 230.463869,296.947267 230.086914,296.607422 C229.709959,296.267576 229.521484,295.837893 229.521484,295.318359 C229.521484,294.701169 229.778318,294.212892 230.291992,293.853516 C230.805667,293.494139 231.52148,293.314453 232.439453,293.314453 L233.710938,293.314453 L233.710938,292.59375 C233.710938,292.140623 233.57129,291.784181 233.291992,291.524414 C233.012694,291.264647 232.605471,291.134766 232.070312,291.134766 C231.582029,291.134766 231.177736,291.259764 230.857422,291.509766 C230.537108,291.759767 230.376953,292.060545 230.376953,292.412109 L229.673828,292.40625 C229.673828,291.902341 229.908201,291.465822 230.376953,291.09668 C230.845705,290.727537 231.421872,290.542969 232.105469,290.542969 C232.812504,290.542969 233.370115,290.719725 233.77832,291.073242 C234.186525,291.42676 234.396484,291.919919 234.408203,292.552734 L234.408203,295.552734 C234.408203,296.166019 234.472656,296.624998 234.601562,296.929688 L234.601562,297 L233.851562,297 Z M231.648438,296.496094 C232.11719,296.496094 232.536131,296.382814 232.905273,296.15625 C233.274416,295.929686 233.542968,295.626955 233.710938,295.248047 L233.710938,293.853516 L232.457031,293.853516 C231.757809,293.861328 231.210939,293.989257 230.816406,294.237305 C230.421873,294.485353 230.224609,294.82617 230.224609,295.259766 C230.224609,295.615236 230.356444,295.910155 230.620117,296.144531 C230.88379,296.378907 231.22656,296.496094 231.648438,296.496094 Z M237.367188,289.037109 L237.367188,290.660156 L238.679688,290.660156 L238.679688,291.234375 L237.367188,291.234375 L237.367188,295.458984 C237.367188,295.810549 237.430663,296.072265 237.557617,296.244141 C237.684571,296.416016 237.896483,296.501953 238.193359,296.501953 C238.310547,296.501953 238.499999,296.482422 238.761719,296.443359 L238.791016,297.017578 C238.607421,297.083985 238.357423,297.117188 238.041016,297.117188 C237.560544,297.117188 237.210939,296.97754 236.992188,296.698242 C236.773436,296.418944 236.664062,296.007815 236.664062,295.464844 L236.664062,291.234375 L235.498047,291.234375 L235.498047,290.660156 L236.664062,290.660156 L236.664062,289.037109 L237.367188,289.037109 Z M240.917969,297 L240.214844,297 L240.214844,290.660156 L240.917969,290.660156 L240.917969,297 Z M240.091797,288.826172 C240.091797,288.693359 240.134765,288.581055 240.220703,288.489258 C240.306641,288.39746 240.423827,288.351562 240.572266,288.351562 C240.720704,288.351562 240.838867,288.39746 240.926758,288.489258 C241.014649,288.581055 241.058594,288.693359 241.058594,288.826172 C241.058594,288.958985 241.014649,289.070312 240.926758,289.160156 C240.838867,289.25 240.720704,289.294922 240.572266,289.294922 C240.423827,289.294922 240.306641,289.25 240.220703,289.160156 C240.134765,289.070312 240.091797,288.958985 240.091797,288.826172 Z M242.435547,293.736328 C242.435547,293.12695 242.55371,292.578127 242.790039,292.089844 C243.026368,291.60156 243.360349,291.221681 243.791992,290.950195 C244.223635,290.67871 244.712888,290.542969 245.259766,290.542969 C246.10352,290.542969 246.787107,290.838864 247.310547,291.430664 C247.833987,292.022464 248.095703,292.806636 248.095703,293.783203 L248.095703,293.929688 C248.095703,294.542972 247.97754,295.094724 247.741211,295.584961 C247.504882,296.075198 247.171877,296.453124 246.742188,296.71875 C246.312498,296.984376 245.822268,297.117188 245.271484,297.117188 C244.431636,297.117188 243.749026,296.821292 243.223633,296.229492 C242.69824,295.637692 242.435547,294.853521 242.435547,293.876953 L242.435547,293.736328 Z M243.138672,293.929688 C243.138672,294.687504 243.334959,295.309568 243.727539,295.795898 C244.120119,296.282229 244.634762,296.525391 245.271484,296.525391 C245.9043,296.525391 246.41699,296.282229 246.80957,295.795898 C247.20215,295.309568 247.398438,294.667973 247.398438,293.871094 L247.398438,293.736328 C247.398438,293.251951 247.308595,292.808596 247.128906,292.40625 C246.949218,292.003904 246.697267,291.692384 246.373047,291.47168 C246.048827,291.250975 245.677736,291.140625 245.259766,291.140625 C244.634762,291.140625 244.125002,291.38574 243.730469,291.875977 C243.335936,292.366213 243.138672,293.007809 243.138672,293.800781 L243.138672,293.929688 Z M250.210938,290.660156 L250.234375,291.744141 C250.472657,291.353514 250.769529,291.055665 251.125,290.850586 C251.480471,290.645507 251.873045,290.542969 252.302734,290.542969 C252.982425,290.542969 253.48828,290.734373 253.820312,291.117188 C254.152345,291.500002 254.320312,292.074215 254.324219,292.839844 L254.324219,297 L253.626953,297 L253.626953,292.833984 C253.623047,292.267575 253.502931,291.845705 253.266602,291.568359 C253.030272,291.291014 252.652346,291.152344 252.132812,291.152344 C251.699217,291.152344 251.315431,291.288085 250.981445,291.55957 C250.647459,291.831056 250.400391,292.197263 250.240234,292.658203 L250.240234,297 L249.542969,297 L249.542969,290.660156 L250.210938,290.660156 Z M264.150391,293.894531 C264.150391,294.882817 263.931643,295.666989 263.494141,296.24707 C263.056638,296.827151 262.470707,297.117188 261.736328,297.117188 C260.869136,297.117188 260.20508,296.812503 259.744141,296.203125 L259.744141,299.4375 L259.046875,299.4375 L259.046875,290.660156 L259.697266,290.660156 L259.732422,291.556641 C260.189455,290.880856 260.851558,290.542969 261.71875,290.542969 C262.476566,290.542969 263.071287,290.830075 263.50293,291.404297 C263.934572,291.978518 264.150391,292.775386 264.150391,293.794922 L264.150391,293.894531 Z M263.447266,293.771484 C263.447266,292.962887 263.281252,292.324221 262.949219,291.855469 C262.617186,291.386716 262.1543,291.152344 261.560547,291.152344 C261.130857,291.152344 260.76172,291.255858 260.453125,291.462891 C260.14453,291.669923 259.908204,291.970701 259.744141,292.365234 L259.744141,295.40625 C259.91211,295.769533 260.152342,296.046874 260.464844,296.238281 C260.777345,296.429688 261.146482,296.525391 261.572266,296.525391 C262.162112,296.525391 262.622069,296.290041 262.952148,295.819336 C263.282228,295.34863 263.447266,294.66602 263.447266,293.771484 Z M269.78125,296.197266 C269.359373,296.81055 268.685552,297.117188 267.759766,297.117188 C267.083981,297.117188 266.570314,296.9209 266.21875,296.52832 C265.867186,296.13574 265.6875,295.554691 265.679688,294.785156 L265.679688,290.660156 L266.376953,290.660156 L266.376953,294.697266 C266.376953,295.904303 266.865229,296.507812 267.841797,296.507812 C268.857427,296.507812 269.499999,296.087895 269.769531,295.248047 L269.769531,290.660156 L270.472656,290.660156 L270.472656,297 L269.792969,297 L269.78125,296.197266 Z M275.224609,291.257812 C275.076171,291.230469 274.91797,291.216797 274.75,291.216797 C274.312498,291.216797 273.942384,291.338866 273.639648,291.583008 C273.336913,291.82715 273.121094,292.181638 272.992188,292.646484 L272.992188,297 L272.294922,297 L272.294922,290.660156 L272.980469,290.660156 L272.992188,291.667969 C273.363283,290.917965 273.95898,290.542969 274.779297,290.542969 C274.97461,290.542969 275.128906,290.568359 275.242188,290.619141 L275.224609,291.257812 Z M281.429688,293.894531 C281.429688,294.882817 281.21094,295.666989 280.773438,296.24707 C280.335935,296.827151 279.750004,297.117188 279.015625,297.117188 C278.148433,297.117188 277.484377,296.812503 277.023438,296.203125 L277.023438,299.4375 L276.326172,299.4375 L276.326172,290.660156 L276.976562,290.660156 L277.011719,291.556641 C277.468752,290.880856 278.130855,290.542969 278.998047,290.542969 C279.755863,290.542969 280.350584,290.830075 280.782227,291.404297 C281.213869,291.978518 281.429688,292.775386 281.429688,293.794922 L281.429688,293.894531 Z M280.726562,293.771484 C280.726562,292.962887 280.560549,292.324221 280.228516,291.855469 C279.896483,291.386716 279.433597,291.152344 278.839844,291.152344 C278.410154,291.152344 278.041017,291.255858 277.732422,291.462891 C277.423827,291.669923 277.187501,291.970701 277.023438,292.365234 L277.023438,295.40625 C277.191407,295.769533 277.431639,296.046874 277.744141,296.238281 C278.056642,296.429688 278.425779,296.525391 278.851562,296.525391 C279.441409,296.525391 279.901366,296.290041 280.231445,295.819336 C280.561525,295.34863 280.726562,294.66602 280.726562,293.771484 Z M282.595703,293.736328 C282.595703,293.12695 282.713866,292.578127 282.950195,292.089844 C283.186525,291.60156 283.520506,291.221681 283.952148,290.950195 C284.383791,290.67871 284.873044,290.542969 285.419922,290.542969 C286.263676,290.542969 286.947263,290.838864 287.470703,291.430664 C287.994143,292.022464 288.255859,292.806636 288.255859,293.783203 L288.255859,293.929688 C288.255859,294.542972 288.137696,295.094724 287.901367,295.584961 C287.665038,296.075198 287.332033,296.453124 286.902344,296.71875 C286.472654,296.984376 285.982425,297.117188 285.431641,297.117188 C284.591793,297.117188 283.909182,296.821292 283.383789,296.229492 C282.858396,295.637692 282.595703,294.853521 282.595703,293.876953 L282.595703,293.736328 Z M283.298828,293.929688 C283.298828,294.687504 283.495115,295.309568 283.887695,295.795898 C284.280275,296.282229 284.794919,296.525391 285.431641,296.525391 C286.064456,296.525391 286.577146,296.282229 286.969727,295.795898 C287.362307,295.309568 287.558594,294.667973 287.558594,293.871094 L287.558594,293.736328 C287.558594,293.251951 287.468751,292.808596 287.289062,292.40625 C287.109374,292.003904 286.857423,291.692384 286.533203,291.47168 C286.208983,291.250975 285.837893,291.140625 285.419922,291.140625 C284.794919,291.140625 284.285158,291.38574 283.890625,291.875977 C283.496092,292.366213 283.298828,293.007809 283.298828,293.800781 L283.298828,293.929688 Z M293.5,295.388672 C293.5,295.041014 293.360353,294.76172 293.081055,294.550781 C292.801756,294.339843 292.380862,294.174805 291.818359,294.055664 C291.255857,293.936523 290.819337,293.799805 290.508789,293.645508 C290.198241,293.49121 289.967774,293.302735 289.817383,293.080078 C289.666991,292.857421 289.591797,292.587892 289.591797,292.271484 C289.591797,291.771482 289.800779,291.3584 290.21875,291.032227 C290.636721,290.706053 291.171872,290.542969 291.824219,290.542969 C292.531254,290.542969 293.098631,290.717772 293.526367,291.067383 C293.954104,291.416994 294.167969,291.873044 294.167969,292.435547 L293.464844,292.435547 C293.464844,292.064451 293.309572,291.755861 292.999023,291.509766 C292.688475,291.263671 292.296877,291.140625 291.824219,291.140625 C291.363279,291.140625 290.993165,291.243163 290.713867,291.448242 C290.434569,291.653321 290.294922,291.91992 290.294922,292.248047 C290.294922,292.564455 290.411132,292.809569 290.643555,292.983398 C290.875978,293.157227 291.299802,293.316406 291.915039,293.460938 C292.530277,293.605469 292.991209,293.759765 293.297852,293.923828 C293.604494,294.087891 293.832031,294.285155 293.980469,294.515625 C294.128907,294.746095 294.203125,295.025389 294.203125,295.353516 C294.203125,295.888675 293.987307,296.316405 293.555664,296.636719 C293.124021,296.957033 292.56055,297.117188 291.865234,297.117188 C291.126949,297.117188 290.528323,296.938478 290.069336,296.581055 C289.610349,296.223631 289.380859,295.771487 289.380859,295.224609 L290.083984,295.224609 C290.111328,295.634768 290.284178,295.9541 290.602539,296.182617 C290.9209,296.411134 291.341794,296.525391 291.865234,296.525391 C292.353518,296.525391 292.748045,296.41797 293.048828,296.203125 C293.349611,295.98828 293.5,295.716799 293.5,295.388672 Z M298.234375,297.117188 C297.69531,297.117188 297.20801,296.984376 296.772461,296.71875 C296.336912,296.453124 295.998048,296.08301 295.755859,295.608398 C295.513671,295.133787 295.392578,294.601565 295.392578,294.011719 L295.392578,293.759766 C295.392578,293.150388 295.510741,292.601565 295.74707,292.113281 C295.9834,291.624998 296.312498,291.241212 296.734375,290.961914 C297.156252,290.682616 297.613279,290.542969 298.105469,290.542969 C298.875004,290.542969 299.485349,290.805661 299.936523,291.331055 C300.387698,291.856448 300.613281,292.574214 300.613281,293.484375 L300.613281,293.876953 L296.089844,293.876953 L296.089844,294.011719 C296.089844,294.730472 296.295896,295.329099 296.708008,295.807617 C297.120119,296.286135 297.638669,296.525391 298.263672,296.525391 C298.638674,296.525391 298.969725,296.457032 299.256836,296.320312 C299.543947,296.183593 299.804686,295.964845 300.039062,295.664062 L300.478516,295.998047 C299.962888,296.744144 299.214849,297.117188 298.234375,297.117188 Z M298.105469,291.140625 C297.578122,291.140625 297.133791,291.333982 296.772461,291.720703 C296.411131,292.107424 296.191407,292.62695 296.113281,293.279297 L299.916016,293.279297 L299.916016,293.203125 C299.896484,292.593747 299.722658,292.097658 299.394531,291.714844 C299.066405,291.332029 298.636721,291.140625 298.105469,291.140625 Z M305.775391,295.388672 C305.775391,295.041014 305.635744,294.76172 305.356445,294.550781 C305.077147,294.339843 304.656253,294.174805 304.09375,294.055664 C303.531247,293.936523 303.094728,293.799805 302.78418,293.645508 C302.473631,293.49121 302.243165,293.302735 302.092773,293.080078 C301.942382,292.857421 301.867188,292.587892 301.867188,292.271484 C301.867188,291.771482 302.07617,291.3584 302.494141,291.032227 C302.912111,290.706053 303.447262,290.542969 304.099609,290.542969 C304.806644,290.542969 305.374021,290.717772 305.801758,291.067383 C306.229494,291.416994 306.443359,291.873044 306.443359,292.435547 L305.740234,292.435547 C305.740234,292.064451 305.584962,291.755861 305.274414,291.509766 C304.963866,291.263671 304.572268,291.140625 304.099609,291.140625 C303.63867,291.140625 303.268556,291.243163 302.989258,291.448242 C302.70996,291.653321 302.570312,291.91992 302.570312,292.248047 C302.570312,292.564455 302.686522,292.809569 302.918945,292.983398 C303.151368,293.157227 303.575192,293.316406 304.19043,293.460938 C304.805667,293.605469 305.2666,293.759765 305.573242,293.923828 C305.879884,294.087891 306.107421,294.285155 306.255859,294.515625 C306.404298,294.746095 306.478516,295.025389 306.478516,295.353516 C306.478516,295.888675 306.262697,296.316405 305.831055,296.636719 C305.399412,296.957033 304.835941,297.117188 304.140625,297.117188 C303.40234,297.117188 302.803713,296.938478 302.344727,296.581055 C301.88574,296.223631 301.65625,295.771487 301.65625,295.224609 L302.359375,295.224609 C302.386719,295.634768 302.559569,295.9541 302.87793,296.182617 C303.196291,296.411134 303.617185,296.525391 304.140625,296.525391 C304.628909,296.525391 305.023436,296.41797 305.324219,296.203125 C305.625002,295.98828 305.775391,295.716799 305.775391,295.388672 Z M310.585938,293.736328 C310.585938,293.12695 310.7041,292.578127 310.94043,292.089844 C311.176759,291.60156 311.51074,291.221681 311.942383,290.950195 C312.374026,290.67871 312.863279,290.542969 313.410156,290.542969 C314.25391,290.542969 314.937497,290.838864 315.460938,291.430664 C315.984378,292.022464 316.246094,292.806636 316.246094,293.783203 L316.246094,293.929688 C316.246094,294.542972 316.127931,295.094724 315.891602,295.584961 C315.655272,296.075198 315.322268,296.453124 314.892578,296.71875 C314.462888,296.984376 313.972659,297.117188 313.421875,297.117188 C312.582027,297.117188 311.899417,296.821292 311.374023,296.229492 C310.84863,295.637692 310.585938,294.853521 310.585938,293.876953 L310.585938,293.736328 Z M311.289062,293.929688 C311.289062,294.687504 311.48535,295.309568 311.87793,295.795898 C312.27051,296.282229 312.785153,296.525391 313.421875,296.525391 C314.054691,296.525391 314.567381,296.282229 314.959961,295.795898 C315.352541,295.309568 315.548828,294.667973 315.548828,293.871094 L315.548828,293.736328 C315.548828,293.251951 315.458985,292.808596 315.279297,292.40625 C315.099608,292.003904 314.847658,291.692384 314.523438,291.47168 C314.199217,291.250975 313.828127,291.140625 313.410156,291.140625 C312.785153,291.140625 312.275393,291.38574 311.880859,291.875977 C311.486326,292.366213 311.289062,293.007809 311.289062,293.800781 L311.289062,293.929688 Z M318.361328,290.660156 L318.384766,291.744141 C318.623048,291.353514 318.91992,291.055665 319.275391,290.850586 C319.630861,290.645507 320.023435,290.542969 320.453125,290.542969 C321.132816,290.542969 321.63867,290.734373 321.970703,291.117188 C322.302736,291.500002 322.470703,292.074215 322.474609,292.839844 L322.474609,297 L321.777344,297 L321.777344,292.833984 C321.773437,292.267575 321.653321,291.845705 321.416992,291.568359 C321.180663,291.291014 320.802737,291.152344 320.283203,291.152344 C319.849607,291.152344 319.465822,291.288085 319.131836,291.55957 C318.79785,291.831056 318.550782,292.197263 318.390625,292.658203 L318.390625,297 L317.693359,297 L317.693359,290.660156 L318.361328,290.660156 Z M325.070312,297 L324.367188,297 L324.367188,288 L325.070312,288 L325.070312,297 Z M328.984375,295.992188 L330.835938,290.660156 L331.591797,290.660156 L328.884766,298.078125 L328.744141,298.40625 C328.396483,299.175785 327.859379,299.560547 327.132812,299.560547 C326.964843,299.560547 326.785157,299.533203 326.59375,299.478516 L326.587891,298.898438 L326.951172,298.933594 C327.294924,298.933594 327.573241,298.848634 327.786133,298.678711 C327.999025,298.508788 328.179687,298.216799 328.328125,297.802734 L328.638672,296.947266 L326.248047,290.660156 L327.015625,290.660156 L328.984375,295.992188 Z M331.984375,296.578125 C331.984375,296.441406 332.02832,296.325196 332.116211,296.229492 C332.204102,296.133789 332.326171,296.085938 332.482422,296.085938 C332.638673,296.085938 332.761718,296.133789 332.851562,296.229492 C332.941407,296.325196 332.986328,296.441406 332.986328,296.578125 C332.986328,296.714844 332.941407,296.827148 332.851562,296.915039 C332.761718,297.00293 332.638673,297.046875 332.482422,297.046875 C332.326171,297.046875 332.204102,297.00293 332.116211,296.915039 C332.02832,296.827148 331.984375,296.714844 331.984375,296.578125 Z M97.2402344,303.083984 L94.3164062,303.083984 L94.3164062,311 L93.5957031,311 L93.5957031,303.083984 L90.6777344,303.083984 L90.6777344,302.46875 L97.2402344,302.46875 L97.2402344,303.083984 Z M100.943359,305.257812 C100.794921,305.230469 100.63672,305.216797 100.46875,305.216797 C100.031248,305.216797 99.6611343,305.338866 99.3583984,305.583008 C99.0556625,305.82715 98.8398444,306.181638 98.7109375,306.646484 L98.7109375,311 L98.0136719,311 L98.0136719,304.660156 L98.6992188,304.660156 L98.7109375,305.667969 C99.0820331,304.917965 99.6777303,304.542969 100.498047,304.542969 C100.69336,304.542969 100.847656,304.568359 100.960938,304.619141 L100.943359,305.257812 Z M104.394531,311.117188 C103.855466,311.117188 103.368166,310.984376 102.932617,310.71875 C102.497068,310.453124 102.158204,310.08301 101.916016,309.608398 C101.673827,309.133787 101.552734,308.601565 101.552734,308.011719 L101.552734,307.759766 C101.552734,307.150388 101.670897,306.601565 101.907227,306.113281 C102.143556,305.624998 102.472654,305.241212 102.894531,304.961914 C103.316408,304.682616 103.773435,304.542969 104.265625,304.542969 C105.03516,304.542969 105.645506,304.805661 106.09668,305.331055 C106.547854,305.856448 106.773438,306.574214 106.773438,307.484375 L106.773438,307.876953 L102.25,307.876953 L102.25,308.011719 C102.25,308.730472 102.456053,309.329099 102.868164,309.807617 C103.280275,310.286135 103.798825,310.525391 104.423828,310.525391 C104.79883,310.525391 105.129881,310.457032 105.416992,310.320312 C105.704103,310.183593 105.964843,309.964845 106.199219,309.664062 L106.638672,309.998047 C106.123044,310.744144 105.375005,311.117188 104.394531,311.117188 Z M104.265625,305.140625 C103.738279,305.140625 103.293947,305.333982 102.932617,305.720703 C102.571287,306.107424 102.351563,306.62695 102.273438,307.279297 L106.076172,307.279297 L106.076172,307.203125 C106.056641,306.593747 105.882814,306.097658 105.554688,305.714844 C105.226561,305.332029 104.796878,305.140625 104.265625,305.140625 Z M108.806641,304.660156 L108.830078,305.744141 C109.068361,305.353514 109.365233,305.055665 109.720703,304.850586 C110.076174,304.645507 110.468748,304.542969 110.898438,304.542969 C111.578128,304.542969 112.083983,304.734373 112.416016,305.117188 C112.748049,305.500002 112.916016,306.074215 112.919922,306.839844 L112.919922,311 L112.222656,311 L112.222656,306.833984 C112.21875,306.267575 112.098634,305.845705 111.862305,305.568359 C111.625975,305.291014 111.248049,305.152344 110.728516,305.152344 C110.29492,305.152344 109.911134,305.288085 109.577148,305.55957 C109.243162,305.831056 108.996095,306.197263 108.835938,306.658203 L108.835938,311 L108.138672,311 L108.138672,304.660156 L108.806641,304.660156 Z M114.449219,307.771484 C114.449219,306.787104 114.668943,306.002933 115.108398,305.418945 C115.547854,304.834958 116.144527,304.542969 116.898438,304.542969 C117.753911,304.542969 118.406248,304.880856 118.855469,305.556641 L118.855469,302 L119.552734,302 L119.552734,311 L118.896484,311 L118.867188,310.15625 C118.417967,310.796878 117.757817,311.117188 116.886719,311.117188 C116.156246,311.117188 115.567385,310.823245 115.120117,310.235352 C114.672849,309.647458 114.449219,308.853521 114.449219,307.853516 L114.449219,307.771484 Z M115.158203,307.894531 C115.158203,308.703129 115.320311,309.340818 115.644531,309.807617 C115.968752,310.274416 116.425778,310.507812 117.015625,310.507812 C117.878911,310.507812 118.492186,310.126957 118.855469,309.365234 L118.855469,306.388672 C118.492186,305.564449 117.882817,305.152344 117.027344,305.152344 C116.437497,305.152344 115.978517,305.383787 115.650391,305.84668 C115.322264,306.309573 115.158203,306.992183 115.158203,307.894531 Z M125.833984,309.541016 L125.939453,310.085938 L126.080078,309.511719 L127.603516,304.660156 L128.201172,304.660156 L129.707031,309.470703 L129.871094,310.138672 L130.005859,309.523438 L131.306641,304.660156 L132.033203,304.660156 L130.1875,311 L129.589844,311 L127.960938,305.972656 L127.884766,305.626953 L127.808594,305.978516 L126.208984,311 L125.611328,311 L123.771484,304.660156 L124.492188,304.660156 L125.833984,309.541016 Z M134.148438,311 L133.445312,311 L133.445312,304.660156 L134.148438,304.660156 L134.148438,311 Z M133.322266,302.826172 C133.322266,302.693359 133.365234,302.581055 133.451172,302.489258 C133.53711,302.39746 133.654296,302.351562 133.802734,302.351562 C133.951173,302.351562 134.069335,302.39746 134.157227,302.489258 C134.245118,302.581055 134.289062,302.693359 134.289062,302.826172 C134.289062,302.958985 134.245118,303.070312 134.157227,303.160156 C134.069335,303.25 133.951173,303.294922 133.802734,303.294922 C133.654296,303.294922 133.53711,303.25 133.451172,303.160156 C133.365234,303.070312 133.322266,302.958985 133.322266,302.826172 Z M136.837891,311 L136.134766,311 L136.134766,302 L136.837891,302 L136.837891,311 Z M139.527344,311 L138.824219,311 L138.824219,302 L139.527344,302 L139.527344,311 Z M144.068359,307.771484 C144.068359,306.787104 144.288084,306.002933 144.727539,305.418945 C145.166994,304.834958 145.763668,304.542969 146.517578,304.542969 C147.373051,304.542969 148.025388,304.880856 148.474609,305.556641 L148.474609,302 L149.171875,302 L149.171875,311 L148.515625,311 L148.486328,310.15625 C148.037107,310.796878 147.376957,311.117188 146.505859,311.117188 C145.775387,311.117188 145.186526,310.823245 144.739258,310.235352 C144.29199,309.647458 144.068359,308.853521 144.068359,307.853516 L144.068359,307.771484 Z M144.777344,307.894531 C144.777344,308.703129 144.939452,309.340818 145.263672,309.807617 C145.587892,310.274416 146.044919,310.507812 146.634766,310.507812 C147.498051,310.507812 148.111326,310.126957 148.474609,309.365234 L148.474609,306.388672 C148.111326,305.564449 147.501957,305.152344 146.646484,305.152344 C146.056638,305.152344 145.597658,305.383787 145.269531,305.84668 C144.941405,306.309573 144.777344,306.992183 144.777344,307.894531 Z M153.472656,311.117188 C152.933591,311.117188 152.446291,310.984376 152.010742,310.71875 C151.575193,310.453124 151.236329,310.08301 150.994141,309.608398 C150.751952,309.133787 150.630859,308.601565 150.630859,308.011719 L150.630859,307.759766 C150.630859,307.150388 150.749022,306.601565 150.985352,306.113281 C151.221681,305.624998 151.550779,305.241212 151.972656,304.961914 C152.394533,304.682616 152.85156,304.542969 153.34375,304.542969 C154.113285,304.542969 154.723631,304.805661 155.174805,305.331055 C155.625979,305.856448 155.851562,306.574214 155.851562,307.484375 L155.851562,307.876953 L151.328125,307.876953 L151.328125,308.011719 C151.328125,308.730472 151.534178,309.329099 151.946289,309.807617 C152.3584,310.286135 152.87695,310.525391 153.501953,310.525391 C153.876955,310.525391 154.208006,310.457032 154.495117,310.320312 C154.782228,310.183593 155.042968,309.964845 155.277344,309.664062 L155.716797,309.998047 C155.201169,310.744144 154.45313,311.117188 153.472656,311.117188 Z M153.34375,305.140625 C152.816404,305.140625 152.372072,305.333982 152.010742,305.720703 C151.649412,306.107424 151.429688,306.62695 151.351562,307.279297 L155.154297,307.279297 L155.154297,307.203125 C155.134766,306.593747 154.960939,306.097658 154.632812,305.714844 C154.304686,305.332029 153.875003,305.140625 153.34375,305.140625 Z M162.314453,307.894531 C162.314453,308.882817 162.095705,309.666989 161.658203,310.24707 C161.220701,310.827151 160.634769,311.117188 159.900391,311.117188 C159.033199,311.117188 158.369143,310.812503 157.908203,310.203125 L157.908203,313.4375 L157.210938,313.4375 L157.210938,304.660156 L157.861328,304.660156 L157.896484,305.556641 C158.353518,304.880856 159.015621,304.542969 159.882812,304.542969 C160.640629,304.542969 161.235349,304.830075 161.666992,305.404297 C162.098635,305.978518 162.314453,306.775386 162.314453,307.794922 L162.314453,307.894531 Z M161.611328,307.771484 C161.611328,306.962887 161.445314,306.324221 161.113281,305.855469 C160.781248,305.386716 160.318362,305.152344 159.724609,305.152344 C159.29492,305.152344 158.925783,305.255858 158.617188,305.462891 C158.308592,305.669923 158.072266,305.970701 157.908203,306.365234 L157.908203,309.40625 C158.076173,309.769533 158.316405,310.046874 158.628906,310.238281 C158.941408,310.429688 159.310545,310.525391 159.736328,310.525391 C160.326175,310.525391 160.786131,310.290041 161.116211,309.819336 C161.446291,309.34863 161.611328,308.66602 161.611328,307.771484 Z M166.322266,311.117188 C165.7832,311.117188 165.295901,310.984376 164.860352,310.71875 C164.424803,310.453124 164.085939,310.08301 163.84375,309.608398 C163.601561,309.133787 163.480469,308.601565 163.480469,308.011719 L163.480469,307.759766 C163.480469,307.150388 163.598632,306.601565 163.834961,306.113281 C164.07129,305.624998 164.400389,305.241212 164.822266,304.961914 C165.244143,304.682616 165.701169,304.542969 166.193359,304.542969 C166.962894,304.542969 167.57324,304.805661 168.024414,305.331055 C168.475588,305.856448 168.701172,306.574214 168.701172,307.484375 L168.701172,307.876953 L164.177734,307.876953 L164.177734,308.011719 C164.177734,308.730472 164.383787,309.329099 164.795898,309.807617 C165.20801,310.286135 165.726559,310.525391 166.351562,310.525391 C166.726564,310.525391 167.057616,310.457032 167.344727,310.320312 C167.631837,310.183593 167.892577,309.964845 168.126953,309.664062 L168.566406,309.998047 C168.050779,310.744144 167.302739,311.117188 166.322266,311.117188 Z M166.193359,305.140625 C165.666013,305.140625 165.221681,305.333982 164.860352,305.720703 C164.499022,306.107424 164.279297,306.62695 164.201172,307.279297 L168.003906,307.279297 L168.003906,307.203125 C167.984375,306.593747 167.810549,306.097658 167.482422,305.714844 C167.154295,305.332029 166.724612,305.140625 166.193359,305.140625 Z M170.734375,304.660156 L170.757812,305.744141 C170.996095,305.353514 171.292967,305.055665 171.648438,304.850586 C172.003908,304.645507 172.396482,304.542969 172.826172,304.542969 C173.505863,304.542969 174.011717,304.734373 174.34375,305.117188 C174.675783,305.500002 174.84375,306.074215 174.847656,306.839844 L174.847656,311 L174.150391,311 L174.150391,306.833984 C174.146484,306.267575 174.026368,305.845705 173.790039,305.568359 C173.55371,305.291014 173.175784,305.152344 172.65625,305.152344 C172.222654,305.152344 171.838869,305.288085 171.504883,305.55957 C171.170897,305.831056 170.923829,306.197263 170.763672,306.658203 L170.763672,311 L170.066406,311 L170.066406,304.660156 L170.734375,304.660156 Z M176.376953,307.771484 C176.376953,306.787104 176.596677,306.002933 177.036133,305.418945 C177.475588,304.834958 178.072262,304.542969 178.826172,304.542969 C179.681645,304.542969 180.333982,304.880856 180.783203,305.556641 L180.783203,302 L181.480469,302 L181.480469,311 L180.824219,311 L180.794922,310.15625 C180.345701,310.796878 179.685551,311.117188 178.814453,311.117188 C178.083981,311.117188 177.495119,310.823245 177.047852,310.235352 C176.600584,309.647458 176.376953,308.853521 176.376953,307.853516 L176.376953,307.771484 Z M177.085938,307.894531 C177.085938,308.703129 177.248045,309.340818 177.572266,309.807617 C177.896486,310.274416 178.353513,310.507812 178.943359,310.507812 C179.806645,310.507812 180.41992,310.126957 180.783203,309.365234 L180.783203,306.388672 C180.41992,305.564449 179.810551,305.152344 178.955078,305.152344 C178.365231,305.152344 177.906252,305.383787 177.578125,305.84668 C177.249998,306.309573 177.085938,306.992183 177.085938,307.894531 Z M185.857422,307.736328 C185.857422,307.12695 185.975585,306.578127 186.211914,306.089844 C186.448243,305.60156 186.782224,305.221681 187.213867,304.950195 C187.64551,304.67871 188.134763,304.542969 188.681641,304.542969 C189.525395,304.542969 190.208982,304.838864 190.732422,305.430664 C191.255862,306.022464 191.517578,306.806636 191.517578,307.783203 L191.517578,307.929688 C191.517578,308.542972 191.399415,309.094724 191.163086,309.584961 C190.926757,310.075198 190.593752,310.453124 190.164062,310.71875 C189.734373,310.984376 189.244143,311.117188 188.693359,311.117188 C187.853511,311.117188 187.170901,310.821292 186.645508,310.229492 C186.120115,309.637692 185.857422,308.853521 185.857422,307.876953 L185.857422,307.736328 Z M186.560547,307.929688 C186.560547,308.687504 186.756834,309.309568 187.149414,309.795898 C187.541994,310.282229 188.056637,310.525391 188.693359,310.525391 C189.326175,310.525391 189.838865,310.282229 190.231445,309.795898 C190.624025,309.309568 190.820312,308.667973 190.820312,307.871094 L190.820312,307.736328 C190.820312,307.251951 190.73047,306.808596 190.550781,306.40625 C190.371093,306.003904 190.119142,305.692384 189.794922,305.47168 C189.470702,305.250975 189.099611,305.140625 188.681641,305.140625 C188.056638,305.140625 187.546877,305.38574 187.152344,305.875977 C186.757811,306.366213 186.560547,307.007809 186.560547,307.800781 L186.560547,307.929688 Z M193.632812,304.660156 L193.65625,305.744141 C193.894532,305.353514 194.191404,305.055665 194.546875,304.850586 C194.902346,304.645507 195.29492,304.542969 195.724609,304.542969 C196.4043,304.542969 196.910155,304.734373 197.242188,305.117188 C197.57422,305.500002 197.742187,306.074215 197.746094,306.839844 L197.746094,311 L197.048828,311 L197.048828,306.833984 C197.044922,306.267575 196.924806,305.845705 196.688477,305.568359 C196.452147,305.291014 196.074221,305.152344 195.554688,305.152344 C195.121092,305.152344 194.737306,305.288085 194.40332,305.55957 C194.069334,305.831056 193.822266,306.197263 193.662109,306.658203 L193.662109,311 L192.964844,311 L192.964844,304.660156 L193.632812,304.660156 Z M206.476562,311 C206.40625,310.80078 206.361328,310.505861 206.341797,310.115234 C206.095702,310.435548 205.782228,310.682616 205.401367,310.856445 C205.020506,311.030274 204.61719,311.117188 204.191406,311.117188 C203.582028,311.117188 203.088869,310.947267 202.711914,310.607422 C202.334959,310.267576 202.146484,309.837893 202.146484,309.318359 C202.146484,308.701169 202.403318,308.212892 202.916992,307.853516 C203.430667,307.494139 204.14648,307.314453 205.064453,307.314453 L206.335938,307.314453 L206.335938,306.59375 C206.335938,306.140623 206.19629,305.784181 205.916992,305.524414 C205.637694,305.264647 205.230471,305.134766 204.695312,305.134766 C204.207029,305.134766 203.802736,305.259764 203.482422,305.509766 C203.162108,305.759767 203.001953,306.060545 203.001953,306.412109 L202.298828,306.40625 C202.298828,305.902341 202.533201,305.465822 203.001953,305.09668 C203.470705,304.727537 204.046872,304.542969 204.730469,304.542969 C205.437504,304.542969 205.995115,304.719725 206.40332,305.073242 C206.811525,305.42676 207.021484,305.919919 207.033203,306.552734 L207.033203,309.552734 C207.033203,310.166019 207.097656,310.624998 207.226562,310.929688 L207.226562,311 L206.476562,311 Z M204.273438,310.496094 C204.74219,310.496094 205.161131,310.382814 205.530273,310.15625 C205.899416,309.929686 206.167968,309.626955 206.335938,309.248047 L206.335938,307.853516 L205.082031,307.853516 C204.382809,307.861328 203.835939,307.989257 203.441406,308.237305 C203.046873,308.485353 202.849609,308.82617 202.849609,309.259766 C202.849609,309.615236 202.981444,309.910155 203.245117,310.144531 C203.50879,310.378907 203.85156,310.496094 204.273438,310.496094 Z M211.246094,310.525391 C211.734377,310.525391 212.143553,310.387697 212.473633,310.112305 C212.803713,309.836913 212.982422,309.480471 213.009766,309.042969 L213.683594,309.042969 C213.664062,309.429689 213.54297,309.782225 213.320312,310.100586 C213.097655,310.418947 212.80176,310.667968 212.432617,310.847656 C212.063475,311.027345 211.667971,311.117188 211.246094,311.117188 C210.414058,311.117188 209.754885,310.828128 209.268555,310.25 C208.782224,309.671872 208.539062,308.894536 208.539062,307.917969 L208.539062,307.707031 C208.539062,307.082028 208.648436,306.529299 208.867188,306.048828 C209.085939,305.568357 209.399412,305.197267 209.807617,304.935547 C210.215822,304.673827 210.693357,304.542969 211.240234,304.542969 C211.93555,304.542969 212.508787,304.749998 212.959961,305.164062 C213.411135,305.578127 213.652344,306.123043 213.683594,306.798828 L213.009766,306.798828 C212.978515,306.302732 212.799806,305.902345 212.473633,305.597656 C212.147459,305.292967 211.736331,305.140625 211.240234,305.140625 C210.607419,305.140625 210.116213,305.369138 209.766602,305.826172 C209.41699,306.283205 209.242188,306.923824 209.242188,307.748047 L209.242188,307.953125 C209.242188,308.761723 209.41699,309.392576 209.766602,309.845703 C210.116213,310.29883 210.609372,310.525391 211.246094,310.525391 Z M216.173828,303.037109 L216.173828,304.660156 L217.486328,304.660156 L217.486328,305.234375 L216.173828,305.234375 L216.173828,309.458984 C216.173828,309.810549 216.237304,310.072265 216.364258,310.244141 C216.491212,310.416016 216.703124,310.501953 217,310.501953 C217.117188,310.501953 217.306639,310.482422 217.568359,310.443359 L217.597656,311.017578 C217.414062,311.083985 217.164064,311.117188 216.847656,311.117188 C216.367185,311.117188 216.017579,310.97754 215.798828,310.698242 C215.580077,310.418944 215.470703,310.007815 215.470703,309.464844 L215.470703,305.234375 L214.304688,305.234375 L214.304688,304.660156 L215.470703,304.660156 L215.470703,303.037109 L216.173828,303.037109 Z M223.017578,310.197266 C222.595701,310.81055 221.92188,311.117188 220.996094,311.117188 C220.320309,311.117188 219.806642,310.9209 219.455078,310.52832 C219.103514,310.13574 218.923828,309.554691 218.916016,308.785156 L218.916016,304.660156 L219.613281,304.660156 L219.613281,308.697266 C219.613281,309.904303 220.101558,310.507812 221.078125,310.507812 C222.093755,310.507812 222.736327,310.087895 223.005859,309.248047 L223.005859,304.660156 L223.708984,304.660156 L223.708984,311 L223.029297,311 L223.017578,310.197266 Z M229.533203,311 C229.46289,310.80078 229.417969,310.505861 229.398438,310.115234 C229.152343,310.435548 228.838869,310.682616 228.458008,310.856445 C228.077147,311.030274 227.67383,311.117188 227.248047,311.117188 C226.638669,311.117188 226.14551,310.947267 225.768555,310.607422 C225.3916,310.267576 225.203125,309.837893 225.203125,309.318359 C225.203125,308.701169 225.459958,308.212892 225.973633,307.853516 C226.487307,307.494139 227.20312,307.314453 228.121094,307.314453 L229.392578,307.314453 L229.392578,306.59375 C229.392578,306.140623 229.252931,305.784181 228.973633,305.524414 C228.694335,305.264647 228.287112,305.134766 227.751953,305.134766 C227.263669,305.134766 226.859377,305.259764 226.539062,305.509766 C226.218748,305.759767 226.058594,306.060545 226.058594,306.412109 L225.355469,306.40625 C225.355469,305.902341 225.589841,305.465822 226.058594,305.09668 C226.527346,304.727537 227.103512,304.542969 227.787109,304.542969 C228.494144,304.542969 229.051756,304.719725 229.459961,305.073242 C229.868166,305.42676 230.078125,305.919919 230.089844,306.552734 L230.089844,309.552734 C230.089844,310.166019 230.154296,310.624998 230.283203,310.929688 L230.283203,311 L229.533203,311 Z M227.330078,310.496094 C227.79883,310.496094 228.217772,310.382814 228.586914,310.15625 C228.956057,309.929686 229.224609,309.626955 229.392578,309.248047 L229.392578,307.853516 L228.138672,307.853516 C227.43945,307.861328 226.89258,307.989257 226.498047,308.237305 C226.103514,308.485353 225.90625,308.82617 225.90625,309.259766 C225.90625,309.615236 226.038085,309.910155 226.301758,310.144531 C226.565431,310.378907 226.908201,310.496094 227.330078,310.496094 Z M232.744141,311 L232.041016,311 L232.041016,302 L232.744141,302 L232.744141,311 Z M238.070312,311 L238.070312,305.234375 L237.021484,305.234375 L237.021484,304.660156 L238.070312,304.660156 L238.070312,303.892578 C238.070312,303.244137 238.23535,302.746095 238.56543,302.398438 C238.895509,302.05078 239.355466,301.876953 239.945312,301.876953 C240.210939,301.876953 240.458983,301.910156 240.689453,301.976562 L240.636719,302.5625 C240.441405,302.515625 240.228517,302.492188 239.998047,302.492188 C239.611326,302.492188 239.310548,302.612303 239.095703,302.852539 C238.880858,303.092775 238.773438,303.433592 238.773438,303.875 L238.773438,304.660156 L240.285156,304.660156 L240.285156,305.234375 L238.773438,305.234375 L238.773438,311 L238.070312,311 Z M245.617188,310.197266 C245.19531,310.81055 244.521489,311.117188 243.595703,311.117188 C242.919918,311.117188 242.406252,310.9209 242.054688,310.52832 C241.703123,310.13574 241.523438,309.554691 241.515625,308.785156 L241.515625,304.660156 L242.212891,304.660156 L242.212891,308.697266 C242.212891,309.904303 242.701167,310.507812 243.677734,310.507812 C244.693364,310.507812 245.335936,310.087895 245.605469,309.248047 L245.605469,304.660156 L246.308594,304.660156 L246.308594,311 L245.628906,311 L245.617188,310.197266 Z M248.798828,304.660156 L248.822266,305.744141 C249.060548,305.353514 249.35742,305.055665 249.712891,304.850586 C250.068361,304.645507 250.460935,304.542969 250.890625,304.542969 C251.570316,304.542969 252.07617,304.734373 252.408203,305.117188 C252.740236,305.500002 252.908203,306.074215 252.912109,306.839844 L252.912109,311 L252.214844,311 L252.214844,306.833984 C252.210937,306.267575 252.090821,305.845705 251.854492,305.568359 C251.618163,305.291014 251.240237,305.152344 250.720703,305.152344 C250.287107,305.152344 249.903322,305.288085 249.569336,305.55957 C249.23535,305.831056 248.988282,306.197263 248.828125,306.658203 L248.828125,311 L248.130859,311 L248.130859,304.660156 L248.798828,304.660156 Z M254.441406,307.771484 C254.441406,306.787104 254.661131,306.002933 255.100586,305.418945 C255.540041,304.834958 256.136715,304.542969 256.890625,304.542969 C257.746098,304.542969 258.398435,304.880856 258.847656,305.556641 L258.847656,302 L259.544922,302 L259.544922,311 L258.888672,311 L258.859375,310.15625 C258.410154,310.796878 257.750004,311.117188 256.878906,311.117188 C256.148434,311.117188 255.559573,310.823245 255.112305,310.235352 C254.665037,309.647458 254.441406,308.853521 254.441406,307.853516 L254.441406,307.771484 Z M255.150391,307.894531 C255.150391,308.703129 255.312498,309.340818 255.636719,309.807617 C255.960939,310.274416 256.417966,310.507812 257.007812,310.507812 C257.871098,310.507812 258.484373,310.126957 258.847656,309.365234 L258.847656,306.388672 C258.484373,305.564449 257.875004,305.152344 257.019531,305.152344 C256.429685,305.152344 255.970705,305.383787 255.642578,305.84668 C255.314451,306.309573 255.150391,306.992183 255.150391,307.894531 Z M269.40625,307.894531 C269.40625,308.882817 269.187502,309.666989 268.75,310.24707 C268.312498,310.827151 267.726566,311.117188 266.992188,311.117188 C266.124996,311.117188 265.46094,310.812503 265,310.203125 L265,313.4375 L264.302734,313.4375 L264.302734,304.660156 L264.953125,304.660156 L264.988281,305.556641 C265.445315,304.880856 266.107418,304.542969 266.974609,304.542969 C267.732426,304.542969 268.327146,304.830075 268.758789,305.404297 C269.190432,305.978518 269.40625,306.775386 269.40625,307.794922 L269.40625,307.894531 Z M268.703125,307.771484 C268.703125,306.962887 268.537111,306.324221 268.205078,305.855469 C267.873045,305.386716 267.410159,305.152344 266.816406,305.152344 C266.386717,305.152344 266.01758,305.255858 265.708984,305.462891 C265.400389,305.669923 265.164063,305.970701 265,306.365234 L265,309.40625 C265.16797,309.769533 265.408202,310.046874 265.720703,310.238281 C266.033205,310.429688 266.402342,310.525391 266.828125,310.525391 C267.417972,310.525391 267.877928,310.290041 268.208008,309.819336 C268.538088,309.34863 268.703125,308.66602 268.703125,307.771484 Z M273.414062,311.117188 C272.874997,311.117188 272.387697,310.984376 271.952148,310.71875 C271.516599,310.453124 271.177736,310.08301 270.935547,309.608398 C270.693358,309.133787 270.572266,308.601565 270.572266,308.011719 L270.572266,307.759766 C270.572266,307.150388 270.690429,306.601565 270.926758,306.113281 C271.163087,305.624998 271.492185,305.241212 271.914062,304.961914 C272.33594,304.682616 272.792966,304.542969 273.285156,304.542969 C274.054691,304.542969 274.665037,304.805661 275.116211,305.331055 C275.567385,305.856448 275.792969,306.574214 275.792969,307.484375 L275.792969,307.876953 L271.269531,307.876953 L271.269531,308.011719 C271.269531,308.730472 271.475584,309.329099 271.887695,309.807617 C272.299807,310.286135 272.818356,310.525391 273.443359,310.525391 C273.818361,310.525391 274.149413,310.457032 274.436523,310.320312 C274.723634,310.183593 274.984374,309.964845 275.21875,309.664062 L275.658203,309.998047 C275.142576,310.744144 274.394536,311.117188 273.414062,311.117188 Z M273.285156,305.140625 C272.75781,305.140625 272.313478,305.333982 271.952148,305.720703 C271.590819,306.107424 271.371094,306.62695 271.292969,307.279297 L275.095703,307.279297 L275.095703,307.203125 C275.076172,306.593747 274.902345,306.097658 274.574219,305.714844 C274.246092,305.332029 273.816409,305.140625 273.285156,305.140625 Z M280.087891,305.257812 C279.939452,305.230469 279.781251,305.216797 279.613281,305.216797 C279.175779,305.216797 278.805666,305.338866 278.50293,305.583008 C278.200194,305.82715 277.984376,306.181638 277.855469,306.646484 L277.855469,311 L277.158203,311 L277.158203,304.660156 L277.84375,304.660156 L277.855469,305.667969 C278.226564,304.917965 278.822262,304.542969 279.642578,304.542969 C279.837892,304.542969 279.992187,304.568359 280.105469,304.619141 L280.087891,305.257812 Z M281.787109,311 L281.787109,305.234375 L280.738281,305.234375 L280.738281,304.660156 L281.787109,304.660156 L281.787109,303.892578 C281.787109,303.244137 281.952147,302.746095 282.282227,302.398438 C282.612306,302.05078 283.072263,301.876953 283.662109,301.876953 C283.927736,301.876953 284.17578,301.910156 284.40625,301.976562 L284.353516,302.5625 C284.158202,302.515625 283.945314,302.492188 283.714844,302.492188 C283.328123,302.492188 283.027345,302.612303 282.8125,302.852539 C282.597655,303.092775 282.490234,303.433592 282.490234,303.875 L282.490234,304.660156 L284.001953,304.660156 L284.001953,305.234375 L282.490234,305.234375 L282.490234,311 L281.787109,311 Z M284.869141,307.736328 C284.869141,307.12695 284.987304,306.578127 285.223633,306.089844 C285.459962,305.60156 285.793943,305.221681 286.225586,304.950195 C286.657229,304.67871 287.146482,304.542969 287.693359,304.542969 C288.537114,304.542969 289.220701,304.838864 289.744141,305.430664 C290.267581,306.022464 290.529297,306.806636 290.529297,307.783203 L290.529297,307.929688 C290.529297,308.542972 290.411134,309.094724 290.174805,309.584961 C289.938475,310.075198 289.605471,310.453124 289.175781,310.71875 C288.746092,310.984376 288.255862,311.117188 287.705078,311.117188 C286.86523,311.117188 286.18262,310.821292 285.657227,310.229492 C285.131833,309.637692 284.869141,308.853521 284.869141,307.876953 L284.869141,307.736328 Z M285.572266,307.929688 C285.572266,308.687504 285.768553,309.309568 286.161133,309.795898 C286.553713,310.282229 287.068356,310.525391 287.705078,310.525391 C288.337894,310.525391 288.850584,310.282229 289.243164,309.795898 C289.635744,309.309568 289.832031,308.667973 289.832031,307.871094 L289.832031,307.736328 C289.832031,307.251951 289.742188,306.808596 289.5625,306.40625 C289.382812,306.003904 289.130861,305.692384 288.806641,305.47168 C288.48242,305.250975 288.11133,305.140625 287.693359,305.140625 C287.068356,305.140625 286.558596,305.38574 286.164062,305.875977 C285.769529,306.366213 285.572266,307.007809 285.572266,307.800781 L285.572266,307.929688 Z M294.90625,305.257812 C294.757812,305.230469 294.59961,305.216797 294.431641,305.216797 C293.994138,305.216797 293.624025,305.338866 293.321289,305.583008 C293.018553,305.82715 292.802735,306.181638 292.673828,306.646484 L292.673828,311 L291.976562,311 L291.976562,304.660156 L292.662109,304.660156 L292.673828,305.667969 C293.044924,304.917965 293.640621,304.542969 294.460938,304.542969 C294.656251,304.542969 294.810546,304.568359 294.923828,304.619141 L294.90625,305.257812 Z M296.652344,304.660156 L296.675781,305.691406 C296.910157,305.308592 297.203123,305.021485 297.554688,304.830078 C297.906252,304.638671 298.296873,304.542969 298.726562,304.542969 C299.726567,304.542969 300.361327,304.953121 300.630859,305.773438 C300.857423,305.378904 301.160154,305.075196 301.539062,304.862305 C301.917971,304.649413 302.335935,304.542969 302.792969,304.542969 C304.152351,304.542969 304.845703,305.285149 304.873047,306.769531 L304.873047,311 L304.169922,311 L304.169922,306.822266 C304.166016,306.255857 304.043947,305.835939 303.803711,305.5625 C303.563475,305.289061 303.171878,305.152344 302.628906,305.152344 C302.124997,305.160156 301.69922,305.323241 301.351562,305.641602 C301.003905,305.959963 300.810547,306.347654 300.771484,306.804688 L300.771484,311 L300.068359,311 L300.068359,306.769531 C300.064453,306.22656 299.936525,305.82129 299.68457,305.553711 C299.432616,305.286131 299.044924,305.152344 298.521484,305.152344 C298.080076,305.152344 297.701173,305.278319 297.384766,305.530273 C297.068358,305.782228 296.833985,306.156248 296.681641,306.652344 L296.681641,311 L295.978516,311 L295.978516,304.660156 L296.652344,304.660156 Z M310.650391,311 C310.580078,310.80078 310.535156,310.505861 310.515625,310.115234 C310.26953,310.435548 309.956057,310.682616 309.575195,310.856445 C309.194334,311.030274 308.791018,311.117188 308.365234,311.117188 C307.755856,311.117188 307.262697,310.947267 306.885742,310.607422 C306.508787,310.267576 306.320312,309.837893 306.320312,309.318359 C306.320312,308.701169 306.577146,308.212892 307.09082,307.853516 C307.604495,307.494139 308.320308,307.314453 309.238281,307.314453 L310.509766,307.314453 L310.509766,306.59375 C310.509766,306.140623 310.370119,305.784181 310.09082,305.524414 C309.811522,305.264647 309.4043,305.134766 308.869141,305.134766 C308.380857,305.134766 307.976564,305.259764 307.65625,305.509766 C307.335936,305.759767 307.175781,306.060545 307.175781,306.412109 L306.472656,306.40625 C306.472656,305.902341 306.707029,305.465822 307.175781,305.09668 C307.644534,304.727537 308.2207,304.542969 308.904297,304.542969 C309.611332,304.542969 310.168943,304.719725 310.577148,305.073242 C310.985354,305.42676 311.195312,305.919919 311.207031,306.552734 L311.207031,309.552734 C311.207031,310.166019 311.271484,310.624998 311.400391,310.929688 L311.400391,311 L310.650391,311 Z M308.447266,310.496094 C308.916018,310.496094 309.334959,310.382814 309.704102,310.15625 C310.073244,309.929686 310.341796,309.626955 310.509766,309.248047 L310.509766,307.853516 L309.255859,307.853516 C308.556637,307.861328 308.009768,307.989257 307.615234,308.237305 C307.220701,308.485353 307.023438,308.82617 307.023438,309.259766 C307.023438,309.615236 307.155272,309.910155 307.418945,310.144531 C307.682619,310.378907 308.025389,310.496094 308.447266,310.496094 Z M313.744141,304.660156 L313.767578,305.744141 C314.005861,305.353514 314.302733,305.055665 314.658203,304.850586 C315.013674,304.645507 315.406248,304.542969 315.835938,304.542969 C316.515628,304.542969 317.021483,304.734373 317.353516,305.117188 C317.685549,305.500002 317.853516,306.074215 317.857422,306.839844 L317.857422,311 L317.160156,311 L317.160156,306.833984 C317.15625,306.267575 317.036134,305.845705 316.799805,305.568359 C316.563475,305.291014 316.185549,305.152344 315.666016,305.152344 C315.23242,305.152344 314.848634,305.288085 314.514648,305.55957 C314.180662,305.831056 313.933595,306.197263 313.773438,306.658203 L313.773438,311 L313.076172,311 L313.076172,304.660156 L313.744141,304.660156 Z M322.011719,310.525391 C322.500002,310.525391 322.909178,310.387697 323.239258,310.112305 C323.569338,309.836913 323.748047,309.480471 323.775391,309.042969 L324.449219,309.042969 C324.429687,309.429689 324.308595,309.782225 324.085938,310.100586 C323.86328,310.418947 323.567385,310.667968 323.198242,310.847656 C322.8291,311.027345 322.433596,311.117188 322.011719,311.117188 C321.179683,311.117188 320.52051,310.828128 320.03418,310.25 C319.547849,309.671872 319.304688,308.894536 319.304688,307.917969 L319.304688,307.707031 C319.304688,307.082028 319.414061,306.529299 319.632812,306.048828 C319.851564,305.568357 320.165037,305.197267 320.573242,304.935547 C320.981447,304.673827 321.458982,304.542969 322.005859,304.542969 C322.701175,304.542969 323.274412,304.749998 323.725586,305.164062 C324.17676,305.578127 324.417969,306.123043 324.449219,306.798828 L323.775391,306.798828 C323.74414,306.302732 323.565431,305.902345 323.239258,305.597656 C322.913084,305.292967 322.501956,305.140625 322.005859,305.140625 C321.373044,305.140625 320.881838,305.369138 320.532227,305.826172 C320.182615,306.283205 320.007812,306.923824 320.007812,307.748047 L320.007812,307.953125 C320.007812,308.761723 320.182615,309.392576 320.532227,309.845703 C320.881838,310.29883 321.374997,310.525391 322.011719,310.525391 Z M328.304688,311.117188 C327.765622,311.117188 327.278322,310.984376 326.842773,310.71875 C326.407224,310.453124 326.068361,310.08301 325.826172,309.608398 C325.583983,309.133787 325.462891,308.601565 325.462891,308.011719 L325.462891,307.759766 C325.462891,307.150388 325.581054,306.601565 325.817383,306.113281 C326.053712,305.624998 326.38281,305.241212 326.804688,304.961914 C327.226565,304.682616 327.683591,304.542969 328.175781,304.542969 C328.945316,304.542969 329.555662,304.805661 330.006836,305.331055 C330.45801,305.856448 330.683594,306.574214 330.683594,307.484375 L330.683594,307.876953 L326.160156,307.876953 L326.160156,308.011719 C326.160156,308.730472 326.366209,309.329099 326.77832,309.807617 C327.190432,310.286135 327.708981,310.525391 328.333984,310.525391 C328.708986,310.525391 329.040038,310.457032 329.327148,310.320312 C329.614259,310.183593 329.874999,309.964845 330.109375,309.664062 L330.548828,309.998047 C330.033201,310.744144 329.285161,311.117188 328.304688,311.117188 Z M328.175781,305.140625 C327.648435,305.140625 327.204103,305.333982 326.842773,305.720703 C326.481444,306.107424 326.261719,306.62695 326.183594,307.279297 L329.986328,307.279297 L329.986328,307.203125 C329.966797,306.593747 329.79297,306.097658 329.464844,305.714844 C329.136717,305.332029 328.707034,305.140625 328.175781,305.140625 Z M331.984375,310.578125 C331.984375,310.441406 332.02832,310.325196 332.116211,310.229492 C332.204102,310.133789 332.326171,310.085938 332.482422,310.085938 C332.638673,310.085938 332.761718,310.133789 332.851562,310.229492 C332.941407,310.325196 332.986328,310.441406 332.986328,310.578125 C332.986328,310.714844 332.941407,310.827148 332.851562,310.915039 C332.761718,311.00293 332.638673,311.046875 332.482422,311.046875 C332.326171,311.046875 332.204102,311.00293 332.116211,310.915039 C332.02832,310.827148 331.984375,310.714844 331.984375,310.578125 Z" id="*-For-illustration-p" fill="#FFFFFF" opacity="0.751811594"></path>
                </g>
            </g>
        </g>
    </g>
</svg>