<?xml version="1.0" encoding="UTF-8"?>
<svg width="1440px" height="684px" viewBox="0 0 1440 684" version="1.1" xmlns="http://www.w3.org/2000/svg" xmlns:xlink="http://www.w3.org/1999/xlink">
    <!-- Generator: Sketch 47.1 (45422) - http://www.bohemiancoding.com/sketch -->
    <title>5</title>
    <desc>Created with Sketch.</desc>
    <defs>
        <linearGradient x1="90.1637316%" y1="61.8896484%" x2="90.1637316%" y2="-9.7265625%" id="linearGradient-1">
            <stop stop-color="#FFFFFF" stop-opacity="0.5" offset="0%"></stop>
            <stop stop-color="#000000" stop-opacity="0.400758605" offset="100%"></stop>
        </linearGradient>
        <linearGradient x1="100%" y1="100%" x2="-22.556686%" y2="100%" id="linearGradient-2">
            <stop stop-color="#FFFFFF" stop-opacity="0.5" offset="0%"></stop>
            <stop stop-color="#000000" stop-opacity="0.5" offset="100%"></stop>
        </linearGradient>
        <polygon id="path-3" points="1 600.232624 285.164063 535.238875 579.421875 407.011228 860.792969 334.340581 1144.96094 224.657355 1441 0.851119138 1441 682.815897 0.3834278 682.815897"></polygon>
        <ellipse id="path-4" cx="1142.43877" cy="224.427027" rx="15.4387726" ry="15.4270272"></ellipse>
        <filter x="-22.7%" y="-16.2%" width="145.3%" height="145.4%" filterUnits="objectBoundingBox" id="filter-5">
            <feOffset dx="0" dy="2" in="SourceAlpha" result="shadowOffsetOuter1"></feOffset>
            <feGaussianBlur stdDeviation="2" in="shadowOffsetOuter1" result="shadowBlurOuter1"></feGaussianBlur>
            <feComposite in="shadowBlurOuter1" in2="SourceAlpha" operator="out" result="shadowBlurOuter1"></feComposite>
            <feColorMatrix values="0 0 0 0 0   0 0 0 0 0   0 0 0 0 0  0 0 0 0.129670516 0" type="matrix" in="shadowBlurOuter1"></feColorMatrix>
        </filter>
        <ellipse id="path-6" cx="862.131407" cy="331.336876" rx="15.4387726" ry="15.4270272"></ellipse>
        <filter x="-22.7%" y="-16.2%" width="145.3%" height="145.4%" filterUnits="objectBoundingBox" id="filter-7">
            <feOffset dx="0" dy="2" in="SourceAlpha" result="shadowOffsetOuter1"></feOffset>
            <feGaussianBlur stdDeviation="2" in="shadowOffsetOuter1" result="shadowBlurOuter1"></feGaussianBlur>
            <feComposite in="shadowBlurOuter1" in2="SourceAlpha" operator="out" result="shadowBlurOuter1"></feComposite>
            <feColorMatrix values="0 0 0 0 0   0 0 0 0 0   0 0 0 0 0  0 0 0 0.129670516 0" type="matrix" in="shadowBlurOuter1"></feColorMatrix>
        </filter>
        <ellipse id="path-8" cx="578.438773" cy="405.427027" rx="15.4387726" ry="15.4270272"></ellipse>
        <filter x="-22.7%" y="-16.2%" width="145.3%" height="145.4%" filterUnits="objectBoundingBox" id="filter-9">
            <feOffset dx="0" dy="2" in="SourceAlpha" result="shadowOffsetOuter1"></feOffset>
            <feGaussianBlur stdDeviation="2" in="shadowOffsetOuter1" result="shadowBlurOuter1"></feGaussianBlur>
            <feComposite in="shadowBlurOuter1" in2="SourceAlpha" operator="out" result="shadowBlurOuter1"></feComposite>
            <feColorMatrix values="0 0 0 0 0   0 0 0 0 0   0 0 0 0 0  0 0 0 0.129670516 0" type="matrix" in="shadowBlurOuter1"></feColorMatrix>
        </filter>
        <ellipse id="path-10" cx="286.438773" cy="533.427027" rx="15.4387726" ry="15.4270272"></ellipse>
        <filter x="-22.7%" y="-16.2%" width="145.3%" height="145.4%" filterUnits="objectBoundingBox" id="filter-11">
            <feOffset dx="0" dy="2" in="SourceAlpha" result="shadowOffsetOuter1"></feOffset>
            <feGaussianBlur stdDeviation="2" in="shadowOffsetOuter1" result="shadowBlurOuter1"></feGaussianBlur>
            <feComposite in="shadowBlurOuter1" in2="SourceAlpha" operator="out" result="shadowBlurOuter1"></feComposite>
            <feColorMatrix values="0 0 0 0 0   0 0 0 0 0   0 0 0 0 0  0 0 0 0.129670516 0" type="matrix" in="shadowBlurOuter1"></feColorMatrix>
        </filter>
        <path d="M295.218014,494.862774 L309.591404,494.862774 C320.323062,494.862774 329.022791,486.163045 329.022791,475.431387 C329.022791,464.699728 320.323062,456 309.591404,456 L309.591404,456 L259.454178,456 L259.454178,456 C248.722519,456 240.022791,464.699728 240.022791,475.431387 L240.022791,475.431387 L240.022791,475.431387 C240.022791,486.163045 248.722519,494.862774 259.454178,494.862774 L275.813188,494.862774 L285.515601,504.565187 L295.218014,494.862774 Z" id="path-12"></path>
        <filter x="-7.9%" y="-10.3%" width="115.7%" height="128.8%" filterUnits="objectBoundingBox" id="filter-13">
            <feOffset dx="0" dy="2" in="SourceAlpha" result="shadowOffsetOuter1"></feOffset>
            <feGaussianBlur stdDeviation="2" in="shadowOffsetOuter1" result="shadowBlurOuter1"></feGaussianBlur>
            <feColorMatrix values="0 0 0 0 0   0 0 0 0 0   0 0 0 0 0  0 0 0 0.078125 0" type="matrix" in="shadowBlurOuter1"></feColorMatrix>
        </filter>
    </defs>
    <g id="Page-1" stroke="none" stroke-width="1" fill="none" fill-rule="evenodd">
        <g id="Desktop_PRE-LAUNCH-_-EARLY-ACCESS" transform="translate(0.000000, -3366.000000)">
            <g id="5" transform="translate(-1.000000, 3367.000000)">
                <g id="GRAPH">
                    <g id="Group-7" transform="translate(721.223561, 381.357746) rotate(-270.000000) translate(-721.223561, -381.357746) translate(562.723561, -338.642254)" stroke="#BCBCBC" stroke-width="0.5" stroke-linecap="square" stroke-dasharray="3,5">
                        <path d="M315.142254,-2.27373675e-13 L315.142254,1440" id="Line"></path>
                        <path d="M158.142254,-3.41060513e-13 L158.142254,1440" id="Line"></path>
                        <path d="M1,-2.27373675e-13 L1,1440" id="Line"></path>
                    </g>
                    <g id="Combined-Shape">
                        <use fill="#008E53" xlink:href="#path-3"></use>
                        <use fill="url(#linearGradient-2)" style="mix-blend-mode: overlay;" xlink:href="#path-3"></use>
                    </g>
                    <polyline id="Path-2" stroke="#116734" stroke-width="2" points="1 604 286.039062 535.247446 578.441406 407.661294 860.976562 333.449196 1143.90625 226.35013 1441 0.22265625"></polyline>
                    <g id="Group-7" transform="translate(285.000000, 222.000000)" stroke="#FFFFFF" stroke-width="2" stroke-linecap="square" opacity="0.192595109" stroke-dasharray="1,1">
                        <path d="M1,311.5014 L1,459.63757" id="Line"></path>
                        <path d="M292,185.135619 L292,459.070066" id="Line"></path>
                        <path d="M576,110.663167 L576,459.185941" id="Line"></path>
                        <path d="M859,0.982546069 L859,459.34073" id="Line"></path>
                    </g>
                    <g id="Oval-4">
                        <use fill="black" fill-opacity="1" filter="url(#filter-5)" xlink:href="#path-4"></use>
                        <use fill="#FFFFFF" fill-rule="evenodd" xlink:href="#path-4"></use>
                        <ellipse stroke="#FFFFFF" stroke-width="2" cx="1142.43877" cy="224.427027" rx="14.4387726" ry="14.4270272"></ellipse>
                    </g>
                    <g id="Oval-4">
                        <use fill="black" fill-opacity="1" filter="url(#filter-7)" xlink:href="#path-6"></use>
                        <use fill="#FFFFFF" fill-rule="evenodd" xlink:href="#path-6"></use>
                        <ellipse stroke="#FFFFFF" stroke-width="2" cx="862.131407" cy="331.336876" rx="14.4387726" ry="14.4270272"></ellipse>
                    </g>
                    <g id="Oval-4">
                        <use fill="black" fill-opacity="1" filter="url(#filter-9)" xlink:href="#path-8"></use>
                        <use fill="#FFFFFF" fill-rule="evenodd" xlink:href="#path-8"></use>
                        <ellipse stroke="#FFFFFF" stroke-width="2" cx="578.438773" cy="405.427027" rx="14.4387726" ry="14.4270272"></ellipse>
                    </g>
                    <g id="Oval-4">
                        <use fill="black" fill-opacity="1" filter="url(#filter-11)" xlink:href="#path-10"></use>
                        <use fill="#FFFFFF" fill-rule="evenodd" xlink:href="#path-10"></use>
                        <ellipse stroke="#FFFFFF" stroke-width="2" cx="286.438773" cy="533.427027" rx="14.4387726" ry="14.4270272"></ellipse>
                    </g>
                    <ellipse id="Oval-4" fill="#424559" cx="1142.14626" cy="224.142342" rx="5.14625752" ry="5.1423424"></ellipse>
                    <ellipse id="Oval-4" fill="#424559" cx="862.131407" cy="331.336876" rx="5.14625752" ry="5.1423424"></ellipse>
                    <ellipse id="Oval-4" fill="#424559" cx="578.146258" cy="406.142342" rx="5.14625752" ry="5.1423424"></ellipse>
                    <ellipse id="Oval-4" fill="#424559" cx="286.146258" cy="533.142342" rx="5.14625752" ry="5.1423424"></ellipse>
                    <g id="Combined-Shape">
                        <use fill="black" fill-opacity="1" filter="url(#filter-13)" xlink:href="#path-12"></use>
                        <use fill="#F5A623" fill-rule="evenodd" xlink:href="#path-12"></use>
                    </g>
                    <path d="M270.967021,476.295898 C269.519748,475.879881 268.466536,475.368655 267.807353,474.762207 C267.14817,474.155759 266.818583,473.407231 266.818583,472.516602 C266.818583,471.508784 267.221411,470.675296 268.02708,470.016113 C268.832748,469.35693 269.8801,469.027344 271.169169,469.027344 C272.04808,469.027344 272.831764,469.197264 273.520244,469.537109 C274.208724,469.876955 274.741921,470.3457 275.119853,470.943359 C275.497785,471.541019 275.686748,472.194332 275.686748,472.90332 L273.990458,472.90332 C273.990458,472.129879 273.744367,471.521975 273.252177,471.07959 C272.759987,470.637205 272.065658,470.416016 271.169169,470.416016 C270.337134,470.416016 269.688215,470.599119 269.222392,470.965332 C268.756569,471.331545 268.523662,471.83984 268.523662,472.490234 C268.523662,473.011721 268.744851,473.452635 269.187236,473.812988 C269.629621,474.173342 270.382543,474.502928 271.446025,474.801758 C272.509507,475.100587 273.34153,475.430174 273.942119,475.790527 C274.542708,476.150881 274.988016,476.571287 275.278056,477.051758 C275.568097,477.532229 275.713115,478.097653 275.713115,478.748047 C275.713115,479.785161 275.308822,480.61572 274.500224,481.239746 C273.691626,481.863773 272.610582,482.175781 271.25706,482.175781 C270.378149,482.175781 269.557845,482.007326 268.796123,481.67041 C268.0344,481.333494 267.447004,480.872073 267.033916,480.286133 C266.620827,479.700192 266.414287,479.03516 266.414287,478.291016 L268.110576,478.291016 C268.110576,479.064457 268.396217,479.675291 268.967509,480.123535 C269.538801,480.57178 270.301977,480.795898 271.25706,480.795898 C272.147689,480.795898 272.8303,480.61426 273.304912,480.250977 C273.779523,479.887693 274.016826,479.392581 274.016826,478.765625 C274.016826,478.138669 273.797101,477.65381 273.357646,477.311035 C272.918191,476.96826 272.121324,476.629884 270.967021,476.295898 Z M279.826396,470.1875 L279.826396,472.490234 L281.601787,472.490234 L281.601787,473.74707 L279.826396,473.74707 L279.826396,479.644531 C279.826396,480.025393 279.905497,480.311034 280.063701,480.501465 C280.221905,480.691895 280.491433,480.787109 280.872294,480.787109 C281.059795,480.787109 281.317605,480.751953 281.645732,480.681641 L281.645732,482 C281.217995,482.117188 280.801984,482.175781 280.397685,482.175781 C279.671119,482.175781 279.123273,481.956057 278.75413,481.516602 C278.384988,481.077146 278.200419,480.453129 278.200419,479.644531 L278.200419,473.74707 L276.468974,473.74707 L276.468974,472.490234 L278.200419,472.490234 L278.200419,470.1875 L279.826396,470.1875 Z M289.371318,482 C289.277567,481.812499 289.201396,481.478518 289.142802,480.998047 C288.386939,481.783207 287.484604,482.175781 286.435771,482.175781 C285.498266,482.175781 284.729231,481.910647 284.128642,481.380371 C283.528053,480.850095 283.227763,480.177738 283.227763,479.363281 C283.227763,478.373042 283.604224,477.604007 284.357158,477.056152 C285.110091,476.508298 286.169163,476.234375 287.534404,476.234375 L289.116435,476.234375 L289.116435,475.487305 C289.116435,474.918942 288.946515,474.46631 288.606669,474.129395 C288.266824,473.792479 287.765852,473.624023 287.10374,473.624023 C286.523659,473.624023 286.037335,473.770506 285.644755,474.063477 C285.252175,474.356447 285.055888,474.710935 285.055888,475.126953 L283.421123,475.126953 C283.421123,474.652341 283.589578,474.19385 283.926494,473.751465 C284.263409,473.30908 284.720436,472.958986 285.297587,472.701172 C285.874739,472.443358 286.50901,472.314453 287.200419,472.314453 C288.296128,472.314453 289.154518,472.588376 289.775615,473.13623 C290.396712,473.684085 290.718974,474.438472 290.742412,475.399414 L290.742412,479.776367 C290.742412,480.649418 290.853739,481.343747 291.076396,481.859375 L291.076396,482 L289.371318,482 Z M286.673076,480.760742 C287.182844,480.760742 287.666237,480.628908 288.123271,480.365234 C288.580305,480.101561 288.911356,479.758791 289.116435,479.336914 L289.116435,477.385742 L287.842021,477.385742 C285.849824,477.385742 284.85374,477.968744 284.85374,479.134766 C284.85374,479.644534 285.02366,480.042967 285.363505,480.330078 C285.703351,480.617189 286.13987,480.760742 286.673076,480.760742 Z M297.887919,473.949219 C297.641824,473.908203 297.375226,473.887695 297.088115,473.887695 C296.021703,473.887695 295.298078,474.341792 294.917216,475.25 L294.917216,482 L293.29124,482 L293.29124,472.490234 L294.873271,472.490234 L294.899638,473.588867 C295.432844,472.739254 296.188696,472.314453 297.167216,472.314453 C297.483624,472.314453 297.723856,472.355468 297.887919,472.4375 L297.887919,473.949219 Z M301.588115,470.1875 L301.588115,472.490234 L303.363505,472.490234 L303.363505,473.74707 L301.588115,473.74707 L301.588115,479.644531 C301.588115,480.025393 301.667215,480.311034 301.825419,480.501465 C301.983623,480.691895 302.253152,480.787109 302.634013,480.787109 C302.821514,480.787109 303.079324,480.751953 303.407451,480.681641 L303.407451,482 C302.979714,482.117188 302.563703,482.175781 302.159404,482.175781 C301.432838,482.175781 300.884992,481.956057 300.515849,481.516602 C300.146707,481.077146 299.962138,480.453129 299.962138,479.644531 L299.962138,473.74707 L298.230693,473.74707 L298.230693,472.490234 L299.962138,472.490234 L299.962138,470.1875 L301.588115,470.1875 Z" id="Start" fill="#FFFFFF"></path>
                    <path d="M1131.53956,269 L1121.97901,269 L1121.97901,267.369141 L1126.71534,262.203125 C1127.39893,261.441402 1127.88558,260.805016 1128.1753,260.293945 C1128.46501,259.782875 1128.60987,259.270185 1128.60987,258.755859 C1128.60987,258.078773 1128.41944,257.531903 1128.03858,257.115234 C1127.65772,256.698566 1127.14503,256.490234 1126.50049,256.490234 C1125.73226,256.490234 1125.13656,256.724607 1124.71338,257.193359 C1124.2902,257.662112 1124.07862,258.303381 1124.07862,259.117188 L1121.70557,259.117188 C1121.70557,258.251298 1121.90251,257.471683 1122.29639,256.77832 C1122.69027,256.084957 1123.25342,255.546226 1123.98584,255.162109 C1124.71827,254.777993 1125.56299,254.585938 1126.52002,254.585938 C1127.90024,254.585938 1128.9891,254.932614 1129.78663,255.625977 C1130.58416,256.319339 1130.98291,257.277989 1130.98291,258.501953 C1130.98291,259.211592 1130.78272,259.9554 1130.38233,260.733398 C1129.98194,261.511397 1129.32602,262.395177 1128.41456,263.384766 L1124.93799,267.105469 L1131.53956,267.105469 L1131.53956,269 Z M1142.61377,263.013672 C1142.61377,265.057953 1142.23129,266.599279 1141.46631,267.637695 C1140.70134,268.676112 1139.53761,269.195312 1137.9751,269.195312 C1136.43864,269.195312 1135.28142,268.689133 1134.50342,267.676758 C1133.72542,266.664383 1133.32666,265.165375 1133.30713,263.179688 L1133.30713,260.71875 C1133.30713,258.674469 1133.68962,257.141281 1134.45459,256.119141 C1135.21957,255.097 1136.38655,254.585938 1137.95557,254.585938 C1139.51157,254.585938 1140.67204,255.083979 1141.43702,256.080078 C1142.20199,257.076177 1142.59424,258.567047 1142.61377,260.552734 L1142.61377,263.013672 Z M1140.24073,260.357422 C1140.24073,259.02278 1140.05844,258.044599 1139.69385,257.422852 C1139.32927,256.801104 1138.74985,256.490234 1137.95557,256.490234 C1137.18083,256.490234 1136.61117,256.784828 1136.24659,257.374023 C1135.882,257.963219 1135.68995,258.882806 1135.67041,260.132812 L1135.67041,263.355469 C1135.67041,264.6836 1135.85596,265.673174 1136.22706,266.324219 C1136.59815,266.975264 1137.18083,267.300781 1137.9751,267.300781 C1138.73682,267.300781 1139.29997,266.999677 1139.66456,266.397461 C1140.02914,265.795244 1140.2212,264.852871 1140.24073,263.570312 L1140.24073,260.357422 Z M1147.45752,260.806641 L1148.90284,260.806641 C1149.63201,260.80013 1150.2098,260.61133 1150.63623,260.240234 C1151.06267,259.869139 1151.27588,259.332035 1151.27588,258.628906 C1151.27588,257.95182 1151.09848,257.426109 1150.74366,257.051758 C1150.38884,256.677407 1149.84685,256.490234 1149.11768,256.490234 C1148.47966,256.490234 1147.95557,256.674152 1147.54541,257.041992 C1147.13526,257.409833 1146.93018,257.889971 1146.93018,258.482422 L1144.55713,258.482422 C1144.55713,257.753252 1144.75082,257.089196 1145.13819,256.490234 C1145.52556,255.891273 1146.06592,255.424155 1146.75928,255.088867 C1147.45264,254.753579 1148.229,254.585938 1149.08838,254.585938 C1150.50766,254.585938 1151.62256,254.942379 1152.43311,255.655273 C1153.24366,256.368168 1153.64893,257.359369 1153.64893,258.628906 C1153.64893,259.26693 1153.44548,259.86751 1153.03858,260.430664 C1152.63168,260.993818 1152.10596,261.418618 1151.46143,261.705078 C1152.24268,261.972007 1152.83675,262.391924 1153.24366,262.964844 C1153.65056,263.537763 1153.85401,264.22135 1153.85401,265.015625 C1153.85401,266.291673 1153.41619,267.307288 1152.54053,268.0625 C1151.66488,268.817712 1150.51417,269.195312 1149.08838,269.195312 C1147.72119,269.195312 1146.60141,268.830733 1145.72901,268.101562 C1144.85661,267.372392 1144.42041,266.40235 1144.42041,265.191406 L1146.79346,265.191406 C1146.79346,265.816409 1147.00342,266.324217 1147.42334,266.714844 C1147.84327,267.105471 1148.40804,267.300781 1149.11768,267.300781 C1149.85336,267.300781 1150.43278,267.105471 1150.85596,266.714844 C1151.27914,266.324217 1151.49073,265.757816 1151.49073,265.015625 C1151.49073,264.266923 1151.26938,263.690757 1150.82666,263.287109 C1150.38395,262.883462 1149.72641,262.681641 1148.85401,262.681641 L1147.45752,262.681641 L1147.45752,260.806641 Z M1165.64112,269 L1156.08057,269 L1156.08057,267.369141 L1160.8169,262.203125 C1161.5005,261.441402 1161.98714,260.805016 1162.27686,260.293945 C1162.56657,259.782875 1162.71143,259.270185 1162.71143,258.755859 C1162.71143,258.078773 1162.521,257.531903 1162.14014,257.115234 C1161.75928,256.698566 1161.24659,256.490234 1160.60206,256.490234 C1159.83382,256.490234 1159.23813,256.724607 1158.81495,257.193359 C1158.39177,257.662112 1158.18018,258.303381 1158.18018,259.117188 L1155.80713,259.117188 C1155.80713,258.251298 1156.00407,257.471683 1156.39795,256.77832 C1156.79184,256.084957 1157.35498,255.546226 1158.08741,255.162109 C1158.81983,254.777993 1159.66455,254.585938 1160.62159,254.585938 C1162.0018,254.585938 1163.09066,254.932614 1163.88819,255.625977 C1164.68572,256.319339 1165.08448,257.277989 1165.08448,258.501953 C1165.08448,259.211592 1164.88428,259.9554 1164.48389,260.733398 C1164.0835,261.511397 1163.42758,262.395177 1162.51612,263.384766 L1159.03956,267.105469 L1165.64112,267.105469 L1165.64112,269 Z" id="2032" fill="#FFFFFF"></path>
                    <path d="M851.539555,376 L841.979008,376 L841.979008,374.369141 L846.715336,369.203125 C847.398934,368.441402 847.885582,367.805016 848.175297,367.293945 C848.465012,366.782875 848.609868,366.270185 848.609868,365.755859 C848.609868,365.078773 848.41944,364.531903 848.038579,364.115234 C847.657717,363.698566 847.145027,363.490234 846.500493,363.490234 C845.73226,363.490234 845.136563,363.724607 844.713383,364.193359 C844.290204,364.662112 844.078618,365.303381 844.078618,366.117188 L841.705571,366.117188 C841.705571,365.251298 841.902509,364.471683 842.296391,363.77832 C842.690273,363.084957 843.253419,362.546226 843.985844,362.162109 C844.71827,361.777993 845.562988,361.585938 846.520024,361.585938 C847.900239,361.585938 848.989096,361.932614 849.786626,362.625977 C850.584156,363.319339 850.982915,364.277989 850.982915,365.501953 C850.982915,366.211592 850.782721,366.9554 850.382329,367.733398 C849.981936,368.511397 849.326018,369.395177 848.414555,370.384766 L844.937993,374.105469 L851.539555,374.105469 L851.539555,376 Z M862.613774,370.013672 C862.613774,372.057953 862.231291,373.599279 861.466313,374.637695 C860.701335,375.676112 859.53761,376.195312 857.975102,376.195312 C856.438636,376.195312 855.281421,375.689133 854.503422,374.676758 C853.725424,373.664383 853.326665,372.165375 853.307133,370.179688 L853.307133,367.71875 C853.307133,365.674469 853.689617,364.141281 854.454594,363.119141 C855.219572,362.097 856.386553,361.585938 857.955571,361.585938 C859.511568,361.585938 860.672038,362.083979 861.437016,363.080078 C862.201994,364.076177 862.594243,365.567047 862.613774,367.552734 L862.613774,370.013672 Z M860.240727,367.357422 C860.240727,366.02278 860.058437,365.044599 859.693852,364.422852 C859.329267,363.801104 858.749846,363.490234 857.955571,363.490234 C857.180827,363.490234 856.611172,363.784828 856.246586,364.374023 C855.882001,364.963219 855.689946,365.882806 855.670415,367.132812 L855.670415,370.355469 C855.670415,371.6836 855.85596,372.673174 856.227055,373.324219 C856.598151,373.975264 857.180827,374.300781 857.975102,374.300781 C858.736825,374.300781 859.29997,373.999677 859.664555,373.397461 C860.02914,372.795244 860.221196,371.852871 860.240727,370.570312 L860.240727,367.357422 Z M874.27393,376 L864.713383,376 L864.713383,374.369141 L869.449711,369.203125 C870.133309,368.441402 870.619957,367.805016 870.909672,367.293945 C871.199387,366.782875 871.344243,366.270185 871.344243,365.755859 C871.344243,365.078773 871.153815,364.531903 870.772954,364.115234 C870.392092,363.698566 869.879402,363.490234 869.234868,363.490234 C868.466635,363.490234 867.870938,363.724607 867.447758,364.193359 C867.024579,364.662112 866.812993,365.303381 866.812993,366.117188 L864.439946,366.117188 C864.439946,365.251298 864.636884,364.471683 865.030766,363.77832 C865.424648,363.084957 865.987794,362.546226 866.720219,362.162109 C867.452645,361.777993 868.297363,361.585938 869.254399,361.585938 C870.634614,361.585938 871.723471,361.932614 872.521001,362.625977 C873.318531,363.319339 873.71729,364.277989 873.71729,365.501953 C873.71729,366.211592 873.517096,366.9554 873.116704,367.733398 C872.716311,368.511397 872.060393,369.395177 871.14893,370.384766 L867.672368,374.105469 L874.27393,374.105469 L874.27393,376 Z M885.543461,363.099609 L879.859868,376 L877.369633,376 L883.043461,363.685547 L875.689946,363.685547 L875.689946,361.78125 L885.543461,361.78125 L885.543461,363.099609 Z" id="2027" fill="#FFFFFF"></path>
                    <path d="M566.539555,449 L556.979008,449 L556.979008,447.369141 L561.715336,442.203125 C562.398934,441.441402 562.885582,440.805016 563.175297,440.293945 C563.465012,439.782875 563.609868,439.270185 563.609868,438.755859 C563.609868,438.078773 563.41944,437.531903 563.038579,437.115234 C562.657717,436.698566 562.145027,436.490234 561.500493,436.490234 C560.73226,436.490234 560.136563,436.724607 559.713383,437.193359 C559.290204,437.662112 559.078618,438.303381 559.078618,439.117188 L556.705571,439.117188 C556.705571,438.251298 556.902509,437.471683 557.296391,436.77832 C557.690273,436.084957 558.253419,435.546226 558.985844,435.162109 C559.71827,434.777993 560.562988,434.585938 561.520024,434.585938 C562.900239,434.585938 563.989096,434.932614 564.786626,435.625977 C565.584156,436.319339 565.982915,437.277989 565.982915,438.501953 C565.982915,439.211592 565.782721,439.9554 565.382329,440.733398 C564.981936,441.511397 564.326018,442.395177 563.414555,443.384766 L559.937993,447.105469 L566.539555,447.105469 L566.539555,449 Z M577.613774,443.013672 C577.613774,445.057953 577.231291,446.599279 576.466313,447.637695 C575.701335,448.676112 574.53761,449.195312 572.975102,449.195312 C571.438636,449.195312 570.281421,448.689133 569.503422,447.676758 C568.725424,446.664383 568.326665,445.165375 568.307133,443.179688 L568.307133,440.71875 C568.307133,438.674469 568.689617,437.141281 569.454594,436.119141 C570.219572,435.097 571.386553,434.585938 572.955571,434.585938 C574.511568,434.585938 575.672038,435.083979 576.437016,436.080078 C577.201994,437.076177 577.594243,438.567047 577.613774,440.552734 L577.613774,443.013672 Z M575.240727,440.357422 C575.240727,439.02278 575.058437,438.044599 574.693852,437.422852 C574.329267,436.801104 573.749846,436.490234 572.955571,436.490234 C572.180827,436.490234 571.611172,436.784828 571.246586,437.374023 C570.882001,437.963219 570.689946,438.882806 570.670415,440.132812 L570.670415,443.355469 C570.670415,444.6836 570.85596,445.673174 571.227055,446.324219 C571.598151,446.975264 572.180827,447.300781 572.975102,447.300781 C573.736825,447.300781 574.29997,446.999677 574.664555,446.397461 C575.02914,445.795244 575.221196,444.852871 575.240727,443.570312 L575.240727,440.357422 Z M589.27393,449 L579.713383,449 L579.713383,447.369141 L584.449711,442.203125 C585.133309,441.441402 585.619957,440.805016 585.909672,440.293945 C586.199387,439.782875 586.344243,439.270185 586.344243,438.755859 C586.344243,438.078773 586.153815,437.531903 585.772954,437.115234 C585.392092,436.698566 584.879402,436.490234 584.234868,436.490234 C583.466635,436.490234 582.870938,436.724607 582.447758,437.193359 C582.024579,437.662112 581.812993,438.303381 581.812993,439.117188 L579.439946,439.117188 C579.439946,438.251298 579.636884,437.471683 580.030766,436.77832 C580.424648,436.084957 580.987794,435.546226 581.720219,435.162109 C582.452645,434.777993 583.297363,434.585938 584.254399,434.585938 C585.634614,434.585938 586.723471,434.932614 587.521001,435.625977 C588.318531,436.319339 588.71729,437.277989 588.71729,438.501953 C588.71729,439.211592 588.517096,439.9554 588.116704,440.733398 C587.716311,441.511397 587.060393,442.395177 586.14893,443.384766 L582.672368,447.105469 L589.27393,447.105469 L589.27393,449 Z M600.641118,449 L591.080571,449 L591.080571,447.369141 L595.816899,442.203125 C596.500496,441.441402 596.987145,440.805016 597.27686,440.293945 C597.566575,439.782875 597.71143,439.270185 597.71143,438.755859 C597.71143,438.078773 597.521002,437.531903 597.140141,437.115234 C596.75928,436.698566 596.24659,436.490234 595.602055,436.490234 C594.833822,436.490234 594.238125,436.724607 593.814946,437.193359 C593.391767,437.662112 593.18018,438.303381 593.18018,439.117188 L590.807133,439.117188 C590.807133,438.251298 591.004072,437.471683 591.397954,436.77832 C591.791836,436.084957 592.354981,435.546226 593.087407,435.162109 C593.819832,434.777993 594.66455,434.585938 595.621586,434.585938 C597.001802,434.585938 598.090658,434.932614 598.888188,435.625977 C599.685718,436.319339 600.084477,437.277989 600.084477,438.501953 C600.084477,439.211592 599.884284,439.9554 599.483891,440.733398 C599.083499,441.511397 598.427581,442.395177 597.516118,443.384766 L594.039555,447.105469 L600.641118,447.105469 L600.641118,449 Z" id="2022" fill="#FFFFFF"></path>
                    <path d="M274.539555,578 L264.979008,578 L264.979008,576.369141 L269.715336,571.203125 C270.398934,570.441402 270.885582,569.805016 271.175297,569.293945 C271.465012,568.782875 271.609868,568.270185 271.609868,567.755859 C271.609868,567.078773 271.41944,566.531903 271.038579,566.115234 C270.657717,565.698566 270.145027,565.490234 269.500493,565.490234 C268.73226,565.490234 268.136563,565.724607 267.713383,566.193359 C267.290204,566.662112 267.078618,567.303381 267.078618,568.117188 L264.705571,568.117188 C264.705571,567.251298 264.902509,566.471683 265.296391,565.77832 C265.690273,565.084957 266.253419,564.546226 266.985844,564.162109 C267.71827,563.777993 268.562988,563.585938 269.520024,563.585938 C270.900239,563.585938 271.989096,563.932614 272.786626,564.625977 C273.584156,565.319339 273.982915,566.277989 273.982915,567.501953 C273.982915,568.211592 273.782721,568.9554 273.382329,569.733398 C272.981936,570.511397 272.326018,571.395177 271.414555,572.384766 L267.937993,576.105469 L274.539555,576.105469 L274.539555,578 Z M285.613774,572.013672 C285.613774,574.057953 285.231291,575.599279 284.466313,576.637695 C283.701335,577.676112 282.53761,578.195312 280.975102,578.195312 C279.438636,578.195312 278.281421,577.689133 277.503422,576.676758 C276.725424,575.664383 276.326665,574.165375 276.307133,572.179688 L276.307133,569.71875 C276.307133,567.674469 276.689617,566.141281 277.454594,565.119141 C278.219572,564.097 279.386553,563.585938 280.955571,563.585938 C282.511568,563.585938 283.672038,564.083979 284.437016,565.080078 C285.201994,566.076177 285.594243,567.567047 285.613774,569.552734 L285.613774,572.013672 Z M283.240727,569.357422 C283.240727,568.02278 283.058437,567.044599 282.693852,566.422852 C282.329267,565.801104 281.749846,565.490234 280.955571,565.490234 C280.180827,565.490234 279.611172,565.784828 279.246586,566.374023 C278.882001,566.963219 278.689946,567.882806 278.670415,569.132812 L278.670415,572.355469 C278.670415,573.6836 278.85596,574.673174 279.227055,575.324219 C279.598151,575.975264 280.180827,576.300781 280.975102,576.300781 C281.736825,576.300781 282.29997,575.999677 282.664555,575.397461 C283.02914,574.795244 283.221196,573.852871 283.240727,572.570312 L283.240727,569.357422 Z M294.139165,578 L291.775883,578 L291.775883,566.583984 L288.289555,567.775391 L288.289555,565.773438 L293.83643,563.732422 L294.139165,563.732422 L294.139165,578 Z M308.543461,565.099609 L302.859868,578 L300.369633,578 L306.043461,565.685547 L298.689946,565.685547 L298.689946,563.78125 L308.543461,563.78125 L308.543461,565.099609 Z" id="2017" fill="#FFFFFF"></path>
                </g>
                <path d="M1380,661.408701 L1415.43566,661.408701 L1415.43566,626 L1380,626 L1380,661.408701 Z M1406.13056,638.48314 L1411.43116,633.340165 L1411.43116,654.233242 L1406.13056,659.381158 L1406.13056,638.48314 Z M1397.38165,638.539964 L1402.6806,633.396989 L1402.6806,654.29089 L1397.38165,659.439629 L1397.38165,638.539964 Z M1388.67146,638.546552 L1393.97124,633.402754 L1393.97124,654.309007 L1388.67146,659.450335 L1388.67146,638.546552 Z" id="Page-1" fill="#FFFFFF" opacity="0.419157609"></path>
                <path d="M1178.76979,633.164062 L1176.50025,632.425781 L1176.719,631.735352 L1178.98854,632.576172 L1178.96119,630.046875 L1179.67213,630.046875 L1179.61744,632.59668 L1181.83229,631.728516 L1182.05787,632.418945 L1179.7815,633.205078 L1181.30592,635.214844 L1180.72486,635.645508 L1179.26197,633.560547 L1177.86744,635.631836 L1177.28639,635.214844 L1178.76979,633.164062 Z M1192.38697,635.351562 L1187.74537,635.351562 L1187.74537,640 L1186.90455,640 L1186.90455,630.046875 L1193.07057,630.046875 L1193.07057,630.764648 L1187.74537,630.764648 L1187.74537,634.633789 L1192.38697,634.633789 L1192.38697,635.351562 Z M1193.99342,636.192383 C1193.99342,635.481442 1194.13128,634.841149 1194.40699,634.271484 C1194.68271,633.70182 1195.07236,633.258628 1195.57594,632.941895 C1196.07952,632.625161 1196.65032,632.466797 1197.28834,632.466797 C1198.27272,632.466797 1199.07024,632.812008 1199.68092,633.502441 C1200.2916,634.192875 1200.59693,635.107742 1200.59693,636.24707 L1200.59693,636.417969 C1200.59693,637.133467 1200.45908,637.777178 1200.18336,638.349121 C1199.90764,638.921064 1199.51914,639.361978 1199.01783,639.671875 C1198.51653,639.981772 1197.94459,640.136719 1197.30201,640.136719 C1196.32219,640.136719 1195.52581,639.791507 1194.91285,639.101074 C1194.29989,638.410641 1193.99342,637.495774 1193.99342,636.356445 L1193.99342,636.192383 Z M1194.81373,636.417969 C1194.81373,637.302088 1195.04273,638.027829 1195.50074,638.595215 C1195.95875,639.1626 1196.55917,639.446289 1197.30201,639.446289 C1198.0403,639.446289 1198.63844,639.1626 1199.09645,638.595215 C1199.55446,638.027829 1199.78346,637.279302 1199.78346,636.349609 L1199.78346,636.192383 C1199.78346,635.627276 1199.67864,635.110028 1199.469,634.640625 C1199.25937,634.171222 1198.96543,633.807781 1198.58717,633.550293 C1198.20891,633.292805 1197.77597,633.164062 1197.28834,633.164062 C1196.55917,633.164062 1195.96445,633.45003 1195.50416,634.021973 C1195.04387,634.593916 1194.81373,635.342443 1194.81373,636.267578 L1194.81373,636.417969 Z M1205.70338,633.300781 C1205.5302,633.26888 1205.34563,633.25293 1205.14967,633.25293 C1204.63925,633.25293 1204.20745,633.395344 1203.85426,633.680176 C1203.50107,633.965008 1203.24928,634.378578 1203.09889,634.920898 L1203.09889,640 L1202.28541,640 L1202.28541,632.603516 L1203.08522,632.603516 L1203.09889,633.779297 C1203.53183,632.904292 1204.22681,632.466797 1205.18385,632.466797 C1205.41171,632.466797 1205.59173,632.496419 1205.72389,632.555664 L1205.70338,633.300781 Z M1211.31568,640 L1210.49537,640 L1210.49537,632.603516 L1211.31568,632.603516 L1211.31568,640 Z M1210.35182,630.463867 C1210.35182,630.308918 1210.40195,630.177898 1210.50221,630.070801 C1210.60247,629.963704 1210.73919,629.910156 1210.91236,629.910156 C1211.08554,629.910156 1211.2234,629.963704 1211.32594,630.070801 C1211.42848,630.177898 1211.47975,630.308918 1211.47975,630.463867 C1211.47975,630.618816 1211.42848,630.748697 1211.32594,630.853516 C1211.2234,630.958334 1211.08554,631.010742 1210.91236,631.010742 C1210.73919,631.010742 1210.60247,630.958334 1210.50221,630.853516 C1210.40195,630.748697 1210.35182,630.618816 1210.35182,630.463867 Z M1214.45338,640 L1213.63307,640 L1213.63307,629.5 L1214.45338,629.5 L1214.45338,640 Z M1217.59107,640 L1216.77076,640 L1216.77076,629.5 L1217.59107,629.5 L1217.59107,640 Z M1224.57057,639.063477 C1224.07838,639.778975 1223.29225,640.136719 1222.21217,640.136719 C1221.42375,640.136719 1220.82448,639.907717 1220.41432,639.449707 C1220.00416,638.991697 1219.79453,638.313807 1219.78541,637.416016 L1219.78541,632.603516 L1220.59889,632.603516 L1220.59889,637.313477 C1220.59889,638.721687 1221.16854,639.425781 1222.30787,639.425781 C1223.49277,639.425781 1224.24244,638.935877 1224.5569,637.956055 L1224.5569,632.603516 L1225.37721,632.603516 L1225.37721,640 L1224.58424,640 L1224.57057,639.063477 Z M1231.93287,638.120117 C1231.93287,637.714516 1231.76995,637.388673 1231.4441,637.142578 C1231.11825,636.896483 1230.62721,636.703939 1229.97096,636.564941 C1229.3147,636.425943 1228.80543,636.26644 1228.44313,636.086426 C1228.08082,635.906412 1227.81194,635.686525 1227.63649,635.426758 C1227.46103,635.166991 1227.3733,634.852541 1227.3733,634.483398 C1227.3733,633.900062 1227.61711,633.418133 1228.10475,633.037598 C1228.59238,632.657062 1229.21672,632.466797 1229.97779,632.466797 C1230.80267,632.466797 1231.46461,632.670734 1231.96363,633.078613 C1232.46266,633.486493 1232.71217,634.018551 1232.71217,634.674805 L1231.89186,634.674805 C1231.89186,634.24186 1231.71071,633.881837 1231.3484,633.594727 C1230.98609,633.307616 1230.52923,633.164062 1229.97779,633.164062 C1229.44003,633.164062 1229.00823,633.28369 1228.68238,633.522949 C1228.35654,633.762208 1228.19361,634.07324 1228.19361,634.456055 C1228.19361,634.825197 1228.32919,635.111164 1228.60035,635.313965 C1228.87151,635.516765 1229.36597,635.702473 1230.08375,635.871094 C1230.80153,636.039714 1231.33928,636.219726 1231.69703,636.411133 C1232.05478,636.60254 1232.32024,636.832681 1232.49342,637.101562 C1232.6666,637.370444 1232.75318,637.696287 1232.75318,638.079102 C1232.75318,638.703454 1232.5014,639.202472 1231.99781,639.576172 C1231.49423,639.949872 1230.83685,640.136719 1230.02565,640.136719 C1229.16431,640.136719 1228.46591,639.928225 1227.93043,639.51123 C1227.39495,639.094236 1227.12721,638.566735 1227.12721,637.928711 L1227.94752,637.928711 C1227.97942,638.407229 1228.18108,638.779784 1228.5525,639.046387 C1228.92392,639.31299 1229.41497,639.446289 1230.02565,639.446289 C1230.59531,639.446289 1231.05559,639.320965 1231.4065,639.070312 C1231.75742,638.81966 1231.93287,638.502932 1231.93287,638.120117 Z M1235.86354,630.709961 L1235.86354,632.603516 L1237.39479,632.603516 L1237.39479,633.273438 L1235.86354,633.273438 L1235.86354,638.202148 C1235.86354,638.612307 1235.93759,638.917642 1236.0857,639.118164 C1236.23382,639.318686 1236.48105,639.418945 1236.8274,639.418945 C1236.96412,639.418945 1237.18515,639.396159 1237.49049,639.350586 L1237.52467,640.020508 C1237.31047,640.097982 1237.01881,640.136719 1236.64967,640.136719 C1236.08912,640.136719 1235.68125,639.973797 1235.42604,639.647949 C1235.17083,639.322101 1235.04322,638.842451 1235.04322,638.208984 L1235.04322,633.273438 L1233.68287,633.273438 L1233.68287,632.603516 L1235.04322,632.603516 L1235.04322,630.709961 L1235.86354,630.709961 Z M1242.50807,633.300781 C1242.33489,633.26888 1242.15032,633.25293 1241.95436,633.25293 C1241.44394,633.25293 1241.01214,633.395344 1240.65895,633.680176 C1240.30575,633.965008 1240.05397,634.378578 1239.90357,634.920898 L1239.90357,640 L1239.0901,640 L1239.0901,632.603516 L1239.8899,632.603516 L1239.90357,633.779297 C1240.33652,632.904292 1241.0315,632.466797 1241.98854,632.466797 C1242.2164,632.466797 1242.39641,632.496419 1242.52857,632.555664 L1242.50807,633.300781 Z M1248.19557,640 C1248.11354,639.767577 1248.06113,639.423505 1248.03834,638.967773 C1247.75123,639.341473 1247.38551,639.629719 1246.94117,639.83252 C1246.49683,640.03532 1246.0263,640.136719 1245.52955,640.136719 C1244.81861,640.136719 1244.24326,639.938479 1243.80348,639.541992 C1243.3637,639.145506 1243.14381,638.644209 1243.14381,638.038086 C1243.14381,637.31803 1243.44345,636.748374 1244.04274,636.329102 C1244.64202,635.909829 1245.47714,635.700195 1246.54811,635.700195 L1248.0315,635.700195 L1248.0315,634.859375 C1248.0315,634.330727 1247.86858,633.914878 1247.54274,633.611816 C1247.21689,633.308755 1246.74179,633.157227 1246.11744,633.157227 C1245.54778,633.157227 1245.0761,633.303058 1244.7024,633.594727 C1244.3287,633.886395 1244.14186,634.237303 1244.14186,634.647461 L1243.32154,634.640625 C1243.32154,634.052731 1243.59498,633.543459 1244.14186,633.112793 C1244.68873,632.682127 1245.36093,632.466797 1246.15846,632.466797 C1246.98333,632.466797 1247.63388,632.673012 1248.11012,633.085449 C1248.58636,633.497886 1248.83131,634.073238 1248.84498,634.811523 L1248.84498,638.311523 C1248.84498,639.027022 1248.92018,639.562498 1249.07057,639.917969 L1249.07057,640 L1248.19557,640 Z M1245.62525,639.412109 C1246.17213,639.412109 1246.6609,639.279949 1247.09156,639.015625 C1247.52223,638.751301 1247.83554,638.398114 1248.0315,637.956055 L1248.0315,636.329102 L1246.56861,636.329102 C1245.75285,636.338216 1245.11484,636.487466 1244.65455,636.776855 C1244.19426,637.066245 1243.96412,637.463865 1243.96412,637.969727 C1243.96412,638.384442 1244.11793,638.728514 1244.42555,639.001953 C1244.73317,639.275392 1245.13306,639.412109 1245.62525,639.412109 Z M1252.29713,630.709961 L1252.29713,632.603516 L1253.82838,632.603516 L1253.82838,633.273438 L1252.29713,633.273438 L1252.29713,638.202148 C1252.29713,638.612307 1252.37118,638.917642 1252.5193,639.118164 C1252.66741,639.318686 1252.91464,639.418945 1253.261,639.418945 C1253.39772,639.418945 1253.61874,639.396159 1253.92408,639.350586 L1253.95826,640.020508 C1253.74407,640.097982 1253.4524,640.136719 1253.08326,640.136719 C1252.52271,640.136719 1252.11484,639.973797 1251.85963,639.647949 C1251.60442,639.322101 1251.47682,638.842451 1251.47682,638.208984 L1251.47682,633.273438 L1250.11647,633.273438 L1250.11647,632.603516 L1251.47682,632.603516 L1251.47682,630.709961 L1252.29713,630.709961 Z M1256.43971,640 L1255.6194,640 L1255.6194,632.603516 L1256.43971,632.603516 L1256.43971,640 Z M1255.47584,630.463867 C1255.47584,630.308918 1255.52597,630.177898 1255.62623,630.070801 C1255.72649,629.963704 1255.86321,629.910156 1256.03639,629.910156 C1256.20957,629.910156 1256.34742,629.963704 1256.44996,630.070801 C1256.5525,630.177898 1256.60377,630.308918 1256.60377,630.463867 C1256.60377,630.618816 1256.5525,630.748697 1256.44996,630.853516 C1256.34742,630.958334 1256.20957,631.010742 1256.03639,631.010742 C1255.86321,631.010742 1255.72649,630.958334 1255.62623,630.853516 C1255.52597,630.748697 1255.47584,630.618816 1255.47584,630.463867 Z M1258.21022,636.192383 C1258.21022,635.481442 1258.34807,634.841149 1258.62379,634.271484 C1258.89951,633.70182 1259.28915,633.258628 1259.79274,632.941895 C1260.29632,632.625161 1260.86711,632.466797 1261.50514,632.466797 C1262.48952,632.466797 1263.28704,632.812008 1263.89772,633.502441 C1264.5084,634.192875 1264.81373,635.107742 1264.81373,636.24707 L1264.81373,636.417969 C1264.81373,637.133467 1264.67587,637.777178 1264.40016,638.349121 C1264.12444,638.921064 1263.73593,639.361978 1263.23463,639.671875 C1262.73333,639.981772 1262.16139,640.136719 1261.51881,640.136719 C1260.53899,640.136719 1259.74261,639.791507 1259.12965,639.101074 C1258.51669,638.410641 1258.21022,637.495774 1258.21022,636.356445 L1258.21022,636.192383 Z M1259.03053,636.417969 C1259.03053,637.302088 1259.25953,638.027829 1259.71754,638.595215 C1260.17555,639.1626 1260.77597,639.446289 1261.51881,639.446289 C1262.25709,639.446289 1262.85523,639.1626 1263.31324,638.595215 C1263.77125,638.027829 1264.00025,637.279302 1264.00025,636.349609 L1264.00025,636.192383 C1264.00025,635.627276 1263.89544,635.110028 1263.6858,634.640625 C1263.47617,634.171222 1263.18222,633.807781 1262.80397,633.550293 C1262.42571,633.292805 1261.99277,633.164062 1261.50514,633.164062 C1260.77597,633.164062 1260.18125,633.45003 1259.72096,634.021973 C1259.26067,634.593916 1259.03053,635.342443 1259.03053,636.267578 L1259.03053,636.417969 Z M1267.2815,632.603516 L1267.30885,633.868164 C1267.58684,633.412433 1267.9332,633.064943 1268.34791,632.825684 C1268.76263,632.586425 1269.22063,632.466797 1269.72193,632.466797 C1270.51491,632.466797 1271.10507,632.690102 1271.49244,633.136719 C1271.87981,633.583336 1272.07578,634.253251 1272.08033,635.146484 L1272.08033,640 L1271.26686,640 L1271.26686,635.139648 C1271.2623,634.478838 1271.12216,633.986655 1270.84645,633.663086 C1270.57073,633.339517 1270.12982,633.177734 1269.52369,633.177734 C1269.01783,633.177734 1268.57008,633.336099 1268.18043,633.652832 C1267.79078,633.969565 1267.50253,634.396807 1267.31568,634.93457 L1267.31568,640 L1266.50221,640 L1266.50221,632.603516 L1267.2815,632.603516 Z M1283.5442,636.376953 C1283.5442,637.529954 1283.28899,638.444821 1282.77857,639.121582 C1282.26816,639.798343 1281.58457,640.136719 1280.72779,640.136719 C1279.71607,640.136719 1278.94134,639.781254 1278.40357,639.070312 L1278.40357,642.84375 L1277.5901,642.84375 L1277.5901,632.603516 L1278.34889,632.603516 L1278.3899,633.649414 C1278.92311,632.860999 1279.69556,632.466797 1280.70729,632.466797 C1281.5914,632.466797 1282.28525,632.801754 1282.78883,633.47168 C1283.29241,634.141605 1283.5442,635.071283 1283.5442,636.260742 L1283.5442,636.376953 Z M1282.72389,636.233398 C1282.72389,635.290034 1282.5302,634.544925 1282.14283,633.998047 C1281.75546,633.451169 1281.21543,633.177734 1280.52272,633.177734 C1280.02141,633.177734 1279.59075,633.298501 1279.23072,633.540039 C1278.8707,633.781577 1278.59498,634.132485 1278.40357,634.592773 L1278.40357,638.140625 C1278.59954,638.564455 1278.87981,638.88802 1279.2444,639.111328 C1279.60898,639.334637 1280.03964,639.446289 1280.53639,639.446289 C1281.22454,639.446289 1281.76116,639.171715 1282.14625,638.622559 C1282.53134,638.073402 1282.72389,637.277023 1282.72389,636.233398 Z M1290.11354,639.063477 C1289.62135,639.778975 1288.83522,640.136719 1287.75514,640.136719 C1286.96672,640.136719 1286.36744,639.907717 1285.95729,639.449707 C1285.54713,638.991697 1285.33749,638.313807 1285.32838,637.416016 L1285.32838,632.603516 L1286.14186,632.603516 L1286.14186,637.313477 C1286.14186,638.721687 1286.71151,639.425781 1287.85084,639.425781 C1289.03574,639.425781 1289.78541,638.935877 1290.09986,637.956055 L1290.09986,632.603516 L1290.92018,632.603516 L1290.92018,640 L1290.12721,640 L1290.11354,639.063477 Z M1296.46412,633.300781 C1296.29094,633.26888 1296.10638,633.25293 1295.91041,633.25293 C1295.39999,633.25293 1294.96819,633.395344 1294.615,633.680176 C1294.26181,633.965008 1294.01002,634.378578 1293.85963,634.920898 L1293.85963,640 L1293.04615,640 L1293.04615,632.603516 L1293.84596,632.603516 L1293.85963,633.779297 C1294.29257,632.904292 1294.98755,632.466797 1295.94459,632.466797 C1296.17246,632.466797 1296.35247,632.496419 1296.48463,632.555664 L1296.46412,633.300781 Z M1303.70338,636.376953 C1303.70338,637.529954 1303.44817,638.444821 1302.93775,639.121582 C1302.42734,639.798343 1301.74375,640.136719 1300.88697,640.136719 C1299.87525,640.136719 1299.10052,639.781254 1298.56275,639.070312 L1298.56275,642.84375 L1297.74928,642.84375 L1297.74928,632.603516 L1298.50807,632.603516 L1298.54908,633.649414 C1299.08229,632.860999 1299.85474,632.466797 1300.86647,632.466797 C1301.75058,632.466797 1302.44443,632.801754 1302.94801,633.47168 C1303.45159,634.141605 1303.70338,635.071283 1303.70338,636.260742 L1303.70338,636.376953 Z M1302.88307,636.233398 C1302.88307,635.290034 1302.68938,634.544925 1302.30201,633.998047 C1301.91464,633.451169 1301.37461,633.177734 1300.6819,633.177734 C1300.18059,633.177734 1299.74993,633.298501 1299.3899,633.540039 C1299.02988,633.781577 1298.75416,634.132485 1298.56275,634.592773 L1298.56275,638.140625 C1298.75872,638.564455 1299.03899,638.88802 1299.40357,639.111328 C1299.76816,639.334637 1300.19882,639.446289 1300.69557,639.446289 C1301.38372,639.446289 1301.92034,639.171715 1302.30543,638.622559 C1302.69052,638.073402 1302.88307,637.277023 1302.88307,636.233398 Z M1305.06373,636.192383 C1305.06373,635.481442 1305.20159,634.841149 1305.47731,634.271484 C1305.75302,633.70182 1306.14267,633.258628 1306.64625,632.941895 C1307.14983,632.625161 1307.72063,632.466797 1308.35865,632.466797 C1309.34303,632.466797 1310.14055,632.812008 1310.75123,633.502441 C1311.36191,634.192875 1311.66725,635.107742 1311.66725,636.24707 L1311.66725,636.417969 C1311.66725,637.133467 1311.52939,637.777178 1311.25367,638.349121 C1310.97796,638.921064 1310.58945,639.361978 1310.08815,639.671875 C1309.58684,639.981772 1309.01491,640.136719 1308.37232,640.136719 C1307.3925,640.136719 1306.59612,639.791507 1305.98316,639.101074 C1305.37021,638.410641 1305.06373,637.495774 1305.06373,636.356445 L1305.06373,636.192383 Z M1305.88404,636.417969 C1305.88404,637.302088 1306.11305,638.027829 1306.57106,638.595215 C1307.02907,639.1626 1307.62948,639.446289 1308.37232,639.446289 C1309.11061,639.446289 1309.70875,639.1626 1310.16676,638.595215 C1310.62477,638.027829 1310.85377,637.279302 1310.85377,636.349609 L1310.85377,636.192383 C1310.85377,635.627276 1310.74895,635.110028 1310.53932,634.640625 C1310.32968,634.171222 1310.03574,633.807781 1309.65748,633.550293 C1309.27922,633.292805 1308.84629,633.164062 1308.35865,633.164062 C1307.62948,633.164062 1307.03476,633.45003 1306.57447,634.021973 C1306.11418,634.593916 1305.88404,635.342443 1305.88404,636.267578 L1305.88404,636.417969 Z M1317.78541,638.120117 C1317.78541,637.714516 1317.62249,637.388673 1317.29664,637.142578 C1316.97079,636.896483 1316.47975,636.703939 1315.8235,636.564941 C1315.16724,636.425943 1314.65797,636.26644 1314.29566,636.086426 C1313.93336,635.906412 1313.66448,635.686525 1313.48902,635.426758 C1313.31357,635.166991 1313.22584,634.852541 1313.22584,634.483398 C1313.22584,633.900062 1313.46965,633.418133 1313.95729,633.037598 C1314.44492,632.657062 1315.06926,632.466797 1315.83033,632.466797 C1316.65521,632.466797 1317.31715,632.670734 1317.81617,633.078613 C1318.3152,633.486493 1318.56471,634.018551 1318.56471,634.674805 L1317.7444,634.674805 C1317.7444,634.24186 1317.56324,633.881837 1317.20094,633.594727 C1316.83863,633.307616 1316.38177,633.164062 1315.83033,633.164062 C1315.29257,633.164062 1314.86077,633.28369 1314.53492,633.522949 C1314.20907,633.762208 1314.04615,634.07324 1314.04615,634.456055 C1314.04615,634.825197 1314.18173,635.111164 1314.45289,635.313965 C1314.72405,635.516765 1315.21851,635.702473 1315.93629,635.871094 C1316.65407,636.039714 1317.19182,636.219726 1317.54957,636.411133 C1317.90732,636.60254 1318.17278,636.832681 1318.34596,637.101562 C1318.51914,637.370444 1318.60572,637.696287 1318.60572,638.079102 C1318.60572,638.703454 1318.35394,639.202472 1317.85035,639.576172 C1317.34677,639.949872 1316.68939,640.136719 1315.87818,640.136719 C1315.01685,640.136719 1314.31845,639.928225 1313.78297,639.51123 C1313.24749,639.094236 1312.97975,638.566735 1312.97975,637.928711 L1313.80006,637.928711 C1313.83196,638.407229 1314.03362,638.779784 1314.40504,639.046387 C1314.77646,639.31299 1315.2675,639.446289 1315.87818,639.446289 C1316.44785,639.446289 1316.90813,639.320965 1317.25904,639.070312 C1317.60996,638.81966 1317.78541,638.502932 1317.78541,638.120117 Z M1323.30885,640.136719 C1322.67994,640.136719 1322.11142,639.981772 1321.60328,639.671875 C1321.09514,639.361978 1320.6998,638.930179 1320.41725,638.376465 C1320.13469,637.822751 1319.99342,637.201826 1319.99342,636.513672 L1319.99342,636.219727 C1319.99342,635.508786 1320.13128,634.868492 1320.40699,634.298828 C1320.68271,633.729164 1321.06666,633.281414 1321.55885,632.955566 C1322.05104,632.629718 1322.58424,632.466797 1323.15846,632.466797 C1324.05625,632.466797 1324.76832,632.773272 1325.29469,633.38623 C1325.82106,633.999189 1326.08424,634.836583 1326.08424,635.898438 L1326.08424,636.356445 L1320.8069,636.356445 L1320.8069,636.513672 C1320.8069,637.352218 1321.04729,638.050616 1321.52809,638.608887 C1322.00888,639.167158 1322.61386,639.446289 1323.34303,639.446289 C1323.78053,639.446289 1324.16676,639.366537 1324.50172,639.207031 C1324.83668,639.047525 1325.14088,638.792319 1325.41432,638.441406 L1325.92701,638.831055 C1325.32545,639.701502 1324.45273,640.136719 1323.30885,640.136719 Z M1323.15846,633.164062 C1322.54322,633.164062 1322.02483,633.389646 1321.60328,633.84082 C1321.18173,634.291994 1320.92539,634.898108 1320.83424,635.65918 L1325.27076,635.65918 L1325.27076,635.570312 C1325.24798,634.859371 1325.04518,634.280601 1324.66236,633.833984 C1324.27955,633.387368 1323.77825,633.164062 1323.15846,633.164062 Z M1332.1067,638.120117 C1332.1067,637.714516 1331.94378,637.388673 1331.61793,637.142578 C1331.29208,636.896483 1330.80104,636.703939 1330.14479,636.564941 C1329.48853,636.425943 1328.97926,636.26644 1328.61695,636.086426 C1328.25465,635.906412 1327.98577,635.686525 1327.81031,635.426758 C1327.63486,635.166991 1327.54713,634.852541 1327.54713,634.483398 C1327.54713,633.900062 1327.79094,633.418133 1328.27857,633.037598 C1328.76621,632.657062 1329.39055,632.466797 1330.15162,632.466797 C1330.9765,632.466797 1331.63844,632.670734 1332.13746,633.078613 C1332.63649,633.486493 1332.886,634.018551 1332.886,634.674805 L1332.06568,634.674805 C1332.06568,634.24186 1331.88453,633.881837 1331.52223,633.594727 C1331.15992,633.307616 1330.70306,633.164062 1330.15162,633.164062 C1329.61386,633.164062 1329.18206,633.28369 1328.85621,633.522949 C1328.53036,633.762208 1328.36744,634.07324 1328.36744,634.456055 C1328.36744,634.825197 1328.50302,635.111164 1328.77418,635.313965 C1329.04534,635.516765 1329.5398,635.702473 1330.25758,635.871094 C1330.97536,636.039714 1331.51311,636.219726 1331.87086,636.411133 C1332.22861,636.60254 1332.49407,636.832681 1332.66725,637.101562 C1332.84042,637.370444 1332.92701,637.696287 1332.92701,638.079102 C1332.92701,638.703454 1332.67522,639.202472 1332.17164,639.576172 C1331.66806,639.949872 1331.01068,640.136719 1330.19947,640.136719 C1329.33814,640.136719 1328.63974,639.928225 1328.10426,639.51123 C1327.56877,639.094236 1327.30104,638.566735 1327.30104,637.928711 L1328.12135,637.928711 C1328.15325,638.407229 1328.35491,638.779784 1328.72633,639.046387 C1329.09775,639.31299 1329.58879,639.446289 1330.19947,639.446289 C1330.76914,639.446289 1331.22942,639.320965 1331.58033,639.070312 C1331.93125,638.81966 1332.1067,638.502932 1332.1067,638.120117 Z M1337.719,636.192383 C1337.719,635.481442 1337.85686,634.841149 1338.13258,634.271484 C1338.4083,633.70182 1338.79794,633.258628 1339.30152,632.941895 C1339.80511,632.625161 1340.3759,632.466797 1341.01393,632.466797 C1341.99831,632.466797 1342.79582,632.812008 1343.4065,633.502441 C1344.01718,634.192875 1344.32252,635.107742 1344.32252,636.24707 L1344.32252,636.417969 C1344.32252,637.133467 1344.18466,637.777178 1343.90895,638.349121 C1343.63323,638.921064 1343.24472,639.361978 1342.74342,639.671875 C1342.24211,639.981772 1341.67018,640.136719 1341.0276,640.136719 C1340.04778,640.136719 1339.2514,639.791507 1338.63844,639.101074 C1338.02548,638.410641 1337.719,637.495774 1337.719,636.356445 L1337.719,636.192383 Z M1338.53932,636.417969 C1338.53932,637.302088 1338.76832,638.027829 1339.22633,638.595215 C1339.68434,639.1626 1340.28476,639.446289 1341.0276,639.446289 C1341.76588,639.446289 1342.36402,639.1626 1342.82203,638.595215 C1343.28004,638.027829 1343.50904,637.279302 1343.50904,636.349609 L1343.50904,636.192383 C1343.50904,635.627276 1343.40423,635.110028 1343.19459,634.640625 C1342.98495,634.171222 1342.69101,633.807781 1342.31275,633.550293 C1341.9345,633.292805 1341.50156,633.164062 1341.01393,633.164062 C1340.28476,633.164062 1339.69004,633.45003 1339.22975,634.021973 C1338.76946,634.593916 1338.53932,635.342443 1338.53932,636.267578 L1338.53932,636.417969 Z M1346.79029,632.603516 L1346.81764,633.868164 C1347.09563,633.412433 1347.44198,633.064943 1347.8567,632.825684 C1348.27142,632.586425 1348.72942,632.466797 1349.23072,632.466797 C1350.0237,632.466797 1350.61386,632.690102 1351.00123,633.136719 C1351.3886,633.583336 1351.58456,634.253251 1351.58912,635.146484 L1351.58912,640 L1350.77565,640 L1350.77565,635.139648 C1350.77109,634.478838 1350.63095,633.986655 1350.35524,633.663086 C1350.07952,633.339517 1349.6386,633.177734 1349.03248,633.177734 C1348.52662,633.177734 1348.07887,633.336099 1347.68922,633.652832 C1347.29957,633.969565 1347.01132,634.396807 1346.82447,634.93457 L1346.82447,640 L1346.011,640 L1346.011,632.603516 L1346.79029,632.603516 Z M1354.61744,640 L1353.79713,640 L1353.79713,629.5 L1354.61744,629.5 L1354.61744,640 Z M1359.18385,638.824219 L1361.344,632.603516 L1362.22584,632.603516 L1359.06764,641.257812 L1358.90357,641.640625 C1358.49797,642.538416 1357.87135,642.987305 1357.02369,642.987305 C1356.82773,642.987305 1356.61809,642.955404 1356.39479,642.891602 L1356.38795,642.214844 L1356.81178,642.255859 C1357.21282,642.255859 1357.53753,642.156739 1357.7859,641.958496 C1358.03427,641.760253 1358.24505,641.419599 1358.41822,640.936523 L1358.78053,639.938477 L1355.99147,632.603516 L1356.88697,632.603516 L1359.18385,638.824219 Z M1362.68385,639.507812 C1362.68385,639.348306 1362.73512,639.212728 1362.83766,639.101074 C1362.9402,638.98942 1363.08261,638.933594 1363.2649,638.933594 C1363.4472,638.933594 1363.59075,638.98942 1363.69557,639.101074 C1363.80039,639.212728 1363.85279,639.348306 1363.85279,639.507812 C1363.85279,639.667319 1363.80039,639.798339 1363.69557,639.900879 C1363.59075,640.003418 1363.4472,640.054688 1363.2649,640.054688 C1363.08261,640.054688 1362.9402,640.003418 1362.83766,639.900879 C1362.73512,639.798339 1362.68385,639.667319 1362.68385,639.507812 Z M1088.81568,650.764648 L1085.40455,650.764648 L1085.40455,660 L1084.56373,660 L1084.56373,650.764648 L1081.15943,650.764648 L1081.15943,650.046875 L1088.81568,650.046875 L1088.81568,650.764648 Z M1093.136,653.300781 C1092.96282,653.26888 1092.77825,653.25293 1092.58229,653.25293 C1092.07187,653.25293 1091.64007,653.395344 1091.28688,653.680176 C1090.93368,653.965008 1090.6819,654.378578 1090.5315,654.920898 L1090.5315,660 L1089.71803,660 L1089.71803,652.603516 L1090.51783,652.603516 L1090.5315,653.779297 C1090.96445,652.904292 1091.65943,652.466797 1092.61647,652.466797 C1092.84433,652.466797 1093.02434,652.496419 1093.1565,652.555664 L1093.136,653.300781 Z M1097.16236,660.136719 C1096.53345,660.136719 1095.96494,659.981772 1095.4568,659.671875 C1094.94866,659.361978 1094.55332,658.930179 1094.27076,658.376465 C1093.98821,657.822751 1093.84693,657.201826 1093.84693,656.513672 L1093.84693,656.219727 C1093.84693,655.508786 1093.98479,654.868492 1094.26051,654.298828 C1094.53623,653.729164 1094.92017,653.281414 1095.41236,652.955566 C1095.90455,652.629718 1096.43775,652.466797 1097.01197,652.466797 C1097.90976,652.466797 1098.62183,652.773272 1099.1482,653.38623 C1099.67457,653.999189 1099.93775,654.836583 1099.93775,655.898438 L1099.93775,656.356445 L1094.66041,656.356445 L1094.66041,656.513672 C1094.66041,657.352218 1094.90081,658.050616 1095.3816,658.608887 C1095.8624,659.167158 1096.46737,659.446289 1097.19654,659.446289 C1097.63405,659.446289 1098.02027,659.366537 1098.35524,659.207031 C1098.6902,659.047525 1098.99439,658.792319 1099.26783,658.441406 L1099.78053,658.831055 C1099.17896,659.701502 1098.30625,660.136719 1097.16236,660.136719 Z M1097.01197,653.164062 C1096.39674,653.164062 1095.87835,653.389646 1095.4568,653.84082 C1095.03525,654.291994 1094.7789,654.898108 1094.68775,655.65918 L1099.12428,655.65918 L1099.12428,655.570312 C1099.10149,654.859371 1098.89869,654.280601 1098.51588,653.833984 C1098.13307,653.387368 1097.63177,653.164062 1097.01197,653.164062 Z M1102.30982,652.603516 L1102.33717,653.868164 C1102.61516,653.412433 1102.96152,653.064943 1103.37623,652.825684 C1103.79095,652.586425 1104.24895,652.466797 1104.75025,652.466797 C1105.54323,652.466797 1106.13339,652.690102 1106.52076,653.136719 C1106.90813,653.583336 1107.1041,654.253251 1107.10865,655.146484 L1107.10865,660 L1106.29518,660 L1106.29518,655.139648 C1106.29062,654.478838 1106.15048,653.986655 1105.87477,653.663086 C1105.59905,653.339517 1105.15814,653.177734 1104.55201,653.177734 C1104.04615,653.177734 1103.5984,653.336099 1103.20875,653.652832 C1102.8191,653.969565 1102.53085,654.396807 1102.344,654.93457 L1102.344,660 L1101.53053,660 L1101.53053,652.603516 L1102.30982,652.603516 Z M1108.89283,656.233398 C1108.89283,655.084955 1109.14918,654.170088 1109.66188,653.48877 C1110.17457,652.807451 1110.87069,652.466797 1111.75025,652.466797 C1112.74831,652.466797 1113.50937,652.860999 1114.03346,653.649414 L1114.03346,649.5 L1114.84693,649.5 L1114.84693,660 L1114.08131,660 L1114.04713,659.015625 C1113.52304,659.763025 1112.75286,660.136719 1111.73658,660.136719 C1110.88437,660.136719 1110.19736,659.793786 1109.67555,659.10791 C1109.15374,658.422034 1108.89283,657.495774 1108.89283,656.329102 L1108.89283,656.233398 Z M1109.71998,656.376953 C1109.71998,657.320317 1109.90911,658.064288 1110.28736,658.608887 C1110.66562,659.153486 1111.19882,659.425781 1111.88697,659.425781 C1112.89414,659.425781 1113.60963,658.98145 1114.03346,658.092773 L1114.03346,654.620117 C1113.60963,653.658524 1112.8987,653.177734 1111.90065,653.177734 C1111.21249,653.177734 1110.67701,653.447751 1110.2942,653.987793 C1109.91139,654.527835 1109.71998,655.324213 1109.71998,656.376953 Z M1122.17506,658.297852 L1122.29811,658.933594 L1122.46217,658.263672 L1124.23951,652.603516 L1124.93678,652.603516 L1126.69361,658.21582 L1126.88502,658.995117 L1127.04225,658.277344 L1128.55982,652.603516 L1129.40748,652.603516 L1127.25416,660 L1126.5569,660 L1124.6565,654.134766 L1124.56764,653.731445 L1124.47877,654.141602 L1122.61256,660 L1121.91529,660 L1119.76881,652.603516 L1120.60963,652.603516 L1122.17506,658.297852 Z M1131.87525,660 L1131.05494,660 L1131.05494,652.603516 L1131.87525,652.603516 L1131.87525,660 Z M1130.91139,650.463867 C1130.91139,650.308918 1130.96152,650.177898 1131.06178,650.070801 C1131.16204,649.963704 1131.29876,649.910156 1131.47193,649.910156 C1131.64511,649.910156 1131.78297,649.963704 1131.88551,650.070801 C1131.98805,650.177898 1132.03932,650.308918 1132.03932,650.463867 C1132.03932,650.618816 1131.98805,650.748697 1131.88551,650.853516 C1131.78297,650.958334 1131.64511,651.010742 1131.47193,651.010742 C1131.29876,651.010742 1131.16204,650.958334 1131.06178,650.853516 C1130.96152,650.748697 1130.91139,650.618816 1130.91139,650.463867 Z M1135.01295,660 L1134.19264,660 L1134.19264,649.5 L1135.01295,649.5 L1135.01295,660 Z M1138.15065,660 L1137.33033,660 L1137.33033,649.5 L1138.15065,649.5 L1138.15065,660 Z M1143.4485,656.233398 C1143.4485,655.084955 1143.70484,654.170088 1144.21754,653.48877 C1144.73024,652.807451 1145.42636,652.466797 1146.30592,652.466797 C1147.30397,652.466797 1148.06503,652.860999 1148.58912,653.649414 L1148.58912,649.5 L1149.4026,649.5 L1149.4026,660 L1148.63697,660 L1148.60279,659.015625 C1148.0787,659.763025 1147.30853,660.136719 1146.29225,660.136719 C1145.44003,660.136719 1144.75302,659.793786 1144.23121,659.10791 C1143.7094,658.422034 1143.4485,657.495774 1143.4485,656.329102 L1143.4485,656.233398 Z M1144.27565,656.376953 C1144.27565,657.320317 1144.46477,658.064288 1144.84303,658.608887 C1145.22129,659.153486 1145.75448,659.425781 1146.44264,659.425781 C1147.4498,659.425781 1148.16529,658.98145 1148.58912,658.092773 L1148.58912,654.620117 C1148.16529,653.658524 1147.45436,653.177734 1146.45631,653.177734 C1145.76815,653.177734 1145.23268,653.447751 1144.84986,653.987793 C1144.46705,654.527835 1144.27565,655.324213 1144.27565,656.376953 Z M1154.42018,660.136719 C1153.79127,660.136719 1153.22275,659.981772 1152.71461,659.671875 C1152.20647,659.361978 1151.81113,658.930179 1151.52857,658.376465 C1151.24602,657.822751 1151.10475,657.201826 1151.10475,656.513672 L1151.10475,656.219727 C1151.10475,655.508786 1151.2426,654.868492 1151.51832,654.298828 C1151.79404,653.729164 1152.17799,653.281414 1152.67018,652.955566 C1153.16237,652.629718 1153.69556,652.466797 1154.26979,652.466797 C1155.16758,652.466797 1155.87965,652.773272 1156.40602,653.38623 C1156.93239,653.999189 1157.19557,654.836583 1157.19557,655.898438 L1157.19557,656.356445 L1151.91822,656.356445 L1151.91822,656.513672 C1151.91822,657.352218 1152.15862,658.050616 1152.63941,658.608887 C1153.12021,659.167158 1153.72519,659.446289 1154.45436,659.446289 C1154.89186,659.446289 1155.27809,659.366537 1155.61305,659.207031 C1155.94801,659.047525 1156.25221,658.792319 1156.52565,658.441406 L1157.03834,658.831055 C1156.43678,659.701502 1155.56406,660.136719 1154.42018,660.136719 Z M1154.26979,653.164062 C1153.65455,653.164062 1153.13616,653.389646 1152.71461,653.84082 C1152.29306,654.291994 1152.03671,654.898108 1151.94557,655.65918 L1156.38209,655.65918 L1156.38209,655.570312 C1156.3593,654.859371 1156.15651,654.280601 1155.77369,653.833984 C1155.39088,653.387368 1154.88958,653.164062 1154.26979,653.164062 Z M1164.73561,656.376953 C1164.73561,657.529954 1164.4804,658.444821 1163.96998,659.121582 C1163.45956,659.798343 1162.77598,660.136719 1161.9192,660.136719 C1160.90748,660.136719 1160.13274,659.781254 1159.59498,659.070312 L1159.59498,662.84375 L1158.7815,662.84375 L1158.7815,652.603516 L1159.54029,652.603516 L1159.58131,653.649414 C1160.11452,652.860999 1160.88697,652.466797 1161.89869,652.466797 C1162.78281,652.466797 1163.47665,652.801754 1163.98024,653.47168 C1164.48382,654.141605 1164.73561,655.071283 1164.73561,656.260742 L1164.73561,656.376953 Z M1163.91529,656.233398 C1163.91529,655.290034 1163.72161,654.544925 1163.33424,653.998047 C1162.94687,653.451169 1162.40683,653.177734 1161.71412,653.177734 C1161.21282,653.177734 1160.78216,653.298501 1160.42213,653.540039 C1160.0621,653.781577 1159.78639,654.132485 1159.59498,654.592773 L1159.59498,658.140625 C1159.79095,658.564455 1160.07122,658.88802 1160.4358,659.111328 C1160.80039,659.334637 1161.23105,659.446289 1161.72779,659.446289 C1162.41595,659.446289 1162.95256,659.171715 1163.33766,658.622559 C1163.72275,658.073402 1163.91529,657.277023 1163.91529,656.233398 Z M1169.41139,660.136719 C1168.78248,660.136719 1168.21396,659.981772 1167.70582,659.671875 C1167.19768,659.361978 1166.80234,658.930179 1166.51979,658.376465 C1166.23723,657.822751 1166.09596,657.201826 1166.09596,656.513672 L1166.09596,656.219727 C1166.09596,655.508786 1166.23381,654.868492 1166.50953,654.298828 C1166.78525,653.729164 1167.1692,653.281414 1167.66139,652.955566 C1168.15358,652.629718 1168.68678,652.466797 1169.261,652.466797 C1170.15879,652.466797 1170.87086,652.773272 1171.39723,653.38623 C1171.9236,653.999189 1172.18678,654.836583 1172.18678,655.898438 L1172.18678,656.356445 L1166.90943,656.356445 L1166.90943,656.513672 C1166.90943,657.352218 1167.14983,658.050616 1167.63063,658.608887 C1168.11142,659.167158 1168.7164,659.446289 1169.44557,659.446289 C1169.88307,659.446289 1170.2693,659.366537 1170.60426,659.207031 C1170.93922,659.047525 1171.24342,658.792319 1171.51686,658.441406 L1172.02955,658.831055 C1171.42799,659.701502 1170.55527,660.136719 1169.41139,660.136719 Z M1169.261,653.164062 C1168.64576,653.164062 1168.12737,653.389646 1167.70582,653.84082 C1167.28427,654.291994 1167.02792,654.898108 1166.93678,655.65918 L1171.3733,655.65918 L1171.3733,655.570312 C1171.35051,654.859371 1171.14772,654.280601 1170.7649,653.833984 C1170.38209,653.387368 1169.88079,653.164062 1169.261,653.164062 Z M1174.55885,652.603516 L1174.58619,653.868164 C1174.86419,653.412433 1175.21054,653.064943 1175.62525,652.825684 C1176.03997,652.586425 1176.49797,652.466797 1176.99928,652.466797 C1177.79225,652.466797 1178.38241,652.690102 1178.76979,653.136719 C1179.15716,653.583336 1179.35312,654.253251 1179.35768,655.146484 L1179.35768,660 L1178.5442,660 L1178.5442,655.139648 C1178.53964,654.478838 1178.39951,653.986655 1178.12379,653.663086 C1177.84807,653.339517 1177.40716,653.177734 1176.80104,653.177734 C1176.29517,653.177734 1175.84742,653.336099 1175.45777,653.652832 C1175.06812,653.969565 1174.77988,654.396807 1174.59303,654.93457 L1174.59303,660 L1173.77955,660 L1173.77955,652.603516 L1174.55885,652.603516 Z M1181.14186,656.233398 C1181.14186,655.084955 1181.3982,654.170088 1181.9109,653.48877 C1182.4236,652.807451 1183.11972,652.466797 1183.99928,652.466797 C1184.99733,652.466797 1185.75839,652.860999 1186.28248,653.649414 L1186.28248,649.5 L1187.09596,649.5 L1187.09596,660 L1186.33033,660 L1186.29615,659.015625 C1185.77206,659.763025 1185.00189,660.136719 1183.98561,660.136719 C1183.13339,660.136719 1182.44638,659.793786 1181.92457,659.10791 C1181.40276,658.422034 1181.14186,657.495774 1181.14186,656.329102 L1181.14186,656.233398 Z M1181.969,656.376953 C1181.969,657.320317 1182.15813,658.064288 1182.53639,658.608887 C1182.91464,659.153486 1183.44784,659.425781 1184.136,659.425781 C1185.14316,659.425781 1185.85865,658.98145 1186.28248,658.092773 L1186.28248,654.620117 C1185.85865,653.658524 1185.14772,653.177734 1184.14967,653.177734 C1183.46151,653.177734 1182.92604,653.447751 1182.54322,653.987793 C1182.16041,654.527835 1181.969,655.324213 1181.969,656.376953 Z M1192.2024,656.192383 C1192.2024,655.481442 1192.34026,654.841149 1192.61598,654.271484 C1192.89169,653.70182 1193.28134,653.258628 1193.78492,652.941895 C1194.28851,652.625161 1194.8593,652.466797 1195.49732,652.466797 C1196.4817,652.466797 1197.27922,652.812008 1197.8899,653.502441 C1198.50058,654.192875 1198.80592,655.107742 1198.80592,656.24707 L1198.80592,656.417969 C1198.80592,657.133467 1198.66806,657.777178 1198.39234,658.349121 C1198.11663,658.921064 1197.72812,659.361978 1197.22682,659.671875 C1196.72551,659.981772 1196.15358,660.136719 1195.511,660.136719 C1194.53117,660.136719 1193.7348,659.791507 1193.12184,659.101074 C1192.50888,658.410641 1192.2024,657.495774 1192.2024,656.356445 L1192.2024,656.192383 Z M1193.02272,656.417969 C1193.02272,657.302088 1193.25172,658.027829 1193.70973,658.595215 C1194.16774,659.1626 1194.76815,659.446289 1195.511,659.446289 C1196.24928,659.446289 1196.84742,659.1626 1197.30543,658.595215 C1197.76344,658.027829 1197.99244,657.279302 1197.99244,656.349609 L1197.99244,656.192383 C1197.99244,655.627276 1197.88763,655.110028 1197.67799,654.640625 C1197.46835,654.171222 1197.17441,653.807781 1196.79615,653.550293 C1196.4179,653.292805 1195.98496,653.164062 1195.49732,653.164062 C1194.76815,653.164062 1194.17343,653.45003 1193.71315,654.021973 C1193.25286,654.593916 1193.02272,655.342443 1193.02272,656.267578 L1193.02272,656.417969 Z M1201.27369,652.603516 L1201.30104,653.868164 C1201.57903,653.412433 1201.92538,653.064943 1202.3401,652.825684 C1202.75481,652.586425 1203.21282,652.466797 1203.71412,652.466797 C1204.50709,652.466797 1205.09726,652.690102 1205.48463,653.136719 C1205.872,653.583336 1206.06796,654.253251 1206.07252,655.146484 L1206.07252,660 L1205.25904,660 L1205.25904,655.139648 C1205.25449,654.478838 1205.11435,653.986655 1204.83863,653.663086 C1204.56292,653.339517 1204.122,653.177734 1203.51588,653.177734 C1203.01002,653.177734 1202.56227,653.336099 1202.17262,653.652832 C1201.78297,653.969565 1201.49472,654.396807 1201.30787,654.93457 L1201.30787,660 L1200.4944,660 L1200.4944,652.603516 L1201.27369,652.603516 Z M1216.25807,660 C1216.17604,659.767577 1216.12363,659.423505 1216.10084,658.967773 C1215.81373,659.341473 1215.44801,659.629719 1215.00367,659.83252 C1214.55933,660.03532 1214.0888,660.136719 1213.59205,660.136719 C1212.88111,660.136719 1212.30576,659.938479 1211.86598,659.541992 C1211.4262,659.145506 1211.20631,658.644209 1211.20631,658.038086 C1211.20631,657.31803 1211.50595,656.748374 1212.10524,656.329102 C1212.70452,655.909829 1213.53964,655.700195 1214.61061,655.700195 L1216.094,655.700195 L1216.094,654.859375 C1216.094,654.330727 1215.93108,653.914878 1215.60524,653.611816 C1215.27939,653.308755 1214.80429,653.157227 1214.17994,653.157227 C1213.61028,653.157227 1213.1386,653.303058 1212.7649,653.594727 C1212.3912,653.886395 1212.20436,654.237303 1212.20436,654.647461 L1211.38404,654.640625 C1211.38404,654.052731 1211.65748,653.543459 1212.20436,653.112793 C1212.75123,652.682127 1213.42343,652.466797 1214.22096,652.466797 C1215.04583,652.466797 1215.69638,652.673012 1216.17262,653.085449 C1216.64886,653.497886 1216.89381,654.073238 1216.90748,654.811523 L1216.90748,658.311523 C1216.90748,659.027022 1216.98268,659.562498 1217.13307,659.917969 L1217.13307,660 L1216.25807,660 Z M1213.68775,659.412109 C1214.23463,659.412109 1214.7234,659.279949 1215.15406,659.015625 C1215.58473,658.751301 1215.89804,658.398114 1216.094,657.956055 L1216.094,656.329102 L1214.63111,656.329102 C1213.81535,656.338216 1213.17734,656.487466 1212.71705,656.776855 C1212.25676,657.066245 1212.02662,657.463865 1212.02662,657.969727 C1212.02662,658.384442 1212.18043,658.728514 1212.48805,659.001953 C1212.79567,659.275392 1213.19556,659.412109 1213.68775,659.412109 Z M1221.82252,659.446289 C1222.39218,659.446289 1222.86956,659.285646 1223.25465,658.964355 C1223.63974,658.643065 1223.84824,658.227216 1223.88014,657.716797 L1224.66627,657.716797 C1224.64348,658.167971 1224.50221,658.579262 1224.24244,658.950684 C1223.98268,659.322105 1223.63746,659.612629 1223.2068,659.822266 C1222.77613,660.031902 1222.31471,660.136719 1221.82252,660.136719 C1220.85181,660.136719 1220.08278,659.799483 1219.51539,659.125 C1218.94801,658.450517 1218.66432,657.543625 1218.66432,656.404297 L1218.66432,656.158203 C1218.66432,655.429033 1218.79192,654.784182 1219.04713,654.223633 C1219.30234,653.663083 1219.66806,653.230145 1220.1443,652.924805 C1220.62054,652.619465 1221.17766,652.466797 1221.81568,652.466797 C1222.62689,652.466797 1223.29566,652.708331 1223.82203,653.191406 C1224.3484,653.674482 1224.62981,654.310217 1224.66627,655.098633 L1223.88014,655.098633 C1223.84368,654.519854 1223.63518,654.052736 1223.25465,653.697266 C1222.87411,653.341795 1222.39446,653.164062 1221.81568,653.164062 C1221.0774,653.164062 1220.50433,653.430661 1220.09645,653.963867 C1219.68857,654.497073 1219.48463,655.244461 1219.48463,656.206055 L1219.48463,656.445312 C1219.48463,657.388677 1219.68857,658.124672 1220.09645,658.65332 C1220.50433,659.181969 1221.07968,659.446289 1221.82252,659.446289 Z M1227.57154,650.709961 L1227.57154,652.603516 L1229.10279,652.603516 L1229.10279,653.273438 L1227.57154,653.273438 L1227.57154,658.202148 C1227.57154,658.612307 1227.6456,658.917642 1227.79371,659.118164 C1227.94182,659.318686 1228.18906,659.418945 1228.53541,659.418945 C1228.67213,659.418945 1228.89316,659.396159 1229.1985,659.350586 L1229.23268,660.020508 C1229.01848,660.097982 1228.72682,660.136719 1228.35768,660.136719 C1227.79713,660.136719 1227.38925,659.973797 1227.13404,659.647949 C1226.87883,659.322101 1226.75123,658.842451 1226.75123,658.208984 L1226.75123,653.273438 L1225.39088,653.273438 L1225.39088,652.603516 L1226.75123,652.603516 L1226.75123,650.709961 L1227.57154,650.709961 Z M1235.55592,659.063477 C1235.06373,659.778975 1234.2776,660.136719 1233.19752,660.136719 C1232.4091,660.136719 1231.80983,659.907717 1231.39967,659.449707 C1230.98951,658.991697 1230.77988,658.313807 1230.77076,657.416016 L1230.77076,652.603516 L1231.58424,652.603516 L1231.58424,657.313477 C1231.58424,658.721687 1232.15389,659.425781 1233.29322,659.425781 C1234.47813,659.425781 1235.22779,658.935877 1235.54225,657.956055 L1235.54225,652.603516 L1236.36256,652.603516 L1236.36256,660 L1235.56959,660 L1235.55592,659.063477 Z M1243.15748,660 C1243.07545,659.767577 1243.02304,659.423505 1243.00025,658.967773 C1242.71314,659.341473 1242.34742,659.629719 1241.90309,659.83252 C1241.45875,660.03532 1240.98821,660.136719 1240.49147,660.136719 C1239.78052,660.136719 1239.20517,659.938479 1238.76539,659.541992 C1238.32561,659.145506 1238.10572,658.644209 1238.10572,658.038086 C1238.10572,657.31803 1238.40536,656.748374 1239.00465,656.329102 C1239.60394,655.909829 1240.43905,655.700195 1241.51002,655.700195 L1242.99342,655.700195 L1242.99342,654.859375 C1242.99342,654.330727 1242.8305,653.914878 1242.50465,653.611816 C1242.1788,653.308755 1241.70371,653.157227 1241.07936,653.157227 C1240.50969,653.157227 1240.03802,653.303058 1239.66432,653.594727 C1239.29062,653.886395 1239.10377,654.237303 1239.10377,654.647461 L1238.28346,654.640625 C1238.28346,654.052731 1238.55689,653.543459 1239.10377,653.112793 C1239.65065,652.682127 1240.32284,652.466797 1241.12037,652.466797 C1241.94525,652.466797 1242.59579,652.673012 1243.07203,653.085449 C1243.54827,653.497886 1243.79322,654.073238 1243.8069,654.811523 L1243.8069,658.311523 C1243.8069,659.027022 1243.88209,659.562498 1244.03248,659.917969 L1244.03248,660 L1243.15748,660 Z M1240.58717,659.412109 C1241.13405,659.412109 1241.62281,659.279949 1242.05348,659.015625 C1242.48414,658.751301 1242.79745,658.398114 1242.99342,657.956055 L1242.99342,656.329102 L1241.53053,656.329102 C1240.71477,656.338216 1240.07675,656.487466 1239.61647,656.776855 C1239.15618,657.066245 1238.92604,657.463865 1238.92604,657.969727 C1238.92604,658.384442 1239.07984,658.728514 1239.38746,659.001953 C1239.69508,659.275392 1240.09498,659.412109 1240.58717,659.412109 Z M1246.90357,660 L1246.08326,660 L1246.08326,649.5 L1246.90357,649.5 L1246.90357,660 Z M1253.11744,660 L1253.11744,653.273438 L1251.89381,653.273438 L1251.89381,652.603516 L1253.11744,652.603516 L1253.11744,651.708008 C1253.11744,650.951494 1253.30999,650.370445 1253.69508,649.964844 C1254.08017,649.559243 1254.61679,649.356445 1255.30494,649.356445 C1255.61484,649.356445 1255.90422,649.395182 1256.17311,649.472656 L1256.11158,650.15625 C1255.88372,650.101562 1255.63535,650.074219 1255.36647,650.074219 C1254.91529,650.074219 1254.56438,650.214354 1254.31373,650.494629 C1254.06308,650.774904 1253.93775,651.172523 1253.93775,651.6875 L1253.93775,652.603516 L1255.70143,652.603516 L1255.70143,653.273438 L1253.93775,653.273438 L1253.93775,660 L1253.11744,660 Z M1261.92213,659.063477 C1261.42994,659.778975 1260.64381,660.136719 1259.56373,660.136719 C1258.77532,660.136719 1258.17604,659.907717 1257.76588,659.449707 C1257.35572,658.991697 1257.14609,658.313807 1257.13697,657.416016 L1257.13697,652.603516 L1257.95045,652.603516 L1257.95045,657.313477 C1257.95045,658.721687 1258.52011,659.425781 1259.65943,659.425781 C1260.84434,659.425781 1261.594,658.935877 1261.90846,657.956055 L1261.90846,652.603516 L1262.72877,652.603516 L1262.72877,660 L1261.9358,660 L1261.92213,659.063477 Z M1265.63404,652.603516 L1265.66139,653.868164 C1265.93938,653.412433 1266.28573,653.064943 1266.70045,652.825684 C1267.11517,652.586425 1267.57317,652.466797 1268.07447,652.466797 C1268.86745,652.466797 1269.45761,652.690102 1269.84498,653.136719 C1270.23235,653.583336 1270.42831,654.253251 1270.43287,655.146484 L1270.43287,660 L1269.6194,660 L1269.6194,655.139648 C1269.61484,654.478838 1269.4747,653.986655 1269.19899,653.663086 C1268.92327,653.339517 1268.48235,653.177734 1267.87623,653.177734 C1267.37037,653.177734 1266.92262,653.336099 1266.53297,653.652832 C1266.14332,653.969565 1265.85507,654.396807 1265.66822,654.93457 L1265.66822,660 L1264.85475,660 L1264.85475,652.603516 L1265.63404,652.603516 Z M1272.21705,656.233398 C1272.21705,655.084955 1272.4734,654.170088 1272.98609,653.48877 C1273.49879,652.807451 1274.19491,652.466797 1275.07447,652.466797 C1276.07253,652.466797 1276.83359,652.860999 1277.35768,653.649414 L1277.35768,649.5 L1278.17115,649.5 L1278.17115,660 L1277.40553,660 L1277.37135,659.015625 C1276.84726,659.763025 1276.07708,660.136719 1275.0608,660.136719 C1274.20858,660.136719 1273.52158,659.793786 1272.99977,659.10791 C1272.47795,658.422034 1272.21705,657.495774 1272.21705,656.329102 L1272.21705,656.233398 Z M1273.0442,656.376953 C1273.0442,657.320317 1273.23333,658.064288 1273.61158,658.608887 C1273.98984,659.153486 1274.52304,659.425781 1275.21119,659.425781 C1276.21836,659.425781 1276.93385,658.98145 1277.35768,658.092773 L1277.35768,654.620117 C1276.93385,653.658524 1276.22292,653.177734 1275.22486,653.177734 C1274.53671,653.177734 1274.00123,653.447751 1273.61842,653.987793 C1273.2356,654.527835 1273.0442,655.324213 1273.0442,656.376953 Z M1289.67604,656.376953 C1289.67604,657.529954 1289.42083,658.444821 1288.91041,659.121582 C1288.39999,659.798343 1287.7164,660.136719 1286.85963,660.136719 C1285.84791,660.136719 1285.07317,659.781254 1284.53541,659.070312 L1284.53541,662.84375 L1283.72193,662.84375 L1283.72193,652.603516 L1284.48072,652.603516 L1284.52174,653.649414 C1285.05494,652.860999 1285.8274,652.466797 1286.83912,652.466797 C1287.72324,652.466797 1288.41708,652.801754 1288.92066,653.47168 C1289.42425,654.141605 1289.67604,655.071283 1289.67604,656.260742 L1289.67604,656.376953 Z M1288.85572,656.233398 C1288.85572,655.290034 1288.66204,654.544925 1288.27467,653.998047 C1287.8873,653.451169 1287.34726,653.177734 1286.65455,653.177734 C1286.15325,653.177734 1285.72259,653.298501 1285.36256,653.540039 C1285.00253,653.781577 1284.72682,654.132485 1284.53541,654.592773 L1284.53541,658.140625 C1284.73138,658.564455 1285.01165,658.88802 1285.37623,659.111328 C1285.74082,659.334637 1286.17148,659.446289 1286.66822,659.446289 C1287.35638,659.446289 1287.89299,659.171715 1288.27809,658.622559 C1288.66318,658.073402 1288.85572,657.277023 1288.85572,656.233398 Z M1294.35182,660.136719 C1293.72291,660.136719 1293.15439,659.981772 1292.64625,659.671875 C1292.13811,659.361978 1291.74277,658.930179 1291.46022,658.376465 C1291.17766,657.822751 1291.03639,657.201826 1291.03639,656.513672 L1291.03639,656.219727 C1291.03639,655.508786 1291.17424,654.868492 1291.44996,654.298828 C1291.72568,653.729164 1292.10963,653.281414 1292.60182,652.955566 C1293.09401,652.629718 1293.6272,652.466797 1294.20143,652.466797 C1295.09922,652.466797 1295.81129,652.773272 1296.33766,653.38623 C1296.86403,653.999189 1297.12721,654.836583 1297.12721,655.898438 L1297.12721,656.356445 L1291.84986,656.356445 L1291.84986,656.513672 C1291.84986,657.352218 1292.09026,658.050616 1292.57106,658.608887 C1293.05185,659.167158 1293.65683,659.446289 1294.386,659.446289 C1294.8235,659.446289 1295.20973,659.366537 1295.54469,659.207031 C1295.87965,659.047525 1296.18385,658.792319 1296.45729,658.441406 L1296.96998,658.831055 C1296.36842,659.701502 1295.4957,660.136719 1294.35182,660.136719 Z M1294.20143,653.164062 C1293.58619,653.164062 1293.0678,653.389646 1292.64625,653.84082 C1292.2247,654.291994 1291.96835,654.898108 1291.87721,655.65918 L1296.31373,655.65918 L1296.31373,655.570312 C1296.29094,654.859371 1296.08815,654.280601 1295.70533,653.833984 C1295.32252,653.387368 1294.82122,653.164062 1294.20143,653.164062 Z M1302.13795,653.300781 C1301.96477,653.26888 1301.7802,653.25293 1301.58424,653.25293 C1301.07382,653.25293 1300.64202,653.395344 1300.28883,653.680176 C1299.93564,653.965008 1299.68385,654.378578 1299.53346,654.920898 L1299.53346,660 L1298.71998,660 L1298.71998,652.603516 L1299.51979,652.603516 L1299.53346,653.779297 C1299.9664,652.904292 1300.66138,652.466797 1301.61842,652.466797 C1301.84628,652.466797 1302.0263,652.496419 1302.15846,652.555664 L1302.13795,653.300781 Z M1304.12037,660 L1304.12037,653.273438 L1302.89674,653.273438 L1302.89674,652.603516 L1304.12037,652.603516 L1304.12037,651.708008 C1304.12037,650.951494 1304.31292,650.370445 1304.69801,649.964844 C1305.0831,649.559243 1305.61972,649.356445 1306.30787,649.356445 C1306.61777,649.356445 1306.90715,649.395182 1307.17604,649.472656 L1307.11451,650.15625 C1306.88665,650.101562 1306.63828,650.074219 1306.3694,650.074219 C1305.91822,650.074219 1305.56731,650.214354 1305.31666,650.494629 C1305.06601,650.774904 1304.94068,651.172523 1304.94068,651.6875 L1304.94068,652.603516 L1306.70436,652.603516 L1306.70436,653.273438 L1304.94068,653.273438 L1304.94068,660 L1304.12037,660 Z M1307.71607,656.192383 C1307.71607,655.481442 1307.85393,654.841149 1308.12965,654.271484 C1308.40537,653.70182 1308.79501,653.258628 1309.29859,652.941895 C1309.80218,652.625161 1310.37297,652.466797 1311.011,652.466797 C1311.99538,652.466797 1312.79289,652.812008 1313.40357,653.502441 C1314.01426,654.192875 1314.31959,655.107742 1314.31959,656.24707 L1314.31959,656.417969 C1314.31959,657.133467 1314.18173,657.777178 1313.90602,658.349121 C1313.6303,658.921064 1313.24179,659.361978 1312.74049,659.671875 C1312.23918,659.981772 1311.66725,660.136719 1311.02467,660.136719 C1310.04485,660.136719 1309.24847,659.791507 1308.63551,659.101074 C1308.02255,658.410641 1307.71607,657.495774 1307.71607,656.356445 L1307.71607,656.192383 Z M1308.53639,656.417969 C1308.53639,657.302088 1308.76539,658.027829 1309.2234,658.595215 C1309.68141,659.1626 1310.28183,659.446289 1311.02467,659.446289 C1311.76295,659.446289 1312.36109,659.1626 1312.8191,658.595215 C1313.27711,658.027829 1313.50611,657.279302 1313.50611,656.349609 L1313.50611,656.192383 C1313.50611,655.627276 1313.4013,655.110028 1313.19166,654.640625 C1312.98202,654.171222 1312.68808,653.807781 1312.30982,653.550293 C1311.93157,653.292805 1311.49863,653.164062 1311.011,653.164062 C1310.28183,653.164062 1309.68711,653.45003 1309.22682,654.021973 C1308.76653,654.593916 1308.53639,655.342443 1308.53639,656.267578 L1308.53639,656.417969 Z M1319.42604,653.300781 C1319.25286,653.26888 1319.06829,653.25293 1318.87232,653.25293 C1318.36191,653.25293 1317.93011,653.395344 1317.57691,653.680176 C1317.22372,653.965008 1316.97194,654.378578 1316.82154,654.920898 L1316.82154,660 L1316.00807,660 L1316.00807,652.603516 L1316.80787,652.603516 L1316.82154,653.779297 C1317.25449,652.904292 1317.94947,652.466797 1318.9065,652.466797 C1319.13437,652.466797 1319.31438,652.496419 1319.44654,652.555664 L1319.42604,653.300781 Z M1321.46315,652.603516 L1321.49049,653.806641 C1321.76393,653.360024 1322.10572,653.025066 1322.51588,652.801758 C1322.92604,652.578449 1323.38176,652.466797 1323.88307,652.466797 C1325.04974,652.466797 1325.79029,652.945308 1326.10475,653.902344 C1326.36907,653.442055 1326.72226,653.087729 1327.16432,652.839355 C1327.60638,652.590982 1328.094,652.466797 1328.62721,652.466797 C1330.21315,652.466797 1331.02206,653.332674 1331.05397,655.064453 L1331.05397,660 L1330.23365,660 L1330.23365,655.125977 C1330.2291,654.465166 1330.08668,653.975262 1329.80641,653.65625 C1329.52613,653.337238 1329.06927,653.177734 1328.4358,653.177734 C1327.84791,653.186849 1327.35117,653.377114 1326.94557,653.748535 C1326.53997,654.119956 1326.31438,654.572263 1326.26881,655.105469 L1326.26881,660 L1325.4485,660 L1325.4485,655.064453 C1325.44394,654.430986 1325.29469,653.958172 1325.00074,653.645996 C1324.7068,653.33382 1324.25449,653.177734 1323.64381,653.177734 C1323.12883,653.177734 1322.68678,653.324706 1322.31764,653.618652 C1321.9485,653.912599 1321.67506,654.348955 1321.49732,654.927734 L1321.49732,660 L1320.67701,660 L1320.67701,652.603516 L1321.46315,652.603516 Z M1337.7942,660 C1337.71217,659.767577 1337.65976,659.423505 1337.63697,658.967773 C1337.34986,659.341473 1336.98414,659.629719 1336.53981,659.83252 C1336.09547,660.03532 1335.62493,660.136719 1335.12818,660.136719 C1334.41724,660.136719 1333.84189,659.938479 1333.40211,659.541992 C1332.96233,659.145506 1332.74244,658.644209 1332.74244,658.038086 C1332.74244,657.31803 1333.04208,656.748374 1333.64137,656.329102 C1334.24065,655.909829 1335.07577,655.700195 1336.14674,655.700195 L1337.63014,655.700195 L1337.63014,654.859375 C1337.63014,654.330727 1337.46722,653.914878 1337.14137,653.611816 C1336.81552,653.308755 1336.34043,653.157227 1335.71607,653.157227 C1335.14641,653.157227 1334.67474,653.303058 1334.30104,653.594727 C1333.92734,653.886395 1333.74049,654.237303 1333.74049,654.647461 L1332.92018,654.640625 C1332.92018,654.052731 1333.19361,653.543459 1333.74049,653.112793 C1334.28737,652.682127 1334.95956,652.466797 1335.75709,652.466797 C1336.58196,652.466797 1337.23251,652.673012 1337.70875,653.085449 C1338.18499,653.497886 1338.42994,654.073238 1338.44361,654.811523 L1338.44361,658.311523 C1338.44361,659.027022 1338.51881,659.562498 1338.6692,659.917969 L1338.6692,660 L1337.7942,660 Z M1335.22389,659.412109 C1335.77077,659.412109 1336.25953,659.279949 1336.6902,659.015625 C1337.12086,658.751301 1337.43417,658.398114 1337.63014,657.956055 L1337.63014,656.329102 L1336.16725,656.329102 C1335.35149,656.338216 1334.71347,656.487466 1334.25318,656.776855 C1333.7929,657.066245 1333.56275,657.463865 1333.56275,657.969727 C1333.56275,658.384442 1333.71656,658.728514 1334.02418,659.001953 C1334.3318,659.275392 1334.7317,659.412109 1335.22389,659.412109 Z M1341.40357,652.603516 L1341.43092,653.868164 C1341.70891,653.412433 1342.05527,653.064943 1342.46998,652.825684 C1342.8847,652.586425 1343.3427,652.466797 1343.844,652.466797 C1344.63698,652.466797 1345.22714,652.690102 1345.61451,653.136719 C1346.00188,653.583336 1346.19785,654.253251 1346.2024,655.146484 L1346.2024,660 L1345.38893,660 L1345.38893,655.139648 C1345.38437,654.478838 1345.24423,653.986655 1344.96852,653.663086 C1344.6928,653.339517 1344.25189,653.177734 1343.64576,653.177734 C1343.1399,653.177734 1342.69215,653.336099 1342.3025,653.652832 C1341.91285,653.969565 1341.6246,654.396807 1341.43775,654.93457 L1341.43775,660 L1340.62428,660 L1340.62428,652.603516 L1341.40357,652.603516 Z M1351.04908,659.446289 C1351.61875,659.446289 1352.09612,659.285646 1352.48121,658.964355 C1352.8663,658.643065 1353.0748,658.227216 1353.1067,657.716797 L1353.89283,657.716797 C1353.87005,658.167971 1353.72877,658.579262 1353.469,658.950684 C1353.20924,659.322105 1352.86403,659.612629 1352.43336,659.822266 C1352.00269,660.031902 1351.54127,660.136719 1351.04908,660.136719 C1350.07837,660.136719 1349.30934,659.799483 1348.74195,659.125 C1348.17457,658.450517 1347.89088,657.543625 1347.89088,656.404297 L1347.89088,656.158203 C1347.89088,655.429033 1348.01848,654.784182 1348.27369,654.223633 C1348.5289,653.663083 1348.89462,653.230145 1349.37086,652.924805 C1349.8471,652.619465 1350.40422,652.466797 1351.04225,652.466797 C1351.85345,652.466797 1352.52222,652.708331 1353.04859,653.191406 C1353.57496,653.674482 1353.85637,654.310217 1353.89283,655.098633 L1353.1067,655.098633 C1353.07024,654.519854 1352.86175,654.052736 1352.48121,653.697266 C1352.10068,653.341795 1351.62103,653.164062 1351.04225,653.164062 C1350.30396,653.164062 1349.73089,653.430661 1349.32301,653.963867 C1348.91513,654.497073 1348.71119,655.244461 1348.71119,656.206055 L1348.71119,656.445312 C1348.71119,657.388677 1348.91513,658.124672 1349.32301,658.65332 C1349.73089,659.181969 1350.30624,659.446289 1351.04908,659.446289 Z M1358.39088,660.136719 C1357.76197,660.136719 1357.19345,659.981772 1356.68531,659.671875 C1356.17717,659.361978 1355.78183,658.930179 1355.49928,658.376465 C1355.21672,657.822751 1355.07545,657.201826 1355.07545,656.513672 L1355.07545,656.219727 C1355.07545,655.508786 1355.21331,654.868492 1355.48902,654.298828 C1355.76474,653.729164 1356.14869,653.281414 1356.64088,652.955566 C1357.13307,652.629718 1357.66627,652.466797 1358.24049,652.466797 C1359.13828,652.466797 1359.85035,652.773272 1360.37672,653.38623 C1360.90309,653.999189 1361.16627,654.836583 1361.16627,655.898438 L1361.16627,656.356445 L1355.88893,656.356445 L1355.88893,656.513672 C1355.88893,657.352218 1356.12932,658.050616 1356.61012,658.608887 C1357.09091,659.167158 1357.69589,659.446289 1358.42506,659.446289 C1358.86256,659.446289 1359.24879,659.366537 1359.58375,659.207031 C1359.91871,659.047525 1360.22291,658.792319 1360.49635,658.441406 L1361.00904,658.831055 C1360.40748,659.701502 1359.53477,660.136719 1358.39088,660.136719 Z M1358.24049,653.164062 C1357.62525,653.164062 1357.10686,653.389646 1356.68531,653.84082 C1356.26376,654.291994 1356.00742,654.898108 1355.91627,655.65918 L1360.35279,655.65918 L1360.35279,655.570312 C1360.33001,654.859371 1360.12721,654.280601 1359.7444,653.833984 C1359.36158,653.387368 1358.86028,653.164062 1358.24049,653.164062 Z M1362.68385,659.507812 C1362.68385,659.348306 1362.73512,659.212728 1362.83766,659.101074 C1362.9402,658.98942 1363.08261,658.933594 1363.2649,658.933594 C1363.4472,658.933594 1363.59075,658.98942 1363.69557,659.101074 C1363.80039,659.212728 1363.85279,659.348306 1363.85279,659.507812 C1363.85279,659.667319 1363.80039,659.798339 1363.69557,659.900879 C1363.59075,660.003418 1363.4472,660.054688 1363.2649,660.054688 C1363.08261,660.054688 1362.9402,660.003418 1362.83766,659.900879 C1362.73512,659.798339 1362.68385,659.667319 1362.68385,659.507812 Z" id="*-For-illustration-p" fill="#FFFFFF" opacity="0.751811594"></path>
            </g>
        </g>
    </g>
</svg>