<?xml version="1.0" encoding="UTF-8"?>
<svg width="24px" height="25px" viewBox="0 0 24 25" version="1.1" xmlns="http://www.w3.org/2000/svg" xmlns:xlink="http://www.w3.org/1999/xlink">
    <!-- Generator: Sketch 46.2 (44496) - http://www.bohemiancoding.com/sketch -->
    <title>Combined Shape</title>
    <desc>Created with Sketch.</desc>
    <defs></defs>
    <g id="Page-1" stroke="none" stroke-width="1" fill="none" fill-rule="evenodd">
        <g id="Desktop---FINAL" transform="translate(-791.000000, -5129.000000)" fill="#FFFFFF">
            <g id="download" transform="translate(0.000000, 4850.000000)">
                <g transform="translate(431.000000, 254.000000)" id="Group-4">
                    <g transform="translate(304.929134, 0.000000)">
                        <path d="M59.7563054,26.4030659 C65.791761,29.5733514 70.3317317,31.9757523 73.3762177,33.6102687 L70.294353,36.700549 L59.7563054,26.4030659 Z M58.4717687,25.7285861 L69.9173422,37.0785893 L58.635358,48.3913811 C57.9920811,48.7158709 57.582944,48.9038622 57.4079467,48.9553549 C57.0167613,49.0704607 56.7881771,49.197066 56.3078608,49.0219194 C55.9876499,48.905155 55.8023525,48.6261273 55.7519685,48.1848364 L55.7519685,25.9875373 C55.833085,25.6068584 56.0183824,25.3374462 56.3078608,25.1793006 C56.5973392,25.0211551 56.9367957,25.003888 57.3262303,25.1274992 C57.7135112,25.330652 58.0953573,25.5310144 58.4717687,25.7285861 Z M73.767984,40.0948833 L70.6793174,37.0767254 L73.8328808,33.8557172 C76.3197856,35.1939698 77.700114,35.96403 77.9738659,36.165898 C78.1509762,36.2722962 78.507874,36.4749014 78.507874,36.9207026 C78.507874,37.3665038 78.4283691,37.4727183 78.0542436,37.6861063 C76.5429091,38.5371751 75.1141559,39.3401008 73.767984,40.0948833 Z M73.2511591,40.3845689 C67.4603606,43.6293247 63.2472251,45.9543364 60.6117524,47.3596038 L70.3030319,37.4610584 L73.2511591,40.3845689 Z" id="Combined-Shape"></path>
                    </g>
                </g>
            </g>
        </g>
    </g>
</svg>