<?xml version="1.0" encoding="UTF-8"?>
<svg width="14px" height="14px" viewBox="0 0 14 14" version="1.1" xmlns="http://www.w3.org/2000/svg" xmlns:xlink="http://www.w3.org/1999/xlink">
    <!-- Generator: Sketch 46.2 (44496) - http://www.bohemiancoding.com/sketch -->
    <title>Combined Shape</title>
    <desc>Created with Sketch.</desc>
    <defs></defs>
    <g id="Page-1" stroke="none" stroke-width="1" fill="none" fill-rule="evenodd">
        <g id="D_Product-Copy" transform="translate(-1013.000000, -60.000000)" fill="#FFFFFF">
            <g id="Group-10" transform="translate(1000.000000, 47.000000)">
                <path d="M18.7403909,20 L13.5999508,25.1404401 C13.2441387,25.4962522 13.2466195,26.0577176 13.594451,26.405549 C13.9447075,26.7558055 14.508691,26.7509181 14.8595599,26.4000492 L20,21.2596091 L25.1404401,26.4000492 C25.4962522,26.7558613 26.0577176,26.7533805 26.405549,26.405549 C26.7558055,26.0552925 26.7509181,25.491309 26.4000492,25.1404401 L21.2596091,20 L26.4000492,14.8595599 C26.7558613,14.5037478 26.7533805,13.9422824 26.405549,13.594451 C26.0552925,13.2441945 25.491309,13.2490819 25.1404401,13.5999508 L20,18.7403909 L14.8595599,13.5999508 C14.5037478,13.2441387 13.9422824,13.2466195 13.594451,13.594451 C13.2441945,13.9447075 13.2490819,14.508691 13.5999508,14.8595599 L18.7403909,20 Z" id="Combined-Shape"></path>
            </g>
        </g>
    </g>
</svg>