<?xml version="1.0" encoding="UTF-8"?>
<svg width="23px" height="19px" viewBox="0 0 23 19" version="1.1" xmlns="http://www.w3.org/2000/svg" xmlns:xlink="http://www.w3.org/1999/xlink">
    <!-- Generator: Sketch 46.2 (44496) - http://www.bohemiancoding.com/sketch -->
    <title>Fill 1</title>
    <desc>Created with Sketch.</desc>
    <defs></defs>
    <g id="Page-1" stroke="none" stroke-width="1" fill="none" fill-rule="evenodd" opacity="0.593410326">
        <g id="Desktop---FINAL" transform="translate(-635.000000, -6290.000000)" fill="#FFFFFF">
            <g id="footer" transform="translate(0.000000, 6230.000000)">
                <g id="sns" transform="translate(635.000000, 57.000000)">
                    <path d="M7.23337907,21.6529399 C15.9129923,21.6529399 20.6594374,14.4772633 20.6594374,8.25508759 C20.6594374,8.05118568 20.6552974,7.84829363 20.6459134,7.64641146 C21.5671977,6.98173344 22.3681465,6.15244663 23,5.20821827 C22.1544314,5.58297181 21.244555,5.8356229 20.2900588,5.94955459 C21.2642429,5.36667604 22.012292,4.44420578 22.3650185,3.34473286 C21.4530262,3.8840952 20.4436062,4.27647557 19.3687745,4.48772199 C18.507658,3.57250443 17.2813949,3 15.9244003,3 C13.3182347,3 11.2048192,5.10879199 11.2048192,7.70847255 C11.2048192,8.07808494 11.246311,8.43741502 11.3272707,8.78214788 C7.40560238,8.58540686 3.92792429,6.71154734 1.6008856,3.8623371 C1.19525922,4.55804566 0.961856153,5.36667604 0.961856153,6.22910494 C0.961856153,7.86279904 1.79491282,9.30498507 3.06165575,10.1486855 C2.28766285,10.1249076 1.56040576,9.91265134 0.924412302,9.5595641 C0.923400306,9.57930246 0.923400306,9.59904083 0.923400306,9.61969726 C0.923400306,11.9004425 2.5502298,13.8043227 4.70918516,14.236088 C4.31285075,14.3436851 3.89581642,14.4017067 3.46525814,14.4017067 C3.16129135,14.4017067 2.86551254,14.371686 2.57819769,14.3167858 C3.17886328,16.1876157 4.92078432,17.5490122 6.98645205,17.5873872 C5.37112252,18.8504591 3.33664265,19.6030876 1.1257075,19.6030876 C0.74501302,19.6030876 0.369378522,19.5813295 0,19.5378133 C2.08848365,20.8734121 4.56805773,21.6529399 7.23337907,21.6529399" id="Fill-1"></path>
                </g>
            </g>
        </g>
    </g>
</svg>