<?xml version="1.0" encoding="UTF-8"?>
<svg width="22px" height="29px" viewBox="0 0 22 29" version="1.1" xmlns="http://www.w3.org/2000/svg" xmlns:xlink="http://www.w3.org/1999/xlink">
    <!-- Generator: Sketch 46.2 (44496) - http://www.bohemiancoding.com/sketch -->
    <title>Combined Shape</title>
    <desc>Created with Sketch.</desc>
    <defs></defs>
    <g id="Page-1" stroke="none" stroke-width="1" fill="none" fill-rule="evenodd">
        <g id="Desktop---FINAL" transform="translate(-499.000000, -5125.000000)" fill="#FAFAFA">
            <g id="download" transform="translate(0.000000, 4850.000000)">
                <g transform="translate(431.000000, 254.000000)" id="Group-17">
                    <g>
                        <path d="M86.0724797,36.2329906 C86.106847,40.388956 89.5435722,41.7655651 89.5851455,41.7789246 C89.5640817,41.8741837 89.0474643,43.7642622 87.758138,45.6775746 C86.681667,47.3660989 85.5547537,49.0151256 83.7626678,49.0424254 C82.0237957,49.0865699 81.4378895,47.9707614 79.441263,47.9707614 C77.4280072,47.9707614 76.8032992,49.0151256 75.1364875,49.0865699 C73.4297654,49.151044 72.1265814,47.2865228 71.0107543,45.6136813 C68.7802088,42.2017818 67.0463255,35.9965856 69.3727667,31.7749843 C70.5002343,29.7036813 72.5572807,28.3712166 74.7540132,28.3334615 C76.461844,28.2980298 78.047172,29.5427865 79.0964818,29.5427865 C80.1258365,29.5427865 82.0853242,28.0534929 84.1052317,28.2771193 C84.9511096,28.3032575 87.3557086,28.6267896 88.907778,30.9966484 C88.7830582,31.0762245 86.0419927,32.7635871 86.0724797,36.2329906 Z M82.7866933,26.0318524 C81.8504628,27.1906436 80.3516072,28.0764364 78.8915533,27.9625903 C78.7014247,26.3983673 79.440875,24.7371429 80.267352,23.7235636 C81.204691,22.5723234 82.8293752,21.6905965 84.1281247,21.6307692 C84.2982981,23.2554003 83.6846763,24.8550549 82.7866933,26.0318524 Z" id="Combined-Shape"></path>
                    </g>
                </g>
            </g>
        </g>
    </g>
</svg>