<?xml version="1.0" encoding="UTF-8"?>
<svg width="25px" height="26px" viewBox="0 0 25 26" version="1.1" xmlns="http://www.w3.org/2000/svg" xmlns:xlink="http://www.w3.org/1999/xlink">
    <!-- Generator: Sketch 46.2 (44496) - http://www.bohemiancoding.com/sketch -->
    <title>Fill 1</title>
    <desc>Created with Sketch.</desc>
    <defs></defs>
    <g id="Page-1" stroke="none" stroke-width="1" fill="none" fill-rule="evenodd" opacity="0.593410326">
        <g id="Desktop---FINAL" transform="translate(-781.000000, -6287.000000)" fill="#FFFFFF">
            <g id="footer" transform="translate(0.000000, 6230.000000)">
                <g id="sns" transform="translate(635.000000, 57.000000)">
                    <path d="M164.227355,15.0487954 C163.916285,14.8931629 162.387174,14.140937 162.102067,14.0371774 C161.816975,13.9333761 161.609664,13.8815171 161.402228,14.1928376 C161.194959,14.5040887 160.598893,15.2044557 160.417407,15.4119332 C160.235977,15.6194663 160.054561,15.6454305 159.743532,15.4897703 C159.432489,15.3341517 158.430327,15.0058087 157.242346,13.9465248 C156.317785,13.1221684 155.693519,12.1038719 155.512103,11.7925653 C155.330673,11.4812725 155.492803,11.3130328 155.648505,11.1579835 C155.788393,11.0187071 155.959507,10.7948457 156.115028,10.6132768 C156.270535,10.4317634 156.322394,10.301998 156.426057,10.0945065 C156.529747,9.88698728 156.477874,9.7053906 156.40012,9.54977201 C156.322394,9.39413953 155.700323,7.86372344 155.441139,7.24117965 C155.188717,6.63488084 154.932241,6.71691106 154.741327,6.70738622 C154.560106,6.69837511 154.352545,6.69647292 154.14522,6.69647292 C153.937909,6.69647292 153.60093,6.77426834 153.315851,7.08556106 C153.030772,7.39683989 152.227285,8.14906584 152.227285,9.67946805 C152.227285,11.2098564 153.341746,12.6883857 153.497267,12.8958633 C153.652789,13.1033964 155.690423,16.2439956 158.810459,17.5908018 C159.552563,17.9111334 160.13187,18.1024632 160.583592,18.24578 C161.328667,18.4823458 162.006694,18.448995 162.542667,18.3689642 C163.140219,18.2797001 164.382779,17.6167938 164.642033,16.8905042 C164.901216,16.1641731 164.901216,15.5416709 164.823463,15.4119749 C164.745695,15.2822788 164.53837,15.2044557 164.227355,15.0487954 M158.552331,22.7949718 L158.54811,22.7949718 C156.691614,22.7942776 154.870746,22.2956955 153.282264,21.3533339 L152.904436,21.1292087 L148.988646,22.156072 L150.033851,18.3394316 L149.787788,17.9481081 C148.752136,16.3013946 148.205166,14.3980242 148.205971,12.4438085 C148.208221,6.74118134 152.849481,2.10168406 158.556343,2.10168406 C161.319726,2.1027254 163.917437,3.18000371 165.870792,5.13492756 C167.824175,7.08986528 168.899301,9.68850693 168.898287,12.4521115 C168.896066,18.1551969 164.254819,22.7949718 158.552331,22.7949718 M167.357596,3.64938648 C165.007503,1.29730756 161.882107,0.00133292155 158.552178,0 C151.691158,0 146.107106,5.58191447 146.104371,12.4429893 C146.103496,14.636159 146.676666,16.7769838 147.765941,18.6640119 L146,25.1123948 L152.598739,23.3819988 C154.416886,24.3733037 156.463851,24.8957395 158.547221,24.8966281 L158.552331,24.8966281 C165.41267,24.8966281 170.997222,19.3140333 170.999999,12.452889 C171.001332,9.12794399 169.707787,6.00146541 167.357596,3.64938648" id="Fill-1"></path>
                </g>
            </g>
        </g>
    </g>
</svg>