<?xml version="1.0" encoding="UTF-8"?>
<svg width="162px" height="166px" viewBox="0 0 162 166" version="1.1" xmlns="http://www.w3.org/2000/svg" xmlns:xlink="http://www.w3.org/1999/xlink">
    <!-- Generator: Sketch 46.2 (44496) - http://www.bohemiancoding.com/sketch -->
    <title>Page 1</title>
    <desc>Created with Sketch.</desc>
    <defs>
        <polygon id="path-1" points="0 25.0001 0 50 162 50 162 25.0001 162 0.0002 0 0.0002"></polygon>
        <polygon id="path-3" points="0 165.373 162 165.373 162 0 0 0"></polygon>
    </defs>
    <g id="Page-1" stroke="none" stroke-width="1" fill="none" fill-rule="evenodd">
        <g id="avatar" transform="translate(-234.000000, -426.000000)">
            <g id="doctor-copy-2" transform="translate(234.000000, 426.000000)">
                <g id="Page-1">
                    <path d="M113.188,79.999 C113.364,71.063 120.75,63.963 129.686,64.139 C138.621,64.314 145.722,71.701 145.546,80.637 C145.37,89.572 137.984,96.673 129.048,96.497 C120.113,96.32 113.012,88.935 113.188,79.999 Z" id="Fill-1" fill="#F4F4F4"></path>
                    <path d="M48.9565,79.999 C49.1325,88.935 42.0315,96.32 33.0965,96.497 C24.1615,96.673 16.7745,89.572 16.5985,80.637 C16.4225,71.701 23.5235,64.314 32.4585,64.139 C41.3945,63.963 48.7805,71.063 48.9565,79.999" id="Fill-3" fill="#F4F4F4"></path>
                    <path d="M48.9565,54.831 C49.1325,63.767 42.0315,71.153 33.0965,71.329 C24.1615,71.505 16.7745,64.404 16.5985,55.469 C16.4225,46.533 23.5235,39.147 32.4585,38.971 C41.3945,38.795 48.7805,45.896 48.9565,54.831" id="Fill-5" fill="#F4F4F4"></path>
                    <path d="M113.188,54.831 C113.012,63.767 120.113,71.153 129.048,71.329 C137.984,71.505 145.37,64.404 145.546,55.469 C145.722,46.533 138.621,39.147 129.686,38.971 C120.75,38.795 113.364,45.896 113.188,54.831" id="Fill-7" fill="#F4F4F4"></path>
                    <path d="M89.5601,20.6806 C94.2041,37.2766 84.6751,55.8816 68.2761,62.2376 C51.8781,68.5916 34.8191,60.2886 30.1761,43.6926 C25.5321,27.0966 35.0601,8.4916 51.4591,2.1366 C67.8581,-4.2184 84.9161,4.0836 89.5601,20.6806" id="Fill-9" fill="#F4F4F4"></path>
                    <path d="M71.4399,20.6806 C66.7959,37.2766 76.3249,55.8816 92.7239,62.2376 C109.1219,68.5916 126.1809,60.2886 130.8239,43.6926 C135.4679,27.0966 125.9399,8.4916 109.5409,2.1366 C93.1419,-4.2184 76.0839,4.0836 71.4399,20.6806" id="Fill-11" fill="#F4F4F4"></path>
                    <g id="Group-15" transform="translate(0.000000, 115.373000)">
                        <mask id="mask-2" fill="white">
                            <use xlink:href="#path-1"></use>
                        </mask>
                        <g id="Clip-14"></g>
                        <path d="M151,18.3672 L113,5.1012 C106,3.0612 103,0.0002 103,0.0002 L81,0.9752 L59,0.0002 C59,0.0002 56,3.0612 49,5.1012 L11,18.3672 C11,18.3672 0,23.4702 0,33.6742 L0,50.0002 L80,50.0002 L82,50.0002 L162,50.0002 L162,33.6742 C162,23.4702 151,18.3672 151,18.3672" id="Fill-13" fill="#232728" mask="url(#mask-2)"></path>
                    </g>
                    <mask id="mask-4" fill="white">
                        <use xlink:href="#path-3"></use>
                    </mask>
                    <g id="Clip-17"></g>
                    <polygon id="Fill-16" fill="#FFCBB9" mask="url(#mask-4)" points="59 135.373 103 135.373 103 104.373 59 104.373"></polygon>
                    <path d="M102.6001,115.373 C102.6001,115.373 99.5141,124.373 81.0001,125.373 C62.4861,124.373 59.4001,115.373 59.4001,115.373 L45.0001,122.706 L45.0001,164.373 L81.0001,164.373 L117.0001,164.373 L117.0001,122.706 L102.6001,115.373 Z" id="Fill-18" fill="#E2E2E2" mask="url(#mask-4)"></path>
                    <polygon id="Fill-19" fill="#232728" mask="url(#mask-4)" points="56.8184 125.4843 81.0004 150.3733 43.0004 150.3733 35.0004 125.3733 52.2124 118.3733"></polygon>
                    <polygon id="Fill-20" fill="#232728" mask="url(#mask-4)" points="105.1816 125.4843 80.9996 150.3733 118.9996 150.3733 126.9996 125.3733 109.7876 118.3733"></polygon>
                    <path d="M59,111.2529 C65.494,116.3779 73.221,119.3729 81.5,119.3729 C89.356,119.3729 96.72,116.6869 103,112.0329 L103,102.3729 L59,102.3729 L59,111.2529 Z" id="Fill-21" fill="#E39586" mask="url(#mask-4)"></path>
                    <path d="M85,100.4638 L77,100.4638 C52.8,100.4638 33,80.6638 33,56.4638 L33,50.3728 C33,26.1728 52.8,6.3728 77,6.3728 L85,6.3728 C109.2,6.3728 129,26.1728 129,50.3728 L129,56.4638 C129,80.6638 109.2,100.4638 85,100.4638" id="Fill-22" fill="#F4F4F4" mask="url(#mask-4)"></path>
                    <path d="M81,114.373 L81,114.373 C58.175,114.373 39.5,98.698 39.5,75.873 L39.5,60.873 C39.5,38.048 58.175,19.373 81,19.373 C103.825,19.373 122.5,38.048 122.5,60.873 L122.5,75.873 C122.5,98.698 103.825,114.373 81,114.373" id="Fill-23" fill="#FFCBB9" mask="url(#mask-4)"></path>
                    <path d="M48,79.373 L39,79.373 C33.775,79.373 29.5,75.098 29.5,69.873 C29.5,64.648 33.775,60.373 39,60.373 L48,60.373 C53.225,60.373 57.5,64.648 57.5,69.873 C57.5,75.098 53.225,79.373 48,79.373" id="Fill-24" fill="#FFCBB9" mask="url(#mask-4)"></path>
                    <path d="M123,79.373 L114,79.373 C108.775,79.373 104.5,75.098 104.5,69.873 C104.5,64.648 108.775,60.373 114,60.373 L123,60.373 C128.225,60.373 132.5,64.648 132.5,69.873 C132.5,75.098 128.225,79.373 123,79.373" id="Fill-25" fill="#FFCBB9" mask="url(#mask-4)"></path>
                    <path d="M39.5,65.373 L39,65.373 C36.525,65.373 34.5,67.03 34.5,69.055 L34.5,70.691 C34.5,72.716 36.525,74.373 39,74.373 L39.5,74.373 L39.5,65.373 Z" id="Fill-26" fill="#E39586" mask="url(#mask-4)"></path>
                    <path d="M122.5,65.373 L123,65.373 C125.475,65.373 127.5,67.03 127.5,69.055 L127.5,70.691 C127.5,72.716 125.475,74.373 123,74.373 L122.5,74.373 L122.5,65.373 Z" id="Fill-27" fill="#E39586" mask="url(#mask-4)"></path>
                    <path d="M100,84.373 L82,84.373 L81,84.373 L63,84.373 C63,84.373 60,84.373 61,87.706 C61,87.706 64.85,98.901 81,99.352 L81,99.373 C81.171,99.373 81.332,99.364 81.5,99.362 C81.668,99.364 81.829,99.373 82,99.373 L82,99.352 C98.15,98.901 102,87.706 102,87.706 C103,84.373 100,84.373 100,84.373" id="Fill-28" fill="#8B2A23" mask="url(#mask-4)"></path>
                    <path d="M81.5,92.373 C77.533,92.373 74.09,94.576 72.303,97.819 C74.704,98.674 77.572,99.256 81,99.352 L81,99.373 C81.171,99.373 81.332,99.364 81.5,99.362 C81.668,99.364 81.829,99.373 82,99.373 L82,99.352 C85.428,99.256 88.296,98.674 90.697,97.819 C88.91,94.576 85.467,92.373 81.5,92.373" id="Fill-29" fill="#DB6565" mask="url(#mask-4)"></path>
                    <path d="M81,75.0371 C78.457,75.0371 76.226,73.9641 75,72.3731 L75,72.7011 C75,75.2701 77.7,77.3731 81,77.3731 C84.3,77.3731 87,75.2701 87,72.7011 L87,72.3731 C85.774,73.9641 83.543,75.0371 81,75.0371" id="Fill-30" fill="#E49584" mask="url(#mask-4)"></path>
                    <path d="M60.3047,64.373 C62.6157,64.373 64.7417,64.742 66.4127,65.354 L66.4137,65.354 L66.4137,64.482 C66.4137,61.122 63.6647,58.373 60.3047,58.373 C56.9447,58.373 54.1957,61.122 54.1957,64.482 L54.1957,65.354 L54.1967,65.354 C55.8677,64.742 57.9937,64.373 60.3047,64.373" id="Fill-31" fill="#754448" mask="url(#mask-4)"></path>
                    <path d="M101.8911,64.373 C104.2021,64.373 106.3281,64.742 107.9991,65.354 L108.0001,65.354 L108.0001,64.482 C108.0001,61.122 105.2511,58.373 101.8911,58.373 C98.5311,58.373 95.7821,61.122 95.7821,64.482 L95.7821,65.354 L95.7831,65.354 C97.4531,64.742 99.5801,64.373 101.8911,64.373" id="Fill-32" fill="#754448" mask="url(#mask-4)"></path>
                    <path d="M61.5,74.373 C61.5,77.686 58.813,80.373 55.5,80.373 C52.187,80.373 49.5,77.686 49.5,74.373 C49.5,71.06 52.187,68.373 55.5,68.373 C58.813,68.373 61.5,71.06 61.5,74.373" id="Fill-33" fill="#FFB7A9" mask="url(#mask-4)"></path>
                    <path d="M112.5,74.373 C112.5,77.686 109.813,80.373 106.5,80.373 C103.187,80.373 100.5,77.686 100.5,74.373 C100.5,71.06 103.187,68.373 106.5,68.373 C109.813,68.373 112.5,71.06 112.5,74.373" id="Fill-34" fill="#FFB7A9" mask="url(#mask-4)"></path>
                    <polygon id="Fill-35" fill="#232728" mask="url(#mask-4)" points="43 161.373 127 161.373 127 146.373 43 146.373"></polygon>
                    <path d="M81.37,10.3729 C59.57,10.3729 41.078,23.3619 34.491,41.3899 C38.932,42.6659 43.752,43.3729 48.797,43.3729 C61.541,43.3729 72.877,38.9009 80.164,31.9509 C87.451,38.9009 98.787,43.3729 111.531,43.3729 C117.407,43.3729 122.979,42.4159 128,40.7109 C121.202,23.0369 102.896,10.3729 81.37,10.3729 Z" id="Fill-36" fill="#F4F4F4" mask="url(#mask-4)"></path>
                    <path d="M91.6665,79.5957 C84.9995,75.5957 80.9995,79.5957 80.9995,79.5957 C80.9995,79.5957 76.9995,75.5957 70.3335,79.5957 C70.3335,79.5957 63.6665,83.5957 60.9995,79.5957 C60.9995,79.5957 62.3335,87.5957 72.9995,87.5957 C72.9995,87.5957 79.6665,87.5957 80.9995,83.5957 C82.3335,87.5957 88.9995,87.5957 88.9995,87.5957 C99.6665,87.5957 100.9995,79.5957 100.9995,79.5957 C98.3335,83.5957 91.6665,79.5957 91.6665,79.5957" id="Fill-37" fill="#F4F4F4" mask="url(#mask-4)"></path>
                    <polygon id="Fill-38" fill="#494B4C" mask="url(#mask-4)" points="123.9609 124.1367 109.7879 118.3727 105.1819 125.4847 80.9999 150.3727 80.9979 150.3727 80.9999 150.3727 56.8179 125.4847 52.2119 118.3727 37.3009 124.4377 63.1089 165.3727 101.6249 165.3727"></polygon>
                    <polygon id="Fill-39" fill="#EFEFEF" mask="url(#mask-4)" points="79.3032 154.9892 68.3992 153.5382 74.6042 129.1432 79.6932 129.8202"></polygon>
                    <polygon id="Fill-40" fill="#EFEFEF" mask="url(#mask-4)" points="83.3896 154.9892 94.2936 153.5382 88.0886 129.1432 82.9996 129.8202"></polygon>
                    <polygon id="Fill-41" fill="#F4F4F4" mask="url(#mask-4)" points="88.8462 157.373 73.8462 157.373 77.8462 129.373 84.8462 129.373"></polygon>
                    <path d="M104,115.8515 L103.042,115.3725 C103.042,115.3725 99.895,124.3725 81.009,125.3725 C62.123,124.3725 58.975,115.3725 58.975,115.3725 L58,115.8595 C59.971,126.3495 69.555,134.3725 80.999,134.3725 C92.446,134.3725 102.033,126.3445 104,115.8515" id="Fill-42" fill="#F4F4F4" mask="url(#mask-4)"></path>
                </g>
            </g>
        </g>
    </g>
</svg>