<?xml version="1.0" encoding="UTF-8"?>
<svg width="125px" height="198px" viewBox="0 0 125 198" version="1.1" xmlns="http://www.w3.org/2000/svg" xmlns:xlink="http://www.w3.org/1999/xlink">
    <!-- Generator: Sketch 46.2 (44496) - http://www.bohemiancoding.com/sketch -->
    <title>Page 1</title>
    <desc>Created with Sketch.</desc>
    <defs>
        <polygon id="path-1" points="124.148 0.0098 124.148 43.9398 0.0001 43.9398 0.0001 0.0098"></polygon>
        <polygon id="path-3" points="0 198 124.148 198 124.148 0 0 0"></polygon>
    </defs>
    <g id="Page-1" stroke="none" stroke-width="1" fill="none" fill-rule="evenodd">
        <g id="avatar" transform="translate(-249.000000, -1323.000000)">
            <g id="doctor-copy-4" transform="translate(234.000000, 1323.000000)">
                <g id="Page-1" transform="translate(15.000000, 0.000000)">
                    <path d="M5.5863,111.5 C5.5863,111.5 9.7623,108.106 9.7623,106.28 L9.7623,70.395 C9.7623,40.753 33.0163,16.5 61.4383,16.5 C89.8593,16.5 113.1133,40.753 113.1133,70.395 C113.1133,70.395 111.0253,103.148 113.1133,106.28 C115.2013,109.412 117.2893,111.5 117.2893,111.5 L5.5863,111.5 Z" id="Fill-1" fill="#713D25"></path>
                    <path d="M112.2494,154.3672 L84.5704,141.1012 C79.4724,139.0612 77.2864,136.0002 77.2864,136.0002 L61.2624,136.9752 L45.2374,136.0002 C45.2374,136.0002 43.0524,139.0612 37.9534,141.1012 L10.2744,154.3672 C10.2744,154.3672 2.2624,159.4702 2.2624,169.6742 L2.2624,186.0002 L60.5334,186.0002 L61.9904,186.0002 L120.2624,186.0002 L120.2624,169.6742 C120.2624,159.4702 112.2494,154.3672 112.2494,154.3672" id="Fill-3" fill="#FFCBB9"></path>
                    <g id="Group-7" transform="translate(0.000000, 154.000000)">
                        <mask id="mask-2" fill="white">
                            <use xlink:href="#path-1"></use>
                        </mask>
                        <g id="Clip-6"></g>
                        <path d="M115.7191,0.0098 L86.5971,4.2608 C81.2331,1.4268 77.2621,5.9998 77.2621,5.9998 L61.2621,11.9998 L43.2621,11.9998 C43.2621,11.9998 39.2621,7.9998 37.5511,4.2608 L8.4301,0.0098 C8.4301,0.0098 0.0001,7.0948 0.0001,21.2658 L0.0001,43.9398 L61.3081,43.9398 L62.8401,43.9398 L124.1491,43.9398 L124.1491,21.2658 C124.1491,7.0948 115.7191,0.0098 115.7191,0.0098" id="Fill-5" fill="#F9F9F9" mask="url(#mask-2)"></path>
                    </g>
                    <mask id="mask-4" fill="white">
                        <use xlink:href="#path-3"></use>
                    </mask>
                    <g id="Clip-9"></g>
                    <polygon id="Fill-8" fill="#FFCBB9" mask="url(#mask-4)" points="44.262 156 78.262 156 78.262 125 44.262 125"></polygon>
                    <path d="M44.2621,131.8799 C49.2811,137.0049 55.2501,139.9999 61.6491,139.9999 C67.7191,139.9999 73.4081,137.3139 78.2621,132.6599 L78.2621,122.9999 L44.2621,122.9999 L44.2621,131.8799 Z" id="Fill-10" fill="#E39586" mask="url(#mask-4)"></path>
                    <path d="M61.2621,119 L61.2621,119 C37.0621,119 17.2621,102.2 17.2621,78 L17.2621,71 C17.2621,46.8 37.0621,27 61.2621,27 C85.4621,27 105.2621,46.8 105.2621,71 L105.2621,78 C105.2621,102.2 85.4621,119 61.2621,119" id="Fill-11" fill="#713D25" mask="url(#mask-4)"></path>
                    <path d="M61.2621,135 L61.2621,135 C38.4371,135 19.7621,119.325 19.7621,96.5 L19.7621,81.5 C19.7621,58.675 38.4371,40 61.2621,40 C84.0871,40 102.7621,58.675 102.7621,81.5 L102.7621,96.5 C102.7621,119.325 84.0871,135 61.2621,135" id="Fill-12" fill="#FFCBB9" mask="url(#mask-4)"></path>
                    <path d="M28.2621,100 L19.2621,100 C14.0371,100 9.7621,95.725 9.7621,90.5 C9.7621,85.275 14.0371,81 19.2621,81 L28.2621,81 C33.4871,81 37.7621,85.275 37.7621,90.5 C37.7621,95.725 33.4871,100 28.2621,100" id="Fill-13" fill="#FFCBB9" mask="url(#mask-4)"></path>
                    <path d="M103.2621,100 L94.2621,100 C89.0371,100 84.7621,95.725 84.7621,90.5 C84.7621,85.275 89.0371,81 94.2621,81 L103.2621,81 C108.4871,81 112.7621,85.275 112.7621,90.5 C112.7621,95.725 108.4871,100 103.2621,100" id="Fill-14" fill="#FFCBB9" mask="url(#mask-4)"></path>
                    <path d="M19.7621,86 L19.2621,86 C16.7871,86 14.7621,87.657 14.7621,89.682 L14.7621,91.318 C14.7621,93.343 16.7871,95 19.2621,95 L19.7621,95 L19.7621,86 Z" id="Fill-15" fill="#E39586" mask="url(#mask-4)"></path>
                    <path d="M102.7621,86 L103.2621,86 C105.7371,86 107.7621,87.657 107.7621,89.682 L107.7621,91.318 C107.7621,93.343 105.7371,95 103.2621,95 L102.7621,95 L102.7621,86 Z" id="Fill-16" fill="#E39586" mask="url(#mask-4)"></path>
                    <path d="M80.2621,105 L62.2621,105 L61.2621,105 L43.2621,105 C43.2621,105 40.2621,105 41.2621,108.333 C41.2621,108.333 45.1121,119.528 61.2621,119.979 L61.2621,120 C61.4331,120 61.5941,119.991 61.7621,119.989 C61.9301,119.991 62.0911,120 62.2621,120 L62.2621,119.979 C78.4121,119.528 82.2621,108.333 82.2621,108.333 C83.2621,105 80.2621,105 80.2621,105" id="Fill-17" fill="#8B2A23" mask="url(#mask-4)"></path>
                    <path d="M61.7621,113 C57.7951,113 54.3531,115.203 52.5651,118.446 C54.9651,119.301 57.8341,119.883 61.2621,119.979 L61.2621,120 C61.4331,120 61.5941,119.991 61.7621,119.989 C61.9301,119.991 62.0911,120 62.2621,120 L62.2621,119.979 C65.6901,119.883 68.5591,119.301 70.9591,118.446 C69.1711,115.203 65.7291,113 61.7621,113" id="Fill-18" fill="#DB6565" mask="url(#mask-4)"></path>
                    <path d="M80.2621,105 L62.2621,105 L61.2621,105 L43.2621,105 C43.2621,105 40.2621,105 41.2621,108.333 C41.2621,108.333 41.6581,109.458 42.6941,111 L80.8301,111 C81.8661,109.458 82.2621,108.333 82.2621,108.333 C83.2621,105 80.2621,105 80.2621,105" id="Fill-19" fill="#FFFFFF" mask="url(#mask-4)"></path>
                    <path d="M61.2621,95.6641 C58.7191,95.6641 56.4891,94.5911 55.2621,93.0001 L55.2621,93.3281 C55.2621,95.8971 57.9621,98.0001 61.2621,98.0001 C64.5621,98.0001 67.2621,95.8971 67.2621,93.3281 L67.2621,93.0001 C66.0351,94.5911 63.8051,95.6641 61.2621,95.6641" id="Fill-20" fill="#E49584" mask="url(#mask-4)"></path>
                    <path d="M41.7621,95 C41.7621,98.313 39.0751,101 35.7621,101 C32.4491,101 29.7621,98.313 29.7621,95 C29.7621,91.687 32.4491,89 35.7621,89 C39.0751,89 41.7621,91.687 41.7621,95" id="Fill-21" fill="#FFB7A9" mask="url(#mask-4)"></path>
                    <path d="M92.7621,95 C92.7621,98.313 90.0751,101 86.7621,101 C83.4491,101 80.7621,98.313 80.7621,95 C80.7621,91.687 83.4491,89 86.7621,89 C90.0751,89 92.7621,91.687 92.7621,95" id="Fill-22" fill="#FFB7A9" mask="url(#mask-4)"></path>
                    <path d="M82.1527,85 C84.4637,85 86.5897,85.369 88.2607,85.981 L88.2617,85.981 L88.2617,85.109 C88.2617,81.749 85.5127,79 82.1527,79 C78.7937,79 76.0447,81.749 76.0447,85.109 L76.0447,85.981 L76.0457,85.981 C77.7157,85.369 79.8417,85 82.1527,85" id="Fill-23" fill="#754448" mask="url(#mask-4)"></path>
                    <path d="M83.4291,80.7471 L83.4291,80.7471 C83.2091,80.5811 83.1651,80.2671 83.3301,80.0471 L85.1351,77.6501 C85.3011,77.4311 85.6161,77.3861 85.8351,77.5521 C86.0551,77.7171 86.1001,78.0321 85.9341,78.2521 L84.1291,80.6481 C83.9641,80.8681 83.6491,80.9121 83.4291,80.7471" id="Fill-24" fill="#754448" mask="url(#mask-4)"></path>
                    <path d="M85.6889,82.4482 L85.6889,82.4482 C85.4689,82.2832 85.4239,81.9682 85.5899,81.7482 L87.3949,79.3512 C87.5599,79.1322 87.8759,79.0882 88.0949,79.2532 C88.3149,79.4192 88.3589,79.7332 88.1939,79.9532 L86.3889,82.3492 C86.2229,82.5692 85.9089,82.6142 85.6889,82.4482" id="Fill-25" fill="#754448" mask="url(#mask-4)"></path>
                    <path d="M40.598,85 C38.287,85 36.161,85.369 34.49,85.981 L34.489,85.981 L34.489,85.109 C34.489,81.749 37.238,79 40.598,79 C43.958,79 46.707,81.749 46.707,85.109 L46.707,85.981 L46.706,85.981 C45.035,85.369 42.909,85 40.598,85" id="Fill-26" fill="#754448" mask="url(#mask-4)"></path>
                    <path d="M39.3217,80.7471 L39.3217,80.7471 C39.5417,80.5811 39.5867,80.2671 39.4207,80.0471 L37.6157,77.6501 C37.4507,77.4311 37.1347,77.3861 36.9157,77.5521 C36.6957,77.7171 36.6517,78.0321 36.8167,78.2521 L38.6217,80.6481 C38.7877,80.8681 39.1017,80.9121 39.3217,80.7471" id="Fill-27" fill="#754448" mask="url(#mask-4)"></path>
                    <path d="M37.0629,82.4482 L37.0629,82.4482 C37.2829,82.2832 37.3269,81.9682 37.1619,81.7482 L35.3569,79.3512 C35.1909,79.1322 34.8759,79.0882 34.6569,79.2532 C34.4369,79.4192 34.3919,79.7332 34.5579,79.9532 L36.3629,82.3492 C36.5279,82.5692 36.8429,82.6142 37.0629,82.4482" id="Fill-28" fill="#754448" mask="url(#mask-4)"></path>
                    <path d="M90.5062,143.8232 C86.5122,156.3222 74.8802,165.4292 61.2432,165.4292 C47.6072,165.4292 35.9752,156.3222 31.9812,143.8232 L19.2252,150.0102 L19.2252,186.0002 L60.4972,186.0002 L61.9892,186.0002 L103.2622,186.0002 L103.2622,150.0102 L90.5062,143.8232 Z" id="Fill-29" fill="#FFFFFF" mask="url(#mask-4)"></path>
                    <path d="M109.6195,154.4316 L93.4085,142.9716 C87.0525,153.6476 75.4005,160.8026 62.0745,160.8026 C48.7475,160.8026 37.0965,153.6476 30.7395,142.9716 L14.5285,154.4316 C14.5285,154.4316 7.0565,161.4496 7.0565,175.4836 L7.0565,197.9396 L61.3945,197.9396 L62.7535,197.9396 L117.0915,197.9396 L117.0915,175.4836 C117.0915,161.4496 109.6195,154.4316 109.6195,154.4316" id="Fill-30" fill="#FF84C1" mask="url(#mask-4)"></path>
                    <polygon id="Fill-31" fill="#F9F9F9" mask="url(#mask-4)" points="58.3295 197.9395 19.6165 197.9395 16.8655 148.4245 33.1695 136.0455"></polygon>
                    <polygon id="Fill-32" fill="#F9F9F9" mask="url(#mask-4)" points="63.4291 197.9395 102.1421 197.9395 102.1421 144.2975 91.1381 136.0455"></polygon>
                    <polygon id="Fill-33" fill="#F9F9F9" mask="url(#mask-4)" points="120.0219 197.9395 98.8529 197.9395 98.8529 141.8025 115.8959 153.9255"></polygon>
                    <polygon id="Fill-34" fill="#F9F9F9" mask="url(#mask-4)" points="21.5297 197.9395 4.4867 197.9395 8.6127 153.9255 20.9917 145.6735"></polygon>
                    <path d="M33.7279,136.0459 C32.3069,137.3349 18.0939,159.2559 18.0939,159.2559 L31.8479,163.5539 L22.9139,174.4069 L53.6249,197.9399 L63.4829,197.9399 L33.7279,136.0459 Z" id="Fill-35" fill="#FFFFFF" mask="url(#mask-4)"></path>
                    <path d="M90.224,135.8789 C91.656,137.1559 106.054,158.9549 106.054,158.9549 L92.337,163.3699 L101.365,174.1469 L70.853,197.9399 L60.996,197.9999 L90.224,135.8789 Z" id="Fill-36" fill="#FFFFFF" mask="url(#mask-4)"></path>
                    <polygon id="Fill-37" fill="#F2F2F2" mask="url(#mask-4)" points="80.0404 34 43.0404 34 47.0404 3.538 76.0404 3.538"></polygon>
                    <polygon id="Fill-38" fill="#E23E2D" mask="url(#mask-4)" points="65.9955 20.9004 63.0955 20.9004 63.0955 18.0004 60.0955 18.0004 60.0955 20.9004 57.1955 20.9004 57.1955 23.9004 60.0955 23.9004 60.0955 26.7994 63.0955 26.7994 63.0955 23.9004 65.9955 23.9004"></polygon>
                    <path d="M76.3353,3.5 C76.3353,5.433 69.8433,7 61.8353,7 C53.8273,7 47.3353,5.433 47.3353,3.5 C47.3353,1.567 53.8273,0 61.8353,0 C69.8433,0 76.3353,1.567 76.3353,3.5" id="Fill-39" fill="#F7F7F7" mask="url(#mask-4)"></path>
                    <polygon id="Fill-40" fill="#3E4566" mask="url(#mask-4)" points="45.3168 14 77.7638 14 77.3618 11 45.7198 11"></polygon>
                    <path d="M61.7621,38 C74.3221,38 85.8621,40.027 94.9901,43.414 C88.7221,35.442 76.1991,30 61.7621,30 C47.3251,30 34.8021,35.442 28.5341,43.414 C37.6621,40.027 49.2021,38 61.7621,38" id="Fill-41" fill="#713D25" mask="url(#mask-4)"></path>
                    <path d="M17.2621,71 C17.2621,71 34.2621,66 38.2621,53 C38.2621,53 44.2621,70 57.2621,70 C57.2621,70 54.2621,68 54.2621,64 C54.2621,64 63.2621,70 74.2621,71 C74.2621,71 83.2621,72 105.2621,71 L89.1111,37 L43.0401,34 L23.2621,53 L17.2621,71 Z" id="Fill-42" fill="#713D25" mask="url(#mask-4)"></path>
                </g>
            </g>
        </g>
    </g>
</svg>