<?xml version="1.0" encoding="UTF-8"?>
<svg width="150px" height="188px" viewBox="0 0 150 188" version="1.1" xmlns="http://www.w3.org/2000/svg" xmlns:xlink="http://www.w3.org/1999/xlink">
    <!-- Generator: Sketch 46.2 (44496) - http://www.bohemiancoding.com/sketch -->
    <title>Page 1</title>
    <desc>Created with Sketch.</desc>
    <defs>
        <polygon id="path-1" points="150 0.0002 150 50 0.0005 50 0.0005 0.0002 150 0.0002"></polygon>
        <polygon id="path-3" points="0 188 150 188 150 0 0 0"></polygon>
    </defs>
    <g id="Page-1" stroke="none" stroke-width="1" fill="none" fill-rule="evenodd">
        <g id="avatar" transform="translate(-240.000000, -1506.000000)">
            <g id="doctor-copy-4" transform="translate(234.000000, 1506.000000)">
                <g id="Page-1" transform="translate(6.000000, 0.000000)">
                    <g id="Group-3" transform="translate(0.000000, 138.000000)">
                        <mask id="mask-2" fill="white">
                            <use xlink:href="#path-1"></use>
                        </mask>
                        <g id="Clip-2"></g>
                        <path d="M139.8145,18.3672 L104.6295,5.1012 C98.1485,3.0612 95.3705,0.0002 95.3705,0.0002 L75.0005,0.9752 L54.6295,0.0002 C54.6295,0.0002 51.8515,3.0612 45.3705,5.1012 L10.1855,18.3672 C10.1855,18.3672 0.0005,23.4702 0.0005,33.6742 L0.0005,50.0002 L74.0745,50.0002 L75.9255,50.0002 L150.0005,50.0002 L150.0005,33.6742 C150.0005,23.4702 139.8145,18.3672 139.8145,18.3672" id="Fill-1" fill="#084667" mask="url(#mask-2)"></path>
                    </g>
                    <path d="M74.5,118 L74.5,118 C48.375,118 27,96.625 27,70.5 L27,68.5 C27,42.375 48.375,21 74.5,21 C100.625,21 122,42.375 122,68.5 L122,70.5 C122,96.625 100.625,118 74.5,118" id="Fill-4" fill="#79464D"></path>
                    <mask id="mask-4" fill="white">
                        <use xlink:href="#path-3"></use>
                    </mask>
                    <g id="Clip-7"></g>
                    <polygon id="Fill-6" fill="#FFCBB9" mask="url(#mask-4)" points="53 156 95 156 95 125 53 125"></polygon>
                    <path d="M53,131.8799 C59.199,137.0049 66.574,139.9999 74.478,139.9999 C81.976,139.9999 89.005,137.3139 95,132.6599 L95,122.9999 L53,122.9999 L53,131.8799 Z" id="Fill-8" fill="#E39586" mask="url(#mask-4)"></path>
                    <path d="M74,119 L74,119 C49.8,119 30,102.2 30,78 L30,71 C30,46.8 49.8,27 74,27 C98.2,27 118,46.8 118,71 L118,78 C118,102.2 98.2,119 74,119" id="Fill-9" fill="#79464D" mask="url(#mask-4)"></path>
                    <path d="M74,135 L74,135 C51.175,135 32.5,119.325 32.5,96.5 L32.5,81.5 C32.5,58.675 51.175,40 74,40 C96.825,40 115.5,58.675 115.5,81.5 L115.5,96.5 C115.5,119.325 96.825,135 74,135" id="Fill-10" fill="#FFCBB9" mask="url(#mask-4)"></path>
                    <path d="M41,100 L32,100 C26.775,100 22.5,95.725 22.5,90.5 C22.5,85.275 26.775,81 32,81 L41,81 C46.225,81 50.5,85.275 50.5,90.5 C50.5,95.725 46.225,100 41,100" id="Fill-11" fill="#FFCBB9" mask="url(#mask-4)"></path>
                    <path d="M116,100 L107,100 C101.775,100 97.5,95.725 97.5,90.5 C97.5,85.275 101.775,81 107,81 L116,81 C121.225,81 125.5,85.275 125.5,90.5 C125.5,95.725 121.225,100 116,100" id="Fill-12" fill="#FFCBB9" mask="url(#mask-4)"></path>
                    <path d="M32.5,86 L32,86 C29.525,86 27.5,87.657 27.5,89.682 L27.5,91.318 C27.5,93.343 29.525,95 32,95 L32.5,95 L32.5,86 Z" id="Fill-13" fill="#E39586" mask="url(#mask-4)"></path>
                    <path d="M115.5,86 L116,86 C118.475,86 120.5,87.657 120.5,89.682 L120.5,91.318 C120.5,93.343 118.475,95 116,95 L115.5,95 L115.5,86 Z" id="Fill-14" fill="#E39586" mask="url(#mask-4)"></path>
                    <path d="M93,105 L75,105 L74,105 L56,105 C56,105 53,105 54,108.333 C54,108.333 57.85,119.528 74,119.979 L74,120 C74.171,120 74.332,119.991 74.5,119.989 C74.668,119.991 74.829,120 75,120 L75,119.979 C91.15,119.528 95,108.333 95,108.333 C96,105 93,105 93,105" id="Fill-15" fill="#8B2A23" mask="url(#mask-4)"></path>
                    <path d="M74.5,113 C70.533,113 67.091,115.203 65.303,118.446 C67.703,119.301 70.572,119.883 74,119.979 L74,120 C74.171,120 74.332,119.991 74.5,119.989 C74.668,119.991 74.829,120 75,120 L75,119.979 C78.428,119.883 81.297,119.301 83.697,118.446 C81.909,115.203 78.467,113 74.5,113" id="Fill-16" fill="#DB6565" mask="url(#mask-4)"></path>
                    <path d="M93,105 L75,105 L74,105 L56,105 C56,105 53,105 54,108.333 C54,108.333 54.396,109.458 55.432,111 L93.568,111 C94.604,109.458 95,108.333 95,108.333 C96,105 93,105 93,105" id="Fill-17" fill="#FFFFFF" mask="url(#mask-4)"></path>
                    <path d="M74,95.6641 C71.457,95.6641 69.227,94.5911 68,93.0001 L68,93.3281 C68,95.8971 70.7,98.0001 74,98.0001 C77.3,98.0001 80,95.8971 80,93.3281 L80,93.0001 C78.773,94.5911 76.543,95.6641 74,95.6641" id="Fill-18" fill="#E49584" mask="url(#mask-4)"></path>
                    <path d="M54.5,95 C54.5,98.313 51.813,101 48.5,101 C45.187,101 42.5,98.313 42.5,95 C42.5,91.687 45.187,89 48.5,89 C51.813,89 54.5,91.687 54.5,95" id="Fill-19" fill="#FFB7A9" mask="url(#mask-4)"></path>
                    <path d="M105.5,95 C105.5,98.313 102.813,101 99.5,101 C96.187,101 93.5,98.313 93.5,95 C93.5,91.687 96.187,89 99.5,89 C102.813,89 105.5,91.687 105.5,95" id="Fill-20" fill="#FFB7A9" mask="url(#mask-4)"></path>
                    <path d="M94.8906,85 C97.2016,85 99.3276,85.369 100.9986,85.981 L100.9996,85.981 L100.9996,85.109 C100.9996,81.749 98.2506,79 94.8906,79 C91.5316,79 88.7826,81.749 88.7826,85.109 L88.7826,85.981 L88.7836,85.981 C90.4536,85.369 92.5796,85 94.8906,85" id="Fill-21" fill="#754448" mask="url(#mask-4)"></path>
                    <path d="M53.3359,85 C51.0249,85 48.8989,85.369 47.2279,85.981 L47.2269,85.981 L47.2269,85.109 C47.2269,81.749 49.9759,79 53.3359,79 C56.6959,79 59.4449,81.749 59.4449,85.109 L59.4449,85.981 L59.4439,85.981 C57.7729,85.369 55.6469,85 53.3359,85" id="Fill-22" fill="#754448" mask="url(#mask-4)"></path>
                    <polygon id="Fill-23" fill="#79464D" mask="url(#mask-4)" points="113 64 35 64 39 40 109 40"></polygon>
                    <path d="M110.5,54 C110.5,65.046 94.158,74 74,74 C53.842,74 37.5,65.046 37.5,54 C37.5,42.954 53.842,34 74,34 C94.158,34 110.5,42.954 110.5,54" id="Fill-24" fill="#002C3F" mask="url(#mask-4)"></path>
                    <polygon id="Fill-25" fill="#002C3F" mask="url(#mask-4)" points="65 188 83 188 83 154 65 154"></polygon>
                    <polygon id="Fill-26" fill="#084667" mask="url(#mask-4)" points="53 134.375 49 135 49 142 53 144"></polygon>
                    <polygon id="Fill-27" fill="#084667" mask="url(#mask-4)" points="95 134.375 99 135 99 142 95 144"></polygon>
                    <path d="M74,153.8271 L63.538,174.0001 C63.538,174.0001 51.769,165.9311 43.922,156.5171 C43.922,156.5171 37.383,149.7931 41.307,143.0691 L49.521,135.0001 C49.521,135.0001 51.769,149.7931 74,153.8271" id="Fill-28" fill="#07638C" mask="url(#mask-4)"></path>
                    <path d="M74,153.8271 L84.479,174.0001 C84.479,174.0001 96.267,165.9311 104.125,156.5171 C104.125,156.5171 110.674,149.7931 106.744,143.0691 L98.461,135.0001 C98.461,135.0001 96.267,149.7931 74,153.8271" id="Fill-29" fill="#07638C" mask="url(#mask-4)"></path>
                    <path d="M22.7129,151.1113 L19.9959,152.2223 L24.1299,161.8143 C24.4499,162.5553 25.3169,162.9013 26.0589,162.5823 C26.7999,162.2613 27.1449,161.3943 26.8249,160.6533 L22.7129,151.1113 Z" id="Fill-30" fill="#FFDA3E" mask="url(#mask-4)"></path>
                    <path d="M26.5156,149.5557 L23.7986,150.6667 L27.9036,160.1887 C28.2226,160.9297 29.0896,161.2747 29.8306,160.9547 C30.5726,160.6357 30.9176,159.7687 30.5976,159.0277 L26.5156,149.5557 Z" id="Fill-31" fill="#FFDA3E" mask="url(#mask-4)"></path>
                    <path d="M30.3193,148 L27.6023,149.111 L31.6753,158.563 C31.9953,159.304 32.8633,159.648 33.6043,159.329 C34.3453,159.01 34.6903,158.142 34.3713,157.401 L30.3193,148 Z" id="Fill-32" fill="#FFDA3E" mask="url(#mask-4)"></path>
                    <path d="M127.7734,151.1113 L130.4904,152.2223 L126.3554,161.8143 C126.0364,162.5553 125.1694,162.9013 124.4274,162.5823 C123.6864,162.2613 123.3414,161.3943 123.6614,160.6533 L127.7734,151.1113 Z" id="Fill-33" fill="#FFDA3E" mask="url(#mask-4)"></path>
                    <path d="M123.9707,149.5557 L126.6867,150.6667 L122.5827,160.1887 C122.2637,160.9297 121.3957,161.2747 120.6547,160.9547 C119.9127,160.6357 119.5687,159.7687 119.8877,159.0277 L123.9707,149.5557 Z" id="Fill-34" fill="#FFDA3E" mask="url(#mask-4)"></path>
                    <path d="M120.167,148 L122.884,149.111 L118.81,158.563 C118.49,159.304 117.623,159.648 116.882,159.329 C116.141,159.01 115.796,158.142 116.115,157.401 L120.167,148 Z" id="Fill-35" fill="#FFDA3E" mask="url(#mask-4)"></path>
                    <path d="M53,70.5479 C56.593,71.8869 60.646,72.8799 65,73.4489 L65,34.5509 C60.646,35.1199 56.593,36.1129 53,37.4519 L53,70.5479 Z" id="Fill-36" fill="#004C66" mask="url(#mask-4)"></path>
                    <path d="M129.5,31 C129.5,48.121 104.651,62 74,62 C43.349,62 18.5,48.121 18.5,31 C18.5,13.879 43.349,0 74,0 C104.651,0 129.5,13.879 129.5,31" id="Fill-37" fill="#084667" mask="url(#mask-4)"></path>
                    <path d="M96.4697,39.6836 L52.0317,39.8666 C51.7387,39.8676 51.4977,39.6286 51.4957,39.3356 L51.4927,38.4986 C51.4917,38.2056 51.7307,37.9646 52.0237,37.9636 L96.4617,37.7816 C96.7547,37.7806 96.9957,38.0186 96.9967,38.3116 L97.0007,39.1486 C97.0017,39.4416 96.7627,39.6826 96.4697,39.6836" id="Fill-38" fill="#FFEEA6" mask="url(#mask-4)"></path>
                    <path d="M94.2061,42.5469 L54.3181,42.7109 C54.0251,42.7119 53.7841,42.4729 53.7831,42.1799 L53.7801,41.3439 C53.7781,41.0509 54.0181,40.8099 54.3101,40.8089 L94.1981,40.6449 C94.4911,40.6429 94.7321,40.8819 94.7331,41.1749 L94.7371,42.0119 C94.7381,42.3049 94.4991,42.5459 94.2061,42.5469" id="Fill-39" fill="#FFEEA6" mask="url(#mask-4)"></path>
                    <path d="M90.4258,45.416 L58.1218,45.549 C57.8288,45.55 57.5878,45.312 57.5868,45.018 L57.5838,44.182 C57.5818,43.889 57.8218,43.647 58.1138,43.646 L90.4178,43.514 C90.7108,43.513 90.9518,43.751 90.9528,44.044 L90.9568,44.881 C90.9578,45.174 90.7188,45.415 90.4258,45.416" id="Fill-40" fill="#FFEEA6" mask="url(#mask-4)"></path>
                    <path d="M82.7344,41.915 C82.7344,46.726 78.8354,50.625 74.0244,50.625 C69.2144,50.625 65.3144,46.726 65.3144,41.915 C65.3144,37.104 69.2144,33.205 74.0244,33.205 C78.8354,33.205 82.7344,37.104 82.7344,41.915" id="Fill-41" fill="#FFDA3E" mask="url(#mask-4)"></path>
                    <path d="M77.3818,41.915 C77.3818,43.769 75.8788,45.271 74.0248,45.271 C72.1708,45.271 70.6678,43.769 70.6678,41.915 C70.6678,40.061 72.1708,38.559 74.0248,38.559 C75.8788,38.559 77.3818,40.061 77.3818,41.915" id="Fill-42" fill="#FFF6D2" mask="url(#mask-4)"></path>
                    <path d="M39,53 C39,54.104 38.104,55 37,55 C35.896,55 35,54.104 35,53 C35,51.896 35.896,51 37,51 C38.104,51 39,51.896 39,53" id="Fill-43" fill="#FFDA3E" mask="url(#mask-4)"></path>
                    <path d="M113,53 C113,54.104 112.104,55 111,55 C109.896,55 109,54.104 109,53 C109,51.896 109.896,51 111,51 C112.104,51 113,51.896 113,53" id="Fill-44" fill="#FFDA3E" mask="url(#mask-4)"></path>
                </g>
            </g>
        </g>
    </g>
</svg>