<?xml version="1.0" encoding="UTF-8"?>
<svg width="507px" height="303px" viewBox="0 0 507 303" version="1.1" xmlns="http://www.w3.org/2000/svg" xmlns:xlink="http://www.w3.org/1999/xlink">
    <!-- Generator: Sketch 46.2 (44496) - http://www.bohemiancoding.com/sketch -->
    <title>Group 13</title>
    <desc>Created with Sketch.</desc>
    <defs>
        <linearGradient x1="50%" y1="-18.7128933%" x2="50%" y2="100%" id="linearGradient-1">
            <stop stop-color="#FFFFFF" stop-opacity="0.5" offset="0%"></stop>
            <stop stop-color="#000000" stop-opacity="0.5" offset="100%"></stop>
        </linearGradient>
        <path d="M185.923553,57.1784648 C187.33791,63.3937533 188.209598,71.1693314 187.567954,80.0732299 C187.567954,80.0732299 187.290593,91.223812 182.570217,101.936036 C179.364861,109.201763 171.397264,120.081981 165.046736,125.266161 C162.217401,127.574346 159.101349,129.795639 155.612295,131.854334 L153.198959,152.696121 C152.578821,154.943037 151.134448,156.092743 151.134448,156.092743 L126.38649,156.092743 C123.502979,155.226526 123.502979,153.816954 123.502979,153.816954 L119.314562,143.284259 C112.379984,144.093184 104.650676,144.423891 95.9942288,144.160203 C95.9942288,144.160203 90.9612721,143.429412 83.5415445,141.531869 L79.0644589,154.04217 C78.8420465,156.512203 73.0200749,156.063345 73.0200749,156.063345 L54.211836,156.063345 C49.5097763,155.840228 50.8521005,153.367571 50.8521005,153.367571 L46.2876258,125.960699 C37.530687,120.179964 29.9626802,112.720384 26.0363001,103.177877 L8.45820452,103.177877 C4.2506853,103.177877 0.841234101,99.9649969 0.841234101,96.0013955 L0.841234101,65.2034246 C0.841234101,61.2398232 4.2506853,58.0269436 8.45820452,58.0269436 L20.6955346,58.0269436 C21.0279795,57.301876 21.387027,56.5452526 21.7739039,55.761391 C24.7941394,49.6345689 29.6194604,41.9606862 36.7281224,34.5382728 C25.124655,5.30286139 34.5602617,1.23798431 34.5602617,1.23798431 C41.0969197,-2.12617296 60.3958511,7.89195313 69.6856354,13.1413259 C85.5901698,7.3915376 105.846615,5.12876591 131.3735,9.80723817 C131.3735,9.80723817 170.939357,16.7369785 183.323802,48.5770352 C189.487791,46.8039176 196.487128,42.8568213 197.137967,34.0744537 C197.137967,34.0744537 201.329786,32.1766498 201.329786,37.6784437 C201.329786,37.6784437 200.781487,51.3934686 185.923553,57.1784648 Z" id="path-2"></path>
        <polygon id="path-3" points="0 20.6176838 0 0.737682114 38.9373462 0.737682114 38.9373462 20.6176838"></polygon>
        <polygon id="path-5" points="0 0.605020763 0 14.4198639 38.9370385 14.4198639 38.9370385 0.605020763 0 0.605020763"></polygon>
        <polygon id="path-7" points="0 0.605020763 0 14.4198639 38.9370385 14.4198639 38.9370385 0.605020763 0 0.605020763"></polygon>
        <polygon id="path-9" points="0 0.605020763 0 14.4198639 38.9370385 14.4198639 38.9370385 0.605020763"></polygon>
        <polygon id="path-11" points="38.9370385 14.4197121 0 14.4197121 0 0.605020763 38.9370385 0.605020763"></polygon>
        <polygon id="path-13" points="0 0.605020763 0 14.4198639 38.9370385 14.4198639 38.9370385 0.605020763"></polygon>
        <polygon id="path-15" points="0 0.605020763 0 14.4198639 38.9370385 14.4198639 38.9370385 0.605020763 0 0.605020763"></polygon>
        <polygon id="path-17" points="0 0.605020763 0 14.4198639 38.9370385 14.4198639 38.9370385 0.605020763 0 0.605020763"></polygon>
        <polygon id="path-19" points="0 0.605020763 0 14.4198639 38.9370385 14.4198639 38.9370385 0.605020763 0 0.605020763"></polygon>
        <polygon id="path-21" points="0 20.6176838 0 0.737682114 38.9373462 0.737682114 38.9373462 20.6176838"></polygon>
        <polygon id="path-23" points="0 0.605020763 0 14.4198639 38.9370385 14.4198639 38.9370385 0.605020763 0 0.605020763"></polygon>
        <polygon id="path-25" points="0 0.605020763 0 14.4198639 38.9370385 14.4198639 38.9370385 0.605020763 0 0.605020763"></polygon>
        <polygon id="path-27" points="0 0.605020763 0 14.4198639 38.9370385 14.4198639 38.9370385 0.605020763"></polygon>
        <polygon id="path-29" points="38.9370385 14.4197121 0 14.4197121 0 0.605020763 38.9370385 0.605020763"></polygon>
        <polygon id="path-31" points="0 0.605020763 0 14.4198639 38.9370385 14.4198639 38.9370385 0.605020763"></polygon>
        <polygon id="path-33" points="0 0.605020763 0 14.4198639 38.9370385 14.4198639 38.9370385 0.605020763 0 0.605020763"></polygon>
        <polygon id="path-35" points="0 0.605020763 0 14.4198639 38.9370385 14.4198639 38.9370385 0.605020763 0 0.605020763"></polygon>
        <polygon id="path-37" points="0 0.605020763 0 14.4198639 38.9370385 14.4198639 38.9370385 0.605020763 0 0.605020763"></polygon>
        <polygon id="path-39" points="0 20.6176838 0 0.737682114 38.9373462 0.737682114 38.9373462 20.6176838"></polygon>
        <polygon id="path-41" points="0 0.605020763 0 14.4198639 38.9370385 14.4198639 38.9370385 0.605020763 0 0.605020763"></polygon>
        <polygon id="path-43" points="0 0.605020763 0 14.4198639 38.9370385 14.4198639 38.9370385 0.605020763 0 0.605020763"></polygon>
        <polygon id="path-45" points="0 0.605020763 0 14.4198639 38.9370385 14.4198639 38.9370385 0.605020763"></polygon>
        <polygon id="path-47" points="38.9370385 14.4197121 0 14.4197121 0 0.605020763 38.9370385 0.605020763"></polygon>
        <polygon id="path-49" points="0 0.605020763 0 14.4198639 38.9370385 14.4198639 38.9370385 0.605020763"></polygon>
        <polygon id="path-51" points="0 0.605020763 0 14.4198639 38.9370385 14.4198639 38.9370385 0.605020763 0 0.605020763"></polygon>
        <polygon id="path-53" points="0 0.605020763 0 14.4198639 38.9370385 14.4198639 38.9370385 0.605020763 0 0.605020763"></polygon>
        <polygon id="path-55" points="0 0.605020763 0 14.4198639 38.9370385 14.4198639 38.9370385 0.605020763 0 0.605020763"></polygon>
        <linearGradient x1="50%" y1="127.865286%" x2="50%" y2="-14.6023956%" id="linearGradient-57">
            <stop stop-color="#6493D7" offset="0%"></stop>
            <stop stop-color="#ABC5EA" offset="100%"></stop>
        </linearGradient>
        <path d="M77.5479395,161.853377 C55.7756441,153.156278 38.531427,136.341161 26.295316,111.87365 C17.2759431,93.8404665 11.1266214,72.0577828 8.01747583,47.1310007 L7.27628348,41.1958797 L13.2076615,39.9750909 C25.5513649,37.4327643 35.9630024,25.2566443 36.4172816,12.832736 L36.6462603,6.56723056 L123.390595,6.56723056 L123.619573,12.832736 C124.073853,25.2566443 134.48549,37.4327643 146.829193,39.9750909 L152.760571,41.1958797 L152.019379,47.1310007 C148.910233,72.0577828 142.760912,93.8404665 133.741539,111.87365 C121.505428,136.341161 104.261211,153.156278 82.4889154,161.853377 L80.0188873,162.8409 L77.5479395,161.853377 Z" id="path-58"></path>
        <linearGradient x1="50%" y1="100%" x2="50%" y2="0%" id="linearGradient-59">
            <stop stop-color="#6493D7" offset="0%"></stop>
            <stop stop-color="#ABC5EA" offset="100%"></stop>
        </linearGradient>
        <path d="M129.742503,0.0674607141 L117.038319,0.0674607141 L80.0182435,0.0674607141 L42.9981684,0.0674607141 L30.2939844,0.0674607141 L29.8360268,12.5984717 C29.4847421,22.2159273 21.4217464,31.6427764 11.8625721,33.6123762 L-0.000183918698,36.0548613 L1.4803616,47.9269186 C4.68146653,73.5789128 11.0432143,96.0623021 20.3890429,114.750808 C33.3626679,140.691435 51.762814,158.565779 75.0772677,167.879172 L80.0182435,169.85331 L84.9592194,167.879172 C108.274593,158.565779 126.673819,140.691435 139.647444,114.750808 C148.994192,96.0623021 155.35594,73.5789128 158.556125,47.9269186 L160.036671,36.0548613 L148.173915,33.6123762 C138.614741,31.6427764 130.551745,22.2159273 130.20046,12.5984717 L129.742503,0.0674607141 Z M117.038319,13.0668189 C117.585477,28.0394074 129.546629,43.0546554 145.484104,46.3376241 C140.603821,85.4582313 125.127983,137.809647 80.0182435,155.828308 C34.9094241,137.809647 19.4335853,85.4582313 14.5533026,46.3376241 C30.4907774,43.0546554 42.4510103,28.0394074 42.9981684,13.0668189 L80.0182435,13.0668189 L117.038319,13.0668189 L117.038319,13.0668189 Z" id="path-60"></path>
        <polygon id="path-61" points="0 130.401092 95.6467467 130.401092 95.6467467 0 0 0"></polygon>
    </defs>
    <g id="Page-1" stroke="none" stroke-width="1" fill="none" fill-rule="evenodd">
        <g id="D_Product-Copy" transform="translate(-761.000000, -330.000000)">
            <g id="Group-13" transform="translate(742.000000, 316.000000)">
                <g id="Group-3">
                    <path d="M267.250804,149.907647 L250.139425,149.907647 L250.139425,158.418829 L267.250804,158.418829 L267.250804,175.773076 L275.544727,175.773076 L275.544727,158.418829 L293.673582,158.418829 L293.673582,149.907647 L275.544727,149.907647 L275.544727,131.098539 L267.250804,131.098539 L267.250804,149.907647 Z" id="Combined-Shape" fill="#9B9B9B" opacity="0.248245018"></path>
                    <text id="Insurance" font-family="Roboto-Medium, Roboto" font-size="26" font-weight="400" line-spacing="15" letter-spacing="1.625" fill="#424559">
                        <tspan x="338.319118" y="312.147373">Insuranc</tspan>
                        <tspan x="451.878689" y="312.147373" letter-spacing="2.640625">e</tspan>
                    </text>
                    <text id="Investment" font-family="Roboto-Medium, Roboto" font-size="26" font-weight="400" line-spacing="15" letter-spacing="1.625" fill="#424559">
                        <tspan x="42.7940767" y="312.147373">Investmen</tspan>
                        <tspan x="178.963999" y="312.147373" letter-spacing="2.640625">t</tspan>
                    </text>
                    <g id="Group-6" transform="translate(0.000000, 52.439416)">
                        <g id="Page-1" transform="translate(31.304439, 26.980915)">
                            <g id="Combined-Shape">
                                <use fill="#F7C4D1" xlink:href="#path-2"></use>
                                <use fill="url(#linearGradient-1)" style="mix-blend-mode: overlay;" xlink:href="#path-2"></use>
                                <use fill-opacity="0.350000024" fill="#000000" style="mix-blend-mode: overlay;" xlink:href="#path-2"></use>
                            </g>
                            <path d="M43.9562696,64.4233039 C43.9562696,67.2424482 41.6771967,69.5287375 38.8669507,69.5287375 C36.054088,69.5287375 33.7776317,67.2424482 33.7776317,64.4233039 C33.7776317,61.6041595 36.054088,59.3178702 38.8669507,59.3178702 C41.6771967,59.3178702 43.9562696,61.6041595 43.9562696,64.4233039" id="Fill-14" fill="#874B63"></path>
                            <path d="M87.2120791,16.8251752 L88.9625955,23.4714261 C88.9625955,23.4714261 105.483912,20.2165481 126.900917,24.6106334 L128.486587,17.5181492 C128.486587,17.5181492 104.54978,10.9191465 87.2120791,16.8251752" id="Fill-24" fill="#AA6D85"></path>
                            <path d="M127.504047,21.9082972 C122.731339,20.6220954 108.023338,17.482713 88.2888167,20.9082096 L88.9639038,23.4727385 C88.9639038,23.4727385 105.48522,20.2152356 126.902225,24.6093209 L127.504047,21.9082972 Z" id="Fill-26" fill="#834F66"></path>
                        </g>
                    </g>
                    <g id="coins" transform="translate(169.674994, 173.890533)">
                        <g id="Page-1" transform="translate(32.691521, 27.618228)">
                            <g id="Group-3" transform="translate(0.000000, 0.021022)">
                                <mask id="mask-4" fill="white">
                                    <use xlink:href="#path-3"></use>
                                </mask>
                                <g id="Clip-2"></g>
                                <path d="M38.9373462,10.6779486 C38.9373462,16.1673053 30.2203054,20.6176838 19.4689807,20.6176838 C8.71611788,20.6176838 -0.000153821084,16.1673053 -0.000153821084,10.6779486 C-0.000153821084,5.18783295 8.71611788,0.737454435 19.4689807,0.737454435 C30.2203054,0.737454435 38.9373462,5.18783295 38.9373462,10.6779486" id="Fill-1" fill="#EFD44F" mask="url(#mask-4)"></path>
                            </g>
                            <path d="M34.9671471,10.9220212 C34.9671471,15.0483357 28.028278,18.3937089 19.4689038,18.3937089 C10.9095296,18.3937089 3.96989144,15.0483357 3.96989144,10.9220212 C3.96989144,6.79494781 10.9095296,3.4495746 19.4689038,3.4495746 C28.028278,3.4495746 34.9671471,6.79494781 34.9671471,10.9220212" id="Fill-4" fill="#E4C22F"></path>
                            <g id="Group-8" transform="translate(0.000000, 10.646073)">
                                <mask id="mask-6" fill="white">
                                    <use xlink:href="#path-5"></use>
                                </mask>
                                <g id="Clip-7"></g>
                                <path d="M38.8870467,0.605020763 C38.2025428,5.77714382 29.7731475,9.8662706 19.4686731,9.8662706 C9.1641987,9.8662706 0.735572422,5.77790275 0.0502994943,0.605779695 L0.0502994943,3.80088433 C0.0210734884,4.02552826 -0.000461463251,4.25169006 -0.000461463251,4.47936973 C-0.000461463251,9.96948538 8.71581024,14.4198639 19.4686731,14.4198639 C30.2207668,14.4198639 38.9370385,9.96948538 38.9370385,4.47936973 C38.9370385,4.25169006 38.9162727,4.02552826 38.8870467,3.80088433 L38.8870467,0.605020763 Z" id="Fill-6" fill="#E4C22F" mask="url(#mask-6)"></path>
                            </g>
                            <g id="Group-11" transform="translate(0.000000, 15.199667)">
                                <mask id="mask-8" fill="white">
                                    <use xlink:href="#path-7"></use>
                                </mask>
                                <g id="Clip-10"></g>
                                <path d="M38.8870467,0.605020763 C38.2025428,5.77714382 29.7731475,9.8662706 19.4686731,9.8662706 C9.1641987,9.8662706 0.735572422,5.77790275 0.0502994943,0.605779695 L0.0502994943,3.80088433 C0.0210734884,4.02552826 -0.000461463251,4.25169006 -0.000461463251,4.47936973 C-0.000461463251,9.96948538 8.71581024,14.4198639 19.4686731,14.4198639 C30.2207668,14.4198639 38.9370385,9.96948538 38.9370385,4.47936973 C38.9370385,4.25169006 38.9162727,4.02552826 38.8870467,3.80088433 L38.8870467,0.605020763 Z" id="Fill-9" fill="#EFD44F" mask="url(#mask-8)"></path>
                            </g>
                            <g id="Group-14" transform="translate(0.000000, 28.860447)">
                                <mask id="mask-10" fill="white">
                                    <use xlink:href="#path-9"></use>
                                </mask>
                                <g id="Clip-13"></g>
                                <path d="M38.8870467,0.605020763 C38.2025428,5.77714382 29.7731475,9.8662706 19.4686731,9.8662706 C9.1641987,9.8662706 0.735572422,5.77790275 0.0502994943,0.605779695 L0.0502994943,3.80088433 C0.0210734884,4.02552826 -0.000461463251,4.25169006 -0.000461463251,4.47936973 C-0.000461463251,9.96948538 8.71581024,14.4198639 19.4686731,14.4198639 C30.2207668,14.4198639 38.9370385,9.96948538 38.9370385,4.47936973 C38.9370385,4.25169006 38.9162727,4.02552826 38.8870467,3.80088433 L38.8870467,0.605020763 Z" id="Fill-12" fill="#E4C22F" mask="url(#mask-10)"></path>
                            </g>
                            <g id="Group-17" transform="translate(0.000000, 33.414040)">
                                <mask id="mask-12" fill="white">
                                    <use xlink:href="#path-11"></use>
                                </mask>
                                <g id="Clip-16"></g>
                                <path d="M38.8870467,0.605020763 C38.2025428,5.77714382 29.7731475,9.8662706 19.4686731,9.8662706 C9.1641987,9.8662706 0.735572422,5.77790275 0.0502994943,0.605779695 L0.0502994943,3.80088433 C0.0210734884,4.02552826 -0.000461463251,4.25169006 -0.000461463251,4.47936973 C-0.000461463251,9.96948538 8.71581024,14.4198639 19.4686731,14.4198639 C30.2207668,14.4198639 38.9370385,9.96948538 38.9370385,4.47936973 C38.9370385,4.25169006 38.9162727,4.02552826 38.8870467,3.80088433 L38.8870467,0.605020763 Z" id="Fill-15" fill="#EFD44F" mask="url(#mask-12)"></path>
                            </g>
                            <g id="Group-20" transform="translate(0.000000, 19.753260)">
                                <mask id="mask-14" fill="white">
                                    <use xlink:href="#path-13"></use>
                                </mask>
                                <g id="Clip-19"></g>
                                <path d="M38.8870467,0.605020763 C38.2025428,5.77714382 29.7731475,9.8662706 19.4686731,9.8662706 C9.1641987,9.8662706 0.735572422,5.77790275 0.0502994943,0.605779695 L0.0502994943,3.80088433 C0.0210734884,4.02552826 -0.000461463251,4.25169006 -0.000461463251,4.47936973 C-0.000461463251,9.96948538 8.71581024,14.4198639 19.4686731,14.4198639 C30.2207668,14.4198639 38.9370385,9.96948538 38.9370385,4.47936973 C38.9370385,4.25169006 38.9162727,4.02552826 38.8870467,3.80088433 L38.8870467,0.605020763 Z" id="Fill-18" fill="#E4C22F" mask="url(#mask-14)"></path>
                            </g>
                            <g id="Group-23" transform="translate(0.000000, 24.306853)">
                                <mask id="mask-16" fill="white">
                                    <use xlink:href="#path-15"></use>
                                </mask>
                                <g id="Clip-22"></g>
                                <path d="M38.8870467,0.605020763 C38.2025428,5.77714382 29.7731475,9.8662706 19.4686731,9.8662706 C9.1641987,9.8662706 0.735572422,5.77790275 0.0502994943,0.605779695 L0.0502994943,3.80088433 C0.0210734884,4.02552826 -0.000461463251,4.25169006 -0.000461463251,4.47936973 C-0.000461463251,9.96948538 8.71581024,14.4198639 19.4686731,14.4198639 C30.2207668,14.4198639 38.9370385,9.96948538 38.9370385,4.47936973 C38.9370385,4.25169006 38.9162727,4.02552826 38.8870467,3.80088433 L38.8870467,0.605020763 Z" id="Fill-21" fill="#EFD44F" mask="url(#mask-16)"></path>
                            </g>
                            <g id="Group-26" transform="translate(0.000000, 10.646073)">
                                <mask id="mask-18" fill="white">
                                    <use xlink:href="#path-17"></use>
                                </mask>
                                <g id="Clip-25"></g>
                                <path d="M38.8870467,0.605020763 C38.2025428,5.77714382 29.7731475,9.8662706 19.4686731,9.8662706 C9.1641987,9.8662706 0.735572422,5.77790275 0.0502994943,0.605779695 L0.0502994943,3.80088433 C0.0210734884,4.02552826 -0.000461463251,4.25169006 -0.000461463251,4.47936973 C-0.000461463251,9.96948538 8.71581024,14.4198639 19.4686731,14.4198639 C30.2207668,14.4198639 38.9370385,9.96948538 38.9370385,4.47936973 C38.9370385,4.25169006 38.9162727,4.02552826 38.8870467,3.80088433 L38.8870467,0.605020763 Z" id="Fill-24" fill="#E4C22F" mask="url(#mask-18)"></path>
                            </g>
                            <g id="Group-29" transform="translate(0.000000, 15.199667)">
                                <mask id="mask-20" fill="white">
                                    <use xlink:href="#path-19"></use>
                                </mask>
                                <g id="Clip-28"></g>
                                <path d="M38.8870467,0.605020763 C38.2025428,5.77714382 29.7731475,9.8662706 19.4686731,9.8662706 C9.1641987,9.8662706 0.735572422,5.77790275 0.0502994943,0.605779695 L0.0502994943,3.80088433 C0.0210734884,4.02552826 -0.000461463251,4.25169006 -0.000461463251,4.47936973 C-0.000461463251,9.96948538 8.71581024,14.4198639 19.4686731,14.4198639 C30.2207668,14.4198639 38.9370385,9.96948538 38.9370385,4.47936973 C38.9370385,4.25169006 38.9162727,4.02552826 38.8870467,3.80088433 L38.8870467,0.605020763 Z" id="Fill-27" fill="#EFD44F" mask="url(#mask-20)"></path>
                            </g>
                            <path d="M33.2779609,10.9220212 C33.2779609,14.3045821 27.0951224,17.0473631 19.4686731,17.0473631 C11.8422238,17.0473631 5.65938531,14.3045821 5.65938531,10.9220212 C5.65938531,7.53794245 11.8422238,4.79592036 19.4686731,4.79592036 C27.0951224,4.79592036 33.2779609,7.53794245 33.2779609,10.9220212" id="Fill-30" fill="#EFD44F"></path>
                            <path d="M23.7985828,10.6885737 L17.6365102,10.6885737 L17.6365102,11.0968792 L21.1643967,11.0968792 C22.4303442,11.0968792 23.3078935,10.9602714 23.7985828,10.6885737 L23.7985828,10.6885737 Z M24.3854102,9.82794452 C24.3854102,9.74901557 24.3784882,9.68450633 24.3661826,9.63289894 L17.6365102,9.63289894 L17.6365102,10.0609367 L24.3569533,10.0609367 C24.3754118,9.99111495 24.3854102,9.91370386 24.3854102,9.82794452 L24.3854102,9.82794452 Z M23.8454982,9.00602093 C23.5724658,8.83829691 23.2279065,8.72597494 22.8118205,8.66905503 C22.5141767,8.62731376 21.9527298,8.60682259 21.1267105,8.60682259 L17.6365102,8.60682259 L17.6365102,9.00602093 L23.8454982,9.00602093 Z M26.8888483,10.6885737 L25.9205446,10.6885737 C25.7405739,10.9071461 25.4806163,11.1112989 25.1383644,11.3017909 C24.4000232,11.7131321 23.0663944,11.9188028 21.1367089,11.9188028 L17.6365102,11.9188028 L17.6365102,14.7518967 L15.8314197,14.7518967 L15.8314197,10.6885737 L14.5193259,10.6885737 L14.5193259,10.0609367 L15.8314197,10.0609367 L15.8314197,9.63289894 L14.5193259,9.63289894 L14.5193259,9.00602093 L15.8314197,9.00602093 L15.8314197,7.784899 L20.9782732,7.784899 C21.859668,7.784899 22.5510938,7.80690803 23.0540887,7.85168503 C24.5061597,7.98146244 25.4775399,8.36548214 25.9666909,9.00602093 L26.8888483,9.00602093 L26.8888483,9.63289894 L26.237416,9.63289894 C26.2435689,9.68071167 26.2466453,9.73611372 26.2466453,9.79986403 C26.2466453,9.87879298 26.237416,9.96607019 26.2181884,10.0609367 L26.8888483,10.0609367 L26.8888483,10.6885737 Z" id="Fill-32" fill="#D7B129"></path>
                        </g>
                        <g id="Page-1-Copy-3" transform="translate(32.691521, 0.687578)">
                            <g id="Group-3" transform="translate(0.000000, 0.021022)">
                                <mask id="mask-22" fill="white">
                                    <use xlink:href="#path-21"></use>
                                </mask>
                                <g id="Clip-2"></g>
                                <path d="M38.9373462,10.6779486 C38.9373462,16.1673053 30.2203054,20.6176838 19.4689807,20.6176838 C8.71611788,20.6176838 -0.000153821084,16.1673053 -0.000153821084,10.6779486 C-0.000153821084,5.18783295 8.71611788,0.737454435 19.4689807,0.737454435 C30.2203054,0.737454435 38.9373462,5.18783295 38.9373462,10.6779486" id="Fill-1" fill="#EFD44F" mask="url(#mask-22)"></path>
                            </g>
                            <path d="M34.9671471,10.9220212 C34.9671471,15.0483357 28.028278,18.3937089 19.4689038,18.3937089 C10.9095296,18.3937089 3.96989144,15.0483357 3.96989144,10.9220212 C3.96989144,6.79494781 10.9095296,3.4495746 19.4689038,3.4495746 C28.028278,3.4495746 34.9671471,6.79494781 34.9671471,10.9220212" id="Fill-4" fill="#E4C22F"></path>
                            <g id="Group-8" transform="translate(0.000000, 10.646073)">
                                <mask id="mask-24" fill="white">
                                    <use xlink:href="#path-23"></use>
                                </mask>
                                <g id="Clip-7"></g>
                                <path d="M38.8870467,0.605020763 C38.2025428,5.77714382 29.7731475,9.8662706 19.4686731,9.8662706 C9.1641987,9.8662706 0.735572422,5.77790275 0.0502994943,0.605779695 L0.0502994943,3.80088433 C0.0210734884,4.02552826 -0.000461463251,4.25169006 -0.000461463251,4.47936973 C-0.000461463251,9.96948538 8.71581024,14.4198639 19.4686731,14.4198639 C30.2207668,14.4198639 38.9370385,9.96948538 38.9370385,4.47936973 C38.9370385,4.25169006 38.9162727,4.02552826 38.8870467,3.80088433 L38.8870467,0.605020763 Z" id="Fill-6" fill="#E4C22F" mask="url(#mask-24)"></path>
                            </g>
                            <g id="Group-11" transform="translate(0.000000, 15.199667)">
                                <mask id="mask-26" fill="white">
                                    <use xlink:href="#path-25"></use>
                                </mask>
                                <g id="Clip-10"></g>
                                <path d="M38.8870467,0.605020763 C38.2025428,5.77714382 29.7731475,9.8662706 19.4686731,9.8662706 C9.1641987,9.8662706 0.735572422,5.77790275 0.0502994943,0.605779695 L0.0502994943,3.80088433 C0.0210734884,4.02552826 -0.000461463251,4.25169006 -0.000461463251,4.47936973 C-0.000461463251,9.96948538 8.71581024,14.4198639 19.4686731,14.4198639 C30.2207668,14.4198639 38.9370385,9.96948538 38.9370385,4.47936973 C38.9370385,4.25169006 38.9162727,4.02552826 38.8870467,3.80088433 L38.8870467,0.605020763 Z" id="Fill-9" fill="#EFD44F" mask="url(#mask-26)"></path>
                            </g>
                            <g id="Group-14" transform="translate(0.000000, 28.860447)">
                                <mask id="mask-28" fill="white">
                                    <use xlink:href="#path-27"></use>
                                </mask>
                                <g id="Clip-13"></g>
                                <path d="M38.8870467,0.605020763 C38.2025428,5.77714382 29.7731475,9.8662706 19.4686731,9.8662706 C9.1641987,9.8662706 0.735572422,5.77790275 0.0502994943,0.605779695 L0.0502994943,3.80088433 C0.0210734884,4.02552826 -0.000461463251,4.25169006 -0.000461463251,4.47936973 C-0.000461463251,9.96948538 8.71581024,14.4198639 19.4686731,14.4198639 C30.2207668,14.4198639 38.9370385,9.96948538 38.9370385,4.47936973 C38.9370385,4.25169006 38.9162727,4.02552826 38.8870467,3.80088433 L38.8870467,0.605020763 Z" id="Fill-12" fill="#E4C22F" mask="url(#mask-28)"></path>
                            </g>
                            <g id="Group-17" transform="translate(0.000000, 33.414040)">
                                <mask id="mask-30" fill="white">
                                    <use xlink:href="#path-29"></use>
                                </mask>
                                <g id="Clip-16"></g>
                                <path d="M38.8870467,0.605020763 C38.2025428,5.77714382 29.7731475,9.8662706 19.4686731,9.8662706 C9.1641987,9.8662706 0.735572422,5.77790275 0.0502994943,0.605779695 L0.0502994943,3.80088433 C0.0210734884,4.02552826 -0.000461463251,4.25169006 -0.000461463251,4.47936973 C-0.000461463251,9.96948538 8.71581024,14.4198639 19.4686731,14.4198639 C30.2207668,14.4198639 38.9370385,9.96948538 38.9370385,4.47936973 C38.9370385,4.25169006 38.9162727,4.02552826 38.8870467,3.80088433 L38.8870467,0.605020763 Z" id="Fill-15" fill="#EFD44F" mask="url(#mask-30)"></path>
                            </g>
                            <g id="Group-20" transform="translate(0.000000, 19.753260)">
                                <mask id="mask-32" fill="white">
                                    <use xlink:href="#path-31"></use>
                                </mask>
                                <g id="Clip-19"></g>
                                <path d="M38.8870467,0.605020763 C38.2025428,5.77714382 29.7731475,9.8662706 19.4686731,9.8662706 C9.1641987,9.8662706 0.735572422,5.77790275 0.0502994943,0.605779695 L0.0502994943,3.80088433 C0.0210734884,4.02552826 -0.000461463251,4.25169006 -0.000461463251,4.47936973 C-0.000461463251,9.96948538 8.71581024,14.4198639 19.4686731,14.4198639 C30.2207668,14.4198639 38.9370385,9.96948538 38.9370385,4.47936973 C38.9370385,4.25169006 38.9162727,4.02552826 38.8870467,3.80088433 L38.8870467,0.605020763 Z" id="Fill-18" fill="#E4C22F" mask="url(#mask-32)"></path>
                            </g>
                            <g id="Group-23" transform="translate(0.000000, 24.306853)">
                                <mask id="mask-34" fill="white">
                                    <use xlink:href="#path-33"></use>
                                </mask>
                                <g id="Clip-22"></g>
                                <path d="M38.8870467,0.605020763 C38.2025428,5.77714382 29.7731475,9.8662706 19.4686731,9.8662706 C9.1641987,9.8662706 0.735572422,5.77790275 0.0502994943,0.605779695 L0.0502994943,3.80088433 C0.0210734884,4.02552826 -0.000461463251,4.25169006 -0.000461463251,4.47936973 C-0.000461463251,9.96948538 8.71581024,14.4198639 19.4686731,14.4198639 C30.2207668,14.4198639 38.9370385,9.96948538 38.9370385,4.47936973 C38.9370385,4.25169006 38.9162727,4.02552826 38.8870467,3.80088433 L38.8870467,0.605020763 Z" id="Fill-21" fill="#EFD44F" mask="url(#mask-34)"></path>
                            </g>
                            <g id="Group-26" transform="translate(0.000000, 10.646073)">
                                <mask id="mask-36" fill="white">
                                    <use xlink:href="#path-35"></use>
                                </mask>
                                <g id="Clip-25"></g>
                                <path d="M38.8870467,0.605020763 C38.2025428,5.77714382 29.7731475,9.8662706 19.4686731,9.8662706 C9.1641987,9.8662706 0.735572422,5.77790275 0.0502994943,0.605779695 L0.0502994943,3.80088433 C0.0210734884,4.02552826 -0.000461463251,4.25169006 -0.000461463251,4.47936973 C-0.000461463251,9.96948538 8.71581024,14.4198639 19.4686731,14.4198639 C30.2207668,14.4198639 38.9370385,9.96948538 38.9370385,4.47936973 C38.9370385,4.25169006 38.9162727,4.02552826 38.8870467,3.80088433 L38.8870467,0.605020763 Z" id="Fill-24" fill="#E4C22F" mask="url(#mask-36)"></path>
                            </g>
                            <g id="Group-29" transform="translate(0.000000, 15.199667)">
                                <mask id="mask-38" fill="white">
                                    <use xlink:href="#path-37"></use>
                                </mask>
                                <g id="Clip-28"></g>
                                <path d="M38.8870467,0.605020763 C38.2025428,5.77714382 29.7731475,9.8662706 19.4686731,9.8662706 C9.1641987,9.8662706 0.735572422,5.77790275 0.0502994943,0.605779695 L0.0502994943,3.80088433 C0.0210734884,4.02552826 -0.000461463251,4.25169006 -0.000461463251,4.47936973 C-0.000461463251,9.96948538 8.71581024,14.4198639 19.4686731,14.4198639 C30.2207668,14.4198639 38.9370385,9.96948538 38.9370385,4.47936973 C38.9370385,4.25169006 38.9162727,4.02552826 38.8870467,3.80088433 L38.8870467,0.605020763 Z" id="Fill-27" fill="#EFD44F" mask="url(#mask-38)"></path>
                            </g>
                            <path d="M33.2779609,10.9220212 C33.2779609,14.3045821 27.0951224,17.0473631 19.4686731,17.0473631 C11.8422238,17.0473631 5.65938531,14.3045821 5.65938531,10.9220212 C5.65938531,7.53794245 11.8422238,4.79592036 19.4686731,4.79592036 C27.0951224,4.79592036 33.2779609,7.53794245 33.2779609,10.9220212" id="Fill-30" fill="#EFD44F"></path>
                            <path d="M23.7985828,10.6885737 L17.6365102,10.6885737 L17.6365102,11.0968792 L21.1643967,11.0968792 C22.4303442,11.0968792 23.3078935,10.9602714 23.7985828,10.6885737 L23.7985828,10.6885737 Z M24.3854102,9.82794452 C24.3854102,9.74901557 24.3784882,9.68450633 24.3661826,9.63289894 L17.6365102,9.63289894 L17.6365102,10.0609367 L24.3569533,10.0609367 C24.3754118,9.99111495 24.3854102,9.91370386 24.3854102,9.82794452 L24.3854102,9.82794452 Z M23.8454982,9.00602093 C23.5724658,8.83829691 23.2279065,8.72597494 22.8118205,8.66905503 C22.5141767,8.62731376 21.9527298,8.60682259 21.1267105,8.60682259 L17.6365102,8.60682259 L17.6365102,9.00602093 L23.8454982,9.00602093 Z M26.8888483,10.6885737 L25.9205446,10.6885737 C25.7405739,10.9071461 25.4806163,11.1112989 25.1383644,11.3017909 C24.4000232,11.7131321 23.0663944,11.9188028 21.1367089,11.9188028 L17.6365102,11.9188028 L17.6365102,14.7518967 L15.8314197,14.7518967 L15.8314197,10.6885737 L14.5193259,10.6885737 L14.5193259,10.0609367 L15.8314197,10.0609367 L15.8314197,9.63289894 L14.5193259,9.63289894 L14.5193259,9.00602093 L15.8314197,9.00602093 L15.8314197,7.784899 L20.9782732,7.784899 C21.859668,7.784899 22.5510938,7.80690803 23.0540887,7.85168503 C24.5061597,7.98146244 25.4775399,8.36548214 25.9666909,9.00602093 L26.8888483,9.00602093 L26.8888483,9.63289894 L26.237416,9.63289894 C26.2435689,9.68071167 26.2466453,9.73611372 26.2466453,9.79986403 C26.2466453,9.87879298 26.237416,9.96607019 26.2181884,10.0609367 L26.8888483,10.0609367 L26.8888483,10.6885737 Z" id="Fill-32" fill="#D7B129"></path>
                        </g>
                        <g id="Page-1-Copy-10" transform="translate(0.179423, 31.870435)">
                            <g id="Group-3" transform="translate(0.000000, 0.021022)">
                                <mask id="mask-40" fill="white">
                                    <use xlink:href="#path-39"></use>
                                </mask>
                                <g id="Clip-2"></g>
                                <path d="M38.9373462,10.6779486 C38.9373462,16.1673053 30.2203054,20.6176838 19.4689807,20.6176838 C8.71611788,20.6176838 -0.000153821084,16.1673053 -0.000153821084,10.6779486 C-0.000153821084,5.18783295 8.71611788,0.737454435 19.4689807,0.737454435 C30.2203054,0.737454435 38.9373462,5.18783295 38.9373462,10.6779486" id="Fill-1" fill="#EFD44F" mask="url(#mask-40)"></path>
                            </g>
                            <path d="M34.9671471,10.9220212 C34.9671471,15.0483357 28.028278,18.3937089 19.4689038,18.3937089 C10.9095296,18.3937089 3.96989144,15.0483357 3.96989144,10.9220212 C3.96989144,6.79494781 10.9095296,3.4495746 19.4689038,3.4495746 C28.028278,3.4495746 34.9671471,6.79494781 34.9671471,10.9220212" id="Fill-4" fill="#E4C22F"></path>
                            <g id="Group-8" transform="translate(0.000000, 10.646073)">
                                <mask id="mask-42" fill="white">
                                    <use xlink:href="#path-41"></use>
                                </mask>
                                <g id="Clip-7"></g>
                                <path d="M38.8870467,0.605020763 C38.2025428,5.77714382 29.7731475,9.8662706 19.4686731,9.8662706 C9.1641987,9.8662706 0.735572422,5.77790275 0.0502994943,0.605779695 L0.0502994943,3.80088433 C0.0210734884,4.02552826 -0.000461463251,4.25169006 -0.000461463251,4.47936973 C-0.000461463251,9.96948538 8.71581024,14.4198639 19.4686731,14.4198639 C30.2207668,14.4198639 38.9370385,9.96948538 38.9370385,4.47936973 C38.9370385,4.25169006 38.9162727,4.02552826 38.8870467,3.80088433 L38.8870467,0.605020763 Z" id="Fill-6" fill="#E4C22F" mask="url(#mask-42)"></path>
                            </g>
                            <g id="Group-11" transform="translate(0.000000, 15.199667)">
                                <mask id="mask-44" fill="white">
                                    <use xlink:href="#path-43"></use>
                                </mask>
                                <g id="Clip-10"></g>
                                <path d="M38.8870467,0.605020763 C38.2025428,5.77714382 29.7731475,9.8662706 19.4686731,9.8662706 C9.1641987,9.8662706 0.735572422,5.77790275 0.0502994943,0.605779695 L0.0502994943,3.80088433 C0.0210734884,4.02552826 -0.000461463251,4.25169006 -0.000461463251,4.47936973 C-0.000461463251,9.96948538 8.71581024,14.4198639 19.4686731,14.4198639 C30.2207668,14.4198639 38.9370385,9.96948538 38.9370385,4.47936973 C38.9370385,4.25169006 38.9162727,4.02552826 38.8870467,3.80088433 L38.8870467,0.605020763 Z" id="Fill-9" fill="#EFD44F" mask="url(#mask-44)"></path>
                            </g>
                            <g id="Group-14" transform="translate(0.000000, 28.860447)">
                                <mask id="mask-46" fill="white">
                                    <use xlink:href="#path-45"></use>
                                </mask>
                                <g id="Clip-13"></g>
                                <path d="M38.8870467,0.605020763 C38.2025428,5.77714382 29.7731475,9.8662706 19.4686731,9.8662706 C9.1641987,9.8662706 0.735572422,5.77790275 0.0502994943,0.605779695 L0.0502994943,3.80088433 C0.0210734884,4.02552826 -0.000461463251,4.25169006 -0.000461463251,4.47936973 C-0.000461463251,9.96948538 8.71581024,14.4198639 19.4686731,14.4198639 C30.2207668,14.4198639 38.9370385,9.96948538 38.9370385,4.47936973 C38.9370385,4.25169006 38.9162727,4.02552826 38.8870467,3.80088433 L38.8870467,0.605020763 Z" id="Fill-12" fill="#E4C22F" mask="url(#mask-46)"></path>
                            </g>
                            <g id="Group-17" transform="translate(0.000000, 33.414040)">
                                <mask id="mask-48" fill="white">
                                    <use xlink:href="#path-47"></use>
                                </mask>
                                <g id="Clip-16"></g>
                                <path d="M38.8870467,0.605020763 C38.2025428,5.77714382 29.7731475,9.8662706 19.4686731,9.8662706 C9.1641987,9.8662706 0.735572422,5.77790275 0.0502994943,0.605779695 L0.0502994943,3.80088433 C0.0210734884,4.02552826 -0.000461463251,4.25169006 -0.000461463251,4.47936973 C-0.000461463251,9.96948538 8.71581024,14.4198639 19.4686731,14.4198639 C30.2207668,14.4198639 38.9370385,9.96948538 38.9370385,4.47936973 C38.9370385,4.25169006 38.9162727,4.02552826 38.8870467,3.80088433 L38.8870467,0.605020763 Z" id="Fill-15" fill="#EFD44F" mask="url(#mask-48)"></path>
                            </g>
                            <g id="Group-20" transform="translate(0.000000, 19.753260)">
                                <mask id="mask-50" fill="white">
                                    <use xlink:href="#path-49"></use>
                                </mask>
                                <g id="Clip-19"></g>
                                <path d="M38.8870467,0.605020763 C38.2025428,5.77714382 29.7731475,9.8662706 19.4686731,9.8662706 C9.1641987,9.8662706 0.735572422,5.77790275 0.0502994943,0.605779695 L0.0502994943,3.80088433 C0.0210734884,4.02552826 -0.000461463251,4.25169006 -0.000461463251,4.47936973 C-0.000461463251,9.96948538 8.71581024,14.4198639 19.4686731,14.4198639 C30.2207668,14.4198639 38.9370385,9.96948538 38.9370385,4.47936973 C38.9370385,4.25169006 38.9162727,4.02552826 38.8870467,3.80088433 L38.8870467,0.605020763 Z" id="Fill-18" fill="#E4C22F" mask="url(#mask-50)"></path>
                            </g>
                            <g id="Group-23" transform="translate(0.000000, 24.306853)">
                                <mask id="mask-52" fill="white">
                                    <use xlink:href="#path-51"></use>
                                </mask>
                                <g id="Clip-22"></g>
                                <path d="M38.8870467,0.605020763 C38.2025428,5.77714382 29.7731475,9.8662706 19.4686731,9.8662706 C9.1641987,9.8662706 0.735572422,5.77790275 0.0502994943,0.605779695 L0.0502994943,3.80088433 C0.0210734884,4.02552826 -0.000461463251,4.25169006 -0.000461463251,4.47936973 C-0.000461463251,9.96948538 8.71581024,14.4198639 19.4686731,14.4198639 C30.2207668,14.4198639 38.9370385,9.96948538 38.9370385,4.47936973 C38.9370385,4.25169006 38.9162727,4.02552826 38.8870467,3.80088433 L38.8870467,0.605020763 Z" id="Fill-21" fill="#EFD44F" mask="url(#mask-52)"></path>
                            </g>
                            <g id="Group-26" transform="translate(0.000000, 10.646073)">
                                <mask id="mask-54" fill="white">
                                    <use xlink:href="#path-53"></use>
                                </mask>
                                <g id="Clip-25"></g>
                                <path d="M38.8870467,0.605020763 C38.2025428,5.77714382 29.7731475,9.8662706 19.4686731,9.8662706 C9.1641987,9.8662706 0.735572422,5.77790275 0.0502994943,0.605779695 L0.0502994943,3.80088433 C0.0210734884,4.02552826 -0.000461463251,4.25169006 -0.000461463251,4.47936973 C-0.000461463251,9.96948538 8.71581024,14.4198639 19.4686731,14.4198639 C30.2207668,14.4198639 38.9370385,9.96948538 38.9370385,4.47936973 C38.9370385,4.25169006 38.9162727,4.02552826 38.8870467,3.80088433 L38.8870467,0.605020763 Z" id="Fill-24" fill="#E4C22F" mask="url(#mask-54)"></path>
                            </g>
                            <g id="Group-29" transform="translate(0.000000, 15.199667)">
                                <mask id="mask-56" fill="white">
                                    <use xlink:href="#path-55"></use>
                                </mask>
                                <g id="Clip-28"></g>
                                <path d="M38.8870467,0.605020763 C38.2025428,5.77714382 29.7731475,9.8662706 19.4686731,9.8662706 C9.1641987,9.8662706 0.735572422,5.77790275 0.0502994943,0.605779695 L0.0502994943,3.80088433 C0.0210734884,4.02552826 -0.000461463251,4.25169006 -0.000461463251,4.47936973 C-0.000461463251,9.96948538 8.71581024,14.4198639 19.4686731,14.4198639 C30.2207668,14.4198639 38.9370385,9.96948538 38.9370385,4.47936973 C38.9370385,4.25169006 38.9162727,4.02552826 38.8870467,3.80088433 L38.8870467,0.605020763 Z" id="Fill-27" fill="#EFD44F" mask="url(#mask-56)"></path>
                            </g>
                            <path d="M33.2779609,10.9220212 C33.2779609,14.3045821 27.0951224,17.0473631 19.4686731,17.0473631 C11.8422238,17.0473631 5.65938531,14.3045821 5.65938531,10.9220212 C5.65938531,7.53794245 11.8422238,4.79592036 19.4686731,4.79592036 C27.0951224,4.79592036 33.2779609,7.53794245 33.2779609,10.9220212" id="Fill-30" fill="#EFD44F"></path>
                            <path d="M23.7985828,10.6885737 L17.6365102,10.6885737 L17.6365102,11.0968792 L21.1643967,11.0968792 C22.4303442,11.0968792 23.3078935,10.9602714 23.7985828,10.6885737 L23.7985828,10.6885737 Z M24.3854102,9.82794452 C24.3854102,9.74901557 24.3784882,9.68450633 24.3661826,9.63289894 L17.6365102,9.63289894 L17.6365102,10.0609367 L24.3569533,10.0609367 C24.3754118,9.99111495 24.3854102,9.91370386 24.3854102,9.82794452 L24.3854102,9.82794452 Z M23.8454982,9.00602093 C23.5724658,8.83829691 23.2279065,8.72597494 22.8118205,8.66905503 C22.5141767,8.62731376 21.9527298,8.60682259 21.1267105,8.60682259 L17.6365102,8.60682259 L17.6365102,9.00602093 L23.8454982,9.00602093 Z M26.8888483,10.6885737 L25.9205446,10.6885737 C25.7405739,10.9071461 25.4806163,11.1112989 25.1383644,11.3017909 C24.4000232,11.7131321 23.0663944,11.9188028 21.1367089,11.9188028 L17.6365102,11.9188028 L17.6365102,14.7518967 L15.8314197,14.7518967 L15.8314197,10.6885737 L14.5193259,10.6885737 L14.5193259,10.0609367 L15.8314197,10.0609367 L15.8314197,9.63289894 L14.5193259,9.63289894 L14.5193259,9.00602093 L15.8314197,9.00602093 L15.8314197,7.784899 L20.9782732,7.784899 C21.859668,7.784899 22.5510938,7.80690803 23.0540887,7.85168503 C24.5061597,7.98146244 25.4775399,8.36548214 25.9666909,9.00602093 L26.8888483,9.00602093 L26.8888483,9.63289894 L26.237416,9.63289894 C26.2435689,9.68071167 26.2466453,9.73611372 26.2466453,9.79986403 C26.2466453,9.87879298 26.237416,9.96607019 26.2181884,10.0609367 L26.8888483,10.0609367 L26.8888483,10.6885737 Z" id="Fill-32" fill="#D7B129"></path>
                        </g>
                    </g>
                    <g id="Group-9" transform="translate(318.359268, 62.019779)">
                        <g id="Page-1" transform="translate(0.000000, -0.000000)">
                            <path d="M77.5479395,161.853377 C55.7756441,153.156278 38.531427,136.341161 26.295316,111.87365 C17.2759431,93.8404665 11.1266214,72.0577828 8.01747583,47.1310007 L7.27628348,41.1958797 L13.2076615,39.9750909 C25.5513649,37.4327643 35.9630024,25.2566443 36.4172816,12.832736 L36.6462603,6.56723056 L123.390595,6.56723056 L123.619573,12.832736 C124.073853,25.2566443 134.48549,37.4327643 146.829193,39.9750909 L152.760571,41.1958797 L152.019379,47.1310007 C148.910233,72.0577828 142.760912,93.8404665 133.741539,111.87365 C121.505428,136.341161 104.261211,153.156278 82.4889154,161.853377 L80.0188873,162.8409 L77.5479395,161.853377 Z" id="Fill-1" fill="#F9F9F9"></path>
                            <g id="Fill-1">
                                <use fill="url(#linearGradient-57)" xlink:href="#path-58"></use>
                                <use fill-opacity="0.23" fill="#000000" style="mix-blend-mode: overlay;" xlink:href="#path-58"></use>
                            </g>
                            <path d="M80.4644303,6.15146086 L38.1161106,6.15146086 L37.8871318,12.4169663 C37.4328526,24.8408746 27.0212151,37.0169946 14.6775117,39.5593212 L8.74613373,40.78011 L9.48732608,46.715231 C12.5964717,71.6420131 18.7457933,93.4246968 27.7651663,111.45788 C40.0012772,135.925391 57.2454943,152.740509 79.0177898,161.437607 L80.4644303,162.015762 L80.4644303,6.15146086 Z" id="Combined-Shape" fill="url(#linearGradient-59)" opacity="0.268342391" style="mix-blend-mode: multiply;"></path>
                            <g id="Fill-3">
                                <use fill="url(#linearGradient-59)" xlink:href="#path-60"></use>
                                <use fill-opacity="0.639999986" fill="#D8D8D8" style="mix-blend-mode: overlay;" xlink:href="#path-60"></use>
                            </g>
                        </g>
                        <path d="M63.509651,78.229607 L63.509651,50.3497476 L51.4766206,50.3497476 L51.4766206,90.4090994 L63.509651,90.4090994 L63.509651,90.2626374 L113.128362,90.2626374 L113.128362,78.229607 L63.509651,78.229607 Z" id="Combined-Shape" fill="#FFFFFF" transform="translate(82.302491, 70.379424) rotate(-45.000000) translate(-82.302491, -70.379424) "></path>
                    </g>
                </g>
                <path d="M209.907209,79.884322 C217.201714,81.5192087 222.927007,89.8626458 223.861802,100.336713 C224.795733,89.8626458 230.521026,81.5192087 237.815531,79.884322 C230.521026,78.2488423 224.795733,69.9054052 223.861802,59.4313377 C222.927007,69.9054052 217.201714,78.2488423 209.907209,79.884322 Z" id="Path" fill="#F8E71C"></path>
                <path d="M19.711275,67.2975921 C28.12747,69.1838785 34.7331523,78.810302 35.811692,90.8949871 C36.8892358,78.810302 43.4949181,69.1838785 51.911113,67.2975921 C43.4949181,65.4106215 36.8892358,55.784198 35.811692,43.699513 C34.7331523,55.784198 28.12747,65.4106215 19.711275,67.2975921 Z" id="Path-Copy" fill="#F8E71C" opacity="0.683423913"></path>
                <path d="M506.234672,31.4636494 C505.27597,42.2055916 499.404252,50.7624125 491.92319,52.4397197 C499.404252,54.1164187 505.27597,62.6732396 506.234672,73.4151819 C507.192489,62.6732396 513.064206,54.1164187 520.545268,52.4397197 C513.064206,50.7624125 507.192489,42.2055916 506.234672,31.4636494" id="Path-Copy-2" fill="#F8E71C"></path>
                <path d="M482.786852,13.9838442 C482.200945,21.5898852 478.612469,27.6487087 474.040448,28.8363586 C478.612469,30.023578 482.200945,36.0824014 482.786852,43.6884425 C483.372218,36.0824014 486.960695,30.023578 491.532716,28.8363586 C486.960695,27.6487087 483.372218,21.5898852 482.786852,13.9838442" id="Path-Copy-4" fill="#F8E71C" opacity="0.345788043"></path>
                <path d="M45.4798954,43.5713108 C50.5091184,44.6984894 54.4564425,50.4509026 55.10094,57.6722866 C55.7448425,50.4509026 59.6921666,44.6984894 64.7213896,43.5713108 C59.6921666,42.4437233 55.7448425,36.6913102 55.10094,29.4699261 C54.4564425,36.6913102 50.5091184,42.4437233 45.4798954,43.5713108 Z" id="Path-Copy-3" fill="#F8E71C" opacity="0.5"></path>
                <g id="Page-1" transform="translate(430.309779, 120.610656)">
                    <path d="M84.3239048,111.111697 C84.3239048,111.111697 90.2333758,115.792708 90.2333758,125.150872 L90.2333758,130.401092 L47.25779,130.401092 L46.1839592,130.401092 L3.2074016,130.401092 L3.2074016,125.150872 C3.2074016,115.792708 9.11784441,111.111697 9.11784441,111.111697 L29.5322923,98.9441547 C33.2911862,97.0715572 34.9024184,94.2641081 34.9024184,94.2641081 L46.7203887,95.1594046 L58.5393307,94.2641081 C58.5393307,94.2641081 60.1505629,97.0715572 63.9114004,98.9441547 L84.3239048,111.111697 Z" id="Fill-1" fill="#FBCAB9"></path>
                    <path d="M67.9141171,99.6102244 C65.2844462,107.086143 56.8716374,112.557292 46.8922988,112.557292 C36.9382268,112.557292 28.5429102,107.115086 25.8899163,99.6700395 L8.01767797,110.250553 C8.01767797,110.250553 1.90801766,115.095574 1.90801766,124.785614 L1.90801766,130.452922 L91.8756082,130.452922 L91.8756082,124.785614 C91.8756082,115.095574 85.7669196,110.250553 85.7669196,110.250553 L67.9141171,99.6102244 Z" id="Fill-3" fill="#23A464"></path>
                    <path d="M72.0014769,102.046241 C68.2979752,110.466659 58.4556594,116.488686 46.8922988,116.488686 C35.3483741,116.488686 25.5186916,110.487884 21.8006129,102.091585 L8.01767797,110.250553 C8.01767797,110.250553 1.90801766,115.095574 1.90801766,124.785614 L1.90801766,130.452922 L91.8756082,130.452922 L91.8756082,124.785614 C91.8756082,115.095574 85.7669196,110.250553 85.7669196,110.250553 L72.0014769,102.046241 Z" id="Fill-5" fill="#29B473"></path>
                    <mask id="mask-62" fill="white">
                        <use xlink:href="#path-61"></use>
                    </mask>
                    <g id="Clip-8"></g>
                    <polygon id="Fill-7" fill="#FBCAB9" mask="url(#mask-62)" points="34.9592683 103.644075 58.4805373 103.644075 58.4805373 78.6288354 34.9592683 78.6288354"></polygon>
                    <path d="M34.714085,94.5279697 C38.7363347,97.8698954 43.0180531,99.6961845 47.4620608,99.6961845 C51.5377591,99.6961845 55.4793501,98.1660765 59.2081184,95.3422264 L59.2081184,68.085851 L34.714085,68.085851 L34.714085,94.5279697 Z" id="Fill-9" fill="#E39485" mask="url(#mask-62)"></path>
                    <path d="M61.7392495,74.5695148 L33.8157599,74.5695148 C19.9405046,74.5695148 8.58802307,63.2991984 8.58802307,49.5243673 L8.58802307,45.3083698 C8.58802307,31.5335387 19.9405046,20.2641871 33.8157599,20.2641871 L61.7392495,20.2641871 C75.6145048,20.2641871 86.9669864,31.5335387 86.9669864,45.3083698 L86.9669864,49.5243673 C86.9669864,63.2991984 75.6145048,74.5695148 61.7392495,74.5695148" id="Fill-10" fill="#79474D" mask="url(#mask-62)"></path>
                    <path d="M47.5842152,96.3020653 L47.5842152,96.3020653 C26.5419892,96.3020653 9.32668265,79.2103922 9.32668265,58.3204624 C9.32668265,37.4305325 26.5419892,20.3388594 47.5842152,20.3388594 C68.6254693,20.3388594 85.8436913,37.4305325 85.8436913,58.3204624 C85.8436913,79.2103922 68.6254693,96.3020653 47.5842152,96.3020653" id="Fill-11" fill="#FBCAB9" mask="url(#mask-62)"></path>
                    <path d="M5.32211955,53.090503 L5.32211955,43.701467 C5.32211955,20.4623486 24.2429222,4.86315792 47.3696433,4.86315792 C70.4953927,4.86315792 89.4161953,20.4623486 89.4161953,43.701467 L89.4161953,53.090503 L84.9955106,53.6828651 L82.884777,41.3378071 L46.6942475,27.4829009 L11.1052575,41.0821459 L9.95368326,53.4667591 L5.32211955,53.090503 Z" id="Fill-12" fill="#79474D" mask="url(#mask-62)"></path>
                    <path d="M15.3034017,68.053628 L7.6515065,68.053628 C3.44364439,68.053628 -0.000388717055,64.6345216 -0.000388717055,60.4571145 C-0.000388717055,56.2797073 3.44364439,52.8615657 7.6515065,52.8615657 L15.3034017,52.8615657 C19.5112638,52.8615657 22.9552969,56.2797073 22.9552969,60.4571145 C22.9552969,64.6345216 19.5112638,68.053628 15.3034017,68.053628" id="Fill-13" fill="#FBCAB9" mask="url(#mask-62)"></path>
                    <path d="M9.56467467,57.1341945 L9.0855809,57.1341945 C6.71926583,57.1341945 4.78345489,58.3575091 4.78345489,59.8528858 L4.78345489,61.0607643 C4.78345489,62.5571057 6.71926583,63.7813851 9.0855809,63.7813851 L9.56467467,63.7813851 L9.56467467,57.1341945 Z" id="Fill-14" fill="#E39485" mask="url(#mask-62)"></path>
                    <path d="M80.3432478,68.053628 L87.995143,68.053628 C92.2039769,68.053628 95.6470382,64.6345216 95.6470382,60.4571145 C95.6470382,56.2797073 92.2039769,52.8615657 87.995143,52.8615657 L80.3432478,52.8615657 C76.1344138,52.8615657 72.6913525,56.2797073 72.6913525,60.4571145 C72.6913525,64.6345216 76.1344138,68.053628 80.3432478,68.053628" id="Fill-15" fill="#FBCAB9" mask="url(#mask-62)"></path>
                    <path d="M86.0824607,57.1341945 L86.5605827,57.1341945 C88.9268978,57.1341945 90.8646523,58.3575091 90.8646523,59.8528858 L90.8646523,61.0607643 C90.8646523,62.5571057 88.9268978,63.7813851 86.5605827,63.7813851 L86.0824607,63.7813851 L86.0824607,57.1341945 Z" id="Fill-16" fill="#E39485" mask="url(#mask-62)"></path>
                    <path d="M62.7276598,74.9379563 L48.3810851,74.9379563 L47.5842152,74.9379563 L33.2366687,74.9379563 C33.2366687,74.9379563 30.845087,74.9379563 31.6429288,77.5746431 C31.6429288,77.5746431 34.7108781,86.4340264 47.5842152,86.7900225 L47.5842152,86.8073881 C47.7202661,86.8073881 47.847571,86.8006348 47.9816783,86.7987053 C48.1167575,86.8006348 48.2460059,86.8073881 48.3810851,86.8073881 L48.3810851,86.7900225 C61.2534504,86.4340264 64.3223715,77.5746431 64.3223715,77.5746431 C65.1202133,74.9379563 62.7276598,74.9379563 62.7276598,74.9379563" id="Fill-17" fill="#8B2B23" mask="url(#mask-62)"></path>
                    <path d="M47.9822614,81.2672587 C44.82102,81.2672587 42.0766776,83.012508 40.6530014,85.5778026 C42.5654893,86.2540988 44.8521173,86.7142889 47.5838264,86.7905049 L47.5838264,86.8069058 C47.7198774,86.8069058 47.848154,86.8001525 47.9822614,86.7982229 C48.1163688,86.8001525 48.2446454,86.8069058 48.3806964,86.8069058 L48.3806964,86.7905049 C51.1133773,86.7142889 53.4000054,86.2540988 55.3134651,85.5778026 C53.8878453,83.012508 51.1444747,81.2672587 47.9822614,81.2672587" id="Fill-18" fill="#DC6666" mask="url(#mask-62)"></path>
                    <path d="M47.5842152,67.5505061 C45.5580275,67.5505061 43.7786752,66.7005533 42.8020236,65.4415426 L42.8020236,65.7020276 C42.8020236,67.7347751 44.9535725,69.3980199 47.5842152,69.3980199 C50.2158296,69.3980199 52.3664067,67.7347751 52.3664067,65.7020276 L52.3664067,65.4415426 C51.3887833,66.7005533 49.6113746,67.5505061 47.5842152,67.5505061" id="Fill-19" fill="#E39483" mask="url(#mask-62)"></path>
                    <path d="M31.0889098,59.1117578 C32.9304568,59.1117578 34.626235,59.4050446 35.9575909,59.8893537 L35.9575909,59.1985861 C35.9575909,56.5397099 33.7671703,54.3632133 31.0889098,54.3632133 C28.4106493,54.3632133 26.2202287,56.5397099 26.2202287,59.1985861 L26.2202287,59.8893537 L26.2212005,59.8893537 C27.5515846,59.4050446 29.2473627,59.1117578 31.0889098,59.1117578" id="Fill-20" fill="#754448" mask="url(#mask-62)"></path>
                    <path d="M64.2355904,59.1117578 C66.0771375,59.1117578 67.7729156,59.4050446 69.1042716,59.8893537 L69.1042716,59.8893537 L69.1042716,59.1985861 C69.1042716,56.5397099 66.9119074,54.3632133 64.2355904,54.3632133 C61.5583017,54.3632133 59.3669093,56.5397099 59.3669093,59.1985861 L59.3669093,59.8893537 L59.3669093,59.8893537 C60.6982653,59.4050446 62.3940434,59.1117578 64.2355904,59.1117578" id="Fill-21" fill="#754448" mask="url(#mask-62)"></path>
                    <path d="M25.5100426,67.0248088 C25.5100426,69.6470242 23.3691834,71.7723886 20.727851,71.7723886 C18.0855469,71.7723886 15.9456595,69.6470242 15.9456595,67.0248088 C15.9456595,64.4025935 18.0855469,62.2772291 20.727851,62.2772291 C23.3691834,62.2772291 25.5100426,64.4025935 25.5100426,67.0248088" id="Fill-22" fill="#F8B4A8" mask="url(#mask-62)"></path>
                    <path d="M79.2229652,67.0248088 C79.2229652,69.6470242 77.082106,71.7723886 74.4417454,71.7723886 C71.7994413,71.7723886 69.6585821,69.6470242 69.6585821,67.0248088 C69.6585821,64.4025935 71.7994413,62.2772291 74.4417454,62.2772291 C77.082106,62.2772291 79.2229652,64.4025935 79.2229652,67.0248088" id="Fill-23" fill="#F8B4A8" mask="url(#mask-62)"></path>
                    <path d="M48.3012038,74.9379563 L47.5053056,74.9379563 L38.1673502,74.9379563 C39.4161037,77.4598368 42.0253669,79.2108746 45.0340369,79.2108746 L50.7724724,79.2108746 C53.7801707,79.2108746 56.3904057,77.4598368 57.6391592,74.9379563 L48.3012038,74.9379563 Z" id="Fill-24" fill="#FFFFFF" mask="url(#mask-62)"></path>
                    <polygon id="Fill-25" fill="#79474D" mask="url(#mask-62)" points="84.4937741 41.4210658 62.6780012 41.3718631 55.2165773 34.879034 54.5110559 41.3544974 10.1973117 41.2531977 20.0425429 20.1867169 77.169373 20.2638976"></polygon>
                    <polygon id="Fill-26" fill="#79474D" mask="url(#mask-62)" points="46.9611989 4.86286849 36.3472797 -0.000482379575 39.612503 7.29502631"></polygon>
                    <polygon id="Fill-27" fill="#79474D" mask="url(#mask-62)" points="51.0433111 5.67403798 51.0433111 1.6210848 42.8025095 5.67403798"></polygon>
                    <path d="M12.7998695,107.234716 L8.01767797,110.090403 C8.01767797,110.090403 1.90801766,114.935424 1.90801766,124.6245 L1.90801766,138.119551 L16.5296097,138.119551 L16.5296097,121.272926 C16.5296097,115.929125 15.1195386,111.027184 12.7998695,107.234716" id="Fill-28" fill="#23A464" mask="url(#mask-62)"></path>
                    <path d="M80.9833676,107.395831 L85.7655591,110.250553 C85.7655591,110.250553 91.8752194,115.095574 91.8752194,124.785614 L91.8752194,138.279701 L77.2536274,138.279701 L77.2536274,121.434041 C77.2536274,116.089275 78.6636985,111.188299 80.9833676,107.395831" id="Fill-29" fill="#23A464" mask="url(#mask-62)"></path>
                </g>
            </g>
        </g>
    </g>
</svg>