<?xml version="1.0" encoding="UTF-8"?>
<svg width="303px" height="276px" viewBox="0 0 303 276" version="1.1" xmlns="http://www.w3.org/2000/svg" xmlns:xlink="http://www.w3.org/1999/xlink">
    <!-- Generator: Sketch 46.2 (44496) - http://www.bohemiancoding.com/sketch -->
    <title>img</title>
    <desc>Created with Sketch.</desc>
    <defs>
        <linearGradient x1="77.1699837%" y1="-24.0598248%" x2="77.1699846%" y2="100%" id="linearGradient-1">
            <stop stop-color="#FFFFFF" stop-opacity="0.5" offset="0%"></stop>
            <stop stop-color="#424559" stop-opacity="0.5" offset="100%"></stop>
        </linearGradient>
        <linearGradient x1="85.9444261%" y1="-13.4788797%" x2="85.9444261%" y2="90.64405%" id="linearGradient-2">
            <stop stop-color="#FFFFFF" stop-opacity="0.5" offset="0%"></stop>
            <stop stop-color="#000000" stop-opacity="0.5" offset="100%"></stop>
        </linearGradient>
        <circle id="path-3" cx="169" cy="159" r="121"></circle>
        <mask id="mask-4" maskContentUnits="userSpaceOnUse" maskUnits="objectBoundingBox" x="0" y="0" width="242" height="242" fill="white">
            <use xlink:href="#path-3"></use>
        </mask>
        <mask id="mask-5" maskContentUnits="userSpaceOnUse" maskUnits="objectBoundingBox" x="0" y="0" width="242" height="242" fill="white">
            <use xlink:href="#path-3"></use>
        </mask>
        <circle id="path-6" cx="170" cy="159" r="98"></circle>
        <mask id="mask-7" maskContentUnits="userSpaceOnUse" maskUnits="objectBoundingBox" x="0" y="0" width="196" height="196" fill="white">
            <use xlink:href="#path-6"></use>
        </mask>
        <path d="M73.1579823,93.2299714 C73.0666892,97.4810619 73.3407627,100.451636 73.9802028,102.141693 C74.9521597,104.710602 63.8080427,101.332781 61.0702272,94.4157059 C41.491954,93.1553787 26,76.7721852 26,56.7468351 C26,35.8998337 42.7893219,19 63.5,19 C84.2106781,19 101,35.8998337 101,56.7468351 C101,74.2326109 89.1882084,88.9414359 73.1579823,93.2299714 Z" id="path-8"></path>
        <filter x="-10.7%" y="-8.3%" width="121.3%" height="119.0%" filterUnits="objectBoundingBox" id="filter-9">
            <feMorphology radius="1" operator="dilate" in="SourceAlpha" result="shadowSpreadOuter1"></feMorphology>
            <feOffset dx="0" dy="1" in="shadowSpreadOuter1" result="shadowOffsetOuter1"></feOffset>
            <feGaussianBlur stdDeviation="1.5" in="shadowOffsetOuter1" result="shadowBlurOuter1"></feGaussianBlur>
            <feComposite in="shadowBlurOuter1" in2="SourceAlpha" operator="out" result="shadowBlurOuter1"></feComposite>
            <feColorMatrix values="0 0 0 0 0   0 0 0 0 0   0 0 0 0 0  0 0 0 0.0670572917 0" type="matrix" in="shadowBlurOuter1"></feColorMatrix>
        </filter>
        <path d="M286.157982,93.2299714 C286.066689,97.4810619 286.340763,100.451636 286.980203,102.141693 C287.95216,104.710602 276.808043,101.332781 274.070227,94.4157059 C254.491954,93.1553787 239,76.7721852 239,56.7468351 C239,35.8998337 255.789322,19 276.5,19 C297.210678,19 314,35.8998337 314,56.7468351 C314,74.2326109 302.188208,88.9414359 286.157982,93.2299714 Z" id="path-10"></path>
        <filter x="-10.7%" y="-8.3%" width="121.3%" height="119.0%" filterUnits="objectBoundingBox" id="filter-11">
            <feMorphology radius="1" operator="dilate" in="SourceAlpha" result="shadowSpreadOuter1"></feMorphology>
            <feOffset dx="0" dy="1" in="shadowSpreadOuter1" result="shadowOffsetOuter1"></feOffset>
            <feGaussianBlur stdDeviation="1.5" in="shadowOffsetOuter1" result="shadowBlurOuter1"></feGaussianBlur>
            <feComposite in="shadowBlurOuter1" in2="SourceAlpha" operator="out" result="shadowBlurOuter1"></feComposite>
            <feColorMatrix values="0 0 0 0 0   0 0 0 0 0   0 0 0 0 0  0 0 0 0.0670572917 0" type="matrix" in="shadowBlurOuter1"></feColorMatrix>
        </filter>
        <path d="M72.1579823,277.229971 C72.0666892,281.481062 72.3407627,284.451636 72.9802028,286.141693 C73.9521597,288.710602 62.8080427,285.332781 60.0702272,278.415706 C40.491954,277.155379 25,260.772185 25,240.746835 C25,219.899834 41.7893219,203 62.5,203 C83.2106781,203 100,219.899834 100,240.746835 C100,258.232611 88.1882084,272.941436 72.1579823,277.229971 Z" id="path-12"></path>
        <filter x="-10.7%" y="-8.3%" width="121.3%" height="119.0%" filterUnits="objectBoundingBox" id="filter-13">
            <feMorphology radius="1" operator="dilate" in="SourceAlpha" result="shadowSpreadOuter1"></feMorphology>
            <feOffset dx="0" dy="1" in="shadowSpreadOuter1" result="shadowOffsetOuter1"></feOffset>
            <feGaussianBlur stdDeviation="1.5" in="shadowOffsetOuter1" result="shadowBlurOuter1"></feGaussianBlur>
            <feComposite in="shadowBlurOuter1" in2="SourceAlpha" operator="out" result="shadowBlurOuter1"></feComposite>
            <feColorMatrix values="0 0 0 0 0   0 0 0 0 0   0 0 0 0 0  0 0 0 0.0670572917 0" type="matrix" in="shadowBlurOuter1"></feColorMatrix>
        </filter>
        <path d="M285.157982,277.229971 C285.066689,281.481062 285.340763,284.451636 285.980203,286.141693 C286.95216,288.710602 275.808043,285.332781 273.070227,278.415706 C253.491954,277.155379 238,260.772185 238,240.746835 C238,219.899834 254.789322,203 275.5,203 C296.210678,203 313,219.899834 313,240.746835 C313,258.232611 301.188208,272.941436 285.157982,277.229971 Z" id="path-14"></path>
        <filter x="-10.7%" y="-8.3%" width="121.3%" height="119.0%" filterUnits="objectBoundingBox" id="filter-15">
            <feMorphology radius="1" operator="dilate" in="SourceAlpha" result="shadowSpreadOuter1"></feMorphology>
            <feOffset dx="0" dy="1" in="shadowSpreadOuter1" result="shadowOffsetOuter1"></feOffset>
            <feGaussianBlur stdDeviation="1.5" in="shadowOffsetOuter1" result="shadowBlurOuter1"></feGaussianBlur>
            <feComposite in="shadowBlurOuter1" in2="SourceAlpha" operator="out" result="shadowBlurOuter1"></feComposite>
            <feColorMatrix values="0 0 0 0 0   0 0 0 0 0   0 0 0 0 0  0 0 0 0.0670572917 0" type="matrix" in="shadowBlurOuter1"></feColorMatrix>
        </filter>
    </defs>
    <g id="Page-1" stroke="none" stroke-width="1" fill="none" fill-rule="evenodd">
        <g id="D_Security" transform="translate(-873.000000, -347.000000)">
            <g id="img" transform="translate(855.000000, 332.000000)">
                <circle id="Oval-28" stroke="#979797" opacity="0.270210598" stroke-dasharray="3,4" cx="170" cy="159" r="130"></circle>
                <g id="Oval-28" opacity="0.250622736" stroke-linecap="square" stroke-linejoin="bevel" stroke-dasharray="1,12" stroke-width="120">
                    <use stroke="url(#linearGradient-1)" mask="url(#mask-4)" xlink:href="#path-3"></use>
                    <use stroke="url(#linearGradient-2)" mask="url(#mask-5)" xlink:href="#path-3"></use>
                </g>
                <use id="Oval-28" stroke="#C2BDBD" mask="url(#mask-7)" stroke-width="8" opacity="0.739130435" style="mix-blend-mode: multiply;" stroke-linejoin="round" stroke-dasharray="1,19" xlink:href="#path-6"></use>
                <g id="Combined-Shape" transform="translate(63.500000, 61.000000) rotate(-30.000000) translate(-63.500000, -61.000000) ">
                    <use fill="black" fill-opacity="1" filter="url(#filter-9)" xlink:href="#path-8"></use>
                    <use fill="#FFFFFF" fill-rule="evenodd" xlink:href="#path-8"></use>
                    <path stroke="#E5E5E5" stroke-width="1" d="M72.6580976,93.2192362 L72.6661566,92.8439649 L73.0287626,92.7469576 C89.1049151,88.4461355 100.5,73.7353989 100.5,56.7468351 C100.5,36.1752445 83.9337988,19.5 63.5,19.5 C43.0662012,19.5 26.5,36.1752445 26.5,56.7468351 C26.5,76.4197565 41.6988568,92.6676628 61.1023476,93.9167386 L61.4185306,93.9370925 L61.535135,94.2316929 C62.7003145,97.1755124 65.6428317,99.7741119 69.1259386,101.381978 C70.5345069,102.032198 71.8780012,102.431096 72.791384,102.492091 C73.4823225,102.538231 73.5734155,102.479483 73.5125559,102.31863 C72.844397,100.552667 72.5655219,97.5300506 72.6580976,93.2192362 Z"></path>
                </g>
                <g id="Combined-Shape" transform="translate(276.500000, 61.000000) scale(-1, 1) rotate(-30.000000) translate(-276.500000, -61.000000) ">
                    <use fill="black" fill-opacity="1" filter="url(#filter-11)" xlink:href="#path-10"></use>
                    <use fill="#FFFFFF" fill-rule="evenodd" xlink:href="#path-10"></use>
                    <path stroke="#E5E5E5" stroke-width="1" d="M285.658098,93.2192362 L285.666157,92.8439649 L286.028763,92.7469576 C302.104915,88.4461355 313.5,73.7353989 313.5,56.7468351 C313.5,36.1752445 296.933799,19.5 276.5,19.5 C256.066201,19.5 239.5,36.1752445 239.5,56.7468351 C239.5,76.4197565 254.698857,92.6676628 274.102348,93.9167386 L274.418531,93.9370925 L274.535135,94.2316929 C275.700315,97.1755124 278.642832,99.7741119 282.125939,101.381978 C283.534507,102.032198 284.878001,102.431096 285.791384,102.492091 C286.482322,102.538231 286.573416,102.479483 286.512556,102.31863 C285.844397,100.552667 285.565522,97.5300506 285.658098,93.2192362 Z"></path>
                </g>
                <g id="Combined-Shape" transform="translate(62.500000, 245.000000) scale(1, -1) rotate(-30.000000) translate(-62.500000, -245.000000) ">
                    <use fill="black" fill-opacity="1" filter="url(#filter-13)" xlink:href="#path-12"></use>
                    <use fill="#FFFFFF" fill-rule="evenodd" xlink:href="#path-12"></use>
                    <path stroke="#E5E5E5" stroke-width="1" d="M71.6580976,277.219236 L71.6661566,276.843965 L72.0287626,276.746958 C88.1049151,272.446136 99.5,257.735399 99.5,240.746835 C99.5,220.175244 82.9337988,203.5 62.5,203.5 C42.0662012,203.5 25.5,220.175244 25.5,240.746835 C25.5,260.419757 40.6988568,276.667663 60.1023476,277.916739 L60.4185306,277.937093 L60.535135,278.231693 C61.7003145,281.175512 64.6428317,283.774112 68.1259386,285.381978 C69.5345069,286.032198 70.8780012,286.431096 71.791384,286.492091 C72.4823225,286.538231 72.5734155,286.479483 72.5125559,286.31863 C71.844397,284.552667 71.5655219,281.530051 71.6580976,277.219236 Z"></path>
                </g>
                <g id="Combined-Shape" transform="translate(275.500000, 245.000000) scale(-1, -1) rotate(-30.000000) translate(-275.500000, -245.000000) ">
                    <use fill="black" fill-opacity="1" filter="url(#filter-15)" xlink:href="#path-14"></use>
                    <use fill="#FFFFFF" fill-rule="evenodd" xlink:href="#path-14"></use>
                    <path stroke="#E5E5E5" stroke-width="1" d="M284.658098,277.219236 L284.666157,276.843965 L285.028763,276.746958 C301.104915,272.446136 312.5,257.735399 312.5,240.746835 C312.5,220.175244 295.933799,203.5 275.5,203.5 C255.066201,203.5 238.5,220.175244 238.5,240.746835 C238.5,260.419757 253.698857,276.667663 273.102348,277.916739 L273.418531,277.937093 L273.535135,278.231693 C274.700315,281.175512 277.642832,283.774112 281.125939,285.381978 C282.534507,286.032198 283.878001,286.431096 284.791384,286.492091 C285.482322,286.538231 285.573416,286.479483 285.512556,286.31863 C284.844397,284.552667 284.565522,281.530051 284.658098,277.219236 Z"></path>
                </g>
                <g id="Group-5" transform="translate(122.000000, 107.000000)">
                    <rect id="Rectangle-45" fill="#CCCCCC" x="13.6691699" y="87.9571993" width="12.0024904" height="14.8850645" rx="6.00124519"></rect>
                    <rect id="Rectangle-45-Copy" fill="#CCCCCC" x="70.3962249" y="87.9571993" width="12.0024904" height="14.8850645" rx="6.00124519"></rect>
                    <rect id="Rectangle-42" fill="#1FAC66" x="0" y="0" width="96.3676476" height="95.3997316" rx="17"></rect>
                    <rect id="Rectangle-42" fill="#424559" x="7.51804343" y="7.44253225" width="82.0150192" height="81.1912609" rx="13"></rect>
                    <g id="Group-3" transform="translate(20.503755, 31.123317)">
                        <g id="Group-2">
                            <ellipse id="Oval-27" fill="#30BE77" cx="17.0864623" cy="16.914846" rx="17.0864623" ry="16.914846"></ellipse>
                            <ellipse id="Oval-27" fill="#1FAC66" cx="17.0864623" cy="16.914846" rx="14.1904518" ry="14.047923"></ellipse>
                        </g>
                        <path d="M17.0864623,6.76593841 C17.4069504,6.76593841 17.6667573,7.02574531 17.6667573,7.34623336 L17.6667573,9.24946463 C17.6667573,9.56995268 17.4069504,9.82975958 17.0864623,9.82975958 C16.7659743,9.82975958 16.5061674,9.56995268 16.5061674,9.24946463 L16.5061674,7.34623336 L16.5061674,7.34623336 C16.5061674,7.02574531 16.7659743,6.76593841 17.0864623,6.76593841 Z M17.0864623,23.9999325 L17.0864623,23.9999325 C17.4069504,23.9999325 17.6667573,24.2597394 17.6667573,24.5802274 L17.6667573,26.4834587 C17.6667573,26.8039467 17.4069504,27.0637536 17.0864623,27.0637536 C16.7659743,27.0637536 16.5061674,26.8039467 16.5061674,26.4834587 L16.5061674,24.5802274 C16.5061674,24.2597394 16.7659743,23.9999325 17.0864623,23.9999325 L17.0864623,23.9999325 Z M27.3227971,16.914846 C27.3227971,17.2353341 27.0629902,17.495141 26.7425022,17.495141 L24.8392709,17.495141 C24.5187829,17.495141 24.258976,17.2353341 24.258976,16.914846 C24.258976,16.594358 24.5187829,16.3345511 24.8392709,16.3345511 L26.7425022,16.3345511 C27.0629902,16.3345511 27.3227971,16.594358 27.3227971,16.914846 Z M9.91394871,16.914846 C9.91394871,17.2353341 9.65414182,17.495141 9.33365377,17.495141 L7.43042249,17.495141 C7.10993444,17.495141 6.85012755,17.2353341 6.85012755,16.914846 C6.85012755,16.594358 7.10993444,16.3345511 7.43042249,16.3345511 L9.33365377,16.3345511 C9.65414182,16.3345511 9.91394871,16.594358 9.91394871,16.914846 Z M24.3246441,24.0912074 C24.0980248,24.3178267 23.7306024,24.3178267 23.5039831,24.0912074 L22.1581954,22.7454197 C21.9315761,22.5188004 21.9315761,22.151378 22.1581954,21.9247587 C22.3848146,21.6981394 22.7522371,21.6981394 22.9788564,21.9247587 L24.3246441,23.2705464 C24.5512634,23.4971657 24.5512634,23.8645881 24.3246441,24.0912074 Z M12.0147293,11.9049334 C11.78811,12.1315526 11.4206876,12.1315526 11.1940683,11.9049334 L9.84828059,10.5591456 L9.84828059,10.5591456 C9.62166132,10.3325263 9.62166132,9.9651039 9.84828059,9.73848463 L9.84828059,9.73848463 C10.0748999,9.51186536 10.4423223,9.51186536 10.6689416,9.73848463 L12.0147293,11.0842724 C12.2413486,11.3108916 12.2413486,11.6783141 12.0147293,11.9049334 Z M9.84828059,24.0912074 C9.62166132,23.8645881 9.62166132,23.4971657 9.84828059,23.2705464 L9.84828059,23.2705464 L11.1940683,21.9247587 C11.4206876,21.6981394 11.78811,21.6981394 12.0147293,21.9247587 C12.2413486,22.151378 12.2413486,22.5188004 12.0147293,22.7454197 L10.6689416,24.0912074 C10.4423223,24.3178267 10.0748999,24.3178267 9.84828059,24.0912074 Z M22.1581954,11.9049334 C21.9315761,11.6783141 21.9315761,11.3108916 22.1581954,11.0842724 L22.1581954,11.0842724 L23.5039831,9.73848463 C23.7306024,9.51186536 24.0980248,9.51186536 24.3246441,9.73848463 L24.3246441,9.73848463 C24.5512634,9.9651039 24.5512634,10.3325263 24.3246441,10.5591456 L24.3246441,10.5591456 L22.9788564,11.9049334 C22.7522371,12.1315526 22.3848146,12.1315526 22.1581954,11.9049334 Z" id="Combined-Shape" fill="#F6EB1C" opacity="0.371546649"></path>
                        <ellipse id="Oval-27" fill="#F7E91C" cx="17.0864623" cy="16.914846" rx="4.46876707" ry="4.42388281"></ellipse>
                    </g>
                    <g id="Group-4" transform="translate(65.612015, 26.387160)">
                        <ellipse id="Oval-27" fill="#1FAC66" cx="5.8093972" cy="5.75104765" rx="5.8093972" ry="5.75104765"></ellipse>
                        <ellipse id="Oval-27" fill="#1FAC66" cx="5.8093972" cy="37.5509582" rx="5.8093972" ry="5.75104765"></ellipse>
                        <rect id="Rectangle-43" fill="#F7E91C" x="3.41729247" y="4.73615689" width="5.46766795" height="33.8296921" rx="2.73383397"></rect>
                    </g>
                </g>
                <g id="Group-7" transform="translate(43.000000, 32.000000)">
                    <rect id="Rectangle" stroke="#CCCCCC" stroke-width="6" x="6.27790669" y="3" width="22.0131631" height="32.82132" rx="11.0065815"></rect>
                    <ellipse id="Oval-29" stroke="#DFAC00" fill="#F8C20A" cx="17.2090101" cy="34.3986953" rx="17.2090101" ry="17.2876191"></ellipse>
                    <path d="M16.0253216,35.3141434 C15.2566616,34.8081686 14.7505801,33.9464999 14.7505801,32.9685937 C14.7505801,31.4108707 16.0347028,30.1480867 17.6187485,30.1480867 C19.2027941,30.1480867 20.4869168,31.4108707 20.4869168,32.9685937 C20.4869168,33.9464999 19.9808354,34.8081686 19.2121753,35.3141434 L19.2121753,36.7962182 C19.2121753,37.6246453 18.5406024,38.2962182 17.7121753,38.2962182 L17.5253216,38.2962182 C16.6968945,38.2962182 16.0253216,37.6246453 16.0253216,36.7962182 L16.0253216,35.3141434 Z" id="Combined-Shape" fill="#424559"></path>
                </g>
                <g id="Group-8" transform="translate(256.000000, 227.000000)">
                    <path d="M37.6859046,33.4688113 L37.6859046,16.3831735 C37.6859046,7.33499662 30.350908,-1.66212313e-15 21.3027311,0 L21.3027311,0 L21.3027311,0 C12.2545542,1.66212313e-15 4.91955759,7.33499662 4.91955759,16.3831735 L4.91955759,16.3831735 L4.91955759,33.4688113 L37.6859046,33.4688113 Z" id="Combined-Shape" fill="#D02A02"></path>
                    <rect id="Rectangle-5" fill="#D8D8D8" x="0" y="30.8451144" width="42.3081953" height="8.95503322" rx="4.47751661"></rect>
                    <rect id="Rectangle-46" fill="#F0380C" x="8.85520367" y="13.9300517" width="5.90346911" height="11.9400443" rx="2.95173456"></rect>
                </g>
                <g id="Group-10" transform="translate(256.000000, 36.000000)">
                    <path d="M21.8187794,0.0605097313 L0.0573261688,9.63643892 C0.725382204,18.2013325 2.82996286,25.7344853 6.37106813,32.2358974 C9.9121734,38.7373095 14.84923,43.4569081 21.1822379,46.3946932 C27.8344735,42.6854791 32.900395,37.8213352 36.3800023,31.8022616 C39.8596097,25.783188 41.86684,18.608273 42.4016931,10.2775167 L21.8187794,0.0605097313 Z" id="Path-26" fill="#7CABD5"></path>
                    <g id="Group-9" transform="translate(2.697760, 3.451362)" fill="#538EC3">
                        <path d="M18.447552,0.0514406517 L18.447552,0 L18.3892045,0.0257203259 L18.3308571,0 L18.3308571,0.0514406517 L0.446695156,7.93501407 C1.74855224,16.8156502 3.57414559,23.240841 5.92347521,27.2105865 C8.25754399,31.1545451 12.3933379,35.280148 18.3308571,39.5873951 L18.3308571,39.6719046 C18.3503255,39.6578298 18.3697746,39.6437569 18.3892045,39.6296859 C18.4086345,39.6437569 18.4280836,39.6578298 18.447552,39.6719046 L18.447552,39.5873951 C24.3850711,35.280148 28.5208651,31.1545451 30.8549339,27.2105865 C33.2042635,23.240841 35.0298568,16.8156502 36.3317139,7.93501407 L18.447552,0.0514406517 Z" id="Combined-Shape"></path>
                    </g>
                    <path d="M16.8160166,22.5680436 L16.8160166,14.7899226 L13.4863605,14.7899226 L13.4863605,22.5680436 L13.2260016,22.5680436 L13.2260016,25.8976996 L13.4863605,25.8976996 L13.4863605,25.9497714 L16.8160166,25.9497714 L16.8160166,25.8976996 L30.3949997,25.8976996 L30.3949997,22.5680436 L16.8160166,22.5680436 Z" id="Combined-Shape" fill="#424559" transform="translate(21.810501, 20.369847) rotate(-45.000000) translate(-21.810501, -20.369847) "></path>
                </g>
                <g id="Group-7" transform="translate(36.000000, 225.000000)" fill="#917DC9">
                    <path d="M33.5521104,30.6061593 C33.4880149,30.5664962 33.4030883,30.5268331 33.2797044,30.48717 C32.9656362,30.3414687 32.663586,30.187673 32.3671441,30.0330678 C30.1678659,28.5112996 30.4835365,24.8177738 30.7631533,24.5927463 C32.9263777,22.8499979 34.0272186,21.1096778 34.6329214,19.3054111 C35.4813861,19.016437 36.5990521,17.5553776 36.5990521,15.7834889 C36.5990521,14.2050591 36.1543893,12.8799875 35.5406745,12.4024113 C35.5454817,12.0025424 35.55109,11.626957 35.5655115,11.436736 C35.9645062,6.2797224 32.9888709,2.33283836 28.9837009,0.802166138 C27.8019394,0.350492369 26.5304441,-5.68434189e-14 25.2293047,-5.68434189e-14 C24.3071301,-5.68434189e-14 23.4057866,0.250929872 22.5445028,0.512382609 C18.0762425,1.87307007 14.6767754,6.4804663 14.8930978,11.436736 C14.9019109,11.6172436 14.9051157,12.0041613 14.9091217,12.4080774 C14.3002141,12.8921292 13.8603584,14.2123441 13.8603584,15.7834889 C13.8603584,17.7625971 15.3978502,19.3661199 16.2543268,19.3661199 C17.0451055,21.1922418 18.1996264,22.9244674 19.8380686,24.5927463 C20.091246,24.8501518 20.260298,28.1130496 18.4752372,29.7424749 C16.2455137,30.551926 6.12643047,35.1058985 6.12643047,37.8288923 L6.12643047,44.3610031 L44.5372846,44.3610031 L44.5372846,37.8288923 C44.5372846,35.2588848 35.3563998,31.4042782 33.5521104,30.6061593 Z" id="Fill-1"></path>
                </g>
            </g>
        </g>
    </g>
</svg>