<?xml version="1.0" encoding="UTF-8"?>
<svg width="504px" height="372px" viewBox="0 0 504 372" version="1.1" xmlns="http://www.w3.org/2000/svg" xmlns:xlink="http://www.w3.org/1999/xlink">
    <!-- Generator: Sketch 46.2 (44496) - http://www.bohemiancoding.com/sketch -->
    <title>D_Pay Online</title>
    <desc>Created with Sketch.</desc>
    <defs>
        <rect id="path-1" x="670" y="69" width="700" height="664" rx="15"></rect>
        <filter x="-3.4%" y="-3.6%" width="106.9%" height="107.2%" filterUnits="objectBoundingBox" id="filter-2">
            <feOffset dx="0" dy="0" in="SourceAlpha" result="shadowOffsetOuter1"></feOffset>
            <feGaussianBlur stdDeviation="8" in="shadowOffsetOuter1" result="shadowBlurOuter1"></feGaussianBlur>
            <feColorMatrix values="0 0 0 0 0   0 0 0 0 0   0 0 0 0 0  0 0 0 0.0772192029 0" type="matrix" in="shadowBlurOuter1"></feColorMatrix>
        </filter>
    </defs>
    <g id="Page-1" stroke="none" stroke-width="1" fill="none" fill-rule="evenodd">
        <g id="D_Pay-Online" transform="translate(-773.000000, -299.000000)">
            <rect id="Rectangle-33-Copy-2" fill="#FFFFFF" x="0" y="0" width="1440" height="800"></rect>
            <g id="Rectangle">
                <use fill="black" fill-opacity="1" filter="url(#filter-2)" xlink:href="#path-1"></use>
                <use fill="#FFFFFF" fill-rule="evenodd" xlink:href="#path-1"></use>
            </g>
            <g id="Group-9" transform="translate(761.000000, 319.000000)">
                <g id="Group-2" transform="translate(29.187230, 0.000000)">
                    <g id="Group-5" transform="translate(167.642171, 0.000000)">
                        <rect id="Rectangle-39" fill="#E7E7E7" x="12.9371454" y="0" width="48.7203592" height="26.5603698"></rect>
                        <rect id="Rectangle-4" fill="#DDDDDD" x="0.337052546" y="13.2801849" width="24.3601796" height="13.2801849"></rect>
                        <path d="M0.344938526,14.7369399 C0.339695824,14.5682799 0.337052546,14.3988733 0.337052546,14.2287695 C0.337052546,6.3704371 5.97830629,0 12.9371454,0 C19.8959846,0 25.5372384,6.3704371 25.5372384,14.2287695 C25.5372384,14.3988733 25.5345951,14.5682799 25.5293524,14.7369399 L0.344938526,14.7369399 Z" id="Combined-Shape" fill="#DDDDDD"></path>
                        <path d="M18.4962876,26.6072135 L21.5165345,30.3547083 L24.5367815,26.6072135 L27.5570285,30.3547083 L30.5772755,26.6072135 L33.5975225,30.3547083 L36.6177695,26.6072135 L39.6380165,30.3547083 L42.6582635,26.6072135 L45.6785104,30.3547083 L48.6987574,26.6072135 L51.7190044,30.3547083 L54.7392514,26.6072135 L57.7594984,30.3547083 L60.8174985,26.5603698 L54.7392514,26.5603698 L48.6987574,26.5603698 L42.6582635,26.5603698 L36.6177695,26.5603698 L30.5772755,26.5603698 L24.5367815,26.5603698 L18.4962876,26.5603698 L12.4557936,26.5603698 L6.41529961,26.5603698 L0.337052546,26.5603698 L3.39505262,30.3547083 L6.41529961,26.6072135 L9.4355466,30.3547083 L12.4557936,26.6072135 L15.4760406,30.3547083 L18.4962876,26.6072135 Z" id="Combined-Shape" fill="#DDDDDD"></path>
                        <path d="M105.429169,16.2426623 L105.429169,110.035818 L25.5249568,110.035818 L25.5249568,0 L92.1118005,0 L92.1118005,0.0313041462 C92.3902616,0.0105443123 92.6711947,0 92.9543087,0 C99.9131479,0 105.554402,6.3704371 105.554402,14.2287695 C105.554402,14.912399 105.511709,15.5847681 105.429169,16.2426623 Z" id="Combined-Shape" fill="#F0EEEF"></path>
                        <path d="M46.1513036,37.9076395 L87.9825313,37.9076395 L87.9825313,39.5689445 L46.1513036,39.5689445 L46.1513036,37.9076395 Z M46.1513036,49.8690354 L87.9825313,49.8690354 L87.9825313,51.5303403 L46.1513036,51.5303403 L46.1513036,49.8690354 Z M46.1513036,61.8304312 L87.9825313,61.8304312 L87.9825313,63.4917362 L46.1513036,63.4917362 L46.1513036,61.8304312 Z M46.1513036,73.7918271 L67.0669174,73.7918271 L67.0669174,75.4531321 L46.1513036,75.4531321 L46.1513036,73.7918271 Z" id="Combined-Shape" stroke="#000000" fill="#000000" opacity="0.0854846014" stroke-linecap="round" stroke-linejoin="round" transform="translate(67.066917, 56.680386) scale(-1, 1) translate(-67.066917, -56.680386) "></path>
                        <path d="M30.4872748,19.9202773 L39.8173436,19.9202773 L39.8173436,0 L12.0971393,0 L12.0971393,0.0311178966 C12.3747811,0.0104812473 12.6548794,0 12.9371454,0 C19.8959846,0 25.5372384,6.3704371 25.5372384,14.2287695 C25.5372384,14.3988734 25.5345951,14.5682801 25.5293524,14.7369401 L30.4872748,14.7369399 L30.4872748,19.9202773 Z" id="Combined-Shape" fill="#F0EEEF"></path>
                    </g>
                    <g id="Group-10" transform="translate(137.873935, 58.161789)">
                        <g id="hand">
                            <rect id="Rectangle-38" fill="#FDE7D7" x="39.9890843" y="254.654321" width="109.672449" height="37.5639515" rx="2"></rect>
                            <path d="M185.194675,24.6225135 C191.25267,30.7027272 191.25267,40.5607013 185.194675,46.640915 L153.931641,78.0186121 C147.873646,84.0988258 138.051696,84.0988258 131.993701,78.0186121 C125.935707,71.9383985 125.935707,62.0804244 131.993701,56.0002107 L163.256735,24.6225135 C169.31473,18.5422999 179.13668,18.5422999 185.194675,24.6225135 Z" id="Rectangle-Copy-3" fill="#FDE7D7"></path>
                            <path d="M51.7884693,101.630487 C88.4309162,55.9863412 117.897972,66.3141378 146.16959,96.5196051 C174.441208,126.725072 177.18542,194.796566 166.058709,237.606265 C154.931999,280.415963 134.41468,287.282337 85.4618541,287.282337 C53.505357,287.282337 30.8269403,274.07191 17.4266038,247.651056 L17.4266032,247.651056 C16.8713267,246.556242 16.5754497,245.348326 16.5618783,244.120822 C15.844926,179.273991 27.587123,131.777212 51.7884693,101.630487 Z" id="Rectangle-37" fill="#FCE7D7"></path>
                            <rect id="Rectangle-12" fill="#424559" x="29.768236" y="0" width="129.963751" height="233.284805" rx="8"></rect>
                            <rect id="Rectangle-32" fill="#14AB66" x="38.2286821" y="30.8838655" width="114.446652" height="175.919689" rx="2"></rect>
                            <path d="M1.13730697,70.0655644 C-0.41923414,83.3548089 -0.378040235,117.676107 1.26088869,173.02946 C2.34339122,219.712375 14.2006153,252.044048 36.832561,270.024479 C44.4363525,276.065473 63.1944456,286.475158 68.8696892,274.360998 C74.5449328,262.246838 61.1379835,233.957272 58.7298153,225.389774 C55.7182466,214.675568 48.4191619,192.299326 36.832561,158.261047 L33.3215162,104.192661 C30.6247867,77.3683803 19.8967169,65.9926815 1.13730697,70.0655644 Z" id="Path-6" fill="#FEE7D7"></path>
                            <path d="M180.878943,88.1709967 C186.936937,94.2512104 186.936937,104.109184 180.878943,110.189398 L167.298313,123.819837 C161.240318,129.900051 151.418368,129.900051 145.360373,123.819837 C139.302379,117.739623 139.302379,107.881649 145.360373,101.801436 L158.941003,88.1709967 C164.998998,82.090783 174.820948,82.090783 180.878943,88.1709967 Z" id="Rectangle" fill="#FDE7D7"></path>
                            <path d="M185.311076,125.240904 C191.36907,131.321117 191.36907,141.179092 185.311076,147.259305 L171.730446,160.889744 C165.672452,166.969958 155.850501,166.969958 149.792507,160.889744 C143.734512,154.809531 143.734512,144.951556 149.792507,138.871343 L163.373136,125.240904 C169.431131,119.16069 179.253081,119.16069 185.311076,125.240904 Z" id="Rectangle-Copy" fill="#FDE7D7"></path>
                            <path d="M185.311076,165.276403 C191.36907,171.356617 191.36907,181.214591 185.311076,187.294805 L171.730446,200.925244 C165.672452,207.005458 155.850501,207.005458 149.792507,200.925244 C143.734512,194.84503 143.734512,184.987056 149.792507,178.906842 L163.373136,165.276403 C169.431131,159.19619 179.253081,159.19619 185.311076,165.276403 Z" id="Rectangle-Copy-2" fill="#FDE7D7"></path>
                        </g>
                    </g>
                    <g id="Group-12" transform="translate(181.742915, 110.867571)">
                        <rect id="Rectangle-8" fill="#FFD33E" x="13.8824259" y="73.8354084" width="74.3050102" height="37.726566" rx="18.863283"></rect>
                        <text id="Pay" font-family="Roboto-Bold, Roboto" font-size="12" font-weight="bold" line-spacing="15" fill="#A68100">
                            <tspan x="40.8968902" y="91.9091395">Pay</tspan>
                        </text>
                        <path d="M41.1675184,31.839199 L41.1675184,11.8169837 L32.3046462,11.8169837 L32.3046462,31.839199 L32.2312346,31.839199 L32.2312346,40.7020713 L32.3046462,40.7020713 L32.3046462,40.7167536 L41.1675184,40.7167536 L41.1675184,40.7020713 L76.692419,40.7020713 L76.692419,31.839199 L41.1675184,31.839199 Z" id="Combined-Shape" fill="#00673C" opacity="0.587013134" transform="translate(54.461827, 26.266869) rotate(-45.000000) translate(-54.461827, -26.266869) "></path>
                    </g>
                    <g id="Group-11" transform="translate(360.511825, 69.329987) scale(-1, 1) rotate(-161.000000) translate(-360.511825, -69.329987) translate(341.011825, 36.329987)" stroke="#D8D8D8" stroke-width="4" stroke-linecap="round" opacity="0.57569067" stroke-linejoin="round">
                        <path d="M23.4591049,65.6642373 C32.8731493,58.067547 38.9396573,46.1337842 38.9396573,32.7141862 C38.9396573,19.4326646 32.9973456,7.60655938 23.7486264,-2.84217094e-13" id="Oval-11"></path>
                        <path d="M11.3487514,54.2794686 C17.6247811,49.2150084 21.6691197,41.2591665 21.6691197,32.3127679 C21.6691197,23.4584201 17.7075786,15.57435 11.5417658,10.5033104" id="Oval-11"></path>
                        <path d="M0,42.8946999 C3.13801482,40.3624698 5.16018415,36.3845489 5.16018415,31.9113496 C5.16018415,27.4841757 3.17941357,23.5421406 0.096507181,21.0066208" id="Oval-11"></path>
                    </g>
                    <g id="Group-7" transform="translate(360.352331, 213.783874)">
                        <rect id="Rectangle-40-Copy" fill="#FF830F" x="0" y="0" width="102.671957" height="67.3968363" rx="6"></rect>
                        <rect id="Rectangle-7" fill="#424559" x="0" y="12.3014318" width="102.671957" height="13.7289852"></rect>
                        <rect id="Rectangle-41" fill="#FFFFFF" x="9.32235595" y="33.4455373" width="38.6211889" height="8.02692894" rx="1"></rect>
                        <g id="Group-13" transform="translate(67.920022, 44.148109)" fill="#D0021B" opacity="0.34154212">
                            <ellipse id="Oval-4" style="mix-blend-mode: multiply;" cx="19.2273591" cy="8.69583969" rx="8.7397087" ry="8.69583969"></ellipse>
                            <ellipse id="Oval-4" style="mix-blend-mode: multiply;" cx="8.7397087" cy="8.69583969" rx="8.7397087" ry="8.69583969"></ellipse>
                        </g>
                    </g>
                    <g id="Group-8" transform="translate(0.000000, 83.312833)">
                        <rect id="Rectangle-40" fill="#FD953A" x="0" y="0" width="102.671957" height="67.3968363" rx="6"></rect>
                        <g id="Group-13" transform="translate(9.322356, 9.364750)" fill="#D0021B" opacity="0.34154212">
                            <ellipse id="Oval-4" style="mix-blend-mode: multiply;" cx="19.2273591" cy="8.69583969" rx="8.7397087" ry="8.69583969"></ellipse>
                            <ellipse id="Oval-4" style="mix-blend-mode: multiply;" cx="8.7397087" cy="8.69583969" rx="8.7397087" ry="8.69583969"></ellipse>
                        </g>
                        <path d="M13.3563375,50.8372166 L26.1431501,50.8372166 L26.1431501,50.8372166 C26.9000295,50.8372166 27.5136014,51.4507886 27.5136014,52.2076679 L27.5136014,52.2076679 C27.5136014,52.9645473 26.9000295,53.5781192 26.1431501,53.5781192 L13.3563375,53.5781192 C12.5994582,53.5781192 11.9858862,52.9645473 11.9858862,52.2076679 C11.9858862,51.4507886 12.5994582,50.8372166 13.3563375,50.8372166 L13.3563375,50.8372166 Z M34.0599577,50.8372166 L46.8467704,50.8372166 L46.8467704,50.8372166 C47.6036497,50.8372166 48.2172216,51.4507886 48.2172216,52.2076679 L48.2172216,52.2076679 C48.2172216,52.9645473 47.6036497,53.5781192 46.8467704,53.5781192 L34.0599577,53.5781192 C33.3030784,53.5781192 32.6895065,52.9645473 32.6895065,52.2076679 C32.6895065,51.4507886 33.3030784,50.8372166 34.0599577,50.8372166 L34.0599577,50.8372166 Z M54.763578,50.8372166 L67.5503906,50.8372166 L67.5503906,50.8372166 C68.3072699,50.8372166 68.9208419,51.4507886 68.9208419,52.2076679 L68.9208419,52.2076679 L68.9208419,52.2076679 C68.9208419,52.9645473 68.3072699,53.5781192 67.5503906,53.5781192 L54.763578,53.5781192 C54.0066986,53.5781192 53.3931267,52.9645473 53.3931267,52.2076679 L53.3931267,52.2076679 L53.3931267,52.2076679 C53.3931267,51.4507886 54.0066986,50.8372166 54.763578,50.8372166 L54.763578,50.8372166 Z M75.4671982,50.8372166 L88.2540108,50.8372166 L88.2540108,50.8372166 C89.0108902,50.8372166 89.6244621,51.4507886 89.6244621,52.2076679 L89.6244621,52.2076679 C89.6244621,52.9645473 89.0108902,53.5781192 88.2540108,53.5781192 L75.4671982,53.5781192 C74.7103189,53.5781192 74.0967469,52.9645473 74.0967469,52.2076679 L74.0967469,52.2076679 L74.0967469,52.2076679 C74.0967469,51.4507886 74.7103189,50.8372166 75.4671982,50.8372166 Z" id="Combined-Shape" fill="#424559"></path>
                    </g>
                </g>
                <g id="Debit-Card" transform="translate(0.000000, 164.000000)" letter-spacing="1.79999995" font-size="18" font-family="Roboto-Bold, Roboto" line-spacing="15" fill="#424559" font-weight="bold">
                    <text>
                        <tspan x="17.2351271" y="12.4582449">Debit Card</tspan>
                    </text>
                </g>
                <path d="M388.092285,304.453206 C388.045409,305.1036 387.898926,305.70125 387.652831,306.246175 C387.406736,306.791099 387.066896,307.25838 386.6333,307.64803 C386.199704,308.03768 385.673831,308.342365 385.055663,308.562093 C384.437496,308.78182 383.732914,308.891682 382.941894,308.891682 C382.121577,308.891682 381.384768,308.749594 380.731445,308.465413 C380.078121,308.181232 379.524416,307.772544 379.070312,307.239339 C378.616208,306.706133 378.267579,306.060143 378.024413,305.30135 C377.781248,304.542557 377.659667,303.691492 377.659667,302.748128 L377.659667,301.904378 C377.659667,300.961014 377.785643,300.108483 378.037597,299.34676 C378.289551,298.585038 378.645505,297.937583 379.105468,297.404378 C379.565431,296.871172 380.123531,296.46102 380.779785,296.173909 C381.436038,295.886798 382.168452,295.743245 382.97705,295.743245 C383.773929,295.743245 384.478512,295.856037 385.09082,296.081624 C385.703127,296.307211 386.223142,296.620684 386.650878,297.022053 C387.078615,297.423423 387.412596,297.900957 387.652831,298.454671 C387.893067,299.008384 388.045409,299.610429 388.109863,300.260823 L385.473144,300.260823 C385.443847,299.879962 385.37793,299.543051 385.27539,299.250081 C385.17285,298.957111 385.024903,298.711019 384.831542,298.5118 C384.638182,298.31258 384.389161,298.161702 384.084472,298.059163 C383.779783,297.956623 383.410646,297.905354 382.97705,297.905354 C382.086421,297.905354 381.422853,298.229081 380.986328,298.876546 C380.549802,299.52401 380.331542,300.527418 380.331542,301.8868 L380.331542,302.748128 C380.331542,303.41024 380.379882,303.990313 380.476562,304.488362 C380.573242,304.986411 380.725584,305.402423 380.933593,305.736409 C381.141602,306.070395 381.411131,306.320881 381.742187,306.487874 C382.073243,306.654867 382.473142,306.738362 382.941894,306.738362 C383.357912,306.738362 383.716795,306.691488 384.018554,306.597737 C384.320313,306.503987 384.572264,306.361898 384.774413,306.171468 C384.976563,305.981037 385.1333,305.74227 385.244628,305.455159 C385.355957,305.168048 385.426269,304.834067 385.455566,304.453206 L388.092285,304.453206 Z M396.361034,304.031331 L394.260449,304.031331 L394.260449,308.715901 L391.62373,308.715901 L391.62373,295.919026 L396.378613,295.919026 C397.116898,295.919026 397.779,296.002521 398.364941,296.169514 C398.950881,296.336507 399.445993,296.582599 399.850292,296.907796 C400.254591,297.232993 400.565135,297.635821 400.781933,298.116292 C400.998731,298.596763 401.107128,299.153398 401.107128,299.786214 C401.107128,300.254966 401.054394,300.675372 400.948925,301.047444 C400.843456,301.419516 400.691114,301.750568 400.491894,302.040608 C400.292674,302.330649 400.052442,302.584064 399.771191,302.800862 C399.489939,303.01766 399.173536,303.205158 398.821972,303.363362 L401.590527,308.592854 L401.590527,308.715901 L398.760449,308.715901 L396.361034,304.031331 Z M394.260449,301.895589 L396.387402,301.895589 C396.733107,301.895589 397.036326,301.850179 397.29707,301.759358 C397.557813,301.668537 397.774608,301.539632 397.94746,301.372639 C398.120313,301.205646 398.250682,301.00643 398.338574,300.774983 C398.426465,300.543537 398.470409,300.284262 398.470409,299.997151 C398.470409,299.393632 398.299024,298.919028 397.956249,298.573323 C397.613474,298.227618 397.087601,298.054768 396.378613,298.054768 L394.260449,298.054768 L394.260449,301.895589 Z M412.610253,303.170003 L407.547753,303.170003 L407.547753,306.597737 L413.489159,306.597737 L413.489159,308.715901 L404.911034,308.715901 L404.911034,295.919026 L413.471581,295.919026 L413.471581,298.054768 L407.547753,298.054768 L407.547753,301.104573 L412.610253,301.104573 L412.610253,303.170003 Z M416.836034,308.715901 L416.836034,295.919026 L420.773534,295.919026 C421.634867,295.919026 422.42441,296.066974 423.142187,296.362874 C423.859964,296.658774 424.475192,297.074785 424.98789,297.610921 C425.500588,298.147056 425.900486,298.790116 426.187597,299.54012 C426.474708,300.290124 426.618261,301.122147 426.618261,302.036214 L426.618261,302.616292 C426.618261,303.530359 426.476173,304.360917 426.191991,305.107991 C425.90781,305.855065 425.506447,306.49666 424.98789,307.032796 C424.469333,307.568931 423.84971,307.983478 423.129003,308.276448 C422.408296,308.569418 421.614359,308.715901 420.747167,308.715901 L416.836034,308.715901 Z M419.472753,298.054768 L419.472753,306.597737 L420.747167,306.597737 C421.790141,306.597737 422.584079,306.253502 423.129003,305.565022 C423.673928,304.876542 423.946386,303.893642 423.946386,302.616292 L423.946386,302.018635 C423.946386,300.717848 423.676857,299.732018 423.137792,299.061116 C422.598727,298.390214 421.810649,298.054768 420.773534,298.054768 L419.472753,298.054768 Z M433.137987,308.715901 L430.501269,308.715901 L430.501269,295.919026 L433.137987,295.919026 L433.137987,308.715901 Z M446.759276,298.054768 L442.839355,298.054768 L442.839355,308.715901 L440.202636,308.715901 L440.202636,298.054768 L436.335448,298.054768 L436.335448,295.919026 L446.759276,295.919026 L446.759276,298.054768 Z M465.863183,304.453206 C465.816307,305.1036 465.669825,305.70125 465.42373,306.246175 C465.177635,306.791099 464.837794,307.25838 464.404198,307.64803 C463.970602,308.03768 463.444729,308.342365 462.826562,308.562093 C462.208394,308.78182 461.503812,308.891682 460.712792,308.891682 C459.892475,308.891682 459.155666,308.749594 458.502343,308.465413 C457.849019,308.181232 457.295314,307.772544 456.84121,307.239339 C456.387106,306.706133 456.038477,306.060143 455.795312,305.30135 C455.552146,304.542557 455.430565,303.691492 455.430565,302.748128 L455.430565,301.904378 C455.430565,300.961014 455.556541,300.108483 455.808495,299.34676 C456.06045,298.585038 456.416403,297.937583 456.876366,297.404378 C457.336329,296.871172 457.894429,296.46102 458.550683,296.173909 C459.206936,295.886798 459.93935,295.743245 460.747948,295.743245 C461.544827,295.743245 462.24941,295.856037 462.861718,296.081624 C463.474026,296.307211 463.99404,296.620684 464.421776,297.022053 C464.849513,297.423423 465.183494,297.900957 465.42373,298.454671 C465.663965,299.008384 465.816307,299.610429 465.880761,300.260823 L463.244042,300.260823 C463.214745,299.879962 463.148828,299.543051 463.046288,299.250081 C462.943749,298.957111 462.795801,298.711019 462.60244,298.5118 C462.40908,298.31258 462.160059,298.161702 461.85537,298.059163 C461.550681,297.956623 461.181544,297.905354 460.747948,297.905354 C459.857319,297.905354 459.193751,298.229081 458.757226,298.876546 C458.3207,299.52401 458.10244,300.527418 458.10244,301.8868 L458.10244,302.748128 C458.10244,303.41024 458.15078,303.990313 458.24746,304.488362 C458.34414,304.986411 458.496482,305.402423 458.704491,305.736409 C458.9125,306.070395 459.182029,306.320881 459.513085,306.487874 C459.844141,306.654867 460.24404,306.738362 460.712792,306.738362 C461.12881,306.738362 461.487693,306.691488 461.789452,306.597737 C462.091212,306.503987 462.343162,306.361898 462.545312,306.171468 C462.747461,305.981037 462.904198,305.74227 463.015526,305.455159 C463.126855,305.168048 463.197167,304.834067 463.226464,304.453206 L465.863183,304.453206 Z M476.619237,306.079182 L471.99619,306.079182 L471.117284,308.715901 L468.313573,308.715901 L473.077245,295.919026 L475.520604,295.919026 L480.310644,308.715901 L477.506933,308.715901 L476.619237,306.079182 Z M472.708104,303.94344 L475.907323,303.94344 L474.298925,299.153401 L472.708104,303.94344 Z M488.043261,304.031331 L485.942675,304.031331 L485.942675,308.715901 L483.305956,308.715901 L483.305956,295.919026 L488.060839,295.919026 C488.799124,295.919026 489.461226,296.002521 490.047167,296.169514 C490.633107,296.336507 491.12822,296.582599 491.532518,296.907796 C491.936817,297.232993 492.247361,297.635821 492.464159,298.116292 C492.680957,298.596763 492.789354,299.153398 492.789354,299.786214 C492.789354,300.254966 492.736621,300.675372 492.631151,301.047444 C492.525682,301.419516 492.37334,301.750568 492.17412,302.040608 C491.9749,302.330649 491.734668,302.584064 491.453417,302.800862 C491.172166,303.01766 490.855762,303.205158 490.504198,303.363362 L493.272753,308.592854 L493.272753,308.715901 L490.442675,308.715901 L488.043261,304.031331 Z M485.942675,301.895589 L488.069628,301.895589 C488.415333,301.895589 488.718552,301.850179 488.979296,301.759358 C489.240039,301.668537 489.456834,301.539632 489.629686,301.372639 C489.802539,301.205646 489.932909,301.00643 490.0208,300.774983 C490.108691,300.543537 490.152636,300.284262 490.152636,299.997151 C490.152636,299.393632 489.981251,298.919028 489.638476,298.573323 C489.2957,298.227618 488.769827,298.054768 488.060839,298.054768 L485.942675,298.054768 L485.942675,301.895589 Z M496.593261,308.715901 L496.593261,295.919026 L500.530761,295.919026 C501.392093,295.919026 502.181636,296.066974 502.899413,296.362874 C503.61719,296.658774 504.232418,297.074785 504.745116,297.610921 C505.257814,298.147056 505.657712,298.790116 505.944823,299.54012 C506.231934,300.290124 506.375487,301.122147 506.375487,302.036214 L506.375487,302.616292 C506.375487,303.530359 506.233399,304.360917 505.949218,305.107991 C505.665037,305.855065 505.263673,306.49666 504.745116,307.032796 C504.226559,307.568931 503.606936,307.983478 502.886229,308.276448 C502.165523,308.569418 501.371585,308.715901 500.504393,308.715901 L496.593261,308.715901 Z M499.229979,298.054768 L499.229979,306.597737 L500.504393,306.597737 C501.547367,306.597737 502.341305,306.253502 502.886229,305.565022 C503.431154,304.876542 503.703612,303.893642 503.703612,302.616292 L503.703612,302.018635 C503.703612,300.717848 503.434084,299.732018 502.895018,299.061116 C502.355953,298.390214 501.567875,298.054768 500.530761,298.054768 L499.229979,298.054768 Z" id="Credit-Card" fill="#424559"></path>
            </g>
        </g>
    </g>
</svg>