<?xml version="1.0" encoding="UTF-8"?>
<svg width="397px" height="363px" viewBox="0 0 397 363" version="1.1" xmlns="http://www.w3.org/2000/svg" xmlns:xlink="http://www.w3.org/1999/xlink">
    <!-- Generator: Sketch 46.2 (44496) - http://www.bohemiancoding.com/sketch -->
    <title>img</title>
    <desc>Created with Sketch.</desc>
    <defs>
        <linearGradient x1="77.1699837%" y1="-24.0598248%" x2="77.1699846%" y2="100%" id="linearGradient-1">
            <stop stop-color="#FFFFFF" stop-opacity="0.5" offset="0%"></stop>
            <stop stop-color="#424559" stop-opacity="0.5" offset="100%"></stop>
        </linearGradient>
        <linearGradient x1="85.9444261%" y1="-13.4788797%" x2="85.9444261%" y2="90.64405%" id="linearGradient-2">
            <stop stop-color="#FFFFFF" stop-opacity="0.5" offset="0%"></stop>
            <stop stop-color="#000000" stop-opacity="0.5" offset="100%"></stop>
        </linearGradient>
        <ellipse id="path-3" cx="224.266302" cy="210.341169" rx="160.480497" ry="160.543409"></ellipse>
        <mask id="mask-4" maskContentUnits="userSpaceOnUse" maskUnits="objectBoundingBox" x="0" y="0" width="320.960995" height="321.086819" fill="white">
            <use xlink:href="#path-3"></use>
        </mask>
        <mask id="mask-5" maskContentUnits="userSpaceOnUse" maskUnits="objectBoundingBox" x="0" y="0" width="320.960995" height="321.086819" fill="white">
            <use xlink:href="#path-3"></use>
        </mask>
        <ellipse id="path-6" cx="224.602546" cy="210.701703" rx="129.776161" ry="129.827036"></ellipse>
        <mask id="mask-7" maskContentUnits="userSpaceOnUse" maskUnits="objectBoundingBox" x="0" y="0" width="259.552321" height="259.654072" fill="white">
            <use xlink:href="#path-6"></use>
        </mask>
        <path d="M97.2674735,123.645553 C97.1457276,129.279822 97.5112242,133.216932 98.3639632,135.456884 C99.660137,138.861639 84.7986617,134.384776 81.1475894,125.21709 C55.0385647,123.54669 34.3789384,101.832894 34.3789384,75.291891 C34.3789384,47.6618963 56.7686974,25.26336 84.3878648,25.26336 C112.007032,25.26336 134.396791,47.6618963 134.396791,75.291891 C134.396791,98.4670174 118.644924,117.961656 97.2674735,123.645553 Z" id="path-8"></path>
        <filter x="-8.0%" y="-6.3%" width="116.0%" height="114.4%" filterUnits="objectBoundingBox" id="filter-9">
            <feMorphology radius="1" operator="dilate" in="SourceAlpha" result="shadowSpreadOuter1"></feMorphology>
            <feOffset dx="0" dy="1" in="shadowSpreadOuter1" result="shadowOffsetOuter1"></feOffset>
            <feGaussianBlur stdDeviation="1.5" in="shadowOffsetOuter1" result="shadowBlurOuter1"></feGaussianBlur>
            <feComposite in="shadowBlurOuter1" in2="SourceAlpha" operator="out" result="shadowBlurOuter1"></feComposite>
            <feColorMatrix values="0 0 0 0 0   0 0 0 0 0   0 0 0 0 0  0 0 0 0.0670572917 0" type="matrix" in="shadowBlurOuter1"></feColorMatrix>
        </filter>
        <path d="M378.266418,123.645553 C378.144672,129.279822 378.510168,133.216932 379.362907,135.456884 C380.659081,138.861639 365.797606,134.384776 362.146533,125.21709 C336.037509,123.54669 315.377883,101.832894 315.377883,75.291891 C315.377883,47.6618963 337.767641,25.26336 365.386809,25.26336 C393.005976,25.26336 415.395735,47.6618963 415.395735,75.291891 C415.395735,98.4670174 399.643868,117.961656 378.266418,123.645553 Z" id="path-10"></path>
        <filter x="-8.0%" y="-6.3%" width="116.0%" height="114.4%" filterUnits="objectBoundingBox" id="filter-11">
            <feMorphology radius="1" operator="dilate" in="SourceAlpha" result="shadowSpreadOuter1"></feMorphology>
            <feOffset dx="0" dy="1" in="shadowSpreadOuter1" result="shadowOffsetOuter1"></feOffset>
            <feGaussianBlur stdDeviation="1.5" in="shadowOffsetOuter1" result="shadowBlurOuter1"></feGaussianBlur>
            <feComposite in="shadowBlurOuter1" in2="SourceAlpha" operator="out" result="shadowBlurOuter1"></feComposite>
            <feColorMatrix values="0 0 0 0 0   0 0 0 0 0   0 0 0 0 0  0 0 0 0.0670572917 0" type="matrix" in="shadowBlurOuter1"></feColorMatrix>
        </filter>
        <path d="M96.6312413,368.364707 C96.5094955,373.998976 96.8749921,377.936086 97.7277311,380.176038 C99.0239049,383.580793 84.1624296,379.10393 80.5113572,369.936244 C54.4023325,368.265844 33.7427063,346.552047 33.7427063,320.011045 C33.7427063,292.38105 56.1324652,269.982514 83.7516326,269.982514 C111.3708,269.982514 133.760559,292.38105 133.760559,320.011045 C133.760559,343.186171 118.008692,362.68081 96.6312413,368.364707 Z" id="path-12"></path>
        <filter x="-8.0%" y="-6.3%" width="116.0%" height="114.4%" filterUnits="objectBoundingBox" id="filter-13">
            <feMorphology radius="1" operator="dilate" in="SourceAlpha" result="shadowSpreadOuter1"></feMorphology>
            <feOffset dx="0" dy="1" in="shadowSpreadOuter1" result="shadowOffsetOuter1"></feOffset>
            <feGaussianBlur stdDeviation="1.5" in="shadowOffsetOuter1" result="shadowBlurOuter1"></feGaussianBlur>
            <feComposite in="shadowBlurOuter1" in2="SourceAlpha" operator="out" result="shadowBlurOuter1"></feComposite>
            <feColorMatrix values="0 0 0 0 0   0 0 0 0 0   0 0 0 0 0  0 0 0 0.0670572917 0" type="matrix" in="shadowBlurOuter1"></feColorMatrix>
        </filter>
        <path d="M377.921343,368.364707 C377.799597,373.998976 378.165093,377.936086 379.017832,380.176038 C380.314006,383.580793 365.452531,379.10393 361.801458,369.936244 C335.692434,368.265844 315.032807,346.552047 315.032807,320.011045 C315.032807,292.38105 337.422566,269.982514 365.041734,269.982514 C392.660901,269.982514 415.05066,292.38105 415.05066,320.011045 C415.05066,343.186171 399.298793,362.68081 377.921343,368.364707 Z" id="path-14"></path>
        <filter x="-8.0%" y="-6.3%" width="116.0%" height="114.4%" filterUnits="objectBoundingBox" id="filter-15">
            <feMorphology radius="1" operator="dilate" in="SourceAlpha" result="shadowSpreadOuter1"></feMorphology>
            <feOffset dx="0" dy="1" in="shadowSpreadOuter1" result="shadowOffsetOuter1"></feOffset>
            <feGaussianBlur stdDeviation="1.5" in="shadowOffsetOuter1" result="shadowBlurOuter1"></feGaussianBlur>
            <feComposite in="shadowBlurOuter1" in2="SourceAlpha" operator="out" result="shadowBlurOuter1"></feComposite>
            <feColorMatrix values="0 0 0 0 0   0 0 0 0 0   0 0 0 0 0  0 0 0 0.0670572917 0" type="matrix" in="shadowBlurOuter1"></feColorMatrix>
        </filter>
    </defs>
    <g id="Page-1" stroke="none" stroke-width="1" fill="none" fill-rule="evenodd">
        <g id="D_Security" transform="translate(-828.000000, -298.000000)">
            <g id="img" transform="translate(802.000000, 276.000000)">
                <ellipse id="Oval-28" stroke="#979797" opacity="0.270210598" stroke-dasharray="3,4" cx="224.562698" cy="210.628781" rx="172.212897" ry="172.280408"></ellipse>
                <g id="Oval-28" opacity="0.250622736" stroke-linecap="square" stroke-linejoin="bevel" stroke-dasharray="1,12" stroke-width="120">
                    <use stroke="url(#linearGradient-1)" mask="url(#mask-4)" xlink:href="#path-3"></use>
                    <use stroke="url(#linearGradient-2)" mask="url(#mask-5)" xlink:href="#path-3"></use>
                </g>
                <use id="Oval-28" stroke="#C2BDBD" mask="url(#mask-7)" stroke-width="8" opacity="0.739130435" style="mix-blend-mode: multiply;" stroke-linejoin="round" stroke-dasharray="1,19" xlink:href="#path-6"></use>
                <g id="Combined-Shape" transform="translate(84.387865, 80.928909) rotate(-30.000000) translate(-84.387865, -80.928909) ">
                    <use fill="black" fill-opacity="1" filter="url(#filter-9)" xlink:href="#path-8"></use>
                    <use fill="#FFFFFF" fill-rule="evenodd" xlink:href="#path-8"></use>
                    <path stroke="#E5E5E5" stroke-width="1" d="M96.7675902,123.634752 L96.7757109,123.258933 L97.1389958,123.162341 C118.650421,117.442823 133.896791,97.8812285 133.896791,75.291891 C133.896791,47.9379948 111.730846,25.76336 84.3878648,25.76336 C57.0448836,25.76336 34.8789384,47.9379948 34.8789384,75.291891 C34.8789384,101.450794 55.2151674,123.056967 81.1795131,124.71811 L81.4951024,124.738301 L81.6121068,125.032094 C83.1836911,128.978275 87.1391768,132.449966 91.8194885,134.597197 C93.7151721,135.466897 95.5258888,136.001212 96.7672715,136.083601 C97.7895951,136.15145 98.033789,135.994933 97.8966794,135.634777 C97.0149049,133.318555 96.6445466,129.329076 96.7675902,123.634752 Z"></path>
                </g>
                <g id="Combined-Shape" transform="translate(365.386809, 80.928909) scale(-1, 1) rotate(-30.000000) translate(-365.386809, -80.928909) ">
                    <use fill="black" fill-opacity="1" filter="url(#filter-11)" xlink:href="#path-10"></use>
                    <use fill="#FFFFFF" fill-rule="evenodd" xlink:href="#path-10"></use>
                    <path stroke="#E5E5E5" stroke-width="1" d="M377.766534,123.634752 L377.774655,123.258933 L378.13794,123.162341 C399.649366,117.442823 414.895735,97.8812285 414.895735,75.291891 C414.895735,47.9379948 392.72979,25.76336 365.386809,25.76336 C338.043828,25.76336 315.877883,47.9379948 315.877883,75.291891 C315.877883,101.450794 336.214111,123.056967 362.178457,124.71811 L362.494047,124.738301 L362.611051,125.032094 C364.182635,128.978275 368.138121,132.449966 372.818433,134.597197 C374.714116,135.466897 376.524833,136.001212 377.766216,136.083601 C378.788539,136.15145 379.032733,135.994933 378.895624,135.634777 C378.013849,133.318555 377.643491,129.329076 377.766534,123.634752 Z"></path>
                </g>
                <g id="Combined-Shape" transform="translate(83.751633, 325.648063) scale(1, -1) rotate(-30.000000) translate(-83.751633, -325.648063) ">
                    <use fill="black" fill-opacity="1" filter="url(#filter-13)" xlink:href="#path-12"></use>
                    <use fill="#FFFFFF" fill-rule="evenodd" xlink:href="#path-12"></use>
                    <path stroke="#E5E5E5" stroke-width="1" d="M96.131358,368.353905 L96.1394787,367.978087 L96.5027636,367.881495 C118.014189,362.161976 133.260559,342.600382 133.260559,320.011045 C133.260559,292.657149 111.094614,270.482514 83.7516326,270.482514 C56.4086515,270.482514 34.2427063,292.657149 34.2427063,320.011045 C34.2427063,346.169947 54.5789352,367.77612 80.5432809,369.437264 L80.8588703,369.457455 L80.9758746,369.751248 C82.5474589,373.697429 86.5029446,377.16912 91.1832563,379.316351 C93.07894,380.186051 94.8896566,380.720366 96.1310393,380.802754 C97.1533629,380.870604 97.3975569,380.714087 97.2604472,380.353931 C96.3786727,378.037709 96.0083145,374.048229 96.131358,368.353905 Z"></path>
                </g>
                <g id="Combined-Shape" transform="translate(365.041734, 325.648063) scale(-1, -1) rotate(-30.000000) translate(-365.041734, -325.648063) ">
                    <use fill="black" fill-opacity="1" filter="url(#filter-15)" xlink:href="#path-14"></use>
                    <use fill="#FFFFFF" fill-rule="evenodd" xlink:href="#path-14"></use>
                    <path stroke="#E5E5E5" stroke-width="1" d="M377.421459,368.353905 L377.42958,367.978087 L377.792865,367.881495 C399.30429,362.161976 414.55066,342.600382 414.55066,320.011045 C414.55066,292.657149 392.384715,270.482514 365.041734,270.482514 C337.698753,270.482514 315.532807,292.657149 315.532807,320.011045 C315.532807,346.169947 335.869036,367.77612 361.833382,369.437264 L362.148971,369.457455 L362.265976,369.751248 C363.83756,373.697429 367.793046,377.16912 372.473358,379.316351 C374.369041,380.186051 376.179758,380.720366 377.42114,380.802754 C378.443464,380.870604 378.687658,380.714087 378.550548,380.353931 C377.668774,378.037709 377.298416,374.048229 377.421459,368.353905 Z"></path>
                </g>
                <g id="Group-5" transform="translate(161.528319, 142.546573)">
                    <rect id="Rectangle-45" fill="#CCCCCC" x="18.0376675" y="116.137661" width="15.8383378" height="19.6540658" rx="7.91916892"></rect>
                    <rect id="Rectangle-45-Copy" fill="#CCCCCC" x="92.8939874" y="116.137661" width="15.8383378" height="19.6540658" rx="7.91916892"></rect>
                    <rect id="Rectangle-42" fill="#1FAC66" x="0" y="0" width="127.165556" height="125.964694" rx="17"></rect>
                    <rect id="Rectangle-42" fill="#424559" x="9.9207171" y="9.82703288" width="108.226005" height="107.203995" rx="13"></rect>
                    <g id="Group-3" transform="translate(27.056501, 41.094865)">
                        <g id="Group-2">
                            <ellipse id="Oval-27" fill="#30BE77" cx="22.5470843" cy="22.3341656" rx="22.5470843" ry="22.3341656"></ellipse>
                            <ellipse id="Oval-27" fill="#1FAC66" cx="22.5470843" cy="22.3341656" rx="18.7255446" ry="18.5487138"></ellipse>
                        </g>
                        <path d="M22.5470843,8.93366625 C22.9699964,8.93366625 23.3128344,9.27650422 23.3128344,9.69941628 L23.3128344,12.21335 C23.3128344,12.6362621 22.9699964,12.9791 22.5470843,12.9791 C22.1241723,12.9791 21.7813343,12.6362621 21.7813343,12.21335 L21.7813343,9.69941628 L21.7813343,9.69941628 C21.7813343,9.27650422 22.1241723,8.93366625 22.5470843,8.93366625 Z M22.5470843,31.6892312 C22.9699964,31.6892312 23.3128344,32.0320692 23.3128344,32.4549813 L23.3128344,34.968915 C23.3128344,35.391827 22.9699964,35.734665 22.5470843,35.734665 C22.1241723,35.734665 21.7813343,35.391827 21.7813343,34.968915 L21.7813343,32.4549813 C21.7813343,32.0320692 22.1241723,31.6892312 22.5470843,31.6892312 Z M36.0560517,22.3341656 C36.0560517,22.7570777 35.7132138,23.0999157 35.2903017,23.0999157 L32.776368,23.0999157 C32.3534559,23.0999157 32.0106179,22.7570777 32.0106179,22.3341656 C32.0106179,21.9112536 32.3534559,21.5684156 32.776368,21.5684156 L35.2903017,21.5684156 C35.7132138,21.5684156 36.0560517,21.9112536 36.0560517,22.3341656 Z M13.0835507,22.3341656 C13.0835507,22.7570777 12.7407127,23.0999157 12.3178007,23.0999157 L9.80386697,23.0999157 C9.3809549,23.0999157 9.03811693,22.7570777 9.03811693,22.3341656 C9.03811693,21.9112536 9.3809549,21.5684156 9.80386697,21.5684156 L12.3178007,21.5684156 C12.7407127,21.5684156 13.0835507,21.9112536 13.0835507,22.3341656 Z M32.0993668,31.8097496 C31.8003228,32.1087936 31.3154767,32.1087936 31.0164327,31.8097496 L29.2388131,30.03213 C28.9397691,29.733086 28.9397691,29.2482399 29.2388131,28.949196 C29.5378571,28.650152 30.0227032,28.650152 30.3217472,28.949196 L32.0993668,30.7268155 C32.3984108,31.0258595 32.3984108,31.5107056 32.0993668,31.8097496 Z M15.8553555,15.7191353 C15.5563115,16.0181793 15.0714654,16.0181793 14.7724214,15.7191353 L12.9948019,13.9415157 C12.6957579,13.6424717 12.6957579,13.1576256 12.9948019,12.8585816 L12.9948019,12.8585816 C13.2938459,12.5595377 13.778692,12.5595377 14.077736,12.8585816 L15.8553555,14.6362012 C16.1543995,14.9352452 16.1543995,15.4200913 15.8553555,15.7191353 Z M12.9948019,31.8097496 L12.9948019,31.8097496 C12.6957579,31.5107056 12.6957579,31.0258595 12.9948019,30.7268155 L14.7724214,28.949196 C15.0714654,28.650152 15.5563115,28.650152 15.8553555,28.949196 L15.8553555,28.949196 C16.1543995,29.2482399 16.1543995,29.733086 15.8553555,30.03213 L15.8553555,30.03213 L14.077736,31.8097496 C13.778692,32.1087936 13.2938459,32.1087936 12.9948019,31.8097496 L12.9948019,31.8097496 Z M29.2388131,15.7191353 C28.9397691,15.4200913 28.9397691,14.9352452 29.2388131,14.6362012 L31.0164327,12.8585816 C31.3154767,12.5595377 31.8003228,12.5595377 32.0993668,12.8585816 L32.0993668,12.8585816 C32.3984108,13.1576256 32.3984108,13.6424717 32.0993668,13.9415157 L30.3217472,15.7191353 C30.0227032,16.0181793 29.5378571,16.0181793 29.2388131,15.7191353 Z" id="Combined-Shape" fill="#F6EB1C" opacity="0.371546649"></path>
                        <ellipse id="Oval-27" fill="#F7E91C" cx="22.5470843" cy="22.3341656" rx="5.89692975" ry="5.84124332"></ellipse>
                    </g>
                    <g id="Group-4" transform="translate(86.580804, 34.841298)">
                        <ellipse id="Oval-27" fill="#1FAC66" cx="7.66600867" cy="7.59361631" rx="7.66600867" ry="7.59361631"></ellipse>
                        <ellipse id="Oval-27" fill="#1FAC66" cx="7.66600867" cy="49.5818477" rx="7.66600867" ry="7.59361631"></ellipse>
                        <rect id="Rectangle-43" fill="#F7E91C" x="4.50941687" y="6.25356638" width="7.21506699" height="44.6683313" rx="3.60753349"></rect>
                    </g>
                </g>
                <g id="Group-7" transform="translate(58.032756, 42.062737)">
                    <rect id="Rectangle" stroke="#CCCCCC" stroke-width="6" x="7.30810594" y="3" width="30.8173001" height="44.7663415" rx="15.40865"></rect>
                    <ellipse id="Oval-29" stroke="#DFAC00" fill="#F8C20A" cx="22.6175562" cy="44.9829092" rx="22.6175562" ry="22.6068865"></ellipse>
                    <path d="M21.0618512,46.1800336 C20.0516123,45.5183744 19.3864767,44.3915768 19.3864767,43.1127764 C19.3864767,41.075754 21.0741808,39.424421 23.1560694,39.424421 C25.237958,39.424421 26.9256621,41.075754 26.9256621,43.1127764 C26.9256621,44.3915768 26.2605265,45.5183744 25.2502876,46.1800336 L25.2502876,48.5796699 C25.2502876,49.4080971 24.5787147,50.0796699 23.7502876,50.0796699 L22.5618512,50.0796699 C21.7334241,50.0796699 21.0618512,49.4080971 21.0618512,48.5796699 L21.0618512,46.1800336 Z" id="Combined-Shape" fill="#424559"></path>
                </g>
                <g id="Group-8" transform="translate(338.833744, 300.714326)">
                    <path d="M49.955734,44.346175 L49.955734,18 C49.955734,8.0588745 41.8968595,-1.82615513e-15 31.955734,0 L31.955734,0 L24.521274,0 L24.521274,0 C14.5801485,1.82615513e-15 6.52127402,8.0588745 6.52127402,18 L6.52127402,18 L6.52127402,44.346175 L49.955734,44.346175 Z" id="Combined-Shape" fill="#D02A02"></path>
                    <rect id="Rectangle-5" fill="#D8D8D8" x="0" y="40.8697766" width="56.0829566" height="11.865419" rx="5.93270951"></rect>
                    <rect id="Rectangle-46" fill="#F0380C" x="11.7382932" y="18.4573185" width="7.82552883" height="15.8205587" rx="3.91276441"></rect>
                </g>
                <g id="Group-10" transform="translate(340.229349, 47.780283)">
                    <path d="M28.9225681,0.0798213476 L0.0759905029,12.7118981 C0.961553155,24.0102684 3.75134611,33.947619 8.44536938,42.5239498 C13.1393927,51.1002807 19.683863,57.3261341 28.0787805,61.2015102 C36.8968602,56.3085044 43.6121515,49.8919742 48.2246543,41.9519196 C52.8371571,34.011865 55.4979041,24.5470836 56.2068955,13.5575753 L28.9225681,0.0798213476 Z" id="Path-26" fill="#7CABD5"></path>
                    <g id="Group-9" transform="translate(3.576101, 4.552861)" fill="#538EC3">
                        <path d="M24.4537317,0.067857881 L24.4537317,0 L24.3763874,0.0339289405 L24.2990431,0 L24.2990431,0.067857881 L0.592130788,10.4674654 C2.31784831,22.1823471 4.7378209,30.6581307 7.85204853,35.8948162 C10.9460467,41.097485 16.4283782,46.5397697 24.2990431,52.2216701 L24.2990431,52.3331508 C24.32485,52.314584 24.3506315,52.2960197 24.3763874,52.277458 C24.4021434,52.2960197 24.4279248,52.314584 24.4537317,52.3331508 L24.4537317,52.2216701 C32.3243966,46.5397697 37.8067282,41.097485 40.9007263,35.8948162 C44.0149539,30.6581307 46.4349265,22.1823471 48.160644,10.4674654 L24.4537317,0.067857881 Z" id="Combined-Shape"></path>
                    </g>
                    <path d="M22.2909987,29.7599017 L22.2909987,19.5101107 L17.8772686,19.5101107 L17.8772686,29.7599017 L17.5873611,29.7599017 L17.5873611,34.1736319 L17.8772686,34.1736319 L17.8772686,34.2316134 L22.2909987,34.2316134 L22.2909987,34.1736319 L40.2358267,34.1736319 L40.2358267,29.7599017 L22.2909987,29.7599017 Z" id="Combined-Shape" fill="#424559" transform="translate(28.911594, 26.870862) rotate(-45.000000) translate(-28.911594, -26.870862) "></path>
                </g>
                <g id="Group-7" transform="translate(47.424105, 297.750084)" fill="#917DC9">
                    <path d="M44.7361472,40.407775 C44.6506865,40.3554098 44.537451,40.3030445 44.3729391,40.2506793 C43.9541816,40.0583173 43.551448,39.8552686 43.1561922,39.6511511 C40.2238213,37.6420369 40.6447153,32.7656603 41.0175377,32.4685678 C43.9018369,30.1677046 45.3696248,27.8700474 46.1772286,25.4879647 C47.3085148,25.1064467 48.7987361,23.1774834 48.7987361,20.8381477 C48.7987361,18.7542261 48.2058524,17.0048006 47.387566,16.3742807 C47.3939756,15.8463539 47.4014534,15.3504874 47.420682,15.0993481 C47.952675,8.2908021 43.9851611,3.07992932 38.6449345,1.05905966 C37.0692525,0.462737472 35.3739255,-5.68434189e-14 33.6390729,-5.68434189e-14 C32.4095068,-5.68434189e-14 31.2077154,0.331290107 30.059337,0.676473025 C24.1016567,2.47292035 19.5690338,8.55583418 19.8574637,15.0993481 C19.8692146,15.3376633 19.8734876,15.8484913 19.8788289,16.3817615 C19.0669521,17.0208308 18.4804779,18.7638442 18.4804779,20.8381477 C18.4804779,23.4510649 20.5304669,25.5681155 21.6724358,25.5681155 C22.7268074,27.9790526 24.2661686,30.266023 26.4507582,32.4685678 C26.788328,32.8084074 27.0137307,37.1162474 24.6336497,39.2674958 C21.6606849,40.3361736 8.16857396,46.3485547 8.16857396,49.9435867 L8.16857396,58.5676045 L59.3830461,58.5676045 L59.3830461,49.9435867 C59.3830461,46.5505348 47.1418664,41.4614912 44.7361472,40.407775 Z" id="Fill-1"></path>
                </g>
            </g>
        </g>
    </g>
</svg>