<?xml version="1.0" encoding="UTF-8"?>
<svg width="398px" height="401px" viewBox="0 0 398 401" version="1.1" xmlns="http://www.w3.org/2000/svg" xmlns:xlink="http://www.w3.org/1999/xlink">
    <!-- Generator: Sketch 46.2 (44496) - http://www.bohemiancoding.com/sketch -->
    <title>Group 5</title>
    <desc>Created with Sketch.</desc>
    <defs>
        <polygon id="path-1" points="0 16.6682676 0 0.0438762333 23.6937607 0.0438762333 47.3875214 0.0438762333 47.3875214 16.6682676"></polygon>
        <polygon id="path-3" points="0.0855891736 8.81826103 0.0855891736 20.3711083 47.4732977 20.3711083 47.4732977 0.0438762333 0.0855891736 0.0438762333 0.0855891736 8.81826103 0.0850275637 20.37103 47.4727361 20.37103 47.4727361 8.81826103"></polygon>
        <polygon id="path-5" points="0.0855891736 8.81826103 0.0855891736 20.3711083 47.4732977 20.3711083 47.4732977 0.0438762333 0.0855891736 0.0438762333 0.0855891736 8.81826103 0.0850275637 20.37103 47.4727361 20.37103 47.4727361 8.81826103"></polygon>
        <polygon id="path-7" points="0 16.6682676 0 0.0438762333 23.6937607 0.0438762333 47.3875214 0.0438762333 47.3875214 16.6682676"></polygon>
        <polygon id="path-9" points="0.0855891736 8.81826103 0.0855891736 20.3711083 47.4732977 20.3711083 47.4732977 0.0438762333 0.0855891736 0.0438762333 0.0855891736 8.81826103 0.0850275637 20.37103 47.4727361 20.37103 47.4727361 8.81826103"></polygon>
        <polygon id="path-11" points="0.0855891736 8.81826103 0.0855891736 20.3711083 47.4732977 20.3711083 47.4732977 0.0438762333 0.0855891736 0.0438762333 0.0855891736 8.81826103 0.0850275637 20.37103 47.4727361 20.37103 47.4727361 8.81826103"></polygon>
        <polygon id="path-13" points="0 16.6682676 0 0.0438762333 23.6937607 0.0438762333 47.3875214 0.0438762333 47.3875214 16.6682676"></polygon>
        <polygon id="path-15" points="0.0855891736 8.81826103 0.0855891736 20.3711083 47.4732977 20.3711083 47.4732977 0.0438762333 0.0855891736 0.0438762333 0.0855891736 8.81826103 0.0850275637 20.37103 47.4727361 20.37103 47.4727361 8.81826103"></polygon>
        <polygon id="path-17" points="0.0855891736 8.81826103 0.0855891736 20.3711083 47.4732977 20.3711083 47.4732977 0.0438762333 0.0855891736 0.0438762333 0.0855891736 8.81826103 0.0850275637 20.37103 47.4727361 20.37103 47.4727361 8.81826103"></polygon>
        <polygon id="path-19" points="0 16.6682676 0 0.0438762333 23.6937607 0.0438762333 47.3875214 0.0438762333 47.3875214 16.6682676"></polygon>
        <polygon id="path-21" points="0.0855891736 8.81826103 0.0855891736 20.3711083 47.4732977 20.3711083 47.4732977 0.0438762333 0.0855891736 0.0438762333 0.0855891736 8.81826103 0.0850275637 20.37103 47.4727361 20.37103 47.4727361 8.81826103"></polygon>
        <polygon id="path-23" points="0.0855891736 8.81826103 0.0855891736 20.3711083 47.4732977 20.3711083 47.4732977 0.0438762333 0.0855891736 0.0438762333 0.0855891736 8.81826103 0.0850275637 20.37103 47.4727361 20.37103 47.4727361 8.81826103"></polygon>
        <polygon id="path-25" points="0 16.6682676 0 0.0438762333 23.6937607 0.0438762333 47.3875214 0.0438762333 47.3875214 16.6682676"></polygon>
        <polygon id="path-27" points="0.0855891736 8.81826103 0.0855891736 20.3711083 47.4732977 20.3711083 47.4732977 0.0438762333 0.0855891736 0.0438762333 0.0855891736 8.81826103 0.0850275637 20.37103 47.4727361 20.37103 47.4727361 8.81826103"></polygon>
        <polygon id="path-29" points="0.0855891736 8.81826103 0.0855891736 20.3711083 47.4732977 20.3711083 47.4732977 0.0438762333 0.0855891736 0.0438762333 0.0855891736 8.81826103 0.0850275637 20.37103 47.4727361 20.37103 47.4727361 8.81826103"></polygon>
        <polygon id="path-31" points="0 19.9480935 0 0.0525097883 23.8997934 0.0525097883 47.7995868 0.0525097883 47.7995868 19.9480935"></polygon>
        <polygon id="path-33" points="0.0937284478 10.553436 0.0937284478 24.3795446 47.893504 24.3795446 47.893504 0.0525097883 0.0937284478 0.0525097883 0.0937284478 10.553436 0.0931619543 24.3794508 47.8929375 24.3794508 47.8929375 10.553436"></polygon>
        <polygon id="path-35" points="0.0937284478 10.553436 0.0937284478 24.3795446 47.893504 24.3795446 47.893504 0.0525097883 0.0937284478 0.0525097883 0.0937284478 10.553436 0.0931619543 24.3794508 47.8929375 24.3794508 47.8929375 10.553436"></polygon>
        <linearGradient x1="102.093697%" y1="-120.141127%" x2="102.093697%" y2="112.273073%" id="linearGradient-37">
            <stop stop-color="#FFFFFF" offset="0%"></stop>
            <stop stop-color="#000000" offset="100%"></stop>
        </linearGradient>
        <linearGradient x1="50%" y1="-55.8419547%" x2="50%" y2="134.832129%" id="linearGradient-38">
            <stop stop-color="#FFFFFF" stop-opacity="0.5" offset="0%"></stop>
            <stop stop-color="#000000" stop-opacity="0.5" offset="100%"></stop>
        </linearGradient>
        <path d="M90.104579,42.7438919 C90.104579,42.7417183 89.7429786,42.7417183 89.1275625,42.7428051 C88.5121464,42.7417183 88.150546,42.7417183 88.150546,42.7417183 C81.8132669,42.7569332 62.1477675,42.831921 61.6042079,43.3024965 C61.6042079,43.3024965 -14.8267614,100.483402 2.66102265,163.829607 C2.66102265,163.829607 18.8553899,199.147768 45.4109997,202.511351 L88.150546,202.511351 L90.104579,202.511351 L132.844125,202.511351 C159.400894,199.147768 175.592943,163.829607 175.592943,163.829607 C193.081886,100.483402 116.650917,43.3024965 116.650917,43.3024965 C116.107357,42.831921 96.441858,42.7569332 90.104579,42.7438919 Z" id="path-39"></path>
        <linearGradient x1="102.093697%" y1="-115.454799%" x2="102.093696%" y2="100%" id="linearGradient-40">
            <stop stop-color="#FFFFFF" offset="0%"></stop>
            <stop stop-color="#000000" offset="100%"></stop>
        </linearGradient>
        <linearGradient x1="50%" y1="-85.0435563%" x2="50%" y2="140.785295%" id="linearGradient-41">
            <stop stop-color="#FFFFFF" stop-opacity="0.5" offset="0%"></stop>
            <stop stop-color="#000000" stop-opacity="0.5" offset="100%"></stop>
        </linearGradient>
        <path d="M119.799043,4.6178184 C119.799043,4.6178184 114.281159,5.75024267 108.394722,8.39329049 C108.394722,8.39329049 103.244234,9.14751549 100.301595,5.75024267 C100.301595,5.75024267 97.3589555,0.466320595 92.2084675,0.0881213183 C92.2084675,0.0881213183 90.3042705,0.0196542079 89.1279102,0.0598650505 C87.9515498,0.0196542079 86.0461938,0.0881213183 86.0461938,0.0881213183 C80.8968649,0.466320595 77.9530666,5.75024267 77.9530666,5.75024267 C75.0104274,9.14751549 69.8599394,8.39329049 69.8599394,8.39329049 C63.9746609,5.75024267 58.4556187,4.6178184 58.4556187,4.6178184 C51.4669953,3.86359341 43.7412634,11.0341648 43.7412634,11.0341648 L62.1353665,30.6635766 C62.1353665,30.4114438 83.6865193,30.6787915 88.6214378,30.7439983 L88.6214378,30.7581265 C88.6214378,30.7581265 88.8103508,30.7548661 89.1279102,30.750519 C89.4443105,30.7548661 89.6332236,30.7581265 89.6332236,30.7581265 L89.6332236,30.7439983 C94.568142,30.6787915 116.120454,30.4114438 116.120454,30.6635766 L134.513398,11.0341648 C134.513398,11.0341648 126.788825,3.86359341 119.799043,4.6178184" id="path-42"></path>
        <polygon id="path-43" points="0 23.7696022 0 0.0275869148 46.4536946 0.0275869148 46.4536946 23.7696022"></polygon>
        <polygon id="path-45" points="0 0.722555883 0 17.2211569 46.4533275 17.2211569 46.4533275 0.722555883 0 0.722555883"></polygon>
        <polygon id="path-47" points="0 0.722555883 0 17.2211569 46.4533275 17.2211569 46.4533275 0.722555883 0 0.722555883"></polygon>
        <polygon id="path-49" points="0 0.722555883 0 17.2211569 46.4533275 17.2211569 46.4533275 0.722555883"></polygon>
        <polygon id="path-51" points="46.4533275 17.2209756 0 17.2209756 0 0.722555883 46.4533275 0.722555883"></polygon>
        <polygon id="path-53" points="0 0.722555883 0 17.2211569 46.4533275 17.2211569 46.4533275 0.722555883"></polygon>
        <polygon id="path-55" points="0 0.722555883 0 17.2211569 46.4533275 17.2211569 46.4533275 0.722555883 0 0.722555883"></polygon>
        <polygon id="path-57" points="0 0.722555883 0 17.2211569 46.4533275 17.2211569 46.4533275 0.722555883 0 0.722555883"></polygon>
        <polygon id="path-59" points="0 0.722555883 0 17.2211569 46.4533275 17.2211569 46.4533275 0.722555883 0 0.722555883"></polygon>
        <polygon id="path-61" points="0 23.7696022 0 0.0275869148 46.4536946 0.0275869148 46.4536946 23.7696022"></polygon>
        <polygon id="path-63" points="0 0.722555883 0 17.2211569 46.4533275 17.2211569 46.4533275 0.722555883 0 0.722555883"></polygon>
        <polygon id="path-65" points="0 0.722555883 0 17.2211569 46.4533275 17.2211569 46.4533275 0.722555883 0 0.722555883"></polygon>
        <polygon id="path-67" points="0 0.722555883 0 17.2211569 46.4533275 17.2211569 46.4533275 0.722555883"></polygon>
        <polygon id="path-69" points="46.4533275 17.2209756 0 17.2209756 0 0.722555883 46.4533275 0.722555883"></polygon>
        <polygon id="path-71" points="0 0.722555883 0 17.2211569 46.4533275 17.2211569 46.4533275 0.722555883"></polygon>
        <polygon id="path-73" points="0 0.722555883 0 17.2211569 46.4533275 17.2211569 46.4533275 0.722555883 0 0.722555883"></polygon>
        <polygon id="path-75" points="0 0.722555883 0 17.2211569 46.4533275 17.2211569 46.4533275 0.722555883 0 0.722555883"></polygon>
        <polygon id="path-77" points="0 0.722555883 0 17.2211569 46.4533275 17.2211569 46.4533275 0.722555883 0 0.722555883"></polygon>
        <polygon id="path-79" points="0 23.7696022 0 0.0275869148 46.4536946 0.0275869148 46.4536946 23.7696022"></polygon>
        <polygon id="path-81" points="0 0.722555883 0 17.2211569 46.4533275 17.2211569 46.4533275 0.722555883 0 0.722555883"></polygon>
        <polygon id="path-83" points="0 0.722555883 0 17.2211569 46.4533275 17.2211569 46.4533275 0.722555883 0 0.722555883"></polygon>
        <polygon id="path-85" points="0 0.722555883 0 17.2211569 46.4533275 17.2211569 46.4533275 0.722555883"></polygon>
        <polygon id="path-87" points="46.4533275 17.2209756 0 17.2209756 0 0.722555883 46.4533275 0.722555883"></polygon>
        <polygon id="path-89" points="0 0.722555883 0 17.2211569 46.4533275 17.2211569 46.4533275 0.722555883"></polygon>
        <polygon id="path-91" points="0 0.722555883 0 17.2211569 46.4533275 17.2211569 46.4533275 0.722555883 0 0.722555883"></polygon>
        <polygon id="path-93" points="0 0.722555883 0 17.2211569 46.4533275 17.2211569 46.4533275 0.722555883 0 0.722555883"></polygon>
        <polygon id="path-95" points="0 0.722555883 0 17.2211569 46.4533275 17.2211569 46.4533275 0.722555883 0 0.722555883"></polygon>
    </defs>
    <g id="Page-1" stroke="none" stroke-width="1" fill="none" fill-rule="evenodd">
        <g id="D_Reward" transform="translate(-834.000000, -294.000000)">
            <g id="Group-5" transform="translate(834.000000, 288.000000)">
                <g id="Group-2" transform="translate(113.892351, 0.272339)">
                    <g id="Page-1" transform="translate(65.887496, 25.817011) rotate(46.000000) translate(-65.887496, -25.817011) translate(41.387496, 14.817011)">
                        <g id="Group-3" transform="translate(0.085589, 0.739941)">
                            <mask id="mask-2" fill="white">
                                <use xlink:href="#path-1"></use>
                            </mask>
                            <g id="Clip-2"></g>
                            <path d="M47.3875214,8.35607193 C47.3875214,12.9474063 36.7787101,16.6682676 23.6941351,16.6682676 C10.6076881,16.6682676 -0.000187203305,12.9474063 -0.000187203305,8.35607193 C-0.000187203305,3.76552102 10.6076881,0.0438762333 23.6941351,0.0438762333 C36.7787101,0.0438762333 47.3875214,3.76552102 47.3875214,8.35607193" id="Fill-1" fill="#EFD44F" mask="url(#mask-2)"></path>
                        </g>
                        <path d="M42.6412996,9.2827223 C42.6412996,12.7332746 34.1965586,15.531168 23.7796307,15.531168 C13.3627028,15.531168 4.91702567,12.7332746 4.91702567,9.2827223 C4.91702567,5.83138645 13.3627028,3.03349308 23.7796307,3.03349308 C34.1965586,3.03349308 42.6412996,5.83138645 42.6412996,9.2827223" id="Fill-4" fill="#E4C22F"></path>
                        <g id="Group-8" transform="translate(-0.000000, 0.739941)">
                            <mask id="mask-4" fill="white">
                                <use xlink:href="#path-3"></use>
                            </mask>
                            <g id="Clip-7"></g>
                        </g>
                        <g id="Group-11" transform="translate(-0.000000, 0.739941)">
                            <mask id="mask-6" fill="white">
                                <use xlink:href="#path-5"></use>
                            </mask>
                            <g id="Clip-10"></g>
                            <path d="M47.4118951,8.81826103 C46.5788403,13.1439875 36.3200992,16.5631997 23.7793499,16.5631997 C11.2386005,16.5631997 0.980795377,13.1439875 0.146804654,8.81826103 L0.146804654,11.4907937 C0.111236026,11.6780512 0.0850275637,11.8676592 0.0850275637,12.0588343 C0.0850275637,16.6493852 10.6929028,20.37103 23.7793499,20.37103 C36.8648609,20.37103 47.4727361,16.6493852 47.4727361,12.0588343 C47.4727361,11.8676592 47.4474637,11.6780512 47.4118951,11.4907937 L47.4118951,8.81826103 Z" id="Fill-9" fill="#E4C22F" mask="url(#mask-6)"></path>
                        </g>
                        <path d="M47.4118951,9.55820237 C46.5788403,13.8839289 36.3200992,17.303141 23.7793499,17.303141 C11.2386005,17.303141 0.980795377,13.8839289 0.146804654,9.55820237 L0.146804654,12.2307351 C0.111236026,12.4179926 0.0850275637,12.6076006 0.0850275637,12.7987756 C0.0850275637,17.3893265 10.6929028,21.1109713 23.7793499,21.1109713 C36.8648609,21.1109713 47.4727361,17.3893265 47.4727361,12.7987756 C47.4727361,12.6076006 47.4474637,12.4179926 47.4118951,12.2307351 L47.4118951,9.55820237 Z" id="Fill-6" fill="#E4C22F"></path>
                        <path d="M40.5855265,9.2827223 C40.5855265,12.1119558 33.0608897,14.4052725 23.7793499,14.4052725 C14.49781,14.4052725 6.97317316,12.1119558 6.97317316,9.2827223 C6.97317316,6.45348876 14.49781,4.15938856 23.7793499,4.15938856 C33.0608897,4.15938856 40.5855265,6.45348876 40.5855265,9.2827223" id="Fill-12" fill="#EFD44F"></path>
                        <path d="M29.0489357,9.08762977 L21.5495713,9.08762977 L21.5495713,9.42923758 L25.8430791,9.42923758 C27.3837623,9.42923758 28.4517571,9.31484597 29.0489357,9.08762977 L29.0489357,9.08762977 Z M29.7631163,8.36758944 C29.7631163,8.30177509 29.7546921,8.2477133 29.7397159,8.20540408 L21.5495713,8.20540408 L21.5495713,8.56268198 L29.7284837,8.56268198 C29.7509481,8.50470267 29.7631163,8.43967182 29.7631163,8.36758944 L29.7631163,8.36758944 Z M29.1060327,7.68045629 C28.7737468,7.53942554 28.3544114,7.44540504 27.8480265,7.39839479 C27.4857881,7.3639206 26.802496,7.34668351 25.7972143,7.34668351 L21.5495713,7.34668351 L21.5495713,7.68045629 L29.1060327,7.68045629 Z M32.8098501,9.08762977 L31.6314053,9.08762977 C31.4123774,9.27018624 31.0960038,9.44099015 30.6794765,9.60004149 C29.7809006,9.94478332 28.157848,10.1163707 25.8093825,10.1163707 L21.5495713,10.1163707 L21.5495713,12.4849038 L19.3527405,12.4849038 L19.3527405,9.08762977 L17.7558963,9.08762977 L17.7558963,8.56268198 L19.3527405,8.56268198 L19.3527405,8.20540408 L17.7558963,8.20540408 L17.7558963,7.68045629 L19.3527405,7.68045629 L19.3527405,6.65876685 L25.6165631,6.65876685 C26.689238,6.65876685 27.5307169,6.67757095 28.1428717,6.71517915 C29.9100709,6.82330273 31.0922598,7.14532294 31.6875663,7.68045629 L32.8098501,7.68045629 L32.8098501,8.20540408 L32.0170441,8.20540408 C32.0245322,8.24536279 32.0282763,8.29080603 32.0282763,8.34408431 C32.0282763,8.41068217 32.0170441,8.48354806 31.9936437,8.56268198 L32.8098501,8.56268198 L32.8098501,9.08762977 Z" id="Fill-14" fill="#D7B129"></path>
                    </g>
                    <g id="Page-1-Copy-8" transform="translate(84.817068, 152.100813) rotate(-19.000000) translate(-84.817068, -152.100813) translate(60.317068, 141.100813)">
                        <g id="Group-3" transform="translate(0.085589, 0.739941)">
                            <mask id="mask-8" fill="white">
                                <use xlink:href="#path-7"></use>
                            </mask>
                            <g id="Clip-2"></g>
                            <path d="M47.3875214,8.35607193 C47.3875214,12.9474063 36.7787101,16.6682676 23.6941351,16.6682676 C10.6076881,16.6682676 -0.000187203305,12.9474063 -0.000187203305,8.35607193 C-0.000187203305,3.76552102 10.6076881,0.0438762333 23.6941351,0.0438762333 C36.7787101,0.0438762333 47.3875214,3.76552102 47.3875214,8.35607193" id="Fill-1" fill="#EFD44F" mask="url(#mask-8)"></path>
                        </g>
                        <path d="M42.6412996,9.2827223 C42.6412996,12.7332746 34.1965586,15.531168 23.7796307,15.531168 C13.3627028,15.531168 4.91702567,12.7332746 4.91702567,9.2827223 C4.91702567,5.83138645 13.3627028,3.03349308 23.7796307,3.03349308 C34.1965586,3.03349308 42.6412996,5.83138645 42.6412996,9.2827223" id="Fill-4" fill="#E4C22F"></path>
                        <g id="Group-8" transform="translate(0.000000, 0.739941)">
                            <mask id="mask-10" fill="white">
                                <use xlink:href="#path-9"></use>
                            </mask>
                            <g id="Clip-7"></g>
                        </g>
                        <g id="Group-11" transform="translate(0.000000, 0.739941)">
                            <mask id="mask-12" fill="white">
                                <use xlink:href="#path-11"></use>
                            </mask>
                            <g id="Clip-10"></g>
                            <path d="M47.4118951,8.81826103 C46.5788403,13.1439875 36.3200992,16.5631997 23.7793499,16.5631997 C11.2386005,16.5631997 0.980795377,13.1439875 0.146804654,8.81826103 L0.146804654,11.4907937 C0.111236026,11.6780512 0.0850275637,11.8676592 0.0850275637,12.0588343 C0.0850275637,16.6493852 10.6929028,20.37103 23.7793499,20.37103 C36.8648609,20.37103 47.4727361,16.6493852 47.4727361,12.0588343 C47.4727361,11.8676592 47.4474637,11.6780512 47.4118951,11.4907937 L47.4118951,8.81826103 Z" id="Fill-9" fill="#E4C22F" mask="url(#mask-12)"></path>
                        </g>
                        <path d="M47.4118951,9.55820237 C46.5788403,13.8839289 36.3200992,17.303141 23.7793499,17.303141 C11.2386005,17.303141 0.980795377,13.8839289 0.146804654,9.55820237 L0.146804654,12.2307351 C0.111236026,12.4179926 0.0850275637,12.6076006 0.0850275637,12.7987756 C0.0850275637,17.3893265 10.6929028,21.1109713 23.7793499,21.1109713 C36.8648609,21.1109713 47.4727361,17.3893265 47.4727361,12.7987756 C47.4727361,12.6076006 47.4474637,12.4179926 47.4118951,12.2307351 L47.4118951,9.55820237 Z" id="Fill-6" fill="#E4C22F"></path>
                        <path d="M40.5855265,9.2827223 C40.5855265,12.1119558 33.0608897,14.4052725 23.7793499,14.4052725 C14.49781,14.4052725 6.97317316,12.1119558 6.97317316,9.2827223 C6.97317316,6.45348876 14.49781,4.15938856 23.7793499,4.15938856 C33.0608897,4.15938856 40.5855265,6.45348876 40.5855265,9.2827223" id="Fill-12" fill="#EFD44F"></path>
                        <path d="M29.0489357,9.08762977 L21.5495713,9.08762977 L21.5495713,9.42923758 L25.8430791,9.42923758 C27.3837623,9.42923758 28.4517571,9.31484597 29.0489357,9.08762977 L29.0489357,9.08762977 Z M29.7631163,8.36758944 C29.7631163,8.30177509 29.7546921,8.2477133 29.7397159,8.20540408 L21.5495713,8.20540408 L21.5495713,8.56268198 L29.7284837,8.56268198 C29.7509481,8.50470267 29.7631163,8.43967182 29.7631163,8.36758944 L29.7631163,8.36758944 Z M29.1060327,7.68045629 C28.7737468,7.53942554 28.3544114,7.44540504 27.8480265,7.39839479 C27.4857881,7.3639206 26.802496,7.34668351 25.7972143,7.34668351 L21.5495713,7.34668351 L21.5495713,7.68045629 L29.1060327,7.68045629 Z M32.8098501,9.08762977 L31.6314053,9.08762977 C31.4123774,9.27018624 31.0960038,9.44099015 30.6794765,9.60004149 C29.7809006,9.94478332 28.157848,10.1163707 25.8093825,10.1163707 L21.5495713,10.1163707 L21.5495713,12.4849038 L19.3527405,12.4849038 L19.3527405,9.08762977 L17.7558963,9.08762977 L17.7558963,8.56268198 L19.3527405,8.56268198 L19.3527405,8.20540408 L17.7558963,8.20540408 L17.7558963,7.68045629 L19.3527405,7.68045629 L19.3527405,6.65876685 L25.6165631,6.65876685 C26.689238,6.65876685 27.5307169,6.67757095 28.1428717,6.71517915 C29.9100709,6.82330273 31.0922598,7.14532294 31.6875663,7.68045629 L32.8098501,7.68045629 L32.8098501,8.20540408 L32.0170441,8.20540408 C32.0245322,8.24536279 32.0282763,8.29080603 32.0282763,8.34408431 C32.0282763,8.41068217 32.0170441,8.48354806 31.9936437,8.56268198 L32.8098501,8.56268198 L32.8098501,9.08762977 Z" id="Fill-14" fill="#D7B129"></path>
                    </g>
                    <g id="Page-1-Copy-5" transform="translate(119.430051, 96.100709) rotate(-27.000000) translate(-119.430051, -96.100709) translate(94.930051, 85.100709)">
                        <g id="Group-3" transform="translate(0.085589, 0.739941)">
                            <mask id="mask-14" fill="white">
                                <use xlink:href="#path-13"></use>
                            </mask>
                            <g id="Clip-2"></g>
                            <path d="M47.3875214,8.35607193 C47.3875214,12.9474063 36.7787101,16.6682676 23.6941351,16.6682676 C10.6076881,16.6682676 -0.000187203305,12.9474063 -0.000187203305,8.35607193 C-0.000187203305,3.76552102 10.6076881,0.0438762333 23.6941351,0.0438762333 C36.7787101,0.0438762333 47.3875214,3.76552102 47.3875214,8.35607193" id="Fill-1" fill="#EFD44F" mask="url(#mask-14)"></path>
                        </g>
                        <path d="M42.6412996,9.2827223 C42.6412996,12.7332746 34.1965586,15.531168 23.7796307,15.531168 C13.3627028,15.531168 4.91702567,12.7332746 4.91702567,9.2827223 C4.91702567,5.83138645 13.3627028,3.03349308 23.7796307,3.03349308 C34.1965586,3.03349308 42.6412996,5.83138645 42.6412996,9.2827223" id="Fill-4" fill="#E4C22F"></path>
                        <g id="Group-8" transform="translate(0.000000, 0.739941)">
                            <mask id="mask-16" fill="white">
                                <use xlink:href="#path-15"></use>
                            </mask>
                            <g id="Clip-7"></g>
                        </g>
                        <g id="Group-11" transform="translate(0.000000, 0.739941)">
                            <mask id="mask-18" fill="white">
                                <use xlink:href="#path-17"></use>
                            </mask>
                            <g id="Clip-10"></g>
                            <path d="M47.4118951,8.81826103 C46.5788403,13.1439875 36.3200992,16.5631997 23.7793499,16.5631997 C11.2386005,16.5631997 0.980795377,13.1439875 0.146804654,8.81826103 L0.146804654,11.4907937 C0.111236026,11.6780512 0.0850275637,11.8676592 0.0850275637,12.0588343 C0.0850275637,16.6493852 10.6929028,20.37103 23.7793499,20.37103 C36.8648609,20.37103 47.4727361,16.6493852 47.4727361,12.0588343 C47.4727361,11.8676592 47.4474637,11.6780512 47.4118951,11.4907937 L47.4118951,8.81826103 Z" id="Fill-9" fill="#E4C22F" mask="url(#mask-18)"></path>
                        </g>
                        <path d="M47.4118951,9.55820237 C46.5788403,13.8839289 36.3200992,17.303141 23.7793499,17.303141 C11.2386005,17.303141 0.980795377,13.8839289 0.146804654,9.55820237 L0.146804654,12.2307351 C0.111236026,12.4179926 0.0850275637,12.6076006 0.0850275637,12.7987756 C0.0850275637,17.3893265 10.6929028,21.1109713 23.7793499,21.1109713 C36.8648609,21.1109713 47.4727361,17.3893265 47.4727361,12.7987756 C47.4727361,12.6076006 47.4474637,12.4179926 47.4118951,12.2307351 L47.4118951,9.55820237 Z" id="Fill-6" fill="#E4C22F"></path>
                        <path d="M40.5855265,9.2827223 C40.5855265,12.1119558 33.0608897,14.4052725 23.7793499,14.4052725 C14.49781,14.4052725 6.97317316,12.1119558 6.97317316,9.2827223 C6.97317316,6.45348876 14.49781,4.15938856 23.7793499,4.15938856 C33.0608897,4.15938856 40.5855265,6.45348876 40.5855265,9.2827223" id="Fill-12" fill="#EFD44F"></path>
                        <path d="M29.0489357,9.08762977 L21.5495713,9.08762977 L21.5495713,9.42923758 L25.8430791,9.42923758 C27.3837623,9.42923758 28.4517571,9.31484597 29.0489357,9.08762977 L29.0489357,9.08762977 Z M29.7631163,8.36758944 C29.7631163,8.30177509 29.7546921,8.2477133 29.7397159,8.20540408 L21.5495713,8.20540408 L21.5495713,8.56268198 L29.7284837,8.56268198 C29.7509481,8.50470267 29.7631163,8.43967182 29.7631163,8.36758944 L29.7631163,8.36758944 Z M29.1060327,7.68045629 C28.7737468,7.53942554 28.3544114,7.44540504 27.8480265,7.39839479 C27.4857881,7.3639206 26.802496,7.34668351 25.7972143,7.34668351 L21.5495713,7.34668351 L21.5495713,7.68045629 L29.1060327,7.68045629 Z M32.8098501,9.08762977 L31.6314053,9.08762977 C31.4123774,9.27018624 31.0960038,9.44099015 30.6794765,9.60004149 C29.7809006,9.94478332 28.157848,10.1163707 25.8093825,10.1163707 L21.5495713,10.1163707 L21.5495713,12.4849038 L19.3527405,12.4849038 L19.3527405,9.08762977 L17.7558963,9.08762977 L17.7558963,8.56268198 L19.3527405,8.56268198 L19.3527405,8.20540408 L17.7558963,8.20540408 L17.7558963,7.68045629 L19.3527405,7.68045629 L19.3527405,6.65876685 L25.6165631,6.65876685 C26.689238,6.65876685 27.5307169,6.67757095 28.1428717,6.71517915 C29.9100709,6.82330273 31.0922598,7.14532294 31.6875663,7.68045629 L32.8098501,7.68045629 L32.8098501,8.20540408 L32.0170441,8.20540408 C32.0245322,8.24536279 32.0282763,8.29080603 32.0282763,8.34408431 C32.0282763,8.41068217 32.0170441,8.48354806 31.9936437,8.56268198 L32.8098501,8.56268198 L32.8098501,9.08762977 Z" id="Fill-14" fill="#D7B129"></path>
                    </g>
                    <g id="Page-1-Copy-6" transform="translate(26.914040, 81.771602) rotate(19.000000) translate(-26.914040, -81.771602) translate(2.414040, 70.771602)">
                        <g id="Group-3" transform="translate(0.085589, 0.739941)">
                            <mask id="mask-20" fill="white">
                                <use xlink:href="#path-19"></use>
                            </mask>
                            <g id="Clip-2"></g>
                            <path d="M47.3875214,8.35607193 C47.3875214,12.9474063 36.7787101,16.6682676 23.6941351,16.6682676 C10.6076881,16.6682676 -0.000187203305,12.9474063 -0.000187203305,8.35607193 C-0.000187203305,3.76552102 10.6076881,0.0438762333 23.6941351,0.0438762333 C36.7787101,0.0438762333 47.3875214,3.76552102 47.3875214,8.35607193" id="Fill-1" fill="#EFD44F" mask="url(#mask-20)"></path>
                        </g>
                        <path d="M42.6412996,9.2827223 C42.6412996,12.7332746 34.1965586,15.531168 23.7796307,15.531168 C13.3627028,15.531168 4.91702567,12.7332746 4.91702567,9.2827223 C4.91702567,5.83138645 13.3627028,3.03349308 23.7796307,3.03349308 C34.1965586,3.03349308 42.6412996,5.83138645 42.6412996,9.2827223" id="Fill-4" fill="#E4C22F"></path>
                        <g id="Group-8" transform="translate(0.000000, 0.739941)">
                            <mask id="mask-22" fill="white">
                                <use xlink:href="#path-21"></use>
                            </mask>
                            <g id="Clip-7"></g>
                        </g>
                        <g id="Group-11" transform="translate(0.000000, 0.739941)">
                            <mask id="mask-24" fill="white">
                                <use xlink:href="#path-23"></use>
                            </mask>
                            <g id="Clip-10"></g>
                            <path d="M47.4118951,8.81826103 C46.5788403,13.1439875 36.3200992,16.5631997 23.7793499,16.5631997 C11.2386005,16.5631997 0.980795377,13.1439875 0.146804654,8.81826103 L0.146804654,11.4907937 C0.111236026,11.6780512 0.0850275637,11.8676592 0.0850275637,12.0588343 C0.0850275637,16.6493852 10.6929028,20.37103 23.7793499,20.37103 C36.8648609,20.37103 47.4727361,16.6493852 47.4727361,12.0588343 C47.4727361,11.8676592 47.4474637,11.6780512 47.4118951,11.4907937 L47.4118951,8.81826103 Z" id="Fill-9" fill="#E4C22F" mask="url(#mask-24)"></path>
                        </g>
                        <path d="M47.4118951,9.55820237 C46.5788403,13.8839289 36.3200992,17.303141 23.7793499,17.303141 C11.2386005,17.303141 0.980795377,13.8839289 0.146804654,9.55820237 L0.146804654,12.2307351 C0.111236026,12.4179926 0.0850275637,12.6076006 0.0850275637,12.7987756 C0.0850275637,17.3893265 10.6929028,21.1109713 23.7793499,21.1109713 C36.8648609,21.1109713 47.4727361,17.3893265 47.4727361,12.7987756 C47.4727361,12.6076006 47.4474637,12.4179926 47.4118951,12.2307351 L47.4118951,9.55820237 Z" id="Fill-6" fill="#E4C22F"></path>
                        <path d="M40.5855265,9.2827223 C40.5855265,12.1119558 33.0608897,14.4052725 23.7793499,14.4052725 C14.49781,14.4052725 6.97317316,12.1119558 6.97317316,9.2827223 C6.97317316,6.45348876 14.49781,4.15938856 23.7793499,4.15938856 C33.0608897,4.15938856 40.5855265,6.45348876 40.5855265,9.2827223" id="Fill-12" fill="#EFD44F"></path>
                        <path d="M29.0489357,9.08762977 L21.5495713,9.08762977 L21.5495713,9.42923758 L25.8430791,9.42923758 C27.3837623,9.42923758 28.4517571,9.31484597 29.0489357,9.08762977 L29.0489357,9.08762977 Z M29.7631163,8.36758944 C29.7631163,8.30177509 29.7546921,8.2477133 29.7397159,8.20540408 L21.5495713,8.20540408 L21.5495713,8.56268198 L29.7284837,8.56268198 C29.7509481,8.50470267 29.7631163,8.43967182 29.7631163,8.36758944 L29.7631163,8.36758944 Z M29.1060327,7.68045629 C28.7737468,7.53942554 28.3544114,7.44540504 27.8480265,7.39839479 C27.4857881,7.3639206 26.802496,7.34668351 25.7972143,7.34668351 L21.5495713,7.34668351 L21.5495713,7.68045629 L29.1060327,7.68045629 Z M32.8098501,9.08762977 L31.6314053,9.08762977 C31.4123774,9.27018624 31.0960038,9.44099015 30.6794765,9.60004149 C29.7809006,9.94478332 28.157848,10.1163707 25.8093825,10.1163707 L21.5495713,10.1163707 L21.5495713,12.4849038 L19.3527405,12.4849038 L19.3527405,9.08762977 L17.7558963,9.08762977 L17.7558963,8.56268198 L19.3527405,8.56268198 L19.3527405,8.20540408 L17.7558963,8.20540408 L17.7558963,7.68045629 L19.3527405,7.68045629 L19.3527405,6.65876685 L25.6165631,6.65876685 C26.689238,6.65876685 27.5307169,6.67757095 28.1428717,6.71517915 C29.9100709,6.82330273 31.0922598,7.14532294 31.6875663,7.68045629 L32.8098501,7.68045629 L32.8098501,8.20540408 L32.0170441,8.20540408 C32.0245322,8.24536279 32.0282763,8.29080603 32.0282763,8.34408431 C32.0282763,8.41068217 32.0170441,8.48354806 31.9936437,8.56268198 L32.8098501,8.56268198 L32.8098501,9.08762977 Z" id="Fill-14" fill="#D7B129"></path>
                    </g>
                    <g id="Page-1-Copy-7" transform="translate(56.481254, 134.412527) rotate(24.000000) translate(-56.481254, -134.412527) translate(31.981254, 123.412527)">
                        <g id="Group-3" transform="translate(0.085589, 0.739941)">
                            <mask id="mask-26" fill="white">
                                <use xlink:href="#path-25"></use>
                            </mask>
                            <g id="Clip-2"></g>
                            <path d="M47.3875214,8.35607193 C47.3875214,12.9474063 36.7787101,16.6682676 23.6941351,16.6682676 C10.6076881,16.6682676 -0.000187203305,12.9474063 -0.000187203305,8.35607193 C-0.000187203305,3.76552102 10.6076881,0.0438762333 23.6941351,0.0438762333 C36.7787101,0.0438762333 47.3875214,3.76552102 47.3875214,8.35607193" id="Fill-1" fill="#EFD44F" mask="url(#mask-26)"></path>
                        </g>
                        <path d="M42.6412996,9.2827223 C42.6412996,12.7332746 34.1965586,15.531168 23.7796307,15.531168 C13.3627028,15.531168 4.91702567,12.7332746 4.91702567,9.2827223 C4.91702567,5.83138645 13.3627028,3.03349308 23.7796307,3.03349308 C34.1965586,3.03349308 42.6412996,5.83138645 42.6412996,9.2827223" id="Fill-4" fill="#E4C22F"></path>
                        <g id="Group-8" transform="translate(0.000000, 0.739941)">
                            <mask id="mask-28" fill="white">
                                <use xlink:href="#path-27"></use>
                            </mask>
                            <g id="Clip-7"></g>
                        </g>
                        <g id="Group-11" transform="translate(0.000000, 0.739941)">
                            <mask id="mask-30" fill="white">
                                <use xlink:href="#path-29"></use>
                            </mask>
                            <g id="Clip-10"></g>
                            <path d="M47.4118951,8.81826103 C46.5788403,13.1439875 36.3200992,16.5631997 23.7793499,16.5631997 C11.2386005,16.5631997 0.980795377,13.1439875 0.146804654,8.81826103 L0.146804654,11.4907937 C0.111236026,11.6780512 0.0850275637,11.8676592 0.0850275637,12.0588343 C0.0850275637,16.6493852 10.6929028,20.37103 23.7793499,20.37103 C36.8648609,20.37103 47.4727361,16.6493852 47.4727361,12.0588343 C47.4727361,11.8676592 47.4474637,11.6780512 47.4118951,11.4907937 L47.4118951,8.81826103 Z" id="Fill-9" fill="#E4C22F" mask="url(#mask-30)"></path>
                        </g>
                        <path d="M47.4118951,9.55820237 C46.5788403,13.8839289 36.3200992,17.303141 23.7793499,17.303141 C11.2386005,17.303141 0.980795377,13.8839289 0.146804654,9.55820237 L0.146804654,12.2307351 C0.111236026,12.4179926 0.0850275637,12.6076006 0.0850275637,12.7987756 C0.0850275637,17.3893265 10.6929028,21.1109713 23.7793499,21.1109713 C36.8648609,21.1109713 47.4727361,17.3893265 47.4727361,12.7987756 C47.4727361,12.6076006 47.4474637,12.4179926 47.4118951,12.2307351 L47.4118951,9.55820237 Z" id="Fill-6" fill="#E4C22F"></path>
                        <path d="M40.5855265,9.2827223 C40.5855265,12.1119558 33.0608897,14.4052725 23.7793499,14.4052725 C14.49781,14.4052725 6.97317316,12.1119558 6.97317316,9.2827223 C6.97317316,6.45348876 14.49781,4.15938856 23.7793499,4.15938856 C33.0608897,4.15938856 40.5855265,6.45348876 40.5855265,9.2827223" id="Fill-12" fill="#EFD44F"></path>
                        <path d="M29.0489357,9.08762977 L21.5495713,9.08762977 L21.5495713,9.42923758 L25.8430791,9.42923758 C27.3837623,9.42923758 28.4517571,9.31484597 29.0489357,9.08762977 L29.0489357,9.08762977 Z M29.7631163,8.36758944 C29.7631163,8.30177509 29.7546921,8.2477133 29.7397159,8.20540408 L21.5495713,8.20540408 L21.5495713,8.56268198 L29.7284837,8.56268198 C29.7509481,8.50470267 29.7631163,8.43967182 29.7631163,8.36758944 L29.7631163,8.36758944 Z M29.1060327,7.68045629 C28.7737468,7.53942554 28.3544114,7.44540504 27.8480265,7.39839479 C27.4857881,7.3639206 26.802496,7.34668351 25.7972143,7.34668351 L21.5495713,7.34668351 L21.5495713,7.68045629 L29.1060327,7.68045629 Z M32.8098501,9.08762977 L31.6314053,9.08762977 C31.4123774,9.27018624 31.0960038,9.44099015 30.6794765,9.60004149 C29.7809006,9.94478332 28.157848,10.1163707 25.8093825,10.1163707 L21.5495713,10.1163707 L21.5495713,12.4849038 L19.3527405,12.4849038 L19.3527405,9.08762977 L17.7558963,9.08762977 L17.7558963,8.56268198 L19.3527405,8.56268198 L19.3527405,8.20540408 L17.7558963,8.20540408 L17.7558963,7.68045629 L19.3527405,7.68045629 L19.3527405,6.65876685 L25.6165631,6.65876685 C26.689238,6.65876685 27.5307169,6.67757095 28.1428717,6.71517915 C29.9100709,6.82330273 31.0922598,7.14532294 31.6875663,7.68045629 L32.8098501,7.68045629 L32.8098501,8.20540408 L32.0170441,8.20540408 C32.0245322,8.24536279 32.0282763,8.29080603 32.0282763,8.34408431 C32.0282763,8.41068217 32.0170441,8.48354806 31.9936437,8.56268198 L32.8098501,8.56268198 L32.8098501,9.08762977 Z" id="Fill-14" fill="#D7B129"></path>
                    </g>
                </g>
                <g id="Page-1" transform="translate(346.187379, 363.904934) scale(-1, 1) translate(-346.187379, -363.904934) translate(294.687379, 330.904934)">
                    <polygon id="Fill-1" fill="#32323A" points="22.294395 21.4975783 22.294395 57.2288781 51.179203 65.2075456 51.1811887 65.2075456 80.0659967 57.2288781 80.0659967 21.4975783"></polygon>
                    <polygon id="Fill-2" fill="#EEC930" points="4.13145981 44.9554805 5.81925579 44.9554805 5.81925579 17.8771854 4.13145981 17.8771854"></polygon>
                    <g id="Group-7" transform="translate(0.000000, 0.278831)">
                        <path d="M8.25411661,56.8206173 L8.25411661,47.2503691 C8.25411661,45.4471929 6.78606504,43.9854699 4.97515924,43.9854699 C3.16491531,43.9854699 1.69653281,45.4471929 1.69653281,47.2503691 L1.69653281,56.8206173 L8.25411661,56.8206173 Z" id="Fill-3" fill="#EEC930"></path>
                        <polygon id="Fill-5" fill="#3F3E3B" points="51.1806922 35.1453581 9.92821165e-05 17.5977607 51.1806922 0.0508224774 102.361285 17.5977607"></polygon>
                    </g>
                </g>
                <g id="Page-1-Copy-9" transform="translate(279.520804, 375.263959)">
                    <g id="Group-3" transform="translate(0.093728, 0.032138)">
                        <mask id="mask-32" fill="white">
                            <use xlink:href="#path-31"></use>
                        </mask>
                        <g id="Clip-2"></g>
                        <path d="M47.7995868,10.0003016 C47.7995868,15.4950759 37.0985249,19.9480935 23.900171,19.9480935 C10.6999288,19.9480935 -0.00018883116,15.4950759 -0.00018883116,10.0003016 C-0.00018883116,4.50646505 10.6999288,0.0525097883 23.900171,0.0525097883 C37.0985249,0.0525097883 47.7995868,4.50646505 47.7995868,10.0003016" id="Fill-1" fill="#EFD44F" mask="url(#mask-32)"></path>
                    </g>
                    <path d="M43.0194886,10.2558877 C43.0194886,14.3854075 34.501315,17.7338441 23.9938051,17.7338441 C13.4862952,17.7338441 4.96717743,14.3854075 4.96717743,10.2558877 C4.96717743,6.12543022 13.4862952,2.77699354 23.9938051,2.77699354 C34.501315,2.77699354 43.0194886,6.12543022 43.0194886,10.2558877" id="Fill-4" fill="#E4C22F"></path>
                    <g id="Group-8" transform="translate(0.000000, 0.032138)">
                        <mask id="mask-34" fill="white">
                            <use xlink:href="#path-33"></use>
                        </mask>
                        <g id="Clip-7"></g>
                    </g>
                    <g id="Group-11" transform="translate(0.000000, 0.032138)">
                        <mask id="mask-36" fill="white">
                            <use xlink:href="#path-35"></use>
                        </mask>
                        <g id="Clip-10"></g>
                        <path d="M47.8315674,10.553436 C46.9912688,15.7303385 36.6433212,19.8223513 23.9935218,19.8223513 C11.3437224,19.8223513 0.996719053,15.7303385 0.155476237,10.553436 L0.155476237,13.7518447 C0.119598317,13.975949 0.0931619543,14.2028663 0.0931619543,14.4316589 C0.0931619543,19.9254955 10.7932796,24.3794508 23.9935218,24.3794508 C37.1928199,24.3794508 47.8929375,19.9254955 47.8929375,14.4316589 C47.8929375,14.2028663 47.8674453,13.975949 47.8315674,13.7518447 L47.8315674,10.553436 Z" id="Fill-9" fill="#E4C22F" mask="url(#mask-36)"></path>
                    </g>
                    <path d="M47.8315674,10.5855741 C46.9912688,15.7624767 36.6433212,19.8544894 23.9935218,19.8544894 C11.3437224,19.8544894 0.996719053,15.7624767 0.155476237,10.5855741 L0.155476237,13.7839828 C0.119598317,14.0080871 0.0931619543,14.2350044 0.0931619543,14.4637971 C0.0931619543,19.9576337 10.7932796,24.4115889 23.9935218,24.4115889 C37.1928199,24.4115889 47.8929375,19.9576337 47.8929375,14.4637971 C47.8929375,14.2350044 47.8674453,14.0080871 47.8315674,13.7839828 L47.8315674,10.5855741 Z" id="Fill-6" fill="#E4C22F"></path>
                    <path d="M40.9458392,10.2558877 C40.9458392,13.6418313 33.3557707,16.3864055 23.9935218,16.3864055 C14.6312729,16.3864055 7.04120447,13.6418313 7.04120447,10.2558877 C7.04120447,6.86994401 14.6312729,4.12443222 23.9935218,4.12443222 C33.3557707,4.12443222 40.9458392,6.86994401 40.9458392,10.2558877" id="Fill-12" fill="#EFD44F"></path>
                    <path d="M29.3089301,10.0224067 L21.7443539,10.0224067 L21.7443539,10.4312329 L26.0751965,10.4312329 C27.629277,10.4312329 28.7065587,10.2943323 29.3089301,10.0224067 L29.3089301,10.0224067 Z M30.029321,9.16068352 C30.029321,9.08191884 30.0208236,9.01721928 30.0057171,8.96658484 L21.7443539,8.96658484 L21.7443539,9.39416455 L29.9943873,9.39416455 C30.017047,9.32477661 30.029321,9.2469496 30.029321,9.16068352 L30.029321,9.16068352 Z M29.3665236,8.33834273 C29.0313483,8.16956127 28.6083665,8.05704029 28.0975783,8.00077981 C27.73219,7.95952212 27.0429562,7.93889327 26.0289329,7.93889327 L21.7443539,7.93889327 L21.7443539,8.33834273 L29.3665236,8.33834273 Z M33.1025481,10.0224067 L31.913856,10.0224067 C31.6929235,10.2408849 31.3737989,10.445298 30.9536495,10.635646 C30.04726,11.0482229 28.4100938,11.2535737 26.0412069,11.2535737 L21.7443539,11.2535737 L21.7443539,14.0881646 L19.5284202,14.0881646 L19.5284202,10.0224067 L17.9176904,10.0224067 L17.9176904,9.39416455 L19.5284202,9.39416455 L19.5284202,8.96658484 L17.9176904,8.96658484 L17.9176904,8.33834273 L19.5284202,8.33834273 L19.5284202,7.1156148 L25.8467108,7.1156148 C26.9287134,7.1156148 27.7775094,7.138119 28.3949873,7.18312739 C30.1775535,7.31252651 31.3700222,7.69791085 31.9705053,8.33834273 L33.1025481,8.33834273 L33.1025481,8.96658484 L32.3028482,8.96658484 C32.3104014,9.01440626 32.314178,9.06879139 32.314178,9.13255328 C32.314178,9.21225564 32.3028482,9.29945939 32.2792443,9.39416455 L33.1025481,9.39416455 L33.1025481,10.0224067 Z" id="Fill-14" fill="#D7B129"></path>
                </g>
                <g id="Group-4" opacity="0.137794384" transform="translate(263.300054, 239.841940) rotate(-4.000000) translate(-263.300054, -239.841940) translate(148.300054, 163.841940)">
                    <polyline id="Path-7" stroke="#979797" stroke-width="10" stroke-linecap="round" stroke-linejoin="round" points="0.558414373 151.858497 83.3576428 91.8503379 126.052847 88.2231719 196.76087 34.4154799"></polyline>
                    <polygon id="Triangle" fill="#979797" transform="translate(200.417182, 30.834719) rotate(-308.000000) translate(-200.417182, -30.834719) " points="200.417182 12.3948746 224.46511 49.2745638 176.369254 49.2745638"></polygon>
                </g>
                <g id="Page-1" transform="translate(101.192202, 177.691075)">
                    <g id="Fill-1">
                        <use fill="#FBCFCC" xlink:href="#path-39"></use>
                        <use fill-opacity="0.560000002" fill="url(#linearGradient-37)" style="mix-blend-mode: overlay;" xlink:href="#path-39"></use>
                        <use fill="#424559" style="mix-blend-mode: overlay;" xlink:href="#path-39"></use>
                        <use fill="url(#linearGradient-38)" style="mix-blend-mode: overlay;" xlink:href="#path-39"></use>
                    </g>
                    <g id="Fill-4">
                        <use fill="#FBCFCC" xlink:href="#path-42"></use>
                        <use fill="url(#linearGradient-40)" style="mix-blend-mode: overlay;" xlink:href="#path-42"></use>
                        <use fill-opacity="0.840000033" fill="url(#linearGradient-41)" style="mix-blend-mode: overlay;" xlink:href="#path-42"></use>
                    </g>
                    <g id="Group-9" transform="translate(65.635506, 95.289087)">
                        <path d="M36.2458006,26.2820491 L12.5826357,26.2820491 L12.5826357,29.3875349 L26.1297279,29.3875349 C30.9920221,29.3875349 34.3634051,28.352373 36.2458006,26.2820491 L36.2458006,26.2820491 Z M38.4975575,19.7435192 C38.4975575,19.1418617 38.4744724,18.6480944 38.4273403,18.2631891 L12.5826357,18.2631891 L12.5826357,21.5135003 L38.390789,21.5135003 C38.461968,20.9847416 38.4975575,20.3937759 38.4975575,19.7435192 L38.4975575,19.7435192 Z M36.42471,13.4956123 C35.3762628,12.2184266 34.0536803,11.3640535 32.4579244,10.9305491 C31.3142513,10.6185425 29.1567585,10.4620532 25.9873699,10.4620532 L12.5826357,10.4620532 L12.5826357,13.4956123 L36.42471,13.4956123 Z M48.1134535,26.2820491 L44.3957944,26.2820491 C43.7051659,27.9431681 42.7038507,29.497369 41.3937726,30.9407638 C38.5581558,34.0715212 33.4342307,35.6364138 26.0239213,35.6364138 L12.5826357,35.6364138 L12.5826357,57.1638941 L5.64845597,57.1638941 L5.64845597,26.2820491 L0.609176224,26.2820491 L0.609176224,21.5135003 L5.64845597,21.5135003 L5.64845597,18.2631891 L0.609176224,18.2631891 L0.609176224,13.4956123 L5.64845597,13.4956123 L5.64845597,4.21220232 L25.4160143,4.21220232 C28.7989398,4.21220232 31.4566092,4.38132737 33.3861368,4.7176335 C38.9631065,5.70516826 42.6923082,8.63180918 44.5747037,13.4956123 L48.1134535,13.4956123 L48.1134535,18.2631891 L45.6106465,18.2631891 C45.6346935,18.6247668 45.6471979,19.0456354 45.6471979,19.527739 C45.6471979,20.1293965 45.6106465,20.7913169 45.5404294,21.5135003 L48.1134535,21.5135003 L48.1134535,26.2820491 Z" id="Fill-9" fill="#FACBCE" style="mix-blend-mode: overlay;" opacity="0.14283288"></path>
                        <path d="M36.2458006,22.2607349 L12.5826357,22.2607349 L12.5826357,25.3662207 L26.1297279,25.3662207 C30.9920221,25.3662207 34.3634051,24.3310587 36.2458006,22.2607349 L36.2458006,22.2607349 Z M38.4975575,15.722205 C38.4975575,15.1205475 38.4744724,14.6267801 38.4273403,14.2418748 L12.5826357,14.2418748 L12.5826357,17.4921861 L38.390789,17.4921861 C38.461968,16.9634273 38.4975575,16.3724616 38.4975575,15.722205 L38.4975575,15.722205 Z M36.42471,9.47429803 C35.3762628,8.19711233 34.0536803,7.34273924 32.4579244,6.90923481 C31.3142513,6.59722825 29.1567585,6.44073898 25.9873699,6.44073898 L12.5826357,6.44073898 L12.5826357,9.47429803 L36.42471,9.47429803 Z M48.1134535,22.2607349 L44.3957944,22.2607349 C43.7051659,23.9218539 42.7038507,25.4760547 41.3937726,26.9194495 C38.5581558,30.0502069 33.4342307,31.6150996 26.0239213,31.6150996 L12.5826357,31.6150996 L12.5826357,53.1425798 L5.64845597,53.1425798 L5.64845597,22.2607349 L0.609176224,22.2607349 L0.609176224,17.4921861 L5.64845597,17.4921861 L5.64845597,14.2418748 L0.609176224,14.2418748 L0.609176224,9.47429803 L5.64845597,9.47429803 L5.64845597,0.190888068 L25.4160143,0.190888068 C28.7989398,0.190888068 31.4566092,0.360013117 33.3861368,0.696319247 C38.9631065,1.68385401 42.6923082,4.61049493 44.5747037,9.47429803 L48.1134535,9.47429803 L48.1134535,14.2418748 L45.6106465,14.2418748 C45.6346935,14.6034525 45.6471979,15.0243212 45.6471979,15.5064247 C45.6471979,16.1080822 45.6106465,16.7700027 45.5404294,17.4921861 L48.1134535,17.4921861 L48.1134535,22.2607349 Z" id="Fill-9" fill="#C6645D"></path>
                    </g>
                    <path d="M114.638472,44.5258646 L63.6168851,44.5258646 C59.7424294,44.5258646 56.5714719,41.3007215 56.5714719,37.3586178 C56.5714719,33.4165141 59.7424294,30.1913709 63.6168851,30.1913709 L114.638472,30.1913709 C118.512927,30.1913709 121.682726,33.4165141 121.682726,37.3586178 C121.682726,41.3007215 118.512927,44.5258646 114.638472,44.5258646" id="Fill-7" fill="#E9E9E9"></path>
                </g>
                <g id="Page-1" transform="translate(0.681477, 275.051798)">
                    <polygon id="Fill-1" fill="#06845A" points="0 100.720483 128.904302 100.720483 128.904302 42.3649013 0 42.3649013"></polygon>
                    <polygon id="Fill-2" fill="#0B9B67" points="0 97.6396368 128.904302 97.6396368 128.904302 39.2840548 0 39.2840548"></polygon>
                    <polygon id="Fill-3" fill="#06845A" points="0 90.5718125 128.904302 90.5718125 128.904302 32.2169554 0 32.2169554"></polygon>
                    <polygon id="Fill-4" fill="#0B9B67" points="0 87.490966 128.904302 87.490966 128.904302 29.136109 0 29.136109"></polygon>
                    <polygon id="Fill-5" fill="#06845A" points="0 80.4231417 128.904302 80.4231417 128.904302 22.0675597 0 22.0675597"></polygon>
                    <polygon id="Fill-6" fill="#0B9B67" points="0 77.3415703 128.904302 77.3415703 128.904302 18.9867133 0 18.9867133"></polygon>
                    <polygon id="Fill-7" fill="#06845A" points="0 70.2744709 128.904302 70.2744709 128.904302 11.9196139 0 11.9196139"></polygon>
                    <polygon id="Fill-8" fill="#0B9B67" points="0 67.1936244 128.904302 67.1936244 128.904302 8.83804245 0 8.83804245"></polygon>
                    <polygon id="Fill-9" fill="#2BC19A" points="0 58.3548571 128.904302 58.3548571 128.904302 2.84217094e-14 0 2.84217094e-14"></polygon>
                    <path d="M9.8525443,49.0688233 L119.052482,49.0688233 L119.052482,9.28603378 L9.8525443,9.28603378 L9.8525443,49.0688233 Z M5.74423972,52.5838879 L123.160787,52.5838879 L123.160787,5.77024425 L5.74423972,5.77024425 L5.74423972,52.5838879 Z" id="Fill-10" fill="#0A996D"></path>
                    <g id="Group-25" transform="translate(5.069299, 1.408491)">
                        <path d="M86.8779324,27.6184477 C86.8779324,42.8189819 74.5682265,55.140918 59.3827799,55.140918 C44.1980575,55.140918 31.8876274,42.8189819 31.8876274,27.6184477 C31.8876274,12.4179136 44.1980575,0.0959774295 59.3827799,0.0959774295 C74.5682265,0.0959774295 86.8779324,12.4179136 86.8779324,27.6184477" id="Fill-11" fill="#2BC19A"></path>
                        <path d="M81.5759528,27.6184477 C81.5759528,39.8874658 71.639403,49.8338881 59.3825627,49.8338881 C47.1264465,49.8338881 37.1906209,39.8874658 37.1906209,27.6184477 C37.1906209,15.3494296 47.1264465,5.40300735 59.3825627,5.40300735 C71.639403,5.40300735 81.5759528,15.3494296 81.5759528,27.6184477" id="Fill-13" fill="#0A996D"></path>
                        <path d="M118.031308,38.8841972 C117.994375,38.8834723 117.95889,38.878398 117.92268,38.878398 C111.3478,38.878398 106.018518,44.2136992 106.018518,50.7943873 C106.018518,50.9226955 106.033726,51.0473792 106.037347,51.1756874 L118.031308,51.1756874 L118.031308,38.8841972 Z" id="Fill-15" fill="#0A996D"></path>
                        <path d="M0.615702548,38.8841972 C0.65263601,38.8834723 0.688121102,38.878398 0.725054564,38.878398 C7.29921091,38.878398 12.6292165,44.2136992 12.6292165,50.7943873 C12.6292165,50.9226955 12.6132844,51.0473792 12.6096635,51.1756874 L0.615702548,51.1756874 L0.615702548,38.8841972 Z" id="Fill-17" fill="#0A996D"></path>
                        <path d="M118.031308,16.6535338 C117.994375,16.6535338 117.95889,16.6593331 117.92268,16.6593331 C111.3478,16.6593331 106.018518,11.3240319 106.018518,4.74334375 C106.018518,4.61503555 106.033726,4.48962698 106.037347,4.36204369 L118.031308,4.36204369 L118.031308,16.6535338 Z" id="Fill-19" fill="#0A996D"></path>
                        <path d="M0.615702548,16.6535338 C0.65263601,16.6535338 0.688121102,16.6593331 0.725054564,16.6593331 C7.29921091,16.6593331 12.6292165,11.3240319 12.6292165,4.74334375 C12.6292165,4.61503555 12.6132844,4.48962698 12.6096635,4.36204369 L0.615702548,4.36204369 L0.615702548,16.6535338 Z" id="Fill-21" fill="#0A996D"></path>
                        <path d="M67.5441337,34.7103389 C66.838777,34.2703215 65.6540095,33.9977572 64.5250042,33.5026471 C64.485174,33.4780003 64.4323084,33.4533535 64.3548206,33.4287067 C64.1585663,33.3380936 63.9695539,33.2438559 63.7848866,33.1474436 C62.4082099,32.2043421 62.6059125,29.9150919 62.7804412,29.7751852 C64.133944,28.6950767 64.8226444,27.6171429 65.2021177,26.4978895 C65.7329457,26.3195628 66.4317847,25.4134315 66.4317847,24.3152004 C66.4317847,23.3373034 66.1536975,22.515986 65.7698791,22.2202247 C65.7727759,21.9723072 65.7763968,21.7388878 65.785087,21.6214532 C66.034931,18.4246219 64.17305,15.9787922 61.6680922,15.0298915 C60.9279746,14.7500781 60.1335431,14.5326066 59.3195585,14.5326066 C58.7423826,14.5326066 58.1775179,14.6877363 57.6394481,14.8508399 C54.8440919,15.6939045 52.7171589,18.5493055 52.8533058,21.6214532 C52.8583751,21.7330885 52.8605477,21.9730321 52.8634444,22.2231244 C52.4817986,22.5232351 52.2066081,23.3416529 52.2066081,24.3152004 C52.2066081,25.5417397 53.1683265,26.5363095 53.7042238,26.5363095 C53.7063964,26.5363095 53.7078448,26.5348596 53.7092931,26.5348596 C54.1981184,27.6678862 54.9208555,28.7414706 55.9463023,29.7751852 C56.1048989,29.9353893 56.21063,31.9571495 55.0939359,32.9676671 C53.6991545,33.4693014 51.9060711,34.2492993 51.0935349,34.7103389 C49.056401,35.8658375 48.8724579,36.2920817 48.8724579,37.9796607 L48.8724579,40.0086699 L69.8941158,40.0086699 L69.8941158,37.9796607 C69.8941158,36.3870443 69.3690813,35.8498896 67.5441337,34.7103389" id="Fill-23" fill="#2BC19A"></path>
                    </g>
                </g>
                <g id="Page-1" transform="translate(113.686706, 346.260210)">
                    <g id="Group-3" transform="translate(0.000000, 0.025106)">
                        <mask id="mask-44" fill="white">
                            <use xlink:href="#path-43"></use>
                        </mask>
                        <g id="Clip-2"></g>
                        <path d="M46.4536946,11.8989118 C46.4536946,18.4546653 36.0539424,23.7696022 23.2272143,23.7696022 C10.3986511,23.7696022 -0.000183514244,18.4546653 -0.000183514244,11.8989118 C-0.000183514244,5.34225191 10.3986511,0.0273150047 23.2272143,0.0273150047 C36.0539424,0.0273150047 46.4536946,5.34225191 46.4536946,11.8989118" id="Fill-1" fill="#EFD44F" mask="url(#mask-44)"></path>
                    </g>
                    <path d="M41.7171002,12.1903995 C41.7171002,17.1183176 33.4387726,21.1135839 23.2271225,21.1135839 C13.0154725,21.1135839 4.73622736,17.1183176 4.73622736,12.1903995 C4.73622736,7.26157496 13.0154725,3.26630861 23.2271225,3.26630861 C33.4387726,3.26630861 41.7171002,7.26157496 41.7171002,12.1903995" id="Fill-4" fill="#E4C22F"></path>
                    <g id="Group-8" transform="translate(0.000000, 11.860844)">
                        <mask id="mask-46" fill="white">
                            <use xlink:href="#path-45"></use>
                        </mask>
                        <g id="Clip-7"></g>
                        <path d="M46.3936854,0.722555883 C45.577047,6.89944793 35.5204665,11.7829541 23.2268473,11.7829541 C10.9332281,11.7829541 0.877565113,6.9003543 0.0600091577,0.72346225 L0.0600091577,4.5392679 C0.0251414514,4.80755258 -0.000550542731,5.07764998 -0.000550542731,5.34956013 C-0.000550542731,11.90622 10.3982841,17.2211569 23.2268473,17.2211569 C36.0544929,17.2211569 46.4533275,11.90622 46.4533275,5.34956013 C46.4533275,5.07764998 46.4285531,4.80755258 46.3936854,4.5392679 L46.3936854,0.722555883 Z" id="Fill-6" fill="#E4C22F" mask="url(#mask-46)"></path>
                    </g>
                    <g id="Group-11" transform="translate(0.000000, 17.299047)">
                        <mask id="mask-48" fill="white">
                            <use xlink:href="#path-47"></use>
                        </mask>
                        <g id="Clip-10"></g>
                        <path d="M46.3936854,0.722555883 C45.577047,6.89944793 35.5204665,11.7829541 23.2268473,11.7829541 C10.9332281,11.7829541 0.877565113,6.9003543 0.0600091577,0.72346225 L0.0600091577,4.5392679 C0.0251414514,4.80755258 -0.000550542731,5.07764998 -0.000550542731,5.34956013 C-0.000550542731,11.90622 10.3982841,17.2211569 23.2268473,17.2211569 C36.0544929,17.2211569 46.4533275,11.90622 46.4533275,5.34956013 C46.4533275,5.07764998 46.4285531,4.80755258 46.3936854,4.5392679 L46.3936854,0.722555883 Z" id="Fill-9" fill="#EFD44F" mask="url(#mask-48)"></path>
                    </g>
                    <g id="Group-14" transform="translate(0.000000, 33.613656)">
                        <mask id="mask-50" fill="white">
                            <use xlink:href="#path-49"></use>
                        </mask>
                        <g id="Clip-13"></g>
                        <path d="M46.3936854,0.722555883 C45.577047,6.89944793 35.5204665,11.7829541 23.2268473,11.7829541 C10.9332281,11.7829541 0.877565113,6.9003543 0.0600091577,0.72346225 L0.0600091577,4.5392679 C0.0251414514,4.80755258 -0.000550542731,5.07764998 -0.000550542731,5.34956013 C-0.000550542731,11.90622 10.3982841,17.2211569 23.2268473,17.2211569 C36.0544929,17.2211569 46.4533275,11.90622 46.4533275,5.34956013 C46.4533275,5.07764998 46.4285531,4.80755258 46.3936854,4.5392679 L46.3936854,0.722555883 Z" id="Fill-12" fill="#E4C22F" mask="url(#mask-50)"></path>
                    </g>
                    <g id="Group-17" transform="translate(0.000000, 39.051859)">
                        <mask id="mask-52" fill="white">
                            <use xlink:href="#path-51"></use>
                        </mask>
                        <g id="Clip-16"></g>
                        <path d="M46.3936854,0.722555883 C45.577047,6.89944793 35.5204665,11.7829541 23.2268473,11.7829541 C10.9332281,11.7829541 0.877565113,6.9003543 0.0600091577,0.72346225 L0.0600091577,4.5392679 C0.0251414514,4.80755258 -0.000550542731,5.07764998 -0.000550542731,5.34956013 C-0.000550542731,11.90622 10.3982841,17.2211569 23.2268473,17.2211569 C36.0544929,17.2211569 46.4533275,11.90622 46.4533275,5.34956013 C46.4533275,5.07764998 46.4285531,4.80755258 46.3936854,4.5392679 L46.3936854,0.722555883 Z" id="Fill-15" fill="#EFD44F" mask="url(#mask-52)"></path>
                    </g>
                    <g id="Group-20" transform="translate(0.000000, 22.737250)">
                        <mask id="mask-54" fill="white">
                            <use xlink:href="#path-53"></use>
                        </mask>
                        <g id="Clip-19"></g>
                        <path d="M46.3936854,0.722555883 C45.577047,6.89944793 35.5204665,11.7829541 23.2268473,11.7829541 C10.9332281,11.7829541 0.877565113,6.9003543 0.0600091577,0.72346225 L0.0600091577,4.5392679 C0.0251414514,4.80755258 -0.000550542731,5.07764998 -0.000550542731,5.34956013 C-0.000550542731,11.90622 10.3982841,17.2211569 23.2268473,17.2211569 C36.0544929,17.2211569 46.4533275,11.90622 46.4533275,5.34956013 C46.4533275,5.07764998 46.4285531,4.80755258 46.3936854,4.5392679 L46.3936854,0.722555883 Z" id="Fill-18" fill="#E4C22F" mask="url(#mask-54)"></path>
                    </g>
                    <g id="Group-23" transform="translate(0.000000, 28.175453)">
                        <mask id="mask-56" fill="white">
                            <use xlink:href="#path-55"></use>
                        </mask>
                        <g id="Clip-22"></g>
                        <path d="M46.3936854,0.722555883 C45.577047,6.89944793 35.5204665,11.7829541 23.2268473,11.7829541 C10.9332281,11.7829541 0.877565113,6.9003543 0.0600091577,0.72346225 L0.0600091577,4.5392679 C0.0251414514,4.80755258 -0.000550542731,5.07764998 -0.000550542731,5.34956013 C-0.000550542731,11.90622 10.3982841,17.2211569 23.2268473,17.2211569 C36.0544929,17.2211569 46.4533275,11.90622 46.4533275,5.34956013 C46.4533275,5.07764998 46.4285531,4.80755258 46.3936854,4.5392679 L46.3936854,0.722555883 Z" id="Fill-21" fill="#EFD44F" mask="url(#mask-56)"></path>
                    </g>
                    <g id="Group-26" transform="translate(0.000000, 11.860844)">
                        <mask id="mask-58" fill="white">
                            <use xlink:href="#path-57"></use>
                        </mask>
                        <g id="Clip-25"></g>
                        <path d="M46.3936854,0.722555883 C45.577047,6.89944793 35.5204665,11.7829541 23.2268473,11.7829541 C10.9332281,11.7829541 0.877565113,6.9003543 0.0600091577,0.72346225 L0.0600091577,4.5392679 C0.0251414514,4.80755258 -0.000550542731,5.07764998 -0.000550542731,5.34956013 C-0.000550542731,11.90622 10.3982841,17.2211569 23.2268473,17.2211569 C36.0544929,17.2211569 46.4533275,11.90622 46.4533275,5.34956013 C46.4533275,5.07764998 46.4285531,4.80755258 46.3936854,4.5392679 L46.3936854,0.722555883 Z" id="Fill-24" fill="#E4C22F" mask="url(#mask-58)"></path>
                    </g>
                    <g id="Group-29" transform="translate(0.000000, 17.299047)">
                        <mask id="mask-60" fill="white">
                            <use xlink:href="#path-59"></use>
                        </mask>
                        <g id="Clip-28"></g>
                        <path d="M46.3936854,0.722555883 C45.577047,6.89944793 35.5204665,11.7829541 23.2268473,11.7829541 C10.9332281,11.7829541 0.877565113,6.9003543 0.0600091577,0.72346225 L0.0600091577,4.5392679 C0.0251414514,4.80755258 -0.000550542731,5.07764998 -0.000550542731,5.34956013 C-0.000550542731,11.90622 10.3982841,17.2211569 23.2268473,17.2211569 C36.0544929,17.2211569 46.4533275,11.90622 46.4533275,5.34956013 C46.4533275,5.07764998 46.4285531,4.80755258 46.3936854,4.5392679 L46.3936854,0.722555883 Z" id="Fill-27" fill="#EFD44F" mask="url(#mask-60)"></path>
                    </g>
                    <path d="M39.7018385,12.1903995 C39.7018385,16.2300778 32.3254835,19.5056886 23.2268473,19.5056886 C14.1282111,19.5056886 6.75185605,16.2300778 6.75185605,12.1903995 C6.75185605,8.14890839 14.1282111,4.87420392 23.2268473,4.87420392 C32.3254835,4.87420392 39.7018385,8.14890839 39.7018385,12.1903995" id="Fill-30" fill="#EFD44F"></path>
                    <path d="M28.3925897,11.9116009 L21.0410091,11.9116009 L21.0410091,12.3992264 L25.2499083,12.3992264 C26.7602305,12.3992264 27.8071793,12.2360804 28.3925897,11.9116009 L28.3925897,11.9116009 Z M29.0926966,10.8837806 C29.0926966,10.7895184 29.0844384,10.7124772 29.0697573,10.6508442 L21.0410091,10.6508442 L21.0410091,11.1620353 L29.0587464,11.1620353 C29.0807681,11.0786495 29.0926966,10.9862001 29.0926966,10.8837806 L29.0926966,10.8837806 Z M28.4485616,9.90218498 C28.1228238,9.70187784 27.7117519,9.56773551 27.2153458,9.49975797 C26.8602458,9.44990778 26.1904188,9.42543587 25.2049473,9.42543587 L21.0410091,9.42543587 L21.0410091,9.90218498 L28.4485616,9.90218498 Z M32.0793909,11.9116009 L30.9241687,11.9116009 C30.709457,12.1726347 30.399318,12.4164474 29.9909988,12.6439456 C29.1101304,13.1351966 27.5190619,13.3808221 25.2168757,13.3808221 L21.0410091,13.3808221 L21.0410091,16.7642906 L18.8874695,16.7642906 L18.8874695,11.9116009 L17.322093,11.9116009 L17.322093,11.1620353 L18.8874695,11.1620353 L18.8874695,10.6508442 L17.322093,10.6508442 L17.322093,9.90218498 L18.8874695,9.90218498 L18.8874695,8.44384025 L25.0278561,8.44384025 C26.0793927,8.44384025 26.9042892,8.4701249 27.5043808,8.52360056 C29.2367552,8.67858934 30.3956477,9.13721112 30.979223,9.90218498 L32.0793909,9.90218498 L32.0793909,10.6508442 L31.3022081,10.6508442 C31.3095486,10.7079454 31.3132189,10.7741102 31.3132189,10.850245 C31.3132189,10.9445072 31.3022081,11.0487394 31.2792688,11.1620353 L32.0793909,11.1620353 L32.0793909,11.9116009 Z" id="Fill-32" fill="#D7B129"></path>
                </g>
                <g id="Page-1-Copy-3" transform="translate(113.686706, 313.630993)">
                    <g id="Group-3" transform="translate(0.000000, 0.025106)">
                        <mask id="mask-62" fill="white">
                            <use xlink:href="#path-61"></use>
                        </mask>
                        <g id="Clip-2"></g>
                        <path d="M46.4536946,11.8989118 C46.4536946,18.4546653 36.0539424,23.7696022 23.2272143,23.7696022 C10.3986511,23.7696022 -0.000183514244,18.4546653 -0.000183514244,11.8989118 C-0.000183514244,5.34225191 10.3986511,0.0273150047 23.2272143,0.0273150047 C36.0539424,0.0273150047 46.4536946,5.34225191 46.4536946,11.8989118" id="Fill-1" fill="#EFD44F" mask="url(#mask-62)"></path>
                    </g>
                    <path d="M41.7171002,12.1903995 C41.7171002,17.1183176 33.4387726,21.1135839 23.2271225,21.1135839 C13.0154725,21.1135839 4.73622736,17.1183176 4.73622736,12.1903995 C4.73622736,7.26157496 13.0154725,3.26630861 23.2271225,3.26630861 C33.4387726,3.26630861 41.7171002,7.26157496 41.7171002,12.1903995" id="Fill-4" fill="#E4C22F"></path>
                    <g id="Group-8" transform="translate(0.000000, 11.860844)">
                        <mask id="mask-64" fill="white">
                            <use xlink:href="#path-63"></use>
                        </mask>
                        <g id="Clip-7"></g>
                        <path d="M46.3936854,0.722555883 C45.577047,6.89944793 35.5204665,11.7829541 23.2268473,11.7829541 C10.9332281,11.7829541 0.877565113,6.9003543 0.0600091577,0.72346225 L0.0600091577,4.5392679 C0.0251414514,4.80755258 -0.000550542731,5.07764998 -0.000550542731,5.34956013 C-0.000550542731,11.90622 10.3982841,17.2211569 23.2268473,17.2211569 C36.0544929,17.2211569 46.4533275,11.90622 46.4533275,5.34956013 C46.4533275,5.07764998 46.4285531,4.80755258 46.3936854,4.5392679 L46.3936854,0.722555883 Z" id="Fill-6" fill="#E4C22F" mask="url(#mask-64)"></path>
                    </g>
                    <g id="Group-11" transform="translate(0.000000, 17.299047)">
                        <mask id="mask-66" fill="white">
                            <use xlink:href="#path-65"></use>
                        </mask>
                        <g id="Clip-10"></g>
                        <path d="M46.3936854,0.722555883 C45.577047,6.89944793 35.5204665,11.7829541 23.2268473,11.7829541 C10.9332281,11.7829541 0.877565113,6.9003543 0.0600091577,0.72346225 L0.0600091577,4.5392679 C0.0251414514,4.80755258 -0.000550542731,5.07764998 -0.000550542731,5.34956013 C-0.000550542731,11.90622 10.3982841,17.2211569 23.2268473,17.2211569 C36.0544929,17.2211569 46.4533275,11.90622 46.4533275,5.34956013 C46.4533275,5.07764998 46.4285531,4.80755258 46.3936854,4.5392679 L46.3936854,0.722555883 Z" id="Fill-9" fill="#EFD44F" mask="url(#mask-66)"></path>
                    </g>
                    <g id="Group-14" transform="translate(0.000000, 33.613656)">
                        <mask id="mask-68" fill="white">
                            <use xlink:href="#path-67"></use>
                        </mask>
                        <g id="Clip-13"></g>
                        <path d="M46.3936854,0.722555883 C45.577047,6.89944793 35.5204665,11.7829541 23.2268473,11.7829541 C10.9332281,11.7829541 0.877565113,6.9003543 0.0600091577,0.72346225 L0.0600091577,4.5392679 C0.0251414514,4.80755258 -0.000550542731,5.07764998 -0.000550542731,5.34956013 C-0.000550542731,11.90622 10.3982841,17.2211569 23.2268473,17.2211569 C36.0544929,17.2211569 46.4533275,11.90622 46.4533275,5.34956013 C46.4533275,5.07764998 46.4285531,4.80755258 46.3936854,4.5392679 L46.3936854,0.722555883 Z" id="Fill-12" fill="#E4C22F" mask="url(#mask-68)"></path>
                    </g>
                    <g id="Group-17" transform="translate(0.000000, 39.051859)">
                        <mask id="mask-70" fill="white">
                            <use xlink:href="#path-69"></use>
                        </mask>
                        <g id="Clip-16"></g>
                        <path d="M46.3936854,0.722555883 C45.577047,6.89944793 35.5204665,11.7829541 23.2268473,11.7829541 C10.9332281,11.7829541 0.877565113,6.9003543 0.0600091577,0.72346225 L0.0600091577,4.5392679 C0.0251414514,4.80755258 -0.000550542731,5.07764998 -0.000550542731,5.34956013 C-0.000550542731,11.90622 10.3982841,17.2211569 23.2268473,17.2211569 C36.0544929,17.2211569 46.4533275,11.90622 46.4533275,5.34956013 C46.4533275,5.07764998 46.4285531,4.80755258 46.3936854,4.5392679 L46.3936854,0.722555883 Z" id="Fill-15" fill="#EFD44F" mask="url(#mask-70)"></path>
                    </g>
                    <g id="Group-20" transform="translate(0.000000, 22.737250)">
                        <mask id="mask-72" fill="white">
                            <use xlink:href="#path-71"></use>
                        </mask>
                        <g id="Clip-19"></g>
                        <path d="M46.3936854,0.722555883 C45.577047,6.89944793 35.5204665,11.7829541 23.2268473,11.7829541 C10.9332281,11.7829541 0.877565113,6.9003543 0.0600091577,0.72346225 L0.0600091577,4.5392679 C0.0251414514,4.80755258 -0.000550542731,5.07764998 -0.000550542731,5.34956013 C-0.000550542731,11.90622 10.3982841,17.2211569 23.2268473,17.2211569 C36.0544929,17.2211569 46.4533275,11.90622 46.4533275,5.34956013 C46.4533275,5.07764998 46.4285531,4.80755258 46.3936854,4.5392679 L46.3936854,0.722555883 Z" id="Fill-18" fill="#E4C22F" mask="url(#mask-72)"></path>
                    </g>
                    <g id="Group-23" transform="translate(0.000000, 28.175453)">
                        <mask id="mask-74" fill="white">
                            <use xlink:href="#path-73"></use>
                        </mask>
                        <g id="Clip-22"></g>
                        <path d="M46.3936854,0.722555883 C45.577047,6.89944793 35.5204665,11.7829541 23.2268473,11.7829541 C10.9332281,11.7829541 0.877565113,6.9003543 0.0600091577,0.72346225 L0.0600091577,4.5392679 C0.0251414514,4.80755258 -0.000550542731,5.07764998 -0.000550542731,5.34956013 C-0.000550542731,11.90622 10.3982841,17.2211569 23.2268473,17.2211569 C36.0544929,17.2211569 46.4533275,11.90622 46.4533275,5.34956013 C46.4533275,5.07764998 46.4285531,4.80755258 46.3936854,4.5392679 L46.3936854,0.722555883 Z" id="Fill-21" fill="#EFD44F" mask="url(#mask-74)"></path>
                    </g>
                    <g id="Group-26" transform="translate(0.000000, 11.860844)">
                        <mask id="mask-76" fill="white">
                            <use xlink:href="#path-75"></use>
                        </mask>
                        <g id="Clip-25"></g>
                        <path d="M46.3936854,0.722555883 C45.577047,6.89944793 35.5204665,11.7829541 23.2268473,11.7829541 C10.9332281,11.7829541 0.877565113,6.9003543 0.0600091577,0.72346225 L0.0600091577,4.5392679 C0.0251414514,4.80755258 -0.000550542731,5.07764998 -0.000550542731,5.34956013 C-0.000550542731,11.90622 10.3982841,17.2211569 23.2268473,17.2211569 C36.0544929,17.2211569 46.4533275,11.90622 46.4533275,5.34956013 C46.4533275,5.07764998 46.4285531,4.80755258 46.3936854,4.5392679 L46.3936854,0.722555883 Z" id="Fill-24" fill="#E4C22F" mask="url(#mask-76)"></path>
                    </g>
                    <g id="Group-29" transform="translate(0.000000, 17.299047)">
                        <mask id="mask-78" fill="white">
                            <use xlink:href="#path-77"></use>
                        </mask>
                        <g id="Clip-28"></g>
                        <path d="M46.3936854,0.722555883 C45.577047,6.89944793 35.5204665,11.7829541 23.2268473,11.7829541 C10.9332281,11.7829541 0.877565113,6.9003543 0.0600091577,0.72346225 L0.0600091577,4.5392679 C0.0251414514,4.80755258 -0.000550542731,5.07764998 -0.000550542731,5.34956013 C-0.000550542731,11.90622 10.3982841,17.2211569 23.2268473,17.2211569 C36.0544929,17.2211569 46.4533275,11.90622 46.4533275,5.34956013 C46.4533275,5.07764998 46.4285531,4.80755258 46.3936854,4.5392679 L46.3936854,0.722555883 Z" id="Fill-27" fill="#EFD44F" mask="url(#mask-78)"></path>
                    </g>
                    <path d="M39.7018385,12.1903995 C39.7018385,16.2300778 32.3254835,19.5056886 23.2268473,19.5056886 C14.1282111,19.5056886 6.75185605,16.2300778 6.75185605,12.1903995 C6.75185605,8.14890839 14.1282111,4.87420392 23.2268473,4.87420392 C32.3254835,4.87420392 39.7018385,8.14890839 39.7018385,12.1903995" id="Fill-30" fill="#EFD44F"></path>
                    <path d="M28.3925897,11.9116009 L21.0410091,11.9116009 L21.0410091,12.3992264 L25.2499083,12.3992264 C26.7602305,12.3992264 27.8071793,12.2360804 28.3925897,11.9116009 L28.3925897,11.9116009 Z M29.0926966,10.8837806 C29.0926966,10.7895184 29.0844384,10.7124772 29.0697573,10.6508442 L21.0410091,10.6508442 L21.0410091,11.1620353 L29.0587464,11.1620353 C29.0807681,11.0786495 29.0926966,10.9862001 29.0926966,10.8837806 L29.0926966,10.8837806 Z M28.4485616,9.90218498 C28.1228238,9.70187784 27.7117519,9.56773551 27.2153458,9.49975797 C26.8602458,9.44990778 26.1904188,9.42543587 25.2049473,9.42543587 L21.0410091,9.42543587 L21.0410091,9.90218498 L28.4485616,9.90218498 Z M32.0793909,11.9116009 L30.9241687,11.9116009 C30.709457,12.1726347 30.399318,12.4164474 29.9909988,12.6439456 C29.1101304,13.1351966 27.5190619,13.3808221 25.2168757,13.3808221 L21.0410091,13.3808221 L21.0410091,16.7642906 L18.8874695,16.7642906 L18.8874695,11.9116009 L17.322093,11.9116009 L17.322093,11.1620353 L18.8874695,11.1620353 L18.8874695,10.6508442 L17.322093,10.6508442 L17.322093,9.90218498 L18.8874695,9.90218498 L18.8874695,8.44384025 L25.0278561,8.44384025 C26.0793927,8.44384025 26.9042892,8.4701249 27.5043808,8.52360056 C29.2367552,8.67858934 30.3956477,9.13721112 30.979223,9.90218498 L32.0793909,9.90218498 L32.0793909,10.6508442 L31.3022081,10.6508442 C31.3095486,10.7079454 31.3132189,10.7741102 31.3132189,10.850245 C31.3132189,10.9445072 31.3022081,11.0487394 31.2792688,11.1620353 L32.0793909,11.1620353 L32.0793909,11.9116009 Z" id="Fill-32" fill="#D7B129"></path>
                </g>
                <g id="Page-1-Copy-10" transform="translate(75.889831, 349.885679)">
                    <g id="Group-3" transform="translate(0.000000, 0.025106)">
                        <mask id="mask-80" fill="white">
                            <use xlink:href="#path-79"></use>
                        </mask>
                        <g id="Clip-2"></g>
                        <path d="M46.4536946,11.8989118 C46.4536946,18.4546653 36.0539424,23.7696022 23.2272143,23.7696022 C10.3986511,23.7696022 -0.000183514244,18.4546653 -0.000183514244,11.8989118 C-0.000183514244,5.34225191 10.3986511,0.0273150047 23.2272143,0.0273150047 C36.0539424,0.0273150047 46.4536946,5.34225191 46.4536946,11.8989118" id="Fill-1" fill="#EFD44F" mask="url(#mask-80)"></path>
                    </g>
                    <path d="M41.7171002,12.1903995 C41.7171002,17.1183176 33.4387726,21.1135839 23.2271225,21.1135839 C13.0154725,21.1135839 4.73622736,17.1183176 4.73622736,12.1903995 C4.73622736,7.26157496 13.0154725,3.26630861 23.2271225,3.26630861 C33.4387726,3.26630861 41.7171002,7.26157496 41.7171002,12.1903995" id="Fill-4" fill="#E4C22F"></path>
                    <g id="Group-8" transform="translate(0.000000, 11.860844)">
                        <mask id="mask-82" fill="white">
                            <use xlink:href="#path-81"></use>
                        </mask>
                        <g id="Clip-7"></g>
                        <path d="M46.3936854,0.722555883 C45.577047,6.89944793 35.5204665,11.7829541 23.2268473,11.7829541 C10.9332281,11.7829541 0.877565113,6.9003543 0.0600091577,0.72346225 L0.0600091577,4.5392679 C0.0251414514,4.80755258 -0.000550542731,5.07764998 -0.000550542731,5.34956013 C-0.000550542731,11.90622 10.3982841,17.2211569 23.2268473,17.2211569 C36.0544929,17.2211569 46.4533275,11.90622 46.4533275,5.34956013 C46.4533275,5.07764998 46.4285531,4.80755258 46.3936854,4.5392679 L46.3936854,0.722555883 Z" id="Fill-6" fill="#E4C22F" mask="url(#mask-82)"></path>
                    </g>
                    <g id="Group-11" transform="translate(0.000000, 17.299047)">
                        <mask id="mask-84" fill="white">
                            <use xlink:href="#path-83"></use>
                        </mask>
                        <g id="Clip-10"></g>
                        <path d="M46.3936854,0.722555883 C45.577047,6.89944793 35.5204665,11.7829541 23.2268473,11.7829541 C10.9332281,11.7829541 0.877565113,6.9003543 0.0600091577,0.72346225 L0.0600091577,4.5392679 C0.0251414514,4.80755258 -0.000550542731,5.07764998 -0.000550542731,5.34956013 C-0.000550542731,11.90622 10.3982841,17.2211569 23.2268473,17.2211569 C36.0544929,17.2211569 46.4533275,11.90622 46.4533275,5.34956013 C46.4533275,5.07764998 46.4285531,4.80755258 46.3936854,4.5392679 L46.3936854,0.722555883 Z" id="Fill-9" fill="#EFD44F" mask="url(#mask-84)"></path>
                    </g>
                    <g id="Group-14" transform="translate(0.000000, 33.613656)">
                        <mask id="mask-86" fill="white">
                            <use xlink:href="#path-85"></use>
                        </mask>
                        <g id="Clip-13"></g>
                        <path d="M46.3936854,0.722555883 C45.577047,6.89944793 35.5204665,11.7829541 23.2268473,11.7829541 C10.9332281,11.7829541 0.877565113,6.9003543 0.0600091577,0.72346225 L0.0600091577,4.5392679 C0.0251414514,4.80755258 -0.000550542731,5.07764998 -0.000550542731,5.34956013 C-0.000550542731,11.90622 10.3982841,17.2211569 23.2268473,17.2211569 C36.0544929,17.2211569 46.4533275,11.90622 46.4533275,5.34956013 C46.4533275,5.07764998 46.4285531,4.80755258 46.3936854,4.5392679 L46.3936854,0.722555883 Z" id="Fill-12" fill="#E4C22F" mask="url(#mask-86)"></path>
                    </g>
                    <g id="Group-17" transform="translate(0.000000, 39.051859)">
                        <mask id="mask-88" fill="white">
                            <use xlink:href="#path-87"></use>
                        </mask>
                        <g id="Clip-16"></g>
                        <path d="M46.3936854,0.722555883 C45.577047,6.89944793 35.5204665,11.7829541 23.2268473,11.7829541 C10.9332281,11.7829541 0.877565113,6.9003543 0.0600091577,0.72346225 L0.0600091577,4.5392679 C0.0251414514,4.80755258 -0.000550542731,5.07764998 -0.000550542731,5.34956013 C-0.000550542731,11.90622 10.3982841,17.2211569 23.2268473,17.2211569 C36.0544929,17.2211569 46.4533275,11.90622 46.4533275,5.34956013 C46.4533275,5.07764998 46.4285531,4.80755258 46.3936854,4.5392679 L46.3936854,0.722555883 Z" id="Fill-15" fill="#EFD44F" mask="url(#mask-88)"></path>
                    </g>
                    <g id="Group-20" transform="translate(0.000000, 22.737250)">
                        <mask id="mask-90" fill="white">
                            <use xlink:href="#path-89"></use>
                        </mask>
                        <g id="Clip-19"></g>
                        <path d="M46.3936854,0.722555883 C45.577047,6.89944793 35.5204665,11.7829541 23.2268473,11.7829541 C10.9332281,11.7829541 0.877565113,6.9003543 0.0600091577,0.72346225 L0.0600091577,4.5392679 C0.0251414514,4.80755258 -0.000550542731,5.07764998 -0.000550542731,5.34956013 C-0.000550542731,11.90622 10.3982841,17.2211569 23.2268473,17.2211569 C36.0544929,17.2211569 46.4533275,11.90622 46.4533275,5.34956013 C46.4533275,5.07764998 46.4285531,4.80755258 46.3936854,4.5392679 L46.3936854,0.722555883 Z" id="Fill-18" fill="#E4C22F" mask="url(#mask-90)"></path>
                    </g>
                    <g id="Group-23" transform="translate(0.000000, 28.175453)">
                        <mask id="mask-92" fill="white">
                            <use xlink:href="#path-91"></use>
                        </mask>
                        <g id="Clip-22"></g>
                        <path d="M46.3936854,0.722555883 C45.577047,6.89944793 35.5204665,11.7829541 23.2268473,11.7829541 C10.9332281,11.7829541 0.877565113,6.9003543 0.0600091577,0.72346225 L0.0600091577,4.5392679 C0.0251414514,4.80755258 -0.000550542731,5.07764998 -0.000550542731,5.34956013 C-0.000550542731,11.90622 10.3982841,17.2211569 23.2268473,17.2211569 C36.0544929,17.2211569 46.4533275,11.90622 46.4533275,5.34956013 C46.4533275,5.07764998 46.4285531,4.80755258 46.3936854,4.5392679 L46.3936854,0.722555883 Z" id="Fill-21" fill="#EFD44F" mask="url(#mask-92)"></path>
                    </g>
                    <g id="Group-26" transform="translate(0.000000, 11.860844)">
                        <mask id="mask-94" fill="white">
                            <use xlink:href="#path-93"></use>
                        </mask>
                        <g id="Clip-25"></g>
                        <path d="M46.3936854,0.722555883 C45.577047,6.89944793 35.5204665,11.7829541 23.2268473,11.7829541 C10.9332281,11.7829541 0.877565113,6.9003543 0.0600091577,0.72346225 L0.0600091577,4.5392679 C0.0251414514,4.80755258 -0.000550542731,5.07764998 -0.000550542731,5.34956013 C-0.000550542731,11.90622 10.3982841,17.2211569 23.2268473,17.2211569 C36.0544929,17.2211569 46.4533275,11.90622 46.4533275,5.34956013 C46.4533275,5.07764998 46.4285531,4.80755258 46.3936854,4.5392679 L46.3936854,0.722555883 Z" id="Fill-24" fill="#E4C22F" mask="url(#mask-94)"></path>
                    </g>
                    <g id="Group-29" transform="translate(0.000000, 17.299047)">
                        <mask id="mask-96" fill="white">
                            <use xlink:href="#path-95"></use>
                        </mask>
                        <g id="Clip-28"></g>
                        <path d="M46.3936854,0.722555883 C45.577047,6.89944793 35.5204665,11.7829541 23.2268473,11.7829541 C10.9332281,11.7829541 0.877565113,6.9003543 0.0600091577,0.72346225 L0.0600091577,4.5392679 C0.0251414514,4.80755258 -0.000550542731,5.07764998 -0.000550542731,5.34956013 C-0.000550542731,11.90622 10.3982841,17.2211569 23.2268473,17.2211569 C36.0544929,17.2211569 46.4533275,11.90622 46.4533275,5.34956013 C46.4533275,5.07764998 46.4285531,4.80755258 46.3936854,4.5392679 L46.3936854,0.722555883 Z" id="Fill-27" fill="#EFD44F" mask="url(#mask-96)"></path>
                    </g>
                    <path d="M39.7018385,12.1903995 C39.7018385,16.2300778 32.3254835,19.5056886 23.2268473,19.5056886 C14.1282111,19.5056886 6.75185605,16.2300778 6.75185605,12.1903995 C6.75185605,8.14890839 14.1282111,4.87420392 23.2268473,4.87420392 C32.3254835,4.87420392 39.7018385,8.14890839 39.7018385,12.1903995" id="Fill-30" fill="#EFD44F"></path>
                    <path d="M28.3925897,11.9116009 L21.0410091,11.9116009 L21.0410091,12.3992264 L25.2499083,12.3992264 C26.7602305,12.3992264 27.8071793,12.2360804 28.3925897,11.9116009 L28.3925897,11.9116009 Z M29.0926966,10.8837806 C29.0926966,10.7895184 29.0844384,10.7124772 29.0697573,10.6508442 L21.0410091,10.6508442 L21.0410091,11.1620353 L29.0587464,11.1620353 C29.0807681,11.0786495 29.0926966,10.9862001 29.0926966,10.8837806 L29.0926966,10.8837806 Z M28.4485616,9.90218498 C28.1228238,9.70187784 27.7117519,9.56773551 27.2153458,9.49975797 C26.8602458,9.44990778 26.1904188,9.42543587 25.2049473,9.42543587 L21.0410091,9.42543587 L21.0410091,9.90218498 L28.4485616,9.90218498 Z M32.0793909,11.9116009 L30.9241687,11.9116009 C30.709457,12.1726347 30.399318,12.4164474 29.9909988,12.6439456 C29.1101304,13.1351966 27.5190619,13.3808221 25.2168757,13.3808221 L21.0410091,13.3808221 L21.0410091,16.7642906 L18.8874695,16.7642906 L18.8874695,11.9116009 L17.322093,11.9116009 L17.322093,11.1620353 L18.8874695,11.1620353 L18.8874695,10.6508442 L17.322093,10.6508442 L17.322093,9.90218498 L18.8874695,9.90218498 L18.8874695,8.44384025 L25.0278561,8.44384025 C26.0793927,8.44384025 26.9042892,8.4701249 27.5043808,8.52360056 C29.2367552,8.67858934 30.3956477,9.13721112 30.979223,9.90218498 L32.0793909,9.90218498 L32.0793909,10.6508442 L31.3022081,10.6508442 C31.3095486,10.7079454 31.3132189,10.7741102 31.3132189,10.850245 C31.3132189,10.9445072 31.3022081,11.0487394 31.2792688,11.1620353 L32.0793909,11.1620353 L32.0793909,11.9116009 Z" id="Fill-32" fill="#D7B129"></path>
                </g>
            </g>
        </g>
    </g>
</svg>