<?xml version="1.0" encoding="UTF-8"?>
<svg width="315px" height="318px" viewBox="0 0 315 318" version="1.1" xmlns="http://www.w3.org/2000/svg" xmlns:xlink="http://www.w3.org/1999/xlink">
    <!-- Generator: Sketch 46.2 (44496) - http://www.bohemiancoding.com/sketch -->
    <title>Group 5</title>
    <desc>Created with Sketch.</desc>
    <defs>
        <polygon id="path-1" points="0 13.2566339 0 0.0348957177 18.6971173 0.0348957177 37.3942345 0.0348957177 37.3942345 13.2566339"></polygon>
        <polygon id="path-3" points="0.0675397561 7.01335381 0.0675397561 16.2015832 37.461922 16.2015832 37.461922 0.0348957177 0.0675397561 0.0348957177 0.0675397561 7.01335381 0.0670965809 16.2015209 37.4614788 16.2015209 37.4614788 7.01335381"></polygon>
        <polygon id="path-5" points="0.0675397561 7.01335381 0.0675397561 16.2015832 37.461922 16.2015832 37.461922 0.0348957177 0.0675397561 0.0348957177 0.0675397561 7.01335381 0.0670965809 16.2015209 37.4614788 16.2015209 37.4614788 7.01335381"></polygon>
        <polygon id="path-7" points="0 13.2566339 0 0.0348957177 18.6971173 0.0348957177 37.3942345 0.0348957177 37.3942345 13.2566339"></polygon>
        <polygon id="path-9" points="0.0675397561 7.01335381 0.0675397561 16.2015832 37.461922 16.2015832 37.461922 0.0348957177 0.0675397561 0.0348957177 0.0675397561 7.01335381 0.0670965809 16.2015209 37.4614788 16.2015209 37.4614788 7.01335381"></polygon>
        <polygon id="path-11" points="0.0675397561 7.01335381 0.0675397561 16.2015832 37.461922 16.2015832 37.461922 0.0348957177 0.0675397561 0.0348957177 0.0675397561 7.01335381 0.0670965809 16.2015209 37.4614788 16.2015209 37.4614788 7.01335381"></polygon>
        <polygon id="path-13" points="0 13.2566339 0 0.0348957177 18.6971173 0.0348957177 37.3942345 0.0348957177 37.3942345 13.2566339"></polygon>
        <polygon id="path-15" points="0.0675397561 7.01335381 0.0675397561 16.2015832 37.461922 16.2015832 37.461922 0.0348957177 0.0675397561 0.0348957177 0.0675397561 7.01335381 0.0670965809 16.2015209 37.4614788 16.2015209 37.4614788 7.01335381"></polygon>
        <polygon id="path-17" points="0.0675397561 7.01335381 0.0675397561 16.2015832 37.461922 16.2015832 37.461922 0.0348957177 0.0675397561 0.0348957177 0.0675397561 7.01335381 0.0670965809 16.2015209 37.4614788 16.2015209 37.4614788 7.01335381"></polygon>
        <polygon id="path-19" points="0 13.2566339 0 0.0348957177 18.6971173 0.0348957177 37.3942345 0.0348957177 37.3942345 13.2566339"></polygon>
        <polygon id="path-21" points="0.0675397561 7.01335381 0.0675397561 16.2015832 37.461922 16.2015832 37.461922 0.0348957177 0.0675397561 0.0348957177 0.0675397561 7.01335381 0.0670965809 16.2015209 37.4614788 16.2015209 37.4614788 7.01335381"></polygon>
        <polygon id="path-23" points="0.0675397561 7.01335381 0.0675397561 16.2015832 37.461922 16.2015832 37.461922 0.0348957177 0.0675397561 0.0348957177 0.0675397561 7.01335381 0.0670965809 16.2015209 37.4614788 16.2015209 37.4614788 7.01335381"></polygon>
        <polygon id="path-25" points="0 13.2566339 0 0.0348957177 18.6971173 0.0348957177 37.3942345 0.0348957177 37.3942345 13.2566339"></polygon>
        <polygon id="path-27" points="0.0675397561 7.01335381 0.0675397561 16.2015832 37.461922 16.2015832 37.461922 0.0348957177 0.0675397561 0.0348957177 0.0675397561 7.01335381 0.0670965809 16.2015209 37.4614788 16.2015209 37.4614788 7.01335381"></polygon>
        <polygon id="path-29" points="0.0675397561 7.01335381 0.0675397561 16.2015832 37.461922 16.2015832 37.461922 0.0348957177 0.0675397561 0.0348957177 0.0675397561 7.01335381 0.0670965809 16.2015209 37.4614788 16.2015209 37.4614788 7.01335381"></polygon>
        <polygon id="path-31" points="0 15.3446873 0 0.0403921448 19.0222845 0.0403921448 38.0445691 0.0403921448 38.0445691 15.3446873"></polygon>
        <polygon id="path-33" points="0.0746001931 8.1180277 0.0746001931 18.7534958 38.1193195 18.7534958 38.1193195 0.0403921448 0.0746001931 0.0403921448 0.0746001931 8.1180277 0.0741493105 18.7534237 38.1188687 18.7534237 38.1188687 8.1180277"></polygon>
        <polygon id="path-35" points="0.0746001931 8.1180277 0.0746001931 18.7534958 38.1193195 18.7534958 38.1193195 0.0403921448 0.0746001931 0.0403921448 0.0746001931 8.1180277 0.0741493105 18.7534237 38.1188687 18.7534237 38.1188687 8.1180277"></polygon>
        <linearGradient x1="102.093697%" y1="-120.141127%" x2="102.093697%" y2="112.273073%" id="linearGradient-37">
            <stop stop-color="#FFFFFF" offset="0%"></stop>
            <stop stop-color="#000000" offset="100%"></stop>
        </linearGradient>
        <linearGradient x1="50%" y1="-55.8419547%" x2="50%" y2="134.832129%" id="linearGradient-38">
            <stop stop-color="#FFFFFF" stop-opacity="0.5" offset="0%"></stop>
            <stop stop-color="#000000" stop-opacity="0.5" offset="100%"></stop>
        </linearGradient>
        <path d="M71.4796101,33.900328 C71.4796101,33.8986042 71.1927539,33.8986042 70.7045468,33.8994661 C70.2163396,33.8986042 69.9294834,33.8986042 69.9294834,33.8986042 C64.9021447,33.9106712 49.301581,33.9701442 48.8703773,34.3433593 C48.8703773,34.3433593 -11.7620119,79.6937323 2.11097886,129.933826 C2.11097886,129.933826 14.9579071,157.944782 36.0243685,160.612451 L69.9294834,160.612451 L71.4796101,160.612451 L105.384725,160.612451 C126.452106,157.944782 139.297195,129.933826 139.297195,129.933826 C153.171105,79.6937323 92.5387163,34.3433593 92.5387163,34.3433593 C92.1075126,33.9701442 76.5069488,33.9106712 71.4796101,33.900328 Z" id="path-39"></path>
        <linearGradient x1="102.093697%" y1="-115.454799%" x2="102.093696%" y2="100%" id="linearGradient-40">
            <stop stop-color="#FFFFFF" offset="0%"></stop>
            <stop stop-color="#000000" offset="100%"></stop>
        </linearGradient>
        <linearGradient x1="50%" y1="-85.0435563%" x2="50%" y2="140.785295%" id="linearGradient-41">
            <stop stop-color="#FFFFFF" stop-opacity="0.5" offset="0%"></stop>
            <stop stop-color="#000000" stop-opacity="0.5" offset="100%"></stop>
        </linearGradient>
        <path d="M95.036112,3.6624077 C95.036112,3.6624077 90.6587969,4.56053729 85.989109,6.65674763 C85.989109,6.65674763 81.9032471,7.25492608 79.5688629,4.56053729 C79.5688629,4.56053729 77.2344786,0.369840472 73.1486167,0.0698893214 C73.1486167,0.0698893214 71.6380246,0.0155878201 70.7048226,0.047479178 C69.7716205,0.0155878201 68.2601091,0.0698893214 68.2601091,0.0698893214 C64.1751665,0.369840472 61.8398629,4.56053729 61.8398629,4.56053729 C59.5054787,7.25492608 55.4196168,6.65674763 55.4196168,6.65674763 C50.7508483,4.56053729 46.3726137,3.6624077 46.3726137,3.6624077 C40.8285661,3.06422925 34.6997732,8.75123411 34.6997732,8.75123411 L49.2917433,24.3193884 C49.2917433,24.1194209 66.3881885,24.3314554 70.30304,24.3831711 L70.30304,24.3943762 C70.30304,24.3943762 70.452904,24.3917904 70.7048226,24.3883427 C70.9558218,24.3917904 71.1056857,24.3943762 71.1056857,24.3943762 L71.1056857,24.3831711 C75.0205372,24.3314554 92.1179019,24.1194209 92.1179019,24.3193884 L106.708953,8.75123411 C106.708953,8.75123411 100.581079,3.06422925 95.036112,3.6624077" id="path-42"></path>
        <polygon id="path-43" points="0 18.8261397 0 0.02184955 36.5699298 0.02184955 36.5699298 18.8261397"></polygon>
        <polygon id="path-45" points="0 0.572282946 0 13.6396016 36.5696408 13.6396016 36.5696408 0.572282946 0 0.572282946"></polygon>
        <polygon id="path-47" points="0 0.572282946 0 13.6396016 36.5696408 13.6396016 36.5696408 0.572282946 0 0.572282946"></polygon>
        <polygon id="path-49" points="0 0.572282946 0 13.6396016 36.5696408 13.6396016 36.5696408 0.572282946"></polygon>
        <polygon id="path-51" points="36.5696408 13.6394581 0 13.6394581 0 0.572282946 36.5696408 0.572282946"></polygon>
        <polygon id="path-53" points="0 0.572282946 0 13.6396016 36.5696408 13.6396016 36.5696408 0.572282946"></polygon>
        <polygon id="path-55" points="0 0.572282946 0 13.6396016 36.5696408 13.6396016 36.5696408 0.572282946 0 0.572282946"></polygon>
        <polygon id="path-57" points="0 0.572282946 0 13.6396016 36.5696408 13.6396016 36.5696408 0.572282946 0 0.572282946"></polygon>
        <polygon id="path-59" points="0 0.572282946 0 13.6396016 36.5696408 13.6396016 36.5696408 0.572282946 0 0.572282946"></polygon>
        <polygon id="path-61" points="0 18.8261397 0 0.02184955 36.5699298 0.02184955 36.5699298 18.8261397"></polygon>
        <polygon id="path-63" points="0 0.572282946 0 13.6396016 36.5696408 13.6396016 36.5696408 0.572282946 0 0.572282946"></polygon>
        <polygon id="path-65" points="0 0.572282946 0 13.6396016 36.5696408 13.6396016 36.5696408 0.572282946 0 0.572282946"></polygon>
        <polygon id="path-67" points="0 0.572282946 0 13.6396016 36.5696408 13.6396016 36.5696408 0.572282946"></polygon>
        <polygon id="path-69" points="36.5696408 13.6394581 0 13.6394581 0 0.572282946 36.5696408 0.572282946"></polygon>
        <polygon id="path-71" points="0 0.572282946 0 13.6396016 36.5696408 13.6396016 36.5696408 0.572282946"></polygon>
        <polygon id="path-73" points="0 0.572282946 0 13.6396016 36.5696408 13.6396016 36.5696408 0.572282946 0 0.572282946"></polygon>
        <polygon id="path-75" points="0 0.572282946 0 13.6396016 36.5696408 13.6396016 36.5696408 0.572282946 0 0.572282946"></polygon>
        <polygon id="path-77" points="0 0.572282946 0 13.6396016 36.5696408 13.6396016 36.5696408 0.572282946 0 0.572282946"></polygon>
        <polygon id="path-79" points="0 18.8261397 0 0.02184955 36.5699298 0.02184955 36.5699298 18.8261397"></polygon>
        <polygon id="path-81" points="0 0.572282946 0 13.6396016 36.5696408 13.6396016 36.5696408 0.572282946 0 0.572282946"></polygon>
        <polygon id="path-83" points="0 0.572282946 0 13.6396016 36.5696408 13.6396016 36.5696408 0.572282946 0 0.572282946"></polygon>
        <polygon id="path-85" points="0 0.572282946 0 13.6396016 36.5696408 13.6396016 36.5696408 0.572282946"></polygon>
        <polygon id="path-87" points="36.5696408 13.6394581 0 13.6394581 0 0.572282946 36.5696408 0.572282946"></polygon>
        <polygon id="path-89" points="0 0.572282946 0 13.6396016 36.5696408 13.6396016 36.5696408 0.572282946"></polygon>
        <polygon id="path-91" points="0 0.572282946 0 13.6396016 36.5696408 13.6396016 36.5696408 0.572282946 0 0.572282946"></polygon>
        <polygon id="path-93" points="0 0.572282946 0 13.6396016 36.5696408 13.6396016 36.5696408 0.572282946 0 0.572282946"></polygon>
        <polygon id="path-95" points="0 0.572282946 0 13.6396016 36.5696408 13.6396016 36.5696408 0.572282946 0 0.572282946"></polygon>
    </defs>
    <g id="Page-1" stroke="none" stroke-width="1" fill="none" fill-rule="evenodd">
        <g id="D_Reward" transform="translate(-870.000000, -319.000000)">
            <g id="Group-5" transform="translate(870.000000, 315.000000)">
                <g id="Group-2" transform="translate(88.000000, 0.000000)">
                    <g id="Page-1" transform="translate(52.928017, 20.827818) rotate(46.000000) translate(-52.928017, -20.827818) translate(33.428017, 11.827818)">
                        <g id="Group-3" transform="translate(0.067540, 0.588491)">
                            <mask id="mask-2" fill="white">
                                <use xlink:href="#path-1"></use>
                            </mask>
                            <g id="Clip-2"></g>
                            <path d="M37.3942345,6.64576481 C37.3942345,10.2973524 29.0226556,13.2566339 18.6974127,13.2566339 C8.37069262,13.2566339 -0.000147725057,10.2973524 -0.000147725057,6.64576481 C-0.000147725057,2.99480034 8.37069262,0.0348957177 18.6974127,0.0348957177 C29.0226556,0.0348957177 37.3942345,2.99480034 37.3942345,6.64576481" id="Fill-1" fill="#EFD44F" mask="url(#mask-2)"></path>
                        </g>
                        <path d="M33.6489167,7.3827499 C33.6489167,10.1270488 26.9850394,12.352274 18.7648786,12.352274 C10.5447178,12.352274 3.88010189,10.1270488 3.88010189,7.3827499 C3.88010189,4.63782782 10.5447178,2.41260268 18.7648786,2.41260268 C26.9850394,2.41260268 33.6489167,4.63782782 33.6489167,7.3827499" id="Fill-4" fill="#E4C22F"></path>
                        <g id="Group-8" transform="translate(-0.000000, 0.588491)">
                            <mask id="mask-4" fill="white">
                                <use xlink:href="#path-3"></use>
                            </mask>
                            <g id="Clip-7"></g>
                        </g>
                        <g id="Group-11" transform="translate(-0.000000, 0.588491)">
                            <mask id="mask-6" fill="white">
                                <use xlink:href="#path-5"></use>
                            </mask>
                            <g id="Clip-10"></g>
                            <path d="M37.4134682,7.01335381 C36.7560917,10.4536977 28.6607586,13.1730711 18.764657,13.1730711 C8.86855547,13.1730711 0.773960978,10.4536977 0.11584585,7.01335381 L0.11584585,9.1388769 C0.0877780889,9.28780683 0.0670965809,9.43860619 0.0670965809,9.59065181 C0.0670965809,13.2416163 8.43793693,16.2015209 18.764657,16.2015209 C29.0906385,16.2015209 37.4614788,13.2416163 37.4614788,9.59065181 C37.4614788,9.43860619 37.441536,9.28780683 37.4134682,9.1388769 L37.4134682,7.01335381 Z" id="Fill-9" fill="#E4C22F" mask="url(#mask-6)"></path>
                        </g>
                        <path d="M37.4134682,7.60184516 C36.7560917,11.042189 28.6607586,13.7615625 18.764657,13.7615625 C8.86855547,13.7615625 0.773960978,11.042189 0.11584585,7.60184516 L0.11584585,9.72736825 C0.0877780889,9.87629819 0.0670965809,10.0270975 0.0670965809,10.1791432 C0.0670965809,13.8301076 8.43793693,16.7900123 18.764657,16.7900123 C29.0906385,16.7900123 37.4614788,13.8301076 37.4614788,10.1791432 C37.4614788,10.0270975 37.441536,9.87629819 37.4134682,9.72736825 L37.4134682,7.60184516 Z" id="Fill-6" fill="#E4C22F"></path>
                        <path d="M32.026674,7.3827499 C32.026674,9.63290056 26.0888653,11.4568249 18.764657,11.4568249 C11.4404487,11.4568249 5.50264005,9.63290056 5.50264005,7.3827499 C5.50264005,5.13259925 11.4404487,3.30805172 18.764657,3.30805172 C26.0888653,3.30805172 32.026674,5.13259925 32.026674,7.3827499" id="Fill-12" fill="#EFD44F"></path>
                        <path d="M22.9229697,7.22758859 L17.0051039,7.22758859 L17.0051039,7.49927667 L20.3931781,7.49927667 C21.6089553,7.49927667 22.4517267,7.40829855 22.9229697,7.22758859 L22.9229697,7.22758859 Z M23.4865407,6.65492493 C23.4865407,6.60258136 23.4798931,6.55958485 23.4680751,6.52593541 L17.0051039,6.52593541 L17.0051039,6.81008625 L23.4592116,6.81008625 C23.4769386,6.76397405 23.4865407,6.71225361 23.4865407,6.65492493 L23.4865407,6.65492493 Z M22.9680258,6.10843307 C22.7058138,5.99626826 22.3749097,5.92149172 21.9753134,5.88410346 C21.6894654,5.85668539 21.150269,5.84297636 20.3569854,5.84297636 L17.0051039,5.84297636 L17.0051039,6.10843307 L22.9680258,6.10843307 Z M25.890766,7.22758859 L24.9608368,7.22758859 C24.7879985,7.3727797 24.5383431,7.50862374 24.2096549,7.63512072 C23.5005746,7.90930136 22.2197984,8.04576854 20.3665875,8.04576854 L17.0051039,8.04576854 L17.0051039,9.92951416 L15.2715503,9.92951416 L15.2715503,7.22758859 L14.0114556,7.22758859 L14.0114556,6.81008625 L15.2715503,6.81008625 L15.2715503,6.52593541 L14.0114556,6.52593541 L14.0114556,6.10843307 L15.2715503,6.10843307 L15.2715503,5.29586136 L20.2144307,5.29586136 C21.0608953,5.29586136 21.7249194,5.31081666 22.2079804,5.34072728 C23.6025049,5.4267203 24.5353886,5.68282994 25.0051543,6.10843307 L25.890766,6.10843307 L25.890766,6.52593541 L25.2651504,6.52593541 C25.2710594,6.55771543 25.2740139,6.59385743 25.2740139,6.6362308 C25.2740139,6.68919751 25.2651504,6.74714933 25.2466848,6.81008625 L25.890766,6.81008625 L25.890766,7.22758859 Z" id="Fill-14" fill="#D7B129"></path>
                    </g>
                    <g id="Page-1-Copy-8" transform="translate(68.169806, 121.152378) rotate(-19.000000) translate(-68.169806, -121.152378) translate(48.669806, 112.152378)">
                        <g id="Group-3" transform="translate(0.067540, 0.588491)">
                            <mask id="mask-8" fill="white">
                                <use xlink:href="#path-7"></use>
                            </mask>
                            <g id="Clip-2"></g>
                            <path d="M37.3942345,6.64576481 C37.3942345,10.2973524 29.0226556,13.2566339 18.6974127,13.2566339 C8.37069262,13.2566339 -0.000147725057,10.2973524 -0.000147725057,6.64576481 C-0.000147725057,2.99480034 8.37069262,0.0348957177 18.6974127,0.0348957177 C29.0226556,0.0348957177 37.3942345,2.99480034 37.3942345,6.64576481" id="Fill-1" fill="#EFD44F" mask="url(#mask-8)"></path>
                        </g>
                        <path d="M33.6489167,7.3827499 C33.6489167,10.1270488 26.9850394,12.352274 18.7648786,12.352274 C10.5447178,12.352274 3.88010189,10.1270488 3.88010189,7.3827499 C3.88010189,4.63782782 10.5447178,2.41260268 18.7648786,2.41260268 C26.9850394,2.41260268 33.6489167,4.63782782 33.6489167,7.3827499" id="Fill-4" fill="#E4C22F"></path>
                        <g id="Group-8" transform="translate(0.000000, 0.588491)">
                            <mask id="mask-10" fill="white">
                                <use xlink:href="#path-9"></use>
                            </mask>
                            <g id="Clip-7"></g>
                        </g>
                        <g id="Group-11" transform="translate(0.000000, 0.588491)">
                            <mask id="mask-12" fill="white">
                                <use xlink:href="#path-11"></use>
                            </mask>
                            <g id="Clip-10"></g>
                            <path d="M37.4134682,7.01335381 C36.7560917,10.4536977 28.6607586,13.1730711 18.764657,13.1730711 C8.86855547,13.1730711 0.773960978,10.4536977 0.11584585,7.01335381 L0.11584585,9.1388769 C0.0877780889,9.28780683 0.0670965809,9.43860619 0.0670965809,9.59065181 C0.0670965809,13.2416163 8.43793693,16.2015209 18.764657,16.2015209 C29.0906385,16.2015209 37.4614788,13.2416163 37.4614788,9.59065181 C37.4614788,9.43860619 37.441536,9.28780683 37.4134682,9.1388769 L37.4134682,7.01335381 Z" id="Fill-9" fill="#E4C22F" mask="url(#mask-12)"></path>
                        </g>
                        <path d="M37.4134682,7.60184516 C36.7560917,11.042189 28.6607586,13.7615625 18.764657,13.7615625 C8.86855547,13.7615625 0.773960978,11.042189 0.11584585,7.60184516 L0.11584585,9.72736825 C0.0877780889,9.87629819 0.0670965809,10.0270975 0.0670965809,10.1791432 C0.0670965809,13.8301076 8.43793693,16.7900123 18.764657,16.7900123 C29.0906385,16.7900123 37.4614788,13.8301076 37.4614788,10.1791432 C37.4614788,10.0270975 37.441536,9.87629819 37.4134682,9.72736825 L37.4134682,7.60184516 Z" id="Fill-6" fill="#E4C22F"></path>
                        <path d="M32.026674,7.3827499 C32.026674,9.63290056 26.0888653,11.4568249 18.764657,11.4568249 C11.4404487,11.4568249 5.50264005,9.63290056 5.50264005,7.3827499 C5.50264005,5.13259925 11.4404487,3.30805172 18.764657,3.30805172 C26.0888653,3.30805172 32.026674,5.13259925 32.026674,7.3827499" id="Fill-12" fill="#EFD44F"></path>
                        <path d="M22.9229697,7.22758859 L17.0051039,7.22758859 L17.0051039,7.49927667 L20.3931781,7.49927667 C21.6089553,7.49927667 22.4517267,7.40829855 22.9229697,7.22758859 L22.9229697,7.22758859 Z M23.4865407,6.65492493 C23.4865407,6.60258136 23.4798931,6.55958485 23.4680751,6.52593541 L17.0051039,6.52593541 L17.0051039,6.81008625 L23.4592116,6.81008625 C23.4769386,6.76397405 23.4865407,6.71225361 23.4865407,6.65492493 L23.4865407,6.65492493 Z M22.9680258,6.10843307 C22.7058138,5.99626826 22.3749097,5.92149172 21.9753134,5.88410346 C21.6894654,5.85668539 21.150269,5.84297636 20.3569854,5.84297636 L17.0051039,5.84297636 L17.0051039,6.10843307 L22.9680258,6.10843307 Z M25.890766,7.22758859 L24.9608368,7.22758859 C24.7879985,7.3727797 24.5383431,7.50862374 24.2096549,7.63512072 C23.5005746,7.90930136 22.2197984,8.04576854 20.3665875,8.04576854 L17.0051039,8.04576854 L17.0051039,9.92951416 L15.2715503,9.92951416 L15.2715503,7.22758859 L14.0114556,7.22758859 L14.0114556,6.81008625 L15.2715503,6.81008625 L15.2715503,6.52593541 L14.0114556,6.52593541 L14.0114556,6.10843307 L15.2715503,6.10843307 L15.2715503,5.29586136 L20.2144307,5.29586136 C21.0608953,5.29586136 21.7249194,5.31081666 22.2079804,5.34072728 C23.6025049,5.4267203 24.5353886,5.68282994 25.0051543,6.10843307 L25.890766,6.10843307 L25.890766,6.52593541 L25.2651504,6.52593541 C25.2710594,6.55771543 25.2740139,6.59385743 25.2740139,6.6362308 C25.2740139,6.68919751 25.2651504,6.74714933 25.2466848,6.81008625 L25.890766,6.81008625 L25.890766,7.22758859 Z" id="Fill-14" fill="#D7B129"></path>
                    </g>
                    <g id="Page-1-Copy-5" transform="translate(95.506612, 76.579097) rotate(-27.000000) translate(-95.506612, -76.579097) translate(76.006612, 67.579097)">
                        <g id="Group-3" transform="translate(0.067540, 0.588491)">
                            <mask id="mask-14" fill="white">
                                <use xlink:href="#path-13"></use>
                            </mask>
                            <g id="Clip-2"></g>
                            <path d="M37.3942345,6.64576481 C37.3942345,10.2973524 29.0226556,13.2566339 18.6974127,13.2566339 C8.37069262,13.2566339 -0.000147725057,10.2973524 -0.000147725057,6.64576481 C-0.000147725057,2.99480034 8.37069262,0.0348957177 18.6974127,0.0348957177 C29.0226556,0.0348957177 37.3942345,2.99480034 37.3942345,6.64576481" id="Fill-1" fill="#EFD44F" mask="url(#mask-14)"></path>
                        </g>
                        <path d="M33.6489167,7.3827499 C33.6489167,10.1270488 26.9850394,12.352274 18.7648786,12.352274 C10.5447178,12.352274 3.88010189,10.1270488 3.88010189,7.3827499 C3.88010189,4.63782782 10.5447178,2.41260268 18.7648786,2.41260268 C26.9850394,2.41260268 33.6489167,4.63782782 33.6489167,7.3827499" id="Fill-4" fill="#E4C22F"></path>
                        <g id="Group-8" transform="translate(0.000000, 0.588491)">
                            <mask id="mask-16" fill="white">
                                <use xlink:href="#path-15"></use>
                            </mask>
                            <g id="Clip-7"></g>
                        </g>
                        <g id="Group-11" transform="translate(0.000000, 0.588491)">
                            <mask id="mask-18" fill="white">
                                <use xlink:href="#path-17"></use>
                            </mask>
                            <g id="Clip-10"></g>
                            <path d="M37.4134682,7.01335381 C36.7560917,10.4536977 28.6607586,13.1730711 18.764657,13.1730711 C8.86855547,13.1730711 0.773960978,10.4536977 0.11584585,7.01335381 L0.11584585,9.1388769 C0.0877780889,9.28780683 0.0670965809,9.43860619 0.0670965809,9.59065181 C0.0670965809,13.2416163 8.43793693,16.2015209 18.764657,16.2015209 C29.0906385,16.2015209 37.4614788,13.2416163 37.4614788,9.59065181 C37.4614788,9.43860619 37.441536,9.28780683 37.4134682,9.1388769 L37.4134682,7.01335381 Z" id="Fill-9" fill="#E4C22F" mask="url(#mask-18)"></path>
                        </g>
                        <path d="M37.4134682,7.60184516 C36.7560917,11.042189 28.6607586,13.7615625 18.764657,13.7615625 C8.86855547,13.7615625 0.773960978,11.042189 0.11584585,7.60184516 L0.11584585,9.72736825 C0.0877780889,9.87629819 0.0670965809,10.0270975 0.0670965809,10.1791432 C0.0670965809,13.8301076 8.43793693,16.7900123 18.764657,16.7900123 C29.0906385,16.7900123 37.4614788,13.8301076 37.4614788,10.1791432 C37.4614788,10.0270975 37.441536,9.87629819 37.4134682,9.72736825 L37.4134682,7.60184516 Z" id="Fill-6" fill="#E4C22F"></path>
                        <path d="M32.026674,7.3827499 C32.026674,9.63290056 26.0888653,11.4568249 18.764657,11.4568249 C11.4404487,11.4568249 5.50264005,9.63290056 5.50264005,7.3827499 C5.50264005,5.13259925 11.4404487,3.30805172 18.764657,3.30805172 C26.0888653,3.30805172 32.026674,5.13259925 32.026674,7.3827499" id="Fill-12" fill="#EFD44F"></path>
                        <path d="M22.9229697,7.22758859 L17.0051039,7.22758859 L17.0051039,7.49927667 L20.3931781,7.49927667 C21.6089553,7.49927667 22.4517267,7.40829855 22.9229697,7.22758859 L22.9229697,7.22758859 Z M23.4865407,6.65492493 C23.4865407,6.60258136 23.4798931,6.55958485 23.4680751,6.52593541 L17.0051039,6.52593541 L17.0051039,6.81008625 L23.4592116,6.81008625 C23.4769386,6.76397405 23.4865407,6.71225361 23.4865407,6.65492493 L23.4865407,6.65492493 Z M22.9680258,6.10843307 C22.7058138,5.99626826 22.3749097,5.92149172 21.9753134,5.88410346 C21.6894654,5.85668539 21.150269,5.84297636 20.3569854,5.84297636 L17.0051039,5.84297636 L17.0051039,6.10843307 L22.9680258,6.10843307 Z M25.890766,7.22758859 L24.9608368,7.22758859 C24.7879985,7.3727797 24.5383431,7.50862374 24.2096549,7.63512072 C23.5005746,7.90930136 22.2197984,8.04576854 20.3665875,8.04576854 L17.0051039,8.04576854 L17.0051039,9.92951416 L15.2715503,9.92951416 L15.2715503,7.22758859 L14.0114556,7.22758859 L14.0114556,6.81008625 L15.2715503,6.81008625 L15.2715503,6.52593541 L14.0114556,6.52593541 L14.0114556,6.10843307 L15.2715503,6.10843307 L15.2715503,5.29586136 L20.2144307,5.29586136 C21.0608953,5.29586136 21.7249194,5.31081666 22.2079804,5.34072728 C23.6025049,5.4267203 24.5353886,5.68282994 25.0051543,6.10843307 L25.890766,6.10843307 L25.890766,6.52593541 L25.2651504,6.52593541 C25.2710594,6.55771543 25.2740139,6.59385743 25.2740139,6.6362308 C25.2740139,6.68919751 25.2651504,6.74714933 25.2466848,6.81008625 L25.890766,6.81008625 L25.890766,7.22758859 Z" id="Fill-14" fill="#D7B129"></path>
                    </g>
                    <g id="Page-1-Copy-6" transform="translate(22.314132, 65.326938) rotate(19.000000) translate(-22.314132, -65.326938) translate(2.814132, 56.326938)">
                        <g id="Group-3" transform="translate(0.067540, 0.588491)">
                            <mask id="mask-20" fill="white">
                                <use xlink:href="#path-19"></use>
                            </mask>
                            <g id="Clip-2"></g>
                            <path d="M37.3942345,6.64576481 C37.3942345,10.2973524 29.0226556,13.2566339 18.6974127,13.2566339 C8.37069262,13.2566339 -0.000147725057,10.2973524 -0.000147725057,6.64576481 C-0.000147725057,2.99480034 8.37069262,0.0348957177 18.6974127,0.0348957177 C29.0226556,0.0348957177 37.3942345,2.99480034 37.3942345,6.64576481" id="Fill-1" fill="#EFD44F" mask="url(#mask-20)"></path>
                        </g>
                        <path d="M33.6489167,7.3827499 C33.6489167,10.1270488 26.9850394,12.352274 18.7648786,12.352274 C10.5447178,12.352274 3.88010189,10.1270488 3.88010189,7.3827499 C3.88010189,4.63782782 10.5447178,2.41260268 18.7648786,2.41260268 C26.9850394,2.41260268 33.6489167,4.63782782 33.6489167,7.3827499" id="Fill-4" fill="#E4C22F"></path>
                        <g id="Group-8" transform="translate(0.000000, 0.588491)">
                            <mask id="mask-22" fill="white">
                                <use xlink:href="#path-21"></use>
                            </mask>
                            <g id="Clip-7"></g>
                        </g>
                        <g id="Group-11" transform="translate(0.000000, 0.588491)">
                            <mask id="mask-24" fill="white">
                                <use xlink:href="#path-23"></use>
                            </mask>
                            <g id="Clip-10"></g>
                            <path d="M37.4134682,7.01335381 C36.7560917,10.4536977 28.6607586,13.1730711 18.764657,13.1730711 C8.86855547,13.1730711 0.773960978,10.4536977 0.11584585,7.01335381 L0.11584585,9.1388769 C0.0877780889,9.28780683 0.0670965809,9.43860619 0.0670965809,9.59065181 C0.0670965809,13.2416163 8.43793693,16.2015209 18.764657,16.2015209 C29.0906385,16.2015209 37.4614788,13.2416163 37.4614788,9.59065181 C37.4614788,9.43860619 37.441536,9.28780683 37.4134682,9.1388769 L37.4134682,7.01335381 Z" id="Fill-9" fill="#E4C22F" mask="url(#mask-24)"></path>
                        </g>
                        <path d="M37.4134682,7.60184516 C36.7560917,11.042189 28.6607586,13.7615625 18.764657,13.7615625 C8.86855547,13.7615625 0.773960978,11.042189 0.11584585,7.60184516 L0.11584585,9.72736825 C0.0877780889,9.87629819 0.0670965809,10.0270975 0.0670965809,10.1791432 C0.0670965809,13.8301076 8.43793693,16.7900123 18.764657,16.7900123 C29.0906385,16.7900123 37.4614788,13.8301076 37.4614788,10.1791432 C37.4614788,10.0270975 37.441536,9.87629819 37.4134682,9.72736825 L37.4134682,7.60184516 Z" id="Fill-6" fill="#E4C22F"></path>
                        <path d="M32.026674,7.3827499 C32.026674,9.63290056 26.0888653,11.4568249 18.764657,11.4568249 C11.4404487,11.4568249 5.50264005,9.63290056 5.50264005,7.3827499 C5.50264005,5.13259925 11.4404487,3.30805172 18.764657,3.30805172 C26.0888653,3.30805172 32.026674,5.13259925 32.026674,7.3827499" id="Fill-12" fill="#EFD44F"></path>
                        <path d="M22.9229697,7.22758859 L17.0051039,7.22758859 L17.0051039,7.49927667 L20.3931781,7.49927667 C21.6089553,7.49927667 22.4517267,7.40829855 22.9229697,7.22758859 L22.9229697,7.22758859 Z M23.4865407,6.65492493 C23.4865407,6.60258136 23.4798931,6.55958485 23.4680751,6.52593541 L17.0051039,6.52593541 L17.0051039,6.81008625 L23.4592116,6.81008625 C23.4769386,6.76397405 23.4865407,6.71225361 23.4865407,6.65492493 L23.4865407,6.65492493 Z M22.9680258,6.10843307 C22.7058138,5.99626826 22.3749097,5.92149172 21.9753134,5.88410346 C21.6894654,5.85668539 21.150269,5.84297636 20.3569854,5.84297636 L17.0051039,5.84297636 L17.0051039,6.10843307 L22.9680258,6.10843307 Z M25.890766,7.22758859 L24.9608368,7.22758859 C24.7879985,7.3727797 24.5383431,7.50862374 24.2096549,7.63512072 C23.5005746,7.90930136 22.2197984,8.04576854 20.3665875,8.04576854 L17.0051039,8.04576854 L17.0051039,9.92951416 L15.2715503,9.92951416 L15.2715503,7.22758859 L14.0114556,7.22758859 L14.0114556,6.81008625 L15.2715503,6.81008625 L15.2715503,6.52593541 L14.0114556,6.52593541 L14.0114556,6.10843307 L15.2715503,6.10843307 L15.2715503,5.29586136 L20.2144307,5.29586136 C21.0608953,5.29586136 21.7249194,5.31081666 22.2079804,5.34072728 C23.6025049,5.4267203 24.5353886,5.68282994 25.0051543,6.10843307 L25.890766,6.10843307 L25.890766,6.52593541 L25.2651504,6.52593541 C25.2710594,6.55771543 25.2740139,6.59385743 25.2740139,6.6362308 C25.2740139,6.68919751 25.2651504,6.74714933 25.2466848,6.81008625 L25.890766,6.81008625 L25.890766,7.22758859 Z" id="Fill-14" fill="#D7B129"></path>
                    </g>
                    <g id="Page-1-Copy-7" transform="translate(45.620375, 107.198941) rotate(24.000000) translate(-45.620375, -107.198941) translate(26.120375, 98.198941)">
                        <g id="Group-3" transform="translate(0.067540, 0.588491)">
                            <mask id="mask-26" fill="white">
                                <use xlink:href="#path-25"></use>
                            </mask>
                            <g id="Clip-2"></g>
                            <path d="M37.3942345,6.64576481 C37.3942345,10.2973524 29.0226556,13.2566339 18.6974127,13.2566339 C8.37069262,13.2566339 -0.000147725057,10.2973524 -0.000147725057,6.64576481 C-0.000147725057,2.99480034 8.37069262,0.0348957177 18.6974127,0.0348957177 C29.0226556,0.0348957177 37.3942345,2.99480034 37.3942345,6.64576481" id="Fill-1" fill="#EFD44F" mask="url(#mask-26)"></path>
                        </g>
                        <path d="M33.6489167,7.3827499 C33.6489167,10.1270488 26.9850394,12.352274 18.7648786,12.352274 C10.5447178,12.352274 3.88010189,10.1270488 3.88010189,7.3827499 C3.88010189,4.63782782 10.5447178,2.41260268 18.7648786,2.41260268 C26.9850394,2.41260268 33.6489167,4.63782782 33.6489167,7.3827499" id="Fill-4" fill="#E4C22F"></path>
                        <g id="Group-8" transform="translate(0.000000, 0.588491)">
                            <mask id="mask-28" fill="white">
                                <use xlink:href="#path-27"></use>
                            </mask>
                            <g id="Clip-7"></g>
                        </g>
                        <g id="Group-11" transform="translate(0.000000, 0.588491)">
                            <mask id="mask-30" fill="white">
                                <use xlink:href="#path-29"></use>
                            </mask>
                            <g id="Clip-10"></g>
                            <path d="M37.4134682,7.01335381 C36.7560917,10.4536977 28.6607586,13.1730711 18.764657,13.1730711 C8.86855547,13.1730711 0.773960978,10.4536977 0.11584585,7.01335381 L0.11584585,9.1388769 C0.0877780889,9.28780683 0.0670965809,9.43860619 0.0670965809,9.59065181 C0.0670965809,13.2416163 8.43793693,16.2015209 18.764657,16.2015209 C29.0906385,16.2015209 37.4614788,13.2416163 37.4614788,9.59065181 C37.4614788,9.43860619 37.441536,9.28780683 37.4134682,9.1388769 L37.4134682,7.01335381 Z" id="Fill-9" fill="#E4C22F" mask="url(#mask-30)"></path>
                        </g>
                        <path d="M37.4134682,7.60184516 C36.7560917,11.042189 28.6607586,13.7615625 18.764657,13.7615625 C8.86855547,13.7615625 0.773960978,11.042189 0.11584585,7.60184516 L0.11584585,9.72736825 C0.0877780889,9.87629819 0.0670965809,10.0270975 0.0670965809,10.1791432 C0.0670965809,13.8301076 8.43793693,16.7900123 18.764657,16.7900123 C29.0906385,16.7900123 37.4614788,13.8301076 37.4614788,10.1791432 C37.4614788,10.0270975 37.441536,9.87629819 37.4134682,9.72736825 L37.4134682,7.60184516 Z" id="Fill-6" fill="#E4C22F"></path>
                        <path d="M32.026674,7.3827499 C32.026674,9.63290056 26.0888653,11.4568249 18.764657,11.4568249 C11.4404487,11.4568249 5.50264005,9.63290056 5.50264005,7.3827499 C5.50264005,5.13259925 11.4404487,3.30805172 18.764657,3.30805172 C26.0888653,3.30805172 32.026674,5.13259925 32.026674,7.3827499" id="Fill-12" fill="#EFD44F"></path>
                        <path d="M22.9229697,7.22758859 L17.0051039,7.22758859 L17.0051039,7.49927667 L20.3931781,7.49927667 C21.6089553,7.49927667 22.4517267,7.40829855 22.9229697,7.22758859 L22.9229697,7.22758859 Z M23.4865407,6.65492493 C23.4865407,6.60258136 23.4798931,6.55958485 23.4680751,6.52593541 L17.0051039,6.52593541 L17.0051039,6.81008625 L23.4592116,6.81008625 C23.4769386,6.76397405 23.4865407,6.71225361 23.4865407,6.65492493 L23.4865407,6.65492493 Z M22.9680258,6.10843307 C22.7058138,5.99626826 22.3749097,5.92149172 21.9753134,5.88410346 C21.6894654,5.85668539 21.150269,5.84297636 20.3569854,5.84297636 L17.0051039,5.84297636 L17.0051039,6.10843307 L22.9680258,6.10843307 Z M25.890766,7.22758859 L24.9608368,7.22758859 C24.7879985,7.3727797 24.5383431,7.50862374 24.2096549,7.63512072 C23.5005746,7.90930136 22.2197984,8.04576854 20.3665875,8.04576854 L17.0051039,8.04576854 L17.0051039,9.92951416 L15.2715503,9.92951416 L15.2715503,7.22758859 L14.0114556,7.22758859 L14.0114556,6.81008625 L15.2715503,6.81008625 L15.2715503,6.52593541 L14.0114556,6.52593541 L14.0114556,6.10843307 L15.2715503,6.10843307 L15.2715503,5.29586136 L20.2144307,5.29586136 C21.0608953,5.29586136 21.7249194,5.31081666 22.2079804,5.34072728 C23.6025049,5.4267203 24.5353886,5.68282994 25.0051543,6.10843307 L25.890766,6.10843307 L25.890766,6.52593541 L25.2651504,6.52593541 C25.2710594,6.55771543 25.2740139,6.59385743 25.2740139,6.6362308 C25.2740139,6.68919751 25.2651504,6.74714933 25.2466848,6.81008625 L25.890766,6.81008625 L25.890766,7.22758859 Z" id="Fill-14" fill="#D7B129"></path>
                    </g>
                </g>
                <g id="Page-1" transform="translate(274.000000, 288.000000) scale(-1, 1) translate(-274.000000, -288.000000) translate(233.000000, 262.000000)">
                    <polygon id="Fill-1" fill="#32323A" points="17.7489358 16.937486 17.7489358 45.0894191 40.7446082 51.375642 40.746189 51.375642 63.7418615 45.0894191 63.7418615 16.937486"></polygon>
                    <polygon id="Fill-2" fill="#EEC930" points="3.28912334 35.4194695 4.63280558 35.4194695 4.63280558 14.0850552 3.28912334 14.0850552"></polygon>
                    <g id="Group-7" transform="translate(0.000000, 0.219685)">
                        <path d="M6.57123846,44.7677591 L6.57123846,37.2275636 C6.57123846,35.8068793 5.40249838,34.6552187 3.96080638,34.6552187 C2.51964132,34.6552187 1.35063777,35.8068793 1.35063777,37.2275636 L1.35063777,44.7677591 L6.57123846,44.7677591 Z" id="Fill-3" fill="#EEC930"></path>
                        <polygon id="Fill-5" fill="#3F3E3B" points="40.7457938 27.6902821 7.90401316e-05 13.8649024 40.7457938 0.0400419519 81.4915086 13.8649024"></polygon>
                    </g>
                </g>
                <g id="Page-1-Copy-9" transform="translate(221.000000, 298.000000)">
                    <g id="Group-3" transform="translate(0.074600, 0.024722)">
                        <mask id="mask-32" fill="white">
                            <use xlink:href="#path-31"></use>
                        </mask>
                        <g id="Clip-2"></g>
                        <path d="M38.0445691,7.69253973 C38.0445691,11.9192892 29.5273974,15.3446873 19.0225851,15.3446873 C8.51626988,15.3446873 -0.000150294188,11.9192892 -0.000150294188,7.69253973 C-0.000150294188,3.46651157 8.51626988,0.0403921448 19.0225851,0.0403921448 C29.5273974,0.0403921448 38.0445691,3.46651157 38.0445691,7.69253973" id="Fill-1" fill="#EFD44F" mask="url(#mask-32)"></path>
                    </g>
                    <path d="M34.2400011,7.88914437 C34.2400011,11.065698 27.4602303,13.6414186 19.0971102,13.6414186 C10.7339901,13.6414186 3.95346775,11.065698 3.95346775,7.88914437 C3.95346775,4.7118694 10.7339901,2.13614888 19.0971102,2.13614888 C27.4602303,2.13614888 34.2400011,4.7118694 34.2400011,7.88914437" id="Fill-4" fill="#E4C22F"></path>
                    <g id="Group-8" transform="translate(0.000000, 0.024722)">
                        <mask id="mask-34" fill="white">
                            <use xlink:href="#path-33"></use>
                        </mask>
                        <g id="Clip-7"></g>
                    </g>
                    <g id="Group-11" transform="translate(0.000000, 0.024722)">
                        <mask id="mask-36" fill="white">
                            <use xlink:href="#path-35"></use>
                        </mask>
                        <g id="Clip-10"></g>
                        <path d="M38.0700231,8.1180277 C37.4012139,12.1002604 29.1650924,15.2479626 19.0968847,15.2479626 C9.02867705,15.2479626 0.793307001,12.1002604 0.123746393,8.1180277 L0.123746393,10.5783421 C0.0951904969,10.75073 0.0741493105,10.9252818 0.0741493105,11.1012761 C0.0741493105,15.3273043 8.59056949,18.7534237 19.0968847,18.7534237 C29.6024485,18.7534237 38.1188687,15.3273043 38.1188687,11.1012761 C38.1188687,10.9252818 38.0985789,10.75073 38.0700231,10.5783421 L38.0700231,8.1180277 Z" id="Fill-9" fill="#E4C22F" mask="url(#mask-36)"></path>
                    </g>
                    <path d="M38.0700231,8.14274933 C37.4012139,12.124982 29.1650924,15.2726842 19.0968847,15.2726842 C9.02867705,15.2726842 0.793307001,12.124982 0.123746393,8.14274933 L0.123746393,10.6030637 C0.0951904969,10.7754516 0.0741493105,10.9500034 0.0741493105,11.1259977 C0.0741493105,15.3520259 8.59056949,18.7781453 19.0968847,18.7781453 C29.6024485,18.7781453 38.1188687,15.3520259 38.1188687,11.1259977 C38.1188687,10.9500034 38.0985789,10.7754516 38.0700231,10.6030637 L38.0700231,8.14274933 Z" id="Fill-6" fill="#E4C22F"></path>
                    <path d="M32.5895455,7.88914437 C32.5895455,10.4937164 26.5484706,12.6049273 19.0968847,12.6049273 C11.6452989,12.6049273 5.60422397,10.4937164 5.60422397,7.88914437 C5.60422397,5.28457231 11.6452989,3.17264017 19.0968847,3.17264017 C26.5484706,3.17264017 32.5895455,5.28457231 32.5895455,7.88914437" id="Fill-12" fill="#EFD44F"></path>
                    <path d="M23.3275158,7.70954358 L17.3067306,7.70954358 L17.3067306,8.02402528 L20.7537279,8.02402528 C21.990649,8.02402528 22.8480774,7.91871719 23.3275158,7.70954358 L23.3275158,7.70954358 Z M23.9008882,7.04667963 C23.9008882,6.98609142 23.8941249,6.93632252 23.8821014,6.89737295 L17.3067306,6.89737295 L17.3067306,7.22628042 L23.8730837,7.22628042 C23.891119,7.17290509 23.9008882,7.11303816 23.9008882,7.04667963 L23.9008882,7.04667963 Z M23.3733556,6.41410979 C23.1065834,6.2842779 22.7699244,6.1977233 22.3633786,6.154446 C22.0725594,6.12270932 21.5239856,6.10684098 20.7169058,6.10684098 L17.3067306,6.10684098 L17.3067306,6.41410979 L23.3733556,6.41410979 Z M26.3469261,7.70954358 L25.4008242,7.70954358 C25.22498,7.87760376 24.9709828,8.03484461 24.6365782,8.18126613 C23.9151661,8.49863298 22.6121155,8.65659512 20.7266749,8.65659512 L17.3067306,8.65659512 L17.3067306,10.8370497 L15.5430283,10.8370497 L15.5430283,7.70954358 L14.2610189,7.70954358 L14.2610189,7.22628042 L15.5430283,7.22628042 L15.5430283,6.89737295 L14.2610189,6.89737295 L14.2610189,6.41410979 L15.5430283,6.41410979 L15.5430283,5.47354985 L20.5718719,5.47354985 C21.4330576,5.47354985 22.10863,5.49086077 22.600092,5.52548261 C24.0188691,5.62502039 24.9679769,5.92146988 25.4459124,6.41410979 L26.3469261,6.41410979 L26.3469261,6.89737295 L25.7104302,6.89737295 C25.716442,6.93415866 25.7194478,6.97599338 25.7194478,7.02504098 C25.7194478,7.08635049 25.7104302,7.1534303 25.6916434,7.22628042 L26.3469261,7.22628042 L26.3469261,7.70954358 Z" id="Fill-14" fill="#D7B129"></path>
                </g>
                <g id="Group-4" opacity="0.137794384" transform="translate(207.500000, 190.500000) rotate(-4.000000) translate(-207.500000, -190.500000) translate(116.000000, 130.000000)">
                    <polyline id="Path-7" stroke="#979797" stroke-width="10" stroke-linecap="round" stroke-linejoin="round" points="0.44430361 120.887356 66.3236897 73.1177032 100.294222 70.2302882 156.553214 27.3965334"></polyline>
                    <polygon id="Triangle" fill="#979797" transform="translate(159.462367, 24.546059) rotate(-308.000000) translate(-159.462367, -24.546059) " points="159.462367 9.86697256 178.596153 39.2251462 140.328581 39.2251462"></polygon>
                </g>
                <g id="Page-1" transform="translate(79.000000, 141.000000)">
                    <g id="Fill-1">
                        <use fill="#FBCFCC" xlink:href="#path-39"></use>
                        <use fill-opacity="0.560000002" fill="url(#linearGradient-37)" style="mix-blend-mode: overlay;" xlink:href="#path-39"></use>
                        <use fill="#424559" style="mix-blend-mode: overlay;" xlink:href="#path-39"></use>
                        <use fill="url(#linearGradient-38)" style="mix-blend-mode: overlay;" xlink:href="#path-39"></use>
                    </g>
                    <g id="Fill-4">
                        <use fill="#FBCFCC" xlink:href="#path-42"></use>
                        <use fill="url(#linearGradient-40)" style="mix-blend-mode: overlay;" xlink:href="#path-42"></use>
                        <use fill-opacity="0.840000033" fill="url(#linearGradient-41)" style="mix-blend-mode: overlay;" xlink:href="#path-42"></use>
                    </g>
                    <g id="Group-9" transform="translate(52.068391, 75.574103)">
                        <path d="M28.7536519,20.8443838 L9.98175571,20.8443838 L9.98175571,23.3073553 L20.728611,23.3073553 C24.5858499,23.3073553 27.2603549,22.4863648 28.7536519,20.8443838 L28.7536519,20.8443838 Z M30.5399618,15.6586532 C30.5399618,15.1814766 30.5216485,14.7898679 30.4842588,14.4845982 L9.98175571,14.4845982 L9.98175571,17.0624313 L30.4552628,17.0624313 C30.5117288,16.6430709 30.5399618,16.174374 30.5399618,15.6586532 L30.5399618,15.6586532 Z M28.89558,10.7034166 C28.0638509,9.69047625 27.0146514,9.01287001 25.7487445,8.66905615 C24.8414731,8.42160268 23.1299425,8.2974905 20.6156789,8.2974905 L9.98175571,8.2974905 L9.98175571,10.7034166 L28.89558,10.7034166 Z M38.1682145,20.8443838 L35.2190101,20.8443838 C34.6711372,22.161823 33.8767978,23.3944651 32.837518,24.5392265 C30.5880342,27.0222409 26.5232445,28.2633627 20.644675,28.2633627 L9.98175571,28.2633627 L9.98175571,45.3368815 L4.48089803,45.3368815 L4.48089803,20.8443838 L0.483257116,20.8443838 L0.483257116,17.0624313 L4.48089803,17.0624313 L4.48089803,14.4845982 L0.483257116,14.4845982 L0.483257116,10.7034166 L4.48089803,10.7034166 L4.48089803,3.34071219 L20.1624248,3.34071219 C22.8460863,3.34071219 24.9544051,3.47484585 26.4850918,3.7415714 C30.90928,4.52478862 33.8676411,6.84591763 35.3609382,10.7034166 L38.1682145,10.7034166 L38.1682145,14.4845982 L36.1827475,14.4845982 C36.2018239,14.7713667 36.2117436,15.1051591 36.2117436,15.4875171 C36.2117436,15.9646938 36.1827475,16.4896652 36.1270446,17.0624313 L38.1682145,17.0624313 L38.1682145,20.8443838 Z" id="Fill-9" fill="#FACBCE" style="mix-blend-mode: overlay;" opacity="0.14283288"></path>
                        <path d="M28.7536519,17.6550656 L9.98175571,17.6550656 L9.98175571,20.1180371 L20.728611,20.1180371 C24.5858499,20.1180371 27.2603549,19.2970466 28.7536519,17.6550656 L28.7536519,17.6550656 Z M30.5399618,12.469335 C30.5399618,11.9921583 30.5216485,11.6005497 30.4842588,11.29528 L9.98175571,11.29528 L9.98175571,13.8731131 L30.4552628,13.8731131 C30.5117288,13.4537527 30.5399618,12.9850558 30.5399618,12.469335 L30.5399618,12.469335 Z M28.89558,7.51409844 C28.0638509,6.50115805 27.0146514,5.82355181 25.7487445,5.47973795 C24.8414731,5.23228448 23.1299425,5.1081723 20.6156789,5.1081723 L9.98175571,5.1081723 L9.98175571,7.51409844 L28.89558,7.51409844 Z M38.1682145,17.6550656 L35.2190101,17.6550656 C34.6711372,18.9725048 33.8767978,20.2051469 32.837518,21.3499083 C30.5880342,23.8329227 26.5232445,25.0740445 20.644675,25.0740445 L9.98175571,25.0740445 L9.98175571,42.1475633 L4.48089803,42.1475633 L4.48089803,17.6550656 L0.483257116,17.6550656 L0.483257116,13.8731131 L4.48089803,13.8731131 L4.48089803,11.29528 L0.483257116,11.29528 L0.483257116,7.51409844 L4.48089803,7.51409844 L4.48089803,0.151393985 L20.1624248,0.151393985 C22.8460863,0.151393985 24.9544051,0.285527644 26.4850918,0.552253196 C30.90928,1.33547042 33.8676411,3.65659943 35.3609382,7.51409844 L38.1682145,7.51409844 L38.1682145,11.29528 L36.1827475,11.29528 C36.2018239,11.5820485 36.2117436,11.9158409 36.2117436,12.2981989 C36.2117436,12.7753756 36.1827475,13.300347 36.1270446,13.8731131 L38.1682145,13.8731131 L38.1682145,17.6550656 Z" id="Fill-9" fill="#C6645D"></path>
                    </g>
                    <path d="M90.9422512,35.3136168 L50.4670262,35.3136168 C47.3934356,35.3136168 44.8779275,32.7557446 44.8779275,29.6292486 C44.8779275,26.5027526 47.3934356,23.9448804 50.4670262,23.9448804 L90.9422512,23.9448804 C94.0158418,23.9448804 96.5304305,26.5027526 96.5304305,29.6292486 C96.5304305,32.7557446 94.0158418,35.3136168 90.9422512,35.3136168" id="Fill-7" fill="#E9E9E9"></path>
                </g>
                <g id="Page-1" transform="translate(0.000000, 219.000000)">
                    <polygon id="Fill-1" fill="#06845A" points="0 79.7786006 102.92359 79.7786006 102.92359 33.5563575 0 33.5563575"></polygon>
                    <polygon id="Fill-2" fill="#0B9B67" points="0 77.3383262 102.92359 77.3383262 102.92359 31.116083 0 31.116083"></polygon>
                    <polygon id="Fill-3" fill="#06845A" points="0 71.7400495 102.92359 71.7400495 102.92359 25.5183805 0 25.5183805"></polygon>
                    <polygon id="Fill-4" fill="#0B9B67" points="0 69.2997751 102.92359 69.2997751 102.92359 23.0781061 0 23.0781061"></polygon>
                    <polygon id="Fill-5" fill="#06845A" points="0 63.7014984 102.92359 63.7014984 102.92359 17.4792552 0 17.4792552"></polygon>
                    <polygon id="Fill-6" fill="#0B9B67" points="0 61.2606498 102.92359 61.2606498 102.92359 15.0389808 0 15.0389808"></polygon>
                    <polygon id="Fill-7" fill="#06845A" points="0 55.6629473 102.92359 55.6629473 102.92359 9.4412783 0 9.4412783"></polygon>
                    <polygon id="Fill-8" fill="#0B9B67" points="0 53.2226728 102.92359 53.2226728 102.92359 7.00042967 0 7.00042967"></polygon>
                    <polygon id="Fill-9" fill="#2BC19A" points="0 46.221669 102.92359 46.221669 102.92359 2.84217094e-14 0 2.84217094e-14"></polygon>
                    <path d="M7.86676017,38.8663947 L95.0574082,38.8663947 L95.0574082,7.35527428 L7.86676017,7.35527428 L7.86676017,38.8663947 Z M4.58648598,41.6506043 L98.3376824,41.6506043 L98.3376824,4.5704905 L4.58648598,4.5704905 L4.58648598,41.6506043 Z" id="Fill-10" fill="#0A996D"></path>
                    <g id="Group-25" transform="translate(4.047580, 1.115636)">
                        <path d="M69.3676514,21.8759982 C69.3676514,33.9160252 59.5389716,43.6759747 47.4141576,43.6759747 C35.2899219,43.6759747 25.4606638,33.9160252 25.4606638,21.8759982 C25.4606638,9.83597116 35.2899219,0.0760217264 47.4141576,0.0760217264 C59.5389716,0.0760217264 69.3676514,9.83597116 69.3676514,21.8759982" id="Fill-11" fill="#2BC19A"></path>
                        <path d="M65.1342879,21.8759982 C65.1342879,31.5940323 57.2004535,39.4723866 47.4139841,39.4723866 C37.628093,39.4723866 29.6948369,31.5940323 29.6948369,21.8759982 C29.6948369,12.1579641 37.628093,4.27960978 47.4139841,4.27960978 C57.2004535,4.27960978 65.1342879,12.1579641 65.1342879,21.8759982" id="Fill-13" fill="#0A996D"></path>
                        <path d="M94.2420522,30.7993641 C94.2125627,30.7987899 94.1842296,30.7947707 94.1553184,30.7947707 C88.9056075,30.7947707 84.6504449,35.0207518 84.6504449,40.2331781 C84.6504449,40.3348083 84.6625876,40.4335677 84.6654787,40.5351979 L94.2420522,40.5351979 L94.2420522,30.7993641 Z" id="Fill-15" fill="#0A996D"></path>
                        <path d="M0.491607461,30.7993641 C0.521096969,30.7987899 0.549430027,30.7947707 0.578919536,30.7947707 C5.82805212,30.7947707 10.083793,35.0207518 10.083793,40.2331781 C10.083793,40.3348083 10.0710721,40.4335677 10.0681809,40.5351979 L0.491607461,40.5351979 L0.491607461,30.7993641 Z" id="Fill-17" fill="#0A996D"></path>
                        <path d="M94.2420522,13.1909179 C94.2125627,13.1909179 94.1842296,13.1955113 94.1553184,13.1955113 C88.9056075,13.1955113 84.6504449,8.96953018 84.6504449,3.75710396 C84.6504449,3.65547371 84.6625876,3.55614018 84.6654787,3.45508411 L94.2420522,3.45508411 L94.2420522,13.1909179 Z" id="Fill-19" fill="#0A996D"></path>
                        <path d="M0.491607461,13.1909179 C0.521096969,13.1909179 0.549430027,13.1955113 0.578919536,13.1955113 C5.82805212,13.1955113 10.083793,8.96953018 10.083793,3.75710396 C10.083793,3.65547371 10.0710721,3.55614018 10.0681809,3.45508411 L0.491607461,3.45508411 L0.491607461,13.1909179 Z" id="Fill-21" fill="#0A996D"></path>
                        <path d="M53.9305874,27.4933377 C53.3673956,27.1448091 52.4214184,26.9289166 51.5199646,26.5367501 C51.4881622,26.5172279 51.4459517,26.4977057 51.3840816,26.4781836 C51.2273824,26.4064108 51.0764655,26.3317671 50.929018,26.2554009 C49.829811,25.5083898 49.9876666,23.6951223 50.127019,23.5843051 C51.2077227,22.7287736 51.7576153,21.8749647 52.0606056,20.9884273 C52.484445,20.8471785 53.0424328,20.1294507 53.0424328,19.2595646 C53.0424328,18.4849928 52.8203941,17.8344444 52.5139345,17.600178 C52.5162474,17.4038077 52.5191385,17.218921 52.5260772,17.1259035 C52.7255651,14.5937599 51.2389469,12.6564691 49.2388643,11.9048645 C48.6479177,11.6832302 48.0136042,11.5109755 47.3636785,11.5109755 C46.9028327,11.5109755 46.4518166,11.6338505 46.022195,11.7630415 C43.7902439,12.4308155 42.0919951,14.6925192 42.2007015,17.1259035 C42.2047491,17.2143276 42.2064838,17.4043819 42.2087967,17.6024747 C41.9040718,17.8401862 41.684346,18.4884379 41.684346,19.2595646 C41.684346,20.231081 42.4522297,21.018859 42.8801167,21.018859 C42.8818514,21.018859 42.8830078,21.0177106 42.8841643,21.0177106 C43.2744666,21.9151574 43.8515358,22.7655213 44.6703034,23.5843051 C44.7969348,23.7111994 44.8813557,25.3125936 43.9897317,26.1130037 C42.8760691,26.5103378 41.4443824,27.1281578 40.7956132,27.4933377 C39.1690644,28.4085842 39.0221951,28.7462033 39.0221951,30.0828996 L39.0221951,31.6900356 L55.8069297,31.6900356 L55.8069297,30.0828996 C55.8069297,28.8214212 55.3877161,28.3959522 53.9305874,27.4933377" id="Fill-23" fill="#2BC19A"></path>
                    </g>
                </g>
                <g id="Page-1" transform="translate(89.000000, 275.000000)">
                    <g id="Group-3" transform="translate(0.000000, 0.019885)">
                        <mask id="mask-44" fill="white">
                            <use xlink:href="#path-43"></use>
                        </mask>
                        <g id="Clip-2"></g>
                        <path d="M36.5699298,9.42424587 C36.5699298,14.6165722 28.3828908,18.8261397 18.2852538,18.8261397 C8.18617214,18.8261397 -0.00014446866,14.6165722 -0.00014446866,9.42424587 C-0.00014446866,4.23120167 8.18617214,0.0216341901 18.2852538,0.0216341901 C28.3828908,0.0216341901 36.5699298,4.23120167 36.5699298,9.42424587" id="Fill-1" fill="#EFD44F" mask="url(#mask-44)"></path>
                    </g>
                    <path d="M32.8411214,9.65511164 C32.8411214,13.5581502 26.3241402,16.7225045 18.2851816,16.7225045 C10.246223,16.7225045 3.72851941,13.5581502 3.72851941,9.65511164 C3.72851941,5.75135517 10.246223,2.58700089 18.2851816,2.58700089 C26.3241402,2.58700089 32.8411214,5.75135517 32.8411214,9.65511164" id="Fill-4" fill="#E4C22F"></path>
                    <g id="Group-8" transform="translate(0.000000, 9.394095)">
                        <mask id="mask-46" fill="white">
                            <use xlink:href="#path-45"></use>
                        </mask>
                        <g id="Clip-7"></g>
                        <path d="M36.5226885,0.572282946 C35.879803,5.4645412 27.9629204,9.33240436 18.2849649,9.33240436 C8.60700935,9.33240436 0.690849132,5.46525906 0.0472412518,0.573000812 L0.0472412518,3.59521757 C0.0197922064,3.80770597 -0.00043340598,4.02163011 -0.00043340598,4.23698997 C-0.00043340598,9.43003417 8.18588321,13.6396016 18.2849649,13.6396016 C28.3833242,13.6396016 36.5696408,9.43003417 36.5696408,4.23698997 C36.5696408,4.02163011 36.5501375,3.80770597 36.5226885,3.59521757 L36.5226885,0.572282946 Z" id="Fill-6" fill="#E4C22F" mask="url(#mask-46)"></path>
                    </g>
                    <g id="Group-11" transform="translate(0.000000, 13.701293)">
                        <mask id="mask-48" fill="white">
                            <use xlink:href="#path-47"></use>
                        </mask>
                        <g id="Clip-10"></g>
                        <path d="M36.5226885,0.572282946 C35.879803,5.4645412 27.9629204,9.33240436 18.2849649,9.33240436 C8.60700935,9.33240436 0.690849132,5.46525906 0.0472412518,0.573000812 L0.0472412518,3.59521757 C0.0197922064,3.80770597 -0.00043340598,4.02163011 -0.00043340598,4.23698997 C-0.00043340598,9.43003417 8.18588321,13.6396016 18.2849649,13.6396016 C28.3833242,13.6396016 36.5696408,9.43003417 36.5696408,4.23698997 C36.5696408,4.02163011 36.5501375,3.80770597 36.5226885,3.59521757 L36.5226885,0.572282946 Z" id="Fill-9" fill="#EFD44F" mask="url(#mask-48)"></path>
                    </g>
                    <g id="Group-14" transform="translate(0.000000, 26.622885)">
                        <mask id="mask-50" fill="white">
                            <use xlink:href="#path-49"></use>
                        </mask>
                        <g id="Clip-13"></g>
                        <path d="M36.5226885,0.572282946 C35.879803,5.4645412 27.9629204,9.33240436 18.2849649,9.33240436 C8.60700935,9.33240436 0.690849132,5.46525906 0.0472412518,0.573000812 L0.0472412518,3.59521757 C0.0197922064,3.80770597 -0.00043340598,4.02163011 -0.00043340598,4.23698997 C-0.00043340598,9.43003417 8.18588321,13.6396016 18.2849649,13.6396016 C28.3833242,13.6396016 36.5696408,9.43003417 36.5696408,4.23698997 C36.5696408,4.02163011 36.5501375,3.80770597 36.5226885,3.59521757 L36.5226885,0.572282946 Z" id="Fill-12" fill="#E4C22F" mask="url(#mask-50)"></path>
                    </g>
                    <g id="Group-17" transform="translate(0.000000, 30.930082)">
                        <mask id="mask-52" fill="white">
                            <use xlink:href="#path-51"></use>
                        </mask>
                        <g id="Clip-16"></g>
                        <path d="M36.5226885,0.572282946 C35.879803,5.4645412 27.9629204,9.33240436 18.2849649,9.33240436 C8.60700935,9.33240436 0.690849132,5.46525906 0.0472412518,0.573000812 L0.0472412518,3.59521757 C0.0197922064,3.80770597 -0.00043340598,4.02163011 -0.00043340598,4.23698997 C-0.00043340598,9.43003417 8.18588321,13.6396016 18.2849649,13.6396016 C28.3833242,13.6396016 36.5696408,9.43003417 36.5696408,4.23698997 C36.5696408,4.02163011 36.5501375,3.80770597 36.5226885,3.59521757 L36.5226885,0.572282946 Z" id="Fill-15" fill="#EFD44F" mask="url(#mask-52)"></path>
                    </g>
                    <g id="Group-20" transform="translate(0.000000, 18.008490)">
                        <mask id="mask-54" fill="white">
                            <use xlink:href="#path-53"></use>
                        </mask>
                        <g id="Clip-19"></g>
                        <path d="M36.5226885,0.572282946 C35.879803,5.4645412 27.9629204,9.33240436 18.2849649,9.33240436 C8.60700935,9.33240436 0.690849132,5.46525906 0.0472412518,0.573000812 L0.0472412518,3.59521757 C0.0197922064,3.80770597 -0.00043340598,4.02163011 -0.00043340598,4.23698997 C-0.00043340598,9.43003417 8.18588321,13.6396016 18.2849649,13.6396016 C28.3833242,13.6396016 36.5696408,9.43003417 36.5696408,4.23698997 C36.5696408,4.02163011 36.5501375,3.80770597 36.5226885,3.59521757 L36.5226885,0.572282946 Z" id="Fill-18" fill="#E4C22F" mask="url(#mask-54)"></path>
                    </g>
                    <g id="Group-23" transform="translate(0.000000, 22.315687)">
                        <mask id="mask-56" fill="white">
                            <use xlink:href="#path-55"></use>
                        </mask>
                        <g id="Clip-22"></g>
                        <path d="M36.5226885,0.572282946 C35.879803,5.4645412 27.9629204,9.33240436 18.2849649,9.33240436 C8.60700935,9.33240436 0.690849132,5.46525906 0.0472412518,0.573000812 L0.0472412518,3.59521757 C0.0197922064,3.80770597 -0.00043340598,4.02163011 -0.00043340598,4.23698997 C-0.00043340598,9.43003417 8.18588321,13.6396016 18.2849649,13.6396016 C28.3833242,13.6396016 36.5696408,9.43003417 36.5696408,4.23698997 C36.5696408,4.02163011 36.5501375,3.80770597 36.5226885,3.59521757 L36.5226885,0.572282946 Z" id="Fill-21" fill="#EFD44F" mask="url(#mask-56)"></path>
                    </g>
                    <g id="Group-26" transform="translate(0.000000, 9.394095)">
                        <mask id="mask-58" fill="white">
                            <use xlink:href="#path-57"></use>
                        </mask>
                        <g id="Clip-25"></g>
                        <path d="M36.5226885,0.572282946 C35.879803,5.4645412 27.9629204,9.33240436 18.2849649,9.33240436 C8.60700935,9.33240436 0.690849132,5.46525906 0.0472412518,0.573000812 L0.0472412518,3.59521757 C0.0197922064,3.80770597 -0.00043340598,4.02163011 -0.00043340598,4.23698997 C-0.00043340598,9.43003417 8.18588321,13.6396016 18.2849649,13.6396016 C28.3833242,13.6396016 36.5696408,9.43003417 36.5696408,4.23698997 C36.5696408,4.02163011 36.5501375,3.80770597 36.5226885,3.59521757 L36.5226885,0.572282946 Z" id="Fill-24" fill="#E4C22F" mask="url(#mask-58)"></path>
                    </g>
                    <g id="Group-29" transform="translate(0.000000, 13.701293)">
                        <mask id="mask-60" fill="white">
                            <use xlink:href="#path-59"></use>
                        </mask>
                        <g id="Clip-28"></g>
                        <path d="M36.5226885,0.572282946 C35.879803,5.4645412 27.9629204,9.33240436 18.2849649,9.33240436 C8.60700935,9.33240436 0.690849132,5.46525906 0.0472412518,0.573000812 L0.0472412518,3.59521757 C0.0197922064,3.80770597 -0.00043340598,4.02163011 -0.00043340598,4.23698997 C-0.00043340598,9.43003417 8.18588321,13.6396016 18.2849649,13.6396016 C28.3833242,13.6396016 36.5696408,9.43003417 36.5696408,4.23698997 C36.5696408,4.02163011 36.5501375,3.80770597 36.5226885,3.59521757 L36.5226885,0.572282946 Z" id="Fill-27" fill="#EFD44F" mask="url(#mask-60)"></path>
                    </g>
                    <path d="M31.2546388,9.65511164 C31.2546388,12.8546414 25.447721,15.4490099 18.2849649,15.4490099 C11.1222087,15.4490099 5.31529093,12.8546414 5.31529093,9.65511164 C5.31529093,6.45414619 11.1222087,3.86049556 18.2849649,3.86049556 C25.447721,3.86049556 31.2546388,6.45414619 31.2546388,9.65511164" id="Fill-30" fill="#EFD44F"></path>
                    <path d="M22.3516132,9.43429599 L16.5641987,9.43429599 L16.5641987,9.82050802 L19.8775874,9.82050802 C21.0665645,9.82050802 21.8907582,9.6912921 22.3516132,9.43429599 L22.3516132,9.43429599 Z M22.9027611,8.62023571 C22.9027611,8.54557762 22.89626,8.48455899 22.8847025,8.43574409 L16.5641987,8.43574409 L16.5641987,8.84062063 L22.8760344,8.84062063 C22.8933707,8.77457694 22.9027611,8.70135459 22.9027611,8.62023571 L22.9027611,8.62023571 Z M22.3956761,7.8427866 C22.1392443,7.68413816 21.8156345,7.57789396 21.4248467,7.524054 C21.1452999,7.48457135 20.6179893,7.46518897 19.8421926,7.46518897 L16.5641987,7.46518897 L16.5641987,7.8427866 L22.3956761,7.8427866 Z M25.2539886,9.43429599 L24.3445583,9.43429599 C24.17553,9.64104146 23.931378,9.83414747 23.6099352,10.0143319 C22.9164856,10.4034154 21.6639424,10.5979571 19.851583,10.5979571 L16.5641987,10.5979571 L16.5641987,13.2777517 L14.8688589,13.2777517 L14.8688589,9.43429599 L13.6365413,9.43429599 L13.6365413,8.84062063 L14.8688589,8.84062063 L14.8688589,8.43574409 L13.6365413,8.43574409 L13.6365413,7.8427866 L14.8688589,7.8427866 L14.8688589,6.68773986 L19.7027803,6.68773986 C20.5305857,6.68773986 21.1799724,6.70855798 21.6523849,6.75091208 C23.016169,6.87366721 23.9284886,7.23690751 24.3878989,7.8427866 L25.2539886,7.8427866 L25.2539886,8.43574409 L24.6421638,8.43574409 C24.6479425,8.48096966 24.6508319,8.53337389 24.6508319,8.59367466 C24.6508319,8.66833274 24.6421638,8.75088736 24.6241052,8.84062063 L25.2539886,8.84062063 L25.2539886,9.43429599 Z" id="Fill-32" fill="#D7B129"></path>
                </g>
                <g id="Page-1-Copy-3" transform="translate(89.000000, 249.000000)">
                    <g id="Group-3" transform="translate(0.000000, 0.019885)">
                        <mask id="mask-62" fill="white">
                            <use xlink:href="#path-61"></use>
                        </mask>
                        <g id="Clip-2"></g>
                        <path d="M36.5699298,9.42424587 C36.5699298,14.6165722 28.3828908,18.8261397 18.2852538,18.8261397 C8.18617214,18.8261397 -0.00014446866,14.6165722 -0.00014446866,9.42424587 C-0.00014446866,4.23120167 8.18617214,0.0216341901 18.2852538,0.0216341901 C28.3828908,0.0216341901 36.5699298,4.23120167 36.5699298,9.42424587" id="Fill-1" fill="#EFD44F" mask="url(#mask-62)"></path>
                    </g>
                    <path d="M32.8411214,9.65511164 C32.8411214,13.5581502 26.3241402,16.7225045 18.2851816,16.7225045 C10.246223,16.7225045 3.72851941,13.5581502 3.72851941,9.65511164 C3.72851941,5.75135517 10.246223,2.58700089 18.2851816,2.58700089 C26.3241402,2.58700089 32.8411214,5.75135517 32.8411214,9.65511164" id="Fill-4" fill="#E4C22F"></path>
                    <g id="Group-8" transform="translate(0.000000, 9.394095)">
                        <mask id="mask-64" fill="white">
                            <use xlink:href="#path-63"></use>
                        </mask>
                        <g id="Clip-7"></g>
                        <path d="M36.5226885,0.572282946 C35.879803,5.4645412 27.9629204,9.33240436 18.2849649,9.33240436 C8.60700935,9.33240436 0.690849132,5.46525906 0.0472412518,0.573000812 L0.0472412518,3.59521757 C0.0197922064,3.80770597 -0.00043340598,4.02163011 -0.00043340598,4.23698997 C-0.00043340598,9.43003417 8.18588321,13.6396016 18.2849649,13.6396016 C28.3833242,13.6396016 36.5696408,9.43003417 36.5696408,4.23698997 C36.5696408,4.02163011 36.5501375,3.80770597 36.5226885,3.59521757 L36.5226885,0.572282946 Z" id="Fill-6" fill="#E4C22F" mask="url(#mask-64)"></path>
                    </g>
                    <g id="Group-11" transform="translate(0.000000, 13.701293)">
                        <mask id="mask-66" fill="white">
                            <use xlink:href="#path-65"></use>
                        </mask>
                        <g id="Clip-10"></g>
                        <path d="M36.5226885,0.572282946 C35.879803,5.4645412 27.9629204,9.33240436 18.2849649,9.33240436 C8.60700935,9.33240436 0.690849132,5.46525906 0.0472412518,0.573000812 L0.0472412518,3.59521757 C0.0197922064,3.80770597 -0.00043340598,4.02163011 -0.00043340598,4.23698997 C-0.00043340598,9.43003417 8.18588321,13.6396016 18.2849649,13.6396016 C28.3833242,13.6396016 36.5696408,9.43003417 36.5696408,4.23698997 C36.5696408,4.02163011 36.5501375,3.80770597 36.5226885,3.59521757 L36.5226885,0.572282946 Z" id="Fill-9" fill="#EFD44F" mask="url(#mask-66)"></path>
                    </g>
                    <g id="Group-14" transform="translate(0.000000, 26.622885)">
                        <mask id="mask-68" fill="white">
                            <use xlink:href="#path-67"></use>
                        </mask>
                        <g id="Clip-13"></g>
                        <path d="M36.5226885,0.572282946 C35.879803,5.4645412 27.9629204,9.33240436 18.2849649,9.33240436 C8.60700935,9.33240436 0.690849132,5.46525906 0.0472412518,0.573000812 L0.0472412518,3.59521757 C0.0197922064,3.80770597 -0.00043340598,4.02163011 -0.00043340598,4.23698997 C-0.00043340598,9.43003417 8.18588321,13.6396016 18.2849649,13.6396016 C28.3833242,13.6396016 36.5696408,9.43003417 36.5696408,4.23698997 C36.5696408,4.02163011 36.5501375,3.80770597 36.5226885,3.59521757 L36.5226885,0.572282946 Z" id="Fill-12" fill="#E4C22F" mask="url(#mask-68)"></path>
                    </g>
                    <g id="Group-17" transform="translate(0.000000, 30.930082)">
                        <mask id="mask-70" fill="white">
                            <use xlink:href="#path-69"></use>
                        </mask>
                        <g id="Clip-16"></g>
                        <path d="M36.5226885,0.572282946 C35.879803,5.4645412 27.9629204,9.33240436 18.2849649,9.33240436 C8.60700935,9.33240436 0.690849132,5.46525906 0.0472412518,0.573000812 L0.0472412518,3.59521757 C0.0197922064,3.80770597 -0.00043340598,4.02163011 -0.00043340598,4.23698997 C-0.00043340598,9.43003417 8.18588321,13.6396016 18.2849649,13.6396016 C28.3833242,13.6396016 36.5696408,9.43003417 36.5696408,4.23698997 C36.5696408,4.02163011 36.5501375,3.80770597 36.5226885,3.59521757 L36.5226885,0.572282946 Z" id="Fill-15" fill="#EFD44F" mask="url(#mask-70)"></path>
                    </g>
                    <g id="Group-20" transform="translate(0.000000, 18.008490)">
                        <mask id="mask-72" fill="white">
                            <use xlink:href="#path-71"></use>
                        </mask>
                        <g id="Clip-19"></g>
                        <path d="M36.5226885,0.572282946 C35.879803,5.4645412 27.9629204,9.33240436 18.2849649,9.33240436 C8.60700935,9.33240436 0.690849132,5.46525906 0.0472412518,0.573000812 L0.0472412518,3.59521757 C0.0197922064,3.80770597 -0.00043340598,4.02163011 -0.00043340598,4.23698997 C-0.00043340598,9.43003417 8.18588321,13.6396016 18.2849649,13.6396016 C28.3833242,13.6396016 36.5696408,9.43003417 36.5696408,4.23698997 C36.5696408,4.02163011 36.5501375,3.80770597 36.5226885,3.59521757 L36.5226885,0.572282946 Z" id="Fill-18" fill="#E4C22F" mask="url(#mask-72)"></path>
                    </g>
                    <g id="Group-23" transform="translate(0.000000, 22.315687)">
                        <mask id="mask-74" fill="white">
                            <use xlink:href="#path-73"></use>
                        </mask>
                        <g id="Clip-22"></g>
                        <path d="M36.5226885,0.572282946 C35.879803,5.4645412 27.9629204,9.33240436 18.2849649,9.33240436 C8.60700935,9.33240436 0.690849132,5.46525906 0.0472412518,0.573000812 L0.0472412518,3.59521757 C0.0197922064,3.80770597 -0.00043340598,4.02163011 -0.00043340598,4.23698997 C-0.00043340598,9.43003417 8.18588321,13.6396016 18.2849649,13.6396016 C28.3833242,13.6396016 36.5696408,9.43003417 36.5696408,4.23698997 C36.5696408,4.02163011 36.5501375,3.80770597 36.5226885,3.59521757 L36.5226885,0.572282946 Z" id="Fill-21" fill="#EFD44F" mask="url(#mask-74)"></path>
                    </g>
                    <g id="Group-26" transform="translate(0.000000, 9.394095)">
                        <mask id="mask-76" fill="white">
                            <use xlink:href="#path-75"></use>
                        </mask>
                        <g id="Clip-25"></g>
                        <path d="M36.5226885,0.572282946 C35.879803,5.4645412 27.9629204,9.33240436 18.2849649,9.33240436 C8.60700935,9.33240436 0.690849132,5.46525906 0.0472412518,0.573000812 L0.0472412518,3.59521757 C0.0197922064,3.80770597 -0.00043340598,4.02163011 -0.00043340598,4.23698997 C-0.00043340598,9.43003417 8.18588321,13.6396016 18.2849649,13.6396016 C28.3833242,13.6396016 36.5696408,9.43003417 36.5696408,4.23698997 C36.5696408,4.02163011 36.5501375,3.80770597 36.5226885,3.59521757 L36.5226885,0.572282946 Z" id="Fill-24" fill="#E4C22F" mask="url(#mask-76)"></path>
                    </g>
                    <g id="Group-29" transform="translate(0.000000, 13.701293)">
                        <mask id="mask-78" fill="white">
                            <use xlink:href="#path-77"></use>
                        </mask>
                        <g id="Clip-28"></g>
                        <path d="M36.5226885,0.572282946 C35.879803,5.4645412 27.9629204,9.33240436 18.2849649,9.33240436 C8.60700935,9.33240436 0.690849132,5.46525906 0.0472412518,0.573000812 L0.0472412518,3.59521757 C0.0197922064,3.80770597 -0.00043340598,4.02163011 -0.00043340598,4.23698997 C-0.00043340598,9.43003417 8.18588321,13.6396016 18.2849649,13.6396016 C28.3833242,13.6396016 36.5696408,9.43003417 36.5696408,4.23698997 C36.5696408,4.02163011 36.5501375,3.80770597 36.5226885,3.59521757 L36.5226885,0.572282946 Z" id="Fill-27" fill="#EFD44F" mask="url(#mask-78)"></path>
                    </g>
                    <path d="M31.2546388,9.65511164 C31.2546388,12.8546414 25.447721,15.4490099 18.2849649,15.4490099 C11.1222087,15.4490099 5.31529093,12.8546414 5.31529093,9.65511164 C5.31529093,6.45414619 11.1222087,3.86049556 18.2849649,3.86049556 C25.447721,3.86049556 31.2546388,6.45414619 31.2546388,9.65511164" id="Fill-30" fill="#EFD44F"></path>
                    <path d="M22.3516132,9.43429599 L16.5641987,9.43429599 L16.5641987,9.82050802 L19.8775874,9.82050802 C21.0665645,9.82050802 21.8907582,9.6912921 22.3516132,9.43429599 L22.3516132,9.43429599 Z M22.9027611,8.62023571 C22.9027611,8.54557762 22.89626,8.48455899 22.8847025,8.43574409 L16.5641987,8.43574409 L16.5641987,8.84062063 L22.8760344,8.84062063 C22.8933707,8.77457694 22.9027611,8.70135459 22.9027611,8.62023571 L22.9027611,8.62023571 Z M22.3956761,7.8427866 C22.1392443,7.68413816 21.8156345,7.57789396 21.4248467,7.524054 C21.1452999,7.48457135 20.6179893,7.46518897 19.8421926,7.46518897 L16.5641987,7.46518897 L16.5641987,7.8427866 L22.3956761,7.8427866 Z M25.2539886,9.43429599 L24.3445583,9.43429599 C24.17553,9.64104146 23.931378,9.83414747 23.6099352,10.0143319 C22.9164856,10.4034154 21.6639424,10.5979571 19.851583,10.5979571 L16.5641987,10.5979571 L16.5641987,13.2777517 L14.8688589,13.2777517 L14.8688589,9.43429599 L13.6365413,9.43429599 L13.6365413,8.84062063 L14.8688589,8.84062063 L14.8688589,8.43574409 L13.6365413,8.43574409 L13.6365413,7.8427866 L14.8688589,7.8427866 L14.8688589,6.68773986 L19.7027803,6.68773986 C20.5305857,6.68773986 21.1799724,6.70855798 21.6523849,6.75091208 C23.016169,6.87366721 23.9284886,7.23690751 24.3878989,7.8427866 L25.2539886,7.8427866 L25.2539886,8.43574409 L24.6421638,8.43574409 C24.6479425,8.48096966 24.6508319,8.53337389 24.6508319,8.59367466 C24.6508319,8.66833274 24.6421638,8.75088736 24.6241052,8.84062063 L25.2539886,8.84062063 L25.2539886,9.43429599 Z" id="Fill-32" fill="#D7B129"></path>
                </g>
                <g id="Page-1-Copy-10" transform="translate(60.000000, 277.000000)">
                    <g id="Group-3" transform="translate(0.000000, 0.019885)">
                        <mask id="mask-80" fill="white">
                            <use xlink:href="#path-79"></use>
                        </mask>
                        <g id="Clip-2"></g>
                        <path d="M36.5699298,9.42424587 C36.5699298,14.6165722 28.3828908,18.8261397 18.2852538,18.8261397 C8.18617214,18.8261397 -0.00014446866,14.6165722 -0.00014446866,9.42424587 C-0.00014446866,4.23120167 8.18617214,0.0216341901 18.2852538,0.0216341901 C28.3828908,0.0216341901 36.5699298,4.23120167 36.5699298,9.42424587" id="Fill-1" fill="#EFD44F" mask="url(#mask-80)"></path>
                    </g>
                    <path d="M32.8411214,9.65511164 C32.8411214,13.5581502 26.3241402,16.7225045 18.2851816,16.7225045 C10.246223,16.7225045 3.72851941,13.5581502 3.72851941,9.65511164 C3.72851941,5.75135517 10.246223,2.58700089 18.2851816,2.58700089 C26.3241402,2.58700089 32.8411214,5.75135517 32.8411214,9.65511164" id="Fill-4" fill="#E4C22F"></path>
                    <g id="Group-8" transform="translate(0.000000, 9.394095)">
                        <mask id="mask-82" fill="white">
                            <use xlink:href="#path-81"></use>
                        </mask>
                        <g id="Clip-7"></g>
                        <path d="M36.5226885,0.572282946 C35.879803,5.4645412 27.9629204,9.33240436 18.2849649,9.33240436 C8.60700935,9.33240436 0.690849132,5.46525906 0.0472412518,0.573000812 L0.0472412518,3.59521757 C0.0197922064,3.80770597 -0.00043340598,4.02163011 -0.00043340598,4.23698997 C-0.00043340598,9.43003417 8.18588321,13.6396016 18.2849649,13.6396016 C28.3833242,13.6396016 36.5696408,9.43003417 36.5696408,4.23698997 C36.5696408,4.02163011 36.5501375,3.80770597 36.5226885,3.59521757 L36.5226885,0.572282946 Z" id="Fill-6" fill="#E4C22F" mask="url(#mask-82)"></path>
                    </g>
                    <g id="Group-11" transform="translate(0.000000, 13.701293)">
                        <mask id="mask-84" fill="white">
                            <use xlink:href="#path-83"></use>
                        </mask>
                        <g id="Clip-10"></g>
                        <path d="M36.5226885,0.572282946 C35.879803,5.4645412 27.9629204,9.33240436 18.2849649,9.33240436 C8.60700935,9.33240436 0.690849132,5.46525906 0.0472412518,0.573000812 L0.0472412518,3.59521757 C0.0197922064,3.80770597 -0.00043340598,4.02163011 -0.00043340598,4.23698997 C-0.00043340598,9.43003417 8.18588321,13.6396016 18.2849649,13.6396016 C28.3833242,13.6396016 36.5696408,9.43003417 36.5696408,4.23698997 C36.5696408,4.02163011 36.5501375,3.80770597 36.5226885,3.59521757 L36.5226885,0.572282946 Z" id="Fill-9" fill="#EFD44F" mask="url(#mask-84)"></path>
                    </g>
                    <g id="Group-14" transform="translate(0.000000, 26.622885)">
                        <mask id="mask-86" fill="white">
                            <use xlink:href="#path-85"></use>
                        </mask>
                        <g id="Clip-13"></g>
                        <path d="M36.5226885,0.572282946 C35.879803,5.4645412 27.9629204,9.33240436 18.2849649,9.33240436 C8.60700935,9.33240436 0.690849132,5.46525906 0.0472412518,0.573000812 L0.0472412518,3.59521757 C0.0197922064,3.80770597 -0.00043340598,4.02163011 -0.00043340598,4.23698997 C-0.00043340598,9.43003417 8.18588321,13.6396016 18.2849649,13.6396016 C28.3833242,13.6396016 36.5696408,9.43003417 36.5696408,4.23698997 C36.5696408,4.02163011 36.5501375,3.80770597 36.5226885,3.59521757 L36.5226885,0.572282946 Z" id="Fill-12" fill="#E4C22F" mask="url(#mask-86)"></path>
                    </g>
                    <g id="Group-17" transform="translate(0.000000, 30.930082)">
                        <mask id="mask-88" fill="white">
                            <use xlink:href="#path-87"></use>
                        </mask>
                        <g id="Clip-16"></g>
                        <path d="M36.5226885,0.572282946 C35.879803,5.4645412 27.9629204,9.33240436 18.2849649,9.33240436 C8.60700935,9.33240436 0.690849132,5.46525906 0.0472412518,0.573000812 L0.0472412518,3.59521757 C0.0197922064,3.80770597 -0.00043340598,4.02163011 -0.00043340598,4.23698997 C-0.00043340598,9.43003417 8.18588321,13.6396016 18.2849649,13.6396016 C28.3833242,13.6396016 36.5696408,9.43003417 36.5696408,4.23698997 C36.5696408,4.02163011 36.5501375,3.80770597 36.5226885,3.59521757 L36.5226885,0.572282946 Z" id="Fill-15" fill="#EFD44F" mask="url(#mask-88)"></path>
                    </g>
                    <g id="Group-20" transform="translate(0.000000, 18.008490)">
                        <mask id="mask-90" fill="white">
                            <use xlink:href="#path-89"></use>
                        </mask>
                        <g id="Clip-19"></g>
                        <path d="M36.5226885,0.572282946 C35.879803,5.4645412 27.9629204,9.33240436 18.2849649,9.33240436 C8.60700935,9.33240436 0.690849132,5.46525906 0.0472412518,0.573000812 L0.0472412518,3.59521757 C0.0197922064,3.80770597 -0.00043340598,4.02163011 -0.00043340598,4.23698997 C-0.00043340598,9.43003417 8.18588321,13.6396016 18.2849649,13.6396016 C28.3833242,13.6396016 36.5696408,9.43003417 36.5696408,4.23698997 C36.5696408,4.02163011 36.5501375,3.80770597 36.5226885,3.59521757 L36.5226885,0.572282946 Z" id="Fill-18" fill="#E4C22F" mask="url(#mask-90)"></path>
                    </g>
                    <g id="Group-23" transform="translate(0.000000, 22.315687)">
                        <mask id="mask-92" fill="white">
                            <use xlink:href="#path-91"></use>
                        </mask>
                        <g id="Clip-22"></g>
                        <path d="M36.5226885,0.572282946 C35.879803,5.4645412 27.9629204,9.33240436 18.2849649,9.33240436 C8.60700935,9.33240436 0.690849132,5.46525906 0.0472412518,0.573000812 L0.0472412518,3.59521757 C0.0197922064,3.80770597 -0.00043340598,4.02163011 -0.00043340598,4.23698997 C-0.00043340598,9.43003417 8.18588321,13.6396016 18.2849649,13.6396016 C28.3833242,13.6396016 36.5696408,9.43003417 36.5696408,4.23698997 C36.5696408,4.02163011 36.5501375,3.80770597 36.5226885,3.59521757 L36.5226885,0.572282946 Z" id="Fill-21" fill="#EFD44F" mask="url(#mask-92)"></path>
                    </g>
                    <g id="Group-26" transform="translate(0.000000, 9.394095)">
                        <mask id="mask-94" fill="white">
                            <use xlink:href="#path-93"></use>
                        </mask>
                        <g id="Clip-25"></g>
                        <path d="M36.5226885,0.572282946 C35.879803,5.4645412 27.9629204,9.33240436 18.2849649,9.33240436 C8.60700935,9.33240436 0.690849132,5.46525906 0.0472412518,0.573000812 L0.0472412518,3.59521757 C0.0197922064,3.80770597 -0.00043340598,4.02163011 -0.00043340598,4.23698997 C-0.00043340598,9.43003417 8.18588321,13.6396016 18.2849649,13.6396016 C28.3833242,13.6396016 36.5696408,9.43003417 36.5696408,4.23698997 C36.5696408,4.02163011 36.5501375,3.80770597 36.5226885,3.59521757 L36.5226885,0.572282946 Z" id="Fill-24" fill="#E4C22F" mask="url(#mask-94)"></path>
                    </g>
                    <g id="Group-29" transform="translate(0.000000, 13.701293)">
                        <mask id="mask-96" fill="white">
                            <use xlink:href="#path-95"></use>
                        </mask>
                        <g id="Clip-28"></g>
                        <path d="M36.5226885,0.572282946 C35.879803,5.4645412 27.9629204,9.33240436 18.2849649,9.33240436 C8.60700935,9.33240436 0.690849132,5.46525906 0.0472412518,0.573000812 L0.0472412518,3.59521757 C0.0197922064,3.80770597 -0.00043340598,4.02163011 -0.00043340598,4.23698997 C-0.00043340598,9.43003417 8.18588321,13.6396016 18.2849649,13.6396016 C28.3833242,13.6396016 36.5696408,9.43003417 36.5696408,4.23698997 C36.5696408,4.02163011 36.5501375,3.80770597 36.5226885,3.59521757 L36.5226885,0.572282946 Z" id="Fill-27" fill="#EFD44F" mask="url(#mask-96)"></path>
                    </g>
                    <path d="M31.2546388,9.65511164 C31.2546388,12.8546414 25.447721,15.4490099 18.2849649,15.4490099 C11.1222087,15.4490099 5.31529093,12.8546414 5.31529093,9.65511164 C5.31529093,6.45414619 11.1222087,3.86049556 18.2849649,3.86049556 C25.447721,3.86049556 31.2546388,6.45414619 31.2546388,9.65511164" id="Fill-30" fill="#EFD44F"></path>
                    <path d="M22.3516132,9.43429599 L16.5641987,9.43429599 L16.5641987,9.82050802 L19.8775874,9.82050802 C21.0665645,9.82050802 21.8907582,9.6912921 22.3516132,9.43429599 L22.3516132,9.43429599 Z M22.9027611,8.62023571 C22.9027611,8.54557762 22.89626,8.48455899 22.8847025,8.43574409 L16.5641987,8.43574409 L16.5641987,8.84062063 L22.8760344,8.84062063 C22.8933707,8.77457694 22.9027611,8.70135459 22.9027611,8.62023571 L22.9027611,8.62023571 Z M22.3956761,7.8427866 C22.1392443,7.68413816 21.8156345,7.57789396 21.4248467,7.524054 C21.1452999,7.48457135 20.6179893,7.46518897 19.8421926,7.46518897 L16.5641987,7.46518897 L16.5641987,7.8427866 L22.3956761,7.8427866 Z M25.2539886,9.43429599 L24.3445583,9.43429599 C24.17553,9.64104146 23.931378,9.83414747 23.6099352,10.0143319 C22.9164856,10.4034154 21.6639424,10.5979571 19.851583,10.5979571 L16.5641987,10.5979571 L16.5641987,13.2777517 L14.8688589,13.2777517 L14.8688589,9.43429599 L13.6365413,9.43429599 L13.6365413,8.84062063 L14.8688589,8.84062063 L14.8688589,8.43574409 L13.6365413,8.43574409 L13.6365413,7.8427866 L14.8688589,7.8427866 L14.8688589,6.68773986 L19.7027803,6.68773986 C20.5305857,6.68773986 21.1799724,6.70855798 21.6523849,6.75091208 C23.016169,6.87366721 23.9284886,7.23690751 24.3878989,7.8427866 L25.2539886,7.8427866 L25.2539886,8.43574409 L24.6421638,8.43574409 C24.6479425,8.48096966 24.6508319,8.53337389 24.6508319,8.59367466 C24.6508319,8.66833274 24.6421638,8.75088736 24.6241052,8.84062063 L25.2539886,8.84062063 L25.2539886,9.43429599 Z" id="Fill-32" fill="#D7B129"></path>
                </g>
            </g>
        </g>
    </g>
</svg>