<?xml version="1.0" encoding="UTF-8"?>
<svg width="450px" height="347px" viewBox="0 0 450 347" version="1.1" xmlns="http://www.w3.org/2000/svg" xmlns:xlink="http://www.w3.org/1999/xlink">
    <!-- Generator: Sketch 46.2 (44496) - http://www.bohemiancoding.com/sketch -->
    <title>Group 5</title>
    <desc>Created with Sketch.</desc>
    <defs>
        <polygon id="path-1" points="238.180367 236.736778 0.0203997647 236.736778 0.0203997647 0.441065315 238.180367 0.441065315 238.180367 236.736778"></polygon>
    </defs>
    <g id="Page-1" stroke="none" stroke-width="1" fill="none" fill-rule="evenodd">
        <g id="D_Pay-it-forward" transform="translate(-788.000000, -303.000000)">
            <g id="Group-5" transform="translate(788.000000, 303.000000)">
                <g id="Page-1" transform="translate(39.449438, 32.041702)">
                    <g id="Group-55" transform="translate(232.533032, 31.784171)">
                        <path d="M63.187664,56.1858298 L58.1259724,46.3187855 C57.1011271,44.6477732 57.1642692,43.1351879 57.1642692,43.1351879 L52.2446474,40.5750573 L47.773699,37.3035117 C47.773699,37.3035117 46.4301073,38.0209506 44.4684514,37.8366212 L33.3105086,37.630606 C33.3105086,37.630606 29.7897278,38.0311911 27.4461834,41.7466935 L26.1311272,43.8315434 L43.2043945,54.4347006 L43.6306039,54.6997494 L60.7032641,65.3029065 L62.0189275,63.2180567 C64.363079,59.5025543 63.187664,56.1858298 63.187664,56.1858298" id="Fill-1" fill="#FBCAB9"></path>
                        <polygon id="Fill-3" fill="#FBCAB9" points="54.7915216 46.8453291 45.4464865 41.0419649 51.7127357 31.1098631 61.0571636 36.9132273"></polygon>
                        <path d="M47.6333291,37.3619429 C48.3934632,39.68112 49.6374846,41.4629708 51.4030357,42.5593091 C53.0216598,43.5646874 54.9711731,43.9297319 57.1592907,43.7279334 L63.9871405,32.9067133 L54.2565742,26.8629981 L47.6333291,37.3619429 Z" id="Fill-5" fill="#E39485"></path>
                        <path d="M63.3684691,36.1053706 L52.2754899,29.2159087 C46.7626963,25.7925623 45.0754658,18.5169725 48.526426,13.0479312 L49.5822352,11.3733047 C53.0331954,5.90426344 60.3655751,4.23084163 65.8783687,7.65479035 L76.9713479,14.5436499 C82.4835343,17.9675986 84.1707648,25.242586 80.7204118,30.7116273 L79.6646025,32.3856515 C76.2136423,37.8546927 68.8812626,39.5293193 63.3684691,36.1053706" id="Fill-7" fill="#79474D"></path>
                        <path d="M52.3012932,41.2415346 L52.3012932,41.2415346 C43.9416396,36.0501922 41.3843834,25.0163307 46.6166802,16.7221101 C51.8495841,8.42788954 62.9692772,5.8894448 71.3289308,11.0813896 C79.6879773,16.2727319 82.2470549,27.3065934 77.0147581,35.600814 C71.7818542,43.8950346 60.6609467,46.432877 52.3012932,41.2415346" id="Fill-9" fill="#FBCAB9"></path>
                        <path d="M46.336062,13.6577845 L48.6874991,9.93023438 C54.5087177,0.702921492 65.9325859,-0.821711549 75.1197657,4.88406647 C84.3075525,10.5892421 87.9169752,21.4514242 82.0957566,30.6781348 L79.7443195,34.4056848 L77.8397343,33.5503 L80.0934226,28.1276423 L69.186227,13.6981442 L51.6412151,10.3169647 L48.0815775,14.9498974 L46.336062,13.6577845 Z" id="Fill-11" fill="#79474D"></path>
                        <path d="M46.5530523,22.0617594 L43.5131231,20.1732866 C41.841071,19.1353796 41.3292554,16.9288482 42.3759576,15.2698836 C43.4226599,13.610919 45.6472056,13.103712 47.3186506,14.1422214 L50.3585798,16.0294894 C52.0300249,17.0679988 52.5418404,19.2745302 51.4957453,20.9334948 C50.4490431,22.591857 48.2244973,23.0996664 46.5530523,22.0617594" id="Fill-13" fill="#FBCAB9"></path>
                        <path d="M47.0084042,16.3102604 L46.8183707,16.1921932 C45.8779172,15.6078811 44.8020725,15.6163145 44.4274697,16.2102647 L44.125116,16.6897621 C43.7505132,17.28311 44.2131507,18.2469239 45.152997,18.831236 L45.3436377,18.9493032 L47.0084042,16.3102604 Z" id="Fill-15" fill="#E39485"></path>
                        <path d="M72.3919043,38.1084167 L75.4318335,39.9962871 C77.1032785,41.0341941 79.3278243,40.5269871 80.3739193,38.8680225 C81.4206216,37.2090579 80.908806,35.0025266 79.2367539,33.9640171 L76.1974318,32.0761468 C74.5253797,31.0382397 72.301441,31.5454467 71.2547388,33.2044113 C70.2080366,34.8627736 70.7198521,37.0699073 72.3919043,38.1084167" id="Fill-17" fill="#FBCAB9"></path>
                        <path d="M77.406725,35.1888438 L77.5961514,35.3063086 C78.5366048,35.8906208 79.0004566,36.8544347 78.6258538,37.4483849 L78.322893,37.9278823 C77.9482902,38.5218326 76.8718383,38.5296636 75.9313849,37.9453515 L75.7419585,37.8278866 L77.406725,35.1888438 Z" id="Fill-19" fill="#E39485"></path>
                        <path d="M63.6691227,36.495414 L57.9693313,32.9558076 L57.6530136,32.7594305 L51.9532222,29.2198242 C51.9532222,29.2198242 51.0030546,28.6288858 50.6594157,29.8734104 C50.6594157,29.8734104 49.6594629,34.1479249 54.6841192,37.4646493 L54.6798693,37.4718779 C54.7339044,37.5056114 54.7861181,37.5345258 54.8401532,37.5658498 C54.8935811,37.6001856 54.9427591,37.6351239 54.9967942,37.668255 L55.0010442,37.6622311 C60.2035913,40.6964376 63.6424088,37.9363157 63.6424088,37.9363157 C64.6192904,37.08575 63.6691227,36.495414 63.6691227,36.495414" id="Fill-21" fill="#8B2B23"></path>
                        <path d="M56.2257586,35.3706432 C54.9695945,34.5905564 53.4426478,34.605616 52.2344475,35.2736595 C52.8245835,36.0133866 53.6181101,36.7609447 54.6842407,37.4651312 L54.6799907,37.4717574 C54.7340258,37.5054909 54.7868466,37.5344053 54.8402746,37.566934 C54.8930954,37.6000651 54.9422734,37.6350034 54.9963085,37.6681345 L54.9999513,37.6615083 C56.1055457,38.3054564 57.1291768,38.6867653 58.0587017,38.8909733 C58.1352009,37.5199481 57.4819227,36.1507301 56.2257586,35.3706432" id="Fill-23" fill="#DC6666"></path>
                        <path d="M59.5033208,29.8262438 C58.6982587,29.3262653 58.2046572,28.5497928 58.1318009,27.8088609 L58.0668374,27.9124709 C57.5574504,28.719665 57.9958025,29.9111799 59.0400761,30.5599471 C60.0861712,31.2093167 61.3575137,31.0792018 61.8662935,30.2720077 L61.9312571,30.1690001 C61.2275866,30.4274227 60.3083829,30.3262222 59.5033208,29.8262438" id="Fill-25" fill="#E39483"></path>
                        <path d="M55.064247,22.4058409 C55.7952386,22.8600382 56.3956959,23.3949549 56.8036912,23.9154144 L56.9761178,23.6419322 C57.642753,22.5859536 57.3173282,21.1811949 56.2536261,20.5203801 C55.189317,19.8595652 53.7740833,20.1836476 53.1080553,21.2390238 L52.9350216,21.5131083 L52.9356287,21.5137107 C53.5852641,21.649247 54.3326483,21.9510413 55.064247,22.4058409" id="Fill-27" fill="#754448"></path>
                        <path d="M68.2327201,30.583922 C68.9637117,31.0381192 69.564169,31.5730359 69.9715572,32.0934954 L69.9721643,32.0934954 L70.1445909,31.8200132 C70.8106189,30.7640347 70.4851941,29.359276 69.4214921,28.6984611 C68.3577901,28.0376462 66.9425564,28.3617286 66.2759212,29.4171048 L66.1034947,29.6911894 C66.7537372,29.8273281 67.5011214,30.1297247 68.2327201,30.583922" id="Fill-29" fill="#754448"></path>
                        <path d="M50.8659026,24.1712467 C50.2089816,25.2127681 48.8259261,25.5278147 47.7767953,24.8760356 C46.7270575,24.2242565 46.4089183,22.8526289 47.0658393,21.8111075 C47.7221531,20.7701886 49.1058157,20.4545395 50.1549465,21.1063186 C51.2046844,21.7574954 51.5222164,23.1297254 50.8659026,24.1712467" id="Fill-31" fill="#F8B4A8"></path>
                        <path d="M72.2045422,37.4230848 C71.5476212,38.4646062 70.1645657,38.7802552 69.1154349,38.1284761 C68.0663042,37.476697 67.7475578,36.1050694 68.4044788,35.063548 C69.0607927,34.0220267 70.4444553,33.70698 71.4935861,34.3587592 C72.543324,35.0099359 72.860856,36.3821659 72.2045422,37.4230848" id="Fill-33" fill="#F8B4A8"></path>
                        <path d="M57.9374567,32.9364109 L57.6211389,32.7400338 L53.912146,30.4359163 C53.7761476,31.744896 54.3747835,33.0839949 55.5696269,33.8267339 L57.8488149,35.2423355 C59.0442654,35.9844722 60.5196055,35.9332696 61.6470568,35.239926 L57.9374567,32.9364109 Z" id="Fill-35" fill="#FFFFFF"></path>
                        <polygon id="Fill-37" fill="#79474D" points="80.7116083 28.5585274 72.0568867 23.1563507 70.7193664 18.7372642 68.8172098 21.1341488 51.2375911 10.161128 60.425378 4.22523946 83.101295 18.3511363"></polygon>
                        <polygon id="Fill-39" fill="#79474D" points="74.9580247 4.78322745 71.9599878 0.233423668 71.4293511 3.93567364"></polygon>
                        <polygon id="Fill-41" fill="#79474D" points="76.3768405 6.1120858 77.3919716 4.50311904 73.1025568 4.07904095"></polygon>
                        <path d="M12.2152091,29.5003542 C11.937748,29.3877085 11.6821438,29.2467507 11.4629678,29.0660356 C10.5710852,28.3311275 9.64945298,26.3872355 8.89842593,25.1854801 C5.70124852,20.0688333 -2.40462226,24.3752741 0.787698057,29.4840899 C2.24664551,31.8183265 3.5756659,34.145937 5.79049749,35.8585137 L12.2152091,29.5003542 Z" id="Fill-43" fill="#FBCAB9"></path>
                        <path d="M64.0135509,56.2234788 L59.3774615,47.1070045 C56.2464619,48.5539301 52.2357225,48.3461077 48.8242261,46.2275244 C45.4521936,44.1336388 43.5154302,40.6994495 43.4170742,37.3104391 L33.1255143,37.0405712 C33.1255143,37.0405712 29.4851278,37.4574207 27.0577986,41.3042427 L23.6778733,46.661843 L59.419961,68.8590785 L62.7992792,63.5014782 C65.2266084,59.6540538 64.0135509,56.2234788 64.0135509,56.2234788" id="Fill-45" fill="#D64316"></path>
                        <path d="M63.9768192,56.200528 L60.5628943,49.5465981 C56.9826142,51.9760114 51.5645338,51.9386636 46.9697297,49.0851722 C42.3846397,46.2377047 39.9822031,41.4294783 40.6087673,37.1784568 L33.0887826,37.0176204 C33.0887826,37.0176204 29.4477889,37.4344699 27.0210669,41.2812919 L13.9749317,61.9611229 L49.7164123,84.157756 L62.7625475,63.4785274 C65.1898766,59.6311029 63.9768192,56.200528 63.9768192,56.200528" id="Fill-47" fill="#E85A0C"></path>
                        <path d="M34.3552073,43.7281141 C34.3552073,43.7281141 37.0053553,39.2433678 35.0922702,37.1663489 C34.0255325,36.0091699 29.8247596,37.279597 25.2044557,37.3121258 C18.8696002,37.3567021 10.7503724,26.6698136 10.7503724,26.6698136 C5.06758083,29.7154654 1.21044675,31.8870585 1.21044675,31.8870585 C1.21044675,31.8870585 8.27872237,44.8666192 13.5820541,47.4924096 C23.8481142,52.5753229 31.2873498,46.8876164 31.2873498,46.8876164 C31.2873498,46.8876164 32.8507247,45.7039325 34.3552073,43.7281141" id="Fill-49" fill="#D64316"></path>
                        <path d="M80.3250449,71.7995541 C80.5484709,71.9977383 80.7882896,72.1645986 81.0475366,72.281461 C82.103953,72.7555369 84.2683923,72.7284297 85.6860545,72.8736041 C91.721592,73.4916498 91.3597391,82.6069193 85.3339157,81.9906808 C82.5799475,81.7087652 79.8891214,81.5400978 77.3689004,80.3112352 L80.3250449,71.7995541 Z" id="Fill-51" fill="#FBCAB9"></path>
                        <path d="M57.751916,58.2582706 C57.751916,58.2582706 60.6594896,53.9331559 63.3788511,54.7331214 C64.8942622,55.1794877 65.5778972,59.4829166 67.5674814,63.6212923 C70.2953427,69.2939392 83.5315115,71.8697318 83.5315115,71.8697318 C83.2534433,78.2724677 82.970518,82.6638445 82.970518,82.6638445 C82.970518,82.6638445 68.1145108,82.0277274 63.4171007,78.4417375 C54.3234198,71.5004706 56.228005,62.3767677 56.228005,62.3767677 C56.228005,62.3767677 56.6177862,60.4641995 57.751916,58.2582706" id="Fill-53" fill="#D64316"></path>
                    </g>
                    <g id="Group-273" transform="translate(0.000000, 0.460221)">
                        <path d="M51.0005046,162.816532 L44.5181151,171.828794 C43.4981268,173.502818 42.1168928,174.146164 42.1168928,174.146164 L42.1005001,179.657975 L41.24201,185.102921 C41.24201,185.102921 42.5030312,185.954089 43.2455583,187.766059 L48.2155724,197.679487 C48.2155724,197.679487 50.1996924,200.592012 54.6038559,200.938382 L57.0748988,201.13235 L58.6662019,181.21092 L58.7056657,180.713351 L60.2975759,160.791921 L57.826533,160.596749 C53.4217624,160.25098 51.0005046,162.816532 51.0005046,162.816532" id="Fill-56" fill="#EAA98C"></path>
                        <path d="M50.5667667,162.189451 L46.3526368,168.041608 C49.6287418,170.72342 51.7409675,178.92909 51.7840741,180.292887 C51.8132166,181.199474 48.1157593,189.657543 44.4553372,191.794198 L47.6877285,198.23127 C47.6877285,198.23127 49.7422762,201.242586 54.3018665,201.601004 L78.8143695,203.528632 L82.1457239,161.823804 L57.6338281,159.895574 C53.0730235,159.537156 50.5667667,162.189451 50.5667667,162.189451" id="Fill-58" fill="#D6D6D6"></path>
                        <path d="M40.9714703,185.281829 C42.6933076,183.54094 43.7114744,181.624155 43.8760082,179.564003 C44.027185,177.674325 43.4528345,175.790672 42.261634,173.957618 L29.4340676,172.949228 L28.5270067,184.303557 L40.9714703,185.281829 Z" id="Fill-60" fill="#D88B6C"></path>
                        <path d="M40.9302457,164.697234 L38.544809,194.557392 C38.3468827,197.035599 36.1417653,198.901783 33.6446155,198.705406 L18.7770727,197.536782 C16.2793158,197.339802 14.3984089,195.152547 14.5963352,192.674341 L16.981772,162.814183 C17.1790911,160.336579 19.3848157,158.469792 21.8813583,158.666169 L36.7495083,159.835396 C39.246658,160.031773 41.128172,162.21963 40.9302457,164.697234" id="Fill-62" fill="#442927"></path>
                        <path d="M32.9491414,172.447021 L31.915189,185.391041 C31.4015521,191.823293 25.6768681,196.668868 19.1938715,196.158649 L17.2097515,196.002631 C10.7267548,195.493617 5.84356117,189.813741 6.35780524,183.381489 L7.3917576,170.437469 C7.90539453,164.004614 13.6294714,159.159642 20.1118609,159.669258 L22.096588,159.825878 C28.5795846,160.335495 33.4627783,166.014768 32.9491414,172.447021" id="Fill-64" fill="#79474D"></path>
                        <path d="M42.652933,179.812727 L42.652933,179.812727 C41.8733706,189.567126 33.1925421,196.915604 23.3611913,196.142143 C13.5298404,195.368683 6.12339008,186.755801 6.90234538,177.002005 C7.68190782,167.248209 16.3627363,159.898526 26.1946943,160.671986 C36.025438,161.445447 43.4318883,170.059533 42.652933,179.812727" id="Fill-66" fill="#EAA98C"></path>
                        <path d="M20.7512964,197.804782 L16.3325616,197.457207 C8.62315054,196.851209 3.0192866,192.662233 0.683634972,186.478162 C-0.260461281,183.97827 -0.0522136835,181.891011 0.278675357,180.17482 C0.514244068,178.950776 1.39884101,177.029172 1.40794805,176.920743 C1.41523368,176.828579 0.694563417,175.065402 0.663599489,173.830515 C0.611992941,171.814337 0.987810035,169.119875 2.52447088,166.618778 C5.9098604,161.106967 11.9891117,157.887829 19.4465614,158.474551 L23.8652962,158.822126 L23.9800448,160.893724 L21.7245351,161.700315 C21.7245351,161.700315 18.4089662,167.242847 17.0860172,169.342154 C16.0994214,170.908352 10.2320605,177.678542 10.2320605,177.678542 C10.2320605,177.678542 14.5797604,184.309581 15.7011403,186.685985 C16.5541662,188.494943 18.9462815,194.965146 18.9462815,194.965146 L21.0997923,195.671742 L20.7512964,197.804782 Z" id="Fill-68" fill="#442927"></path>
                        <path d="M28.1632109,193.731645 L27.8796784,197.27848 C27.7236445,199.2296 25.987236,200.698814 24.0213301,200.544604 C22.054817,200.390394 20.5740127,198.666974 20.7294395,196.716456 L21.0129719,193.169018 C21.1690058,191.2185 22.9048072,189.748684 24.8713203,189.903497 C26.8372262,190.057707 28.3186376,191.781127 28.1632109,193.731645" id="Fill-70" fill="#EAA98C"></path>
                        <path d="M22.811369,195.987632 L22.7937621,196.209911 C22.7063345,197.306852 23.2102573,198.249582 23.9139277,198.305002 L24.482814,198.349578 C25.1870916,198.404997 25.8342984,197.553227 25.921726,196.455684 L25.9393329,196.233404 L22.811369,195.987632 Z" id="Fill-72" fill="#C17B5F"></path>
                        <path d="M30.5715974,163.581861 L30.8545227,160.034423 C31.0105566,158.083905 29.5291451,156.36169 27.5626321,156.206878 C25.5967262,156.052065 23.8609248,157.521279 23.7048909,159.472399 L23.4213584,163.019234 C23.2653245,164.970355 24.746736,166.69257 26.713249,166.847383 C28.6791549,167.002195 30.4155635,165.532379 30.5715974,163.581861" id="Fill-74" fill="#EAA98C"></path>
                        <path d="M25.6448113,160.516993 L25.6624183,160.295918 C25.7498458,159.198977 26.3976598,158.346002 27.1013303,158.400819 L27.6702165,158.445998 C28.3744941,158.500815 28.8784169,159.44475 28.7903822,160.541691 L28.7727753,160.762765 L25.6448113,160.516993 Z" id="Fill-76" fill="#C17B5F"></path>
                        <path d="M33.1590282,172.002281 L32.6277844,178.652596 L32.5986418,179.021858 L32.067398,185.672775 C32.067398,185.672775 31.9787561,186.781764 33.2488843,186.509486 C33.2488843,186.509486 37.5322278,185.415558 38.1763989,179.460995 L38.1842917,179.461598 C38.1891488,179.398347 38.1909702,179.339314 38.194613,179.277268 C38.2006844,179.21462 38.2085771,179.154984 38.2140414,179.092336 L38.2061486,179.091734 C38.5145736,173.111269 34.4589061,171.360742 34.4589061,171.360742 C33.2476701,170.893292 33.1590282,172.002281 33.1590282,172.002281" id="Fill-78" fill="#8B2B23"></path>
                        <path d="M35.5917002,179.072096 C35.474523,180.537696 36.1945861,181.874385 37.3493585,182.629172 C37.7379254,181.767763 38.0396719,180.724435 38.1762775,179.461236 L38.1841703,179.461236 C38.1890274,179.398588 38.1908488,179.33835 38.1950987,179.276907 C38.2005629,179.214861 38.2090628,179.155828 38.2139199,179.092577 L38.2060272,179.091975 C38.2715978,177.82215 38.1392422,176.745088 37.8921379,175.833079 C36.6317239,176.39932 35.7088774,177.605894 35.5917002,179.072096" id="Fill-80" fill="#DC6666"></path>
                        <path d="M29.1216355,178.749098 C29.0463507,179.688214 28.5806775,180.481554 27.9522919,180.88756 L28.0743262,180.897198 C29.0311723,180.972496 29.8939123,180.036994 29.9910541,178.817168 C30.0888029,177.597341 29.3857396,176.538953 28.4288935,176.463655 L28.3062521,176.453414 C28.8623885,176.953995 29.1969204,177.808777 29.1216355,178.749098" id="Fill-82" fill="#D88B6C"></path>
                        <path d="M24.5390955,186.082999 C24.6070947,185.230024 24.8080567,184.454756 25.0849107,183.854782 L24.7607001,183.829481 C23.5093931,183.731293 22.4037987,184.66559 22.3048356,185.907705 C22.2052653,187.149218 23.1481473,188.244954 24.4000614,188.343745 L24.7248791,188.369045 L24.7248791,188.368442 C24.5463812,187.73353 24.4710963,186.937179 24.5390955,186.082999" id="Fill-84" fill="#754448"></path>
                        <path d="M25.7663599,170.717517 C25.8343592,169.863939 26.0353211,169.089274 26.3121751,168.489902 L26.3121751,168.4893 L25.9879645,168.464 C24.7366575,168.365811 23.6310631,169.300711 23.5321,170.542223 C23.4331369,171.783736 24.3760188,172.879472 25.6273258,172.978263 L25.9521435,173.003563 C25.7736456,172.368048 25.6983607,171.571095 25.7663599,170.717517" id="Fill-86" fill="#754448"></path>
                        <path d="M28.0564764,188.961971 C29.2907836,189.058955 30.2118087,190.129993 30.1140598,191.354639 C30.0163109,192.579285 28.9368234,193.492498 27.7025162,193.395515 C26.4688161,193.298531 25.5471839,192.228095 25.6449328,191.003449 C25.7426816,189.778803 26.8227763,188.864987 28.0564764,188.961971" id="Fill-88" fill="#E2987A"></path>
                        <path d="M30.0456963,164.063105 C31.2800035,164.160089 32.2004214,165.231127 32.1026726,166.455773 C32.0049237,167.679817 30.9254361,168.593633 29.6917361,168.496649 C28.4574289,168.399665 27.5364038,167.328627 27.6341527,166.103981 C27.7319016,164.879335 28.8119962,163.966121 30.0456963,164.063105" id="Fill-90" fill="#E2987A"></path>
                        <path d="M32.6248094,178.689703 L32.5956669,179.058964 L32.2495994,183.387693 C33.4826924,182.902172 34.4031103,181.757041 34.5148233,180.362523 L34.7273209,177.702396 C34.8384267,176.308481 34.111078,175.033837 32.9708768,174.360974 L32.6248094,178.689703 Z" id="Fill-92" fill="#FFFFFF"></path>
                        <polygon id="Fill-94" fill="#E8E8E8" points="42.7442462 190.509133 51.8943907 180.348126 50.0905901 185.770181 53.3849092 191.716912 44.6949737 193.259015"></polygon>
                        <polygon id="Fill-96" fill="#E8E8E8" points="44.4639586 168.978616 51.8868015 180.443182 50.9657764 174.806678 55.1635137 169.449078 46.8269313 166.567877"></polygon>
                        <path d="M50.8139925,220.321221 C50.8413136,220.617594 50.8334208,220.907943 50.7733144,221.184437 C50.5274243,222.308485 49.2160109,224.017447 48.4886621,225.233057 C45.3916621,230.409942 52.9863245,235.553094 56.0778603,230.384642 C57.4906654,228.022696 58.9575057,225.778215 59.4650712,223.037971 L50.8139925,220.321221 Z" id="Fill-98" fill="#EAA98C"></path>
                        <path d="M53.6471919,192.838671 C53.6471919,192.838671 65.4887696,198.076397 66.2652964,210.807173 C66.6235065,216.6768 58.0307128,228.902779 58.0307128,228.902779 C58.0307128,228.902779 54.3077557,226.511315 48.9601031,222.918097 C48.9601031,222.918097 54.7625005,210.83669 51.7966418,205.282713 C49.6328096,201.232285 46.5843805,197.222217 46.8776271,195.68132 C47.4841559,192.498324 52.8190586,192.801926 52.8190586,192.801926" id="Fill-100" fill="#D6D6D6"></path>
                        <path d="M57.1637228,140.828384 C57.2377934,140.539842 57.2766501,140.251903 57.2608645,139.969988 C57.1965081,138.821242 56.1728771,136.928552 55.6477046,135.614754 C53.4110161,130.018007 61.727563,126.126006 63.9600015,131.713115 C64.9799898,134.266619 66.0722272,136.712297 66.138405,139.497719 L57.1637228,140.828384 Z" id="Fill-102" fill="#EAA98C"></path>
                        <path d="M55.5987694,168.410387 C55.5987694,168.410387 68.1239821,165.088844 70.9119499,152.638176 C72.1972565,146.898062 65.6529391,133.482376 65.6529391,133.482376 C65.6529391,133.482376 61.5972716,135.261817 55.7456963,137.974953 C55.7456963,137.974953 59.5572952,150.811749 55.7463034,155.832617 C52.9668355,159.494507 49.3197704,162.977489 49.3646985,164.545494 C49.4581974,167.783908 54.7748861,168.31762 54.7748861,168.31762" id="Fill-104" fill="#D6D6D6"></path>
                        <path d="M342.820596,179.733875 L346.070594,169.142163 C346.500446,167.232607 347.601791,166.186267 347.601791,166.186267 L345.847168,160.956372 L344.912179,155.524076 C344.912179,155.524076 343.44291,155.116262 342.15821,153.633796 L334.262409,145.80823 C334.262409,145.80823 331.44712,143.674587 327.160741,144.738999 L324.755876,145.335961 L329.646962,164.722474 L329.768996,165.207393 L334.659476,184.592702 L337.063734,183.995739 C341.349506,182.93193 342.820596,179.733875 342.820596,179.733875" id="Fill-106" fill="#CE896A"></path>
                        <path d="M343.433014,180.191566 L345.547668,173.311742 C343.606047,172.574425 341.812568,171.30219 340.342085,169.619131 C338.809067,167.864989 331.943575,164.294661 331.943575,164.294661 C331.943575,164.294661 336.365952,158.664181 336.735091,156.591981 C337.171622,154.14028 338.20861,151.922303 339.717342,150.197077 L334.58583,145.11838 C334.58583,145.11838 331.671578,142.913656 327.233415,144.015415 L303.380261,149.938654 L313.619,190.523048 L337.471547,184.59981 C341.909103,183.497448 343.433014,180.191566 343.433014,180.191566" id="Fill-108" fill="#D6D6D6"></path>
                        <path d="M345.110955,155.269087 C344.038146,157.46357 343.688436,159.602635 344.19418,161.606765 C344.658639,163.445843 345.80734,165.04999 347.525534,166.410173 L360.008247,163.310909 L357.220887,152.261988 L345.110955,155.269087 Z" id="Fill-110" fill="#A05138"></path>
                        <path d="M356.83748,164.897828 L353.660339,152.301986 C352.081178,146.042617 355.950455,139.639881 362.259204,138.073081 L364.189896,137.593584 C370.498644,136.026784 376.951891,139.866378 378.530445,146.125746 L381.708194,158.722191 C383.286747,164.981559 379.41747,171.384295 373.109328,172.950493 L371.178636,173.42999 C364.869281,174.99679 358.416641,171.157799 356.83748,164.897828" id="Fill-112" fill="#1C1617"></path>
                        <path d="M345.274032,160.984081 L345.274032,160.984081 C342.879488,151.492322 348.748063,141.7825 358.314703,139.406699 C367.881949,137.030897 377.668372,142.852935 380.063523,152.345297 C382.45746,161.837056 376.589492,171.547481 367.022245,173.923282 C357.454998,176.299083 347.667968,170.475841 345.274032,160.984081" id="Fill-114" fill="#CE896A"></path>
                        <path d="M360.254987,137.005838 L364.554724,135.938414 C375.197208,133.295155 384.494886,140.055707 387.126213,150.488389 C389.758147,160.92047 384.766883,171.229663 374.124399,173.872321 L369.824663,174.940949 L369.04935,173.013321 L374.463181,170.657399 L381.992272,151.440155 L366.412559,138.248556 L360.609555,139.137674 L360.254987,137.005838 Z" id="Fill-116" fill="#1C1617"></path>
                        <path d="M354.537589,143.209667 L353.666956,139.758611 C353.187926,137.859898 354.362127,135.917813 356.275212,135.442532 C358.188904,134.967251 360.145703,136.132261 360.624733,138.030372 L361.495366,141.482031 C361.974396,143.380142 360.800803,145.322829 358.88711,145.79811 C356.974632,146.272788 355.016619,145.107778 354.537589,143.209667" id="Fill-118" fill="#CE896A"></path>
                        <path d="M358.88535,139.379471 L358.831315,139.163817 C358.561746,138.095791 357.781577,137.361486 357.09612,137.53196 L356.54302,137.668701 C355.85817,137.839176 355.517567,138.851783 355.786528,139.919207 L355.841171,140.135462 L358.88535,139.379471 Z" id="Fill-120" fill="#93422C"></path>
                        <path d="M361.938818,172.549426 L362.810058,176.001084 C363.288481,177.899797 365.245887,179.063603 367.159579,178.588322 C369.072664,178.113644 370.246258,176.172161 369.767835,174.273448 L368.896595,170.821789 C368.417565,168.923076 366.460159,167.758669 364.547074,168.233949 C362.633989,168.70923 361.459788,170.651315 361.938818,172.549426" id="Fill-122" fill="#CE896A"></path>
                        <path d="M367.592771,173.896536 L367.647413,174.111587 C367.916374,175.179614 367.576985,176.192823 366.892136,176.363297 L366.339035,176.500039 C365.653579,176.669911 364.872802,175.935605 364.603234,174.867579 L364.548592,174.652528 L367.592771,173.896536 Z" id="Fill-124" fill="#93422C"></path>
                        <path d="M356.781138,165.38606 L355.149157,158.91405 L355.058087,158.554427 L353.425498,152.082417 C353.425498,152.082417 353.152894,151.003548 352.036979,151.66376 C352.036979,151.66376 348.328593,154.054621 349.630292,159.902562 L349.622399,159.904369 C349.637578,159.965812 349.655792,160.023038 349.671577,160.082674 C349.686149,160.144117 349.697684,160.203151 349.712863,160.263992 L349.720755,160.262185 C351.349094,166.028201 355.755686,166.404691 355.755686,166.404691 C357.053742,166.465532 356.781138,165.38606 356.781138,165.38606" id="Fill-126" fill="#8B2B23"></path>
                        <path d="M352.205095,159.454027 C351.845063,158.028185 350.733397,156.98847 349.396484,156.637883 C349.304807,157.577602 349.353985,158.661892 349.630231,159.902803 L349.622339,159.90461 C349.637517,159.966053 349.655731,160.022677 349.671517,160.082915 C349.686695,160.143756 349.697624,160.202187 349.713409,160.26363 L349.720695,160.261823 C350.066762,161.485867 350.5379,162.465343 351.064893,163.252056 C352.077596,162.316554 352.564519,160.880471 352.205095,159.454027" id="Fill-128" fill="#DC6666"></path>
                        <path d="M358.441291,157.714523 C358.210579,156.800105 358.398184,155.901349 358.862643,155.317639 L358.743644,155.347156 C357.812905,155.578471 357.295625,156.73806 357.594943,157.924755 C357.894868,159.111451 358.9015,159.892743 359.832239,159.661427 L359.951237,159.632513 C359.263352,159.333731 358.672002,158.628942 358.441291,157.714523" id="Fill-130" fill="#A05138"></path>
                        <path d="M360.429296,149.3135 C360.638758,150.144187 360.69765,150.942346 360.627222,151.598341 L360.94354,151.520032 C362.161455,151.217635 362.908232,149.981544 362.60345,148.773764 C362.298667,147.565985 361.052825,146.825053 359.83491,147.12745 L359.5192,147.20576 L359.5192,147.206362 C359.892588,147.751519 360.219834,148.482813 360.429296,149.3135" id="Fill-132" fill="#191414"></path>
                        <path d="M364.201371,164.266048 C364.410832,165.096735 364.469117,165.894894 364.399297,166.550889 L364.715615,166.472579 C365.933529,166.170183 366.680306,164.933489 366.375524,163.726312 C366.070742,162.518533 364.824899,161.776999 363.606985,162.079998 L363.291274,162.158308 C363.664662,162.704067 363.991302,163.435963 364.201371,164.266048" id="Fill-134" fill="#191414"></path>
                        <path d="M355.139989,158.878148 L355.049526,158.518525 L353.987038,154.306658 C352.974336,155.156622 352.469199,156.533068 352.811016,157.889636 L353.464294,160.478681 C353.806719,161.835852 354.905028,162.81352 356.202477,163.090617 L355.139989,158.878148 Z" id="Fill-136" fill="#FFFFFF"></path>
                        <polygon id="Fill-138" fill="#1C1617" points="368.231356 138.851783 370.404295 151.42112 372.421808 148.791113 372.231774 157.734101 373.841899 155.742018 373.335547 162.117647 374.755031 160.989382 374.079896 166.455412 375.652378 165.475936 373.252977 172.347326 380.618749 169.267338 386.152792 151.497021"></polygon>
                        <path d="M362.96512,154.669655 L364.02512,158.697192" id="Stroke-140" stroke="#606060" stroke-width="2.528"></path>
                        <path d="M362.847761,154.204916 C359.63237,155.003074 356.373264,153.064001 355.568809,149.87438 C354.764354,146.684156 356.718118,143.45056 359.933509,142.6518 C363.148293,141.853641 366.407399,143.792714 367.211854,146.982938 C368.017523,150.173162 366.063153,153.406155 362.847761,154.204916 Z" id="Stroke-142" stroke="#606060" stroke-width="2.251"></path>
                        <path d="M366.894929,170.249284 C363.679537,171.047442 360.421039,169.108369 359.615977,165.918748 C358.811522,162.729126 360.765285,159.494929 363.980677,158.69677 C367.196068,157.89801 370.454566,159.837083 371.259628,163.027306 C372.064691,166.21753 370.11032,169.451126 366.894929,170.249284 Z" id="Stroke-144" stroke="#606060" stroke-width="2.251"></path>
                        <polygon id="Fill-146" fill="#E8E8E8" points="342.14285 151.303053 331.943575 164.294661 333.113526 153.111409 337.439976 152.890936 338.413822 147.447798"></polygon>
                        <polygon id="Fill-148" fill="#E8E8E8" points="347.108493 170.988168 331.943453 164.295083 338.285594 173.613356 342.206478 171.785724 345.650759 176.131922"></polygon>
                        <polygon id="Fill-150" fill="#E8E8E8" points="331.475291 180.27331 329.400101 172.048363 331.16383 171.61043 333.238413 179.835377"></polygon>
                        <path d="M324.736933,125.221106 C324.616113,124.948828 324.5299,124.671732 324.498328,124.390418 C324.370223,123.247697 325.064786,121.212845 325.36289,119.830374 C326.636054,113.943881 317.785834,111.470494 316.515099,117.346746 C315.934677,120.032775 315.265006,122.623627 315.665109,125.381942 L324.736933,125.221106 Z" id="Fill-152" fill="#CE896A"></path>
                        <path d="M330.878841,152.16663 C330.878841,152.16663 317.972347,150.946803 313.146831,139.125024 C310.922285,133.674657 315.140058,119.369249 315.140058,119.369249 C315.140058,119.369249 319.436758,120.458359 325.659901,122.173948 C325.659901,122.173948 324.040669,135.460122 328.636081,139.785839 C331.988078,142.942329 336.16578,145.778954 336.38192,147.332501 C336.830593,150.541399 331.675403,151.939532 331.675403,151.939532" id="Fill-154" fill="#D6D6D6"></path>
                        <path d="M344.251251,202.577408 C344.273108,202.873781 344.329571,203.15931 344.435213,203.421347 C344.865065,204.489976 346.443011,205.959792 347.362822,207.039866 C351.280062,211.637258 344.64771,217.956263 340.737148,213.366099 C338.950347,211.268599 337.129547,209.29519 336.171487,206.676026 L344.251251,202.577408 Z" id="Fill-156" fill="#CE896A"></path>
                        <path d="M336.875521,175.938376 C336.875521,175.938376 326.069717,183.047106 327.426666,195.729691 C328.051409,201.577632 338.563966,212.224763 338.563966,212.224763 C338.563966,212.224763 341.837036,209.256216 346.511982,204.834118 C346.511982,204.834118 338.775857,193.871338 340.775155,187.907137 C342.233495,183.556722 344.572183,179.102697 344.025153,177.631074 C342.897095,174.590844 337.686048,175.766094 337.686048,175.766094" id="Fill-158" fill="#D6D6D6"></path>
                        <path d="M202.444108,49.8861015 L192.876861,44.1869497 C191.114346,43.3098791 190.359069,41.9948756 190.359069,41.9948756 L184.819561,42.414737 L179.281268,41.9948756 C179.281268,41.9948756 178.525384,43.3098791 176.764083,44.1869497 L167.196229,49.8861015 C167.196229,49.8861015 164.426475,52.0787781 164.426475,56.4623239 L164.426475,58.921254 L184.568814,58.921254 L185.071522,58.921254 L205.213862,58.921254 L205.213862,56.4623239 C205.213862,52.0787781 202.444108,49.8861015 202.444108,49.8861015" id="Fill-160" fill="#BC7E6F"></path>
                        <path d="M203.039951,49.4078089 L196.827737,45.7019446 C194.391301,49.1542054 189.926424,51.4685634 184.819804,51.4685634 C179.712577,51.4685634 175.248307,49.1542054 172.811871,45.7019446 L166.600264,49.4078089 C166.600264,49.4078089 163.737011,51.6775905 163.737011,56.215949 L163.737011,80.6124872 L205.902596,80.6124872 L205.902596,56.215949 C205.902596,51.6775905 203.039951,49.4078089 203.039951,49.4078089" id="Fill-162" fill="#E8E8E8"></path>
                        <path d="M179.080063,41.7415733 C180.964613,43.3077708 182.972411,44.1631556 185.054887,44.1631556 C186.964936,44.1631556 188.812451,43.446319 190.559788,42.1234845 L190.559788,29.3559629 L179.080063,29.3559629 L179.080063,41.7415733 Z" id="Fill-164" fill="#9B5D51"></path>
                        <path d="M184.707605,42.9727852 L184.707605,42.9727852 C174.845898,42.9727852 166.777062,34.9671064 166.777062,25.1819862 C166.777062,15.3968661 174.845898,7.39118726 184.707605,7.39118726 C194.569313,7.39118726 202.639363,15.3968661 202.639363,25.1819862 C202.639363,34.9671064 194.569313,42.9727852 184.707605,42.9727852" id="Fill-166" fill="#BC7E6F"></path>
                        <path d="M189.023673,32.9570124 L180.825518,32.9570124 C173.31039,32.9570124 167.161318,26.8566731 167.161318,19.4003681 C167.161318,11.9440632 173.31039,5.84312149 180.825518,5.84312149 L189.023673,5.84312149 C196.538801,5.84312149 202.687266,11.9440632 202.687266,19.4003681 C202.687266,26.8566731 196.538801,32.9570124 189.023673,32.9570124" id="Fill-168" fill="#BC7E6F"></path>
                        <path d="M191.341961,32.7928628 L178.25454,32.7928628 C171.751508,32.7928628 166.43057,27.5141748 166.43057,21.0614411 L166.43057,19.0868274 C166.43057,12.6346961 171.751508,7.35600805 178.25454,7.35600805 L191.341961,7.35600805 C197.844993,7.35600805 203.165932,12.6346961 203.165932,19.0868274 L203.165932,21.0614411 C203.165932,27.5141748 197.844993,32.7928628 191.341961,32.7928628" id="Fill-170" fill="#BC7E6F"></path>
                        <path d="M164.900405,22.8105825 L164.900405,18.3336671 C164.900405,7.44859442 173.768231,0.14228302 184.606821,0.14228302 C195.446017,0.14228302 204.313843,7.44859442 204.313843,18.3336671 L204.313843,22.7316702 L202.241689,23.0093691 L202.364937,17.2728695 L199.68929,11.8502118 L194.944523,9.91053644 L190.542181,6.20105786 L184.469001,4.93966648 L169.894705,8.55457082 L166.706027,17.1409475 L167.070916,22.9081687 L164.900405,22.8105825 Z" id="Fill-172" fill="#773A32"></path>
                        <path d="M169.578448,29.7409463 L165.992096,29.7409463 C164.020119,29.7409463 162.406352,28.1398105 162.406352,26.182666 C162.406352,24.2261239 164.020119,22.6249881 165.992096,22.6249881 L169.578448,22.6249881 C171.550425,22.6249881 173.164799,24.2261239 173.164799,26.182666 C173.164799,28.1398105 171.550425,29.7409463 169.578448,29.7409463" id="Fill-174" fill="#BC7E6F"></path>
                        <path d="M166.888714,24.6259861 L166.664074,24.6259861 C165.554837,24.6259861 164.647776,25.198853 164.647776,25.9000276 L164.647776,26.4656658 C164.647776,27.1668404 165.554837,27.7397073 166.664074,27.7397073 L166.888714,27.7397073 L166.888714,24.6259861 Z" id="Fill-176" fill="#84453D"></path>
                        <path d="M200.061525,29.7409463 L203.647876,29.7409463 C205.619853,29.7409463 207.23362,28.1398105 207.23362,26.182666 C207.23362,24.2261239 205.619853,22.6249881 203.647876,22.6249881 L200.061525,22.6249881 C198.08894,22.6249881 196.475173,24.2261239 196.475173,26.182666 C196.475173,28.1398105 198.08894,29.7409463 200.061525,29.7409463" id="Fill-178" fill="#BC7E6F"></path>
                        <path d="M202.751258,24.6259861 L202.975291,24.6259861 C204.084528,24.6259861 204.992196,25.198853 204.992196,25.9000276 L204.992196,26.4656658 C204.992196,27.1668404 204.084528,27.7397073 202.975291,27.7397073 L202.751258,27.7397073 L202.751258,24.6259861 Z" id="Fill-180" fill="#84453D"></path>
                        <path d="M191.805266,32.9658072 L185.081237,32.9658072 L184.707848,32.9658072 L177.983211,32.9658072 C177.983211,32.9658072 176.862439,32.9658072 177.236434,34.2006937 C177.236434,34.2006937 178.674739,38.3499123 184.707848,38.517375 L184.707848,38.525206 C184.771597,38.525206 184.831704,38.522194 184.893632,38.5209893 C184.957381,38.522194 185.018094,38.525206 185.081237,38.525206 L185.081237,38.517375 C191.114346,38.3499123 192.55265,34.2006937 192.55265,34.2006937 C192.926646,32.9658072 191.805266,32.9658072 191.805266,32.9658072" id="Fill-182" fill="#8B2B23"></path>
                        <path d="M184.89436,35.9300769 C183.412949,35.9300769 182.126428,36.7475116 181.459186,37.9498693 C182.355318,38.2661208 183.42752,38.4817741 184.707362,38.5173147 L184.707362,38.5257481 C184.771112,38.5257481 184.831218,38.5221338 184.89436,38.520929 C184.957502,38.5221338 185.017609,38.5257481 185.080751,38.5257481 L185.080751,38.5173147 C186.361808,38.4817741 187.434009,38.2661208 188.330749,37.9498693 C187.662293,36.7475116 186.376379,35.9300769 184.89436,35.9300769" id="Fill-184" fill="#DC6666"></path>
                        <path d="M184.707605,29.5056552 C183.758045,29.5056552 182.924447,29.1074796 182.466667,28.517746 L182.466667,28.6400299 C182.466667,29.5917961 183.475119,30.3712805 184.707605,30.3712805 C185.941305,30.3712805 186.949151,29.5917961 186.949151,28.6400299 L186.949151,28.517746 C186.49137,29.1074796 185.657773,29.5056552 184.707605,29.5056552" id="Fill-186" fill="#9B5D51"></path>
                        <path d="M176.976702,25.5525124 C177.839442,25.5525124 178.634182,25.6898559 179.258925,25.9163522 L179.258925,25.5928721 C179.258925,24.3477451 178.231651,23.328512 176.976702,23.328512 C175.721752,23.328512 174.694478,24.3477451 174.694478,25.5928721 L174.694478,25.9163522 L174.695085,25.9163522 C175.319221,25.6898559 176.113961,25.5525124 176.976702,25.5525124" id="Fill-188" fill="#2D1F20"></path>
                        <path d="M192.512033,25.5525124 C193.374773,25.5525124 194.169514,25.6898559 194.79365,25.9163522 L194.79365,25.5928721 C194.79365,24.3477451 193.766376,23.328512 192.512033,23.328512 C191.257083,23.328512 190.229809,24.3477451 190.229809,25.5928721 L190.229809,25.9163522 L190.230416,25.9163522 C190.854552,25.6898559 191.649293,25.5525124 192.512033,25.5525124" id="Fill-190" fill="#2D1F20"></path>
                        <path d="M174.36201,29.2591598 C174.36201,30.4874201 173.358415,31.4825579 172.121072,31.4825579 C170.882515,31.4825579 169.879526,30.4874201 169.879526,29.2591598 C169.879526,28.0308995 170.882515,27.0351593 172.121072,27.0351593 C173.358415,27.0351593 174.36201,28.0308995 174.36201,29.2591598" id="Fill-192" fill="#B26E60"></path>
                        <path d="M199.53617,29.2591598 C199.53617,30.4874201 198.533181,31.4825579 197.295231,31.4825579 C196.057281,31.4825579 195.053686,30.4874201 195.053686,29.2591598 C195.053686,28.0308995 196.057281,27.0351593 197.295231,27.0351593 C198.533181,27.0351593 199.53617,28.0308995 199.53617,29.2591598" id="Fill-194" fill="#B26E60"></path>
                        <path d="M185.043776,32.9658072 L184.670388,32.9658072 L180.294153,32.9658072 C180.879431,34.1470815 182.10281,34.9669257 183.51258,34.9669257 L186.202192,34.9669257 C187.611354,34.9669257 188.834733,34.1470815 189.420012,32.9658072 L185.043776,32.9658072 Z" id="Fill-196" fill="#FFFFFF"></path>
                        <path d="M202.981848,12.6124079 L197.516411,5.3819968 L183.844319,3.4025641 L183.831569,3.63749373 L171.716173,5.39163494 L166.250736,12.622046 L165.794777,22.5637859 L167.052762,22.6246267 C167.052762,22.6246267 167.16144,19.8524571 167.755219,18.0447037 C167.755219,18.0447037 169.62459,16.862827 170.34526,14.0731882 C170.34526,14.0731882 170.804862,12.1702583 172.171525,11.2666828 C172.171525,11.2666828 173.538188,10.3625049 174.943707,10.8142926 C174.943707,10.8142926 181.200849,12.2359181 184.666381,11.9250881 C188.150733,12.1997751 194.28827,10.8046545 194.28827,10.8046545 C195.694396,10.3528668 197.061059,11.2570446 197.061059,11.2570446 C198.427115,12.1606201 198.886717,14.0635501 198.886717,14.0635501 C199.607994,16.8531888 201.476758,18.0350656 201.476758,18.0350656 C202.071144,19.8428189 202.179214,22.6149885 202.179214,22.6149885 L203.4372,22.5541478 L202.981848,12.6124079 Z" id="Fill-198" fill="#773A32"></path>
                        <path d="M144.61885,54.5080709 C144.323782,54.5580687 144.031142,54.5731283 143.748824,54.5357805 C142.600123,54.3815703 140.779323,53.2189698 139.500087,52.5961051 C134.054079,49.9420027 129.486596,57.8597336 134.923497,60.5096193 C137.409111,61.7204104 139.779977,62.9938495 142.573409,63.2793793 L144.61885,54.5080709 Z" id="Fill-200" fill="#BC7E6F"></path>
                        <path d="M172.455482,55.1387063 C172.455482,55.1387063 168.129032,67.2646894 155.399215,69.0387093 C149.529425,69.8573487 136.567075,62.3239386 136.567075,62.3239386 C136.567075,62.3239386 138.675658,58.4530212 141.863728,52.8791652 C141.863728,52.8791652 154.460583,57.6638986 159.806414,54.2917549 C163.70544,51.83162 167.493361,48.499836 169.065236,48.6679011 C172.310984,49.0160788 172.427554,54.317055 172.427554,54.317055" id="Fill-202" fill="#E8E8E8"></path>
                        <path d="M224.990523,54.5080709 C225.286198,54.5580687 225.57823,54.5731283 225.860548,54.5357805 C227.009249,54.3815703 228.83005,53.2189698 230.109285,52.5961051 C235.555294,49.9420027 240.122777,57.8597336 234.685875,60.5096193 C232.200868,61.7204104 229.829395,62.9938495 227.036571,63.2793793 L224.990523,54.5080709 Z" id="Fill-204" fill="#BC7E6F"></path>
                        <path d="M197.15389,55.1387063 C197.15389,55.1387063 201.480947,67.2646894 214.210765,69.0387093 C220.079947,69.8573487 233.042298,62.3239386 233.042298,62.3239386 C233.042298,62.3239386 230.934322,58.4530212 227.745644,52.8791652 C227.745644,52.8791652 215.14879,57.6638986 209.802959,54.2917549 C205.903932,51.83162 202.116012,48.499836 200.544744,48.6679011 C197.298389,49.0160788 197.182426,54.317055 197.182426,54.317055" id="Fill-206" fill="#E8E8E8"></path>
                        <path d="M105.45798,77.7651401 L94.7487107,80.8764517 C92.9036248,81.5673858 91.4179634,81.2258343 91.4179634,81.2258343 L87.9718603,85.5497442 L83.9052643,89.3037991 C83.9052643,89.3037991 84.3672947,90.746508 83.8220867,92.625945 L81.5556486,103.467646 C81.5556486,103.467646 81.3012587,106.973519 84.5482212,109.946885 L87.4017597,112.55882 L115.060441,82.8173319 L112.206902,80.204794 C108.95994,77.2320306 105.45798,77.7651401 105.45798,77.7651401" id="Fill-208" fill="#EAA98C"></path>
                        <path d="M83.5812359,89.2786797 C86.0194935,88.9654402 88.0139348,88.0829482 89.4261328,86.5637366 C90.7217607,85.171628 91.4436452,83.3379721 91.6488572,81.166379 L82.191502,72.5089211 L74.406806,80.8802468 L83.5812359,89.2786797 Z" id="Fill-210" fill="#D88B6C"></path>
                        <path d="M85.5007566,74.0184945 L76.1599715,84.063242 C71.5184179,89.0539906 63.8102211,89.5581858 59.0308477,85.1824709 L57.5676503,83.843372 C52.7882768,79.4676571 52.6759567,71.8041322 57.3175103,66.8133836 L66.6582954,56.768636 C71.3004562,51.7778874 79.0080458,51.2736923 83.7874193,55.6494072 L85.2500095,56.9885061 C90.0299901,61.364221 90.1429174,69.0271435 85.5007566,74.0184945" id="Fill-212" fill="#723D25"></path>
                        <path d="M88.3093671,86.0097243 L88.3093671,86.0097243 C81.6217657,93.2009805 70.2197543,93.6557801 62.9717665,87.0205241 C55.7237787,80.3846657 55.264784,69.072503 61.9523854,61.8806445 C68.6399868,54.6899907 80.0426053,54.2345887 87.2905931,60.8704471 C94.5391881,67.5057031 94.9969685,78.8184682 88.3093671,86.0097243" id="Fill-214" fill="#EAA98C"></path>
                        <path d="M68.2483842,88.0692138 L65.8168051,90.6847637 C64.4792848,92.1226535 62.1982754,92.2136134 60.7490421,90.8865622 C59.2992017,89.559511 59.2075242,87.296958 60.5450445,85.8584658 L62.9772307,83.2435183 C64.314751,81.8056285 66.5951533,81.7140662 68.0449937,83.0411174 C69.494227,84.3681686 69.5859045,86.631324 68.2483842,88.0692138" id="Fill-216" fill="#EAA98C"></path>
                        <path d="M62.6356561,86.5620499 L62.4838721,86.7252959 C61.7310237,87.5342971 61.540383,88.5842519 62.0594842,89.0595326 L62.4784079,89.443251 C62.9975091,89.9185317 64.0375328,89.6456519 64.7897741,88.8366506 L64.9421652,88.6734046 L62.6356561,86.5620499 Z" id="Fill-218" fill="#C17B5F"></path>
                        <path d="M88.9197815,65.8416182 L91.3519677,63.2260684 C92.689488,61.7881786 92.5972034,59.5256256 91.1479701,58.1985744 C89.6981297,56.8709208 87.4183345,56.9624831 86.0808142,58.4003729 L83.648628,61.0153204 C82.3111077,62.4538125 82.4027852,64.7163656 83.8520185,66.0434168 C85.3018589,67.370468 87.5822612,67.2801104 88.9197815,65.8416182" id="Fill-220" fill="#EAA98C"></path>
                        <path d="M86.9552113,60.4113103 L87.1069953,60.2480643 C87.8592366,59.4396654 88.8992603,59.1661832 89.4183615,59.6408616 L89.8378923,60.02458 C90.3569935,60.4992583 90.1651386,61.5510201 89.4128972,62.359419 L89.2611133,62.522665 L86.9552113,60.4113103 Z" id="Fill-222" fill="#C17B5F"></path>
                        <path d="M85.7097935,74.0484932 L81.1502033,78.9518962 L80.8970276,79.2241736 L76.3368302,84.1269742 C76.3368302,84.1269742 75.5766961,84.9444088 76.7448255,85.5088423 C76.7448255,85.5088423 80.7944216,87.2750312 85.0091587,82.9884691 L85.014623,82.9944929 C85.0583367,82.947507 85.0965863,82.9011235 85.1384787,82.8553423 C85.1815853,82.8095611 85.2252991,82.7679967 85.2684057,82.7210107 L85.2623344,82.7161917 C89.2299672,78.2037357 87.1317057,74.3406493 87.1317057,74.3406493 C86.4705347,73.2310586 85.7097935,74.0484932 85.7097935,74.0484932" id="Fill-224" fill="#8B2B23"></path>
                        <path d="M83.2192615,81.0982494 C82.2144517,82.1789257 81.9479191,83.67103 82.385664,84.9721787 C83.2277614,84.533041 84.1147869,83.8975263 85.009098,82.9885293 L85.0151694,82.9939508 C85.058276,82.9475672 85.0965256,82.9011837 85.138418,82.8548002 C85.1815246,82.8102238 85.2246313,82.7680569 85.268345,82.7216734 L85.2622737,82.7168543 C86.1043711,81.7584619 86.671436,80.8307911 87.0448245,79.9615514 C85.70184,79.6338547 84.2246785,80.0175731 83.2192615,81.0982494" id="Fill-226" fill="#DC6666"></path>
                        <path d="M78.3337607,76.8774676 C77.6895896,77.5696064 76.8292781,77.9075436 76.082501,77.8424862 L76.1723571,77.9244104 C76.877849,78.5701657 78.1388701,78.3635481 78.9748962,77.4641893 C79.8109223,76.5648305 79.9177782,75.3016319 79.2122863,74.6558767 L79.1218231,74.5733501 C79.2475002,75.3070534 78.9779319,76.1847264 78.3337607,76.8774676" id="Fill-228" fill="#D88B6C"></path>
                        <path d="M70.1629264,79.8340871 C70.7482054,79.2045961 71.3887337,78.7178701 71.980084,78.4166783 L71.7408725,78.1974107 C70.818026,77.3534712 69.3663642,77.4106976 68.5157668,78.3257184 C67.6645624,79.2413415 67.7228474,80.6810385 68.6456939,81.5261828 L68.8849054,81.744848 L68.8855126,81.744848 C69.1405096,81.1358381 69.5776475,80.463578 70.1629264,79.8340871" id="Fill-230" fill="#754448"></path>
                        <path d="M80.6976442,68.5058407 C81.2829231,67.8769521 81.9234515,67.3896238 82.5148018,67.0884319 L82.2755903,66.8697667 C81.3527438,66.0252248 79.9010819,66.0830536 79.0504846,66.997472 C78.1992801,67.9130952 78.2581723,69.3527921 79.1804117,70.1979364 L79.4202303,70.4166016 L79.4202303,70.4166016 C79.6752274,69.8075918 80.1129724,69.1353316 80.6976442,68.5058407" id="Fill-232" fill="#754448"></path>
                        <path d="M71.1352545,84.2543181 C72.0453511,85.0874147 72.1018148,86.4939806 71.262753,87.3963513 C70.4230841,88.2993244 69.0054219,88.3565508 68.0953253,87.5234542 C67.1858358,86.6903576 67.1281578,85.2837918 67.9684339,84.3808187 C68.8074956,83.4778456 70.225765,83.4212215 71.1352545,84.2543181" id="Fill-234" fill="#E2987A"></path>
                        <path d="M88.2068219,65.8975194 C89.1169185,66.730616 89.1733821,68.1371819 88.3343204,69.0395526 C87.4946515,69.9425257 86.0769893,69.9991498 85.1668926,69.1660532 C84.2574031,68.333559 84.1997252,66.9263907 85.0400012,66.0234176 C85.879063,65.1210469 87.2967252,65.0644228 88.2068219,65.8975194" id="Fill-236" fill="#E2987A"></path>
                        <path d="M81.1245214,78.9787625 L80.8713458,79.2510399 L77.9036657,82.4418662 C79.1756153,82.8165488 80.6127059,82.4804187 81.5683377,81.4521498 L83.392781,79.491391 C84.3484128,78.4637245 84.5706245,77.0149918 84.0928086,75.7873339 L81.1245214,78.9787625 Z" id="Fill-238" fill="#FFFFFF"></path>
                        <path d="M60.4490563,54.2974776 C60.4490563,54.2974776 57.4631622,54.282418 56.0084647,48.9236129 C55.4043645,46.7002148 56.268926,43.1455489 58.7023265,41.208283 C58.7023265,41.208283 61.0246211,39.1125903 64.872041,38.8487462 C67.1542647,38.6927289 70.5955107,39.4161916 73.4514778,40.5932493 C73.4514778,40.5932493 81.9950935,44.5629576 84.6227775,43.9491287 C84.6227775,43.9491287 85.4952317,43.6099867 85.6033019,44.2473086 C85.6403372,44.4671786 85.5225528,45.9062732 84.316781,47.3525963 C83.4607195,48.3790581 81.3175299,49.9289913 79.6448706,50.7807618 C75.7573797,52.7601945 68.2270737,52.3180448 64.5174737,52.6680298 L60.4490563,54.2974776 Z" id="Fill-240" fill="#723D25"></path>
                        <path d="M80.5390603,52.88037 C72.8563632,47.593851 62.0875946,48.730549 55.3999931,55.9224075 C48.7129988,63.1124588 48.4349306,73.8541642 54.3630051,81.0279512 L80.5390603,52.88037 Z" id="Fill-242" fill="#723D25"></path>
                        <path d="M71.0703517,61.8961257 C71.0703517,61.8961257 75.4733009,67.1567422 72.1018755,71.4487258 L61.1643231,85.1782542 L60.2779047,86.186042 C60.2779047,86.186042 56.9823713,84.56563 54.1865107,80.8145869 L71.0703517,61.8961257 Z" id="Fill-244" fill="#723D25"></path>
                        <path d="M70.4525302,62.5602537 C70.4525302,62.5602537 76.6483516,66.2787681 81.4489748,63.1156515 L86.352204,58.1767078 C86.352204,58.1767078 83.2964892,54.3545835 79.063538,51.9649275 L70.4525302,62.5602537 Z" id="Fill-246" fill="#723D25"></path>
                        <path d="M81.31073,103.1982 C81.31073,103.1982 79.7801405,111.174362 79.2707535,112.514063 C79.2707535,112.514063 77.8585555,115.448274 75.3104063,118.188517 C75.3104063,118.188517 71.6542342,121.911851 69.7715059,123.186494 C69.5353301,123.315405 67.4564969,124.218378 66.1450835,124.670768 C66.1450835,124.670768 62.433662,125.537598 62.1398082,128.727822 C62.1398082,128.727822 61.5193154,132.310197 65.3266643,133.79688 C65.3266643,133.79688 68.7041611,134.621543 74.2127047,130.864477 C74.2127047,130.864477 78.6702961,127.528476 83.1345661,122.353398 C83.1345661,122.353398 87.156234,118.195143 89.3722798,112.230943 C89.3722798,112.230943 90.9465831,109.829842 92.5603502,108.385928 L82.5662869,98.3917807 L81.31073,103.1982 Z" id="Fill-248" fill="#EAA98C"></path>
                        <path d="M105.186469,77.5245481 C105.186469,77.5245481 113.076806,75.3710265 114.381541,74.7596071 C114.381541,74.7596071 117.216259,73.1271474 119.764408,70.3869041 C119.764408,70.3869041 123.211725,66.4720127 124.340391,64.5088444 C124.451497,64.2636742 125.191595,62.1360552 125.540091,60.8023777 C125.540091,60.8023777 126.113835,57.0621776 129.294619,56.5158156 C129.294619,56.5158156 132.843936,55.6146497 134.644093,59.260878 C134.644093,59.260878 135.743616,62.5342308 132.410441,68.2839828 C132.410441,68.2839828 129.417261,72.9602871 124.576567,77.7901993 C124.576567,77.7901993 120.722468,82.1020615 114.907928,84.7718259 C114.907928,84.7718259 112.622062,86.5223528 111.301541,88.2337248 L100.458095,79.1521888 L105.186469,77.5245481 Z" id="Fill-250" fill="#EAA98C"></path>
                        <path d="M102.155525,78.0734401 L98.6292802,79.0956852 C99.5345198,83.2129775 98.2212849,88.038673 94.7575749,91.7626088 C91.294472,95.4859422 86.5527409,97.172014 82.3434681,96.6081829 L81.6385833,99.9923743 L106.179015,122.458273 L126.624314,100.474281 L102.155525,78.0734401 Z" id="Fill-252" fill="#FFDE56"></path>
                        <polygon id="Fill-254" fill="#FFDE56" points="129.751428 97.2020127 103.214734 125.736324 95.007472 112.12667 115.419987 90.1776169"></polygon>
                        <g id="Group-258" transform="translate(74.677710, 77.105108)">
                            <mask id="mask-2" fill="white">
                                <use xlink:href="#path-1"></use>
                            </mask>
                            <g id="Clip-257"></g>
                            <path d="M238.180367,118.588982 C238.180367,183.839782 184.865946,236.736899 119.100383,236.736899 C53.3342134,236.736899 0.0203997647,183.839782 0.0203997647,118.588982 C0.0203997647,53.3375792 53.3342134,0.441065315 119.100383,0.441065315 C184.865946,0.441065315 238.180367,53.3375792 238.180367,118.588982" id="Fill-256" fill="#2666C4" mask="url(#mask-2)"></path>
                        </g>
                        <path d="M139.041093,111.460976 C136.351481,113.462095 108.112985,137.477324 108.112985,137.477324 L102.733761,161.492553 L116.181213,174.834147 L141.730704,185.507783 L154.504843,198.182537 L176.692623,196.181419 L171.314006,221.530928 L157.866554,238.207919 L177.365329,260.888869 L171.986105,282.902377 L180.054334,286.905217 L219.05067,247.546673 L235.187126,217.528088 L223.757187,206.854452 L210.982441,210.189851 L200.224601,198.182537 L182.743946,192.178579 L163.917877,191.511741 L155.177549,170.164468 L163.245778,164.16051 L188.122562,160.158273 L204.259019,131.473968 L222.412381,127.471129 L243.486674,119.819049 L238.548838,113.462095 L195.518691,103.4559 L139.041093,111.460976 Z" id="Fill-259" fill="#6ABC0C"></path>
                        <polygon id="Fill-261" fill="#6ABC0C" points="269.459703 154.736158 264.696722 169.963814 267.872042 181.516328 277.927426 193.068842 296.451141 188.867818 301.743545 210.396408 293.805243 235.601947 280.573932 261.331561 286.92518 271.308841 294.863481 263.432073 302.272967 249.254371 311.798929 225.625269 316.562516 180.466374 303.860627 147.909946 293.805243 148.434622 283.21983 143.183644"></polygon>
                        <path d="M276.305402,105.587193 L261.855569,112.799533 L264.245256,123.406907 L261.24904,128.144052 L263.677584,139.315859 C263.677584,139.315859 271.111355,142.78077 274.301247,140.864587 C277.490531,138.948405 281.665805,135.265431 281.665805,135.265431 L294.609334,138.356864 L300.313375,140.805554 L296.193351,129.180754 L276.305402,105.587193 Z" id="Fill-263" fill="#6ABC0C"></path>
                        <polygon id="Fill-265" fill="#98D84C" points="133.261159 145.818049 130.258265 144.004271 130.519334 149.963653 149.321724 150.481703 150.888135 143.745246 146.709826 146.336099 146.709826 140.117692 142.532124 145.299999 140.965106 140.117692 137.308934 146.336099 134.567109 142.449519"></polygon>
                        <polygon id="Fill-267" fill="#98D84C" points="294.491003 178.884996 292.426741 177.638664 292.605846 181.734873 305.532376 182.091484 306.609435 177.460359 303.737075 179.241607 303.737075 174.96649 300.864108 178.528987 299.787049 174.96649 297.273507 179.241607 295.388957 176.569433"></polygon>
                        <polygon id="Fill-269" fill="#98D84C" points="186.533748 221.085405 198.546538 220.955892 199.460278 216.680776 195.412503 217.976503 193.192814 215.255536 192.409609 218.624065 188.492369 215.515163 188.753437 218.494553 185.228406 217.716875"></polygon>
                        <polygon id="Fill-271" fill="#98D84C" points="185.228163 114.078755 184.836561 118.871922 198.807364 119.519484 197.370881 113.81973 195.020658 117.058144 194.237452 113.689615 190.320212 117.058144 189.275938 113.431192 187.447852 116.540094"></polygon>
                    </g>
                </g>
                <g id="Group-4" fill="#FF9292">
                    <path d="M41.7995041,118.82041 C41.5596818,115.147071 38.5283286,112.242445 34.8240585,112.242445 C30.9631827,112.242445 27.8333245,115.397861 27.8333245,119.290265 C27.8333245,121.537622 28.876682,123.5393 30.5016924,124.829824 L41.8147926,139.494017 L53.1278928,124.829824 C54.7529033,123.5393 55.7962607,121.537622 55.7962607,119.290265 C55.7962607,115.397861 52.6664025,112.242445 48.8055267,112.242445 C45.1012566,112.242445 42.0699034,115.147071 41.8300811,118.82041 L41.7995041,118.82041 Z" id="Combined-Shape"></path>
                    <path d="M13.9661796,92.0960186 C13.7263573,88.4226797 10.6950041,85.518053 6.99073406,85.518053 C3.12985825,85.518053 0,88.6734696 0,92.5658733 C0,94.8132306 1.04335748,96.8149086 2.66836795,98.1054327 L13.9814681,112.769625 L25.2945683,98.1054327 C26.9195788,96.8149086 27.9629363,94.8132306 27.9629363,92.5658733 C27.9629363,88.6734696 24.833078,85.518053 20.9722022,85.518053 C17.2679321,85.518053 14.236579,88.4226797 13.9967567,92.0960186 L13.9661796,92.0960186 Z" id="Combined-Shape-Copy"></path>
                    <path d="M36.4979185,65.3716271 C36.2580962,61.6982882 33.226743,58.7936614 29.5224729,58.7936614 C25.6615971,58.7936614 22.5317389,61.9490781 22.5317389,65.8414818 C22.5317389,68.088839 23.5750964,70.090517 25.2001068,71.3810412 L36.513207,86.0452334 L47.8263072,71.3810412 C49.4513176,70.090517 50.4946751,68.088839 50.4946751,65.8414818 C50.4946751,61.9490781 47.3648169,58.7936614 43.5039411,58.7936614 C39.799671,58.7936614 36.7683178,61.6982882 36.5284955,65.3716271 L36.4979185,65.3716271 Z" id="Combined-Shape-Copy-2" opacity="0.326992754"></path>
                    <path d="M64.3312429,19.9401614 C64.0914206,16.2668225 61.0600675,13.3621958 57.3557974,13.3621958 C53.4949216,13.3621958 50.3650633,16.5176124 50.3650633,20.4100161 C50.3650633,22.6573733 51.4084208,24.6590514 53.0334313,25.9495755 L64.3465315,40.6137677 L75.6596316,25.9495755 C77.2846421,24.6590514 78.3279996,22.6573733 78.3279996,20.4100161 C78.3279996,16.5176124 75.1981414,13.3621958 71.3372655,13.3621958 C67.6329955,13.3621958 64.6016423,16.2668225 64.36182,19.9401614 L64.3312429,19.9401614 Z" id="Combined-Shape-Copy-3" opacity="0.326992754"></path>
                    <path d="M49.7518825,6.57796564 C49.5120602,2.90462674 46.480707,0 42.776437,0 C38.9155612,0 35.7857029,3.15541664 35.7857029,7.04782033 C35.7857029,9.29517755 36.8290604,11.2968556 38.4540709,12.5873797 L49.767171,27.2515719 L61.0802712,12.5873797 C62.7052817,11.2968556 63.7486392,9.29517755 63.7486392,7.04782033 C63.7486392,3.15541664 60.6187809,0 56.7579051,0 C53.053635,0 50.0222819,2.90462674 49.7824596,6.57796564 L49.7518825,6.57796564 Z" id="Combined-Shape-Copy-4" opacity="0.118149909"></path>
                    <path d="M422.011017,123.301147 C421.771195,119.627808 418.739842,116.723181 415.035572,116.723181 C411.174696,116.723181 408.044838,119.878598 408.044838,123.771001 C408.044838,126.018358 409.088195,128.020036 410.713206,129.310561 L422.026306,143.974753 L433.339406,129.310561 C434.964417,128.020036 436.007774,126.018358 436.007774,123.771001 C436.007774,119.878598 432.877916,116.723181 429.01704,116.723181 C425.31277,116.723181 422.281417,119.627808 422.041595,123.301147 L422.011017,123.301147 Z" id="Combined-Shape"></path>
                    <path d="M435.987925,85.5509431 C435.748103,81.8776042 432.71675,78.9729775 429.012479,78.9729775 C425.151604,78.9729775 422.021745,82.1283941 422.021745,86.0207978 C422.021745,88.268155 423.065103,90.2698331 424.690113,91.5603572 L436.003214,106.224549 L447.316314,91.5603572 C448.941324,90.2698331 449.984682,88.268155 449.984682,86.0207978 C449.984682,82.1283941 446.854823,78.9729775 442.993948,78.9729775 C439.289678,78.9729775 436.258324,81.8776042 436.018502,85.5509431 L435.987925,85.5509431 Z" id="Combined-Shape-Copy-5" opacity="0.326992754"></path>
                </g>
            </g>
        </g>
    </g>
</svg>