<?xml version="1.0" encoding="UTF-8"?>
<svg width="484px" height="351px" viewBox="0 0 484 351" version="1.1" xmlns="http://www.w3.org/2000/svg" xmlns:xlink="http://www.w3.org/1999/xlink">
    <!-- Generator: Sketch 46.2 (44496) - http://www.bohemiancoding.com/sketch -->
    <title>Group 9</title>
    <desc>Created with Sketch.</desc>
    <defs></defs>
    <g id="Page-1" stroke="none" stroke-width="1" fill="none" fill-rule="evenodd">
        <g id="D_Pay-Online" transform="translate(-784.000000, -319.000000)">
            <g id="Group-9" transform="translate(784.000000, 319.000000)">
                <g id="Group-2" transform="translate(6.187230, 0.000000)">
                    <g id="Group-5" transform="translate(167.642171, 0.000000)">
                        <rect id="Rectangle-39" fill="#E7E7E7" x="12.9371454" y="0" width="48.7203592" height="26.5603698"></rect>
                        <rect id="Rectangle-4" fill="#DDDDDD" x="0.337052546" y="13.2801849" width="24.3601796" height="13.2801849"></rect>
                        <path d="M0.344938526,14.7369399 C0.339695824,14.5682799 0.337052546,14.3988733 0.337052546,14.2287695 C0.337052546,6.3704371 5.97830629,0 12.9371454,0 C19.8959846,0 25.5372384,6.3704371 25.5372384,14.2287695 C25.5372384,14.3988733 25.5345951,14.5682799 25.5293524,14.7369399 L0.344938526,14.7369399 Z" id="Combined-Shape" fill="#DDDDDD"></path>
                        <path d="M18.4962876,26.6072135 L21.5165345,30.3547083 L24.5367815,26.6072135 L27.5570285,30.3547083 L30.5772755,26.6072135 L33.5975225,30.3547083 L36.6177695,26.6072135 L39.6380165,30.3547083 L42.6582635,26.6072135 L45.6785104,30.3547083 L48.6987574,26.6072135 L51.7190044,30.3547083 L54.7392514,26.6072135 L57.7594984,30.3547083 L60.8174985,26.5603698 L54.7392514,26.5603698 L48.6987574,26.5603698 L42.6582635,26.5603698 L36.6177695,26.5603698 L30.5772755,26.5603698 L24.5367815,26.5603698 L18.4962876,26.5603698 L12.4557936,26.5603698 L6.41529961,26.5603698 L0.337052546,26.5603698 L3.39505262,30.3547083 L6.41529961,26.6072135 L9.4355466,30.3547083 L12.4557936,26.6072135 L15.4760406,30.3547083 L18.4962876,26.6072135 Z" id="Combined-Shape" fill="#DDDDDD"></path>
                        <path d="M105.429169,16.2426623 L105.429169,110.035818 L25.5249568,110.035818 L25.5249568,0 L92.1118005,0 L92.1118005,0.0313041462 C92.3902616,0.0105443123 92.6711947,0 92.9543087,0 C99.9131479,0 105.554402,6.3704371 105.554402,14.2287695 C105.554402,14.912399 105.511709,15.5847681 105.429169,16.2426623 Z" id="Combined-Shape" fill="#F0EEEF"></path>
                        <path d="M46.1513036,37.9076395 L87.9825313,37.9076395 L87.9825313,39.5689445 L46.1513036,39.5689445 L46.1513036,37.9076395 Z M46.1513036,49.8690354 L87.9825313,49.8690354 L87.9825313,51.5303403 L46.1513036,51.5303403 L46.1513036,49.8690354 Z M46.1513036,61.8304312 L87.9825313,61.8304312 L87.9825313,63.4917362 L46.1513036,63.4917362 L46.1513036,61.8304312 Z M46.1513036,73.7918271 L67.0669174,73.7918271 L67.0669174,75.4531321 L46.1513036,75.4531321 L46.1513036,73.7918271 Z" id="Combined-Shape" stroke="#000000" fill="#000000" opacity="0.0854846014" stroke-linecap="round" stroke-linejoin="round" transform="translate(67.066917, 56.680386) scale(-1, 1) translate(-67.066917, -56.680386) "></path>
                        <path d="M30.4872748,19.9202773 L39.8173436,19.9202773 L39.8173436,0 L12.0971393,0 L12.0971393,0.0311178966 C12.3747811,0.0104812473 12.6548794,0 12.9371454,0 C19.8959846,0 25.5372384,6.3704371 25.5372384,14.2287695 C25.5372384,14.3988734 25.5345951,14.5682801 25.5293524,14.7369401 L30.4872748,14.7369399 L30.4872748,19.9202773 Z" id="Combined-Shape" fill="#F0EEEF"></path>
                    </g>
                    <g id="Group-10" transform="translate(137.873935, 58.161789)">
                        <g id="hand">
                            <rect id="Rectangle-38" fill="#FDE7D7" x="39.9890843" y="254.654321" width="109.672449" height="37.5639515" rx="2"></rect>
                            <path d="M185.194675,24.6225135 C191.25267,30.7027272 191.25267,40.5607013 185.194675,46.640915 L153.931641,78.0186121 C147.873646,84.0988258 138.051696,84.0988258 131.993701,78.0186121 C125.935707,71.9383985 125.935707,62.0804244 131.993701,56.0002107 L163.256735,24.6225135 C169.31473,18.5422999 179.13668,18.5422999 185.194675,24.6225135 Z" id="Rectangle-Copy-3" fill="#FDE7D7"></path>
                            <path d="M51.7884693,101.630487 C88.4309162,55.9863412 117.897972,66.3141378 146.16959,96.5196051 C174.441208,126.725072 177.18542,194.796566 166.058709,237.606265 C154.931999,280.415963 134.41468,287.282337 85.4618541,287.282337 C53.505357,287.282337 30.8269403,274.07191 17.4266038,247.651056 L17.4266032,247.651056 C16.8713267,246.556242 16.5754497,245.348326 16.5618783,244.120822 C15.844926,179.273991 27.587123,131.777212 51.7884693,101.630487 Z" id="Rectangle-37" fill="#FCE7D7"></path>
                            <rect id="Rectangle-12" fill="#424559" x="29.768236" y="0" width="129.963751" height="233.284805" rx="8"></rect>
                            <rect id="Rectangle-32" fill="#14AB66" x="38.2286821" y="30.8838655" width="114.446652" height="175.919689" rx="2"></rect>
                            <path d="M1.13730697,70.0655644 C-0.41923414,83.3548089 -0.378040235,117.676107 1.26088869,173.02946 C2.34339122,219.712375 14.2006153,252.044048 36.832561,270.024479 C44.4363525,276.065473 63.1944456,286.475158 68.8696892,274.360998 C74.5449328,262.246838 61.1379835,233.957272 58.7298153,225.389774 C55.7182466,214.675568 48.4191619,192.299326 36.832561,158.261047 L33.3215162,104.192661 C30.6247867,77.3683803 19.8967169,65.9926815 1.13730697,70.0655644 Z" id="Path-6" fill="#FEE7D7"></path>
                            <path d="M180.878943,88.1709967 C186.936937,94.2512104 186.936937,104.109184 180.878943,110.189398 L167.298313,123.819837 C161.240318,129.900051 151.418368,129.900051 145.360373,123.819837 C139.302379,117.739623 139.302379,107.881649 145.360373,101.801436 L158.941003,88.1709967 C164.998998,82.090783 174.820948,82.090783 180.878943,88.1709967 Z" id="Rectangle" fill="#FDE7D7"></path>
                            <path d="M185.311076,125.240904 C191.36907,131.321117 191.36907,141.179092 185.311076,147.259305 L171.730446,160.889744 C165.672452,166.969958 155.850501,166.969958 149.792507,160.889744 C143.734512,154.809531 143.734512,144.951556 149.792507,138.871343 L163.373136,125.240904 C169.431131,119.16069 179.253081,119.16069 185.311076,125.240904 Z" id="Rectangle-Copy" fill="#FDE7D7"></path>
                            <path d="M185.311076,165.276403 C191.36907,171.356617 191.36907,181.214591 185.311076,187.294805 L171.730446,200.925244 C165.672452,207.005458 155.850501,207.005458 149.792507,200.925244 C143.734512,194.84503 143.734512,184.987056 149.792507,178.906842 L163.373136,165.276403 C169.431131,159.19619 179.253081,159.19619 185.311076,165.276403 Z" id="Rectangle-Copy-2" fill="#FDE7D7"></path>
                        </g>
                    </g>
                    <g id="Group-12" transform="translate(194.742915, 110.867571)">
                        <rect id="Rectangle-8" fill="#FFD33E" x="0.882425863" y="73.8354084" width="74.3050102" height="37.726566" rx="18.863283"></rect>
                        <path d="M29.7836089,94.9032801 L29.7836089,97.9091395 L28.0257964,97.9091395 L28.0257964,89.3778895 L31.3539214,89.3778895 C31.8578302,89.3778895 32.308021,89.4482013 32.7045074,89.588827 C33.1009937,89.7294527 33.4369279,89.9257398 33.7123199,90.1776942 C33.9877119,90.4296486 34.1976707,90.7284737 34.3422027,91.0741786 C34.4867346,91.4198834 34.5589995,91.7958562 34.5589995,92.2021083 C34.5589995,92.6161728 34.4867346,92.989216 34.3422027,93.3212489 C34.1976707,93.6532818 33.9877119,93.9364821 33.7123199,94.1708583 C33.4369279,94.4052344 33.1009937,94.5858967 32.7045074,94.7128505 C32.308021,94.8398042 31.8578302,94.9032801 31.3539214,94.9032801 L29.7836089,94.9032801 Z M29.7836089,93.479452 L31.3539214,93.479452 C31.6039227,93.479452 31.8197408,93.4482023 32.0013824,93.385702 C32.1830239,93.3232017 32.3314599,93.2362885 32.4466949,93.1249598 C32.5619298,93.0136312 32.6468899,92.8798434 32.7015777,92.7235926 C32.7562654,92.5673419 32.7836089,92.3974217 32.7836089,92.213827 C32.7836089,92.0302324 32.7562654,91.8534763 32.7015777,91.6835536 C32.6468899,91.5136309 32.5619298,91.3632417 32.4466949,91.2323817 C32.3314599,91.1015217 32.1830239,90.9970305 32.0013824,90.9189051 C31.8197408,90.8407798 31.6039227,90.8017176 31.3539214,90.8017176 L29.7836089,90.8017176 L29.7836089,93.479452 Z M39.5394683,96.151327 L36.457437,96.151327 L35.8714995,97.9091395 L34.0023589,97.9091395 L37.1781402,89.3778895 L38.8070464,89.3778895 L42.0004058,97.9091395 L40.1312652,97.9091395 L39.5394683,96.151327 Z M36.9320464,94.7274989 L39.0648589,94.7274989 L37.9925933,91.5341395 L36.9320464,94.7274989 Z M44.8597808,93.2216395 L46.6351714,89.3778895 L48.5570464,89.3778895 L45.7562652,94.8153895 L45.7562652,97.9091395 L43.9691558,97.9091395 L43.9691558,94.8153895 L41.1683745,89.3778895 L43.0961089,89.3778895 L44.8597808,93.2216395 Z" id="Pay" fill="#A68100"></path>
                        <path d="M28.1675184,31.839199 L28.1675184,11.8169837 L19.3046462,11.8169837 L19.3046462,31.839199 L19.2312346,31.839199 L19.2312346,40.7020713 L19.3046462,40.7020713 L19.3046462,40.7167536 L28.1675184,40.7167536 L28.1675184,40.7020713 L63.692419,40.7020713 L63.692419,31.839199 L28.1675184,31.839199 Z" id="Combined-Shape" fill="#00673C" opacity="0.587013134" transform="translate(41.461827, 26.266869) rotate(-45.000000) translate(-41.461827, -26.266869) "></path>
                    </g>
                    <g id="Group-11" transform="translate(360.511825, 69.329987) scale(-1, 1) rotate(-161.000000) translate(-360.511825, -69.329987) translate(341.011825, 36.329987)" stroke="#D8D8D8" stroke-width="4" stroke-linecap="round" opacity="0.57569067" stroke-linejoin="round">
                        <path d="M23.4591049,65.6642373 C32.8731493,58.067547 38.9396573,46.1337842 38.9396573,32.7141862 C38.9396573,19.4326646 32.9973456,7.60655938 23.7486264,-2.84217094e-13" id="Oval-11"></path>
                        <path d="M11.3487514,54.2794686 C17.6247811,49.2150084 21.6691197,41.2591665 21.6691197,32.3127679 C21.6691197,23.4584201 17.7075786,15.57435 11.5417658,10.5033104" id="Oval-11"></path>
                        <path d="M0,42.8946999 C3.13801482,40.3624698 5.16018415,36.3845489 5.16018415,31.9113496 C5.16018415,27.4841757 3.17941357,23.5421406 0.096507181,21.0066208" id="Oval-11"></path>
                    </g>
                    <g id="Group-7" transform="translate(360.352331, 213.783874)">
                        <rect id="Rectangle-40-Copy" fill="#FF830F" x="0" y="0" width="102.671957" height="67.3968363" rx="6"></rect>
                        <rect id="Rectangle-7" fill="#424559" x="0" y="12.3014318" width="102.671957" height="13.7289852"></rect>
                        <rect id="Rectangle-41" fill="#FFFFFF" x="9.32235595" y="33.4455373" width="38.6211889" height="8.02692894" rx="1"></rect>
                        <g id="Group-13" transform="translate(67.920022, 44.148109)" fill="#D0021B" opacity="0.34154212">
                            <ellipse id="Oval-4" style="mix-blend-mode: multiply;" cx="19.2273591" cy="8.69583969" rx="8.7397087" ry="8.69583969"></ellipse>
                            <ellipse id="Oval-4" style="mix-blend-mode: multiply;" cx="8.7397087" cy="8.69583969" rx="8.7397087" ry="8.69583969"></ellipse>
                        </g>
                    </g>
                    <g id="Group-8" transform="translate(0.000000, 83.312833)">
                        <rect id="Rectangle-40" fill="#FD953A" x="0" y="0" width="102.671957" height="67.3968363" rx="6"></rect>
                        <g id="Group-13" transform="translate(9.322356, 9.364750)" fill="#D0021B" opacity="0.34154212">
                            <ellipse id="Oval-4" style="mix-blend-mode: multiply;" cx="19.2273591" cy="8.69583969" rx="8.7397087" ry="8.69583969"></ellipse>
                            <ellipse id="Oval-4" style="mix-blend-mode: multiply;" cx="8.7397087" cy="8.69583969" rx="8.7397087" ry="8.69583969"></ellipse>
                        </g>
                        <path d="M13.3563375,50.8372166 L26.1431501,50.8372166 L26.1431501,50.8372166 C26.9000295,50.8372166 27.5136014,51.4507886 27.5136014,52.2076679 L27.5136014,52.2076679 C27.5136014,52.9645473 26.9000295,53.5781192 26.1431501,53.5781192 L13.3563375,53.5781192 C12.5994582,53.5781192 11.9858862,52.9645473 11.9858862,52.2076679 C11.9858862,51.4507886 12.5994582,50.8372166 13.3563375,50.8372166 L13.3563375,50.8372166 Z M34.0599577,50.8372166 L46.8467704,50.8372166 L46.8467704,50.8372166 C47.6036497,50.8372166 48.2172216,51.4507886 48.2172216,52.2076679 L48.2172216,52.2076679 C48.2172216,52.9645473 47.6036497,53.5781192 46.8467704,53.5781192 L34.0599577,53.5781192 C33.3030784,53.5781192 32.6895065,52.9645473 32.6895065,52.2076679 C32.6895065,51.4507886 33.3030784,50.8372166 34.0599577,50.8372166 L34.0599577,50.8372166 Z M54.763578,50.8372166 L67.5503906,50.8372166 L67.5503906,50.8372166 C68.3072699,50.8372166 68.9208419,51.4507886 68.9208419,52.2076679 L68.9208419,52.2076679 L68.9208419,52.2076679 C68.9208419,52.9645473 68.3072699,53.5781192 67.5503906,53.5781192 L54.763578,53.5781192 C54.0066986,53.5781192 53.3931267,52.9645473 53.3931267,52.2076679 L53.3931267,52.2076679 L53.3931267,52.2076679 C53.3931267,51.4507886 54.0066986,50.8372166 54.763578,50.8372166 L54.763578,50.8372166 Z M75.4671982,50.8372166 L88.2540108,50.8372166 L88.2540108,50.8372166 C89.0108902,50.8372166 89.6244621,51.4507886 89.6244621,52.2076679 L89.6244621,52.2076679 C89.6244621,52.9645473 89.0108902,53.5781192 88.2540108,53.5781192 L75.4671982,53.5781192 C74.7103189,53.5781192 74.0967469,52.9645473 74.0967469,52.2076679 L74.0967469,52.2076679 L74.0967469,52.2076679 C74.0967469,51.4507886 74.7103189,50.8372166 75.4671982,50.8372166 Z" id="Combined-Shape" fill="#424559"></path>
                    </g>
                </g>
                <path d="M0.655537214,178.468987 L0.655537214,165.672112 L4.59303721,165.672112 C5.45436965,165.672112 6.24391253,165.82006 6.96168956,166.11596 C7.67946658,166.41186 8.29469481,166.827871 8.80739268,167.364007 C9.32009056,167.900142 9.7199889,168.543202 10.0070997,169.293206 C10.2942105,170.04321 10.4377638,170.875233 10.4377638,171.7893 L10.4377638,172.369378 C10.4377638,173.283445 10.2956754,174.114003 10.0114942,174.861077 C9.72731314,175.608151 9.32594996,176.249746 8.80739268,176.785882 C8.2888354,177.322017 7.66921269,177.736564 6.94850596,178.029534 C6.22779924,178.322504 5.43386186,178.468987 4.56667003,178.468987 L0.655537214,178.468987 Z M3.29225596,167.807854 L3.29225596,176.350823 L4.56667003,176.350823 C5.60964399,176.350823 6.40358136,176.006588 6.94850596,175.318108 C7.49343056,174.629628 7.76588878,173.646728 7.76588878,172.369378 L7.76588878,171.771721 C7.76588878,170.470934 7.49636022,169.485104 6.95729503,168.814202 C6.41822983,168.1433 5.63015177,167.807854 4.59303721,167.807854 L3.29225596,167.807854 Z M21.8529981,172.923089 L16.7904981,172.923089 L16.7904981,176.350823 L22.7319044,176.350823 L22.7319044,178.468987 L14.1537794,178.468987 L14.1537794,165.672112 L22.7143262,165.672112 L22.7143262,167.807854 L16.7904981,167.807854 L16.7904981,170.857659 L21.8529981,170.857659 L21.8529981,172.923089 Z M26.0787793,178.468987 L26.0787793,165.672112 L30.5612012,165.672112 C31.3053455,165.672112 31.9703779,165.742424 32.5563184,165.88305 C33.1422588,166.023675 33.6388359,166.239005 34.0460645,166.529046 C34.4532931,166.819086 34.7638368,167.183829 34.9777051,167.623284 C35.1915733,168.062739 35.2985059,168.581289 35.2985059,169.178948 C35.2985059,169.471918 35.2618851,169.753165 35.1886426,170.022698 C35.1154,170.292231 35.004073,170.544181 34.8546582,170.778557 C34.7052434,171.012934 34.5162804,171.225334 34.2877637,171.415764 C34.0592469,171.606195 33.7867887,171.762932 33.4703809,171.885979 C33.8453827,171.97973 34.1661803,172.121818 34.4327832,172.312249 C34.6993861,172.502679 34.9191105,172.723869 35.0919629,172.975823 C35.2648153,173.227777 35.3907906,173.5017 35.4698926,173.7976 C35.5489945,174.0935 35.5885449,174.39672 35.5885449,174.707268 C35.5885449,175.949462 35.1886466,176.886953 34.3888379,177.519768 C33.5890292,178.152584 32.450857,178.468987 30.9742871,178.468987 L26.0787793,178.468987 Z M28.7154981,172.896721 L28.7154981,176.350823 L30.9742871,176.350823 C31.3141326,176.350823 31.6070984,176.308343 31.8531934,176.223382 C32.0992883,176.13842 32.3043644,176.021234 32.4684277,175.871819 C32.6324911,175.722404 32.7540719,175.546625 32.8331738,175.344475 C32.9122758,175.142326 32.9518262,174.921137 32.9518262,174.680901 C32.9518262,174.405509 32.9166703,174.157953 32.8463574,173.938225 C32.7760446,173.718498 32.6661824,173.531 32.5167676,173.375725 C32.3673528,173.220451 32.1725305,173.1018 31.9322949,173.019768 C31.6920594,172.937737 31.4049529,172.896721 31.0709668,172.896721 L28.7154981,172.896721 Z M28.7154981,171.03344 L30.6666699,171.03344 C31.3405014,171.021721 31.841473,170.879633 32.1695996,170.607171 C32.4977263,170.334708 32.6617871,169.946529 32.6617871,169.44262 C32.6617871,168.862539 32.4933318,168.445063 32.156416,168.190178 C31.8195003,167.935294 31.2877673,167.807854 30.5612012,167.807854 L28.7154981,167.807854 L28.7154981,171.03344 Z M42.1697949,178.468987 L39.5330761,178.468987 L39.5330761,165.672112 L42.1697949,165.672112 L42.1697949,178.468987 Z M55.7910839,167.807854 L51.871162,167.807854 L51.871162,178.468987 L49.2344433,178.468987 L49.2344433,167.807854 L45.3672558,167.807854 L45.3672558,165.672112 L55.7910839,165.672112 L55.7910839,167.807854 Z M74.8949901,174.206292 C74.8481148,174.856686 74.7016319,175.454336 74.4555369,175.999261 C74.2094419,176.544185 73.8696016,177.011466 73.4360057,177.401116 C73.0024098,177.790766 72.4765361,178.095451 71.858369,178.315178 C71.2402018,178.534906 70.535619,178.644768 69.7445994,178.644768 C68.9242828,178.644768 68.1874738,178.50268 67.5341502,178.218499 C66.8808266,177.934318 66.3271212,177.52563 65.8730174,176.992425 C65.4189136,176.459219 65.0702842,175.813229 64.827119,175.054436 C64.5839537,174.295643 64.4623729,173.444578 64.4623729,172.501214 L64.4623729,171.657464 C64.4623729,170.7141 64.5883482,169.861569 64.8403026,169.099846 C65.0922569,168.338124 65.4482104,167.690669 65.9081736,167.157464 C66.3681369,166.624258 66.9262368,166.214106 67.5824901,165.926995 C68.2387433,165.639884 68.9711579,165.496331 69.7797557,165.496331 C70.5766347,165.496331 71.2812175,165.609123 71.8935252,165.83471 C72.505833,166.060297 73.0258473,166.37377 73.4535838,166.775139 C73.8813203,167.176509 74.2153014,167.654043 74.4555369,168.207757 C74.6957725,168.76147 74.8481147,169.363515 74.9125682,170.013909 L72.2758494,170.013909 C72.2465524,169.633048 72.1806351,169.296137 72.0780955,169.003167 C71.9755559,168.710197 71.8276082,168.464105 71.6342479,168.264886 C71.4408875,168.065666 71.1918666,167.914788 70.8871776,167.812249 C70.5824885,167.709709 70.2133516,167.65844 69.7797557,167.65844 C68.8891262,167.65844 68.2255586,167.982167 67.789033,168.629632 C67.3525074,169.277096 67.1342479,170.280504 67.1342479,171.639886 L67.1342479,172.501214 C67.1342479,173.163326 67.1825872,173.743399 67.2792674,174.241448 C67.3759476,174.739497 67.5282898,175.155509 67.7362986,175.489495 C67.9443075,175.823481 68.2138361,176.073967 68.5448924,176.24096 C68.8759487,176.407953 69.2758471,176.491448 69.7445994,176.491448 C70.1606171,176.491448 70.5195003,176.444573 70.8212596,176.350823 C71.1230189,176.257073 71.3749695,176.114984 71.577119,175.924553 C71.7792684,175.734123 71.9360051,175.495356 72.0473338,175.208245 C72.1586625,174.921134 72.2289743,174.587153 72.2582713,174.206292 L74.8949901,174.206292 Z M85.6510447,175.832268 L81.0279978,175.832268 L80.1490916,178.468987 L77.3453806,178.468987 L82.1090525,165.672112 L84.5524119,165.672112 L89.3424509,178.468987 L86.53874,178.468987 L85.6510447,175.832268 Z M81.7399119,173.696526 L84.9391306,173.696526 L83.3307322,168.906487 L81.7399119,173.696526 Z M97.0750681,173.784417 L94.9744821,173.784417 L94.9744821,178.468987 L92.3377634,178.468987 L92.3377634,165.672112 L97.0926462,165.672112 C97.8309311,165.672112 98.4930339,165.755607 99.0789743,165.9226 C99.6649148,166.089593 100.160027,166.335685 100.564326,166.660882 C100.968625,166.986079 101.279169,167.388907 101.495967,167.869378 C101.712764,168.349849 101.821162,168.906484 101.821162,169.5393 C101.821162,170.008052 101.768428,170.428458 101.662959,170.80053 C101.557489,171.172602 101.405147,171.503654 101.205927,171.793694 C101.006708,172.083735 100.766476,172.33715 100.485224,172.553948 C100.203973,172.770746 99.8875698,172.958244 99.5360056,173.116448 L102.30456,178.34594 L102.30456,178.468987 L99.4744821,178.468987 L97.0750681,173.784417 Z M94.9744821,171.648675 L97.1014353,171.648675 C97.4471401,171.648675 97.7503597,171.603265 98.0111032,171.512444 C98.2718467,171.421623 98.4886414,171.292718 98.6614939,171.125725 C98.8343463,170.958732 98.9647161,170.759516 99.0526071,170.528069 C99.1404982,170.296623 99.1844431,170.037348 99.1844431,169.750237 C99.1844431,169.146718 99.0130581,168.672114 98.6702829,168.326409 C98.3275078,167.980704 97.8016341,167.807854 97.0926462,167.807854 L94.9744821,167.807854 L94.9744821,171.648675 Z M105.625068,178.468987 L105.625068,165.672112 L109.562568,165.672112 C110.4239,165.672112 111.213443,165.82006 111.93122,166.11596 C112.648997,166.41186 113.264226,166.827871 113.776924,167.364007 C114.289621,167.900142 114.68952,168.543202 114.976631,169.293206 C115.263741,170.04321 115.407295,170.875233 115.407295,171.7893 L115.407295,172.369378 C115.407295,173.283445 115.265206,174.114003 114.981025,174.861077 C114.696844,175.608151 114.295481,176.249746 113.776924,176.785882 C113.258366,177.322017 112.638744,177.736564 111.918037,178.029534 C111.19733,178.322504 110.403393,178.468987 109.536201,178.468987 L105.625068,178.468987 Z M108.261787,167.807854 L108.261787,176.350823 L109.536201,176.350823 C110.579175,176.350823 111.373112,176.006588 111.918037,175.318108 C112.462961,174.629628 112.73542,173.646728 112.73542,172.369378 L112.73542,171.771721 C112.73542,170.470934 112.465891,169.485104 111.926826,168.814202 C111.387761,168.1433 110.599683,167.807854 109.562568,167.807854 L108.261787,167.807854 Z" id="Debit-Card" fill="#424559"></path>
                <path d="M365.092285,304.453206 C365.045409,305.1036 364.898926,305.70125 364.652831,306.246175 C364.406736,306.791099 364.066896,307.25838 363.6333,307.64803 C363.199704,308.03768 362.673831,308.342365 362.055663,308.562093 C361.437496,308.78182 360.732914,308.891682 359.941894,308.891682 C359.121577,308.891682 358.384768,308.749594 357.731445,308.465413 C357.078121,308.181232 356.524416,307.772544 356.070312,307.239339 C355.616208,306.706133 355.267579,306.060143 355.024413,305.30135 C354.781248,304.542557 354.659667,303.691492 354.659667,302.748128 L354.659667,301.904378 C354.659667,300.961014 354.785643,300.108483 355.037597,299.34676 C355.289551,298.585038 355.645505,297.937583 356.105468,297.404378 C356.565431,296.871172 357.123531,296.46102 357.779785,296.173909 C358.436038,295.886798 359.168452,295.743245 359.97705,295.743245 C360.773929,295.743245 361.478512,295.856037 362.09082,296.081624 C362.703127,296.307211 363.223142,296.620684 363.650878,297.022053 C364.078615,297.423423 364.412596,297.900957 364.652831,298.454671 C364.893067,299.008384 365.045409,299.610429 365.109863,300.260823 L362.473144,300.260823 C362.443847,299.879962 362.37793,299.543051 362.27539,299.250081 C362.17285,298.957111 362.024903,298.711019 361.831542,298.5118 C361.638182,298.31258 361.389161,298.161702 361.084472,298.059163 C360.779783,297.956623 360.410646,297.905354 359.97705,297.905354 C359.086421,297.905354 358.422853,298.229081 357.986328,298.876546 C357.549802,299.52401 357.331542,300.527418 357.331542,301.8868 L357.331542,302.748128 C357.331542,303.41024 357.379882,303.990313 357.476562,304.488362 C357.573242,304.986411 357.725584,305.402423 357.933593,305.736409 C358.141602,306.070395 358.411131,306.320881 358.742187,306.487874 C359.073243,306.654867 359.473142,306.738362 359.941894,306.738362 C360.357912,306.738362 360.716795,306.691488 361.018554,306.597737 C361.320313,306.503987 361.572264,306.361898 361.774413,306.171468 C361.976563,305.981037 362.1333,305.74227 362.244628,305.455159 C362.355957,305.168048 362.426269,304.834067 362.455566,304.453206 L365.092285,304.453206 Z M373.361034,304.031331 L371.260449,304.031331 L371.260449,308.715901 L368.62373,308.715901 L368.62373,295.919026 L373.378613,295.919026 C374.116898,295.919026 374.779,296.002521 375.364941,296.169514 C375.950881,296.336507 376.445993,296.582599 376.850292,296.907796 C377.254591,297.232993 377.565135,297.635821 377.781933,298.116292 C377.998731,298.596763 378.107128,299.153398 378.107128,299.786214 C378.107128,300.254966 378.054394,300.675372 377.948925,301.047444 C377.843456,301.419516 377.691114,301.750568 377.491894,302.040608 C377.292674,302.330649 377.052442,302.584064 376.771191,302.800862 C376.489939,303.01766 376.173536,303.205158 375.821972,303.363362 L378.590527,308.592854 L378.590527,308.715901 L375.760449,308.715901 L373.361034,304.031331 Z M371.260449,301.895589 L373.387402,301.895589 C373.733107,301.895589 374.036326,301.850179 374.29707,301.759358 C374.557813,301.668537 374.774608,301.539632 374.94746,301.372639 C375.120313,301.205646 375.250682,301.00643 375.338574,300.774983 C375.426465,300.543537 375.470409,300.284262 375.470409,299.997151 C375.470409,299.393632 375.299024,298.919028 374.956249,298.573323 C374.613474,298.227618 374.087601,298.054768 373.378613,298.054768 L371.260449,298.054768 L371.260449,301.895589 Z M389.610253,303.170003 L384.547753,303.170003 L384.547753,306.597737 L390.489159,306.597737 L390.489159,308.715901 L381.911034,308.715901 L381.911034,295.919026 L390.471581,295.919026 L390.471581,298.054768 L384.547753,298.054768 L384.547753,301.104573 L389.610253,301.104573 L389.610253,303.170003 Z M393.836034,308.715901 L393.836034,295.919026 L397.773534,295.919026 C398.634867,295.919026 399.42441,296.066974 400.142187,296.362874 C400.859964,296.658774 401.475192,297.074785 401.98789,297.610921 C402.500588,298.147056 402.900486,298.790116 403.187597,299.54012 C403.474708,300.290124 403.618261,301.122147 403.618261,302.036214 L403.618261,302.616292 C403.618261,303.530359 403.476173,304.360917 403.191991,305.107991 C402.90781,305.855065 402.506447,306.49666 401.98789,307.032796 C401.469333,307.568931 400.84971,307.983478 400.129003,308.276448 C399.408296,308.569418 398.614359,308.715901 397.747167,308.715901 L393.836034,308.715901 Z M396.472753,298.054768 L396.472753,306.597737 L397.747167,306.597737 C398.790141,306.597737 399.584079,306.253502 400.129003,305.565022 C400.673928,304.876542 400.946386,303.893642 400.946386,302.616292 L400.946386,302.018635 C400.946386,300.717848 400.676857,299.732018 400.137792,299.061116 C399.598727,298.390214 398.810649,298.054768 397.773534,298.054768 L396.472753,298.054768 Z M410.137987,308.715901 L407.501269,308.715901 L407.501269,295.919026 L410.137987,295.919026 L410.137987,308.715901 Z M423.759276,298.054768 L419.839355,298.054768 L419.839355,308.715901 L417.202636,308.715901 L417.202636,298.054768 L413.335448,298.054768 L413.335448,295.919026 L423.759276,295.919026 L423.759276,298.054768 Z M442.863183,304.453206 C442.816307,305.1036 442.669825,305.70125 442.42373,306.246175 C442.177635,306.791099 441.837794,307.25838 441.404198,307.64803 C440.970602,308.03768 440.444729,308.342365 439.826562,308.562093 C439.208394,308.78182 438.503812,308.891682 437.712792,308.891682 C436.892475,308.891682 436.155666,308.749594 435.502343,308.465413 C434.849019,308.181232 434.295314,307.772544 433.84121,307.239339 C433.387106,306.706133 433.038477,306.060143 432.795312,305.30135 C432.552146,304.542557 432.430565,303.691492 432.430565,302.748128 L432.430565,301.904378 C432.430565,300.961014 432.556541,300.108483 432.808495,299.34676 C433.06045,298.585038 433.416403,297.937583 433.876366,297.404378 C434.336329,296.871172 434.894429,296.46102 435.550683,296.173909 C436.206936,295.886798 436.93935,295.743245 437.747948,295.743245 C438.544827,295.743245 439.24941,295.856037 439.861718,296.081624 C440.474026,296.307211 440.99404,296.620684 441.421776,297.022053 C441.849513,297.423423 442.183494,297.900957 442.42373,298.454671 C442.663965,299.008384 442.816307,299.610429 442.880761,300.260823 L440.244042,300.260823 C440.214745,299.879962 440.148828,299.543051 440.046288,299.250081 C439.943749,298.957111 439.795801,298.711019 439.60244,298.5118 C439.40908,298.31258 439.160059,298.161702 438.85537,298.059163 C438.550681,297.956623 438.181544,297.905354 437.747948,297.905354 C436.857319,297.905354 436.193751,298.229081 435.757226,298.876546 C435.3207,299.52401 435.10244,300.527418 435.10244,301.8868 L435.10244,302.748128 C435.10244,303.41024 435.15078,303.990313 435.24746,304.488362 C435.34414,304.986411 435.496482,305.402423 435.704491,305.736409 C435.9125,306.070395 436.182029,306.320881 436.513085,306.487874 C436.844141,306.654867 437.24404,306.738362 437.712792,306.738362 C438.12881,306.738362 438.487693,306.691488 438.789452,306.597737 C439.091212,306.503987 439.343162,306.361898 439.545312,306.171468 C439.747461,305.981037 439.904198,305.74227 440.015526,305.455159 C440.126855,305.168048 440.197167,304.834067 440.226464,304.453206 L442.863183,304.453206 Z M453.619237,306.079182 L448.99619,306.079182 L448.117284,308.715901 L445.313573,308.715901 L450.077245,295.919026 L452.520604,295.919026 L457.310644,308.715901 L454.506933,308.715901 L453.619237,306.079182 Z M449.708104,303.94344 L452.907323,303.94344 L451.298925,299.153401 L449.708104,303.94344 Z M465.043261,304.031331 L462.942675,304.031331 L462.942675,308.715901 L460.305956,308.715901 L460.305956,295.919026 L465.060839,295.919026 C465.799124,295.919026 466.461226,296.002521 467.047167,296.169514 C467.633107,296.336507 468.12822,296.582599 468.532518,296.907796 C468.936817,297.232993 469.247361,297.635821 469.464159,298.116292 C469.680957,298.596763 469.789354,299.153398 469.789354,299.786214 C469.789354,300.254966 469.736621,300.675372 469.631151,301.047444 C469.525682,301.419516 469.37334,301.750568 469.17412,302.040608 C468.9749,302.330649 468.734668,302.584064 468.453417,302.800862 C468.172166,303.01766 467.855762,303.205158 467.504198,303.363362 L470.272753,308.592854 L470.272753,308.715901 L467.442675,308.715901 L465.043261,304.031331 Z M462.942675,301.895589 L465.069628,301.895589 C465.415333,301.895589 465.718552,301.850179 465.979296,301.759358 C466.240039,301.668537 466.456834,301.539632 466.629686,301.372639 C466.802539,301.205646 466.932909,301.00643 467.0208,300.774983 C467.108691,300.543537 467.152636,300.284262 467.152636,299.997151 C467.152636,299.393632 466.981251,298.919028 466.638476,298.573323 C466.2957,298.227618 465.769827,298.054768 465.060839,298.054768 L462.942675,298.054768 L462.942675,301.895589 Z M473.593261,308.715901 L473.593261,295.919026 L477.530761,295.919026 C478.392093,295.919026 479.181636,296.066974 479.899413,296.362874 C480.61719,296.658774 481.232418,297.074785 481.745116,297.610921 C482.257814,298.147056 482.657712,298.790116 482.944823,299.54012 C483.231934,300.290124 483.375487,301.122147 483.375487,302.036214 L483.375487,302.616292 C483.375487,303.530359 483.233399,304.360917 482.949218,305.107991 C482.665037,305.855065 482.263673,306.49666 481.745116,307.032796 C481.226559,307.568931 480.606936,307.983478 479.886229,308.276448 C479.165523,308.569418 478.371585,308.715901 477.504393,308.715901 L473.593261,308.715901 Z M476.229979,298.054768 L476.229979,306.597737 L477.504393,306.597737 C478.547367,306.597737 479.341305,306.253502 479.886229,305.565022 C480.431154,304.876542 480.703612,303.893642 480.703612,302.616292 L480.703612,302.018635 C480.703612,300.717848 480.434084,299.732018 479.895018,299.061116 C479.355953,298.390214 478.567875,298.054768 477.530761,298.054768 L476.229979,298.054768 Z" id="Credit-Card" fill="#424559"></path>
            </g>
        </g>
    </g>
</svg>