<?xml version="1.0" encoding="UTF-8"?>
<svg width="483px" height="351px" viewBox="0 0 483 351" version="1.1" xmlns="http://www.w3.org/2000/svg" xmlns:xlink="http://www.w3.org/1999/xlink">
    <!-- Generator: Sketch 46.2 (44496) - http://www.bohemiancoding.com/sketch -->
    <title>Group 9</title>
    <desc>Created with Sketch.</desc>
    <defs></defs>
    <g id="Page-1" stroke="none" stroke-width="1" fill="none" fill-rule="evenodd">
        <g id="D_Pay-Online" transform="translate(-784.000000, -319.000000)">
            <g id="Group-9" transform="translate(761.000000, 319.000000)">
                <g id="Group-2" transform="translate(29.187230, 0.000000)">
                    <g id="Group-5" transform="translate(167.642171, 0.000000)">
                        <rect id="Rectangle-39" fill="#E7E7E7" x="12.9371454" y="0" width="48.7203592" height="26.5603698"></rect>
                        <rect id="Rectangle-4" fill="#DDDDDD" x="0.337052546" y="13.2801849" width="24.3601796" height="13.2801849"></rect>
                        <path d="M0.344938526,14.7369399 C0.339695824,14.5682799 0.337052546,14.3988733 0.337052546,14.2287695 C0.337052546,6.3704371 5.97830629,0 12.9371454,0 C19.8959846,0 25.5372384,6.3704371 25.5372384,14.2287695 C25.5372384,14.3988733 25.5345951,14.5682799 25.5293524,14.7369399 L0.344938526,14.7369399 Z" id="Combined-Shape" fill="#DDDDDD"></path>
                        <path d="M18.4962876,26.6072135 L21.5165345,30.3547083 L24.5367815,26.6072135 L27.5570285,30.3547083 L30.5772755,26.6072135 L33.5975225,30.3547083 L36.6177695,26.6072135 L39.6380165,30.3547083 L42.6582635,26.6072135 L45.6785104,30.3547083 L48.6987574,26.6072135 L51.7190044,30.3547083 L54.7392514,26.6072135 L57.7594984,30.3547083 L60.8174985,26.5603698 L54.7392514,26.5603698 L48.6987574,26.5603698 L42.6582635,26.5603698 L36.6177695,26.5603698 L30.5772755,26.5603698 L24.5367815,26.5603698 L18.4962876,26.5603698 L12.4557936,26.5603698 L6.41529961,26.5603698 L0.337052546,26.5603698 L3.39505262,30.3547083 L6.41529961,26.6072135 L9.4355466,30.3547083 L12.4557936,26.6072135 L15.4760406,30.3547083 L18.4962876,26.6072135 Z" id="Combined-Shape" fill="#DDDDDD"></path>
                        <path d="M105.429169,16.2426623 L105.429169,110.035818 L25.5249568,110.035818 L25.5249568,0 L92.1118005,0 L92.1118005,0.0313041462 C92.3902616,0.0105443123 92.6711947,0 92.9543087,0 C99.9131479,0 105.554402,6.3704371 105.554402,14.2287695 C105.554402,14.912399 105.511709,15.5847681 105.429169,16.2426623 Z" id="Combined-Shape" fill="#F0EEEF"></path>
                        <path d="M46.1513036,37.9076395 L87.9825313,37.9076395 L87.9825313,39.5689445 L46.1513036,39.5689445 L46.1513036,37.9076395 Z M46.1513036,49.8690354 L87.9825313,49.8690354 L87.9825313,51.5303403 L46.1513036,51.5303403 L46.1513036,49.8690354 Z M46.1513036,61.8304312 L87.9825313,61.8304312 L87.9825313,63.4917362 L46.1513036,63.4917362 L46.1513036,61.8304312 Z M46.1513036,73.7918271 L67.0669174,73.7918271 L67.0669174,75.4531321 L46.1513036,75.4531321 L46.1513036,73.7918271 Z" id="Combined-Shape" stroke="#000000" fill="#000000" opacity="0.0854846014" stroke-linecap="round" stroke-linejoin="round" transform="translate(67.066917, 56.680386) scale(-1, 1) translate(-67.066917, -56.680386) "></path>
                        <path d="M30.4872748,19.9202773 L39.8173436,19.9202773 L39.8173436,0 L12.0971393,0 L12.0971393,0.0311178966 C12.3747811,0.0104812473 12.6548794,0 12.9371454,0 C19.8959846,0 25.5372384,6.3704371 25.5372384,14.2287695 C25.5372384,14.3988734 25.5345951,14.5682801 25.5293524,14.7369401 L30.4872748,14.7369399 L30.4872748,19.9202773 Z" id="Combined-Shape" fill="#F0EEEF"></path>
                    </g>
                    <g id="Group-10" transform="translate(137.873935, 58.161789)">
                        <g id="hand">
                            <rect id="Rectangle-38" fill="#FDE7D7" x="39.9890843" y="254.654321" width="109.672449" height="37.5639515" rx="2"></rect>
                            <path d="M185.194675,24.6225135 C191.25267,30.7027272 191.25267,40.5607013 185.194675,46.640915 L153.931641,78.0186121 C147.873646,84.0988258 138.051696,84.0988258 131.993701,78.0186121 C125.935707,71.9383985 125.935707,62.0804244 131.993701,56.0002107 L163.256735,24.6225135 C169.31473,18.5422999 179.13668,18.5422999 185.194675,24.6225135 Z" id="Rectangle-Copy-3" fill="#FDE7D7"></path>
                            <path d="M51.7884693,101.630487 C88.4309162,55.9863412 117.897972,66.3141378 146.16959,96.5196051 C174.441208,126.725072 177.18542,194.796566 166.058709,237.606265 C154.931999,280.415963 134.41468,287.282337 85.4618541,287.282337 C53.505357,287.282337 30.8269403,274.07191 17.4266038,247.651056 L17.4266032,247.651056 C16.8713267,246.556242 16.5754497,245.348326 16.5618783,244.120822 C15.844926,179.273991 27.587123,131.777212 51.7884693,101.630487 Z" id="Rectangle-37" fill="#FCE7D7"></path>
                            <rect id="Rectangle-12" fill="#424559" x="29.768236" y="0" width="129.963751" height="233.284805" rx="8"></rect>
                            <rect id="Rectangle-32" fill="#14AB66" x="38.2286821" y="30.8838655" width="114.446652" height="175.919689" rx="2"></rect>
                            <path d="M1.13730697,70.0655644 C-0.41923414,83.3548089 -0.378040235,117.676107 1.26088869,173.02946 C2.34339122,219.712375 14.2006153,252.044048 36.832561,270.024479 C44.4363525,276.065473 63.1944456,286.475158 68.8696892,274.360998 C74.5449328,262.246838 61.1379835,233.957272 58.7298153,225.389774 C55.7182466,214.675568 48.4191619,192.299326 36.832561,158.261047 L33.3215162,104.192661 C30.6247867,77.3683803 19.8967169,65.9926815 1.13730697,70.0655644 Z" id="Path-6" fill="#FEE7D7"></path>
                            <path d="M180.878943,88.1709967 C186.936937,94.2512104 186.936937,104.109184 180.878943,110.189398 L167.298313,123.819837 C161.240318,129.900051 151.418368,129.900051 145.360373,123.819837 C139.302379,117.739623 139.302379,107.881649 145.360373,101.801436 L158.941003,88.1709967 C164.998998,82.090783 174.820948,82.090783 180.878943,88.1709967 Z" id="Rectangle" fill="#FDE7D7"></path>
                            <path d="M185.311076,125.240904 C191.36907,131.321117 191.36907,141.179092 185.311076,147.259305 L171.730446,160.889744 C165.672452,166.969958 155.850501,166.969958 149.792507,160.889744 C143.734512,154.809531 143.734512,144.951556 149.792507,138.871343 L163.373136,125.240904 C169.431131,119.16069 179.253081,119.16069 185.311076,125.240904 Z" id="Rectangle-Copy" fill="#FDE7D7"></path>
                            <path d="M185.311076,165.276403 C191.36907,171.356617 191.36907,181.214591 185.311076,187.294805 L171.730446,200.925244 C165.672452,207.005458 155.850501,207.005458 149.792507,200.925244 C143.734512,194.84503 143.734512,184.987056 149.792507,178.906842 L163.373136,165.276403 C169.431131,159.19619 179.253081,159.19619 185.311076,165.276403 Z" id="Rectangle-Copy-2" fill="#FDE7D7"></path>
                        </g>
                    </g>
                    <g id="Group-12" transform="translate(181.742915, 110.867571)">
                        <rect id="Rectangle-8" fill="#FFD33E" x="13.8824259" y="73.8354084" width="74.3050102" height="37.726566" rx="18.863283"></rect>
                        <text id="Pay" font-family="Roboto-Bold, Roboto" font-size="12" font-weight="bold" line-spacing="15" fill="#A68100">
                            <tspan x="40.8968902" y="91.9091395">Pay</tspan>
                        </text>
                        <path d="M41.1675184,31.839199 L41.1675184,11.8169837 L32.3046462,11.8169837 L32.3046462,31.839199 L32.2312346,31.839199 L32.2312346,40.7020713 L32.3046462,40.7020713 L32.3046462,40.7167536 L41.1675184,40.7167536 L41.1675184,40.7020713 L76.692419,40.7020713 L76.692419,31.839199 L41.1675184,31.839199 Z" id="Combined-Shape" fill="#00673C" opacity="0.587013134" transform="translate(54.461827, 26.266869) rotate(-45.000000) translate(-54.461827, -26.266869) "></path>
                    </g>
                    <g id="Group-11" transform="translate(360.511825, 69.329987) scale(-1, 1) rotate(-161.000000) translate(-360.511825, -69.329987) translate(341.011825, 36.329987)" stroke="#D8D8D8" stroke-width="4" stroke-linecap="round" opacity="0.57569067" stroke-linejoin="round">
                        <path d="M23.4591049,65.6642373 C32.8731493,58.067547 38.9396573,46.1337842 38.9396573,32.7141862 C38.9396573,19.4326646 32.9973456,7.60655938 23.7486264,-2.84217094e-13" id="Oval-11"></path>
                        <path d="M11.3487514,54.2794686 C17.6247811,49.2150084 21.6691197,41.2591665 21.6691197,32.3127679 C21.6691197,23.4584201 17.7075786,15.57435 11.5417658,10.5033104" id="Oval-11"></path>
                        <path d="M0,42.8946999 C3.13801482,40.3624698 5.16018415,36.3845489 5.16018415,31.9113496 C5.16018415,27.4841757 3.17941357,23.5421406 0.096507181,21.0066208" id="Oval-11"></path>
                    </g>
                    <g id="Group-7" transform="translate(360.352331, 213.783874)">
                        <rect id="Rectangle-40-Copy" fill="#FF830F" x="0" y="0" width="102.671957" height="67.3968363" rx="6"></rect>
                        <rect id="Rectangle-7" fill="#424559" x="0" y="12.3014318" width="102.671957" height="13.7289852"></rect>
                        <rect id="Rectangle-41" fill="#FFFFFF" x="9.32235595" y="33.4455373" width="38.6211889" height="8.02692894" rx="1"></rect>
                        <g id="Group-13" transform="translate(67.920022, 44.148109)" fill="#D0021B" opacity="0.34154212">
                            <ellipse id="Oval-4" style="mix-blend-mode: multiply;" cx="19.2273591" cy="8.69583969" rx="8.7397087" ry="8.69583969"></ellipse>
                            <ellipse id="Oval-4" style="mix-blend-mode: multiply;" cx="8.7397087" cy="8.69583969" rx="8.7397087" ry="8.69583969"></ellipse>
                        </g>
                    </g>
                    <g id="Group-8" transform="translate(0.000000, 83.312833)">
                        <rect id="Rectangle-40" fill="#FD953A" x="0" y="0" width="102.671957" height="67.3968363" rx="6"></rect>
                        <g id="Group-13" transform="translate(9.322356, 9.364750)" fill="#D0021B" opacity="0.34154212">
                            <ellipse id="Oval-4" style="mix-blend-mode: multiply;" cx="19.2273591" cy="8.69583969" rx="8.7397087" ry="8.69583969"></ellipse>
                            <ellipse id="Oval-4" style="mix-blend-mode: multiply;" cx="8.7397087" cy="8.69583969" rx="8.7397087" ry="8.69583969"></ellipse>
                        </g>
                        <path d="M13.3563375,50.8372166 L26.1431501,50.8372166 L26.1431501,50.8372166 C26.9000295,50.8372166 27.5136014,51.4507886 27.5136014,52.2076679 L27.5136014,52.2076679 C27.5136014,52.9645473 26.9000295,53.5781192 26.1431501,53.5781192 L13.3563375,53.5781192 C12.5994582,53.5781192 11.9858862,52.9645473 11.9858862,52.2076679 C11.9858862,51.4507886 12.5994582,50.8372166 13.3563375,50.8372166 L13.3563375,50.8372166 Z M34.0599577,50.8372166 L46.8467704,50.8372166 L46.8467704,50.8372166 C47.6036497,50.8372166 48.2172216,51.4507886 48.2172216,52.2076679 L48.2172216,52.2076679 C48.2172216,52.9645473 47.6036497,53.5781192 46.8467704,53.5781192 L34.0599577,53.5781192 C33.3030784,53.5781192 32.6895065,52.9645473 32.6895065,52.2076679 C32.6895065,51.4507886 33.3030784,50.8372166 34.0599577,50.8372166 L34.0599577,50.8372166 Z M54.763578,50.8372166 L67.5503906,50.8372166 L67.5503906,50.8372166 C68.3072699,50.8372166 68.9208419,51.4507886 68.9208419,52.2076679 L68.9208419,52.2076679 L68.9208419,52.2076679 C68.9208419,52.9645473 68.3072699,53.5781192 67.5503906,53.5781192 L54.763578,53.5781192 C54.0066986,53.5781192 53.3931267,52.9645473 53.3931267,52.2076679 L53.3931267,52.2076679 L53.3931267,52.2076679 C53.3931267,51.4507886 54.0066986,50.8372166 54.763578,50.8372166 L54.763578,50.8372166 Z M75.4671982,50.8372166 L88.2540108,50.8372166 L88.2540108,50.8372166 C89.0108902,50.8372166 89.6244621,51.4507886 89.6244621,52.2076679 L89.6244621,52.2076679 C89.6244621,52.9645473 89.0108902,53.5781192 88.2540108,53.5781192 L75.4671982,53.5781192 C74.7103189,53.5781192 74.0967469,52.9645473 74.0967469,52.2076679 L74.0967469,52.2076679 L74.0967469,52.2076679 C74.0967469,51.4507886 74.7103189,50.8372166 75.4671982,50.8372166 Z" id="Combined-Shape" fill="#424559"></path>
                    </g>
                </g>
                <text id="Debit-Card" font-family="Roboto-Bold, Roboto" font-size="18" font-weight="bold" line-spacing="15" letter-spacing="1.79999995" fill="#424559">
                    <tspan x="17.2351271" y="176.458245">Debit Card</tspan>
                </text>
                <text id="Credit-Card" font-family="Roboto-Bold, Roboto" font-size="18" font-weight="bold" line-spacing="15" letter-spacing="1.79999995" fill="#424559">
                    <tspan x="374.271484" y="306.705159">Credit Card</tspan>
                </text>
            </g>
        </g>
    </g>
</svg>