<?xml version="1.0" encoding="UTF-8"?>
<svg width="131px" height="170px" viewBox="0 0 131 170" version="1.1" xmlns="http://www.w3.org/2000/svg" xmlns:xlink="http://www.w3.org/1999/xlink">
    <!-- Generator: Sketch 46.2 (44496) - http://www.bohemiancoding.com/sketch -->
    <title>Page 1</title>
    <desc>Created with Sketch.</desc>
    <defs>
        <polygon id="path-1" points="0 170.16 130.753 170.16 130.753 1 0 1"></polygon>
    </defs>
    <g id="Page-1" stroke="none" stroke-width="1" fill="none" fill-rule="evenodd">
        <g id="avatar" transform="translate(0.000000, -682.000000)">
            <g id="doctor-copy-7" transform="translate(0.000000, 592.000000)">
                <g id="Page-1" transform="translate(0.000000, 89.000000)">
                    <path d="M47.8476,1.1395 C47.8476,1.1395 16.4126,-0.6065 11.7906,39.5535 C11.7906,39.5535 12.7156,50.9045 4.3936,61.3805 C4.3936,61.3805 -7.6244,77.0955 8.0926,93.6835 C8.0926,93.6835 11.7906,98.9215 6.2436,104.1605 L54.1606,104.1605 L117.1876,104.1605 C117.1876,104.1605 128.2826,92.8105 117.1876,78.8415 C117.1876,78.8415 116.2636,73.6035 120.8856,65.7455 C120.8856,65.7455 129.2066,43.0455 110.7156,23.8385 C110.7156,23.8385 90.3756,2.8855 74.6596,3.7585 C74.6596,3.7585 68.1876,4.6315 67.2626,3.7585 C67.2626,3.7585 58.9426,0.2665 47.8476,1.1395" id="Fill-1" fill="#713D25"></path>
                    <path d="M115.7401,138.5272 L88.0611,125.2612 C82.9631,123.2212 80.7771,120.1602 80.7771,120.1602 L64.7531,121.1352 L48.7281,120.1602 C48.7281,120.1602 46.5431,123.2212 41.4441,125.2612 L13.7651,138.5272 C13.7651,138.5272 5.7531,143.6302 5.7531,153.8342 L5.7531,170.1602 L64.0241,170.1602 L65.4811,170.1602 L123.7531,170.1602 L123.7531,153.8342 C123.7531,143.6302 115.7401,138.5272 115.7401,138.5272" id="Fill-4" fill="#FFCBB9"></path>
                    <mask id="mask-2" fill="white">
                        <use xlink:href="#path-1"></use>
                    </mask>
                    <g id="Clip-8"></g>
                    <polygon id="Fill-7" fill="#FFCBB9" mask="url(#mask-2)" points="47.753 140.16 81.753 140.16 81.753 109.16 47.753 109.16"></polygon>
                    <path d="M47.7528,116.0399 C52.7718,121.1649 58.7408,124.1599 65.1398,124.1599 C71.2098,124.1599 76.8988,121.4739 81.7528,116.8199 L81.7528,107.1599 L47.7528,107.1599 L47.7528,116.0399 Z" id="Fill-9" fill="#E39586" mask="url(#mask-2)"></path>
                    <path d="M64.7528,103.16 L64.7528,103.16 C40.5528,103.16 20.7528,86.36 20.7528,62.16 L20.7528,55.16 C20.7528,30.96 40.5528,11.16 64.7528,11.16 C88.9528,11.16 108.7528,30.96 108.7528,55.16 L108.7528,62.16 C108.7528,86.36 88.9528,103.16 64.7528,103.16" id="Fill-10" fill="#713D25" mask="url(#mask-2)"></path>
                    <path d="M64.7528,119.16 L64.7528,119.16 C41.9278,119.16 23.2528,103.485 23.2528,80.66 L23.2528,65.66 C23.2528,42.835 41.9278,24.16 64.7528,24.16 C87.5778,24.16 106.2528,42.835 106.2528,65.66 L106.2528,80.66 C106.2528,103.485 87.5778,119.16 64.7528,119.16" id="Fill-11" fill="#FFCBB9" mask="url(#mask-2)"></path>
                    <path d="M31.7528,84.16 L22.7528,84.16 C17.5278,84.16 13.2528,79.885 13.2528,74.66 C13.2528,69.435 17.5278,65.16 22.7528,65.16 L31.7528,65.16 C36.9778,65.16 41.2528,69.435 41.2528,74.66 C41.2528,79.885 36.9778,84.16 31.7528,84.16" id="Fill-12" fill="#FFCBB9" mask="url(#mask-2)"></path>
                    <path d="M106.7528,84.16 L97.7528,84.16 C92.5278,84.16 88.2528,79.885 88.2528,74.66 C88.2528,69.435 92.5278,65.16 97.7528,65.16 L106.7528,65.16 C111.9778,65.16 116.2528,69.435 116.2528,74.66 C116.2528,79.885 111.9778,84.16 106.7528,84.16" id="Fill-13" fill="#FFCBB9" mask="url(#mask-2)"></path>
                    <path d="M23.2528,70.16 L22.7528,70.16 C20.2778,70.16 18.2528,71.817 18.2528,73.842 L18.2528,75.478 C18.2528,77.503 20.2778,79.16 22.7528,79.16 L23.2528,79.16 L23.2528,70.16 Z" id="Fill-14" fill="#E39586" mask="url(#mask-2)"></path>
                    <path d="M106.2528,70.16 L106.7528,70.16 C109.2278,70.16 111.2528,71.817 111.2528,73.842 L111.2528,75.478 C111.2528,77.503 109.2278,79.16 106.7528,79.16 L106.2528,79.16 L106.2528,70.16 Z" id="Fill-15" fill="#E39586" mask="url(#mask-2)"></path>
                    <path d="M83.7528,89.16 L65.7528,89.16 L64.7528,89.16 L46.7528,89.16 C46.7528,89.16 43.7528,89.16 44.7528,92.493 C44.7528,92.493 48.6028,103.688 64.7528,104.139 L64.7528,104.16 C64.9238,104.16 65.0848,104.151 65.2528,104.149 C65.4208,104.151 65.5818,104.16 65.7528,104.16 L65.7528,104.139 C81.9028,103.688 85.7528,92.493 85.7528,92.493 C86.7528,89.16 83.7528,89.16 83.7528,89.16" id="Fill-16" fill="#8B2A23" mask="url(#mask-2)"></path>
                    <path d="M65.2528,97.16 C61.2858,97.16 57.8438,99.363 56.0558,102.606 C58.4558,103.461 61.3248,104.043 64.7528,104.139 L64.7528,104.16 C64.9238,104.16 65.0848,104.151 65.2528,104.149 C65.4208,104.151 65.5818,104.16 65.7528,104.16 L65.7528,104.139 C69.1808,104.043 72.0498,103.461 74.4498,102.606 C72.6618,99.363 69.2198,97.16 65.2528,97.16" id="Fill-17" fill="#DB6565" mask="url(#mask-2)"></path>
                    <path d="M83.7528,89.16 L65.7528,89.16 L64.7528,89.16 L46.7528,89.16 C46.7528,89.16 43.7528,89.16 44.7528,92.493 C44.7528,92.493 45.1488,93.618 46.1848,95.16 L84.3208,95.16 C85.3568,93.618 85.7528,92.493 85.7528,92.493 C86.7528,89.16 83.7528,89.16 83.7528,89.16" id="Fill-18" fill="#FFFFFF" mask="url(#mask-2)"></path>
                    <path d="M64.7528,79.8241 C62.2098,79.8241 59.9798,78.7511 58.7528,77.1601 L58.7528,77.4881 C58.7528,80.0571 61.4528,82.1601 64.7528,82.1601 C68.0528,82.1601 70.7528,80.0571 70.7528,77.4881 L70.7528,77.1601 C69.5258,78.7511 67.2958,79.8241 64.7528,79.8241" id="Fill-19" fill="#E49584" mask="url(#mask-2)"></path>
                    <path d="M45.2528,79.16 C45.2528,82.473 42.5658,85.16 39.2528,85.16 C35.9398,85.16 33.2528,82.473 33.2528,79.16 C33.2528,75.847 35.9398,73.16 39.2528,73.16 C42.5658,73.16 45.2528,75.847 45.2528,79.16" id="Fill-20" fill="#FFB7A9" mask="url(#mask-2)"></path>
                    <path d="M96.2528,79.16 C96.2528,82.473 93.5658,85.16 90.2528,85.16 C86.9398,85.16 84.2528,82.473 84.2528,79.16 C84.2528,75.847 86.9398,73.16 90.2528,73.16 C93.5658,73.16 96.2528,75.847 96.2528,79.16" id="Fill-21" fill="#FFB7A9" mask="url(#mask-2)"></path>
                    <path d="M85.6435,69.16 C87.9545,69.16 90.0805,69.529 91.7515,70.141 L91.7525,70.141 L91.7525,69.269 C91.7525,65.909 89.0035,63.16 85.6435,63.16 C82.2845,63.16 79.5355,65.909 79.5355,69.269 L79.5355,70.141 L79.5365,70.141 C81.2065,69.529 83.3325,69.16 85.6435,69.16" id="Fill-22" fill="#754448" mask="url(#mask-2)"></path>
                    <path d="M86.9198,64.9071 L86.9198,64.9071 C86.6998,64.7411 86.6558,64.4271 86.8208,64.2071 L88.6258,61.8101 C88.7918,61.5911 89.1068,61.5461 89.3258,61.7121 C89.5458,61.8771 89.5908,62.1921 89.4248,62.4121 L87.6198,64.8081 C87.4548,65.0281 87.1398,65.0721 86.9198,64.9071" id="Fill-23" fill="#754448" mask="url(#mask-2)"></path>
                    <path d="M89.1796,66.6082 L89.1796,66.6082 C88.9596,66.4432 88.9146,66.1282 89.0806,65.9082 L90.8856,63.5112 C91.0506,63.2922 91.3666,63.2482 91.5856,63.4132 C91.8056,63.5792 91.8496,63.8932 91.6846,64.1132 L89.8796,66.5092 C89.7136,66.7292 89.3996,66.7742 89.1796,66.6082" id="Fill-24" fill="#754448" mask="url(#mask-2)"></path>
                    <path d="M44.0888,69.16 C41.7778,69.16 39.6518,69.529 37.9808,70.141 L37.9798,70.141 L37.9798,69.269 C37.9798,65.909 40.7288,63.16 44.0888,63.16 C47.4488,63.16 50.1978,65.909 50.1978,69.269 L50.1978,70.141 L50.1968,70.141 C48.5258,69.529 46.3998,69.16 44.0888,69.16" id="Fill-25" fill="#754448" mask="url(#mask-2)"></path>
                    <path d="M42.8124,64.9071 L42.8124,64.9071 C43.0324,64.7411 43.0774,64.4271 42.9114,64.2071 L41.1064,61.8101 C40.9414,61.5911 40.6254,61.5461 40.4064,61.7121 C40.1864,61.8771 40.1424,62.1921 40.3074,62.4121 L42.1124,64.8081 C42.2784,65.0281 42.5924,65.0721 42.8124,64.9071" id="Fill-26" fill="#754448" mask="url(#mask-2)"></path>
                    <path d="M40.5536,66.6082 L40.5536,66.6082 C40.7736,66.4432 40.8176,66.1282 40.6526,65.9082 L38.8476,63.5112 C38.6816,63.2922 38.3666,63.2482 38.1476,63.4132 C37.9276,63.5792 37.8826,63.8932 38.0486,64.1132 L39.8536,66.5092 C40.0186,66.7292 40.3336,66.7742 40.5536,66.6082" id="Fill-27" fill="#754448" mask="url(#mask-2)"></path>
                    <path d="M21.9667,26.0096 C18.1497,33.8556 15.8867,43.1706 15.7717,53.1596 C17.8977,51.6516 19.1787,50.1766 19.1787,50.1766 C67.5187,56.6556 76.7527,17.7806 76.7527,17.7806 L48.5317,16.1596 L21.9667,26.0096 Z" id="Fill-28" fill="#713D25" mask="url(#mask-2)"></path>
                    <path d="M60.8983,69.66 C60.8983,75.742 53.5743,80.672 44.5393,80.672 C35.5033,80.672 23.7523,66.492 23.7523,60.41 C23.7523,58.648 34.4013,58.648 44.5393,58.648 C56.2443,58.648 60.8983,63.578 60.8983,69.66 Z" id="Stroke-29" stroke="#9F9F9F" stroke-width="3" mask="url(#mask-2)"></path>
                    <path d="M70.6073,69.66 C70.6073,75.742 77.9313,80.672 86.9663,80.672 C96.0023,80.672 107.7533,66.492 107.7533,60.41 C107.7533,58.648 97.1043,58.648 86.9663,58.648 C75.2613,58.648 70.6073,63.578 70.6073,69.66 Z" id="Stroke-30" stroke="#9F9F9F" stroke-width="3" mask="url(#mask-2)"></path>
                    <polygon id="Stroke-31" fill="#9F9F9F" fill-rule="nonzero" mask="url(#mask-2)" points="61.9335 71.16 69.2115 71.16 69.2115 68.16 61.9335 68.16"></polygon>
                    <path d="M93.997,127.9832 C90.003,140.4822 78.371,149.5892 64.734,149.5892 C51.098,149.5892 39.466,140.4822 35.472,127.9832 L22.716,134.1702 L22.716,170.1602 L63.988,170.1602 L65.48,170.1602 L106.753,170.1602 L106.753,134.1702 L93.997,127.9832 Z" id="Fill-32" fill="#FFFFFF" mask="url(#mask-2)"></path>
                    <path d="M45.7528,122.9188 C44.6498,123.7088 43.2298,124.5478 41.4438,125.2618 L13.7648,138.5268 C13.7648,138.5268 5.7528,143.6298 5.7528,153.8338 L5.7528,170.1598 L45.7528,170.1598 L45.7528,122.9188 Z" id="Fill-33" fill="#75C3EA" mask="url(#mask-2)"></path>
                    <path d="M83.7528,122.9188 C84.8558,123.7088 86.2758,124.5478 88.0618,125.2618 L115.7398,138.5268 C115.7398,138.5268 123.7528,143.6298 123.7528,153.8338 L123.7528,170.1598 L83.7528,170.1598 L83.7528,122.9188 Z" id="Fill-34" fill="#75C3EA" mask="url(#mask-2)"></path>
                    <path d="M130.7528,170.16 L130.7528,141.682 C130.7528,139.195 128.7178,137.16 126.2308,137.16 L81.2748,137.16 C78.7878,137.16 76.7528,139.195 76.7528,141.682 L76.7528,170.16 L130.7528,170.16 Z" id="Fill-35" fill="#92EAC2" mask="url(#mask-2)"></path>
                    <polygon id="Fill-36" fill="#FFFFFF" mask="url(#mask-2)" points="80.753 170.16 95.753 170.16 95.753 141.16 80.753 141.16"></polygon>
                    <path d="M130.7528,170.16 L130.7528,141.053 C130.7528,138.912 129.0008,137.16 126.8598,137.16 L94.6458,137.16 C92.5048,137.16 90.7528,138.912 90.7528,141.053 L90.7528,170.16 L130.7528,170.16 Z" id="Fill-37" fill="#B0F4D6" mask="url(#mask-2)"></path>
                    <polygon id="Fill-38" fill="#EAEAEA" mask="url(#mask-2)" points="82.753 170.16 83.753 170.16 83.753 141.16 82.753 141.16"></polygon>
                    <polygon id="Fill-39" fill="#EAEAEA" mask="url(#mask-2)" points="86.753 170.16 87.753 170.16 87.753 141.16 86.753 141.16"></polygon>
                    <polygon id="Fill-40" fill="#EAEAEA" mask="url(#mask-2)" points="88.753 170.16 89.753 170.16 89.753 141.16 88.753 141.16"></polygon>
                    <polygon id="Fill-41" fill="#EAEAEA" mask="url(#mask-2)" points="84.753 170.16 85.753 170.16 85.753 141.16 84.753 141.16"></polygon>
                    <polygon id="Fill-42" fill="#EAEAEA" mask="url(#mask-2)" points="80.753 170.16 81.753 170.16 81.753 141.16 80.753 141.16"></polygon>
                </g>
            </g>
        </g>
    </g>
</svg>